<svg xmlns="http://www.w3.org/2000/svg" xmlns:xlink="http://www.w3.org/1999/xlink" viewBox="0 0 193 70.55" xmlns:v="https://vecta.io/nano"><defs><linearGradient id="A" x1="29.54" y1="71.36" x2="52.67" y2="71.36" gradientUnits="userSpaceOnUse"><stop offset="0" stop-color="#cececf"/><stop offset="0" stop-color="#cececf"/><stop offset=".68" stop-color="#949494"/><stop offset="1" stop-color="#7e7e7d"/></linearGradient><linearGradient id="B" x2="51.51" xlink:href="#A"/></defs><path d="M54.26 43.68l-.24.1a2.48 2.48 0 0 1-.9.11l-.89-.09h-.19l.1 4.42v3.15 1 1l-.2 4.49h.18c.46 0 .81-.06 1-.06s.55 0 1 .06h.18l-.3-4.54v-.62-.6l.07-3.73zm18.93.15a8.45 8.45 0 0 1-.86-.06h-.22v.22l.09 1.71v6.39 1.8l-9.73-10.43h-.57v6.83l-.13 4.67c0 .58-.07 1.45-.15 2.62v.23l.22-.07a3.14 3.14 0 0 1 .64 0 3.26 3.26 0 0 1 .65 0l.22.07-.14-2.13v-6.91-1.47l5.27 5.63 3.27 3.61 1.19 1.42v.05h.52l-.07-2.4.06-4.46.28-6.68v-.25a1.69 1.69 0 0 1 0-.21v-.24h-.24a3.33 3.33 0 0 1-.46.06m13.56 6.36l-.43-.23-.49-.2-.39-.16-.54-.22a4.29 4.29 0 0 1-.76-.34 3.53 3.53 0 0 1-.75-.47 2.13 2.13 0 0 1-.78-1.72 2.07 2.07 0 0 1 .68-1.59 2.39 2.39 0 0 1 1.68-.64 2.32 2.32 0 0 1 1.42.46 2.65 2.65 0 0 1 .89 1.24v.11h.42v-.12a11.75 11.75 0 0 1 .55-1.63v-.11l-.09-.08a4.37 4.37 0 0 0-3-1 5.18 5.18 0 0 0-3.26 1 3.54 3.54 0 0 0-1.32 3A3.24 3.24 0 0 0 82 50.36a6 6 0 0 0 .85.49l1 .44 1 .44c1.28.56 1.9 1.34 1.9 2.36a2.71 2.71 0 0 1-.74 1.92 2.44 2.44 0 0 1-1.87.79 3 3 0 0 1-1.75-.48 4.92 4.92 0 0 1-1.32-1.47l-.05-.08h-.46v.19a6.79 6.79 0 0 1-.36 1.7v.1l.07.07a3.31 3.31 0 0 0 1.51.87 6.12 6.12 0 0 0 1.85.31 5.9 5.9 0 0 0 2.57-.55 4.37 4.37 0 0 0 1.86-1.62 4.47 4.47 0 0 0 .69-2.48 3.59 3.59 0 0 0-.88-2.23 5.21 5.21 0 0 0-1.28-.9m20.09-6.4c-.39 0-.66-.06-.83-.06h-.17l.07 2 .06 2.14v1.16 1.14l-.12 2.61a5.42 5.42 0 0 1-.4 1.73 3.75 3.75 0 0 1-1.34 1.61 3.47 3.47 0 0 1-1.07.45 4.94 4.94 0 0 1-1.23.18 4.66 4.66 0 0 1-2.76-.78 3.41 3.41 0 0 1-1.35-2.36 10.59 10.59 0 0 1-.16-2v-.8-.79l.1-4.24.06-1.34a2.51 2.51 0 0 1 0-.47v-.21h-.21-.29-.33a1.69 1.69 0 0 1-.55 0h-.43-.31-.2l.08.71.06 3.11v2.15l-.02 2.19a11.53 11.53 0 0 0 .27 2.66 3.7 3.7 0 0 0 1.16 1.95 4.72 4.72 0 0 0 .93.68 7.61 7.61 0 0 0 3.51.76 5.92 5.92 0 0 0 4.35-1.6 4.44 4.44 0 0 0 1.16-2 8.89 8.89 0 0 0 .36-2.48l.19-5.51c0-.28 0-.68.07-1.21s.07-.95.08-1.23v-.23l-.23.07a2 2 0 0 1-.52.05m13.23 7.03a6.36 6.36 0 0 0 2.71-1.22 3.26 3.26 0 0 0 1.23-2.72 3.13 3.13 0 0 0-.42-1.6 2.53 2.53 0 0 0-1.63-1.35 9.33 9.33 0 0 0-2.53-.3l-2.64.06-1.73-.07.11 4.56-.09 7-.06 1.18q0 .62 0 1.14v.18h.18c.4 0 .72-.06.95-.06a8.77 8.77 0 0 1 .88.06h.18l-.04-4.35v-2.29h.5l1.5 1.84 2.37 3 .7 1 .51.72v.08h.1l.58-.05a4.38 4.38 0 0 1 .53 0 4.66 4.66 0 0 1 .56 0l.61.05h.37l-1.54-1.85zm-2.91-6h1.49 1.21a2.52 2.52 0 0 1 1.45.71 2.25 2.25 0 0 1 .6 1.66 2.52 2.52 0 0 1-.65 1.76 3.28 3.28 0 0 1-1.76.94 10.78 10.78 0 0 1-1.63.12h-.77zm18.9-1.41l-6.39 14.26h.28a6.68 6.68 0 0 1 .73-.06 3.07 3.07 0 0 1 .64 0h.15v-.15l1.92-5.22 2.57-.06 2.29.06.93 2.27.9 2.35.22.73h.15a6.49 6.49 0 0 1 1.06-.06 7.19 7.19 0 0 1 1 .06h.29l-6.15-14.26zm1.79 7.73h-3.89l1.93-4.53zm22.44-7.39a8.29 8.29 0 0 1-.85-.06h-.22v.22l.09 1.71v6.39 1.8l-9.73-10.43h-.58v6.83l-.12 4.67c0 .58-.08 1.45-.16 2.62v.23l.22-.07a3.07 3.07 0 0 1 .64 0 3.14 3.14 0 0 1 .64 0l.23.07-.14-2.13v-6.91-1.47l5.27 5.63 3.27 3.61 1.22 1.41.05.05h.51l-.06-2.4.06-4.46.28-6.68v-.25a1.69 1.69 0 0 1 0-.21l.05-.24h-.24a3.41 3.41 0 0 1-.47.06m14.67-.3a8 8 0 0 0-5.35 1.79 6.32 6.32 0 0 0-1.73 2.42 7.6 7.6 0 0 0-.64 3 8.27 8.27 0 0 0 .86 3.87 6 6 0 0 0 2.51 2.54 9.05 9.05 0 0 0 8.33-.26h.06l.23-1.47h-.2a.57.57 0 0 0-.4.18 6.51 6.51 0 0 1-3.89 1.37 5.19 5.19 0 0 1-2.2-.48 4.56 4.56 0 0 1-1.73-1.36 5.23 5.23 0 0 1-1-1.84 12.33 12.33 0 0 1-.34-2.46 7.74 7.74 0 0 1 .62-3.11 5.16 5.16 0 0 1 1.81-2.25 5.1 5.1 0 0 1 2.93-.83 4.93 4.93 0 0 1 3.5 1.47.27.27 0 0 1 .08.07l.16.19.35-.07v-.11a8.36 8.36 0 0 1 .4-1.5l.05-.15-.14-.06a10.66 10.66 0 0 0-4.33-.92M193 57.54v-1.17-.19h-.19a11.55 11.55 0 0 1-1.8.16l-3.42.09v-1.58-3.89h2.92a17.36 17.36 0 0 1 1.76.12h.22v-.21l-.09-.56c-.01-.01 0-.23.09-.58v-.2l-3 .16h-1.86l.09-4.68h1.3l2 .06 1 .06c.34 0 .62.06.82.07h.23l-.07-.23a2.09 2.09 0 0 1 0-.54 1.78 1.78 0 0 1 0-.29 2.44 2.44 0 0 0 0-.3v-.18h-.17l-2.05.06h-2.87l-2.33-.06v.3l.1 2.56v1.73 6.82l-.14 2.67h1 .8.88.87l2.45.06h1.56z" fill="#7d7d7d"/><path d="M84.08 38.32a20.7 20.7 0 0 1-2.13-4c-2.67-5.91-7.31-20.3-8.87-25.36a9 9 0 0 0-7.83-6.49.58.58 0 0 0-.58.38l-6.83 18.76L51 38.76a.61.61 0 0 0 0 .46c.06.13.44.82 1.87.82a5.87 5.87 0 0 0 .89-.08c3-.46 3.58-2.19 6.53-11.75l.11-.35a174.04 174.04 0 0 1 6.8-.13h4.61c1.19 3.63 2.11 6.66 2.68 8.78s2.62 3.45 5.57 3.45a18.79 18.79 0 0 0 3.87-.5.56.56 0 0 0 .41-.35.59.59 0 0 0 0-.53c-.07-.09-.13-.19-.21-.3m-18-14.32h-4.59l4.27-12.88c1.62 4.22 3.32 8.88 4.69 12.88h-4.37m35.79-5.15a6.63 6.63 0 0 0 .72-2.88 2.93 2.93 0 0 0-3-3.25 9.53 9.53 0 0 0-6.88 3.47c-.2-2.09-2-3.47-4.64-3.47a7.5 7.5 0 0 0-2.8.54.62.62 0 0 0-.18.74s1.08 3.67 1.19 12.84l-.14 6.09-.11 2.66c0 3 1.19 4.45 3.76 4.45a12.8 12.8 0 0 0 3.16-.45 1 1 0 0 0 .67-.48.85.85 0 0 0 0-.72c-.22-.59-.93-3.15-.93-11.2 0-6.45.74-9.33 5.1-9.33a3.8 3.8 0 0 1 3.16 1.14.58.58 0 0 0 .51.21.59.59 0 0 0 .45-.32M126 35.63a.58.58 0 0 0-.62.07 3.59 3.59 0 0 1-2 1c-.44 0-1.43-.58-1.43-6l.1-4.46.1-4.34c0-4.3-1-9.23-9.14-9.23-4.56 0-9.26 2.25-9.43 6.54a.59.59 0 0 0 1 .41 9 9 0 0 1 6.29-3c3.29 0 4.75 2 4.75 6.36v.14c-6.91.25-14.08 3-14.08 9.87 0 4.41 2.71 7.27 6.92 7.27a10.65 10.65 0 0 0 7.32-3.06 3.46 3.46 0 0 0 .7 1.29 5.26 5.26 0 0 0 4 1.57c3.23 0 5.87-1.75 5.87-3.9a.6.6 0 0 0-.34-.53m-10.55-1.36a11 11 0 0 1-4.46 1.15 3.19 3.19 0 0 1-3.24-3.39c0-4.38 5.22-5.45 7.81-5.89-.09 2.38-.21 6-.18 8.13m27.25-21.43c-2.68 0-6.14.59-8.54 3.16v-.3l.36-6.75c0-6.52-.35-8.77-7.09-8.83a.69.69 0 0 0-.59.33.79.79 0 0 0-.05.76c.58 1.21.88 6.17.88 14.73v5.68 5.69l-.05 3.72c-.05 1.29-.06 2.7-.06 4.12 0 3.35 4.39 4.86 8.73 4.86 9.5 0 15.17-6 15.17-16 0-5.41-2.31-11.19-8.83-11.19M137 36.68a2.47 2.47 0 0 1-2.54-2.16 67.78 67.78 0 0 1-.4-9 37.25 37.25 0 0 1 .38-5.66c1.13-1.55 3.75-3.31 5.58-3.31 3 0 4.59 4.68 4.59 9.07 0 5.52-2.35 11.09-7.61 11.09m21.14-28.64a3.42 3.42 0 1 0-3.39-3.39 3.46 3.46 0 0 0 3.39 3.39m7.4 27.53a.58.58 0 0 0-.62.07 3.71 3.71 0 0 1-2 1c-1.43 0-1.63-3.06-1.63-6.36l.12-6 .13-7.74c0-2.2-2-3.8-4.85-3.8a8.22 8.22 0 0 0-2.43.42c-.27.07-.57.3-.46 1q0 .16.12.48a21.82 21.82 0 0 1 .72 4.57l.2 7.62-.09 4.24-.11 4.36c0 3 2 4.65 5.36 4.65 3.24 0 5.87-1.75 5.87-3.9a.59.59 0 0 0-.33-.52m26.63-.12a.61.61 0 0 0-.62.07 3.61 3.61 0 0 1-2 1c-.42 0-1.42-.58-1.42-6l.1-4.46.1-4.34c0-4.3-1-9.24-9.13-9.24-4.57 0-9.27 2.25-9.44 6.55a.57.57 0 0 0 .37.56.57.57 0 0 0 .65-.16 9 9 0 0 1 6.3-3c3.29 0 4.75 2 4.75 6.35v.14c-6.91.26-14.08 3-14.08 9.87 0 4.42 2.71 7.27 6.92 7.27a10.64 10.64 0 0 0 7.32-3 3.42 3.42 0 0 0 .7 1.28 5.22 5.22 0 0 0 3.95 1.5c3.23 0 5.86-1.75 5.86-3.9a.59.59 0 0 0-.33-.53m-10.55-1.35a11.13 11.13 0 0 1-4.39 1.15 3.19 3.19 0 0 1-3.23-3.37c0-4.37 5.22-5.44 7.81-5.89-.09 2.39-.2 6-.18 8.14" fill="#005385"/><path d="M23.54 58.64C-8.29 40.15 1.81 4.96 2.37-.04c12.8 6.21 21.17 5.46 21.17 5.46z" fill="#3a6895"/><path d="M29.54 100.68C61.38 82.19 51.27 47 50.71 42c-12.79 6.25-21.17 5.5-21.17 5.5z" transform="translate(-6 -42.04)" fill="url(#A)"/><path d="M23.54 58.64C55.38 40.15 45.27 4.96 44.71-.04c-12.79 6.25-21.17 5.5-21.17 5.5z" fill="#c7c8c9"/><path d="M29.54 100.68C56.67 80.68 51.27 47 50.71 42c-12.79 6.25-21.17 5.5-21.17 5.5z" transform="translate(-6 -42.04)" fill="url(#B)"/><path d="M9.36 68.65h-.71-.69L7.4 66.8h-1-.85a18.85 18.85 0 0 0-.56 1.85h-.37-.4l2.3-6.37a1.64 1.64 0 0 0 .32.05 1.71 1.71 0 0 0 .3-.05l2.25 6.37m-2.14-2.41l-.73-2.18-.76 2.18zm9.21-1.37l-.06-2.54a3.82 3.82 0 0 0 .66.06 3.63 3.63 0 0 0 .66-.06v2.54 1.24 2.54h-.66-.66l.06-2.54zm14.07 2.6a3.81 3.81 0 0 0-.19.81 3.32 3.32 0 0 1-1.64.37 2.86 2.86 0 0 1-3-3c0-2.52 1.52-3.51 3.22-3.51a3.19 3.19 0 0 1 1.65.46 3.66 3.66 0 0 0-.18.92h-.12a1.61 1.61 0 0 0-1.4-.81c-.86 0-1.83.86-1.83 2.81s1 2.63 1.92 2.63a2 2 0 0 0 1.46-.7zm12.69 0a3.29 3.29 0 0 0-.19.81 3.32 3.32 0 0 1-1.64.37 2.86 2.86 0 0 1-3-3c0-2.52 1.52-3.51 3.22-3.51a3.14 3.14 0 0 1 1.65.46 3.66 3.66 0 0 0-.18.92H43a1.6 1.6 0 0 0-1.39-.81c-.87 0-1.84.86-1.84 2.81s1 2.63 1.92 2.63a2.05 2.05 0 0 0 1.46-.7zm3.96 3.08H0V60.28h47.18zM.4 70.16h46.39v-9.49H.4zm77.27-5.28l-.06-2h.53.53v2 1 2h-.53-.53l.06-2zm2.16-2.04a1.55 1.55 0 0 0 .29 0 1.27 1.27 0 0 0 .29 0l2.84 3.51-.06-3.51a1.65 1.65 0 0 0 .3 0 1.35 1.35 0 0 0 .29 0l-.11 5.08a1 1 0 0 0-.25 0 1.1 1.1 0 0 0-.26 0l-2.84-3.58v1.72 1.86a1.56 1.56 0 0 0-.31 0 1.51 1.51 0 0 0-.3 0l.14-3.61v-1.47m6.94.99a.77.77 0 0 0-.78-.63.66.66 0 0 0-.68.65c0 1.1 2 .82 2 2.51a1.75 1.75 0 0 1-2.77 1.34l.18-.93h.13a.88.88 0 0 0 .9.79.7.7 0 0 0 .76-.75c0-1.11-2-.82-2-2.49A1.46 1.46 0 0 1 86 62.74a1.54 1.54 0 0 1 1.06.36c-.08.24-.12.41-.2.73zm1.36 2.25v-1.73-1.51h.53a4.58 4.58 0 0 0 .53 0l-.08 2.57c0 1.81.44 2.1 1.3 2.1 1 0 1.11-1.28 1.11-2.65v-2a1.69 1.69 0 0 0 .33 0 1.82 1.82 0 0 0 .32 0l-.08 2.75c0 1.72-.67 2.44-1.92 2.44a1.78 1.78 0 0 1-2-1.95m6.04-.52h-.06v.3l.06 2h-.55-.51v-2-1-2h.51 1c.65 0 .9.06 1.11.24a1.17 1.17 0 0 1 .44 1 1.31 1.31 0 0 1-1 1.36l1.39 2.51h-.58-.6zm0-2.32v2h.15c.57 0 .89-.36.89-1.06 0-.87-.31-1-1-1m6.6 4.76h-.59-.55l-.44-1.5h-.83-.69c-.18.5-.31 1-.44 1.5h-.3-.33l1.86-5.12a2 2 0 0 0 .24 0 2.17 2.17 0 0 0 .25 0l1.82 5.12m-1.74-2l-.57-1.76-.62 1.76zm2.42-3.06a1.36 1.36 0 0 0 .29 0 1.33 1.33 0 0 0 .28 0l2.84 3.52-.06-3.52a1.63 1.63 0 0 0 .31 0h.29l-.12 5.1a.76.76 0 0 0-.25-.06.66.66 0 0 0-.26.06l-2.86-3.6v1.72V68a.81.81 0 0 0-.61 0l.12-3.63V62.9m8.59 4.24a3.5 3.5 0 0 0-.15.62 2.45 2.45 0 0 1-1.32.33 2.31 2.31 0 0 1-2.41-2.47 2.59 2.59 0 0 1 3.91-2.45 3.32 3.32 0 0 0-.14.74h-.09a1.29 1.29 0 0 0-1.13-.65c-.69 0-1.47.69-1.47 2.25s.79 2.11 1.53 2.11a1.67 1.67 0 0 0 1.19-.54zm.77-2.18l-.06-2h1.16 1.36a2.16 2.16 0 0 0 0 .31 2.5 2.5 0 0 0 0 .33c-.5 0-1.27-.08-1.47-.08v1.6l1.46-.06a2.67 2.67 0 0 0 0 .32v.32a11.88 11.88 0 0 0-1.46-.06v.93.93a9.48 9.48 0 0 0 1.48-.11 2.68 2.68 0 0 0 0 .34 2.34 2.34 0 0 0 0 .33c-.23 0-.54-.06-1.14-.06a7 7 0 0 0-1.38.06l.06-2.05zm8.82 2.18a2.8 2.8 0 0 0-.15.62 2.5 2.5 0 0 1-1.32.33 2.32 2.32 0 0 1-2.42-2.47 2.48 2.48 0 0 1 2.59-2.82 2.57 2.57 0 0 1 1.34.37 2.48 2.48 0 0 0-.14.74h-.11a1.3 1.3 0 0 0-1.12-.65c-.68 0-1.48.69-1.48 2.25s.8 2.11 1.54 2.11a1.62 1.62 0 0 0 1.18-.54zm2.96-4.34a2.37 2.37 0 0 1 2.48 2.65 2.52 2.52 0 0 1-2.49 2.64 2.34 2.34 0 0 1-2.48-2.64 2.5 2.5 0 0 1 2.49-2.65m0 .42c-.89 0-1.41 1-1.41 2.29 0 1.57.62 2.11 1.37 2.11s1.46-.73 1.46-2.33c0-1.27-.57-2.07-1.42-2.07m5.44-.42a2.37 2.37 0 0 1 2.47 2.65 2.53 2.53 0 0 1-2.5 2.64 2.36 2.36 0 0 1-2.48-2.64 2.51 2.51 0 0 1 2.51-2.65m0 .42c-.89 0-1.41 1-1.41 2.29 0 1.57.64 2.11 1.38 2.11s1.46-.73 1.46-2.33c0-1.27-.58-2.07-1.43-2.07m3.23 1.74l-.05-2h.52.95a1.57 1.57 0 0 1 1.14.3 1.22 1.22 0 0 1 .39 1 1.46 1.46 0 0 1-1.67 1.57h-.33l.05 2.23a2.58 2.58 0 0 0-.53-.06 2.18 2.18 0 0 0-.52.06l.05-2.05zm1.24-1.63h-.28v2.08c.44 0 1-.13 1-1.08 0-.76-.32-1-.69-1m2.34 1.63v-2h1.14 1.37a2.41 2.41 0 0 0 0 .31 2.77 2.77 0 0 0 0 .33c-.49 0-1.27-.08-1.47-.08v1.6l1.49-.06a1.69 1.69 0 0 0 0 .32 3 3 0 0 0 0 .32 12.38 12.38 0 0 0-1.49-.06v.93.93a9.47 9.47 0 0 0 1.5-.11 3 3 0 0 0 0 .34 2.63 2.63 0 0 0 0 .33c-.24 0-.54-.06-1.14-.06a6.61 6.61 0 0 0-1.37.06v-2.05zm4.35.69h0v.3V68a2.37 2.37 0 0 0-1.06 0v-2.05-1-2h.53.95c.67 0 .91.06 1.13.25a1.19 1.19 0 0 1 .43 1 1.29 1.29 0 0 1-1 1.36c.4.84.91 1.67 1.38 2.52a2.93 2.93 0 0 0-1.18 0zm0-2.33v2h.13c.57 0 .89-.35.89-1 0-.87-.3-1-1-1m6.61 4.64a4 4 0 0 0-.57-.06 3.31 3.31 0 0 0-.56.06l-.45-1.52h-.84-.67a15.63 15.63 0 0 0-.45 1.52 1 1 0 0 0-.31-.06 1.21 1.21 0 0 0-.31.06l1.85-5.14a1.09 1.09 0 0 0 .25 0 .93.93 0 0 0 .24 0l1.82 5.14m-1.72-2l-.59-1.76c-.23.57-.42 1.16-.61 1.76zm2.8-1.85a5.11 5.11 0 0 0 0-.65 9.71 9.71 0 0 0-1.2.09 1.75 1.75 0 0 0 0-.33 1.87 1.87 0 0 0 0-.32h1.71 1.64v.32.33a8.24 8.24 0 0 0-1.14-.09 5.11 5.11 0 0 0 0 .65v1.85 2.05a2.4 2.4 0 0 0-.52-.06 2.45 2.45 0 0 0-.54.06l.05-2.05zm2.88.85v-2h.53.54l-.05 2v1l.05 2.05a2.61 2.61 0 0 0-.54-.06 2.5 2.5 0 0 0-.53.06v-2.05zm5.26-2.06a1.27 1.27 0 0 0 .28 0 1.43 1.43 0 0 0 .29 0l-1.79 5.1a.71.71 0 0 0-.57 0l-1.76-5.1h.57a5.49 5.49 0 0 0 .58 0l1.17 3.7 1.23-3.7m1.17 2.06l-.06-2h1.18 1.36a1.37 1.37 0 0 0 0 .31 1.57 1.57 0 0 0 0 .33c-.51 0-1.29-.08-1.48-.08v1.6l1.49-.06a2 2 0 0 0-.05.32c0 .09 0 .16.05.32a12.54 12.54 0 0 0-1.49-.06v.93.93a9.6 9.6 0 0 0 1.49-.11 1.67 1.67 0 0 0 0 .34 1.52 1.52 0 0 0 0 .33c-.24 0-.54-.06-1.15-.06a7.2 7.2 0 0 0-1.39.06c.06-.67.06-1.23.06-2.05zm8.69 2.18a2 2 0 0 0-.15.62 2.57 2.57 0 0 1-1.33.33 2.31 2.31 0 0 1-2.4-2.47 2.48 2.48 0 0 1 2.58-2.82 2.53 2.53 0 0 1 1.33.37 2.84 2.84 0 0 0-.14.74h-.09a1.34 1.34 0 0 0-1.13-.65c-.69 0-1.49.69-1.49 2.25s.8 2.11 1.56 2.11a1.61 1.61 0 0 0 1.16-.54zm3-4.34a2.37 2.37 0 0 1 2.46 2.65 2.52 2.52 0 0 1-2.49 2.64 2.35 2.35 0 0 1-2.48-2.64A2.51 2.51 0 0 1 168 62.8m0 .42c-.89 0-1.41 1-1.41 2.29 0 1.57.64 2.11 1.37 2.11s1.46-.73 1.46-2.33c0-1.27-.57-2.07-1.42-2.07m3.74 1.42l-.26 3.36a1.07 1.07 0 0 0-.29-.06 1.13 1.13 0 0 0-.32.06l.67-5.1a1.27 1.27 0 0 0 .28 0 1.13 1.13 0 0 0 .25 0l1.5 3.53 1.53-3.53a1.33 1.33 0 0 0 .28 0 1 1 0 0 0 .26 0l.58 5.1a2.46 2.46 0 0 0-1.08 0c0-1-.16-2.29-.26-3.43h0L173.45 68h-.12-.14l-1.41-3.36zm5.26.32l-.06-2h.55.94a1.59 1.59 0 0 1 1.14.3 1.23 1.23 0 0 1 .4 1 1.46 1.46 0 0 1-1.67 1.57h-.34l.05 2.23a2.4 2.4 0 0 0-.52-.06 2.63 2.63 0 0 0-.55.06l.06-2.05zm1.26-1.63h-.28v2.08c.44 0 1-.13 1-1.08 0-.76-.3-1-.67-1m5.59 4.63a4.1 4.1 0 0 0-.57-.06 3.55 3.55 0 0 0-.56.06l-.45-1.52h-.84-.67l-.45 1.52a1.15 1.15 0 0 0-.29-.06 1.28 1.28 0 0 0-.34.06l1.86-5.14a1.17 1.17 0 0 0 .26 0 1 1 0 0 0 .23 0l1.82 5.14m-1.73-2l-.58-1.76-.61 1.76zm2.43-3.06a1.29 1.29 0 0 0 .29 0h.29l2.83 3.52-.06-3.52a1.6 1.6 0 0 0 .3 0 1.53 1.53 0 0 0 .3 0l-.1 5.1a.88.88 0 0 0-.27-.06.66.66 0 0 0-.25.06l-2.85-3.6v1.72l.05 1.88a1.37 1.37 0 0 0-.32-.06 1.14 1.14 0 0 0-.3.06l.13-3.63V62.9m6.73 2.21a19.2 19.2 0 0 0 1-2.21 1.43 1.43 0 0 0 .29 0 1.66 1.66 0 0 0 .32 0l-1.37 2.82v.73l.06 1.55a2.51 2.51 0 0 0-1.09 0l.07-1.43v-.69l-1.41-3h.59a5.35 5.35 0 0 0 .58 0l1 2.21zM52.88 66.39l-.52 1.52h-.69l2.1-5.08a1.27 1.27 0 0 0 .28 0 1.37 1.37 0 0 0 .28 0l2 5.09h-.62-.64a15.23 15.23 0 0 0-.52-1.53zm1.55-.44l-.66-1.72-.7 1.72zm2.31-2.99h1.56a3 3 0 0 1 1.19.14 1.09 1.09 0 0 1 .63 1.06A1.3 1.3 0 0 1 59 65.42l1.3 2.06.28.45h-.66-.67l-.86-1.53-.48-.82h0v2.38h-.56-.54zm1.1 2.36c.77.08 1.15-.29 1.15-1a3.15 3.15 0 0 0 0-.37c-.13-.61-.68-.55-1.12-.55zM62 66.41l-.51 1.51h-.35-.36l2.1-5.07h.55l2.04 5.11h-.64-.62l-.52-1.52zm1.54-.46l-.66-1.7-.67 1.7zm2.19-2.99h1.89c.74 0 1.46.26 1.46 1.11a1.23 1.23 0 0 1-1.21 1.16v.07c.55.06 1.32.3 1.32 1.21s-.9 1.44-1.76 1.44h-1.7zm1.11 2.15a1.13 1.13 0 0 0 .83-.18 1 1 0 0 0 .32-.76.73.73 0 0 0-.78-.82 1.23 1.23 0 0 0-.37 0zm0 2.41h.36a.91.91 0 0 0 .86-1c0-.8-.44-1.09-1.22-1zm2.78-4.56h.55.54v5h-.54-.55zm2.73 3.45l-.51 1.51h-.34-.35l2.1-5.07h.54l2.06 5.11h-.64-.62l-.52-1.52zm1.55-.45l-.65-1.7-.71 1.7z" fill="#7d7d7d"/></svg>