<svg xmlns="http://www.w3.org/2000/svg" viewBox="0 0 841.9 283.5" xmlns:v="https://vecta.io/nano"><path d="M724.2 193.8v-.4l-12.6-21.1-9.9-6.5-3.4-13-2.7-10.2-6.5-4.1-2-3.5c-.2-.2-.4-.3-.6-.5l-.2-.2v-.1c-1.8-2.2-2.5-3.4-2.3-4.3.1-.8.2-3.3 0-4.9-.2-1-3.4-4.7-5.9-8-2.9 8-4.4 16.6-4.4 25.6 0 34.8 23.1 64.2 54.8 73.6l-4.1-9.2v-13.2z" fill="#10426c"/><path d="M817.3 173c-3.7 4.6-7.4 7.8-9.2 8.5-2.7 1-12.3 3.4-14 5.1s-2.7 5.1-4.4 7.2c-1.7 2-18.7 10.9-24.2 12.6s-18.4 4.8-20.1 5.8c-1 .6-5.2 3.7-8.5 6.1 4.3.8 8.8 1.2 13.4 1.2 36.4 0 66.9-25.3 74.8-59.3-.8 1.7-1.6 3.2-2.4 4.6-1.6 3-3.5 5.8-5.4 8.2zm-83.2-83.7l15 6.8 3.9-1.7c2.6 6.1 4.9 11.1 6 13.1 4.1 6.8 14 20.8 14 20.8s6.1-1 6.8 0 2.4 7.8 4.1 8.5c1 .4 7.1-.6 11.5-1.5 2.7-.5 4.8-1 4.8-1s8.5-10.4 9.5-9.4 3.8 2.7 3.8 2.7l13.2 7.6c-3.8-38.9-36.5-69.4-76.4-69.4a76.97 76.97 0 0 0-33.2 7.5l17.1 8.9-.1 7.1z" fill="#00a5df"/><path d="M826.7 135.2l-13.2-7.6s-2.7-1.7-3.8-2.7c-1-1-9.5 9.4-9.5 9.4s-2.1.5-4.8 1c-4.4.9-10.5 2-11.5 1.5-1.7-.7-3.4-7.5-4.1-8.5s-6.8 0-6.8 0-9.9-14-14-20.8c-1.2-2-3.4-7-6-13.1-2.1.8-3.9 1.7-3.9 1.7l-15-6.8.1-6.9-17.1-8.9c-2.7 1.3-5.3 2.7-7.7 4.3-11.8 7.5-21.4 18-27.7 30.6-1.4 2.8-2.7 5.8-3.7 8.8 2.5 3.3 5.8 7 5.9 8 .3 1.5.2 4 0 4.9-.1.8.6 2.1 2.3 4.3v.1l.2.2c.2.2.4.4.6.5l2 3.5 6.5 4.1 2.7 10.2 3.4 13 9.9 6.5 12.6 21.1v.4 13.2l4.1 9.2c2.8.8 5.6 1.5 8.5 2l8.5-6.1c1.7-1 14.7-4.1 20.1-5.8 5.5-1.7 22.5-10.6 24.2-12.6s2.7-5.5 4.4-7.2 11.3-4.1 14-5.1c1.8-.7 5.5-3.9 9.2-8.5 1.9-2.4 3.8-5.2 5.4-8.2.8-1.4 1.5-2.9 2.4-4.6a77.59 77.59 0 0 0 2-17.5c.2-2.7.1-5.1-.2-7.6z" fill="#fff"/><path d="M650.1 65.8h3.9v153.6h-3.9z" fill="#00a5df"/><g fill="#59585a"><path d="M24.5 210.8l-2.6 8.6h-8.4l13.9-37.7h6.9l13.4 37.7h-8.6l-2.7-8.6H24.5zm1.5-6.2h9.1l-4.5-14.1h-.1L26 204.6zm37.5 7.8h16.6v7h-25V182h8.4v30.4zm39.5 7c-2.5 0-4.5-.3-6.1-.7l.8-6.6c1 .1 1.9.3 3 .3 2 0 3-1.4 3-3.6v-27.5h8.5v27.8c0 7.2-3.1 10.3-9.2 10.3zm32.3-8.6l-2.6 8.6h-8.3l13.9-37.7h6.9l13.4 37.7H150l-2.7-8.6h-12zm1.5-6.2h9.1l-4.5-14.1h-.1l-4.5 14.1zm55.9 7.8v7h-28.5v-5.6l17.1-24.9h-16v-7H192v5.7l-17.1 24.7v.1h17.8zm18.4-30.4h8.5v37.4h-8.5V182zm56.5 37.4h-9.5l-7-13.3h-5.6v13.3H237V182h16.2c7.8 0 13.1 4.6 13.1 12.1 0 5.4-2.6 9.1-6.9 10.8l8.2 14.5zm-9.8-25.4c0-3.6-2.5-5.1-5.3-5.1h-7V199h6.9c3 .1 5.4-1.4 5.4-5zm25.2 16.8l-2.6 8.6H272l13.9-37.7h6.9l13.4 37.7h-8.6l-2.7-8.6H283zm1.5-6.2h9.1l-4.5-14.1h-.1l-4.5 14.1zm77.2-15.6v30.5h-8.5V189h-10.1v-7h28.6v7h-10zm32.5 21.9l-2.6 8.6h-8.4l13.9-37.7h6.9l13.5 37.7h-8.6l-2.7-8.6h-12zm1.4-6.3h9.1l-4.5-14.1h-.1l-4.5 14.1zm31.3 14.9V182h8.5v37.5h-8.5zm32.3-37.5l-14 18 14.4 19.5h-10.9l-13.3-19.1L449 182h10.2zm20.7 28.9l-2.6 8.6H469l13.9-37.7h6.9l13.5 37.7h-8.6l-2.7-8.6h-12.1zm1.5-6.3h9.1l-4.5-14.1h-.1l-4.5 14.1zm43.7-15.6v8.8H539v7h-13.8v14.8h-8.5V182h24.8v7h-16.4zm46.9 23.5c5.8 0 6.8-3.9 6.8-7.2v-23.8h8.5v23.8c0 9.7-6.2 14.2-15.3 14.2-9.2 0-15.3-4.5-15.3-14.2v-23.8h8.5v23.8c-.1 3.3 1 7.2 6.8 7.2zm38.8 0h16.7v7h-25.1V182h8.5v30.5zM148.2 77.9c1.6 0 3-.5 4.1-1.6a5.66 5.66 0 0 0 1.7-4.1 5.66 5.66 0 0 0-1.7-4.1 5.66 5.66 0 0 0-4.1-1.7c-1.7 0-3 .6-4.1 1.7s-1.6 2.5-1.6 4.1.5 3 1.6 4.1 2.5 1.6 4.1 1.6zm152.3 0c.8 0 1.6-.1 2.3-.4s1.3-.7 1.8-1.2.9-1.1 1.2-1.8.5-1.4.5-2.2-.2-1.6-.5-2.3-.7-1.3-1.2-1.8-1.2-.9-1.8-1.2c-.7-.3-1.5-.5-2.3-.5a5.66 5.66 0 0 0-4.1 1.7c-1.1 1.1-1.6 2.5-1.6 4.1s.5 3 1.6 4.1a6.1 6.1 0 0 0 4.1 1.5z"/><path d="M306.3 130.6V95.5h-10.5v30.4h-26v-9.6c0-3-.1-7.5-.5-9.6-.3-2.1-.8-3.8-1.6-5.2-.7-1.4-1.7-2.5-2.9-3.3s-2.6-1.4-4.4-1.8-3.8-.6-6.2-.7l-8.1-.1h-25c1.8-3.3 4.1-4.3 6.9-6.8s5.8-4.5 9.2-6.2c3.3-1.7 6.8-2.9 10.4-3.7s7.1-1.2 10.5-1.2l.2-5.2c.1-1.6.1-3.4.2-5.3h-1c-4.4 0-8.9.5-13.4 1.6s-8.8 2.7-12.9 4.8-7.8 4.8-11.1 7.9c-3.4 3.1-6 6.8-8.1 11-1.2 2.4-1.8 2.8-1.8 5.1 0 1.2.2 2.3.5 3.3s.9 1.9 1.6 2.7 1.6 1.4 2.7 1.8c1.1.5 2.4.7 3.9.7l15.7.1 15.7.1c2 0 3.7.1 4.8.2 1.2.2 2.1.6 2.7 1.2.6.7 1 1.7 1.1 3.1.2 1.4.2 5.3.2 7.7v7.5h-69.3V66h-10.5v64.8c0 .2-.1.3-.1.5 0 1.5.5 2.7 1.6 3.7 1 1 2.3 1.5 3.7 1.5h116.4c1.5 0 2.7-.5 3.8-1.5 1-1 1.5-2.3 1.5-3.7.2-.4.1-.5.1-.7zm-19.9-52.7c1.6 0 3-.5 4.1-1.6s1.6-2.5 1.6-4.1-.6-3-1.6-4.1a5.66 5.66 0 0 0-4.1-1.7 5.66 5.66 0 0 0-4.1 1.7c-1.1 1.1-1.6 2.5-1.6 4.1s.5 3 1.6 4.1 2.4 1.6 4.1 1.6zm-118.7 24.7c0-1-.2-2-.6-2.8-.4-.9-.9-1.6-1.5-2.3-.7-.7-1.4-1.1-2.2-1.5s-1.7-.5-2.7-.5h-16.1c-3.2 0-6.2.6-9 1.8s-5.2 2.9-7.3 5-3.7 4.6-5 7.4c-1.2 2.8-1.8 5.8-1.8 9v7.2H79.8v-60H69.2v67.8.4c0 1.7-.3 3.3-1 4.9-.7 1.5-1.6 2.9-2.8 4.1-1.1 1.2-2.5 2.1-4.1 2.7-1.6.7-3.2 1-4.9 1H36.9c-1.8 0-3.4-.3-4.9-1s-2.9-1.6-4.1-2.8c-1.2-1.1-2.1-2.5-2.7-4-.7-1.6-1-3.2-1-4.9v-3.8H13.6v3.8c0 3.2.6 6.2 1.8 9.1 1.2 2.8 2.9 5.3 5 7.4s4.6 3.8 7.4 5 5.9 1.8 9.1 1.8h19.6c3.2 0 6.2-.6 9.1-1.8 2.8-1.2 5.3-2.9 7.4-5s3.8-4.6 5-7.4c.9-2.1 1.5-4.3 1.7-6.7h.1 82.7c1.4 0 2.7-.5 3.7-1.5.8-.8 1.3-1.8 1.5-2.9 0-.1.1-.3.1-.6v-.2h0l-.1-28.7zm-10.5 22.8l-25.1-.1v-6.6c0-1.7.3-3.3.9-4.8.7-1.5 1.6-2.9 2.7-4s2.5-2.1 4-2.8 3.1-1 4.9-1l12.6.1v19.2zm236.6-25.7c-.4-.9-.9-1.6-1.5-2.2-.7-.6-1.4-1.1-2.2-1.5s-1.7-.5-2.7-.5h-21.1c-3.2 0-6.2.6-9 1.8s-5.2 2.8-7.3 4.9-3.7 4.5-4.9 7.3-1.8 5.7-1.8 8.9v10.8c0 1.4.4 2.5 1.3 3.3s2 1.4 3.3 1.9c1.3.4 2.8.8 4.3 1l4.4.7h-.1l4.9.5 5 .2c3.2 0 11.5-.2 14.7-.6s6.3-1 9.2-1.8h.1c1.2-.2 2.2-.8 3-1.8s1.2-2.1 1.2-3.3v-26.6c-.3-1.2-.4-2.1-.8-3zm-10 25.2a68.22 68.22 0 0 1-6.3.9c-2.1.2-9.2.3-11.3.3h-.6-2.6c-.8 0-1.7-.1-2.6-.1-.9-.1-1.9-.2-3-.4l-3.7-.7-.1-6.5c0-1.6.3-3.2 1-4.7.6-1.5 1.6-2.8 2.7-4 1.1-1.1 2.5-2 4-2.7s3.2-1 4.9-1l17.6.1v18.8zM617 65.8h10.4v70.5H617zM364.4 77.9c1.7 0 3-.5 4.1-1.6a5.66 5.66 0 0 0 1.7-4.1c0-1.6-.5-3-1.7-4.1a5.66 5.66 0 0 0-4.1-1.7 5.66 5.66 0 0 0-4.1 1.7 5.66 5.66 0 0 0-1.7 4.1 5.66 5.66 0 0 0 1.7 4.1c1.1 1.1 2.5 1.6 4.1 1.6zm14.2 0c.8 0 1.6-.1 2.3-.4s1.3-.7 1.8-1.2.9-1.1 1.2-1.8.4-1.4.4-2.2-.2-1.6-.4-2.3c-.3-.7-.7-1.3-1.2-1.8s-1.1-.9-1.8-1.2-1.5-.5-2.3-.5c-1.6 0-3 .6-4 1.7-1.1 1.1-1.6 2.5-1.6 4.1s.6 3 1.6 4.1c1 1 2.4 1.5 4 1.5zm56.6 67.8a5.66 5.66 0 0 0-4.1 1.7c-1.1 1.1-1.6 2.5-1.6 4.1 0 1.7.6 3 1.6 4.1 1.1 1.1 2.5 1.6 4.1 1.6 1.7 0 3-.6 4.1-1.6a5.66 5.66 0 0 0 1.7-4.1 5.66 5.66 0 0 0-1.7-4.1c-1.1-1.1-2.4-1.7-4.1-1.7zm16.2 0a5.66 5.66 0 0 0-5.8 5.8c0 1.7.6 3 1.7 4.1s2.5 1.6 4.1 1.6 3-.6 4.1-1.6c1.1-1.1 1.6-2.5 1.6-4.1s-.6-3-1.6-4.1a5.66 5.66 0 0 0-4.1-1.7zm41.3-67.8a5.66 5.66 0 0 0 4.1-1.7c1.1-1.1 1.6-2.5 1.6-4.1 0-.8-.1-1.6-.4-2.3s-.7-1.3-1.2-1.8-1.1-.9-1.8-1.3c-.7-.3-1.4-.4-2.3-.4-.8 0-1.6.2-2.3.4-.7.3-1.3.7-1.8 1.3-.5.5-.9 1.1-1.2 1.8s-.5 1.5-.5 2.3a5.66 5.66 0 0 0 1.7 4.1c1.1 1.2 2.5 1.7 4.1 1.7zm41 67.8a5.66 5.66 0 0 0-4.1 1.7c-1.1 1.1-1.6 2.5-1.6 4.1 0 1.7.5 3 1.6 4.1s2.5 1.6 4.1 1.6 3-.6 4.1-1.6a5.66 5.66 0 0 0 1.7-4.1 5.66 5.66 0 0 0-1.7-4.1c-1.1-1.1-2.4-1.7-4.1-1.7zm-58.6-15.1V95.5h-10.5v30.4h-43c.1-.6.1-1.3.1-2.1v-2.3l.1-2.3v-2.1-2.3l-.1-3.9-.2-4.7-.1-4.7-.1-3.8v-2.1h-10.5l.1 4.1.2 4.3.2 6.2v6.4l-.2 9.1c-.2 3-.5 6-1.1 8.8s-1.3 5.5-2.3 8-2.3 4.7-4 6.6c-.2.3-.5.5-.7.8l7.5 7.5.1-.1c2.5-2.7 4.6-5.8 6.1-9.3 1.6-3.5 2.8-7.4 3.7-11.4H470c.8 0 1.5-.2 2.1-.4.6-.3 1.2-.6 1.7-1.1s.9-1 1.1-1.7c.3-.6.4-1.3.4-2.1-.2-.4-.2-.5-.2-.7zm126.3 0V65.8h-10.5v60h-17-.6-9.1 0c-.2-4.9-1-7.3-2.2-10.8-1.3-3.6-3-6.7-5.1-9.1s-4.5-4.3-7.2-5.6c-2.7-1.4-5.5-2.4-8.5-3.1s-6-1.1-9-1.3c-3.1-.2-6-.3-8.8-.4-1.2 0-2.2-.1-3-.1s-1.7-.1-2.8-.1v9.1c.5 0 .3.1.9 0h1.9c2.1 0 4.3.1 6.7.1a44.29 44.29 0 0 1 7.2.9c2.4.5 4.7 1.2 6.9 2.2s4.2 2.4 6 4.1c1.8 1.8 3.2 4 4.4 6.7 1.1 2.6 1.8 4 2 7.4h-54.5c0-.6.1-1.3.1-2.1v-2.3c0-.8 0-1.6.1-2.3V117v-2.3c0-1.1-.1-2.4-.1-3.9-.1-1.5-.1-3.1-.2-4.7 0-1.7-.1-3.3-.1-4.7-.1-1.4-.1-2.7-.1-3.8v-2.1h-10.5c0 1.3 0 2.6.1 4.1 0 1.4.1 2.9.2 4.3.1 2 .1 4.1.2 6.2 0 2.1.1 4.3.1 6.4 0 3-.1 6.1-.2 9.1-.2 3-.5 6-1.1 8.8-.5 2.8-1.3 5.5-2.3 8s-2.3 4.7-4 6.6c-.2.3-.5.5-.8.8l7.5 7.5.1-.1c2.5-2.7 4.6-5.8 6.1-9.3 1.6-3.5 2.8-7.4 3.6-11.4h98.6c1.5 0 2.7-.5 3.7-1.5s1.6-2.3 1.6-3.7c-.2-.4-.2-.5-.3-.7z"/></g></svg>