<?xml version="1.0" encoding="UTF-8" standalone="no"?>
<svg
   xmlns:dc="http://purl.org/dc/elements/1.1/"
   xmlns:cc="http://creativecommons.org/ns#"
   xmlns:rdf="http://www.w3.org/1999/02/22-rdf-syntax-ns#"
   xmlns:svg="http://www.w3.org/2000/svg"
  xmlns="http://www.w3.org/2000/svg"
   viewBox="0 0 870.0733 231.24933"
   height="231.24933"
   width="870.0733"
   xml:space="preserve"
   id="svg2"
   version="1.1"><metadata
     id="metadata8"><rdf:RDF><cc:Work
         rdf:about=""><dc:format>image/svg+xml</dc:format><dc:type
           rdf:resource="http://purl.org/dc/dcmitype/StillImage" /></cc:Work></rdf:RDF></metadata><defs
     id="defs6"><clipPath
       id="clipPath20"
       clipPathUnits="userSpaceOnUse"><path
         id="path18"
         d="M 0,173.437 H 652.555 V 0 H 0 Z" /></clipPath></defs><g
     transform="matrix(1.3333333,0,0,-1.3333333,0,231.24933)"
     id="g10"><path
       id="path12"
       style="fill:#002c80;fill-opacity:1;fill-rule:nonzero;stroke:none"
       d="m 544.012,74.679 h 2.726 v 1.971 h -2.726 z" /><g
       id="g14"><g
         clip-path="url(#clipPath20)"
         id="g16"><g
           transform="translate(514.2394,70.0588)"
           id="g22"><path
             id="path24"
             style="fill:#002c80;fill-opacity:1;fill-rule:nonzero;stroke:none"
             d="m 0,0 h -3.688 c -2.407,0 -3.742,-0.928 -3.742,-2.684 0,-1.744 1.478,-2.568 3.35,-2.568 h 6.818 v 4.865 c 0,2.457 -0.851,3.803 -4.25,3.803 h -5.19 v -1.86 h 4.61 C -0.508,1.556 0,1.268 0,0 m 0,-3.406 h -3.162 c -0.812,0 -1.485,0.044 -1.485,0.799 0,0.535 0.464,0.851 1.036,0.851 H 0 v -1.65" /></g><g
           transform="translate(522.2341,73.4753)"
           id="g26"><path
             id="path28"
             style="fill:#002c80;fill-opacity:1;fill-rule:nonzero;stroke:none"
             d="M 0,0 V -5.627 C 0,-6.483 0.407,-6.818 1.423,-6.818 H 3.907 V 0 H 6.645 V -8.668 H 1.07 c -2.639,0 -3.798,1.048 -3.798,3.34 l 0,5.328 z" /></g><g
           transform="translate(538.7386,76.6498)"
           id="g30"><path
             id="path32"
             style="fill:#002c80;fill-opacity:1;fill-rule:nonzero;stroke:none"
             d="m 0,0 v -3.175 h -2.506 c -2.965,0 -4.818,-1.667 -4.818,-4.23 0,-3.029 1.853,-4.438 5.084,-4.438 H 2.75 V 0 Z m 0,-9.993 h -1.964 c -1.805,0 -2.622,0.982 -2.622,2.474 0,1.545 0.876,2.484 2.704,2.484 H 0 v -4.958" /></g><g
           transform="translate(500.8702,64.8072)"
           id="g34"><path
             id="path36"
             style="fill:#002c80;fill-opacity:1;fill-rule:nonzero;stroke:none"
             d="m 0,0 h -7.536 v 2.104 h 6.226 c 1.84,0 2.612,0.402 2.612,1.428 0,0.886 -0.525,1.35 -1.948,1.391 l -3.01,0.045 c -2.881,0 -4.24,1.596 -4.24,3.379 0,1.458 1.093,3.496 4.571,3.496 h 6.879 v -2.1 h -5.868 c -1.248,0 -2.733,0.106 -2.733,-1.312 0,-1.243 1.391,-1.315 2.489,-1.315 L -0.205,7.072 C 3.207,7.072 4.339,5.533 4.339,3.505 4.339,1.833 3.224,0 0,0" /></g><path
           id="path38"
           style="fill:#002c80;fill-opacity:1;fill-rule:nonzero;stroke:none"
           d="m 544.012,73.475 h 2.726 v -8.668 h -2.726 z" /><g
           transform="translate(586.6068,70.0686)"
           id="g40"><path
             id="path42"
             style="fill:#002c80;fill-opacity:1;fill-rule:nonzero;stroke:none"
             d="m 0,0 h -3.705 c -2.378,0 -3.742,-0.95 -3.742,-2.694 0,-1.751 1.49,-2.567 3.38,-2.567 h 6.822 v 4.864 c 0,2.449 -0.873,3.776 -4.262,3.776 h -5.2 V 1.547 h 4.625 C -0.503,1.547 0,1.253 0,0 m 0,-3.416 h -3.162 c -0.807,0 -1.48,0.066 -1.48,0.804 0,0.53 0.451,0.834 1.038,0.834 H 0 v -1.638" /></g><g
           transform="translate(598.0942,64.8072)"
           id="g44"><path
             id="path46"
             style="fill:#002c80;fill-opacity:1;fill-rule:nonzero;stroke:none"
             d="M 0,0 V 5.592 C 0,6.46 -0.397,6.808 -1.396,6.808 H -3.892 V 0 h -2.743 v 8.641 h 5.582 c 2.632,0 3.791,-1.034 3.791,-3.335 V 0 Z" /></g><g
           transform="translate(558.8567,69.5779)"
           id="g48"><path
             id="path50"
             style="fill:#002c80;fill-opacity:1;fill-rule:nonzero;stroke:none"
             d="m 0,0 v -4.771 h -2.906 v 6.576 c 0,1.562 0.134,3.03 1.537,4.152 1.28,1.009 3.123,1.12 4.78,1.12 H 7.925 V 4.963 H 3.362 C 0.883,4.963 0,4.322 0,2.881 V 2.037 H 7.528 V 0 Z" /></g><g
           transform="translate(574.4287,69.5556)"
           id="g52"><path
             id="path54"
             style="fill:#002c80;fill-opacity:1;fill-rule:nonzero;stroke:none"
             d="m 0,0 c 0,1.312 0.049,2.06 -1.751,2.06 h -1.053 v -6.808 h -2.733 v 8.64 h 4.504 c 3.004,0 3.668,-1.011 3.668,-2.96 V 0 Z" /></g><g
           transform="translate(602.9461,70.9469)"
           id="g56"><path
             id="path58"
             style="fill:#002c80;fill-opacity:1;fill-rule:nonzero;stroke:none"
             d="M 0,0 C 0,1.352 0.957,2.501 3.254,2.501 H 9.193 V 0.668 H 4.124 c -1.092,0 -1.512,-0.155 -1.512,-0.757 0,-0.856 1.056,-0.767 1.766,-0.821 L 6.224,-0.945 C 8.11,-0.95 9.645,-1.618 9.645,-3.402 9.645,-4.931 8.685,-6.14 5.935,-6.14 H 0.16 v 1.86 h 5.025 c 1.667,0 2.01,0.217 2.01,0.834 0,0.752 -0.927,0.708 -1.702,0.73 L 3.197,-2.689 C 0.957,-2.627 0,-1.453 0,0" /></g><path
           id="path60"
           style="fill:#002c80;fill-opacity:1;fill-rule:nonzero;stroke:none"
           d="m 614.7,73.448 h 2.743 V 64.807 H 614.7 Z" /><path
           id="path62"
           style="fill:#002c80;fill-opacity:1;fill-rule:nonzero;stroke:none"
           d="m 614.7,76.65 h 2.743 V 74.672 H 614.7 Z" /><path
           id="path64"
           style="fill:#002c80;fill-opacity:1;fill-rule:nonzero;stroke:none"
           d="M 617.443,86.023 H 422.672 v 2.622 h 194.771 z" /><g
           transform="translate(457.4174,70.0588)"
           id="g66"><path
             id="path68"
             style="fill:#002c80;fill-opacity:1;fill-rule:nonzero;stroke:none"
             d="m 0,0 h -3.703 c -2.375,0 -3.722,-0.928 -3.722,-2.684 0,-1.744 1.47,-2.568 3.357,-2.568 h 6.801 v 4.865 c 0,2.457 -0.861,3.803 -4.228,3.803 H -6.707 V 1.556 H -2.08 C -0.501,1.556 0,1.268 0,0 m 0,-3.406 h -3.162 c -0.812,0 -1.485,0.044 -1.485,0.799 0,0.535 0.451,0.851 1.031,0.851 H 0 v -1.65" /></g><path
           id="path70"
           style="fill:#002c80;fill-opacity:1;fill-rule:nonzero;stroke:none"
           d="M 435.639,76.633 H 438.3 V 64.808 h -2.661 z" /><path
           id="path72"
           style="fill:#002c80;fill-opacity:1;fill-rule:nonzero;stroke:none"
           d="m 440.476,76.633 h 2.671 V 64.808 h -2.671 z" /><g
           transform="translate(468.8677,64.8072)"
           id="g74"><path
             id="path76"
             style="fill:#002c80;fill-opacity:1;fill-rule:nonzero;stroke:none"
             d="M 0,0 V 5.614 C 0,6.482 -0.402,6.818 -1.419,6.818 H -3.902 V 0 h -2.746 v 8.668 h 5.587 C 1.601,8.668 2.75,7.62 2.75,5.323 V 0 Z" /></g><g
           transform="translate(483.3371,70.9418)"
           id="g78"><path
             id="path80"
             style="fill:#002c80;fill-opacity:1;fill-rule:nonzero;stroke:none"
             d="m 0,0 c 0,1.33 -0.95,2.484 -3.236,2.484 h -5.918 v -1.84 h 5.04 c 1.1,0 1.529,-0.148 1.529,-0.745 0,-0.844 -1.066,-0.772 -1.776,-0.817 l -1.855,-0.027 c -1.899,-0.017 -3.412,-0.668 -3.412,-2.452 0,-1.544 0.982,-2.738 3.71,-2.738 h 5.767 v 1.85 h -5.017 c -1.662,0 -1.998,0.215 -1.998,0.839 0,0.735 0.915,0.696 1.673,0.713 l 2.313,0.044 C -0.95,-2.629 0,-1.47 0,0" /></g><g
           transform="translate(430.5946,71.7632)"
           id="g82"><path
             id="path84"
             style="fill:#002c80;fill-opacity:1;fill-rule:nonzero;stroke:none"
             d="m 0,0 h -5.024 v 0.762 c 0,1.204 1.114,2.169 2.505,2.169 C -1.12,2.931 0,1.966 0,0.762 Z m -2.519,4.98 c -2.979,0 -5.382,-2.064 -5.382,-4.61 v -0.589 h -0.015 v -6.737 h 2.859 v 4.941 h 5.045 v -4.941 h 2.866 v 5.698 1.039 0.589 c 0,2.546 -2.412,4.61 -5.373,4.61" /></g><path
           id="path86"
           style="fill:#002c80;fill-opacity:1;fill-rule:nonzero;stroke:none"
           d="m 445.323,73.347 h 2.666 v -8.54 h -2.666 z" /><path
           id="path88"
           style="fill:#002c80;fill-opacity:1;fill-rule:nonzero;stroke:none"
           d="m 445.323,76.637 h 2.666 V 74.54 h -2.666 z" /><path
           id="path90"
           style="fill:#002c80;fill-opacity:1;fill-rule:nonzero;stroke:none"
           d="m 614.468,112.431 h 2.728 v -11.657 h -2.728 z" /><path
           id="path92"
           style="fill:#002c80;fill-opacity:1;fill-rule:nonzero;stroke:none"
           d="m 601.362,99.393 h 2.711 v -1.976 h -2.711 z" /><path
           id="path94"
           style="fill:#002c80;fill-opacity:1;fill-rule:nonzero;stroke:none"
           d="m 598.094,99.393 h 2.738 v -1.976 h -2.738 z" /><path
           id="path96"
           style="fill:#002c80;fill-opacity:1;fill-rule:nonzero;stroke:none"
           d="m 588.721,112.449 h 2.716 v -1.958 h -2.716 z" /><path
           id="path98"
           style="fill:#002c80;fill-opacity:1;fill-rule:nonzero;stroke:none"
           d="m 579.789,112.449 h 2.75 v -1.958 h -2.75 z" /><g
           transform="translate(586.3256,100.9442)"
           id="g100"><path
             id="path102"
             style="fill:#002c80;fill-opacity:1;fill-rule:nonzero;stroke:none"
             d="m 0,0 h -3.656 v -0.198 c 0,-2.291 -1.174,-3.329 -3.808,-3.329 h -1.887 v 1.837 h 1.544 c 0.994,0 1.404,0.355 1.404,1.204 v 9.114 h 2.747 V 1.845 h 4.075" /></g><g
           transform="translate(584.0687,102.789)"
           id="g104"><path
             id="path106"
             style="fill:#002c80;fill-opacity:1;fill-rule:nonzero;stroke:none"
             d="M 0,0 H 4.652 V 6.778 H 7.368 V 0.005 c 0,-1.288 -0.42,-1.85 -1.855,-1.85 H 0.38" /></g><g
           transform="translate(596.6807,102.7004)"
           id="g108"><path
             id="path110"
             style="fill:#002c80;fill-opacity:1;fill-rule:nonzero;stroke:none"
             d="M 0,0 H 3.197 C 4.218,0 4.615,0.326 4.615,1.196 V 6.778 H 7.353 V 0 h 4.053 c 1.016,0 1.413,0.326 1.413,1.196 v 8.535 h 2.738 V 0 l -0.009,0.005 c 0,-1.285 -0.393,-1.85 -1.828,-1.85 H 0" /></g><g
           transform="translate(599.4533,102.7004)"
           id="g112"><path
             id="path114"
             style="fill:#002c80;fill-opacity:1;fill-rule:nonzero;stroke:none"
             d="M 0,0 H -3.357 V 9.709 H -6.095 V 0.005 c 0,-1.285 0.419,-1.85 1.845,-1.85 h 3.367" /></g><g
           transform="translate(614.6406,113.4427)"
           id="g116"><path
             id="path118"
             style="fill:#002c80;fill-opacity:1;fill-rule:nonzero;stroke:none"
             d="m 0,0 v 0.96 h 1.968 v 0.088 c 0,0.289 -0.086,0.447 -0.34,0.447 H 0.059 V 1.611 L 1.196,3.885 H 2.003 V 3.764 L 1.406,2.452 h 0.432 c 0.744,0 0.964,-0.516 0.964,-1.404 V 0 Z" /></g><path
           id="path120"
           style="fill:#002c80;fill-opacity:1;fill-rule:nonzero;stroke:none"
           d="m 499.617,99.437 h 2.676 v -1.926 h -2.676 z" /><path
           id="path122"
           style="fill:#002c80;fill-opacity:1;fill-rule:nonzero;stroke:none"
           d="m 503.485,99.437 h 2.667 v -1.926 h -2.667 z" /><g
           transform="translate(497.777,100.8552)"
           id="g124"><path
             id="path126"
             style="fill:#002c80;fill-opacity:1;fill-rule:nonzero;stroke:none"
             d="m 0,0 v 1.805 h 12.864 v 1.31 c 0,0.541 -0.309,0.839 -1.088,0.839 H 1.84 v 0.21 L 5.533,8.441 H 8.249 V 8.221 L 6.206,5.76 h 6.211 c 2.423,0 3.15,-0.985 3.15,-2.645 l 0,-3.115 z" /></g><path
           id="path128"
           style="fill:#002c80;fill-opacity:1;fill-rule:nonzero;stroke:none"
           d="m 570.046,112.409 h 2.654 v -11.554 h -2.654 z" /><g
           transform="translate(514.7477,100.8552)"
           id="g130"><path
             id="path132"
             style="fill:#002c80;fill-opacity:1;fill-rule:nonzero;stroke:none"
             d="m 0,0 h 5.035 c 2.898,0 4.721,1.618 4.721,4.107 0,2.965 -1.582,4.334 -4.731,4.334 H 0 V 6.643 h 4.522 c 1.77,0 2.56,-0.957 2.56,-2.408 0,-1.529 -0.856,-2.43 -2.654,-2.43 L 0,1.805 Z" /></g><g
           transform="translate(528.2896,102.6607)"
           id="g134"><path
             id="path136"
             style="fill:#002c80;fill-opacity:1;fill-rule:nonzero;stroke:none"
             d="M 0,0 C 0.094,1.12 0.9,1.547 2.213,1.547 3.537,1.547 4.344,1.12 4.428,0 Z M 36.776,9.748 V 0 H 33.48 V 6.635 H 30.809 V 1.177 C 30.809,0.331 30.412,0 29.43,0 H 28.843 V 6.635 H 26.162 V 1.177 C 26.162,0.331 25.769,0 24.793,0 H 24.196 V 6.635 H 21.529 V 1.177 C 21.529,0.331 21.137,0 20.155,0 h -5.814 c -1.805,0 -2.654,0.9 -2.654,2.43 0,1.45 0.804,2.407 2.551,2.407 h 4.526 v 1.798 h -4.798 c -3.14,0 -4.94,-1.369 -4.94,-4.338 C 9.026,1.409 9.24,0.629 9.672,0 H 7.171 C 6.85,1.932 5.293,3.384 2.208,3.384 -1.275,3.384 -2.8,1.497 -2.8,-0.816 V -1.805 H 4.428 C 4.361,-3.179 3.261,-3.389 1.892,-3.389 H -2.8 V -5.2 h 5.476 c 2.756,0 4.186,1.303 4.495,3.395 h 30.473 c 1.391,0 1.798,0.564 1.798,1.827 v 9.726 z" /></g><path
           id="path138"
           style="fill:#002c80;fill-opacity:1;fill-rule:nonzero;stroke:none"
           d="m 460.19,112.409 h 2.671 v -1.919 h -2.671 z" /><path
           id="path140"
           style="fill:#002c80;fill-opacity:1;fill-rule:nonzero;stroke:none"
           d="m 475.69,112.409 h 2.679 v -1.919 h -2.679 z" /><path
           id="path142"
           style="fill:#002c80;fill-opacity:1;fill-rule:nonzero;stroke:none"
           d="m 425.173,99.437 h 2.667 v -1.926 h -2.667 z" /><path
           id="path144"
           style="fill:#002c80;fill-opacity:1;fill-rule:nonzero;stroke:none"
           d="m 429.048,99.437 h 2.662 v -1.926 h -2.662 z" /><path
           id="path146"
           style="fill:#002c80;fill-opacity:1;fill-rule:nonzero;stroke:none"
           d="m 490.883,112.409 h 2.679 v -11.554 h -2.679 z" /><g
           transform="translate(477.0149,102.6607)"
           id="g148"><path
             id="path150"
             style="fill:#002c80;fill-opacity:1;fill-rule:nonzero;stroke:none"
             d="m 0,0 c -1.771,0 -2.622,0.977 -2.622,2.447 0,1.45 0.851,2.435 2.622,2.435 1.757,0 2.612,-0.985 2.612,-2.435 C 2.612,0.977 1.757,0 0,0 M 8.888,9.748 V 0 H 4.62 c 0.432,0.629 0.664,1.409 0.664,2.297 0,3.076 -1.976,4.445 -5.284,4.445 -3.317,0 -5.303,-1.369 -5.303,-4.445 0,-0.888 0.241,-1.668 0.661,-2.297 h -4.273 v 6.635 h -2.661 v -8.904 c 0,-0.844 -0.397,-1.182 -1.391,-1.182 h -1.49 v -1.793 h 1.833 c 2.582,0 3.709,1.021 3.709,3.251 v 0.188 H 9.766 c 1.398,0 1.805,0.564 1.805,1.827 v 9.726 z" /></g><g
           transform="translate(430.3405,102.6607)"
           id="g152"><path
             id="path154"
             style="fill:#002c80;fill-opacity:1;fill-rule:nonzero;stroke:none"
             d="m 0,0 c 0.972,0 1.369,0.331 1.369,1.177 v 2.207 c 0,2.23 1.142,3.251 3.72,3.251 H 11.14 V 0 h 2.01 c 0.982,0 1.374,0.331 1.374,1.177 v 5.458 h 2.683 V 0 h 0.585 c 0.967,0 1.364,0.331 1.364,1.177 V 6.635 H 21.84 V 0 h 0.585 c 0.976,0 1.383,0.331 1.383,1.177 v 5.458 h 2.674 V 0 h 3.362 v 6.635 h 2.677 V 0.022 c 0,-1.263 -0.41,-1.827 -1.806,-1.827 H 8.468 V 4.837 H 5.422 C 4.438,4.837 4.036,4.504 4.036,3.648 V 1.453 c 0,-2.23 -1.133,-3.258 -3.693,-3.258 H -7.669 V 0 Z" /></g><g
           transform="translate(68.5659,84.04)"
           id="g156"><path
             id="path158"
             style="fill:#002c80;fill-opacity:1;fill-rule:evenodd;stroke:none"
             d="m 0,0 h -12.543 l 6.67,21.8 z m -19.035,-24.013 4.267,14.326 H 2.131 L 6.139,-24.013 H 21.8 L 6.228,30.601 C 5.333,33.803 3.379,35.325 0,35.325 H -22.158 V 30.16 h 1.877 c 2.306,0 3.554,-0.886 3.554,-2.662 0,-1.154 -0.266,-2.136 -1.159,-4.815 l -15.567,-46.696 z" /></g><g
           transform="translate(108.4126,60.0268)"
           id="g160"><path
             id="path162"
             style="fill:#002c80;fill-opacity:1;fill-rule:nonzero;stroke:none"
             d="m 0,0 v 54.802 c 0,2.842 -1.7,4.536 -4.46,4.536 h -13.692 v -5.165 h 0.883 c 2.314,0 3.285,-0.972 3.285,-3.285 l 0,-50.888 z" /></g><g
           transform="translate(132.1393,60.0268)"
           id="g164"><path
             id="path166"
             style="fill:#002c80;fill-opacity:1;fill-rule:nonzero;stroke:none"
             d="m 0,0 v 54.802 c 0,2.842 -1.702,4.536 -4.45,4.536 h -13.712 v -5.165 h 0.893 c 2.319,0 3.295,-0.972 3.295,-3.285 l 0,-50.888 z" /></g><g
           transform="translate(156.4905,113.9385)"
           id="g168"><path
             id="path170"
             style="fill:#002c80;fill-opacity:1;fill-rule:evenodd;stroke:none"
             d="m 0,0 c 0,4.003 -2.943,6.403 -8.012,6.403 -4.978,0 -8.004,-2.4 -8.004,-6.403 0,-4.001 3.026,-6.413 8.004,-6.413 C -2.943,-6.413 0,-4.001 0,0 m -0.272,-53.912 v 39.941 c 0,2.844 -1.689,4.543 -4.449,4.543 h -13.513 v -5.069 h 0.795 c 2.306,0 3.29,-1.075 3.29,-3.384 v -36.031 z" /></g><g
           transform="translate(186.801,81.3686)"
           id="g172"><path
             id="path174"
             style="fill:#002c80;fill-opacity:1;fill-rule:evenodd;stroke:none"
             d="m 0,0 v -8.616 c -2.319,-2.398 -5.16,-3.834 -7.563,-3.834 -2.494,0 -3.389,1.249 -3.389,4.539 0,3.296 0.718,4.808 3.214,5.787 C -5.873,-1.33 -3.471,-0.619 0,0 m -18.769,10.412 c 4.62,2.229 9.694,3.478 13.702,3.478 C -1.335,13.89 0,12.543 0,8.641 V 7.656 c -5.686,-0.888 -7.474,-1.24 -10.671,-1.953 -1.87,-0.454 -3.564,-0.977 -5.259,-1.69 -5.604,-2.225 -8.271,-6.581 -8.271,-13.261 0,-8.451 3.644,-12.535 11.206,-12.535 2.761,0 5.257,0.54 7.474,1.423 1.966,0.89 3.116,1.601 5.965,3.833 v -0.631 c 0,-2.761 1.423,-4.184 4.178,-4.184 H 17.35 v 4.815 h -0.621 c -2.408,0 -3.296,1.054 -3.296,3.898 V 8.547 c 0,11.3 -3.914,15.207 -15.214,15.207 -3.646,0 -7.205,-0.442 -10.671,-1.236 -3.478,-0.806 -5.256,-1.519 -9.43,-3.562 z" /></g><g
           transform="translate(224.3954,60.0268)"
           id="g176"><path
             id="path178"
             style="fill:#002c80;fill-opacity:1;fill-rule:evenodd;stroke:none"
             d="m 0,0 v 30.069 c 2.319,2.585 4.731,3.732 7.486,3.732 2.926,0 3.644,-1.147 3.644,-5.609 V 0 h 13.877 v 30.246 c 0,7.028 -0.53,9.253 -2.76,11.653 -1.865,2.045 -4.709,3.115 -8.357,3.115 -5.437,0 -9.253,-1.702 -14.408,-6.487 v 1.771 c 0,2.756 -1.426,4.186 -4.272,4.186 h -13.172 v -5.069 h 0.807 c 2.311,0 3.287,-1.076 3.287,-3.384 l 0,-36.031 z" /></g><g
           transform="translate(290.5862,69.373)"
           id="g180"><path
             id="path182"
             style="fill:#002c80;fill-opacity:1;fill-rule:nonzero;stroke:none"
             d="m 0,0 h -19.4 l 18.495,25.962 v 9.176 h -28.998 c -3.291,0 -4.798,-1.512 -4.798,-4.808 v -8.093 h 5.155 v 0.799 c 0,2.043 1.071,3.02 3.291,3.02 h 9.97 L -34.972,-0.178 v -9.168 l 34.972,0 z" /></g><g
           transform="translate(363.4099,61.1813)"
           id="g184"><path
             id="path186"
             style="fill:#002c80;fill-opacity:1;fill-rule:evenodd;stroke:none"
             d="m 0,0 v 50.263 c 0,4.009 -1.411,5.338 -5.331,5.338 h -11.748 v -5.604 h 0.713 c 2.671,0 3.206,-0.624 3.206,-3.818 V 0 Z M 5.787,0 H 18.87 v 39.143 c 0,3.915 -1.512,5.341 -5.333,5.341 h -7.75 z m -24.731,0 v 44.484 h -7.741 c -3.83,0 -5.342,-1.426 -5.342,-5.341 V 0 Z m 50.179,25.525 c 0,-22.141 -15.932,-38.251 -37.819,-38.251 -21.879,0 -37.799,16.11 -37.799,38.251 0,22.166 15.92,38.263 37.799,38.263 21.887,0 37.819,-16.196 37.819,-38.263 m 7.746,0 c 0,26.073 -19.487,45.562 -45.565,45.562 -26.058,0 -45.539,-19.489 -45.539,-45.562 0,-26.068 19.481,-45.537 45.539,-45.537 26.078,0 45.565,19.469 45.565,45.537" /></g></g></g></g></svg>