<svg xmlns="http://www.w3.org/2000/svg" viewBox="0 0 193 49.96" xmlns:v="https://vecta.io/nano"><defs><clipPath id="A" transform="translate(-6 -52.85)"><path d="M6 52.85h193v49.96H6z" fill="none"/></clipPath></defs><g fill="#114c92"><path d="M17.46 26.95h-7.07l3.76-12.22zM7.07 39.31l2.22-7.45h9.06l2.21 7.45h7.52l-8-28.28c-.44-1.85-1.33-2.45-3.32-2.45h-11v2.57h.88c1.33 0 2 .42 2 1.44A5.3 5.3 0 0 1 8 15.15L0 39.31" fill-rule="evenodd"/><path d="M37.58 39.31V10.83c0-1.48-.88-2.25-2.43-2.25H28.3v2.57h.44c1.33 0 2 .55 2 1.75v26.41m19.26 0V10.83c0-1.48-.88-2.25-2.43-2.25h-6.89v2.57h.44c1.33 0 2 .55 2 1.75v26.41"/><path d="M62.56 11.3c0-2-1.54-3.23-4-3.23-2.65 0-4 1.19-4 3.23s1.32 3.29 4 3.29c2.44 0 4-1.21 4-3.29m-.22 28V18.57a2.08 2.08 0 0 0-2.21-2.27h-6.85v2.49h.44c1.33 0 1.77.56 1.77 1.82v18.7M78.7 28.15v4.6a6.3 6.3 0 0 1-4.2 2.08c-1.32 0-2-.64-2-2.36 0-1.91.44-2.64 2-3.23a17.8 17.8 0 0 1 4.2-1.09M69 22.64l.66-.27a19.77 19.77 0 0 1 4.18-1.22 18.94 18.94 0 0 1 2-.18c2.21 0 2.87.73 2.87 2.77v.57l-5.75 1.06a17.57 17.57 0 0 0-2.65.89c-2.87 1.15-4.2 3.36-4.2 6.83 0 4.35 1.77 6.43 5.75 6.43a8 8 0 0 0 4.2-1.06 8.72 8.72 0 0 0 2.87-2v.69c0 1.43.67 2.12 2 2.12h6.64v-2.33h-.23c-1.32 0-2-.59-2-1.79V23.86c0-5.88-2-7.87-7.74-7.87a23.42 23.42 0 0 0-5.53.64 16.44 16.44 0 0 0-4.64 1.77m30.51 20.91V23.7c1.54-1.44 2.65-2 4.2-2s2 .66 2 3v14.61H111v-15.7c0-3.22-.44-4.62-1.33-5.83a5.47 5.47 0 0 0-4.42-1.75c-2.65 0-4.64 1-7.74 3.65v-1.24c0-1.44-.66-2.14-2-2.14h-6.64v2.49h.22c1.33 0 2 .56 2 1.82v18.7" fill-rule="evenodd"/></g><g clip-path="url(#A)" fill="#114c92"><path d="M132.2 34.91H122l9.73-13.89v-4.73h-14.56c-1.77 0-2.43.71-2.43 2.41v4.18h2.43v-.46c0-1.26.66-1.77 2-1.77h5.31l-10 13.88v4.78h17.72"/><path d="M171.33 38.05V12c0-2.1-.88-2.78-2.87-2.78h-6v2.87h.66c1.11 0 1.55.42 1.55 1.71v24.25zm3.54 0h6.41V18.39c0-2-.88-2.78-2.87-2.78h-3.54zm-13.7 0V15.61h-3.54c-2 0-2.88.79-2.88 2.78v19.66zm27.63-13.09c0 12.19-8.8 21.07-20.8 21.07s-20.76-8.88-20.76-21.07S156.08 3.89 168 3.89s20.78 8.89 20.78 21.07m4.2 0c0-14.26-10.61-25-25-25-14.15 0-25 10.7-25 25s10.83 25 25 25c14.37 0 25-10.7 25-25" fill-rule="evenodd"/></g></svg>