<svg id="DER3" xmlns="http://www.w3.org/2000/svg" viewBox="0 0 113.42 143"><defs><style>.cls-1{fill:#266835;}.cls-2{fill:#83c443;}.cls-3{fill:#49b34a;}.cls-4{fill:#63ba58;}</style></defs><path class="cls-1" d="M76.86,59.41a20.73,20.73,0,0,1-2.54-1.28,7.05,7.05,0,0,1-3-6.06q0-18.9,0-37.81a5.05,5.05,0,0,1,5-5.21c2.07-.1,4.15-.1,6.22,0,5.31.17,10.51-.22,15.21-3,2.51,3.17,2,8.44-1,11.29-2.8,2.65-6.25,3.61-10,4-1,.1-2,.14-3.08.21V52.81H98.52c0,2.89.21,5.7-.06,8.47a4.72,4.72,0,0,1-4.6,4.07c-2.34.15-4.7.09-7,.11-.88,0-1.75,0-2.72,0a7.41,7.41,0,0,0-.1.83c0,8.68-.1,17.36.08,26,.13,5.8,1.45,11.34,5,16.14a28.43,28.43,0,0,0,8.23,7.29c.73.45,1.43.93,2.14,1.4l-.09.47a13.73,13.73,0,0,1-2.3.11,24.47,24.47,0,0,1-10.11-3.88C77.4,107.94,72.4,99.15,71.6,88.17c-.53-7.35-.3-14.76-.26-22.14C71.35,62.8,73.2,60.75,76.86,59.41Z" transform="translate(-45.03 -6)"/><path class="cls-2" d="M105.29,6c4.57,2.64,9.5,3.2,14.6,3,2-.09,4,0,6,0,3.85,0,5.89,2,6,5.87,0,1.34,0,2.68,0,4l-.12,45v1.59c-.45,0-.81.09-1.16.09-6.65,0-13.29,0-19.94,0-4.19,0-6.25-2.13-6.26-6.34,0-1.66,0-3.32,0-5,0-.4,0-.81.07-1.32h14.92V21.61c-1.75-.19-3.5-.28-5.21-.58a15,15,0,0,1-7.35-3.28A8.86,8.86,0,0,1,105.29,6Z" transform="translate(-45.03 -6)"/><path class="cls-3" d="M119.16,69.28h12.58c0,.91,0,1.77,0,2.63,0,5.12.2,10.26-.12,15.36-.94,15.2-10.5,26.78-24.28,30.26-1.2.31-2.49.71-3.89-.27.74-.5,1.31-.93,1.93-1.28,7.3-4.18,11.8-10.37,13.09-18.69a74.26,74.26,0,0,0,.59-9.79c.11-5.54.07-11.08.1-16.62Z" transform="translate(-45.03 -6)"/><path class="cls-1" d="M124.33,123.94c.18.28.5.57.51.86.08,2.12.13,4.25.11,6.37,0,1.44-.59,2.13-2,2.1-1.58,0-3.14-.32-4.72-.49a2.9,2.9,0,0,0-.51,0c-2.84.17-5.67.38-8.51.5a5,5,0,0,1-1.61-.51c-.56,2.14-1.78,3.51-3.27,3.53-.28,0-.55-.32-1-.62,4.65-1.16,3-4.75,3.66-7.68.2.27.55.54.58.83.33,3.53.31,3.54,3.9,3.53l5.83-.06.19-.65L114,129.12c.17-.27.36-.9.79-1.19,1.52-1.06,5.47-.83,6.94,1l-2.82,3.4c1.43,0,2.75,0,4.07,0,.91,0,.94-.69.94-1.38q0-3.39,0-6.77Zm-5.94,7.48c.4-.35.9-.76,1.34-1.22a10.6,10.6,0,0,0,.78-1.08,4.44,4.44,0,0,0-5.2-.31Z" transform="translate(-45.03 -6)"/><path class="cls-1" d="M52.53,129.64c0,.45.06.91.13,1.36.13.88.56,1.45,1.56,1.37h.27c3,0,2.95,0,3-2.94,0-.52-.46-1.53.84-1.27.49,4.3.49,4.3,4,4.17a13.68,13.68,0,0,1-.15-2.21A2.15,2.15,0,0,1,64.38,128a2.29,2.29,0,0,1,2.39,1.89,2.54,2.54,0,0,1-2.41,3.45,36,36,0,0,1-4.28,0,7.75,7.75,0,0,1-1.93-.73c-1.58,1.26-3.47.82-5.42.44a12.84,12.84,0,0,1-.94,1.84,3.51,3.51,0,0,1-6.24-.62,15.44,15.44,0,0,1-.52-4.33c0-.15.43-.33.82-.61.09,1.33.13,2.38.23,3.43a2.77,2.77,0,0,0,2.91,2.7,2.86,2.86,0,0,0,2.66-2.84c0-.79-.06-1.57,0-2.35,0-.3.31-.57.48-.85Zm14,.94c-.89-.8-1.42-1.65-2.07-1.77-1-.17-1.34.79-1.33,1.67s.2,2.06,1.4,1.9C65.17,132.3,65.68,131.41,66.55,130.58Z" transform="translate(-45.03 -6)"/><path class="cls-1" d="M69.31,124a3.11,3.11,0,0,1,.42,1c0,1.93,0,3.87,0,5.81,0,1.6.06,1.57,2.24,1.62,1.25,0,2-.33,1.84-1.71-.06-.78,0-1.57,0-2.87.49.49.93.72,1,1,.12.72,0,1.48.07,2.21.16,1.69,1.47,1.28,2.53,1.34s1.53-.42,1.51-1.46c0-2-.09-4-.08-5.93,0-.35.33-.7.5-1l.54.17c0,2.11-.07,4.23,0,6.34,0,.63.45,1.66.88,1.77a7.39,7.39,0,0,0,3-.13c.18,0,.31-.8.31-1.24a65.36,65.36,0,0,1,.31-6.85c.21.26.58.51.59.78.08,2.16.11,4.33.13,6.49a1.76,1.76,0,0,1-1.93,2c-1.21,0-2.56.43-3.36-.95a3.61,3.61,0,0,1-5.06,0c-1.4,1.42-3.16,1.05-4.81.8-.44-.07-1.05-1-1.08-1.51-.11-2.48,0-5,0-7.45Z" transform="translate(-45.03 -6)"/><path class="cls-1" d="M90,130.75c.42,3.64,1.31,4.89,3.33,4.66,1.63-.19,2.55-1.62,2.39-3.84H93.33c-.27-2,.54-3.38,2.13-3.6s2.64.74,3,2.67c.11.58.42,1.53.76,1.59a9.63,9.63,0,0,0,3.12-.09c.17,0,.33-.7.36-1.09,0-.73,0-1.48,0-2.21,0-.3.35-.57.53-.85l.41.17c0,1.15,0,2.29,0,3.43a1.55,1.55,0,0,1-1.52,1.64q-.69.08-1.38.09c-2.61,0-2.75-.11-3.23-2.64-.19-1-.6-1.81-1.76-1.77-1,0-1.51.56-1.57,1.68h2.3c.74,2.87-.47,5.26-2.84,5.74a3.8,3.8,0,0,1-4.4-3C89,131.42,89.12,130.86,90,130.75Z" transform="translate(-45.03 -6)"/><path class="cls-1" d="M148.57,132.37h3.78c1.81,0,1.92-.09,1.9-2,0-1.7-.07-3.4-.1-5.1,0-.36,0-.73,0-1.09l.38-.23c.21.27.6.54.61.81.06,2.26.09,4.52.05,6.77a1.54,1.54,0,0,1-1.62,1.69c-3.35,0-6.7,0-10.07,0,.25-.88.25-.88,1.68-.88h2.22c.35-1.86-1-2.87-2.14-4.12C147.21,128.36,147.66,129,148.57,132.37Z" transform="translate(-45.03 -6)"/><path class="cls-1" d="M137.58,127.23a2.19,2.19,0,0,1-.8,0c-.88-.31-1.5-.11-1.64.85a1.32,1.32,0,0,0,1.37,1.66,6.16,6.16,0,0,1,1.29.39l-.12.55c-.91,0-1.81,0-2.72,0a1.81,1.81,0,0,0-2,1.88,1.86,1.86,0,0,0,1.94,2c.46,0,.93,0,1.38,0,.2,0,.36.29.54.45-.16.17-.29.46-.48.51a3.56,3.56,0,0,1-4.33-2.06c-.51-1.57.36-3,2.38-3.82-.39-1.19-.69-2.42.68-3.23C136,126,136.86,126.23,137.58,127.23Z" transform="translate(-45.03 -6)"/><path class="cls-4" d="M89,143.29c-.19-.26-.38-.51-.56-.77a2,2,0,0,0-2.65-.79,1.89,1.89,0,0,0-.94,1.3c0,.34.53.9,1,1.08.79.35,1.68.45,2.5.73s1.62,1,1.33,2a3.11,3.11,0,0,1-1.58,1.82c-2.24.83-4.08-.25-4.31-2.72.42.44.7.62.81.87a2.61,2.61,0,0,0,3.83.94c.88-.72.67-1.82-.5-2.23a19.56,19.56,0,0,1-2.5-.72c-.57-.3-1.31-1-1.3-1.5a2.77,2.77,0,0,1,1.06-2A2.41,2.41,0,0,1,89,143.29Z" transform="translate(-45.03 -6)"/><path class="cls-4" d="M62.58,148l-.39.67-.21-.06v-7.54l.39,0,.11,2.57a5.6,5.6,0,0,1,2-.61,3.05,3.05,0,0,1,1.84,1,3.39,3.39,0,0,1-.19,4.1C65.25,149,63.87,149,62.58,148Zm3.54-2c0-1.42-.65-2.32-1.74-2.35a2,2,0,0,0-1.93,2.21c0,1.35.69,2.28,1.8,2.32S66.09,147.43,66.12,146Z" transform="translate(-45.03 -6)"/><path class="cls-4" d="M110,143.74l.11-2.65h.38v7.68l-.59-.65c-1.45.89-2.77.88-3.59-.07a3.6,3.6,0,0,1,0-4.25C107.17,142.81,108.37,142.78,110,143.74Zm-3.63,2.17c0,1.46.64,2.27,1.78,2.26s1.85-.85,1.86-2.24a2,2,0,0,0-1.83-2.29C107.08,143.62,106.37,144.5,106.38,145.91Z" transform="translate(-45.03 -6)"/><path class="cls-4" d="M51.86,149a14.23,14.23,0,0,1-.85-1.72,1.29,1.29,0,0,0-1.4-1c-1.53-.08-2.84,0-3.13,1.89,0,.24-.4.42-.61.63l-.31-.23c.94-2.36,1.86-4.74,2.87-7.08,0-.13,1-.12,1.09,0,.94,2.29,1.79,4.62,2.66,6.93C52.2,148.48,52.1,148.57,51.86,149Zm-2.92-7.06-1.42,3.66h2.8Z" transform="translate(-45.03 -6)"/><path class="cls-4" d="M102.74,146.63c0,1.58-.66,2.16-2.14,2.15-1.66,0-2.49-1-2.46-3,0-1.75,1-2.89,2.52-2.83s2.29,1.13,2.26,3.12H98.53c.55.84.79,1.56,1.28,1.86C101.17,148.81,101.89,147.57,102.74,146.63Zm-.38-1.24c-.3-1-.68-1.76-1.76-1.74s-1.54.64-1.64,1.74Z" transform="translate(-45.03 -6)"/><path class="cls-4" d="M158.44,146.11h-4c0,1.23.44,2.14,1.61,2A7.36,7.36,0,0,0,158.3,147c-.17,1.42-1,2-2.59,1.82a2.63,2.63,0,0,1-2.1-3.08c.14-1.71,1.25-2.82,2.71-2.69S158.53,144.25,158.44,146.11Zm-.67-.69c-.17-1.2-.71-1.8-1.74-1.76s-1.46.74-1.6,1.76Z" transform="translate(-45.03 -6)"/><path class="cls-4" d="M94.48,148.66c0-1,0-2,0-3.06s0-1.94-1.36-1.95-1.65.82-1.69,1.91-.06,2.08-.09,3.12l-.47,0V141.1l.4,0,.24,2.52a7.55,7.55,0,0,1,1.24-.51c1-.21,2.07-.05,2.23,1a30.13,30.13,0,0,1,.06,4.56Z" transform="translate(-45.03 -6)"/><path class="cls-4" d="M141.73,148.69l-1.06-.43a15.56,15.56,0,0,1-2.14.5,1.37,1.37,0,0,1-1.63-1.3,1.52,1.52,0,0,1,1.33-1.79c.53-.14,1.12-.11,1.63-.3.3-.11.7-.51.69-.76s-.47-.88-.64-.85a26,26,0,0,0-2.71.77c0-.93.75-1.34,1.72-1.5,1.35-.23,2.27.31,2.42,1.43.08.59,0,1.2,0,1.79C141.46,147,141.6,147.77,141.73,148.69Zm-1.18-2.84a12.9,12.9,0,0,0-2.24.48,1.22,1.22,0,0,0-.64,1,1.34,1.34,0,0,0,.92.8C139.85,148.41,140.57,147.61,140.55,145.85Z" transform="translate(-45.03 -6)"/><path class="cls-4" d="M60.83,148.68l-1-.39a6.71,6.71,0,0,1-2.3.42,2.33,2.33,0,0,1-1.44-1.28c-.32-.77.17-1.43,1-1.67.57-.16,1.19-.17,1.74-.37a3.53,3.53,0,0,0,.91-.75c-.32-.33-.65-.94-.94-.92a5.43,5.43,0,0,0-1.78.69c-.19.09-.31.32-.65.68-.1-1.62.81-2,1.83-2.07s2.06.18,2.28,1.45c.1.58,0,1.2,0,1.79C60.55,147,60.69,147.77,60.83,148.68Zm-1.21-2.81a13.26,13.26,0,0,0-2.24.46,1.24,1.24,0,0,0-.65,1,1.38,1.38,0,0,0,.92.8C59,148.42,59.7,147.59,59.62,145.87Z" transform="translate(-45.03 -6)"/><path class="cls-4" d="M70,144.46c0-.9.56-1.42,1.84-1.46,1.11,0,2,.28,2.19,1.57.08.64,0,1.29.06,1.93s.23,1.34.39,2.21l-1.14-.44a14.63,14.63,0,0,1-2.12.49,1.37,1.37,0,0,1-1.64-1.29,1.53,1.53,0,0,1,1.33-1.8c.53-.13,1.1-.13,1.62-.29.29-.09.75-.46.71-.6-.1-.38-.46-1-.64-1A19.16,19.16,0,0,0,70,144.46Zm3.2,1.39a13.07,13.07,0,0,0-2.22.48,1.26,1.26,0,0,0-.65,1,1.33,1.33,0,0,0,.89.82C72.52,148.43,73.29,147.58,73.2,145.85Z" transform="translate(-45.03 -6)"/><path class="cls-4" d="M142.68,143.39a13.2,13.2,0,0,0,1.68-.24c1.68-.48,2.75.23,2.79,2,0,1.06,0,2.13,0,3.19,0,.11-.11.22-.36.7a9,9,0,0,1-.32-1.29,14.12,14.12,0,0,0-.09-2.61,2.12,2.12,0,0,0-1.14-1.39,1.36,1.36,0,0,0-1.75,1.3c-.12,1-.06,2-.1,3a.89.89,0,0,1-.33.62C142.42,146.91,142.79,145.09,142.68,143.39Z" transform="translate(-45.03 -6)"/><path class="cls-4" d="M128.58,143.14a4,4,0,0,1,.22.87c0,.92,0,1.84,0,2.76,0,.74.24,1.36,1.16,1.41s1.5-.25,1.67-1.09a22.42,22.42,0,0,0,.21-2.59l.09-1.36.43,0V149l-.38-.6c-1.09.1-2.19.51-2.91.16s-.84-1.47-1-2.3a19.25,19.25,0,0,1,0-3Z" transform="translate(-45.03 -6)"/><path class="cls-4" d="M117.36,148.64v-5.23a9.91,9.91,0,0,0,1.6-.25c1.54-.53,2.68.15,2.76,1.78.06,1.24,0,2.49,0,3.73l-.49,0a7.71,7.71,0,0,1-.16-1c0-.78,0-1.57,0-2.35s-.23-1.68-1.37-1.67a1.57,1.57,0,0,0-1.66,1.65c0,.78,0,1.56,0,2.34a9.53,9.53,0,0,1-.17,1.07Z" transform="translate(-45.03 -6)"/><path class="cls-4" d="M122.93,147.1a10.06,10.06,0,0,0,2.2,1c.36.07.84-.48,1.27-.75a5,5,0,0,0-1-1.08c-.47-.26-1.12-.2-1.56-.48s-.93-.82-.9-1.21a2,2,0,0,1,3.9.3,6.53,6.53,0,0,0-.65-.48,8.17,8.17,0,0,0-1.75-.69c-.21,0-.74.4-.73.6a1.24,1.24,0,0,0,.57.93c.53.26,1.24.18,1.7.5s1.2,1,1.13,1.47a2.27,2.27,0,0,1-1.36,1.45C124,149.2,122.84,148.4,122.93,147.1Z" transform="translate(-45.03 -6)"/><path class="cls-1" d="M137.62,135.57c2.11-.47,2.93-1.48,3-3.62,0-1,0-2,0-3,0-.28.29-.54.45-.81.18.25.52.49.52.74a32.56,32.56,0,0,1-.23,4.64,3.38,3.38,0,0,1-2.61,2.74,3,3,0,0,1-1.18-.2Z" transform="translate(-45.03 -6)"/><path class="cls-4" d="M152.82,146.69c-.36,1.74-1.08,2.26-2.55,2.07a2.63,2.63,0,0,1-2.17-2.9,2.7,2.7,0,0,1,2.29-2.85c1.26-.17,2.09.41,2.56,2.15-1.33-1.17-2.57-2.6-3.79-.51a2.34,2.34,0,0,0,.37,3C151,149.1,151.84,147.54,152.82,146.69Z" transform="translate(-45.03 -6)"/><path class="cls-1" d="M157.18,133.16v-9.41c.43.45.82.67.83.91.07,2.66.11,5.34.1,8,0,.24-.42.48-.64.72Z" transform="translate(-45.03 -6)"/><path class="cls-1" d="M127.83,124.13c0,2.84,0,5.68,0,8.52,0,.21-.31.41-.47.61-.14-.18-.4-.37-.4-.56-.06-2.67-.1-5.33-.08-8,0-.26.39-.52.6-.77Z" transform="translate(-45.03 -6)"/><path class="cls-4" d="M115.75,141.06v7.65c-.22-.07-.58-.13-.58-.19,0-2.5,0-5,0-7.5Z" transform="translate(-45.03 -6)"/><path class="cls-4" d="M76.23,143.94a1.81,1.81,0,0,1,2.36-.81c1,.25,1.23,1,1.26,1.91,0,1.2,0,2.41,0,3.61l-.47.07a2.06,2.06,0,0,1-.31-.7c0-.83.06-1.67,0-2.49-.07-.59-.24-1.54-.58-1.64-.58-.19-1.33.16-2,.29Z" transform="translate(-45.03 -6)"/><path class="cls-3" d="M53.37,143.16l.26.67L55.7,143a11.18,11.18,0,0,0-2,2.63,9.92,9.92,0,0,0-.07,3h-.45v-5.38Z" transform="translate(-45.03 -6)"/><ellipse class="cls-3" cx="59.23" cy="138.87" rx="0.22" ry="5.33"/><path class="cls-4" d="M76.45,144.18l-.66,4.46h-.23v-5.77l.67,1.07Z" transform="translate(-45.03 -6)"/><path class="cls-3" d="M134.89,144.46l-.63,4.17H134v-5.41l.2-.06.48,1.09Z" transform="translate(-45.03 -6)"/><path class="cls-3" d="M68.42,143.22v5.4H68.1v-5.4Z" transform="translate(-45.03 -6)"/><path class="cls-3" d="M96.93,143.21v5.41h-.32v-5.41Z" transform="translate(-45.03 -6)"/><path class="cls-1" d="M70,123.05H68.22l.71-1.66Z" transform="translate(-45.03 -6)"/><path class="cls-3" d="M134.69,144.25c.3-.9.94-1.11,1.85-.77l-1.65,1Z" transform="translate(-45.03 -6)"/><rect class="cls-1" x="28.4" y="120.3" width="0.81" height="0.81"/><rect class="cls-1" x="29.46" y="120.3" width="0.81" height="0.81"/><rect class="cls-1" x="12.18" y="128.36" width="0.81" height="0.81"/><rect class="cls-1" x="13.24" y="128.36" width="0.81" height="0.81"/><rect class="cls-1" x="3.45" y="122.11" width="0.81" height="0.81"/><rect class="cls-1" x="47.02" y="131.19" width="0.81" height="0.81"/><rect class="cls-1" x="48.09" y="131.19" width="0.81" height="0.81"/><rect class="cls-1" x="56.93" y="128.36" width="0.81" height="0.81"/><rect class="cls-3" x="23.07" y="136.06" width="0.32" height="0.64"/><rect class="cls-3" x="51.58" y="136.07" width="0.32" height="0.64"/></svg>