<?xml version="1.0" encoding="UTF-8"?>
<svg id="Layer_1" data-name="Layer 1" xmlns="http://www.w3.org/2000/svg" viewBox="0 0 270.7 111">
  <defs>
    <style>
      .cls-1 {
        fill: #69ee00;
      }

      .cls-1, .cls-2 {
        stroke-width: 0px;
      }

      .cls-2 {
        fill: #163e37;
      }
    </style>
  </defs>
  <g id="logo">
    <path id="Path_774" data-name="Path 774" class="cls-2" d="m208.5,92.4c-.8,0-1.6.2-2.3.6-.6.4-1.2.9-1.5,1.6v-7.5h-2.8v18.4h2.8v-6.6c-.1-1,.2-2,.9-2.8,1.2-1.2,3.1-1.3,4.3-.1l.1.1c.6.8,1,1.8.9,2.8v6.6h2.8v-6.6c.1-1.8-.4-3.5-1.4-4.9-1-1-2.4-1.6-3.8-1.6m11-62.4h-1.8c-.2,0-.5-.1-.7-.3-.2-.2-.3-.4-.3-.7,0-.2.1-.5.3-.6.2-.2.4-.3.7-.3s.6.1.8.4l.8-.7c-.4-.5-1-.8-1.6-.8-.5,0-1,.2-1.4.5s-.6.8-.6,1.3c0,.4.1.8.4,1.1h-1v1.1h4.4v-1Zm-15.2,33.2h-2.8v6.6c.1,1-.2,2-.9,2.8-1.2,1.2-3.1,1.3-4.3.1l-.1-.1c-.6-.8-.9-1.8-.9-2.8v-6.6h-2.8v6.6c-.1,1.8.4,3.5,1.4,4.9,1,1.1,2.4,1.7,3.8,1.6.8,0,1.6-.2,2.3-.6.7-.4,1.2-1,1.6-1.7l.2,2.1h2.6l-.1-12.9Zm9-.1c-1.6-.1-3.1.7-3.9,2.1l-.2-2h-2.6v13h2.8v-5.7c-.1-1.3.3-2.6,1.1-3.5.8-.7,1.8-1.1,2.9-1.1h.5l.6-2.7c-.4,0-.7-.1-1.1-.1h-.1Zm-15.6,40c-.6,0-1.3-.2-1.7-.7-.4-.6-.6-1.3-.6-2v-5.3h3v-2.5h-3v-4.3h-2.3l-.4,4.3h-1.8v2.5h1.7v5.4c-.1,1.5.3,2.9,1.3,4.1.9.9,2.1,1.3,3.4,1.3.7,0,1.4-.1,2.1-.4l-.7-2.5c-.3,0-.7.1-1,.1m-19.5-26.9v-6.6c.1-1.8-.4-3.5-1.4-4.9-.9-1.1-2.3-1.7-3.8-1.7-.8,0-1.6.2-2.3.6-.7.4-1.2,1-1.6,1.7l-.2-2.1h-2.6v13h2.8v-6.6c-.1-1,.2-2,.9-2.8,1.2-1.2,3.1-1.3,4.3-.1l.1.1c.6.8,1,1.8.9,2.8v6.6h2.9Zm41-9.3c.7-.7,1.7-1.2,2.7-1.1,2.2,0,3.9,1.8,3.9,3.9s-1.7,3.9-3.9,3.9c-1,0-2-.4-2.7-1.2-.7-.7-1.2-1.7-1.1-2.7-.1-1.1.3-2.1,1.1-2.8m2.2,9.5c.9,0,1.9-.2,2.7-.7.8-.4,1.4-1.1,1.8-1.9l.2,2.4h2.6v-13h-2.6l-.2,2.5c-.4-.8-1-1.5-1.8-1.9-.8-.5-1.7-.7-2.7-.7-1.7,0-3.3.7-4.4,2-2.5,2.7-2.5,6.8,0,9.4,1.2,1.1,2.8,1.9,4.4,1.9m-33.3-7.6c-.8-.3-1.5-.5-2.3-.6-.7-.1-1.3-.3-2-.6-.5-.2-.8-.5-.8-.9s.2-.7.6-.9c.5-.2,1.1-.4,1.6-.3.7,0,1.3.1,2,.3.6.2,1.1.5,1.6,1l1.7-1.7c-1.3-1.5-3.3-2.3-5.3-2.1-1.3-.1-2.6.3-3.6,1-1.5,1.2-1.8,3.3-.7,4.8l.1.1c.5.6,1.2,1,2,1.3.8.2,1.5.5,2.3.6.7.1,1.3.3,1.9.6.5.2.8.6.8.9,0,.4-.2.9-.6,1-.5.3-1.2.4-1.8.4-.8,0-1.5-.1-2.2-.4-.7-.2-1.2-.6-1.7-1.1l-1.9,1.8c.7.8,1.6,1.4,2.7,1.7,1,.4,2.1.6,3.2.6,1.3,0,2.6-.3,3.7-1.1,1-.7,1.6-1.9,1.5-3.1,0-.8-.3-1.6-.8-2.3-.5-.3-1.2-.8-2-1m-2.2,30.4c.1,1-.2,2-.9,2.8-1.2,1.2-3.1,1.3-4.3.1l-.1-.1c-.6-.8-.9-1.8-.9-2.8v-6.6h-2.8v6.6c-.1,1.8.4,3.5,1.4,4.9,1,1.1,2.4,1.7,3.8,1.6.8,0,1.6-.2,2.3-.6.7-.4,1.2-1,1.6-1.7l.2,2.1h2.6v-13h-2.8l-.1,6.7Zm77.6,2.2l-3.4-8.8h-3l5.1,12.7c-.7,2-1.7,3-3,3-.5,0-1-.1-1.5-.3l-.8,2.5c.8.3,1.6.5,2.5.5,1.2,0,2.4-.4,3.3-1.3,1.1-1.2,1.9-2.6,2.4-4.1l4.7-13h-3l-3.3,8.8Zm-9.5,1.7c-.6,0-1.3-.2-1.7-.7-.4-.6-.6-1.3-.6-2v-5.3h3v-2.5h-3v-4.3h-2.3l-.4,4.3h-1.8v2.5h1.7v5.4c-.1,1.5.3,2.9,1.3,4.1.9.9,2.1,1.3,3.4,1.3.7,0,1.4-.1,2.1-.4l-.7-2.5c-.3,0-.7.1-1,.1m-3-29.6c-2.1,0-3.8-1.8-3.7-3.9,0-2.1,1.8-3.8,3.9-3.7,1.2,0,2.3.6,3,1.5l2.3-1.6c-.6-.9-1.4-1.6-2.4-2.1-.9-.5-2-.8-3.1-.8-3.7,0-6.7,3-6.7,6.7s3,6.7,6.7,6.7h0c1.1,0,2.2-.3,3.1-.8,1-.5,1.8-1.3,2.4-2.2l-2.3-1.6c-.7,1.2-2,1.9-3.2,1.8m9.4-4.9c.1-.8.5-1.6,1.1-2.1.7-.6,1.6-.9,2.5-.9s1.8.3,2.5.9c.7.5,1.1,1.3,1.1,2.1h-7.2Zm10.2,1.1c0-1.8-.7-3.5-1.9-4.7-2.6-2.6-6.8-2.6-9.3,0h0c-1.3,1.2-2,2.9-1.9,4.7,0,1.8.7,3.5,2,4.7,1.3,1.3,3.1,2,4.9,1.9,1.1,0,2.2-.2,3.2-.7,1-.4,1.8-1.1,2.5-1.9l-2.2-1.4c-.9.9-2.1,1.5-3.4,1.4-.9,0-1.8-.3-2.6-.8-.7-.5-1.2-1.2-1.3-2.1h10.1c-.1-.7-.1-1.1-.1-1.1m-105.4,29.1l2.2-6.4,2.2,6.4h-4.4Zm.6-10.4l-6.1,17.2h3.3l1.4-4h6.1l1.4,4h3.3l-6.1-17.2h-3.3Zm77.8-.4c-.4,0-.9.2-1.2.5-.3.3-.5.7-.5,1.2,0,.9.8,1.7,1.7,1.7s1.7-.8,1.7-1.7c0-.4-.2-.9-.5-1.2-.3-.3-.8-.5-1.2-.5m-5,4.5c-1.6-.1-3.1.7-3.9,2.1l-.2-2h-2.6v13h2.8v-5.7c-.1-1.3.3-2.6,1.1-3.5.8-.7,1.8-1.1,2.9-1.1h.5l.6-2.7c-.4,0-.7-.1-1.1-.1h-.1Zm3.6,13.1h2.8v-13h-2.8v13Zm-16.8-3.8c-1.5,1.5-3.9,1.5-5.4,0s-1.5-3.9,0-5.4h0c1.5-1.5,3.9-1.5,5.4,0s1.5,3.9,0,5.4m-2.7-9.4c-3.7,0-6.7,3-6.7,6.7s3,6.7,6.7,6.7,6.7-3,6.7-6.7c0-1.8-.7-3.5-2-4.8-1.2-1.2-2.9-1.9-4.7-1.9m20.2-16.2v-6.6c.1-1.8-.4-3.5-1.4-4.9-.9-1.1-2.3-1.7-3.8-1.7-.8,0-1.6.2-2.3.6-.6.4-1.2,1-1.6,1.7l-.2-2.1h-2.6v13h2.8v-6.6c-.1-1,.2-2,.9-2.8,1.2-1.2,3.1-1.3,4.3-.1l.1.1c.6.8.9,1.8.9,2.8v6.6h2.9Zm-65.9-28.1c-.3.3-.5.7-.5,1.1s.2.8.5,1.1c.3.3.7.5,1.1.5s.8-.2,1.1-.5c.3-.3.5-.7.5-1.1,0-.9-.7-1.6-1.6-1.6-.4,0-.8.1-1.1.5m50.4-26.7c.3-.3.5-.7.5-1.1,0-.9-.7-1.6-1.6-1.6s-1.6.7-1.6,1.6c0,.4.2.8.5,1.1.3.3.7.5,1.1.5s.8-.1,1.1-.5m-11.8,10.7v8.9c-.1,1.3.4,2.5,1.2,3.5.8.9,2,1.4,3.2,1.3h16.3c1.3-1.7,3.7-2,5.3-.7.3.2.5.5.7.7h16.4c1.2.1,2.4-.4,3.2-1.3.8-1,1.3-2.2,1.2-3.5v-13.6h-2.8v13.6c0,1.4-.5,2.1-1.6,2.1h-16.4c-.5,0-.9-.2-1.2-.6-.3-.4-.5-1-.4-1.5v-7h-2.7v7c0,.5-.1,1.1-.4,1.5s-.8.6-1.3.6h-16.3c-1.1,0-1.7-.7-1.7-2.1v-8.9h-2.7Zm16-10.7c.3-.3.5-.7.5-1.1s-.2-.8-.5-1.1c-.3-.3-.7-.5-1.1-.5s-.8.2-1.1.5c-.6.6-.6,1.6,0,2.2.3.3.7.5,1.1.5s.8-.2,1.1-.5m-63.1-17.4c.4,0,.8-.2,1.1-.5.6-.6.6-1.6,0-2.2-.6-.6-1.6-.6-2.2,0h0c-.6.6-.6,1.6,0,2.2.3.4.7.5,1.1.5m69.9,28.3c.3-.3.5-.7.5-1.1s-.2-.8-.5-1.1c-.3-.3-.7-.5-1.1-.5s-.8.2-1.1.5c-.3.3-.5.7-.5,1.1s.2.8.5,1.1c.5.7,1.5.7,2.2,0q-.1.1,0,0m31.1-4.9h-2.8v18.4h2.8v-18.4Zm-105.7-18.5c.6-.6,1.4-.9,2.2-.9h2.9v3.2c0,.8-.3,1.7-.8,2.3s-1.3.9-2.1.9-1.6-.3-2.2-.9c-1.2-1.4-1.2-3.4,0-4.6m94.2,1.9c.8-.8,2.1-.8,2.9-.1.8.8.8,2.1.1,2.9l-.1.1c-.8.8-2.1.7-2.9-.1-.7-.8-.7-2,0-2.8m4.4-3c.5-.3,1-.5,1.5-.5.8,0,1.6.3,2.1.9.6.7.8,1.5.8,2.4v3.6h-4.1c.6-.5.9-1.3.9-2,0-1.4-.9-2.7-2.3-3.2.2-.5.6-.9,1.1-1.2m-96.4,9.2c1.6.1,3.2-.7,4.1-2,.5,1.3,1.8,2.1,3.2,2h23c1.2.1,2.3-.5,3-1.5.7,1,1.8,1.6,3,1.5h22.9c1.3-1.7,3.7-2,5.3-.7.3.2.5.5.7.7h38.1v-6.3c.1-1.6-.5-3.1-1.6-4.3-1-1.1-2.5-1.8-4-1.7-1.1,0-2.3.3-3.2,1-.9.6-1.6,1.5-2,2.6-.9.2-1.8.7-2.4,1.4s-1,1.7-1,2.7c0,.8.3,1.5.9,2h-24.8c-.5,0-.9-.2-1.3-.6-.3-.4-.5-1-.4-1.5v-7h-2.7v7c0,.5-.1,1.1-.4,1.5s-.8.6-1.2.6h-22.9c-1.1,0-1.7-.7-1.7-2.1v-7h-2.8v7c0,1.4-.5,2.1-1.6,2.1h-23c-1.1,0-1.7-.7-1.7-2.1v-7h-5.6c-1.6,0-3.1.6-4.2,1.7-1.1,1.1-1.8,2.6-1.7,4.2.2,3.2,2.8,5.8,6,5.8h0m-1.7-13c.4,0,.8-.2,1.1-.5.6-.6.6-1.6,0-2.2h0c-.3-.3-.7-.5-1.1-.5-.9,0-1.6.7-1.6,1.6,0,.4.2.8.5,1.1.3.4.7.5,1.1.5m37.2-1.1h-1.8c-.2,0-.5-.1-.7-.3s-.3-.4-.3-.7c0-.2.1-.5.3-.6.2-.2.4-.3.7-.3s.6.1.8.4l.8-.7c-.4-.5-1-.7-1.6-.7-.5,0-1,.2-1.4.5s-.6.8-.6,1.3c0,.4.1.8.4,1.1h-1v1.1h4.4v-1.1Zm-40.7,73.3h3v-17.2h-3v17.2Zm20.5-28.1c-.3.3-.5.7-.5,1.1s.2.8.5,1.1c.6.6,1.5.6,2.1.1l.1-.1c.3-.3.5-.7.5-1.1s-.2-.8-.5-1.1c-.3-.3-.7-.5-1.1-.5-.5,0-.9.2-1.1.5m-12.8-15.7c.6-.6.6-1.6,0-2.3h0c-.3-.3-.7-.5-1.1-.5-.9,0-1.6.7-1.6,1.6,0,.4.2.9.5,1.2.3.3.7.5,1.1.5.4,0,.8-.2,1.1-.5m36.2,5.3c1.2-1.2,3.2-1.2,4.4,0h0c1.2,1.2,1.2,3.2,0,4.5-1.2,1.2-3.2,1.2-4.4,0-.6-.6-.9-1.4-.9-2.2-.1-.9.3-1.7.9-2.3m-19.7,8.1h21.9c3.3,0,5.9-2.6,5.9-5.9s-2.6-5.9-5.9-5.9-5.9,2.6-5.9,5.9h0c0,1.2.5,2.4,1.6,3.1h-19.2c-.5,0-.9-.2-1.3-.6-.3-.4-.5-1-.4-1.5v-7h-2.7v7c0,.5-.1,1.1-.4,1.5s-.8.6-1.2.6h-1.8c-1.1,0-1.6-.7-1.6-2.1v-7h-2.8v10.3c.1,1.1-.3,2.2-1,3-1.4,1.5-3.6,1.5-5.1.2l-.2-.2c-.7-.8-1.1-1.9-1.1-3v-8h-2.8v8c-.1,1.8.6,3.6,1.9,4.9,2.4,2.5,6.4,2.6,8.9.2,1.2-1.2,2-2.7,2.1-4.4.4.5,1,.7,1.7.7h1.8c1.3-1.7,3.7-2,5.3-.7.3.2.5.5.7.7l1.6.2h0Zm57.6-13.4c.6-.6.6-1.6,0-2.2s-1.6-.6-2.2,0h0c-.6.6-.6,1.6,0,2.2s1.6.6,2.2,0M67.5,1.5L29.9,105.6h19.1L80.7,14.8l31.7,90.8h19.1L94.1,1.5h-26.6ZM0,105.6h18.4V1.5H0v104.1Z"/>
    <path id="Path_775" data-name="Path 775" class="cls-1" d="m62.4,67.4l-13.3,38.2c3.8-4.6,7.9-8.9,12.3-13,15.6-14.4,33.3-26.4,52.4-35.5,9.8-4.7,19.9-8.9,30.2-12.4-28.3,2.9-55.9,10.6-81.6,22.7"/>
  </g>
</svg>