<svg xmlns="http://www.w3.org/2000/svg" width="156" height="60" viewBox="0 0 156 60">
  <g id="Group_6522" data-name="Group 6522" transform="translate(-355 -830)">
    <text id="Authorized_By_Saudi_Central_Bank" data-name="Authorized By
Saudi Central Bank" transform="translate(420 855)" fill="#275c86" font-size="10" font-family="IBMPlexSansArabic-Bold, IBM Plex Sans Arabic" font-weight="700"><tspan x="0" y="0">Authorized By</tspan><tspan x="0" y="15">Saudi Central Bank</tspan></text>
    <g id="Group_6522-2" data-name="Group 6522" transform="translate(355 830)">
      <path id="Path_1635" data-name="Path 1635" d="M469.96,121.183h-.528c.031-.683.528-.652.528-.652Zm1.087-3.883a12.651,12.651,0,0,1-1.491,1.025c.124.155.249.28.373.435v.5a2.068,2.068,0,0,0-1.18.683,4.036,4.036,0,0,0-.249,1.926h2.578c-.031-1.522-.062-3.013-.031-4.566" transform="translate(-446.651 -81.549)" fill="#275c86"/>
      <path id="Path_1636" data-name="Path 1636" d="M512.608,125.421a.466.466,0,1,1,.466-.466h0a.5.5,0,0,1-.466.466h0m1.429-.87a1.629,1.629,0,0,0-1.3-1.056,1.477,1.477,0,0,0-1.149.652,3.205,3.205,0,0,0-.373,2.019,12.731,12.731,0,0,0,1.553.062c-.186.808-1.118.932-1.864.839,0,.062.031.217.031.28a5.149,5.149,0,0,0,1.18.342,2.215,2.215,0,0,0,1.926-3.137" transform="translate(-475.917 -85.823)" fill="#275c86"/>
      <path id="Path_1637" data-name="Path 1637" d="M484.73,120.462h-1.087L486,123.04h-2.112v-.155a.859.859,0,0,0-.031-.28v-.124a1.276,1.276,0,0,0-1.273-1.118h-2.8a5.56,5.56,0,0,1-.435-.4,17.093,17.093,0,0,1-1.056,1.553h.932a3.3,3.3,0,0,1,.777.28h2.765v.28h-4.318v1.118h.808c2.361-.124,5.436-.124,7.828-.124l.311.4h1.056l-3.262-3.852a.661.661,0,0,0-.466-.217" transform="translate(-453.425 -83.687)" fill="#275c86"/>
      <path id="Path_1638" data-name="Path 1638" d="M511.505,67.7h-.87v-.559l.249-.28h.373l.249.28Zm1.211-.714a2.363,2.363,0,0,0-.373-.59c.124-.28.435-.5.4-.839V62.608l.186-.093.124-.062h.031l.093-.031c-.155-.124-.28-.249-.435-.373l-.342-.342-.248-.248-.186-.186a3.718,3.718,0,0,1-.342-.373v4.193a1.39,1.39,0,0,1-.124.621h-.528a3.664,3.664,0,0,1-.124-.621V60.9a3.718,3.718,0,0,0-.342.373l-.186.186-.249.248a3.543,3.543,0,0,1-.342.342,5.415,5.415,0,0,1-.435.373l.093.031h.031l.124.062.186.093v2.951c-.031.342.28.559.4.839a2.367,2.367,0,0,0-.373.59c-.062.621,0,1.242-.031,1.895h3.044c-.031-.652,0-1.274-.062-1.895" transform="translate(-474.814 -42.625)" fill="#275c86"/>
      <path id="Path_1639" data-name="Path 1639" d="M502.2,63.392c-.062-.373.311-.59.528-.87a2.455,2.455,0,0,1-1.025-.839,2.185,2.185,0,0,0-.621-.683c0,2.64-.031,5.312.031,7.921h1.118c-.031-1.833-.062-3.665-.031-5.529" transform="translate(-469.134 -42.694)" fill="#275c86"/>
      <path id="Path_1640" data-name="Path 1640" d="M469.409,67.334h0c.062-.59.528-.559.528-.559v.652h-.528v-.093h0m8.138,1.149c.031-1.864-.031-3.945,0-5.809-.062-.342.249-.559.466-.745-.652-.311-.963-1.025-1.553-1.429v6.865c-1.833,0-3.634,0-5.467.031.031-1.18,0-2.392,0-3.6a16.31,16.31,0,0,1-1.522,1.025c.155.124.28.28.435.4,0,.186-.031.373-.031.559-.4.186-.87.28-1.118.652a3.683,3.683,0,0,0-.28,2.05" transform="translate(-446.636 -42.349)" fill="#275c86"/>
      <path id="Path_1641" data-name="Path 1641" d="M504.9,96.165h-.839v-.559l.249-.28h.373l.249.28-.031.559Zm1.118-.808a2.363,2.363,0,0,0-.373-.59c.124-.28.435-.5.4-.839v-2.92l.186-.093.124-.062.031-.031.093-.031a4.779,4.779,0,0,1-.4-.373l-.342-.342-.248-.248-.186-.186a3.543,3.543,0,0,0-.342-.342v1.4a6.755,6.755,0,0,1-.031.808v1.118a7.02,7.02,0,0,1,.031.808,1.391,1.391,0,0,1-.124.621.161.161,0,0,0-.124.062h0c-.062-.062-.093-.062-.062-.062h-.373a2.008,2.008,0,0,1-.124-.621V89.3l-.342.342-.186.186a.946.946,0,0,1-.249.248c-.093.062-.217.249-.342.342a5.4,5.4,0,0,1-.435.373c.031,0,.062.031.093.031a.03.03,0,0,1,.031.031l.124.062.186.093v2.92c-.031.342.28.559.4.839a2.363,2.363,0,0,0-.373.59c-.062.621,0,1.211-.031,1.988h3.013c0-.777.031-1.4-.031-1.988" transform="translate(-470.189 -62.228)" fill="#275c86"/>
      <path id="Path_1642" data-name="Path 1642" d="M495.587,92.068c-.031-.342.28-.5.5-.683l-.031-.186c-.683-.248-.932-1.056-1.553-1.4,0,2.64.093,5.281.031,7.859h1.087c0-1.864.031-3.727-.031-5.591" transform="translate(-464.595 -62.573)" fill="#275c86"/>
      <path id="Path_1643" data-name="Path 1643" d="M517.3,91.892c-.062-.373.311-.59.528-.87a2.455,2.455,0,0,1-1.025-.839,2.185,2.185,0,0,0-.621-.683c0,2.64-.031,5.312.031,7.921h1.118c-.031-1.833-.031-3.7-.031-5.529" transform="translate(-479.556 -62.366)" fill="#275c86"/>
      <path id="Path_1644" data-name="Path 1644" d="M470.054,96.165h-.528c.031-.683.528-.652.528-.652Zm5.125-6.119a2.721,2.721,0,0,0-.59-.745,5.984,5.984,0,0,0-.031.745c.062,2.081-.031,4.131,0,6.212-.466,0-.932.031-1.4,0V91.63c-.062-.342.248-.528.435-.745a11.523,11.523,0,0,1-1.553-1.46c.062,2.3.031,4.6,0,6.9h-.87v-3.6a12.652,12.652,0,0,1-1.491,1.025,1.026,1.026,0,0,1,.4.994,2.067,2.067,0,0,0-1.18.683,3.365,3.365,0,0,0-.248,1.926h6.958l.093-.093c-.031-1.429-.093-2.858,0-4.287a8.308,8.308,0,0,1,.031-1.522,2.473,2.473,0,0,1,.466-.528,2.481,2.481,0,0,1-.932-.745" transform="translate(-446.75 -62.228)" fill="#275c86"/>
      <path id="Path_1645" data-name="Path 1645" d="M419.6,49.365a25.1,25.1,0,0,1,4.318-6.865,2.24,2.24,0,0,1,.777.652,12.183,12.183,0,0,0-1.211,1.553c-.683.808-1.149,1.8-1.771,2.671-.28.528-.559,1.087-.808,1.615.342.186.9.4,1.118-.062a19.725,19.725,0,0,1,2.7-4.256,2.971,2.971,0,0,1,.714-.808,5.824,5.824,0,0,0,.621,1.646c-.311.031-.683-.093-.932.124a25.629,25.629,0,0,0-2.485,4.038.885.885,0,0,1-1.056.466c-.714.031-1.3-.5-1.988-.777" transform="translate(-412.881 -29.924)" fill="#275c86"/>
      <path id="Path_1646" data-name="Path 1646" d="M446.616,18.99c.5-.217,1.025-.4,1.553-.59.5.87,0,1.8-.342,2.609.808.714,1.988,1.087,2.392,2.205.373.994-.5,1.833-.714,2.7-1.274-1.025-2.671-1.895-3.976-2.858-.28-.248-.59.186-.9.217a2.958,2.958,0,0,1-.652-.59l-.155.093a9.17,9.17,0,0,1,1.677-.994c.59.217.932.808,1.491,1.087.746.4,1.336,1.211,2.3,1.211a1.977,1.977,0,0,0-.435-1.056,14.044,14.044,0,0,0-2.392-1.615c.155-.5.559-.87.59-1.429a23.2,23.2,0,0,0-3.168,1.584c-.87.435-1.615,1.087-2.485,1.615-.311.217-.59.559-.9.777-.652.435-1.149,1.118-1.8,1.553-.124-.311-.528-.683-.373-1.025a25.832,25.832,0,0,1,5.715-4.256,21.962,21.962,0,0,1,2.578-1.242" transform="translate(-425.804 -13.275)" fill="#275c86"/>
      <path id="Path_1647" data-name="Path 1647" d="M453.738,146.818c.311-.342.373-.932.808-1.118.217.714.311,1.46.528,2.205a2.734,2.734,0,0,0-.839.311c-.87,1.4-1.8,2.827-2.64,4.224-.311.093-.621-.186-.87-.311s-.062-.4.031-.559a17.334,17.334,0,0,0,1.336-2.205c.621-.839,1.025-1.739,1.646-2.547" transform="translate(-434.298 -101.179)" fill="#275c86"/>
      <path id="Path_1648" data-name="Path 1648" d="M413.379,70.264a.714.714,0,1,1-.714.714.7.7,0,0,1,.714-.714h0m11.245,20.377-.186.031c-1.087,1.833-2.33,3.541-3.386,5.374a.751.751,0,0,1-.59-.311,23.262,23.262,0,0,1-2.143-2.143,23.246,23.246,0,0,1,2.143-1.677c-.373-.28-.808-.466-1.18-.745-.311.745-1.056,1.087-1.615,1.584a11.131,11.131,0,0,1-1.615-2.33c.777-.373,1.429-.932,2.236-1.3v-.186l-.932-.839a4.555,4.555,0,0,1-1.926,1.367c-.466-.683-.683-1.491-1.149-2.174l.155-.186c.808-.28,1.615-.683,2.423-1.056a3.678,3.678,0,0,1-.932-1.025,4.315,4.315,0,0,1-2.05,1.149,22.507,22.507,0,0,1-1.46-5.9,11.171,11.171,0,0,1,2.578,1.118c-.062-.435-.062-.87-.155-1.3a14.834,14.834,0,0,0-1.771-.621,8.118,8.118,0,0,1,1.677-.745,11.04,11.04,0,0,0-.093-1.429,11.591,11.591,0,0,0-1.18.87l-1.211.683a13.9,13.9,0,0,1-.062-2.547,37.6,37.6,0,0,1,.435-3.759,2.909,2.909,0,0,0,1.957-.435c.373-.342.808-.59,1.211-.932a3.806,3.806,0,0,0-.59-.062,2.953,2.953,0,0,0-.963-1.46,1.629,1.629,0,0,0-1.18-.311.947.947,0,0,0-.5.249,1.925,1.925,0,0,0-.621,1.3l-.062-.031a1.473,1.473,0,0,1-.808-.621c-.311-.559-.093-1.211-.093-1.833a2.163,2.163,0,0,0-.683,2.33c.186.652.777.994,1.273,1.367a25.439,25.439,0,0,0,9.847,25.533l.124-.186c.031-.031.031-.062.062-.093l.217-.342c.87-1.367,1.8-2.765,2.671-4.162.155-.248.5-.248.776-.373-.124-.652-.28-1.3-.435-1.957" transform="translate(-406.38 -47.841)" fill="#275c86"/>
      <path id="Path_1649" data-name="Path 1649" d="M556.225,112.84c-.342.435.093.9.466,1.149.248-.093.59-.031.808-.28.248-.186.217-.59.155-.87a.789.789,0,0,0-1.087-.342.9.9,0,0,0-.342.342m-5.125-4.473c.435-.466.9-.9,1.367-1.367.373.155.652.5,1.087.466,1.8,0,3.572.217,5.374.217a16.773,16.773,0,0,1-.963,4.1,1.719,1.719,0,0,1,.683,1.118,1.777,1.777,0,0,1-.621,1.615,2.53,2.53,0,0,1-1.336.435c-.342.745-.745,1.46-1.18,2.205.5.435,1.211.808,1.3,1.553a1.357,1.357,0,0,1-.839,1.491c-.031-.373,0-.714,0-1.087a6.414,6.414,0,0,0-2.05-1.3,2.182,2.182,0,0,0-1.087-.186,8.881,8.881,0,0,0-.093-1.8,10.708,10.708,0,0,0,1.677.87,10.437,10.437,0,0,0,1.242-2.143,1.938,1.938,0,0,1-.217-2.485,2.071,2.071,0,0,1,1.522-.808,23.658,23.658,0,0,0,.683-2.547,29.5,29.5,0,0,0-3.293-.311c-1.056-.031-2.143-.062-3.262-.031" transform="translate(-503.69 -74.456)" fill="#275c86"/>
      <path id="Path_1650" data-name="Path 1650" d="M465.646,153.4c.435-.87,1.491-.839,2.268-1.3a13.467,13.467,0,0,0,.435,1.864c.342.994.466,2.081.808,3.106.217.062.59-.062.745.186a4.952,4.952,0,0,1,.186.932c-.621-.062-1.274-.217-1.926-.342a21.15,21.15,0,0,0-1.025-4.131l-.342-.031a3.366,3.366,0,0,0,.062,2.516c.124.466.248.932.4,1.367a5.81,5.81,0,0,0-1.243.4v.249a22.123,22.123,0,0,0,4.721,1.056,25.95,25.95,0,0,0,5.156.062c-.062.373-.186.714-.28,1.087a26,26,0,0,1-5.809-.217A25.084,25.084,0,0,1,464,158.654c.155-.963,1.149-1.367,1.926-1.864-.217-1.087-.777-2.268-.28-3.386" transform="translate(-443.556 -105.591)" fill="#275c86"/>
      <path id="Path_1651" data-name="Path 1651" d="M552.1,100.684a17.758,17.758,0,0,1,1.8-1.584c.28.155.466.5.808.528,1.739.062,3.448.031,5.187.217,0,.342-.031.683-.062,1.025-2.578-.031-5.156-.124-7.734-.186" transform="translate(-504.38 -68.983)" fill="#275c86"/>
      <path id="Path_1652" data-name="Path 1652" d="M519.578,144.339a1.368,1.368,0,0,1,1.553.186,3.122,3.122,0,0,1,1.056,1.056,24.612,24.612,0,0,1-2.733,2.951,26.964,26.964,0,0,1-5.312,3.665,22.852,22.852,0,0,1-3.386,1.4,23.213,23.213,0,0,1-3.2.87c.031.59.249,1.274-.124,1.833a1.437,1.437,0,0,1-1.274.311,1.937,1.937,0,0,0,.435-.559,5.312,5.312,0,0,0-.249-1.957,2.843,2.843,0,0,0-.745-1.242,6.547,6.547,0,0,0,1.242-1.211c.155.59.342,1.211.466,1.864a29.644,29.644,0,0,0,4.287-1.3,24.387,24.387,0,0,0,8.294-5.622,7.279,7.279,0,0,1,.994-.963c-.249-.217-.559-.559-.932-.373-.28.217-.559.466-.839.714a24.221,24.221,0,0,1-5.4,4.131c-.59.28-1.211.59-1.833.9-.746.373-1.584.528-2.361.9a4.542,4.542,0,0,1-.621.155c.528-.683.839-1.491,1.3-2.236.342-.559.559-1.18.9-1.739a9.894,9.894,0,0,1-.652,2.454,21.849,21.849,0,0,0,7.331-4.659c.714-.5,1.056-1.242,1.8-1.522" transform="translate(-472.288 -100.129)" fill="#275c86"/>
      <path id="Path_1653" data-name="Path 1653" d="M504.942,161.421a.621.621,0,1,0-.621.621.623.623,0,0,0,.621-.621" transform="translate(-470.945 -111.589)" fill="#275c86"/>
      <path id="Path_1654" data-name="Path 1654" d="M514.636,18.4a11.122,11.122,0,0,1,1.087.342c-.373,1.46-.932,2.92-1.336,4.38-.217.963-.683,1.864-.9,2.8-.373-.683-.714-1.367-1.087-2.081.248-.217.59-.373.714-.714.249-.559.342-1.18.559-1.771a16.426,16.426,0,0,0,.963-2.951" transform="translate(-476.953 -13.275)" fill="#275c86"/>
      <path id="Path_1655" data-name="Path 1655" d="M522.481,21.3a11.946,11.946,0,0,1,2.143.963,25.388,25.388,0,0,1,9.07,8.138,25.767,25.767,0,0,1,1.46,2.392,27.822,27.822,0,0,1,1.833,4.442,22.707,22.707,0,0,1,1.087,6.772c-.5,0-.994.031-1.491.031a2.058,2.058,0,0,0,.342-1.118,18.445,18.445,0,0,0-.714-4.69c-.311-.808-.528-1.615-.839-2.454A26.594,26.594,0,0,0,532.08,29.9l-.155-.062c-.155.217-.311.435-.435.652a1.421,1.421,0,0,0,.466.87,23.517,23.517,0,0,1,4.1,11.369c-.621-.435-1.118-1.025-1.74-1.491-.466-.342-.87-.714-1.367-1.056a3.714,3.714,0,0,1-.342-.373,8.6,8.6,0,0,1,2.3,1.211,21.368,21.368,0,0,0-1.242-4.38,19.652,19.652,0,0,0-1.491-3.168,26.354,26.354,0,0,1-1.46-2.423,1.731,1.731,0,0,1,.745-2.019,9.95,9.95,0,0,0-1.553-1.677c-.435.683-1.4,1.087-1.3,2.05a6.628,6.628,0,0,0-1.522-.466c.652-.808,1.4-1.553,2.081-2.392a26.328,26.328,0,0,0-2.485-1.926c-.5.652-1.18,1.3-1.087,2.236a4.684,4.684,0,0,0-1.429-.4c.5-.87,1.118-1.615,1.646-2.454a18.932,18.932,0,0,0-2.485-1.3c-.248,1.18-.714,2.3-.994,3.479-.186.963-.559,1.926-.808,2.858H521.3c-.186-.621-.714-1.118-.9-1.771a2.643,2.643,0,0,0,.528-.186,8.958,8.958,0,0,0,.559-1.895c.311-1.274.621-2.578.994-3.883" transform="translate(-482.527 -15.274)" fill="#275c86"/>
      <path id="Path_1656" data-name="Path 1656" d="M543.043,23.421a.621.621,0,1,0-.621.621.623.623,0,0,0,.621-.621" transform="translate(-497.241 -16.308)" fill="#275c86"/>
      <path id="Path_1657" data-name="Path 1657" d="M539.643,50.021a.621.621,0,1,0-.621.621.6.6,0,0,0,.621-.621" transform="translate(-494.895 -34.682)" fill="#275c86"/>
      <path id="Path_1658" data-name="Path 1658" d="M428.03,61.022a29.172,29.172,0,0,1-3.749-58.1,3.719,3.719,0,0,0,2.014,2.851,3.721,3.721,0,0,0-1.611,5.051,3.68,3.68,0,0,0,1.611,1.611,3.818,3.818,0,0,0-2.045,3.347v.093a16.45,16.45,0,1,0,7.5,0v-.031A3.759,3.759,0,0,0,429.7,12.5a3.721,3.721,0,0,0,1.611-5.051A3.679,3.679,0,0,0,429.7,5.835a3.74,3.74,0,0,0,2.014-2.851,29.138,29.138,0,0,1-3.687,58.038M425.118,9.182a2.912,2.912,0,1,1,2.912,2.913h0a2.909,2.909,0,0,1-2.912-2.913m2.912,6.259a18.474,18.474,0,0,0-2.912.248,2.9,2.9,0,0,1,5.793,0,17.783,17.783,0,0,0-2.881-.248m-2.819,1.085a15.674,15.674,0,0,1,5.639,0,6.134,6.134,0,0,1,.806.186,15.614,15.614,0,1,1-7.312,0c.31-.062.589-.124.867-.186M428.03,2.737c.96,0,1.952.062,2.881.155a2.905,2.905,0,0,1-5.762,0c.929-.093,1.89-.155,2.881-.155m3.718-.62c-.279-.031-.558-.062-.867-.093-.929-.093-1.921-.124-2.881-.124s-1.921.031-2.881.124c-.279.031-.558.062-.867.093a29.968,29.968,0,1,0,7.5,0" transform="translate(-397.968 -1.9)" fill="#275c86"/>
    </g>
  </g>
</svg>
