<?xml version="1.0" encoding="UTF-8"?>
<svg xmlns="http://www.w3.org/2000/svg" version="1.1" xmlns:xlink="http://www.w3.org/1999/xlink" viewBox="0 0 679 282.3">
  <defs>
    <style>
      .cls-1 {
        fill: #fff;
      }

      .cls-2 {
        fill: #6dcff6;
      }

      .cls-3 {
        fill: #24489a;
        font-size: 84px;
      }

      .cls-3, .cls-4 {
        font-family: Almarai-Bold, Almarai;
        font-weight: 700;
      }

      .cls-4 {
        fill: #25afe5;
        font-size: 71px;
      }

      .cls-5 {
        fill: url(#linear-gradient);
      }
    </style>
    <linearGradient id="linear-gradient" x1="3.9" y1="141" x2="277.2" y2="141" gradientUnits="userSpaceOnUse">
      <stop offset="0" stop-color="#25afe5"/>
      <stop offset="1" stop-color="#24489a"/>
    </linearGradient>
  </defs>
  <!-- Generator: Adobe Illustrator 28.6.0, SVG Export Plug-In . SVG Version: 1.2.0 Build 709)  -->
  <g>
    <g id="Layer_1">
      <g>
        <g>
          <text class="cls-3" transform="translate(316.8 132.3)"><tspan x="0" y="0">الاتحـــــــــاد</tspan></text>
          <text class="cls-4" transform="translate(318.7 211.1)"><tspan x="0" y="0">ALETIHAD</tspan></text>
        </g>
        <g>
          <polygon class="cls-5" points="197.2 1.1 84 1.1 3.9 83.1 3.9 198.9 84 280.9 197.2 280.9 277.2 198.9 277.2 83.1 197.2 1.1"/>
          <rect class="cls-1" x="220.1" y="83.1" width="29.1" height="116.6"/>
        </g>
        <path class="cls-2" d="M80.5,218.5v-48h116.7v-58.3h-116.7v-48h116.7V1.3c-2.3-.1-4.6-.2-7-.2C113,1.1,50.4,63.7,50.4,141s62.6,139.9,139.9,139.9,4.6,0,7-.2v-62.2h-116.7Z"/>
      </g>
    </g>
  </g>
</svg>