<?xml version="1.0" encoding="utf-8"?>
<!-- Generator: Adobe Illustrator 24.0.2, SVG Export Plug-In . SVG Version: 6.00 Build 0)  -->
<svg version="1.1" id="Layer_1" xmlns="http://www.w3.org/2000/svg" xmlns:xlink="http://www.w3.org/1999/xlink" x="0px" y="0px"
	 viewBox="0 0 144 101" style="enable-background:new 0 0 144 101;" xml:space="preserve">
<style type="text/css">
	.st0{fill:#1A1A1A;}
	.st1{fill:#8C8C8C;}
	.st2{fill:url(#SVGID_1_);}
	.st3{fill:#1A1A1A;stroke:#F2F2F2;stroke-width:0.4353;}
	.st4{fill:#8C8C8C;stroke:#F2F2F2;stroke-width:0.5804;}
	.st5{fill:#1A1A1A;stroke:#F2F2F2;stroke-width:0.5804;}
	.st6{fill:#C2C2C2;stroke:#F2F2F2;stroke-width:0.4353;}
	.st7{fill:url(#SVGID_2_);}
	.st8{fill:none;stroke:#F2F2F2;stroke-width:0.4353;}
	.st9{fill:none;stroke:#1A1A1A;stroke-width:0.5804;}
	.st10{fill:url(#SVGID_3_);}
	.st11{fill:url(#SVGID_4_);}
	.st12{fill:url(#SVGID_5_);}
	.st13{fill:url(#SVGID_6_);}
	.st14{fill:url(#SVGID_7_);}
	.st15{fill:url(#SVGID_8_);}
	.st16{fill:none;stroke:#F2F2F2;stroke-width:0.5804;}
	.st17{fill:none;stroke:#F2F2F2;stroke-width:0.5804;stroke-linecap:square;stroke-linejoin:bevel;}
	.st18{fill:none;stroke:#1A1A1A;stroke-width:0.5804;stroke-linecap:square;}
	.st19{fill:none;stroke:#F2F2F2;stroke-width:0.4353;stroke-linecap:square;stroke-linejoin:bevel;}
</style>
<polygon class="st0" points="92.3,40.9 99.4,38.5 83.2,50.4 77,52.3 "/>
<polygon class="st1" points="135.1,53.5 131.2,55.4 77,52.3 83.2,50.4 "/>
<polygon class="st0" points="131.1,59.6 43.9,62.4 51,60 129.9,57.4 "/>
<polygon class="st1" points="43.9,62.4 51,60 66.4,48.6 60.2,50.4 "/>
<polygon class="st0" points="66.4,48.6 60.2,50.4 8.8,47.4 12.7,45.5 "/>
<polygon class="st1" points="12.9,41.4 14.1,43.5 12.7,45.5 8.8,47.4 "/>
<linearGradient id="SVGID_1_" gradientUnits="userSpaceOnUse" x1="12.8505" y1="60.9859" x2="99.3629" y2="60.9859" gradientTransform="matrix(1 0 0 -1 0 102)">
	<stop  offset="0" style="stop-color:#8C8C8C"/>
	<stop  offset="1" style="stop-color:#4D4D4D"/>
</linearGradient>
<polyline class="st2" points="12.9,41.4 14.1,43.5 92.3,40.9 99.4,38.5 "/>
<polyline class="st3" points="83.2,50.4 77,52.3 92.3,40.9 "/>
<polyline class="st4" points="135.1,53.5 131.2,55.4 77,52.3 "/>
<polyline class="st5" points="43.9,62.4 51,60 129.9,57.4 131.1,59.6 "/>
<polyline class="st0" points="131.1,59.6 129.9,57.4 131.2,55.4 135.1,53.5 "/>
<polyline class="st6" points="43.9,62.4 51,60 66.4,48.6 60.2,50.4 "/>
<linearGradient id="SVGID_2_" gradientUnits="userSpaceOnUse" x1="34.5987" y1="82.9599" x2="109.3314" y2="20.2518" gradientTransform="matrix(1 0 0 -1 0 102)">
	<stop  offset="0" style="stop-color:#E0E0E0"/>
	<stop  offset="0.15" style="stop-color:#939393"/>
	<stop  offset="0.1697" style="stop-color:#9F9F9F"/>
	<stop  offset="0.2354" style="stop-color:#C1C1C1"/>
	<stop  offset="0.3024" style="stop-color:#DCDCDC"/>
	<stop  offset="0.3701" style="stop-color:#F0F0F0"/>
	<stop  offset="0.4391" style="stop-color:#FBFBFB"/>
	<stop  offset="0.5112" style="stop-color:#FFFFFF"/>
	<stop  offset="0.5764" style="stop-color:#FBFBFB"/>
	<stop  offset="0.6393" style="stop-color:#F0F0F0"/>
	<stop  offset="0.7014" style="stop-color:#DCDCDC"/>
	<stop  offset="0.763" style="stop-color:#C1C1C1"/>
	<stop  offset="0.8235" style="stop-color:#9E9E9E"/>
	<stop  offset="0.85" style="stop-color:#8C8C8C"/>
	<stop  offset="1" style="stop-color:#FAFAFA"/>
</linearGradient>
<path class="st7" d="M14.1,43.5c-0.4,0.5-0.7,0.9-1.3,1.9c6.6,0.4,53.6,3.1,53.6,3.1s-10.7,7.8-15.4,11.3c11.9-0.4,76.9-2.6,79-2.6
	c0.4-0.5,0.7-0.9,1.3-1.9C124.6,55,77,52.3,77,52.3s10.7-7.8,15.4-11.3C80.6,41.4,16.1,43.5,14.1,43.5z"/>
<polyline class="st3" points="8.8,47.4 12.7,45.5 66.4,48.6 59.5,50.7 "/>
<polyline class="st8" points="12.9,41.4 14.1,43.5 12.7,45.5 8.8,47.4 "/>
<polyline class="st8" points="12.9,41.4 14.1,43.5 92.3,40.9 99.4,38.5 "/>
<path class="st9" d="M99.4,38.4l-86.6,2.8l-4,6.3c0,0,50.7,3,51.3,3c-0.4,0.3-16.2,12-16.2,12l87.6-2.8l4.2-6.3c0,0-51.3-3-51.8-3
	c0.4-0.3,16.2-12,16.2-12H99.4z"/>
<linearGradient id="SVGID_3_" gradientUnits="userSpaceOnUse" x1="22.3885" y1="28.4177" x2="120.6873" y2="28.4177" gradientTransform="matrix(1 0 0 -1 0 102)">
	<stop  offset="5.618000e-03" style="stop-color:#1A1A1A"/>
	<stop  offset="1.020803e-02" style="stop-color:#282828"/>
	<stop  offset="2.876481e-02" style="stop-color:#5D5D5D"/>
	<stop  offset="4.608424e-02" style="stop-color:#888888"/>
	<stop  offset="6.164820e-02" style="stop-color:#A6A6A6"/>
	<stop  offset="7.489742e-02" style="stop-color:#B9B9B9"/>
	<stop  offset="8.427000e-02" style="stop-color:#BFBFBF"/>
	<stop  offset="0.1434" style="stop-color:#999999"/>
	<stop  offset="0.2081" style="stop-color:#777777"/>
	<stop  offset="0.2798" style="stop-color:#5A5A5A"/>
	<stop  offset="0.3591" style="stop-color:#424242"/>
	<stop  offset="0.449" style="stop-color:#303030"/>
	<stop  offset="0.5559" style="stop-color:#232323"/>
	<stop  offset="0.6964" style="stop-color:#1C1C1C"/>
	<stop  offset="1" style="stop-color:#1A1A1A"/>
</linearGradient>
<path class="st10" d="M118.7,59c-1.2,6.9-4,13.6-8.5,19.6c-15.5,21.1-45.2,25.5-66.3,10C30.3,78.6,23.6,62.7,24.7,47l-2.3,1.2
	c-0.7,15.9,6.3,32,20.1,42.2c22,16.2,53.2,11.6,69.4-10.5c4.6-6.2,7.4-13,8.8-20L118.7,59z"/>
<linearGradient id="SVGID_4_" gradientUnits="userSpaceOnUse" x1="23.2428" y1="74.4182" x2="121.5416" y2="74.4182" gradientTransform="matrix(1 0 0 -1 0 102)">
	<stop  offset="0" style="stop-color:#E0E0E0"/>
	<stop  offset="0.1159" style="stop-color:#DBDBDB"/>
	<stop  offset="0.2603" style="stop-color:#CCCCCC"/>
	<stop  offset="0.4197" style="stop-color:#B2B2B2"/>
	<stop  offset="0.5899" style="stop-color:#8F8F8F"/>
	<stop  offset="0.767" style="stop-color:#626262"/>
	<stop  offset="0.8427" style="stop-color:#4D4D4D"/>
	<stop  offset="1" style="stop-color:#1A1A1A"/>
</linearGradient>
<path class="st11" d="M121.5,52.7c0.7-15.9-6.3-32-20.1-42.1C79.4-5.8,48.3-1,32,21.1c-4.6,6.1-7.4,13-8.8,20l2,1.2
	c1.2-7,4-13.8,8.5-19.8C49.3,1.3,79.1-3.2,100.2,12.3c13.6,10,20.2,26.2,19,42L121.5,52.7z"/>
<linearGradient id="SVGID_5_" gradientUnits="userSpaceOnUse" x1="24.6132" y1="29.5483" x2="118.6317" y2="29.5483" gradientTransform="matrix(1 0 0 -1 0 102)">
	<stop  offset="0" style="stop-color:#FFFFFF"/>
	<stop  offset="4.429979e-04" style="stop-color:#ECECEC"/>
	<stop  offset="1.028110e-03" style="stop-color:#DBDBDB"/>
	<stop  offset="1.756940e-03" style="stop-color:#D0D0D0"/>
	<stop  offset="2.779293e-03" style="stop-color:#C9C9C9"/>
	<stop  offset="5.618000e-03" style="stop-color:#C7C7C7"/>
	<stop  offset="0.1789" style="stop-color:#C9C9C9"/>
	<stop  offset="0.28" style="stop-color:#D2D2D2"/>
	<stop  offset="0.3624" style="stop-color:#E0E0E0"/>
	<stop  offset="0.4345" style="stop-color:#F4F4F4"/>
	<stop  offset="0.4663" style="stop-color:#FFFFFF"/>
	<stop  offset="0.6419" style="stop-color:#FDFDFD"/>
	<stop  offset="0.734" style="stop-color:#F5F5F5"/>
	<stop  offset="0.8066" style="stop-color:#E7E7E7"/>
	<stop  offset="0.8692" style="stop-color:#D4D4D4"/>
	<stop  offset="0.9252" style="stop-color:#BCBCBC"/>
	<stop  offset="0.9758" style="stop-color:#9D9D9D"/>
	<stop  offset="1" style="stop-color:#8C8C8C"/>
</linearGradient>
<path class="st12" d="M115.6,59.3c-2.7,13.1-11.2,25-24.2,31.2C69.4,101.1,42.7,92,32,69.8c-3.5-7.2-4.9-14.8-4.3-22.3l-3-0.5
	c-0.5,8.1,0.8,16.3,4.6,24.2c11.3,23.5,39.8,33.3,63.3,22c14-6.9,23.3-19.8,25.9-34.1L115.6,59.3z"/>
<linearGradient id="SVGID_6_" gradientUnits="userSpaceOnUse" x1="36.8049" y1="87.7358" x2="119.251" y2="47.7916" gradientTransform="matrix(1 0 0 -1 0 102)">
	<stop  offset="5.618000e-03" style="stop-color:#C7C7C7"/>
	<stop  offset="2.522376e-02" style="stop-color:#D2D2D2"/>
	<stop  offset="5.524578e-02" style="stop-color:#DDDDDD"/>
	<stop  offset="8.988800e-02" style="stop-color:#E0E0E0"/>
	<stop  offset="9.816569e-02" style="stop-color:#E9E9E9"/>
	<stop  offset="0.1168" style="stop-color:#F6F6F6"/>
	<stop  offset="0.1417" style="stop-color:#FDFDFD"/>
	<stop  offset="0.1966" style="stop-color:#FFFFFF"/>
	<stop  offset="0.7135" style="stop-color:#8C8C8C"/>
	<stop  offset="1" style="stop-color:#8C8C8C"/>
</linearGradient>
<path class="st13" d="M119.2,54.3c0.7-8.1-0.8-16.6-4.6-24.4C103.3,6.3,74.8-3.6,51.3,7.7c-14.2,6.9-23.5,20-26,34.4l3,0.3
	c2.4-13.5,11.1-25.6,24.3-32c22-10.7,48.7-1.5,59.4,20.6c3.5,7.3,4.9,15.3,4.3,22.8L119.2,54.3z"/>
<linearGradient id="SVGID_7_" gradientUnits="userSpaceOnUse" x1="116.5034" y1="72.053" x2="28.2365" y2="72.053" gradientTransform="matrix(1 0 0 -1 0 102)">
	<stop  offset="0" style="stop-color:#E0E0E0"/>
	<stop  offset="7.940478e-04" style="stop-color:#E0E0E0"/>
	<stop  offset="5.618000e-03" style="stop-color:#E0E0E0"/>
	<stop  offset="0.1828" style="stop-color:#C2C2C2"/>
	<stop  offset="0.5699" style="stop-color:#757575"/>
	<stop  offset="1" style="stop-color:#1A1A1A"/>
</linearGradient>
<path class="st14" d="M116.4,53.9c0.1-1.1,0.1-2.3,0.1-3.4C116.5,26,96.5,6,72,6C50.2,6,32,21.8,28.2,42.4l2.6-1.8
	C35.3,22.2,52,8.2,72,8.2c23.3,0,42.2,18.9,42.2,42.2c0,0.8,0,1.6-0.1,2.4L116.4,53.9z"/>
<linearGradient id="SVGID_8_" gradientUnits="userSpaceOnUse" x1="115.5798" y1="30.8213" x2="27.5828" y2="30.8213" gradientTransform="matrix(1 0 0 -1 0 102)">
	<stop  offset="0" style="stop-color:#1A1A1A"/>
	<stop  offset="1.717474e-02" style="stop-color:#303030"/>
	<stop  offset="6.125207e-02" style="stop-color:#656565"/>
	<stop  offset="0.1044" style="stop-color:#929292"/>
	<stop  offset="0.1458" style="stop-color:#B4B4B4"/>
	<stop  offset="0.1848" style="stop-color:#CCCCCC"/>
	<stop  offset="0.2205" style="stop-color:#DBDBDB"/>
	<stop  offset="0.25" style="stop-color:#E0E0E0"/>
	<stop  offset="0.3598" style="stop-color:#DDDDDD"/>
	<stop  offset="0.4665" style="stop-color:#D1D1D1"/>
	<stop  offset="0.572" style="stop-color:#BDBDBD"/>
	<stop  offset="0.6768" style="stop-color:#A2A2A2"/>
	<stop  offset="0.7811" style="stop-color:#7E7E7E"/>
	<stop  offset="0.885" style="stop-color:#535353"/>
	<stop  offset="0.9868" style="stop-color:#212121"/>
	<stop  offset="1" style="stop-color:#1A1A1A"/>
</linearGradient>
<path class="st15" d="M113.1,60.2C108.7,78.9,91.9,92.8,72,92.8c-23.3,0-42.2-18.9-42.2-42.2c0-0.7,0-1.3,0-2l-2.2-0.9
	c0,0.9-0.1,1.9-0.1,2.8c0,24.6,20,44.4,44.4,44.4c21.5,0,39.5-15.4,43.6-35.6L113.1,60.2z"/>
<path class="st16" d="M119.2,54.3c0.1-1.2,0.1-2.6,0.1-3.8C119.3,24.3,98.1,3,72,3C48.6,3,29.2,20,25.3,42.2"/>
<path class="st16" d="M24.7,47c-0.1,1.1-0.1,2.3-0.1,3.5c0,26.2,21.3,47.4,47.4,47.4c23.2,0,42.6-16.7,46.7-38.9"/>
<path class="st17" d="M28.2,42.4C32,21.6,50.2,6,72,6c24.6,0,44.5,20,44.5,44.5c0,1.2,0,2.3-0.1,3.4"/>
<path class="st16" d="M27.6,47.7c0,0.9-0.1,1.9-0.1,2.8c0,24.6,20,44.4,44.4,44.4c21.5,0,39.5-15.4,43.6-35.6"/>
<path class="st9" d="M22.4,48.2l2.3-1.2l2.8,0.7l2.2,0.8c0,0.7,0,1.3,0,2c0,23.3,18.9,42.2,42.2,42.2c20,0,36.7-13.9,41.2-32.5
	l2.4-0.9l3.1-0.3l2.2,0.8"/>
<path class="st18" d="M120.7,60c-4.5,22.8-24.6,40.1-48.7,40.1c-27.4,0-49.7-22.3-49.7-49.7c0-0.7,0-1.3,0-2.2"/>
<polyline class="st8" points="114.1,52.8 116.2,53.9 119.2,54.3 121.6,52.6 "/>
<path class="st9" d="M114.2,52.1c0,0.3,0,0.5,0,0.8"/>
<polyline class="st19" points="30.8,40.8 28.4,42.6 25.3,42.3 23.2,40.9 "/>
<path class="st9" d="M30.8,40.8C35.3,22.2,52,8.2,72,8.2c23.3,0,42.2,18.9,42.2,42.2c0,0.5,0,1.1,0,1.6"/>
<path class="st18" d="M23.2,40.9C27.7,18.1,47.8,0.9,72,0.9c27.4,0,49.7,22.3,49.7,49.7c0,0.7,0,1.3,0,2"/>
</svg>
