<?xml version="1.0" encoding="utf-8"?>
<!-- Generator: Adobe Illustrator 24.1.1, SVG Export Plug-In . SVG Version: 6.00 Build 0)  -->
<svg version="1.1" id="Layer_1" xmlns="http://www.w3.org/2000/svg" xmlns:xlink="http://www.w3.org/1999/xlink" x="0px" y="0px"
	 viewBox="0 0 144 101" style="enable-background:new 0 0 144 101;" xml:space="preserve">
<style type="text/css">
	.st0{fill-rule:evenodd;clip-rule:evenodd;fill:#231F20;}
	.st1{fill-rule:evenodd;clip-rule:evenodd;fill:#FFFFFF;}
</style>
<g id="Layer_1_1_">
</g>
<g>
	<path class="st0" d="M71.6,8.8c12.5-0.2,25.3,1,36,4.5l6.1-3.2c4.7-2.5,6.7,1.4,3.8,3.2l-4.1,2.6c12,4.9,20.2,12.4,20,21.2
		c-0.4,17.3-27.7,30.3-61.7,31c-8.1,0.2-19.4-0.7-25.6-2c-7.9-1.6-1.8-5.8,0-6.9l35.8-22.5c8.6-5.4,6-1.8,3.4,1L71.6,52.1
		c-2.7,2.8-5.1,4.5,2.8,5.3c2.7,0.3,13.8,0.5,23.2-1.7c11.7-2.7,24.6-7.7,27.3-13.8c6.2-14.3-16.1-22.9-16.4-22.8
		c-1.4,0.7-70.2,42.8-70.7,42.9c-3.7,1.1-5.4,1.3-7.9,0.1c-11.4-5.7-18.5-12.4-18.5-21C11.5,24.6,41.5,9.2,71.6,8.8L71.6,8.8z
		 M100.9,17.1c-9.3-2.5-18.8-3-28-2.8c-8.8,0.1-18.1,1.6-27.5,4.9c-5.7,2-11.6,4.2-16.7,8.4C14.5,39,21.9,46.3,29,45.8
		c10.9-0.8,18.7-4,25.8-6.7c7-2.6,12.6-5.3,17.9-7.6C83.6,26.8,91.7,21.8,100.9,17.1L100.9,17.1z"/>
	<path class="st1" d="M33,57.6c2,4,31.6-14.5,47.6-23.6c-14.4,8.7-26.2,17-43.9,25.7C33.3,61.5,31.9,60.5,33,57.6L33,57.6z"/>
	<path class="st1" d="M43.5,52.1c-6.2,3.3-13.3,4.1-17,2.5c-3.8-1.6-11.7-6.1-12.7-11.5s0.6-9.2,7.3-16.1c3.6-3.7,9.9-7.6,17.5-10.7
		c7.6-3.1,16.6-4.5,24.5-5.6c6.7-0.9,12.9-0.8,18.9-0.6c8.2,0.3,16.2,1.5,24.6,3.7l-1.5,1c-7.1-2.1-14.9-3.2-23.3-3.5
		c-6.1-0.2-12.4,0-18.7,0.8c-9.4,1.1-16.8,2.7-23.2,5.3c-6.8,2.7-12.5,6.5-17.5,11c-11.1,10.1-5.9,18.8,6.9,19
		c11.3,0.2,27.9-7.3,44.9-14.8s27.6-15.1,41.5-22.2c0.8-0.4,1.3,0.5,0.6,0.9C92.6,25,67.5,39.2,43.5,52.1L43.5,52.1z"/>
	<path class="st1" d="M112,16.1l-1.3,0.8c7.8,4.2,17.2,7.2,18.1,19.8c0.7,11.1-15.2,18.4-35.6,22.1c-9.2,1.7-17.2,1-23.3,0.7
		c-6.1-0.4-4.9-3.7-2-6.3l16.4-15.7c3.8-3.6,3.3-3.7-1.6-0.6c-12.4,8-24.8,15.8-37.2,23.7c-2.5,1.6-2.6,2.4-0.2,3
		c14.6,3.4,29.9,3.9,48.1,0.9c15.2-2.5,38.8-12.7,39.1-26.8C132.8,26.3,119.9,19.5,112,16.1L112,16.1z"/>
	<path class="st0" d="M84.2,36.2c-13.6,9.2-27.1,20.7-39.4,25.6c15.4,3.3,31.8,4.8,49.2,1.1c33.9-7.3,38.5-20.9,37-29.2
		c2.4,13-15.8,22.6-36.2,26.7c-11.5,2.3-21.8,2.4-31.1,1c-5-0.8-5.4-2.2-2.3-5.2C69.6,48.4,76.6,42.4,84.2,36.2L84.2,36.2z"/>
	<path class="st0" d="M131,84.7c0.2,1,0.8,1.8,1.7,2.4c0.9,0.6,1.9,0.9,3.2,0.9c0.9,0,1.7-0.2,2.4-0.5c0.7-0.3,1.3-0.8,1.7-1.4h3
		c-0.7,1.3-1.6,2.3-2.8,3c-1.2,0.7-2.6,1.1-4.2,1.1c-1.1,0-2.1-0.2-3-0.5c-0.9-0.3-1.7-0.8-2.4-1.4c-0.7-0.6-1.2-1.3-1.6-2
		c-0.4-0.8-0.6-1.6-0.6-2.4c0-0.8,0.2-1.6,0.5-2.4c0.4-0.7,0.9-1.4,1.6-2c0.7-0.7,1.6-1.1,2.5-1.5c0.9-0.3,1.9-0.5,3-0.5
		c1.3,0,2.5,0.2,3.6,0.7c1.1,0.5,2,1.2,2.7,2c0.4,0.5,0.7,1.1,1,1.8c0.2,0.6,0.3,1.4,0.3,2.2v0.3H131L131,84.7z M140.4,82.8
		c-0.3-1-0.9-1.8-1.7-2.3c-0.8-0.5-1.8-0.8-2.9-0.8c-1.2,0-2.2,0.3-3,0.8c-0.8,0.6-1.4,1.3-1.8,2.3H140.4L140.4,82.8z M124,89.9
		V74.1h2.7v15.8H124L124,89.9z M118,89.9v-12h2.7v12H118L118,89.9z M120.7,76.5H118v-2.5h2.7V76.5L120.7,76.5z M104.1,88.4v1.5h-2.8
		V74.1h2.7v5.3c0.7-0.6,1.5-1,2.4-1.3c0.9-0.3,1.8-0.4,2.9-0.4c1.2,0,2.2,0.2,3.1,0.5c0.9,0.3,1.7,0.8,2.5,1.4
		c0.7,0.6,1.3,1.2,1.6,2c0.4,0.8,0.6,1.5,0.6,2.4c0,1.8-0.8,3.3-2.3,4.5c-1.5,1.2-3.4,1.8-5.7,1.8c-1,0-1.9-0.1-2.8-0.4
		C105.6,89.4,104.8,89,104.1,88.4L104.1,88.4z M104,84c0,1.1,0.5,2.1,1.5,2.9c1,0.8,2.2,1.2,3.5,1.2c1.5,0,2.7-0.4,3.7-1.2
		c1-0.8,1.5-1.8,1.5-3c0-1.1-0.5-2.1-1.5-2.9c-1-0.8-2.2-1.2-3.7-1.2c-1.4,0-2.6,0.4-3.6,1.2C104.5,81.8,104,82.8,104,84L104,84z
		 M84.5,83.9c0-0.8,0.2-1.6,0.5-2.4c0.4-0.7,0.9-1.4,1.6-2c0.8-0.6,1.6-1.1,2.6-1.5c1-0.3,1.9-0.5,3-0.5c1.1,0,2.1,0.2,3.1,0.5
		c0.9,0.3,1.8,0.8,2.6,1.4c0.7,0.6,1.3,1.3,1.7,2c0.4,0.8,0.6,1.5,0.6,2.3c0,0.8-0.2,1.6-0.6,2.4c-0.4,0.8-0.9,1.5-1.6,2
		c-0.8,0.7-1.6,1.2-2.6,1.5c-1,0.3-2,0.5-3.1,0.5c-1.1,0-2.1-0.2-3.1-0.5c-0.9-0.3-1.8-0.8-2.5-1.4c-0.7-0.6-1.3-1.3-1.7-2
		C84.7,85.5,84.5,84.7,84.5,83.9L84.5,83.9z M87.3,83.9c0,1.2,0.5,2.2,1.4,3c1,0.8,2.2,1.2,3.6,1.2c1.4,0,2.6-0.4,3.5-1.2
		c1-0.8,1.4-1.8,1.4-3c0-1.2-0.5-2.2-1.4-3c-1-0.8-2.1-1.2-3.6-1.2c-1.4,0-2.6,0.4-3.6,1.2C87.8,81.7,87.3,82.7,87.3,83.9L87.3,83.9
		z M69.9,83.9c0-1.5-0.3-2.5-0.8-3.2c-0.6-0.7-1.4-1-2.6-1c-1.2,0-2.2,0.3-2.8,1c-0.6,0.7-0.9,1.7-0.9,3.1v6.1H60v-12h2.6v1.4
		c0.5-0.5,1.1-0.9,1.8-1.2c0.7-0.3,1.5-0.4,2.3-0.4c1.2,0,2.1,0.2,2.9,0.5c0.8,0.3,1.4,0.9,1.9,1.6c0.5-0.7,1.2-1.2,2-1.6
		c0.8-0.3,1.8-0.5,3-0.5c1.8,0,3.3,0.4,4.4,1.3c1.1,0.9,1.6,2.1,1.6,3.5v7.3h-2.9v-7c0-1-0.3-1.8-0.9-2.4c-0.6-0.6-1.4-0.8-2.5-0.8
		c-1.3,0-2.2,0.3-2.7,0.9c-0.6,0.6-0.8,1.6-0.8,3v6.2h-2.8V83.9L69.9,83.9z M44.6,86H48c0,0.6,0.3,1.1,0.9,1.6
		c0.6,0.4,1.3,0.6,2.2,0.6c0.8,0,1.5-0.2,2.1-0.5c0.5-0.3,0.8-0.7,0.8-1.2c0-0.4-0.2-0.8-0.6-1.1c-0.4-0.3-1-0.5-1.9-0.7
		c-0.3-0.1-0.7-0.2-1.3-0.3c-1.4-0.3-2.4-0.6-2.7-0.8c-0.7-0.3-1.3-0.7-1.6-1.2c-0.3-0.4-0.5-0.9-0.5-1.5c0-1,0.6-1.8,1.7-2.5
		c1.1-0.7,2.6-1,4.2-1c1.7,0,3.1,0.3,4.1,0.9c1,0.6,1.6,1.4,1.7,2.5h-3.5c-0.1-0.4-0.3-0.8-0.7-1c-0.4-0.2-1-0.4-1.7-0.4
		c-0.7,0-1.2,0.1-1.6,0.4c-0.4,0.3-0.7,0.6-0.7,1c0,0.7,1,1.2,2.9,1.6c0.6,0.1,1,0.2,1.3,0.3c1.5,0.4,2.7,0.8,3.3,1.4
		c0.7,0.5,1,1.3,1,2.2c0,1.1-0.6,2-1.8,2.7c-1.2,0.7-2.8,1.1-4.6,1.1c-1.9,0-3.4-0.4-4.6-1.1C45.3,88.3,44.7,87.3,44.6,86L44.6,86z
		 M40.4,89.9v-1.5c-0.6,0.6-1.4,1-2.2,1.3c-0.8,0.3-1.7,0.4-2.6,0.4c-2.1,0-3.9-0.6-5.3-1.8c-1.4-1.2-2.1-2.7-2.1-4.5
		c0-0.8,0.2-1.6,0.5-2.4c0.4-0.8,0.9-1.4,1.5-2c0.7-0.6,1.5-1.1,2.3-1.4c0.8-0.3,1.8-0.5,2.9-0.5c1,0,1.8,0.1,2.7,0.4
		c0.8,0.3,1.6,0.7,2.3,1.3v-5.3H43v15.8H40.4L40.4,89.9z M31.1,83.8c0,1.2,0.5,2.2,1.4,3c0.9,0.8,2.1,1.2,3.5,1.2
		c1.2,0,2.3-0.4,3.3-1.2c1-0.8,1.4-1.8,1.4-2.9c0-1.2-0.5-2.2-1.4-3c-0.9-0.8-2.1-1.3-3.4-1.3c-1.3,0-2.5,0.4-3.4,1.2
		C31.6,81.7,31.1,82.7,31.1,83.8L31.1,83.8z M23.1,89.9V74.1h2.7v15.8H23.1L23.1,89.9z M0.6,81.9c0-1.1,0.3-2.2,0.8-3.2
		c0.5-1,1.3-1.9,2.3-2.7c1-0.8,2.1-1.3,3.2-1.7c1.2-0.4,2.5-0.6,3.8-0.6c1.4,0,2.7,0.2,3.9,0.6c1.2,0.4,2.3,1,3.3,1.7
		c1,0.8,1.8,1.7,2.3,2.7c0.5,1,0.8,2,0.8,3.2c0,1.1-0.2,2.2-0.7,3.1c-0.4,0.9-1.1,1.8-2,2.5c-1,0.9-2.2,1.6-3.5,2
		c-1.3,0.4-2.7,0.7-4.2,0.7c-1.5,0-2.9-0.2-4.2-0.7c-1.3-0.5-2.4-1.1-3.4-2c-0.9-0.7-1.5-1.6-1.9-2.5C0.9,84,0.6,83,0.6,81.9
		L0.6,81.9z M3.7,81.9c0,0.8,0.2,1.6,0.5,2.3c0.3,0.7,0.9,1.4,1.5,1.9c0.7,0.6,1.5,1,2.4,1.3c0.9,0.3,1.8,0.5,2.8,0.5
		c2.1,0,3.8-0.6,5.2-1.7c1.4-1.2,2.1-2.6,2.1-4.3c0-0.7-0.2-1.4-0.5-2.1c-0.3-0.7-0.8-1.3-1.5-1.8c-0.8-0.6-1.6-1.1-2.4-1.4
		c-0.9-0.3-1.8-0.5-2.9-0.5c-0.9,0-1.8,0.1-2.7,0.4c-0.9,0.3-1.6,0.7-2.3,1.2c-0.7,0.6-1.2,1.2-1.6,1.9C3.9,80.4,3.7,81.1,3.7,81.9
		L3.7,81.9z"/>
</g>
</svg>
