<?xml version="1.0" encoding="utf-8"?>
<!-- Generator: Adobe Illustrator 24.1.1, SVG Export Plug-In . SVG Version: 6.00 Build 0)  -->
<svg version="1.1" id="Layer_1" xmlns="http://www.w3.org/2000/svg" xmlns:xlink="http://www.w3.org/1999/xlink" x="0px" y="0px"
	 viewBox="0 0 144 101" style="enable-background:new 0 0 144 101;" xml:space="preserve">
<style type="text/css">
	.st0{fill:#EB1212;}
</style>
<path class="st0" d="M72.9,60.5c-1.3,1.3-3.5,2.1-6.9,2.1H55.8c-3.4,0-5.5-0.8-6.9-2.1c-1.4-1.3-1.8-3.2-1.8-5.2V38.8
	c0-0.3,0.2-0.5,0.5-0.5h7.1c0.3,0,0.5,0.2,0.5,0.5V53c0,0.9,0.1,1.8,0.6,2.3c0.5,0.6,1.5,0.9,3.2,0.9h4c1.7,0,2.7-0.4,3.2-0.9
	c0.5-0.6,0.6-1.4,0.6-2.3V38.8c0-0.3,0.2-0.5,0.5-0.5h7.1c0.3,0,0.5,0.2,0.5,0.5v16.5C74.8,57.4,74.3,59.2,72.9,60.5L72.9,60.5z
	 M8.9,38.8v23.3c0,0.3-0.2,0.5-0.5,0.5H1.2c-0.3,0-0.5-0.2-0.5-0.5V38.8c0-0.3,0.2-0.5,0.5-0.5h7.1C8.6,38.3,8.9,38.6,8.9,38.8
	L8.9,38.8z M108.8,56.7v5.4c0,0.3-0.2,0.5-0.5,0.5H86.1c-2.1,0-3.3-0.6-4.1-1.4c-0.8-0.8-1.1-1.8-1.2-2.6c-0.2-0.9-0.1-2.5,0.5-3.9
	c0.5-1,1.2-1.9,2.4-2.4l14.8-7.6H81.8c-0.3,0-0.5-0.2-0.5-0.5v-5.4c0-0.3,0.2-0.5,0.5-0.5h18c1.9,0,3.7,0,5.1,0.4
	c1.5,0.4,2.7,1.1,3.3,2.5c0.1,0.2,0.1,0.3,0.2,0.5c0.4,1.1,0.4,2.4,0,3.6c-0.4,1.2-1.3,2.3-2.8,3c-0.2,0.1-0.4,0.2-0.6,0.2l-15,7.7
	h18.2C108.6,56.2,108.8,56.5,108.8,56.7L108.8,56.7z M14.1,62.2v-5.4c0-0.3,0.2-0.5,0.5-0.5h19.3c0.1,0,0.2,0,0.2,0
	c-0.1-0.1-0.1-0.1-0.3-0.2l-15.7-5.8c-1.6-0.6-2.6-1.6-3.1-2.9c-0.6-1.6-0.5-3.4,0-4.8c0.4-1.4,1.5-2.4,2.9-3.1
	c1.4-0.7,3.3-1.1,5.3-1.1h17.8c0.3,0,0.5,0.2,0.5,0.5v5.4c0,0.3-0.2,0.5-0.5,0.5H23.8c-0.2,0-0.3,0.1-0.4,0.1c0,0-0.1,0.1-0.1,0.1
	c0,0,0,0,0,0c0,0,0,0.1,0.1,0.1l17.4,6.5c1.2,0.5,2,1.4,2.5,2.4c0.6,1.4,0.7,3,0.5,3.9c-0.2,1-0.8,2.4-2.1,3.5
	c-0.9,0.7-2.2,1.2-3.9,1.2H14.6C14.3,62.7,14.1,62.4,14.1,62.2L14.1,62.2z M141.4,60.5c-1.3,1.3-3.5,2.1-6.9,2.1h-10.3
	c-3.4,0-5.5-0.8-6.9-2.1c-1.4-1.3-1.8-3.2-1.8-5.2V38.8c0-0.3,0.2-0.5,0.5-0.5h7.1c0.3,0,0.5,0.2,0.5,0.5V53c0,0.9,0.1,1.8,0.6,2.3
	c0.5,0.6,1.5,0.9,3.2,0.9h4c1.7,0,2.7-0.4,3.2-0.9c0.5-0.6,0.6-1.4,0.6-2.3V38.8c0-0.3,0.2-0.5,0.5-0.5h7.1c0.3,0,0.5,0.2,0.5,0.5
	v16.5C143.3,57.4,142.8,59.2,141.4,60.5L141.4,60.5z"/>
</svg>
