<?xml version="1.0" encoding="utf-8"?>
<!-- Generator: Adobe Illustrator 24.1.1, SVG Export Plug-In . SVG Version: 6.00 Build 0)  -->
<svg version="1.1" id="Layer_1" xmlns="http://www.w3.org/2000/svg" xmlns:xlink="http://www.w3.org/1999/xlink" x="0px" y="0px"
	 viewBox="0 0 144 101" style="enable-background:new 0 0 144 101;" xml:space="preserve">
<style type="text/css">
	.st0{fill-rule:evenodd;clip-rule:evenodd;fill:#231F20;}
	.st1{fill-rule:evenodd;clip-rule:evenodd;fill:#FFFFFF;}
</style>
<g>
	<path class="st0" d="M22.5,50.5C22.5,23.2,44.7,1,72,1c27.3,0,49.5,22.2,49.5,49.5c0,27.3-22.2,49.5-49.5,49.5
		C44.7,100,22.5,77.8,22.5,50.5L22.5,50.5z"/>
	<path class="st1" d="M33.6,63.8L33,62.2h3c-1.2-3.7-1.8-7.6-1.8-11.7c0-20.9,16.9-37.8,37.8-37.8c20.9,0,37.8,16.9,37.8,37.8
		c0,20.9-16.9,37.8-37.8,37.8c-15,0-28-8.7-34.1-21.4c-0.8-0.3-1.2-0.1-2.1-0.2c-0.9,0-1.6-1-1.8-1.5l3.1,0l-0.6-1.4L33.6,63.8
		L33.6,63.8z"/>
	<path class="st1" d="M32.7,38.4l-2.3-1l2.2-4.9c0.2-0.5-0.7-0.9-0.8-0.4L29.6,37l-0.9-0.4l2.5-5.7c0.2-0.5,0.8-0.8,1.8-0.3
		c0.9,0.4,1.1,0.8,0.9,1.4l-2,4.4l1.4,0.6L32.7,38.4L32.7,38.4z"/>
	<polygon class="st1" points="112.5,30 113,31.3 111.7,31.9 113.3,35.8 114.7,35.3 115.2,36.7 111.2,38.3 110.7,37 112.4,36.2 
		110.8,32.2 109.1,33 108.5,31.6 112.5,30 	"/>
	<polygon class="st1" points="105,20.8 102.5,23.2 103.5,24.3 106,21.9 107.9,24 108.7,23.3 103.9,18 103,18.7 105,20.8 	"/>
	<path class="st1" d="M92.7,9.7l-1.6,2.4c-0.3,0.5-0.7,1.6,0.3,2.3l4.8,3.2l2.5-3.9l-1.2-0.8l-1.9,2.8l-2.8-1.9
		c-0.5-0.3-0.6-0.7-0.3-1.2l1.4-2.1L92.7,9.7L92.7,9.7z"/>
	<path class="st1" d="M59.5,6.6l0.7,4.2l1.5-0.2l-0.6-3.3L62.8,7c0.4-0.1,0.8,0.2,0.9,0.5l0.4,2.7l1.5-0.2l-0.6-3.3l1.6-0.3
		c0.5-0.1,0.9,0.2,1,0.5l0.5,2.7l1.4-0.3l-0.5-3.1c-0.1-0.5-1-1.1-1.7-0.9l-2.7,0.5c-0.3,0-0.4,0.2-0.4,0.3
		c-0.2-0.2-0.5-0.2-0.8-0.2L59.5,6.6L59.5,6.6z"/>
	<polygon class="st1" points="35.8,23 36.7,21.8 39.3,24.1 43.2,19.9 44,20.7 39.1,26.1 35.8,23 	"/>
	<path class="st1" d="M48.8,14.4L50,16l1.3-0.9l-1.2-1.6l1.2-0.8c0.4-0.3,0.9-1.4,0.5-2l-0.9-1.3l-1.2,0.9l0.6,0.8
		c0.2,0.2,0.2,0.9,0,1.2l-2.3,1.6c-0.3,0.3-0.9,0.2-1.1-0.2l-0.6-0.9l-1.2,0.9l0.9,1.2c0.4,0.4,1.4,0.6,2,0.2L48.8,14.4L48.8,14.4z"
		/>
	<path class="st1" d="M78.5,10c-0.8-0.2-2.1-0.2-1.6-2.8c0.3-1.6,1.2-1.9,2.8-1.6l3,0.5c1.3,0.3,2.2,0.6,1.9,2.5
		c-0.3,1.8-1.2,2.3-2.6,2L78.5,10L78.5,10z"/>
	<path class="st0" d="M78.8,9c-0.7-0.1-0.8-0.6-0.6-1.7c0.1-0.9,0.7-1,1.2-0.9l3.3,0.6c0.5,0.1,0.9,0.5,0.8,1.3
		c-0.2,0.8-0.6,1.4-1.4,1.2L78.8,9L78.8,9z"/>
	<path class="st0" d="M98.5,74.7c0.7-0.8,1.2-1.4,1.9-2.2c-7.9-1.1-19.8-2.1-23.1,5.6c-2.8-2-9.5-2.2-11.3-0.9
		c-1.6-1.3-7.3-2.2-10.4,0.3c-2.7-2.8-7.4-8.3-15.4-10.5c3.2,6.1,8,11.2,14,14.6c1.4-2.5,7.2-4.9,11.6-1.8c2-1.3,8-2.2,12.7,1.9
		C78.6,78.5,82.3,71.7,98.5,74.7C98.5,74.7,82.3,71.7,98.5,74.7L98.5,74.7z"/>
	<path class="st0" d="M65.8,81.2c5.4-2.4,10.6,0.1,13.3,2.7c0.1-1.1,1-10.7,18.1-7.8C90.7,82.4,81.8,86.4,72,86.4
		c-6,0-11.5-1.4-16.5-4.1C56.5,80.5,62.1,78.4,65.8,81.2C65.8,81.2,62.1,78.4,65.8,81.2L65.8,81.2z"/>
	<path class="st0" d="M79.2,15.4c-2.3-0.5-4.8-0.7-7.2-0.7c-19.8,0-35.9,16.1-35.9,35.9c0,3.2,0.4,6.4,1.2,9.4
		c1.2-11.5,8-20.1,11.6-24.1C53.1,31.2,66.1,20.3,79.2,15.4C79.2,15.4,66.1,20.3,79.2,15.4L79.2,15.4z"/>
	<path class="st0" d="M74.7,62.2c-1.5-4.9-3.2-18.6,18.3-38.6L78.7,62.2H74.7L74.7,62.2z"/>
	<path class="st0" d="M81.3,62.2c0.7-3.1,9.2-4.2,24.7-0.8l-0.1,0.8H81.3L81.3,62.2z"/>
	<path class="st0" d="M39.4,62.2c0.9-3.5,6.8-4.4,11.9-4.2c5.1,0.2,14.6,1.6,21.1,4.2H39.4L39.4,62.2z"/>
	<polygon class="st0" points="38.6,63.8 39.1,65.2 104.7,65.2 105.3,63.8 38.6,63.8 	"/>
</g>
</svg>
