<?xml version="1.0" encoding="utf-8"?>
<!-- Generator: Adobe Illustrator 24.1.1, SVG Export Plug-In . SVG Version: 6.00 Build 0)  -->
<svg version="1.1" id="Layer_1" xmlns="http://www.w3.org/2000/svg" xmlns:xlink="http://www.w3.org/1999/xlink" x="0px" y="0px"
	 viewBox="0 0 144 101" style="enable-background:new 0 0 144 101;" xml:space="preserve">
<style type="text/css">
	.st0{fill-rule:evenodd;clip-rule:evenodd;fill:#231F20;}
	.st1{fill-rule:evenodd;clip-rule:evenodd;fill:#E6E7E8;}
	.st2{fill-rule:evenodd;clip-rule:evenodd;fill:#EC1C24;}
	.st3{fill-rule:evenodd;clip-rule:evenodd;fill:#FFFFFF;}
</style>
<path class="st0" d="M72.1,100.3L47.4,8.9c-2.2-8.3,1.4-9.1,7.5-5.3l17.2,10.8L89.2,3.6c6-3.8,9.7-2.9,7.5,5.3L72.1,100.3
	L72.1,100.3z"/>
<path class="st1" d="M49.2,8.5c-0.4-1.4-0.7-3-0.6-4.5c0.2-0.7,0.2-0.7,0.9-0.7c1.4,0.2,2.7,0.9,3.9,1.6l18.7,11.8L90.7,4.8
	c1.2-0.7,2.5-1.4,3.9-1.6c0.7,0,0.7,0.1,0.9,0.7c0.2,1.5-0.1,3-0.5,4.5L72.1,93.2L49.2,8.5L49.2,8.5z"/>
<polygon class="st2" points="52.1,7.6 72.1,20.2 91.9,7.6 72.1,81.5 52.1,7.6 "/>
<polygon class="st3" points="72.1,22.6 73.3,29.6 80.3,30.8 73.3,32 72.1,39 70.9,32 63.9,30.8 70.9,29.6 72.1,22.6 "/>
</svg>
