<?xml version="1.0" encoding="utf-8"?>
<!-- Generator: Adobe Illustrator 24.0.2, SVG Export Plug-In . SVG Version: 6.00 Build 0)  -->
<svg version="1.1" id="Layer_1" xmlns="http://www.w3.org/2000/svg" xmlns:xlink="http://www.w3.org/1999/xlink" x="0px" y="0px"
	 viewBox="0 0 144 101" style="enable-background:new 0 0 144 101;" xml:space="preserve">
<style type="text/css">
	.st0{display:none;}
	.st1{fill-rule:evenodd;clip-rule:evenodd;fill:#231F20;}
	.st2{fill-rule:evenodd;clip-rule:evenodd;fill:#FFFFFF;}
	.st3{fill-rule:evenodd;clip-rule:evenodd;fill:#370097;}
	.st4{fill-rule:evenodd;clip-rule:evenodd;fill:#EF2B2F;}
</style>
<g id="Layer_1_1_" class="st0">
</g>
<path class="st1" d="M70.9,100.1c27.3,0,49.4-22.1,49.4-49.4c0-27.3-22.1-49.4-49.4-49.4c-27.3,0-49.4,22.1-49.4,49.4
	C21.6,78,43.7,100.1,70.9,100.1L70.9,100.1z"/>
<path class="st2" d="M70.9,95.4c24.7,0,44.7-20,44.7-44.7c0-24.7-20-44.7-44.7-44.7c-24.7,0-44.7,20-44.7,44.7
	C26.3,75.4,46.3,95.4,70.9,95.4L70.9,95.4z"/>
<path class="st1" d="M79.4,21v7.1H60v7.1H40.5v25.1c0,10.5,6.7,20.9,11.1,28.3c3.8-6.3,9.2-14.7,10.8-23.5
	c2.4,6.1,5.9,11.8,8.7,16.4c3.8-6.3,9.2-14.7,10.8-23.5c2.4,6.1,5.9,11.8,8.7,16.4c4.4-7.4,11.2-17.8,11.2-28.3V21H79.4L79.4,21z"/>
<path class="st2" d="M51.7,82.1c3.2-5.3,8-13.1,8-20.6V38.4H43.8v23.2C43.8,69.1,48.5,76.8,51.7,82.1L51.7,82.1z"/>
<path class="st3" d="M58.6,63.2c0.2-1.4,0.1-2.9,0.1-4.2V39.3H45.1L58.6,63.2L58.6,63.2z"/>
<path class="st3" d="M56.8,69.9c-1.2,3.3-3,6.6-5.1,10.2c-4.3-6.9-6.9-13.2-6.9-19.8V49L56.8,69.9L56.8,69.9z"/>
<path class="st2" d="M71.1,75.1c3.2-5.3,8-13.1,8-20.6V31.3H63.2v23.2C63.2,62,67.9,69.7,71.1,75.1L71.1,75.1z"/>
<path class="st1" d="M78,56.1c0.2-1.4,0.1-2.9,0.1-4.2V32.3H64.5L78,56.1L78,56.1z"/>
<path class="st1" d="M76.2,62.9c-1.2,3.3-3,6.6-5.1,10.2c-4.3-6.9-6.9-13.2-6.9-19.8V41.9L76.2,62.9L76.2,62.9z"/>
<path class="st2" d="M90.5,68c3.2-5.3,8-13.1,8-20.6V24.3H82.7v23.2C82.7,55,87.4,62.7,90.5,68L90.5,68z"/>
<path class="st4" d="M97.5,49.1c0.2-1.4,0.1-2.9,0.1-4.2V25.2H83.9L97.5,49.1L97.5,49.1z"/>
<path class="st4" d="M95.6,55.8c-1.2,3.3-3,6.6-5.1,10.2c-4.3-6.9-6.9-13.2-6.9-19.8V34.8L95.6,55.8L95.6,55.8z"/>
</svg>
