<?xml version="1.0" encoding="utf-8"?>
<!-- Generator: Adobe Illustrator 24.0.2, SVG Export Plug-In . SVG Version: 6.00 Build 0)  -->
<svg version="1.1" xmlns="http://www.w3.org/2000/svg" xmlns:xlink="http://www.w3.org/1999/xlink" x="0px" y="0px"
	 viewBox="0 0 144 101" style="enable-background:new 0 0 144 101;" xml:space="preserve">
<style type="text/css">
	.st0{display:none;}
	.st1{fill:url(#SVGID_1_);}
	.st2{fill:#454C4D;}
	.st3{fill:url(#SVGID_2_);}
	.st4{fill:url(#SVGID_3_);}
	.st5{fill:#333333;}
	.st6{fill:url(#SVGID_4_);}
	.st7{fill:url(#SVGID_5_);}
	.st8{fill:url(#SVGID_6_);}
	.st9{fill:url(#SVGID_7_);}
	.st10{fill:url(#SVGID_8_);}
	.st11{fill:url(#SVGID_9_);}
	.st12{fill:url(#SVGID_10_);}
	.st13{fill:url(#SVGID_11_);}
	.st14{fill:url(#SVGID_12_);}
	.st15{fill:#BED6E5;}
	.st16{fill:url(#SVGID_13_);}
	.st17{fill:#025E6C;}
	.st18{fill:url(#SVGID_14_);}
	.st19{fill:url(#SVGID_15_);}
	.st20{fill:url(#SVGID_16_);}
	.st21{fill:url(#SVGID_17_);}
</style>
<g id="Layer_1" class="st0">
</g>
<g id="Layer_2">
	<g>
		<g>
			<linearGradient id="SVGID_1_" gradientUnits="userSpaceOnUse" x1="14.6303" y1="-4.9385" x2="120.8129" y2="97.669">
				<stop  offset="0" style="stop-color:#DEEAF1"/>
				<stop  offset="0.1037" style="stop-color:#D5E0E7"/>
				<stop  offset="0.2822" style="stop-color:#BCC5CB"/>
				<stop  offset="0.514" style="stop-color:#939A9E"/>
				<stop  offset="0.787" style="stop-color:#5B5E60"/>
				<stop  offset="1" style="stop-color:#2B2B2B"/>
			</linearGradient>
			<path class="st1" d="M72,0.45c-27.64,0-50.05,22.41-50.05,50.05c0,27.64,22.41,50.05,50.05,50.05
				c27.64,0,50.05-22.41,50.05-50.05C122.05,22.86,99.64,0.45,72,0.45z M72,98.05c-26.26,0-47.55-21.29-47.55-47.55
				C24.45,24.24,45.74,2.95,72,2.95s47.55,21.29,47.55,47.55C119.55,76.76,98.26,98.05,72,98.05z"/>
			<path class="st2" d="M119.91,50.5c0,26.46-21.45,47.91-47.91,47.91c-26.46,0-47.9-21.45-47.9-47.91
				C24.1,24.04,45.54,2.59,72,2.59C98.46,2.59,119.91,24.04,119.91,50.5z"/>
			<radialGradient id="SVGID_2_" cx="21.3251" cy="3.76" r="71.1092" gradientUnits="userSpaceOnUse">
				<stop  offset="0" style="stop-color:#FFFFFF"/>
				<stop  offset="0.3064" style="stop-color:#A8A8A8"/>
				<stop  offset="0.6461" style="stop-color:#4F4F4F"/>
				<stop  offset="0.8853" style="stop-color:#161616"/>
				<stop  offset="1" style="stop-color:#000000"/>
			</radialGradient>
			<path class="st3" d="M119.55,50.5c0,26.26-21.29,47.55-47.55,47.55S24.45,76.76,24.45,50.5C24.45,24.24,45.74,2.95,72,2.95
				S119.55,24.24,119.55,50.5z"/>
			
				<linearGradient id="SVGID_3_" gradientUnits="userSpaceOnUse" x1="-7783.2046" y1="-7571.8081" x2="-7715.5771" y2="-7506.4575" gradientTransform="matrix(-1 0 0 -1 -7674.666 -7486)">
				<stop  offset="0" style="stop-color:#DEEAF1"/>
				<stop  offset="0.0892" style="stop-color:#D4E0E7"/>
				<stop  offset="0.2429" style="stop-color:#BBC5CB"/>
				<stop  offset="0.4425" style="stop-color:#91999E"/>
				<stop  offset="0.6803" style="stop-color:#585C5F"/>
				<stop  offset="0.9477" style="stop-color:#0F1010"/>
				<stop  offset="1" style="stop-color:#000000"/>
			</linearGradient>
			<path class="st4" d="M103.88,50.5c0,17.6-14.27,31.88-31.88,31.88c-17.61,0-31.88-14.27-31.88-31.88
				c0-17.61,14.27-31.88,31.88-31.88C89.61,18.62,103.88,32.89,103.88,50.5z"/>
			<g>
				<polygon points="73.28,17.76 76.59,8.98 76.59,17.76 79.1,17.76 79.1,5.19 75.32,5.19 71.89,14.19 71.92,14.19 68.48,5.19 
					64.7,5.19 64.7,17.76 67.22,17.76 67.22,8.98 70.53,17.76 				"/>
			</g>
			<g>
				<polygon points="107.79,23.4 103.49,29.66 110.24,26.34 112.07,28.54 101.45,33.87 99.31,31.27 103.42,25.07 103.4,25.03 
					96.55,27.97 94.38,25.38 101.54,15.9 103.37,18.1 98.89,24.14 105.83,21.04 				"/>
			</g>
			<path class="st5" d="M49.74,21c-1.01-0.98-2.57-1.28-4.04-0.37c0.28-0.73,0.17-1.47,0.02-1.88c-0.63-1.15-0.86-1.3-1.37-1.73
				c-1.69-1.41-3.46-0.21-4.73,1.31l-6.13,7.31l9.64,8.09l6.47-7.71C51.06,24.25,51.29,22.51,49.74,21z M37.27,24.52l3.68-4.39
				c0.43-0.51,1.39-0.49,2.01,0.03c0.68,0.57,0.68,1.38,0.23,1.93l-3.64,4.34L37.27,24.52z M47.43,25.25l-3.84,4.58l-2.41-2.02
				l3.87-4.61c0.44-0.52,1.41-0.67,2.07-0.12C47.87,23.7,47.94,24.64,47.43,25.25z"/>
			<g>
				<g>
					<radialGradient id="SVGID_4_" cx="8.5549" cy="-3.4818" r="170.8624" gradientUnits="userSpaceOnUse">
						<stop  offset="0" style="stop-color:#FFFFFF"/>
						<stop  offset="0.3102" style="stop-color:#FDFDFD"/>
						<stop  offset="0.4505" style="stop-color:#F6F6F6"/>
						<stop  offset="0.5567" style="stop-color:#E9E9E9"/>
						<stop  offset="0.6456" style="stop-color:#D7D7D7"/>
						<stop  offset="0.7238" style="stop-color:#BFBFBF"/>
						<stop  offset="0.7944" style="stop-color:#A2A2A2"/>
						<stop  offset="0.8593" style="stop-color:#808080"/>
						<stop  offset="0.9199" style="stop-color:#575757"/>
						<stop  offset="0.9746" style="stop-color:#2B2B2B"/>
						<stop  offset="1" style="stop-color:#141414"/>
					</radialGradient>
					<polygon class="st6" points="73.3,17.28 76.62,8.5 76.62,17.28 79.13,17.28 79.13,4.71 75.35,4.71 71.91,13.71 71.95,13.71 
						68.51,4.71 64.73,4.71 64.73,17.28 67.24,17.28 67.24,8.5 70.55,17.28 					"/>
				</g>
				<g>
					<radialGradient id="SVGID_5_" cx="8.5459" cy="-3.4815" r="170.88" gradientUnits="userSpaceOnUse">
						<stop  offset="0" style="stop-color:#FFFFFF"/>
						<stop  offset="0.3102" style="stop-color:#FDFDFD"/>
						<stop  offset="0.4505" style="stop-color:#F6F6F6"/>
						<stop  offset="0.5567" style="stop-color:#E9E9E9"/>
						<stop  offset="0.6456" style="stop-color:#D7D7D7"/>
						<stop  offset="0.7238" style="stop-color:#BFBFBF"/>
						<stop  offset="0.7944" style="stop-color:#A2A2A2"/>
						<stop  offset="0.8593" style="stop-color:#808080"/>
						<stop  offset="0.9199" style="stop-color:#575757"/>
						<stop  offset="0.9746" style="stop-color:#2B2B2B"/>
						<stop  offset="1" style="stop-color:#141414"/>
					</radialGradient>
					<polygon class="st7" points="107.82,22.55 103.52,28.82 110.27,25.5 112.1,27.7 101.48,33.03 99.33,30.43 103.45,24.22 
						103.43,24.19 96.57,27.12 94.41,24.54 101.57,15.06 103.4,17.25 98.91,23.29 105.85,20.2 					"/>
				</g>
				<radialGradient id="SVGID_6_" cx="8.5436" cy="-3.4828" r="170.8859" gradientUnits="userSpaceOnUse">
					<stop  offset="0" style="stop-color:#FFFFFF"/>
					<stop  offset="0.3102" style="stop-color:#FDFDFD"/>
					<stop  offset="0.4505" style="stop-color:#F6F6F6"/>
					<stop  offset="0.5567" style="stop-color:#E9E9E9"/>
					<stop  offset="0.6456" style="stop-color:#D7D7D7"/>
					<stop  offset="0.7238" style="stop-color:#BFBFBF"/>
					<stop  offset="0.7944" style="stop-color:#A2A2A2"/>
					<stop  offset="0.8593" style="stop-color:#808080"/>
					<stop  offset="0.9199" style="stop-color:#575757"/>
					<stop  offset="0.9746" style="stop-color:#2B2B2B"/>
					<stop  offset="1" style="stop-color:#141414"/>
				</radialGradient>
				<path class="st8" d="M49.29,20.75c-1.01-0.98-2.57-1.28-4.04-0.37c0.28-0.73,0.16-1.47,0.02-1.88c-0.63-1.15-0.85-1.3-1.37-1.73
					c-1.69-1.42-3.46-0.21-4.73,1.31l-6.14,7.31l9.64,8.09l6.47-7.71C50.61,24,50.84,22.26,49.29,20.75z M36.82,24.27l3.68-4.39
					c0.43-0.51,1.39-0.49,2.01,0.03c0.68,0.57,0.68,1.38,0.22,1.93l-3.64,4.34L36.82,24.27z M46.98,25l-3.84,4.58l-2.41-2.02
					l3.87-4.61c0.44-0.52,1.41-0.67,2.07-0.12C47.42,23.45,47.49,24.4,46.98,25z"/>
			</g>
		</g>
		<g>
			<radialGradient id="SVGID_7_" cx="39.1558" cy="20.2069" r="46.0874" gradientUnits="userSpaceOnUse">
				<stop  offset="0" style="stop-color:#E6E6E6"/>
				<stop  offset="0.1045" style="stop-color:#D6D6D6"/>
				<stop  offset="0.3074" style="stop-color:#ADADAD"/>
				<stop  offset="0.5884" style="stop-color:#6C6C6C"/>
				<stop  offset="0.9335" style="stop-color:#121212"/>
				<stop  offset="1" style="stop-color:#000000"/>
			</radialGradient>
			<path class="st9" d="M41.18,50.5c0-17.02,13.8-30.82,30.82-30.82c17.02,0,30.82,13.8,30.82,30.82c0,17.02-13.8,30.82-30.82,30.82
				C54.98,81.32,41.18,67.52,41.18,50.5z"/>
			<radialGradient id="SVGID_8_" cx="51.7612" cy="26.4055" r="67.0246" gradientUnits="userSpaceOnUse">
				<stop  offset="0" style="stop-color:#FFFFFF"/>
				<stop  offset="0.3435" style="stop-color:#FDFDFD"/>
				<stop  offset="0.4814" style="stop-color:#F6F6F6"/>
				<stop  offset="0.5824" style="stop-color:#EAEAEA"/>
				<stop  offset="0.6654" style="stop-color:#D8D8D8"/>
				<stop  offset="0.7373" style="stop-color:#C2C2C2"/>
				<stop  offset="0.8016" style="stop-color:#A6A6A6"/>
				<stop  offset="0.8602" style="stop-color:#848484"/>
				<stop  offset="0.9126" style="stop-color:#5F5F5F"/>
				<stop  offset="0.9494" style="stop-color:#404040"/>
				<stop  offset="0.9566" style="stop-color:#404040"/>
				<stop  offset="1" style="stop-color:#404040"/>
				<stop  offset="1" style="stop-color:#000000"/>
			</radialGradient>
			<path class="st10" d="M42.07,50.5c0-16.53,13.4-29.93,29.93-29.93s29.93,13.4,29.93,29.93c0,16.53-13.4,29.93-29.93,29.93
				S42.07,67.03,42.07,50.5z"/>
			<g>
				<radialGradient id="SVGID_9_" cx="32.082" cy="0.9987" r="118.7009" gradientUnits="userSpaceOnUse">
					<stop  offset="0.1685" style="stop-color:#FFFFFF"/>
					<stop  offset="0.1812" style="stop-color:#EDF8FC"/>
					<stop  offset="0.2218" style="stop-color:#B9E4F5"/>
					<stop  offset="0.2641" style="stop-color:#8AD3EF"/>
					<stop  offset="0.3073" style="stop-color:#63C4E9"/>
					<stop  offset="0.3516" style="stop-color:#43B8E5"/>
					<stop  offset="0.3972" style="stop-color:#2AAFE1"/>
					<stop  offset="0.4449" style="stop-color:#19A8DF"/>
					<stop  offset="0.496" style="stop-color:#0EA4DD"/>
					<stop  offset="0.5562" style="stop-color:#0BA3DD"/>
					<stop  offset="0.6036" style="stop-color:#0CA0D9"/>
					<stop  offset="0.6505" style="stop-color:#0E98CD"/>
					<stop  offset="0.6974" style="stop-color:#118BB9"/>
					<stop  offset="0.7442" style="stop-color:#16789D"/>
					<stop  offset="0.7909" style="stop-color:#1C5F79"/>
					<stop  offset="0.837" style="stop-color:#23424E"/>
					<stop  offset="0.8708" style="stop-color:#292929"/>
				</radialGradient>
				<path class="st11" d="M42.02,50.5H72V20.52C55.44,20.52,42.02,33.94,42.02,50.5z"/>
				<radialGradient id="SVGID_10_" cx="32.0817" cy="0.9974" r="118.6993" gradientUnits="userSpaceOnUse">
					<stop  offset="0.1685" style="stop-color:#FFFFFF"/>
					<stop  offset="0.1812" style="stop-color:#EDF8FC"/>
					<stop  offset="0.2218" style="stop-color:#B9E4F5"/>
					<stop  offset="0.2641" style="stop-color:#8AD3EF"/>
					<stop  offset="0.3073" style="stop-color:#63C4E9"/>
					<stop  offset="0.3516" style="stop-color:#43B8E5"/>
					<stop  offset="0.3972" style="stop-color:#2AAFE1"/>
					<stop  offset="0.4449" style="stop-color:#19A8DF"/>
					<stop  offset="0.496" style="stop-color:#0EA4DD"/>
					<stop  offset="0.5562" style="stop-color:#0BA3DD"/>
					<stop  offset="0.6036" style="stop-color:#0CA0D9"/>
					<stop  offset="0.6505" style="stop-color:#0E98CD"/>
					<stop  offset="0.6974" style="stop-color:#118BB9"/>
					<stop  offset="0.7442" style="stop-color:#16789D"/>
					<stop  offset="0.7909" style="stop-color:#1C5F79"/>
					<stop  offset="0.837" style="stop-color:#23424E"/>
					<stop  offset="0.8708" style="stop-color:#292929"/>
				</radialGradient>
				<path class="st12" d="M72,50.5v29.98c16.56,0,29.98-13.42,29.98-29.98H72z"/>
			</g>
			<radialGradient id="SVGID_11_" cx="39.7853" cy="20.7871" r="45.2042" gradientUnits="userSpaceOnUse">
				<stop  offset="0" style="stop-color:#E6E6E6"/>
				<stop  offset="0.1045" style="stop-color:#D6D6D6"/>
				<stop  offset="0.3074" style="stop-color:#ADADAD"/>
				<stop  offset="0.5884" style="stop-color:#6C6C6C"/>
				<stop  offset="0.9335" style="stop-color:#121212"/>
				<stop  offset="1" style="stop-color:#000000"/>
			</radialGradient>
			<polygon class="st13" points="102.23,49.97 72.53,49.97 72.53,20.27 71.47,20.27 71.47,49.97 41.77,49.97 41.77,51.03 
				71.47,51.03 71.47,80.73 72.53,80.73 72.53,51.03 102.23,51.03 			"/>
			<linearGradient id="SVGID_12_" gradientUnits="userSpaceOnUse" x1="66.0727" y1="9.5003" x2="110.1555" y2="52.0989">
				<stop  offset="0" style="stop-color:#EEF0F3"/>
				<stop  offset="0.1126" style="stop-color:#E9EBED"/>
				<stop  offset="0.2564" style="stop-color:#D9DBDE"/>
				<stop  offset="0.4173" style="stop-color:#BFC1C3"/>
				<stop  offset="0.5906" style="stop-color:#9C9D9F"/>
				<stop  offset="0.7738" style="stop-color:#6E6F70"/>
				<stop  offset="0.9626" style="stop-color:#373737"/>
				<stop  offset="1" style="stop-color:#2B2B2B"/>
			</linearGradient>
			<path class="st14" d="M72.53,21.11c15.81,0.28,28.57,13.04,28.86,28.85h0.53c-0.28-16.11-13.28-29.1-29.39-29.39V21.11z"/>
			<path class="st15" d="M42.56,49.96c0.28-15.83,13.06-28.61,28.89-28.89v-0.53c-16.13,0.28-29.14,13.3-29.43,29.43H42.56z"/>
			<linearGradient id="SVGID_13_" gradientUnits="userSpaceOnUse" x1="30.2918" y1="45.4663" x2="74.3751" y2="88.0653">
				<stop  offset="0" style="stop-color:#EEF0F3"/>
				<stop  offset="0.1126" style="stop-color:#E9EBED"/>
				<stop  offset="0.2564" style="stop-color:#D9DBDE"/>
				<stop  offset="0.4173" style="stop-color:#BFC1C3"/>
				<stop  offset="0.5906" style="stop-color:#9C9D9F"/>
				<stop  offset="0.7738" style="stop-color:#6E6F70"/>
				<stop  offset="0.9626" style="stop-color:#373737"/>
				<stop  offset="1" style="stop-color:#2B2B2B"/>
			</linearGradient>
			<path class="st16" d="M71.47,79.89c-15.81-0.28-28.57-13.04-28.86-28.85h-0.53c0.28,16.11,13.28,29.11,29.39,29.39V79.89z"/>
			<path class="st17" d="M101.39,51.03c-0.28,15.81-13.04,28.57-28.86,28.85v0.53c16.11-0.28,29.11-13.28,29.39-29.39H101.39z"/>
			<linearGradient id="SVGID_14_" gradientUnits="userSpaceOnUse" x1="51.6183" y1="30.2757" x2="74.4775" y2="52.3651">
				<stop  offset="0" style="stop-color:#BED6E5"/>
				<stop  offset="0.1334" style="stop-color:#B5CDDD"/>
				<stop  offset="0.3417" style="stop-color:#9FB9CA"/>
				<stop  offset="0.5987" style="stop-color:#7F9CB0"/>
				<stop  offset="0.8919" style="stop-color:#567C92"/>
				<stop  offset="1" style="stop-color:#437187"/>
			</linearGradient>
			<polygon class="st18" points="70.9,20.54 70.9,49.38 42.06,49.38 42.06,49.95 70.9,49.95 71.47,49.95 71.47,49.38 71.47,20.54 
							"/>
			<linearGradient id="SVGID_15_" gradientUnits="userSpaceOnUse" x1="40.1697" y1="35.6881" x2="83.8102" y2="77.8592">
				<stop  offset="0" style="stop-color:#EEF0F3"/>
				<stop  offset="0.1015" style="stop-color:#E5E7EA"/>
				<stop  offset="0.268" style="stop-color:#CDCFD1"/>
				<stop  offset="0.4788" style="stop-color:#A6A7A9"/>
				<stop  offset="0.7256" style="stop-color:#707071"/>
				<stop  offset="1" style="stop-color:#2B2B2B"/>
			</linearGradient>
			<polygon class="st19" points="70.85,80.14 70.85,51.64 42.29,51.64 42.29,51.08 70.85,51.08 71.41,51.08 71.41,51.64 
				71.41,80.14 			"/>
			<linearGradient id="SVGID_16_" gradientUnits="userSpaceOnUse" x1="72.3355" y1="51.3313" x2="87.6434" y2="66.1237">
				<stop  offset="0" style="stop-color:#D6DDE8"/>
				<stop  offset="0.1214" style="stop-color:#D1D8E4"/>
				<stop  offset="0.2598" style="stop-color:#C1CBD9"/>
				<stop  offset="0.4065" style="stop-color:#AAB8C9"/>
				<stop  offset="0.559" style="stop-color:#8DA0B5"/>
				<stop  offset="0.716" style="stop-color:#6A879F"/>
				<stop  offset="0.8745" style="stop-color:#3F6D88"/>
				<stop  offset="0.9719" style="stop-color:#115E7A"/>
			</linearGradient>
			<polygon class="st20" points="73.14,80.14 73.14,51.64 101.64,51.64 101.64,51.08 73.14,51.08 72.58,51.08 72.58,51.64 
				72.58,80.14 			"/>
			<linearGradient id="SVGID_17_" gradientUnits="userSpaceOnUse" x1="56.6765" y1="19.6837" x2="100.269" y2="61.8084">
				<stop  offset="0" style="stop-color:#EEF0F3"/>
				<stop  offset="0.1126" style="stop-color:#E9EBED"/>
				<stop  offset="0.2564" style="stop-color:#D9DBDE"/>
				<stop  offset="0.4173" style="stop-color:#BFC1C3"/>
				<stop  offset="0.5906" style="stop-color:#9C9D9F"/>
				<stop  offset="0.7738" style="stop-color:#6E6F70"/>
				<stop  offset="0.9626" style="stop-color:#373737"/>
				<stop  offset="1" style="stop-color:#2B2B2B"/>
			</linearGradient>
			<polygon class="st21" points="73.14,20.79 73.14,49.29 101.64,49.29 101.64,49.85 73.14,49.85 72.58,49.85 72.58,49.29 
				72.58,20.79 			"/>
		</g>
	</g>
</g>
</svg>
