<?xml version="1.0" encoding="utf-8"?>
<!-- Generator: Adobe Illustrator 24.0.2, SVG Export Plug-In . SVG Version: 6.00 Build 0)  -->
<svg version="1.1" id="Layer_1" xmlns="http://www.w3.org/2000/svg" xmlns:xlink="http://www.w3.org/1999/xlink" x="0px" y="0px"
	 viewBox="0 0 144 101" style="enable-background:new 0 0 144 101;" xml:space="preserve">
<style type="text/css">
	.st0{fill:url(#SVGID_1_);}
	.st1{fill:url(#SVGID_2_);}
	.st2{fill:url(#SVGID_3_);}
	.st3{fill:url(#SVGID_4_);}
	.st4{fill:url(#SVGID_5_);}
	.st5{fill:url(#SVGID_6_);}
	.st6{opacity:0.85;fill:url(#SVGID_7_);enable-background:new    ;}
	.st7{opacity:0.85;fill:url(#SVGID_8_);enable-background:new    ;}
	.st8{opacity:0.85;fill:url(#SVGID_9_);enable-background:new    ;}
	.st9{fill:url(#SVGID_10_);}
	.st10{fill:#7F7F7E;}
	.st11{fill:url(#SVGID_11_);}
	.st12{fill:url(#SVGID_12_);}
	.st13{fill:url(#SVGID_13_);}
	.st14{fill:url(#SVGID_14_);}
	.st15{fill:url(#SVGID_15_);}
	.st16{fill:url(#SVGID_16_);}
	.st17{fill:url(#SVGID_17_);}
	.st18{fill:url(#SVGID_18_);}
	.st19{fill:url(#SVGID_19_);}
	.st20{fill:url(#SVGID_20_);}
	.st21{fill:url(#SVGID_21_);}
	.st22{fill:url(#SVGID_22_);}
	.st23{fill:url(#SVGID_23_);}
	.st24{fill:url(#SVGID_24_);}
	.st25{fill:url(#SVGID_25_);}
	.st26{fill:url(#SVGID_26_);}
	.st27{fill:url(#SVGID_27_);}
</style>
<g>
	<g>
		<g>
			<g>
				<g>
					<g>
						<path d="M114.2,91.8c-1.8-5.3-9.1-19-14.8-26.6c-1.3-1.7-0.8-2.5-0.1-3.1c0.7-0.6,2.8-2.4,5.3-5.2c2.5-3,3.1-6.2,1.4-11
							c-1.8-4.8-7.7-15.9-9-19.7c-1.4-4.2-1.5-6.2-0.7-8.6c1-2.8,2.5-2.8,3.7-2.8c0.6,0,1,0.7,1,1c0,1.3,0.1,2.7,1.3,5.9
							c1.8,4.9,6.8,8.3,8.3,8.9c1.1,0.4,1.3-0.4,1.1-0.7c-0.1-0.4-1.7-6.6-2.8-11.3c-1.3-4.9-1.8-5.9-3-6.9
							c-1.7-1.7-4.4-2.5-6.6-2.5c-5.1,0.1-7.3,5.1-7.6,5.5c-0.3,0.4-0.3,0.7-0.8,0.3c-1.4-1-5.6-4.5-6-6.8c-0.3-1.3-0.4-1.5-1.7-2
							c-5.2-1.8-9.6-3.7-14.5-4.5c-2-0.3-2-0.4-4.4,0c-3.8,0.7-6.2,1.5-9.1,3.1c-1.5,0.8-1.8,1.4-2.1,1.8c-0.1,0.3-0.4,0.7-1,0.8
							c-1,0.3-4.5,1.7-5.8,2.4c-0.7,0.4-1.1,0.8-0.7,1.7c0.7,1.5,2.7,4.6,3.7,5.5c0.6,0.4,2,0.8,2.3,0.8c0.3,0.1,0.6,0.1,0.7,0
							c0.1-0.3,0.1-0.7,0.8-1.1c1-0.7,2.7-1.1,3.7-1.3c0.7,0,1.1-0.1,1.5,0.1c0.4,0.3,1.3,1.1,1.5,2.1c0.3,1,0.1,1.3-0.4,1.5
							c-0.6,0.3-2.1,0.6-3.8,0.7c-1.8,0.1-2.3-0.3-2.4-0.4c-0.1-0.1-0.3-0.3-0.6,0c-0.3,0.4-0.7,0.7-1.4,1c-0.4,0.1-0.6,0.6-0.3,1.3
							c1.1,2,2.7,4.2,4.1,4.6c1.1,0.3,1.7,0,3-0.8c1.1-0.8,1.8-0.8,2.1-0.6c0.3,0.3,1,0.8,0.8,1.4c-0.3,1-2.3,3.4-2.7,3.8
							c-0.4,0.4-0.7,0.7-1.4,0.4c-1-0.4-15.2-7.9-17.2-8.6c-2.1-0.8-3.5-1-5.5-1.1c-1.7-0.1-3.9,0.1-5.2,0.3c-1,0.1-1.5,0.7-2.5,1.5
							c-1.3,1.3-2.7,2.7-2.8,3.9c-0.1,1,1,2.8,1,3c0.1,0.1,0.3,0.4,0.8,0.3c0.6,0,2-0.8,3.7-0.6c1.5,0.3,1.7,1.4,1.8,2.4
							c0,0.1,0.1,0.6,0.7,0.6s1.5,0,2.7,0.6c1.4,0.7,4.1,2.7,4.5,3.2c0.3,0.4,0.3,0.7-0.3,0.8c-3.4,0.3-8.6,1.3-11,2.1
							c-1.7,0.6-3.7,1.3-4.4,2.5c-0.8,1.4-1.8,3.7-2.1,5.2c-0.3,1.5,1.4,3.5,1.8,4.1c0.3,0.3,0.6,0.4,1.1,0.1
							c0.8-0.4,2.8-1.7,4.8-1.8c1.1,0,1.7,1,2,1.4c0.3,0.4,0.6,0.1,1.5-0.1c1.8-0.6,12.2-0.3,15.9-0.1c1.7,0.1,3.9,0.3,5.8,1.3
							c1.7,1,4.8,3.8,4.8,3.8s-4.1,6.9-6.3,11c-2.1,3.8-3.5,6.6-4.2,8.3c-0.7,1.5-1.3,3.7-1.1,5.3c0.1,2.4,0.3,3.7,0.3,4.8
							c0,1-1,1.1-2.3,1.4c-1.8,0.4-5.3,0.8-8.2,1.5c-2.7,0.7-3.5,1.3-4.1,3.2c-0.4,1.5-0.8,5.5-1,7.3c0,0.7,0,1.1,0.8,0.8
							c0.6-0.1,2.1-0.3,4.1-0.4c2.4-0.1,5.1-0.1,7-0.1c3.8,0,14.8,0.6,15.5,0.7c1,0.1,1.1,0,1.1-0.7c-0.1-0.8-0.3-3.7-0.3-5.3
							c0-1.7-0.3-3.4,1.3-4.9s12.7-14.1,13.4-14.8c0.6-0.6,0.8-1.1,1.7-0.4c0.8,0.8,10.1,7.5,12,8.9c1.8,1.4,3.7,1.8,5.8,1.8
							c1.5,0,2,2.7,0.7,3c-1.3,0.3-3.4,0.7-4.8,1c-2.3,0.6-2.8,1.3-3.5,2.7c-0.6,1.3-1.1,7.3-1.3,7.9c0,0.4,0,1,0.6,0.8
							c2.7-0.6,7-0.7,11.5-0.6c5.2,0.1,10.4,0.6,11.1,0.7c0.7,0,0.8,0,1.3-0.7c0.7-1,2.7-3.4,4.4-4.8
							C114.5,93.2,114.5,92.9,114.2,91.8z M94,54.8c-1.3,0.4-2.3,0-2.8-0.6c-0.7-0.6-5.9-7-7.6-9c-0.8-1-1.5-3.2,1.1-4.2
							c2.1-0.7,5.9-2,7-2.5c1-0.6,1.5-1.1,1.7-2.3c0-0.8,0-2.1,0-2.5s0.6-0.7,0.8-0.3c0.1,0.3,1.1,2.3,2.3,4.4
							c1.7,3.2,3.9,7.3,4.6,9c0.7,1.7,0.3,3-0.7,4.2C99,52.7,95,54.5,94,54.8z"/>
					</g>
				</g>
				
					<linearGradient id="SVGID_1_" gradientUnits="userSpaceOnUse" x1="112.5766" y1="87.3316" x2="83.3935" y2="42.6345" gradientTransform="matrix(1 0 0 -1 0 102)">
					<stop  offset="0.2033" style="stop-color:#CCCCCC"/>
					<stop  offset="0.2274" style="stop-color:#A6A7A6"/>
					<stop  offset="0.2583" style="stop-color:#7D7D7D"/>
					<stop  offset="0.2885" style="stop-color:#5D5D5D"/>
					<stop  offset="0.3174" style="stop-color:#464646"/>
					<stop  offset="0.3446" style="stop-color:#383838"/>
					<stop  offset="0.3681" style="stop-color:#333333"/>
					<stop  offset="0.4381" style="stop-color:#393939"/>
					<stop  offset="0.5311" style="stop-color:#4A4A4A"/>
					<stop  offset="0.637" style="stop-color:#656565"/>
					<stop  offset="0.7516" style="stop-color:#8C8C8C"/>
					<stop  offset="0.8132" style="stop-color:#A3A3A3"/>
					<stop  offset="1" style="stop-color:#000000"/>
				</linearGradient>
				<path class="st0" d="M99.5,10.2L99.5,10.2c-4.2,0-8.4,4.8-7.6,12c0.6,4.4,1.1,6.3,2.4,9.1c0.7,1.4,7.7,14.8,8,16.3
					c0.4,2,0,3.4-1.5,4.8c-1.7,1.5-4.6,3.4-6.5,3.9c-0.4,0.1-0.8,0.3-1.3,0.3s-1.5-0.1-3.7-2.7l9.1,12.2c-1.1-1.5-1.8-2.7-1.5-3.8
					c0.1-1,1.8-2.1,3.8-3.7c2-1.5,4.1-3.4,5.1-5.9c0.3-0.7,0.4-1.4,0.4-2.3c0-2.4-1.1-5.2-2.5-8.2c-1.8-3.8-7-12.2-8.6-18.1
					c-0.4-1.4-0.6-2.8-0.6-3.9c0-3.4,1.4-5.5,3.2-6.2c0.8-0.3,1.5-0.4,2.3-0.4c1,0,1.7,0.3,1.8,0.4c0.4,0.3,0.6,0.8,0.6,1.3
					c0,0,0,0,0,0.1s0,0.4,0,0.7c0,1.4,0.1,4.4,1.8,7.3c2,3.8,5.5,5.8,6.8,6.3c0.1,0-3.1-12-3.7-14.2
					C106.6,12.9,104.7,10.2,99.5,10.2z"/>
				
					<linearGradient id="SVGID_2_" gradientUnits="userSpaceOnUse" x1="30.6169" y1="54.8742" x2="35.905" y2="66.9856" gradientTransform="matrix(1 0 0 -1 0 102)">
					<stop  offset="3.103500e-02" style="stop-color:#A6A6A6"/>
					<stop  offset="0.2" style="stop-color:#A6A6A6"/>
					<stop  offset="0.9897" style="stop-color:#4C4D4D"/>
				</linearGradient>
				<path class="st1" d="M42.6,37c0.8,0.8-0.6,0.7-4.8,1.1s-8.6,1.3-10.8,2.1c-1.7,0.6-2.7,1.1-3.4,2.5c0,0-1.4,3-1.5,4.2
					c-0.1,0.6,0,0.8,0.3,1.4c0.1,0.3,0.6-7.7,11-8.3c9.1-0.4,11.4-1.4,9.6-3.2L42.6,37z"/>
				
					<linearGradient id="SVGID_3_" gradientUnits="userSpaceOnUse" x1="102.8484" y1="83.9768" x2="96.3344" y2="84.593" gradientTransform="matrix(1 0 0 -1 0 102)">
					<stop  offset="0.1966" style="stop-color:#333333"/>
					<stop  offset="0.2597" style="stop-color:#353535"/>
					<stop  offset="0.2825" style="stop-color:#3C3C3C"/>
					<stop  offset="0.2987" style="stop-color:#474847"/>
					<stop  offset="0.3118" style="stop-color:#585858"/>
					<stop  offset="0.323" style="stop-color:#6E6E6E"/>
					<stop  offset="0.333" style="stop-color:#8A8A8A"/>
					<stop  offset="0.342" style="stop-color:#AAAAAA"/>
					<stop  offset="0.3503" style="stop-color:#D0D0D0"/>
					<stop  offset="0.3576" style="stop-color:#F9F9F9"/>
					<stop  offset="0.3586" style="stop-color:#FFFFFF"/>
					<stop  offset="0.8241" style="stop-color:#333333"/>
					<stop  offset="1" style="stop-color:#191A1A"/>
				</linearGradient>
				<path class="st2" d="M95.1,20.5c0,0,0.1-2.1,0.6-3.1c1-2.7,2.7-3.2,3.8-3.2c0.8,0,1.1,0.1,1.5,0.6c0.3,0.3,0.4,0.6,0.4,1
					c0,1.1,0.1,2.5,1.3,5.6c0,0.1,0.1,0.4,0.3,0.6c-1-2.5-1.1-4.8-1.1-6c0-0.4,0-0.8,0-0.8c0-0.8-1-1.1-1.8-1.1
					c-0.6,0-1.3,0.1-2,0.4c-1.4,0.6-2.8,2.4-2.8,5.5L95.1,20.5z"/>
				
					<linearGradient id="SVGID_4_" gradientUnits="userSpaceOnUse" x1="44.3102" y1="48.4371" x2="49.6694" y2="60.7117" gradientTransform="matrix(1 0 0 -1 0 102)">
					<stop  offset="0" style="stop-color:#CCCCCC"/>
					<stop  offset="0.1219" style="stop-color:#B8B8B8"/>
					<stop  offset="0.2537" style="stop-color:#ABABAB"/>
					<stop  offset="0.3681" style="stop-color:#A6A6A6"/>
					<stop  offset="0.9897" style="stop-color:#000000"/>
				</linearGradient>
				<path class="st3" d="M43.1,37.4c0.3,0.8-1,0.7-5.1,1c-4.2,0.4-8.6,1.3-10.8,2.1c-1.7,0.6-2.7,1.1-3.4,2.5c0,0-1.4,3-1.5,4.2
					c-0.1,0.6,0,0.8,0.3,1.4c0.4,0.7,0.7,0.8,1.4,0.4c0.6-0.3,2.8-1.5,4.4-1.7c1.4,0,2,0.8,2.1,1.5c0.1,0.4,0.7,0.3,0.8,0.1
					c0.6-0.1,1.1-0.3,3.4-0.4c2.5-0.1,12.5-0.1,16,0c3.2,0.1,16.2,10.1,16.3,10.3l0.7-1.3C63.3,53.8,47,40.9,43.1,37.1V37.4z"/>
				
					<linearGradient id="SVGID_5_" gradientUnits="userSpaceOnUse" x1="96.1638" y1="-9.6023" x2="0.4276" y2="87.792" gradientTransform="matrix(1 0 0 -1 0 102)">
					<stop  offset="7.692300e-02" style="stop-color:#808080"/>
					<stop  offset="0.1209" style="stop-color:#8C8C8C"/>
					<stop  offset="0.1703" style="stop-color:#666666"/>
					<stop  offset="0.3077" style="stop-color:#808080"/>
					<stop  offset="0.4725" style="stop-color:#F2F2F2"/>
					<stop  offset="0.6978" style="stop-color:#F2F2F2"/>
					<stop  offset="0.7209" style="stop-color:#E3E3E3"/>
					<stop  offset="0.7655" style="stop-color:#BBBBBB"/>
					<stop  offset="0.8268" style="stop-color:#7B7B7B"/>
					<stop  offset="0.8407" style="stop-color:#6B6B6B"/>
					<stop  offset="0.9615" style="stop-color:#333333"/>
				</linearGradient>
				<path class="st4" d="M80.2,45.3c2,2.4,7.7,9.4,12.8,15.9c7.7,10,12.7,17.9,17.7,29.4c0.6,1.1,0.1,1.3-0.7,2
					c-1.5,1.3-1.3,1.8-2.4,3.8c-0.1,0.3-0.4,0.6-0.8,0.6c-1.1-0.1-9.4-0.8-14.8-0.6c-3.2,0.1-4.1,0.3-4.8,0.6
					c-0.6,0.1-0.8,0.1-0.7-0.7c0-0.3,0.6-3.7,1.1-4.9c0.4-1.3,1.1-1.7,2.3-2c1.1-0.3,4.2-0.8,5.3-1.1c1.3-0.3,1.3-1.5,1.1-2.4
					c-0.1-0.8-0.8-2.1-1.7-2.3c-1.1-0.1-1.8-0.3-3.1-0.8c-1.1-0.6-18.1-14.2-19.7-15.5c-0.4-0.3-0.7-0.6-0.8-0.4
					c-0.1,0.1,0.1,0.6,0.3,0.7c0.3,0.3,2.8,3,3.4,3.5c0.4,0.4,0.1,0.6,0,0.8C74.4,72.1,66.4,80,63,83.5c-3.4,3.4-5.8,5.5-5.6,8.2
					c0,2.8,0.1,4.9,0.1,5.3s-0.4,0.4-0.8,0.4c-1-0.1-9-0.8-13.5-1s-7.7,0.3-9.8,0.8c-0.6,0.1-0.7-0.1-0.6-0.6c0-0.7,0.6-3.5,1.1-5.3
					c0.4-1.3,1.4-1.8,2.4-2c1.4-0.4,7.2-1.4,9.7-1.8c1.4-0.3,1.7-0.7,1.7-1.8c0-1.3-0.1-3.8-0.3-5.1c0-1.3,0.3-2.7,0.8-3.8
					c2-4.8,7-14.8,11.4-20.8c0.6-0.7,1-0.8,1.5-0.7c0.6,0.1,3.2,2.3,3.4,2.3c0.4,0.3,1.1,0,0.8-0.3c-1.5-1.5-6-4.4-8.9-6.5
					c-5.5-4.4-11.3-10.8-15.9-15.1c-2.4-2.3-4.9-3.8-6.9-4.2c-0.7-0.1-1.3-0.1-1.8-0.3c-0.3,0-0.3-0.3-0.3-0.4c0-0.3,0-0.8-0.6-1.5
					c-0.4-0.6-1.4-0.7-2.1-0.7c-1,0-2.5,0.1-3.4,0.4c-0.4,0.1-0.6,0-0.8-0.1c-0.1-0.1-0.4-0.7-0.4-1.3c0-0.4,0-0.7,0.3-1.1
					c0.6-1.1,2-2.1,2.8-3c0.8-0.8,1.4-0.8,2.3-1c2-0.3,4.5-0.4,7.2,0.1c2,0.4,3.4,1.1,5.3,2.1c1.8,1,12.8,6.5,14.2,7.2L80.2,45.3z"
					/>
				
					<radialGradient id="SVGID_6_" cx="54.9485" cy="75.2932" r="21.8328" gradientTransform="matrix(1 0 0 -1 0 102)" gradientUnits="userSpaceOnUse">
					<stop  offset="3.571400e-02" style="stop-color:#FFFFFF"/>
					<stop  offset="0.467" style="stop-color:#FFFFFF"/>
					<stop  offset="0.5179" style="stop-color:#FBFBFB"/>
					<stop  offset="0.5707" style="stop-color:#EEEEEE"/>
					<stop  offset="0.6243" style="stop-color:#DADADA"/>
					<stop  offset="0.6785" style="stop-color:#BDBDBD"/>
					<stop  offset="0.7326" style="stop-color:#989898"/>
					<stop  offset="0.7473" style="stop-color:#8C8C8C"/>
					<stop  offset="0.8462" style="stop-color:#666666"/>
					<stop  offset="1" style="stop-color:#333333"/>
				</radialGradient>
				<path class="st5" d="M62,25.6c0.3,1.4-0.7,2.3-1.1,3.1c-0.6,0.8-1.5,2.1-2.1,2.7c-0.7,0.8-2,0.6-2,0.6s6.3,3.2,9.8,5.1
					c1.4,0.7,3.7,0,5.2-2.8c0.4-0.7,2.7-5.5,3.2-6.9c0.6-1.4,1.4-3,0.1-5.6s-5.3-7.7-6.9-9.6c-0.8-1-1.8-1.5-3.9-1.7
					c-2.1-0.1-4.6,0.1-8,1.1c-3.4,0.8-7.7,2.7-7.9,2.8c-0.1,0-0.1,0.1,0,0.3c0,0.1,0.6,0.8,0.6,0.8s0.3,0.6,0.8,0.8
					c0.7,0.4,1.3,0.6,1.4,0.6c0.1,0,0.3,0,0.3-0.1c0-0.1,0.7-1.3,3.1-2c1.3-0.3,2.1-0.4,2.5-0.4c0.6,0,1.5,0.3,2.1,0.8
					c0.8,0.8,1.5,2.3,1.7,3c0.1,0.7,0,1.4-0.6,1.8c-0.7,0.3-2.5,0.8-3.8,0.8c-1.3,0.1-2.4,0-3.1-0.3c-0.1,0-0.1-0.1-0.3,0
					c-0.3,0.3-0.4,0.4-1,0.7c-0.1,0-0.1,0.3-0.1,0.4c0.1,0.3,1.5,2.7,2.5,3.4c0.8,0.7,1.4,0.4,2.4-0.3c1.1-0.6,1.8-1.3,3-1.3
					C60.9,23.5,61.9,24.4,62,25.6z"/>
				
					<radialGradient id="SVGID_7_" cx="59.8482" cy="47.9505" r="7.7085" gradientTransform="matrix(1 0 0 -0.9636 0 68.5057)" gradientUnits="userSpaceOnUse">
					<stop  offset="3.571400e-02" style="stop-color:#FFFFFF"/>
					<stop  offset="0.2276" style="stop-color:#FFFFFF"/>
					<stop  offset="0.2932" style="stop-color:#F6F6F6"/>
					<stop  offset="0.4021" style="stop-color:#DCDCDC"/>
					<stop  offset="0.5409" style="stop-color:#B3B3B3"/>
					<stop  offset="0.7042" style="stop-color:#797979"/>
					<stop  offset="0.886" style="stop-color:#313131"/>
					<stop  offset="1" style="stop-color:#000000"/>
				</radialGradient>
				<path class="st6" d="M60.1,20.1c-0.6,0.3-2.5,0.7-3.7,0.8c-1.3,0.1-2.4,0-3.1-0.3c-0.1,0-0.1,0-0.3,0c-0.3,0.1-0.4,0.4-1,0.7
					c-0.1,0-0.1,0.1-0.1,0.4c0.1,0.1,1.4,2.5,2.4,3.1c0.8,0.7,1.4,0.4,2.5-0.3c1.1-0.6,1.8-1.3,3-1.3L60.1,20.1z"/>
				
					<radialGradient id="SVGID_8_" cx="55.0287" cy="91.8029" r="9.0649" gradientTransform="matrix(1 0 0 -1 0 102)" gradientUnits="userSpaceOnUse">
					<stop  offset="0.2308" style="stop-color:#FFFFFF"/>
					<stop  offset="0.5714" style="stop-color:#F5F5F5"/>
					<stop  offset="0.8626" style="stop-color:#000000"/>
				</radialGradient>
				<path class="st7" d="M56.1,11.6c-3.2,0.8-7.3,2.4-7.5,2.5c-0.1,0-0.1,0.3,0,0.3c0,0.1,0.4,0.8,0.4,0.8s0.3,0.4,0.8,0.8
					c0.6,0.3,1.1,0.6,1.3,0.6c0.1,0,0.3,0,0.3-0.1c0-0.1,0.7-1.3,3.1-2c1.3-0.3,2.1-0.4,2.5-0.4L56.1,11.6z"/>
				
					<radialGradient id="SVGID_9_" cx="70.2212" cy="74.1144" r="30.5389" gradientTransform="matrix(1 0 0 -1 0 102)" gradientUnits="userSpaceOnUse">
					<stop  offset="3.571400e-02" style="stop-color:#FFFFFF"/>
					<stop  offset="0.2527" style="stop-color:#FFFFFF"/>
					<stop  offset="0.2708" style="stop-color:#FBFBFB"/>
					<stop  offset="0.2894" style="stop-color:#EEEEEE"/>
					<stop  offset="0.3084" style="stop-color:#DADADA"/>
					<stop  offset="0.3275" style="stop-color:#BDBDBD"/>
					<stop  offset="0.3462" style="stop-color:#999999"/>
					<stop  offset="0.4121" style="stop-color:#666666"/>
					<stop  offset="0.4725" style="stop-color:#333333"/>
					<stop  offset="0.8571" style="stop-color:#333333"/>
				</radialGradient>
				<path class="st8" d="M62.2,25.7c0.3,1.4-0.7,2.4-1.1,3.2c-0.6,0.8-1.5,2.1-2.1,2.7c-0.7,0.8-1.7,0.6-1.7,0.6s5.9,3,9.6,4.8
					c1.4,0.7,3.7,0.3,5.1-2.7c0.4-0.7,2.7-5.5,3.2-6.9L62.2,25.7z"/>
				<g>
					
						<linearGradient id="SVGID_10_" gradientUnits="userSpaceOnUse" x1="48.9025" y1="56.6863" x2="33.9517" y2="52.9486" gradientTransform="matrix(1 0 0 -1 0 102)">
						<stop  offset="0" style="stop-color:#F2F2F2"/>
						<stop  offset="8.055412e-02" style="stop-color:#DDDDDD"/>
						<stop  offset="0.2582" style="stop-color:#B2B3B2"/>
						<stop  offset="0.2996" style="stop-color:#C6C6C6"/>
						<stop  offset="0.3578" style="stop-color:#DADADA"/>
						<stop  offset="0.4245" style="stop-color:#E8E8E8"/>
						<stop  offset="0.5065" style="stop-color:#F0F0F0"/>
						<stop  offset="0.6484" style="stop-color:#F2F2F2"/>
						<stop  offset="0.8956" style="stop-color:#FFFFFF"/>
					</linearGradient>
					<path class="st9" d="M32.6,48.1c-0.3-0.1-0.3-0.4,0.1-0.8c0.3-0.3,1.8-1.5,2.8-1.8c1-0.3,4.6-0.6,6-0.7c0.4,0,5.9-0.6,6.5-0.4
						c0.6,0,1.8,2,3.2,3.7c-0.1,0-4.9-0.1-9-0.1c-3.8,0-7.3,0.1-8.4,0.3C33.4,48.1,32.8,48.1,32.6,48.1z"/>
					<path class="st10" d="M32.5,48.1L32.5,48.1L32.5,48.1c-0.1,0-0.3-0.1-0.3-0.3l0,0c0-0.1,0.1-0.4,0.3-0.6l0,0
						c0.3-0.3,1.8-1.5,2.8-1.8l0,0c1-0.3,4.6-0.6,6-0.7l0,0c0.4,0,5.6-0.6,6.5-0.6l0,0l0,0l0,0c0.1,0,0.3,0.1,0.6,0.4l0,0
						c0.3,0.3,0.4,0.6,0.7,0.8l0,0c0.6,0.7,1.3,1.5,2,2.4l0,0l0.1,0.1h-0.1c0,0,0,0-0.1,0l0,0c-0.6,0-4.8-0.1-8.4-0.1l0,0
						c-0.1,0-0.4,0-0.6,0l0,0c-3.8,0-7.3,0.1-8.4,0.3l0,0c-0.3,0-0.6,0-0.8,0l0,0C32.8,48.1,32.6,48.1,32.5,48.1L32.5,48.1z
						 M32.9,47.9c0.3,0,0.6,0,0.8,0l0,0c1.3-0.1,4.6-0.3,8.6-0.3l0,0c0.1,0,0.4,0,0.6,0l0,0c3.5,0,7.5,0.1,8.3,0.1l0,0
						c-1.1-1.1-2-2.5-2.7-3.1l0,0c-0.1-0.3-0.4-0.3-0.4-0.3l0,0l0,0l0,0c-0.7,0-6,0.4-6.5,0.4l0,0c-1.5,0.1-5.1,0.4-6,0.7l0,0
						c-1,0.3-2.7,1.5-2.8,1.8l0,0c-0.1,0.1-0.3,0.4-0.3,0.4l0,0c0,0.1,0,0.1,0.1,0.3l0,0l0,0C32.6,47.9,32.8,47.9,32.9,47.9
						L32.9,47.9z"/>
				</g>
				<g>
					<g>
						
							<linearGradient id="SVGID_11_" gradientUnits="userSpaceOnUse" x1="1454.0217" y1="-881.7348" x2="1610.2592" y2="-1072.0889" gradientTransform="matrix(0.4383 0 0 -0.4383 -589.2472 -378.707)">
							<stop  offset="0" style="stop-color:#FFFFFF"/>
							<stop  offset="6.896600e-02" style="stop-color:#DEDEDE"/>
							<stop  offset="0.1565" style="stop-color:#FFFFFF"/>
							<stop  offset="0.2033" style="stop-color:#FFFFFF"/>
							<stop  offset="0.2785" style="stop-color:#DEDEDE"/>
							<stop  offset="0.3297" style="stop-color:#CCCCCC"/>
							<stop  offset="0.3357" style="stop-color:#D1D1D1"/>
							<stop  offset="0.3647" style="stop-color:#E6E6E6"/>
							<stop  offset="0.3976" style="stop-color:#F4F4F4"/>
							<stop  offset="0.4372" style="stop-color:#FCFCFC"/>
							<stop  offset="0.502" style="stop-color:#FFFFFF"/>
							<stop  offset="0.8852" style="stop-color:#FFFFFF"/>
							<stop  offset="0.9797" style="stop-color:#B0B0B0"/>
						</linearGradient>
						<path class="st11" d="M112,91c-1.7-4.2-6.3-13.4-12.8-22.8c-6.3-9.3-17-21.9-18.6-24.1c-1.4-2.1-2-4.4,1-5.3
							c2-0.6,6.8-1.5,8.7-2.1c1.8-0.6,2-1.1,2.3-2.5c0.1-1.5-0.3-9.3-1.3-13.9c-0.1-1-0.8-1.7-1.5-2.3c-0.7-0.4-3.2-2.8-4.8-4.4
							c-1.7-1.8-2.4-3.7-2.7-5.1c0,0,0-0.3-0.4-0.6c-0.1-0.1-0.3-0.1-0.4-0.3C78.6,6,68.5,3.2,66.5,3.1c-1.4-0.1-6.3,0.6-11,3.2
							c-1.3,0.8-1.4,1.8-2.4,2.4c-1,0.6-3.1,1-5.3,2c-1.3,0.6-1.3,0.7-1,1.4c0.1,0.3,1,1.7,1.3,1.7c0.4,0,0.8-0.1,1.4-0.4
							c0.7-0.3,5.1-2,8.6-2.7c3.9-0.8,8.2-0.8,9.6,0.7c2.3,2.4,6.2,7.7,7.5,10.1c1.1,2.3,1.1,3.4,0.3,5.8c-0.7,2.3-3.5,7.9-4.2,9
							c-0.8,1.1-1.8,1.8-4.2,0.8c-2.5-1-11.8-5.8-13.9-6.9c-1.4-0.7-7.2-3.7-11.5-5.8c-1.5-0.8-3-1.4-4.4-1.8
							c-3.2-0.8-6.6-0.4-8.2-0.1c-0.7,0.1-1.1,1.3-1.1,1.7c0,0.6,1.7,0.1,3.1,0.3c1.1,0.1,5.1,0.6,7.3,1.4c2.4,1,14.2,7.3,17.2,9
							c22.8,12.4,32.5,20.4,50.1,49.9c0.8,1.3,1.1,3-0.1,3.4c-1.8,0.6-9.3,2-11.5,2.7c-2,0.6-2.1,0.8-2.4,1.7
							c-0.3,1.1-0.8,3.2-0.7,3.7c0,0.1-0.1,0.4,0.3,0.4c2.1,0,9.7,0,15.5,0.6c0.7,0.1,0.7,0,1.1-0.6c0.6-0.8,2.5-3.1,3.8-4.1
							C112.5,92,112.1,91.3,112,91z"/>
					</g>
				</g>
				
					<linearGradient id="SVGID_12_" gradientUnits="userSpaceOnUse" x1="30.7675" y1="78.1259" x2="100.755" y2="11.6525" gradientTransform="matrix(1 0 0 -1 0 102)">
					<stop  offset="0" style="stop-color:#D9D9D9"/>
					<stop  offset="4.297529e-02" style="stop-color:#C3C4C3"/>
					<stop  offset="0.1571" style="stop-color:#909090"/>
					<stop  offset="0.2643" style="stop-color:#686868"/>
					<stop  offset="0.3616" style="stop-color:#4B4B4B"/>
					<stop  offset="0.4457" style="stop-color:#393939"/>
					<stop  offset="0.5069" style="stop-color:#333333"/>
					<stop  offset="0.5726" style="stop-color:#383838"/>
					<stop  offset="0.6507" style="stop-color:#464746"/>
					<stop  offset="0.735" style="stop-color:#5E5E5E"/>
					<stop  offset="0.8238" style="stop-color:#808080"/>
					<stop  offset="0.915" style="stop-color:#AAAAAA"/>
					<stop  offset="1" style="stop-color:#D9D9D9"/>
				</linearGradient>
				<path class="st12" d="M106.6,86.6c-0.1-1.3-1.3-3-3.2-6s-4.5-7.3-7.7-12C89.8,60.3,84,53.8,77,48.2c-5.3-4.2-10.8-7.6-14.9-10
					C58,35.8,40.8,26.4,38.1,25.6c-2.4-0.7-4.4-1-6-1.1c-1.1-0.1-2.1,0-3.2,0c-1,0-0.7-0.8-0.6-1.1c-0.1,0.3-0.7,1.3,0.3,1.3
					c0.7,0,2.4,0,3.5,0c2.1,0.3,4.8,0.8,6.5,1.4c2.4,1,13.6,7.6,16.5,9.3c8.9,5.1,15.5,9.7,21.7,14.6c9.6,7.7,17.7,16.6,28.1,34.6
					c0.4,0.7,0.6,1.3,0.6,1.8c0,1-0.8,1.4-1.1,1.4c-1.8,0.6-9,2.1-11.3,3c-1.8,0.7-2.1,1-2.4,2c-0.1,0.4-0.4,2.1-0.7,2.5
					c-0.4,0.4-1.3,0.6-2.1,0.6c-0.6,0-0.8,0-0.7-0.6c0-0.6,0.4-2.3,0.6-3.2c0.1-1,0.6-1.7,1.4-2.3c0.8-0.6,3.9-1,5.6-1.4
					c1.7-0.4,1.8-1.3,1.7-2.5c0,1.4-0.4,1.7-2.1,2.1s-4.6,0.7-5.6,1.4s-1.3,1.5-1.4,2.3c-0.6,2.4-1,4.2-0.8,4.8
					c0,0.6,0.3,0.6,0.8,0.6c0.6,0,2.1-0.3,4.2-0.4c0.7,0,0.6-0.8,0.6-1.7c0-0.3,0-1.3,0.1-1.7c0.1-0.4,0.6-0.8,1.1-1
					c1.3-0.4,8-2.3,11.4-3.2C106.2,88.4,106.8,88,106.6,86.6z"/>
				
					<linearGradient id="SVGID_13_" gradientUnits="userSpaceOnUse" x1="64.4597" y1="45.9942" x2="37.1881" y2="5.2231" gradientTransform="matrix(1 0 0 -1 0 102)">
					<stop  offset="0" style="stop-color:#BFBFBF"/>
					<stop  offset="0.1" style="stop-color:#FFFFFF"/>
					<stop  offset="0.3492" style="stop-color:#EDEDED"/>
					<stop  offset="0.4228" style="stop-color:#F6F6F6"/>
					<stop  offset="0.5385" style="stop-color:#FFFFFF"/>
					<stop  offset="0.5442" style="stop-color:#F4F4F4"/>
					<stop  offset="0.5799" style="stop-color:#B2B2B2"/>
					<stop  offset="0.6139" style="stop-color:#7C7C7C"/>
					<stop  offset="0.6453" style="stop-color:#515151"/>
					<stop  offset="0.6735" style="stop-color:#333333"/>
					<stop  offset="0.6974" style="stop-color:#202020"/>
					<stop  offset="0.7143" style="stop-color:#191A1A"/>
					<stop  offset="0.7229" style="stop-color:#373737"/>
					<stop  offset="0.7398" style="stop-color:#6C6C6C"/>
					<stop  offset="0.757" style="stop-color:#999999"/>
					<stop  offset="0.7741" style="stop-color:#BEBEBE"/>
					<stop  offset="0.7912" style="stop-color:#DADADA"/>
					<stop  offset="0.8081" style="stop-color:#EFEFEF"/>
					<stop  offset="0.8249" style="stop-color:#FBFBFB"/>
					<stop  offset="0.8414" style="stop-color:#FFFFFF"/>
					<stop  offset="0.85" style="stop-color:#FAFAFA"/>
					<stop  offset="0.8597" style="stop-color:#EDEDED"/>
					<stop  offset="0.87" style="stop-color:#D6D6D6"/>
					<stop  offset="0.8806" style="stop-color:#B7B7B7"/>
					<stop  offset="0.8915" style="stop-color:#8E8E8E"/>
					<stop  offset="0.9025" style="stop-color:#5D5D5D"/>
					<stop  offset="0.9103" style="stop-color:#363636"/>
					<stop  offset="0.9451" style="stop-color:#363636"/>
					<stop  offset="1" style="stop-color:#737373"/>
				</linearGradient>
				<path class="st13" d="M61.5,55c0.4,0.1,1.3,0.7,2,1.3c0.6,0.4,1,0.7,1,0.7c-4.5,5.6-11.3,15.5-13.5,19.7
					c-1.1,2.1-1.1,3.1-1.1,5.1c0,2,0.3,4.2,0.1,5.3c-0.1,1.1-0.8,1.5-2,1.8c-1.1,0.3-7.6,1.4-9.1,1.8c-1.4,0.4-1.8,1.3-2,2.3
					c-0.3,1-0.3,1.7-0.4,2.1c-0.1,0.4,0,0.7-0.4,0.8c-0.4,0-1.4,0.1-1.8,0.1s-0.6,0-0.6-0.6c0-0.6,0.4-2.8,0.8-3.9
					c0.3-1.3,0.8-2,2.5-2.4c1.7-0.4,8.3-1.5,9.6-1.7c1.5-0.3,1.8-0.8,1.8-2.3c-0.1-1.5-0.3-3.5-0.3-4.8s0-2.3,0.4-3.5
					s2.8-6.3,4.8-10c2.7-5.1,6-10.4,6.8-11.1C60.5,55,60.9,54.7,61.5,55z"/>
				
					<linearGradient id="SVGID_14_" gradientUnits="userSpaceOnUse" x1="61.448" y1="24.7101" x2="68.6467" y2="20.4698" gradientTransform="matrix(1 0 0 -1 0 102)">
					<stop  offset="0.2" style="stop-color:#FFFFFF"/>
					<stop  offset="0.3197" style="stop-color:#FDFDFD"/>
					<stop  offset="0.3903" style="stop-color:#F4F4F4"/>
					<stop  offset="0.4482" style="stop-color:#E6E6E6"/>
					<stop  offset="0.4989" style="stop-color:#D2D2D2"/>
					<stop  offset="0.5207" style="stop-color:#C7C7C7"/>
					<stop  offset="0.8189" style="stop-color:#3B3B3B"/>
					<stop  offset="0.8352" style="stop-color:#333333"/>
					<stop  offset="0.9389" style="stop-color:#242424"/>
					<stop  offset="1" style="stop-color:#191A1A"/>
				</linearGradient>
				<path class="st14" d="M57.7,91.5c0-1.1,0.4-2.3,1.1-3.4c1-1.4,2.5-3,4.5-4.9c3.4-3.5,11.5-11.4,11.8-11.7c0.1-0.1,0.4-0.4,0-0.8
					c-0.8-0.8-1.3-1.3-2.5-2.5c-0.8-0.8-1.3-1.3-1.3-1.5c0,0-9.1,10.3-12.1,17.7C58,87,57.7,88.6,57.7,90
					C57.5,91.1,57.7,91.5,57.7,91.5z"/>
				
					<linearGradient id="SVGID_15_" gradientUnits="userSpaceOnUse" x1="65.4665" y1="44.2491" x2="73.0383" y2="53.3143" gradientTransform="matrix(1 0 0 -1 0 102)">
					<stop  offset="2.197800e-02" style="stop-color:#FFFFFF"/>
					<stop  offset="0.1828" style="stop-color:#FFFFFF"/>
					<stop  offset="0.2088" style="stop-color:#FFFFFF"/>
					<stop  offset="0.3037" style="stop-color:#F7F7F7"/>
					<stop  offset="0.4491" style="stop-color:#E2E2E2"/>
					<stop  offset="0.5" style="stop-color:#D9D9D9"/>
					<stop  offset="0.5971" style="stop-color:#C5C5C5"/>
					<stop  offset="0.8268" style="stop-color:#9C9C9C"/>
					<stop  offset="0.9451" style="stop-color:#8C8C8C"/>
					<stop  offset="1" style="stop-color:#858585"/>
				</linearGradient>
				<path class="st15" d="M28.9,24.6c1.3,0,2.4,0,3.5,0.1c2.1,0.3,4.8,0.8,6.5,1.5c0.8,0.4,3,1.5,5.3,2.8c4.2,2.4,9.4,5.5,11.3,6.5
					c6.5,3.7,11.7,7.2,16.6,10.7c1.7,1.3,3.4,2.7,5.1,3.9c9.6,7.7,17.4,16.3,27.9,34.6c0.4,0.7,0.6,1.3,0.4,1.8
					c0,0.6-0.6,1.1-1.3,1.3L28.9,24.6z"/>
				
					<linearGradient id="SVGID_16_" gradientUnits="userSpaceOnUse" x1="82.3528" y1="94.9547" x2="92.216" y2="84.8647" gradientTransform="matrix(1 0 0 -1 0 102)">
					<stop  offset="0" style="stop-color:#000000"/>
					<stop  offset="4.349559e-02" style="stop-color:#020302"/>
					<stop  offset="6.841232e-02" style="stop-color:#0B0B0B"/>
					<stop  offset="8.864626e-02" style="stop-color:#191919"/>
					<stop  offset="0.1064" style="stop-color:#2C2D2C"/>
					<stop  offset="0.1224" style="stop-color:#464646"/>
					<stop  offset="0.1373" style="stop-color:#666666"/>
					<stop  offset="0.1513" style="stop-color:#8C8C8C"/>
					<stop  offset="0.1646" style="stop-color:#B7B7B7"/>
					<stop  offset="0.1768" style="stop-color:#E7E7E7"/>
					<stop  offset="0.1793" style="stop-color:#F2F2F2"/>
					<stop  offset="0.1929" style="stop-color:#E4E4E4"/>
					<stop  offset="0.2458" style="stop-color:#B2B2B2"/>
					<stop  offset="0.2999" style="stop-color:#878787"/>
					<stop  offset="0.3543" style="stop-color:#646464"/>
					<stop  offset="0.4091" style="stop-color:#494949"/>
					<stop  offset="0.4645" style="stop-color:#363636"/>
					<stop  offset="0.5207" style="stop-color:#2A2A2A"/>
					<stop  offset="0.5793" style="stop-color:#262626"/>
					<stop  offset="0.7135" style="stop-color:#1F1F1F"/>
					<stop  offset="0.911" style="stop-color:#0B0B0B"/>
					<stop  offset="1" style="stop-color:#000000"/>
				</linearGradient>
				<path class="st16" d="M91.2,16L91.2,16L91.2,16c-0.4,0-0.7-0.1-0.8-0.3c-1.5-1.1-5.8-4.4-6.3-7.2c-0.4-1.3,0.1-0.7-1.3-1.4
					C82.3,7,82,6.9,81.6,6.7c0.1,0,0.3,0.1,0.4,0.1c0.1,0.1,0.3,0.3,0.6,0.4c0.6,0.4,0.6,1,0.7,1c0.3,1.3,1,3,2.5,4.6
					c1.4,1.5,4.2,3.9,4.8,4.2c0.4,0.3,0.7,0.6,1,0.8c0.1-1,0.4-2,0.8-3c0,0.1-0.1,0.3-0.3,0.4C91.9,15.7,91.6,16,91.2,16z"/>
				
					<linearGradient id="SVGID_17_" gradientUnits="userSpaceOnUse" x1="83.4086" y1="52.8656" x2="94.6327" y2="60.2349" gradientTransform="matrix(1 0 0 -1 0 102)">
					<stop  offset="0" style="stop-color:#000000"/>
					<stop  offset="4.349559e-02" style="stop-color:#020302"/>
					<stop  offset="6.841232e-02" style="stop-color:#0B0B0B"/>
					<stop  offset="8.864626e-02" style="stop-color:#191919"/>
					<stop  offset="0.1064" style="stop-color:#2C2D2C"/>
					<stop  offset="0.1224" style="stop-color:#464646"/>
					<stop  offset="0.1373" style="stop-color:#666666"/>
					<stop  offset="0.1513" style="stop-color:#8C8C8C"/>
					<stop  offset="0.1646" style="stop-color:#B7B7B7"/>
					<stop  offset="0.1768" style="stop-color:#E7E7E7"/>
					<stop  offset="0.1793" style="stop-color:#F2F2F2"/>
					<stop  offset="0.1929" style="stop-color:#E4E4E4"/>
					<stop  offset="0.2458" style="stop-color:#B2B2B2"/>
					<stop  offset="0.2999" style="stop-color:#878787"/>
					<stop  offset="0.3543" style="stop-color:#646464"/>
					<stop  offset="0.4091" style="stop-color:#494949"/>
					<stop  offset="0.4645" style="stop-color:#363636"/>
					<stop  offset="0.5207" style="stop-color:#2A2A2A"/>
					<stop  offset="0.5793" style="stop-color:#262626"/>
					<stop  offset="0.7135" style="stop-color:#1F1F1F"/>
					<stop  offset="0.911" style="stop-color:#0B0B0B"/>
					<stop  offset="1" style="stop-color:#000000"/>
				</linearGradient>
				<path class="st17" d="M82,39.6c-1.4,0.6-1.5,1-1.7,1.7l0,0c0,0.7,0.3,1.7,1,2.5c0.7,1,4.2,5.1,8.3,10c0.4,0.6,0.7,0.7,1,1.1
					c-0.1-0.1-5.8-7.3-7.5-9.3c-0.4-0.6-1-1.4-1.1-2.4c0-1,0.7-2.4,2.4-3c2.1-0.8,6-2,6.9-2.5c0.8-0.4,1.1-0.7,1.3-1.3
					c-0.4,0.4-1,0.6-1.7,0.8C88.8,37.9,83.9,39.1,82,39.6z"/>
				<g>
					
						<linearGradient id="SVGID_18_" gradientUnits="userSpaceOnUse" x1="92.3996" y1="88.7427" x2="107.1384" y2="88.7427" gradientTransform="matrix(1 0 0 -1 0 102)">
						<stop  offset="0" style="stop-color:#4C4D4D"/>
						<stop  offset="0.2857" style="stop-color:#CCCCCC"/>
						<stop  offset="0.2991" style="stop-color:#C0C0C0"/>
						<stop  offset="0.3504" style="stop-color:#979797"/>
						<stop  offset="0.4006" style="stop-color:#767676"/>
						<stop  offset="0.4488" style="stop-color:#5F5F5F"/>
						<stop  offset="0.4939" style="stop-color:#515151"/>
						<stop  offset="0.533" style="stop-color:#4C4D4D"/>
						<stop  offset="0.7582" style="stop-color:#191A1A"/>
						<stop  offset="1" style="stop-color:#000000"/>
					</linearGradient>
					<path class="st18" d="M92.4,16.4c0.7-2.7,3.2-5.9,7-5.9c4.9,0,7,1.8,7.7,4.6c-0.8-3.9-4.4-5.2-7.7-5.1
						C95.7,10.2,93.1,13.5,92.4,16.4z"/>
				</g>
				
					<linearGradient id="SVGID_19_" gradientUnits="userSpaceOnUse" x1="32.2466" y1="12.0055" x2="66.2318" y2="12.0055" gradientTransform="matrix(1 0 0 -1 0 102)">
					<stop  offset="0" style="stop-color:#000000"/>
					<stop  offset="5.118979e-02" style="stop-color:#020302"/>
					<stop  offset="8.051176e-02" style="stop-color:#0B0B0B"/>
					<stop  offset="0.1043" style="stop-color:#191919"/>
					<stop  offset="0.1252" style="stop-color:#2C2D2C"/>
					<stop  offset="0.144" style="stop-color:#464646"/>
					<stop  offset="0.1615" style="stop-color:#666666"/>
					<stop  offset="0.1777" style="stop-color:#8B8B8B"/>
					<stop  offset="0.1793" style="stop-color:#8F8F8F"/>
					<stop  offset="0.1944" style="stop-color:#878787"/>
					<stop  offset="0.2688" style="stop-color:#646464"/>
					<stop  offset="0.3444" style="stop-color:#494949"/>
					<stop  offset="0.4208" style="stop-color:#363636"/>
					<stop  offset="0.4984" style="stop-color:#2A2A2A"/>
					<stop  offset="0.5793" style="stop-color:#262626"/>
					<stop  offset="0.7135" style="stop-color:#1F1F1F"/>
					<stop  offset="0.911" style="stop-color:#0B0B0B"/>
					<stop  offset="1" style="stop-color:#000000"/>
				</linearGradient>
				<path class="st19" d="M60.4,87.9c0.7-0.7,3.2-3.5,5.9-6.5c-1,0.8-1.7,1.5-2.4,2.3c-3.8,3.9-5.5,5.1-5.5,7.6
					c0,1.4,0.1,4.9,0.1,5.5c0,0.4,0,0.7-0.6,1c-0.3,0.1-0.8,0.1-1.1,0.1c-1,0-11.1-1-14.6-1c-3.5,0-6.6,0.4-8.4,0.8
					c-0.3,0-1.1,0-1.4-0.4c-0.1-0.3-0.3-0.4-0.3-0.7c-0.1,0.7-0.1,1.5-0.1,1.8c0.7-0.1,2.1-0.3,4.1-0.4c2.5-0.1,5.2-0.1,7.2-0.1
					c1.8,0,15.8,0.7,15.8,0.7c-0.1-1.1-0.3-3.7-0.3-5.2c0-0.4,0-0.4,0-1.5C58.8,90.6,59.1,89.2,60.4,87.9z"/>
				
					<linearGradient id="SVGID_20_" gradientUnits="userSpaceOnUse" x1="75.4878" y1="25.0169" x2="90.6795" y2="25.0169" gradientTransform="matrix(1 0 0 -1 0 102)">
					<stop  offset="0" style="stop-color:#000000"/>
					<stop  offset="5.118979e-02" style="stop-color:#020302"/>
					<stop  offset="8.051176e-02" style="stop-color:#0B0B0B"/>
					<stop  offset="0.1043" style="stop-color:#191919"/>
					<stop  offset="0.1252" style="stop-color:#2C2D2C"/>
					<stop  offset="0.144" style="stop-color:#464646"/>
					<stop  offset="0.1615" style="stop-color:#666666"/>
					<stop  offset="0.1777" style="stop-color:#8B8B8B"/>
					<stop  offset="0.1793" style="stop-color:#8F8F8F"/>
					<stop  offset="0.1944" style="stop-color:#878787"/>
					<stop  offset="0.2688" style="stop-color:#646464"/>
					<stop  offset="0.3444" style="stop-color:#494949"/>
					<stop  offset="0.4208" style="stop-color:#363636"/>
					<stop  offset="0.4984" style="stop-color:#2A2A2A"/>
					<stop  offset="0.5793" style="stop-color:#262626"/>
					<stop  offset="0.7135" style="stop-color:#1F1F1F"/>
					<stop  offset="0.911" style="stop-color:#0B0B0B"/>
					<stop  offset="1" style="stop-color:#000000"/>
				</linearGradient>
				<path class="st20" d="M88.4,81.4c0.8,0.6,1.5,1,2.3,1.3c-0.7-0.4-1.5-1.1-2.8-2.1c-1.8-1.4-4.1-3.2-6.3-4.9
					c-2-1.5-3.9-3.1-5.5-4.4c0,0.6-0.4,0.8-0.6,1c0.4,0,0.7,0.3,1,0.6C77.2,73.4,86.5,80,88.4,81.4z"/>
				
					<linearGradient id="SVGID_21_" gradientUnits="userSpaceOnUse" x1="85.6651" y1="23.0457" x2="113.584" y2="23.0457" gradientTransform="matrix(1 0 0 -1 0 102)">
					<stop  offset="0" style="stop-color:#000000"/>
					<stop  offset="5.118979e-02" style="stop-color:#020302"/>
					<stop  offset="8.051176e-02" style="stop-color:#0B0B0B"/>
					<stop  offset="0.1043" style="stop-color:#191919"/>
					<stop  offset="0.1252" style="stop-color:#2C2D2C"/>
					<stop  offset="0.144" style="stop-color:#464646"/>
					<stop  offset="0.1615" style="stop-color:#666666"/>
					<stop  offset="0.1777" style="stop-color:#8B8B8B"/>
					<stop  offset="0.1793" style="stop-color:#8F8F8F"/>
					<stop  offset="0.1944" style="stop-color:#878787"/>
					<stop  offset="0.2688" style="stop-color:#646464"/>
					<stop  offset="0.3444" style="stop-color:#494949"/>
					<stop  offset="0.4208" style="stop-color:#363636"/>
					<stop  offset="0.4984" style="stop-color:#2A2A2A"/>
					<stop  offset="0.5793" style="stop-color:#262626"/>
					<stop  offset="0.7135" style="stop-color:#1F1F1F"/>
					<stop  offset="0.911" style="stop-color:#0B0B0B"/>
					<stop  offset="1" style="stop-color:#000000"/>
				</linearGradient>
				<path class="st21" d="M113.1,93.4c0.3-0.3,0.4-0.3,0.4-0.4c0-0.1-0.1-0.6-0.3-1c-1.8-5.3-9-18.7-14.6-26
					c-0.6-0.7-0.8-1.7-0.8-2.3c0-0.8,0.4-1.5,0.8-1.8c0.4-0.3,1.3-1.1,2.5-2.4c-2,1.4-3.2,2.5-3.4,3.1c-0.1,0.3-0.3,0.6-0.3,1
					c0,0.6,0.1,1.4,1,2.4c0.4,0.6,0.8,1.3,1.3,1.8c6.5,9.6,11,18.7,12.7,23.1c0.4,1,0.3,1.5,0,2c0,0-3.4,3.5-3.8,4.1
					c-0.1,0.3-0.3,0.4-0.6,0.7c-0.3,0.3-0.8,0.3-1.4,0.3c-4.9-0.4-10.4-0.7-13.1-0.7c-3.5,0-5.6,0.3-6.8,0.4c-0.7,0-1.1-0.1-1.1-0.3
					l0,0c0,0.6-0.1,0.8-0.1,1c2.1-0.4,5.1-0.6,8.2-0.6c1,0,2.1,0,3.1,0c5.2,0.1,11.4,0.7,11.4,0.7C108.5,98.6,111.3,94.8,113.1,93.4
					z"/>
				
					<linearGradient id="SVGID_22_" gradientUnits="userSpaceOnUse" x1="30.7545" y1="50.3338" x2="59.8719" y2="50.3338" gradientTransform="matrix(1 0 0 -1 0 102)">
					<stop  offset="0" style="stop-color:#666666"/>
					<stop  offset="5.677871e-02" style="stop-color:#686968"/>
					<stop  offset="8.929450e-02" style="stop-color:#717171"/>
					<stop  offset="0.1157" style="stop-color:#7F7F7F"/>
					<stop  offset="0.1388" style="stop-color:#929292"/>
					<stop  offset="0.1596" style="stop-color:#ACACAC"/>
					<stop  offset="0.1787" style="stop-color:#CBCBCB"/>
					<stop  offset="0.1793" style="stop-color:#CCCCCC"/>
					<stop  offset="0.2072" style="stop-color:#BEBEBE"/>
					<stop  offset="0.3158" style="stop-color:#8C8C8C"/>
					<stop  offset="0.4268" style="stop-color:#616161"/>
					<stop  offset="0.5384" style="stop-color:#3E3E3E"/>
					<stop  offset="0.6508" style="stop-color:#232323"/>
					<stop  offset="0.7644" style="stop-color:#0F100F"/>
					<stop  offset="0.8798" style="stop-color:#040404"/>
					<stop  offset="1" style="stop-color:#000000"/>
				</linearGradient>
				<path class="st22" d="M59.8,54.4c-1.5-1.1-3.2-2.3-4.8-3.2c-2-1.3-3.9-2.1-4.5-2.1c-6-0.1-6-0.1-9.7-0.1c-2.8,0-5.5,0.1-6.5,0.1
					c-2.1,0.1-3.1,0.4-3.4,0.4c-0.1,0-0.3,0-0.3,0c0,0.1,0.1,0.3,0.1,0.3s0.1,0,0.3-0.1c1.3-0.4,4.1-0.6,7.7-0.6c3.4,0,7,0,9,0.1
					c1.7,0.1,4.1,0.3,6,1.4C55.7,51.7,59.7,54.5,59.8,54.4z"/>
				
					<linearGradient id="SVGID_23_" gradientUnits="userSpaceOnUse" x1="31.3979" y1="68.0424" x2="41.7544" y2="68.0424" gradientTransform="matrix(1 0 0 -1 0 102)">
					<stop  offset="0" style="stop-color:#262626"/>
					<stop  offset="4.889393e-02" style="stop-color:#292929"/>
					<stop  offset="7.689209e-02" style="stop-color:#313131"/>
					<stop  offset="9.961995e-02" style="stop-color:#3F3F3F"/>
					<stop  offset="0.1195" style="stop-color:#535353"/>
					<stop  offset="0.1376" style="stop-color:#6C6C6C"/>
					<stop  offset="0.1543" style="stop-color:#8C8C8C"/>
					<stop  offset="0.1697" style="stop-color:#B1B1B1"/>
					<stop  offset="0.1793" style="stop-color:#CCCCCC"/>
					<stop  offset="0.2072" style="stop-color:#BEBEBE"/>
					<stop  offset="0.3158" style="stop-color:#8C8C8C"/>
					<stop  offset="0.4268" style="stop-color:#616161"/>
					<stop  offset="0.5384" style="stop-color:#3E3E3E"/>
					<stop  offset="0.6508" style="stop-color:#232323"/>
					<stop  offset="0.7644" style="stop-color:#0F100F"/>
					<stop  offset="0.8798" style="stop-color:#040404"/>
					<stop  offset="1" style="stop-color:#000000"/>
				</linearGradient>
				<path class="st23" d="M41.5,36.7c-2.3-2.1-5.8-4.6-7.5-4.9c-0.6-0.1-1.4-0.1-2.1-0.3c-0.6,0-0.4-0.6-0.6-0.7c0,0.1,0,1,0.4,1
					c0.4,0,1.7-0.1,2.8,0.4c1.5,0.7,5.5,3.7,6,4.4C41.4,37.4,42.2,37.2,41.5,36.7z"/>
				
					<linearGradient id="SVGID_24_" gradientUnits="userSpaceOnUse" x1="22.5493" y1="52.9907" x2="29.3657" y2="52.9907" gradientTransform="matrix(1 0 0 -1 0 102)">
					<stop  offset="0" style="stop-color:#666666"/>
					<stop  offset="6.204499e-02" style="stop-color:#686968"/>
					<stop  offset="9.757584e-02" style="stop-color:#717171"/>
					<stop  offset="0.1264" style="stop-color:#7F7F7F"/>
					<stop  offset="0.1516" style="stop-color:#929292"/>
					<stop  offset="0.1743" style="stop-color:#ACACAC"/>
					<stop  offset="0.1793" style="stop-color:#B2B3B2"/>
					<stop  offset="0.182" style="stop-color:#B2B2B2"/>
					<stop  offset="0.3133" style="stop-color:#878787"/>
					<stop  offset="0.4469" style="stop-color:#646464"/>
					<stop  offset="0.5816" style="stop-color:#494949"/>
					<stop  offset="0.7176" style="stop-color:#363636"/>
					<stop  offset="0.856" style="stop-color:#2A2A2A"/>
					<stop  offset="1" style="stop-color:#262626"/>
				</linearGradient>
				<path class="st24" d="M28.4,48.4c0.4,0,0.6,0,1,0.1c-0.3-0.4-0.6-0.6-1.3-0.6c-1.1,0-3.8,1.4-4.2,1.7c-0.7,0.4-1,0.4-1.3-0.1
					c0.1,0.4,0.6,0.7,0.8,0.6C23.6,50,26.9,48.4,28.4,48.4z"/>
				
					<linearGradient id="SVGID_25_" gradientUnits="userSpaceOnUse" x1="58.332" y1="95.1762" x2="59.0805" y2="93.5296" gradientTransform="matrix(1 0 0 -1 0 102)">
					<stop  offset="0" style="stop-color:#FFFFFF"/>
					<stop  offset="0.1154" style="stop-color:#EBEBEB"/>
					<stop  offset="0.9066" style="stop-color:#404040"/>
				</linearGradient>
				<path class="st25" d="M60.4,6.4c0.6-0.1,1-0.1,1,0.3c0,0.1,0,0.4-0.1,0.7c0,0.1-0.1,0.3-0.4,0.3c-0.6,0.1-3.5,1.3-3.9,1.4
					c-0.4,0.1-0.6,0-0.7-0.3c-0.1-0.3,0-0.8,0.1-1.1c0.1-0.3,0.3-0.4,0.6-0.4C57.3,7.1,59.7,6.6,60.4,6.4z"/>
				<path d="M60.4,6.7c0.3,0,0.6,0,0.6,0.1s0,0.3,0,0.4c0,0.1,0,0.1-0.3,0.3c-0.3,0.1-2.5,0.8-3.1,1.1c-0.4,0-0.7,0-0.7-0.3
					c0-0.1,0-0.6,0.1-0.7s0.3-0.3,0.4-0.3C57.7,7.3,59.7,6.9,60.4,6.7z"/>
				
					<linearGradient id="SVGID_26_" gradientUnits="userSpaceOnUse" x1="49.024" y1="78.3047" x2="76.5603" y2="78.3047" gradientTransform="matrix(1 0 0 -1 0 102)">
					<stop  offset="0.6868" style="stop-color:#FFFFFF"/>
					<stop  offset="0.7158" style="stop-color:#FAFAFA"/>
					<stop  offset="0.7521" style="stop-color:#EAEAEA"/>
					<stop  offset="0.7922" style="stop-color:#D1D1D1"/>
					<stop  offset="0.8351" style="stop-color:#ADADAD"/>
					<stop  offset="0.8803" style="stop-color:#7F7F7F"/>
					<stop  offset="0.9273" style="stop-color:#474847"/>
					<stop  offset="0.9751" style="stop-color:#070707"/>
					<stop  offset="0.9797" style="stop-color:#000000"/>
				</linearGradient>
				<path class="st26" d="M72.5,35c0.4-0.7,2.8-5.8,3.4-7.2c0.4-1,0.8-1.8,0.8-3c0-0.7-0.1-2-0.7-3.1c-1.3-2.8-5.5-8-7.2-10.1
					c-1.4-1.7-2.7-2-5.1-1.8c-6.2,0.1-11.5,2.8-14.5,3.9c2.1-0.7,7.3-2.8,13.2-3.2c3.2-0.1,4.5,0.1,5.6,1.4c1.7,1.8,5.6,7.2,7,9.8
					c0.6,1.1,0.8,2,0.7,2.8c-0.1,1.3-0.6,2.1-0.8,3c-0.6,1.4-2.8,6-3.2,6.6c-1.7,2.8-3.2,2.8-4.9,2.4c0.1,0,0.8,0.4,1.5,0.7
					C70.1,38.2,71.3,37.1,72.5,35z"/>
				
					<linearGradient id="SVGID_27_" gradientUnits="userSpaceOnUse" x1="47.2359" y1="10.0749" x2="57.4444" y2="46.178" gradientTransform="matrix(1 0 0 -1 0 102)">
					<stop  offset="0" style="stop-color:#E5E6E5"/>
					<stop  offset="6.593400e-02" style="stop-color:#404040"/>
					<stop  offset="7.501830e-02" style="stop-color:#424242"/>
					<stop  offset="0.2588" style="stop-color:#6E6E6E"/>
					<stop  offset="0.3517" style="stop-color:#808080"/>
					<stop  offset="0.4902" style="stop-color:#9A9A9A"/>
					<stop  offset="0.6044" style="stop-color:#ABABAB"/>
					<stop  offset="0.7298" style="stop-color:#898989"/>
					<stop  offset="0.8783" style="stop-color:#666666"/>
					<stop  offset="0.9586" style="stop-color:#595959"/>
					<stop  offset="1" style="stop-color:#A6A6A6"/>
				</linearGradient>
				<path class="st27" d="M65,57.2c0,0-0.4-0.3-0.7-0.6c-1,1-5.1,6.2-8,10.8c-2.3,3.5-5.3,8.7-5.8,9.8c-0.4,1-0.6,2-0.6,3.2l0.1,5.6
					c0,0.7-0.1,1.3-0.4,1.7c-0.4,0.4-1,0.7-1.7,0.7c-1.3,0.1-7.5,1.1-9.1,1.4c-1.7,0.4-2.3,1.1-2.7,2.3c-0.3,0.8-0.6,2.1-0.6,2.7
					v0.3c0,0.6,0.1,0.6,0.1,0.6s7-0.6,11.3-0.3c4.2,0.3,10,0.8,10,0.8s-6-1.1-10.3-1.4c-4.2-0.3-9.7,0.1-9.7,0c0-0.1-0.1-0.4-0.1-1
					c0-0.3,0.1-0.7,0.3-1.1c0.3-1,0.7-2,2.4-2.4c1.5-0.4,7.5-1.4,8.6-1.7s1.8-0.7,2-1.5c0-0.3,0.1-0.8,0.1-1.5
					c0-1.1-0.1-4.4-0.1-4.5c0-2,0.1-3,1.4-5.1c2-3.2,9.4-14.6,13.1-18.6c0.3-0.3,0.3-0.4,0.7-0.4C65.1,57.4,65.1,57.2,65,57.2z"/>
			</g>
		</g>
	</g>
</g>
</svg>
