<?xml version="1.0" encoding="utf-8"?>
<!-- Generator: Adobe Illustrator 24.0.2, SVG Export Plug-In . SVG Version: 6.00 Build 0)  -->
<svg version="1.1" id="Layer_1" xmlns="http://www.w3.org/2000/svg" xmlns:xlink="http://www.w3.org/1999/xlink" x="0px" y="0px"
	 viewBox="0 0 144 101" style="enable-background:new 0 0 144 101;" xml:space="preserve">
<style type="text/css">
	.st0{display:none;}
	.st1{fill:#231F20;}
	.st2{fill:url(#SVGID_1_);}
	.st3{fill:url(#SVGID_2_);}
	.st4{fill:url(#SVGID_3_);}
	.st5{fill:url(#SVGID_4_);}
	.st6{fill:#404041;}
	.st7{fill:url(#SVGID_5_);}
	.st8{fill:#FFFFFF;}
	.st9{fill:url(#SVGID_6_);}
	.st10{fill:url(#SVGID_7_);}
	.st11{fill:url(#SVGID_8_);}
	.st12{fill:url(#SVGID_9_);}
	.st13{fill:url(#SVGID_10_);}
	.st14{fill:url(#SVGID_11_);}
	.st15{fill:url(#SVGID_12_);}
</style>
<g id="Layer_1_1_" class="st0">
</g>
<path class="st1" d="M3,50.7c0,23.7,31,42.9,69.1,42.9s69.1-19.3,69.1-42.9c0-23.7-31-42.9-69.1-42.9S3,27.1,3,50.7z M3.6,50.7
	C3.6,27.4,34.3,8.5,72,8.5c37.7,0,68.4,19,68.4,42.3C140.4,74,109.7,93,72,93C34.3,93,3.6,74,3.6,50.7z"/>
<path class="st1" d="M65.5,15.7c-15.8,1-27.7,5.2-29.6,10.5c-0.2,0.5-0.3,1-0.3,1.5c0,0.8,0.2,1.7,0.7,2.5c2.2,3.7,9,6.7,18.8,8.4
	l0.3,0.1l0.1-0.3c1.7-10.2,5.4-18.3,10.2-22.1l0.8-0.7L65.5,15.7z M36.9,30c-0.4-0.7-0.6-1.4-0.6-2.1c0-0.4,0.1-0.9,0.2-1.3l0,0
	c1.7-4.9,13.2-9,28-10c-4.5,4.1-8,11.8-9.6,21.5C45.6,36.4,38.9,33.4,36.9,30z M35.9,26.3L35.9,26.3L35.9,26.3z"/>
<path class="st1" d="M63.2,39.3l-0.1,0.4l0.4,0c2.8,0.2,5.7,0.3,8.6,0.3c2.9,0,5.8-0.1,8.6-0.3l0.4,0l-0.1-0.4
	C79.4,30.8,76,25.5,72,25.5C68.1,25.5,64.7,30.8,63.2,39.3z M72,26.1c3.5,0,6.6,4.9,8.1,12.9c-2.7,0.2-5.4,0.3-8.1,0.3
	c-2.7,0-5.5-0.1-8.1-0.3C65.4,31.1,68.5,26.1,72,26.1z"/>
<path class="st1" d="M78.3,16.3c4.8,3.8,8.5,11.9,10.2,22.1l0.1,0.3l0.3-0.1c9.8-1.7,16.7-4.7,18.8-8.4c0.8-1.3,0.9-2.7,0.4-4
	c-1.9-5.3-13.8-9.6-29.6-10.5l-1.1-0.1L78.3,16.3z M79.5,16.5c14.8,1,26.3,5.1,28,10c0.2,0.4,0.2,0.9,0.2,1.3c0,0.7-0.2,1.4-0.6,2.1
	c-2,3.4-8.7,6.4-18,8C87.5,28.3,84,20.6,79.5,16.5z"/>
<path class="st1" d="M25.3,30.8c-7.2,6-11,13.1-11,20.6C14.4,69,36.1,84,64.9,86.1l1,0.1l-0.8-0.7c-6.6-5.6-10.6-18.8-10.6-34.4
	l0.1-3L54.3,48c-15.9-2.9-26.8-9.4-28.4-17l-0.1-0.5L25.3,30.8z M15.1,51.4c0-7.1,3.6-13.9,10.3-19.7c2.1,7.6,12.9,14.1,28.5,16.9
	c0,0.5,0,2.5,0,2.5c0,15.2,3.9,28.2,10.1,34.3C36,83,15.1,68.5,15.1,51.4z"/>
<path class="st1" d="M62.3,49.4l0,0.4c0,13.7,4.3,24.4,9.7,24.4c5.5,0,9.7-10.7,9.7-24.4l0-0.7l-0.4,0c-3,0.3-6.2,0.4-9.4,0.4
	c-3.2,0-6.3-0.1-9.4-0.4l-0.4,0L62.3,49.4z M63,49.8C63,49.8,63,49.8,63,49.8c3,0.2,6,0.4,9.1,0.4c3.1,0,6.1-0.1,9.1-0.4
	c0,0,0,0,0,0c0,13.3-4,23.8-9.1,23.8C66.9,73.6,63,63.2,63,49.8z"/>
<path class="st1" d="M118.2,31c-1.6,7.6-12.5,14.2-28.4,17l-0.3,0.1l0.1,3.1c0,15.6-4.1,28.8-10.6,34.4l-0.8,0.7l1-0.1
	c28.8-2.2,50.5-17.1,50.5-34.8c0-7.4-3.8-14.6-11-20.6l-0.4-0.4L118.2,31z M118.7,31.7c6.7,5.8,10.3,12.6,10.3,19.7
	c0,17.1-21,31.6-48.9,34c6.3-6.1,10.1-19,10.1-34.3c0,0,0-2,0-2.5C105.8,45.7,116.6,39.3,118.7,31.7z"/>
<linearGradient id="SVGID_1_" gradientUnits="userSpaceOnUse" x1="72.021" y1="84.3117" x2="72.021" y2="35.7724">
	<stop  offset="0" style="stop-color:#D0D2D3"/>
	<stop  offset="0.1575" style="stop-color:#F1F1F2"/>
	<stop  offset="0.1639" style="stop-color:#F0F0F1"/>
	<stop  offset="0.2592" style="stop-color:#E8E9EA"/>
	<stop  offset="0.44" style="stop-color:#E6E7E8"/>
	<stop  offset="0.5594" style="stop-color:#CFD0D1"/>
	<stop  offset="0.8087" style="stop-color:#949597"/>
	<stop  offset="1" style="stop-color:#626366"/>
</linearGradient>
<path class="st2" d="M118.2,25.3c0.1,0.3,0.2,0.6,0.3,0.8c0.4,1.6,0.3,3.2-0.2,4.7c7,5.7,11.1,12.8,11.1,20.5
	c0,19.2-25.7,34.7-57.3,34.7c-31.7,0-57.3-15.5-57.3-34.7c0-7.7,4.1-14.8,11.1-20.5c-0.5-1.5-0.6-3.1-0.2-4.7
	c0.1-0.3,0.2-0.6,0.3-0.9C16.4,32,10.7,40.9,10.7,50.6c0,21.2,27.5,38.4,61.4,38.4c33.9,0,61.4-17.2,61.4-38.4
	C133.4,40.9,127.7,32.1,118.2,25.3z"/>
<linearGradient id="SVGID_2_" gradientUnits="userSpaceOnUse" x1="80.7774" y1="42.4975" x2="64.3048" y2="28.6754">
	<stop  offset="0" style="stop-color:#E6E7E8"/>
	<stop  offset="0.44" style="stop-color:#E6E7E8"/>
	<stop  offset="0.5594" style="stop-color:#CFD0D1"/>
	<stop  offset="0.8087" style="stop-color:#949597"/>
	<stop  offset="1" style="stop-color:#626366"/>
</linearGradient>
<path class="st3" d="M63.5,39.4l-1.8,1.3c1.5-11,5.5-18.1,10.3-18.1c4.8,0,8.8,7,10.3,18.1l-1.8-1.3h0C79.1,31,75.8,25.8,72,25.8
	C68.2,25.8,65,31,63.5,39.4L63.5,39.4z"/>
<linearGradient id="SVGID_3_" gradientUnits="userSpaceOnUse" x1="82.3648" y1="65.2041" x2="58.5408" y2="51.4493">
	<stop  offset="0" style="stop-color:#E6E7E8"/>
	<stop  offset="0.44" style="stop-color:#E6E7E8"/>
	<stop  offset="0.5594" style="stop-color:#CFD0D1"/>
	<stop  offset="0.8087" style="stop-color:#949597"/>
	<stop  offset="1" style="stop-color:#626366"/>
</linearGradient>
<path class="st4" d="M82.8,46.8l-1.4,2.6h0c0,0.1,0,0.3,0,0.4c0,13.7-4.2,24.1-9.4,24.1c-5.2,0-9.4-10.4-9.4-24.1c0-0.2,0-0.3,0-0.4
	l-1.4-2.5c0,1-0.1,2-0.1,3c0,15.5,4.9,27.3,10.9,27.3c6,0,10.9-11.8,10.9-27.3C82.9,48.8,82.9,47.8,82.8,46.8z"/>
<linearGradient id="SVGID_4_" gradientUnits="userSpaceOnUse" x1="72.02" y1="47.3239" x2="72.02" y2="21.0221">
	<stop  offset="0" style="stop-color:#E6E7E8"/>
	<stop  offset="0.44" style="stop-color:#E6E7E8"/>
	<stop  offset="0.5594" style="stop-color:#CFD0D1"/>
	<stop  offset="0.8087" style="stop-color:#949597"/>
	<stop  offset="1" style="stop-color:#626366"/>
</linearGradient>
<path class="st5" d="M80.5,39.4c-2.7,0.2-5.6,0.3-8.5,0.3s-5.8-0.1-8.5-0.3l0,0l-1.8,1.3c3.3,0.3,6.7,0.4,10.3,0.4s7-0.2,10.3-0.4
	L80.5,39.4L80.5,39.4z M111.9,25.9C109.7,18.8,92,13.6,72,13.6c-20,0-37.7,5.2-39.9,12.3c-1.9,6.2,8.3,11.9,24.4,14.2l-1.4-1.7v0
	c-13-2.2-20.8-6.9-19-12c2.2-6.1,17.9-10.5,35.8-10.5c17.9,0,33.6,4.4,35.8,10.5c1.8,5-6,9.8-19,12l0,0l-1.4,1.7
	C103.6,37.8,113.8,32.1,111.9,25.9z"/>
<path class="st6" d="M118.3,30.9c2.7,2.2,4.9,4.6,6.7,7.1c-0.6-4.1-2.3-8-4.7-11.2c-0.7-0.5-1.3-1-2-1.5c0.1,0.3,0.2,0.6,0.3,0.8
	C118.9,27.8,118.8,29.3,118.3,30.9z"/>
<path class="st6" d="M25.8,30.9c-0.5-1.5-0.6-3.1-0.2-4.7c0.1-0.3,0.2-0.6,0.3-0.9c-0.7,0.5-1.4,1-2.1,1.6c-2.4,3.2-4.1,7-4.7,11.2
	C20.9,35.5,23.1,33.1,25.8,30.9z"/>
<linearGradient id="SVGID_5_" gradientUnits="userSpaceOnUse" x1="72.02" y1="8.1402" x2="72.02" y2="93.3398">
	<stop  offset="0" style="stop-color:#C5C7C9"/>
	<stop  offset="4.758810e-02" style="stop-color:#D4D5D7"/>
	<stop  offset="0.12" style="stop-color:#E6E7E8"/>
	<stop  offset="0.1242" style="stop-color:#E8E9EA"/>
	<stop  offset="0.1469" style="stop-color:#EFEFF0"/>
	<stop  offset="0.21" style="stop-color:#F1F1F2"/>
	<stop  offset="0.545" style="stop-color:#F1F1F2"/>
	<stop  offset="0.6115" style="stop-color:#CCCCCE"/>
	<stop  offset="0.692" style="stop-color:#A6A7A9"/>
	<stop  offset="0.7722" style="stop-color:#88898B"/>
	<stop  offset="0.851" style="stop-color:#737477"/>
	<stop  offset="0.9278" style="stop-color:#66676A"/>
	<stop  offset="1" style="stop-color:#626366"/>
</linearGradient>
<path class="st7" d="M3.3,50.7C3.3,27.2,34.1,8.1,72,8.1c38,0,68.7,19.1,68.7,42.6c0,23.5-30.8,42.6-68.7,42.6
	C34.1,93.3,3.3,74.3,3.3,50.7z M72,89.1c33.9,0,61.4-17.2,61.4-38.4c0-21.2-27.5-38.4-61.4-38.4c-33.9,0-61.4,17.2-61.4,38.4
	C10.7,71.9,38.1,89.1,72,89.1z"/>
<path class="st8" d="M10.2,50.6C10.2,72,38,89.5,72,89.5c34.1,0,61.8-17.4,61.8-38.8S106.1,11.8,72,11.8
	C38,11.8,10.2,29.2,10.2,50.6z M11.1,50.6c0-21,27.3-38,61-38c33.6,0,61,17.1,61,38c0,21-27.3,38-61,38
	C38.4,88.7,11.1,71.6,11.1,50.6z"/>
<linearGradient id="SVGID_6_" gradientUnits="userSpaceOnUse" x1="72.021" y1="8.1367" x2="72.021" y2="93.3349">
	<stop  offset="0" style="stop-color:#C5C7C9"/>
	<stop  offset="4.758810e-02" style="stop-color:#D4D5D7"/>
	<stop  offset="0.12" style="stop-color:#E6E7E8"/>
	<stop  offset="0.1242" style="stop-color:#E8E9EA"/>
	<stop  offset="0.1469" style="stop-color:#EFEFF0"/>
	<stop  offset="0.21" style="stop-color:#F1F1F2"/>
	<stop  offset="0.545" style="stop-color:#F1F1F2"/>
	<stop  offset="0.6115" style="stop-color:#CCCCCE"/>
	<stop  offset="0.692" style="stop-color:#A6A7A9"/>
	<stop  offset="0.7722" style="stop-color:#88898B"/>
	<stop  offset="0.851" style="stop-color:#737477"/>
	<stop  offset="0.9278" style="stop-color:#66676A"/>
	<stop  offset="1" style="stop-color:#626366"/>
</linearGradient>
<path class="st9" d="M55.9,51.1c0-20.5,7.2-37.5,16.1-37.5s16.1,17,16.1,37.5c0,20.7-7.2,37.5-16.1,37.5
	C63.1,88.7,55.9,71.8,55.9,51.1z M72,77.1c6,0,10.9-11.8,10.9-27.3c0-16.1-4.9-27.2-10.9-27.2S61.1,33.7,61.1,49.8
	C61.1,65.4,66,77.1,72,77.1z"/>
<linearGradient id="SVGID_7_" gradientUnits="userSpaceOnUse" x1="72.02" y1="8.1425" x2="72.02" y2="93.3432">
	<stop  offset="0" style="stop-color:#C5C7C9"/>
	<stop  offset="4.758810e-02" style="stop-color:#D4D5D7"/>
	<stop  offset="0.12" style="stop-color:#E6E7E8"/>
	<stop  offset="0.1242" style="stop-color:#E8E9EA"/>
	<stop  offset="0.1469" style="stop-color:#EFEFF0"/>
	<stop  offset="0.21" style="stop-color:#F1F1F2"/>
	<stop  offset="0.545" style="stop-color:#F1F1F2"/>
	<stop  offset="0.6115" style="stop-color:#CCCCCE"/>
	<stop  offset="0.692" style="stop-color:#A6A7A9"/>
	<stop  offset="0.7722" style="stop-color:#88898B"/>
	<stop  offset="0.851" style="stop-color:#737477"/>
	<stop  offset="0.9278" style="stop-color:#66676A"/>
	<stop  offset="1" style="stop-color:#626366"/>
</linearGradient>
<path class="st10" d="M25.6,26.2c1.8-7,23.2-17.2,46.4-17.2c23.2,0,43.9,7.3,46.4,17.2c2.8,11.1-17.8,21.2-46.4,21.2
	C43.4,47.4,22.8,37.3,25.6,26.2z M72,13.6c-20,0-37.7,5.2-39.9,12.3c-2.4,8,15.3,15.2,39.9,15.2c24.6,0,42.3-7.2,39.9-15.2
	C109.7,18.8,92,13.6,72,13.6z"/>
<linearGradient id="SVGID_8_" gradientUnits="userSpaceOnUse" x1="72.021" y1="25.8063" x2="72.021" y2="50.0897">
	<stop  offset="5.618000e-03" style="stop-color:#E6E7E8"/>
	<stop  offset="1" style="stop-color:#6D6E70"/>
</linearGradient>
<path class="st11" d="M61.2,46.8L61.2,46.8l1.5,2.6c3,0.3,6.1,0.4,9.3,0.4c3.2,0,6.4-0.1,9.4-0.4l1.4-2.6l0,0
	c-3.5,0.3-7.1,0.5-10.8,0.5C68.3,47.4,64.6,47.2,61.2,46.8z M118.7,28.6c-0.4,8-12.6,15-30.7,17.7l0,0l1.8,2.1
	C107.5,45.2,119.1,37.3,118.7,28.6z M25.3,28.6c-0.4,8.8,11.2,16.6,28.9,19.8l1.8-2.1l0,0C37.9,43.6,25.7,36.5,25.3,28.6z"/>
<linearGradient id="SVGID_9_" gradientUnits="userSpaceOnUse" x1="80.4314" y1="8.1392" x2="80.4314" y2="49.8503">
	<stop  offset="0" style="stop-color:#E6E7E8"/>
	<stop  offset="0.44" style="stop-color:#E6E7E8"/>
	<stop  offset="0.5594" style="stop-color:#CFD0D1"/>
	<stop  offset="0.8087" style="stop-color:#949597"/>
	<stop  offset="1" style="stop-color:#626366"/>
</linearGradient>
<path class="st12" d="M87.4,40.1L87.4,40.1l1.4-1.7C86.4,23.5,79.8,13.6,72,13.6C79.3,13.6,85.4,24.8,87.4,40.1z"/>
<linearGradient id="SVGID_10_" gradientUnits="userSpaceOnUse" x1="63.6096" y1="8.1392" x2="63.6096" y2="49.8503">
	<stop  offset="0" style="stop-color:#E6E7E8"/>
	<stop  offset="0.44" style="stop-color:#E6E7E8"/>
	<stop  offset="0.5594" style="stop-color:#CFD0D1"/>
	<stop  offset="0.8087" style="stop-color:#949597"/>
	<stop  offset="1" style="stop-color:#626366"/>
</linearGradient>
<path class="st13" d="M56.6,40.1c2-15.2,8.2-26.5,15.4-26.5c-7.8,0-14.4,10-16.8,24.8L56.6,40.1L56.6,40.1z"/>
<linearGradient id="SVGID_11_" gradientUnits="userSpaceOnUse" x1="63.1097" y1="8.139" x2="63.1097" y2="77.1196">
	<stop  offset="0" style="stop-color:#E6E7E8"/>
	<stop  offset="0.44" style="stop-color:#E6E7E8"/>
	<stop  offset="0.5594" style="stop-color:#CFD0D1"/>
	<stop  offset="0.8087" style="stop-color:#949597"/>
	<stop  offset="1" style="stop-color:#626366"/>
</linearGradient>
<path class="st14" d="M55.9,51.1c0-1.7,0.1-3.3,0.1-4.9h0l-1.8,2.1c0,0.9-0.1,1.8-0.1,2.8c0,22,7.8,37.5,17.8,37.5
	C63.1,88.7,55.9,71.8,55.9,51.1z"/>
<linearGradient id="SVGID_12_" gradientUnits="userSpaceOnUse" x1="80.9324" y1="8.139" x2="80.9324" y2="77.1196">
	<stop  offset="0" style="stop-color:#E6E7E8"/>
	<stop  offset="0.44" style="stop-color:#E6E7E8"/>
	<stop  offset="0.5594" style="stop-color:#CFD0D1"/>
	<stop  offset="0.8087" style="stop-color:#949597"/>
	<stop  offset="1" style="stop-color:#626366"/>
</linearGradient>
<path class="st15" d="M89.8,48.3L88,46.2h0c0.1,1.6,0.1,3.2,0.1,4.9c0,20.7-7.2,37.5-16.1,37.5c10,0,17.8-15.6,17.8-37.5
	C89.8,50.2,89.8,49.2,89.8,48.3z"/>
</svg>
