<?xml version="1.0" encoding="utf-8"?>
<!-- Generator: Adobe Illustrator 24.0.2, SVG Export Plug-In . SVG Version: 6.00 Build 0)  -->
<svg version="1.1" id="Layer_1" xmlns="http://www.w3.org/2000/svg" xmlns:xlink="http://www.w3.org/1999/xlink" x="0px" y="0px"
	 viewBox="0 0 144 101" style="enable-background:new 0 0 144 101;" xml:space="preserve">
<style type="text/css">
	.st0{fill-rule:evenodd;clip-rule:evenodd;fill:#005EA1;}
</style>
<g>
	<path class="st0" d="M36.09,51.23c0,13.25-6.1,18.31-18.31,18.31C5.4,69.54,0,62.74,0,52.28v-6.62h13.42v5.4
		c0,3.66,0,7.15,4.01,7.15c3.84,0,3.66-4.71,3.66-6.8V20.55h14.99V51.23L36.09,51.23z"/>
	<path class="st0" d="M49.51,47.05c0.52-3.66,2.61-5.75,6.1-5.75c3.14,0,5.4,2.62,5.4,5.75H49.51L49.51,47.05z M72.7,54.02
		c0-13.6-5.58-21.27-18.13-21.27c-10.11,0-16.74,8.19-16.74,18.31c0,11.68,7.67,18.31,17.78,18.31c7.32,0,13.95-3.49,16.39-10.98
		H60.67c-1.05,1.57-3.14,2.44-5.06,2.44c-3.84,0-5.93-2.79-6.28-6.8H72.7L72.7,54.02z"/>
	<path class="st0" d="M85.25,47.05c0.52-3.66,2.62-5.75,6.1-5.75c3.14,0,5.4,2.62,5.4,5.75H85.25L85.25,47.05z M108.44,54.02
		c0-13.6-5.58-21.27-18.13-21.27c-10.11,0-16.74,8.19-16.74,18.31c0,11.68,7.67,18.31,17.78,18.31c7.15,0,13.95-3.49,16.39-10.98
		H96.41c-1.05,1.57-3.14,2.44-5.06,2.44c-3.84,0-5.93-2.79-6.28-6.8H108.44L108.44,54.02z"/>
	<path class="st0" d="M121.34,51.06c0-4.18,0.87-8.54,5.23-8.54c4.36,0,5.4,4.36,5.4,8.54c0,4.01-1.05,8.54-5.4,8.54
		C122.21,59.6,121.34,55.07,121.34,51.06L121.34,51.06z M109.66,79.65h12.03V64.66h0.17c1.74,2.96,5.06,4.71,8.72,4.71
		c10.63,0,13.42-9.94,13.42-18.13c0-8.72-4.18-18.48-13.25-18.48c-5.93,0-7.85,2.44-9.41,4.71l0,0v-3.84h-11.68V79.65L109.66,79.65z
		"/>
</g>
</svg>
