<?xml version="1.0" encoding="utf-8"?>
<!-- Generator: Adobe Illustrator 24.0.2, SVG Export Plug-In . SVG Version: 6.00 Build 0)  -->
<svg version="1.1" id="Layer_1" xmlns="http://www.w3.org/2000/svg" xmlns:xlink="http://www.w3.org/1999/xlink" x="0px" y="0px"
	 viewBox="0 0 144 101" style="enable-background:new 0 0 144 101;" xml:space="preserve">
<style type="text/css">
	.st0{fill-rule:evenodd;clip-rule:evenodd;fill:#E82E29;}
	.st1{fill-rule:evenodd;clip-rule:evenodd;fill:#231F20;}
</style>
<g>
	<path class="st0" d="M100.55,3.31c-4.84-0.48-17.62-1.19-29.67-1.19c-12.05,0-24.83,0.71-29.67,1.19
		c-5.52,0.56-8.09,3.37-8.09,8.84c0,10.38,0.38,26.56,1.09,36.06c0.63,8.47,1.13,15.16,11.68,21.57
		c7.55,4.59,15.05,8.52,24.82,13.56l0.17,0.09l0.17-0.09c9.79-5.06,17.31-8.99,24.83-13.56c10.55-6.41,11.05-13.1,11.67-21.57
		c0.71-9.55,1.1-25.71,1.1-36.06C108.64,6.68,106.07,3.88,100.55,3.31L100.55,3.31z M104.27,47.98c-0.6,8.11-1,13.47-10.1,18.99
		c-7.14,4.34-13.44,7.65-22.97,12.6l-0.33,0.16l-0.32-0.16c-9.22-4.78-15.8-8.24-22.97-12.6c-9.1-5.53-9.51-10.89-10.11-19
		c-0.71-9.45-1.09-25.51-1.09-35.82c0-3.78,1.3-5.18,5.14-5.57C46.32,6.11,58.96,5.4,70.88,5.4c11.92,0,24.55,0.71,29.34,1.18
		c3.85,0.39,5.14,1.8,5.14,5.57C105.36,22.46,104.98,38.51,104.27,47.98L104.27,47.98z"/>
	<path class="st0" d="M70.37,26.4l-1.14,3.82c-4.11-8.41-9.03-12.82-14.97-12.82c-6.43,0-9.57,4.3-10.5,5.66
		c1.65-4.15,6.01-7.79,11.81-7.79C63.53,15.27,68.02,21.55,70.37,26.4L70.37,26.4z"/>
	<path class="st0" d="M40.57,35.02c0.05,14.01,4.13,20.75,10.21,20.75c2.82,0,4.84-1.78,4.84-4.66c0-2.46-1.07-4.42-1.5-5.2
		c0.16,0.81,0.32,1.72,0.32,2.75c0,2.42-1.63,3.19-2.97,3.19c-4.05,0-8.1-7.87-9.24-16.84C41.72,35.02,40.56,35.02,40.57,35.02
		L40.57,35.02z"/>
	<path class="st0" d="M86.19,15.27c5.81,0,10.16,3.65,11.82,7.79c-0.93-1.36-4.08-5.66-10.51-5.66c-5.93,0-10.85,4.41-14.97,12.82
		l-1.14-3.82C73.74,21.55,78.24,15.27,86.19,15.27L86.19,15.27z"/>
	<path class="st0" d="M99.54,35.02c-1.14,8.96-5.19,16.84-9.25,16.84c-1.33,0-2.96-0.78-2.96-3.19c0-1.03,0.14-1.95,0.31-2.75
		c-0.43,0.78-1.5,2.74-1.5,5.2c0,2.89,2.02,4.66,4.84,4.66c6.08,0,10.16-6.74,10.21-20.75C101.21,35.02,100.05,35.02,99.54,35.02
		L99.54,35.02z"/>
	<path class="st0" d="M91.27,22.97c-5.2,0-10.28,4.15-13.32,13.71l1.97,1.37l-0.94,4.7l-3.68,1.52l-0.67,4.62l1.79-2.2l1.92-0.8
		l-0.6,2.99l-3.31,1.38l-1.16,7.99l0.81,2.55l-3.2,1.27l-3.2-1.27l0.81-2.55l-1.16-7.99l-3.32-1.38l-0.59-2.99l1.92,0.8l1.8,2.2
		l-0.68-4.62l-3.67-1.52l-0.95-4.7l1.97-1.37c-3.04-9.57-8.11-13.71-13.32-13.71c-6.43,0-9.09,6.1-8.75,11.13h1.55
		c1.29,7.11,4.9,13.13,7.62,13.13c0.83,0,1.27-0.63,1.27-1.67c0-2.51-1.71-5.13-1.71-9.92c0-2.21,0.72-3.59,2.38-3.59
		c1.13,0,2.06,1.19,2.6,2.49c-1,3.58-0.85,6.58,2,7.86c1.41,0.63,3.12,1.38,3.12,1.38s1.81,7.69,1.95,8.24
		c0.12,0.5,0.43,1.19,0.66,1.61c0.33,0.58,2.71,4.66,2.71,4.66s0.81,4.07,0.98,4.93c0.47,2.33,2.13,2.33,4.01,2.33
		c1.87,0.01,3.53,0,4-2.33c0.17-0.86,0.99-4.93,0.99-4.93s2.38-4.08,2.72-4.66c0.23-0.42,0.54-1.11,0.65-1.61
		c0.13-0.55,1.95-8.24,1.95-8.24s1.71-0.75,3.12-1.38c2.86-1.28,3.01-4.27,2-7.86c0.55-1.3,1.48-2.49,2.61-2.49
		c1.66,0,2.38,1.38,2.38,3.59c0,4.79-1.71,7.42-1.71,9.92c0,1.04,0.44,1.67,1.27,1.67c2.71,0,6.33-6.02,7.63-13.13h1.54
		C100.37,29.08,97.71,22.97,91.27,22.97L91.27,22.97z M58.58,41c-2.02-0.86-2.23-3.26-1.55-6.44l2.22,3.48l0.82,3.59
		C60.06,41.64,59.26,41.29,58.58,41L58.58,41z M83.19,41c-0.69,0.29-1.49,0.63-1.49,0.63l0.82-3.59l2.22-3.48
		C85.41,37.75,85.21,40.14,83.19,41L83.19,41z"/>
	<path class="st1" d="M66.5,93.9v3.85c0,0,3.93,0,5.24,0c2.9,0,4-1.16,4-2.76c0-1.05-0.52-2.75-3.95-2.75c-1.2,0-8.85,0-8.85,0
		v-2.16c0,0,6,0,9.23,0c5.87,0,7.24,2.48,7.24,4.92c0,2.92-1.97,4.94-7.26,4.94c-3.25,0-9.22,0-9.22,0V93.9H66.5L66.5,93.9z"/>
	<path class="st1" d="M27.37,93.9v3.85c0,0,3.93,0,5.24,0c2.9,0,3.99-1.16,3.99-2.76c0-1.05-0.52-2.75-3.95-2.75
		c-1.2,0-8.84,0-8.84,0v-2.16c0,0,6,0,9.23,0c5.88,0,7.25,2.48,7.25,4.92c0,2.92-1.98,4.94-7.26,4.94c-3.25,0-9.22,0-9.22,0V93.9
		H27.37L27.37,93.9z"/>
	<path class="st1" d="M89.95,93.89v2.18h5.22v1.68c0,0-3.88,0-5.2,0c-2.95,0-4.04-1.16-4.04-2.76c0-1.79,1.48-2.75,3.84-2.75
		c1.2,0,8.96,0,8.96,0v-2.17c0,0-5.86,0-9.09,0c-4.67,0-7.38,1.48-7.38,4.92c0,3.37,2.62,4.94,7.24,4.94c3.25,0,9.23,0,9.23,0v-6.03
		H89.95L89.95,93.89z"/>
	<polygon class="st1" points="106.65,92.22 117.87,92.22 117.87,90.07 102.85,90.07 102.85,99.92 117.99,99.92 117.99,97.75 
		106.65,97.75 106.65,96.07 117.27,96.07 117.27,93.9 106.65,93.9 106.65,92.22 	"/>
	<path class="st1" d="M51.49,100.08c-6.08,0-8.4-1.99-8.4-5.09c0-3.07,2.4-5.08,8.4-5.08c6,0,8.39,2.01,8.39,5.08
		C59.88,98.09,57.49,100.08,51.49,100.08L51.49,100.08z M56.21,94.99c0-1.68-1.63-2.92-4.72-2.92c-3.11,0-4.72,1.23-4.72,2.92
		c0,1.61,1.45,2.92,4.72,2.92C54.8,97.91,56.21,96.6,56.21,94.99L56.21,94.99z"/>
</g>
</svg>
