<?xml version="1.0" encoding="utf-8"?>
<!-- Generator: Adobe Illustrator 24.0.2, SVG Export Plug-In . SVG Version: 6.00 Build 0)  -->
<svg version="1.1" id="Layer_1" xmlns="http://www.w3.org/2000/svg" xmlns:xlink="http://www.w3.org/1999/xlink" x="0px" y="0px"
	 viewBox="0 0 144 101" style="enable-background:new 0 0 144 101;" xml:space="preserve">
<style type="text/css">
	.st0{fill:#FFFFFF;}
	.st1{fill:#002169;}
</style>
<g>
	<path class="st0" d="M45.3,10.4c0-3.1,2.5-5.6,5.6-5.6h43.2c3.1,0,5.7,2.5,5.7,5.6v81.3c0,3.1-2.5,5.6-5.7,5.6H50.9
		c-3.1,0-5.6-2.5-5.6-5.6V10.4"/>
	<path class="st1" d="M47.7,20v-9.6c0-1.8,1.5-3.3,3.3-3.3h43.2c1.9,0,3.3,1.5,3.3,3.3V20H47.7"/>
	<rect x="47.7" y="22.3" class="st1" width="49.8" height="57.5"/>
	<path class="st0" d="M87,15.3c0.2,0.3,0.6,0.6,0.9,0.8c0.8,0.4,1.5,0.6,2.3,0.6c1.2,0,1.9-0.5,1.9-1.3c0-0.9-0.9-1-2.3-1.2
		c-1.8-0.2-2.7-1-2.7-2.5c0-1.4,1.4-2.5,3.3-2.5c1.3,0,2.2,0.3,2.8,0.6v1.9c-0.2-0.3-0.6-0.6-1-0.8c-0.6-0.2-1.1-0.3-1.8-0.3
		c-0.9,0-1.5,0.4-1.5,0.9c0,0.8,0.8,0.9,2.4,1.2c1.7,0.3,2.7,1,2.6,2.5c0,1.7-1.4,2.9-3.8,2.9c-1,0-2.4-0.2-3.2-0.6V15.3"/>
	<path class="st0" d="M57.5,11.9c0,0.9-0.7,1.2-1.8,1.2h-2v-2.4h2C56.7,10.6,57.5,11,57.5,11.9 M58.7,15.7c-0.4-0.8-0.8-1.4-1.4-1.7
		c1.3-0.3,2-1,2-2.2c0-1.1-0.5-1.9-1.4-2.3c-0.6-0.2-1.3-0.2-2.4-0.2h-4.4c0.4,0.3,0.7,1.1,0.7,1.9V16c0,0.7-0.2,1.6-0.7,1.9h3.1
		c-0.4-0.2-0.7-1.1-0.7-1.9v-1.5H55c0.7,0,1,0.2,1.3,0.8c0.5,0.8,0.8,1.8,1.4,2.6h2.5C59.5,17.3,59.1,16.5,58.7,15.7"/>
	<path class="st0" d="M65.3,18c1.2,0,2.2-0.3,2.9-1c0.9-0.8,1.5-1.9,1.5-3.5c0-1.6-0.6-2.8-1.5-3.5c-0.8-0.6-1.8-0.9-2.9-0.9
		c-1.2,0-2.2,0.3-2.9,0.9c-0.9,0.8-1.5,1.9-1.5,3.5c0,1.6,0.6,2.8,1.5,3.5C63.2,17.7,64.2,18,65.3,18 M63.5,15.8
		c-0.5-0.5-0.8-1.2-0.8-2.3c0-1,0.2-1.8,0.8-2.3c0.4-0.4,1-0.7,1.8-0.7c0.8,0,1.4,0.3,1.8,0.7c0.5,0.5,0.8,1.3,0.8,2.3
		c0,1-0.3,1.8-0.8,2.3c-0.4,0.4-1,0.7-1.8,0.7C64.6,16.5,64,16.2,63.5,15.8"/>
	<path class="st0" d="M77.7,15.6c-0.5,0.6-1.5,0.8-2.6,0.8h-1.7v-5.3c0-0.7,0.2-1.6,0.6-1.9H71c0.4,0.3,0.7,1.2,0.7,1.9V16
		c0,0.8-0.2,1.6-0.7,1.9h6.4L77.7,15.6"/>
	<path class="st0" d="M85.4,15.6c-0.5,0.6-1.5,0.9-2.6,0.8h-1.7v-5.3c0-0.7,0.2-1.6,0.7-1.9h-3.1c0.4,0.3,0.7,1.2,0.7,1.9V16
		c0,0.8-0.2,1.6-0.7,1.9h6.4L85.4,15.6"/>
	<path class="st1" d="M102.6,10.4c0-4.7-3.8-8.5-8.5-8.5H50.9c-4.7,0-8.5,3.8-8.5,8.5v81.3c0,4.7,3.8,8.5,8.5,8.5h43.2
		c4.7,0,8.5-3.8,8.5-8.5V10.4 M45.3,10.4c0-3.1,2.5-5.6,5.6-5.6h43.2c3.1,0,5.7,2.5,5.7,5.6v81.3c0,3.1-2.5,5.6-5.7,5.6H50.9
		c-3.1,0-5.6-2.5-5.6-5.6V10.4z"/>
	<path class="st1" d="M47.7,82.1v9.6c0,1.8,1.5,3.3,3.3,3.3h43.2c1.9,0,3.3-1.5,3.3-3.3v-9.6H47.7"/>
	<path class="st0" d="M69,70.6V57.9c1.2,0,2.4-0.1,3.6-0.2c-0.4-1-0.9-2-1.4-2.9c-0.7,0.1-1.5,0.1-2.2,0.1v-2.7
		c-1.7,0.4-3.5,0.7-5.3,0.9v17.6c0,3.9-1.8,4.9-2.9,5.7h11.1C70.9,75.6,69,74.5,69,70.6"/>
	<path class="st0" d="M94.9,76.2c-0.9-0.9-2-2.2-2.6-4.8c-1-4.8-3.2-11.7-7.8-16.8c4.5-2.5,7.3-6.4,7.3-11.2c0-3.4-1.7-7-4.8-9.2
		c-1.3-0.9-2.9-1.5-4.8-1.9c0.7,1.4,1.1,2.9,1.2,4.5c1.9,1.5,3,3.8,3,6.7c0,3.6-1.8,7.7-8.1,9.9c0.5,1,1,2,1.5,3
		c0.3-0.1,0.7-0.2,1-0.3c2.9,3.4,5.3,8.8,6,13.8c0.5,3.6-0.8,5.4-1.6,6.3H94.9"/>
	<path class="st0" d="M59.4,49.1v-20h7.6c2.8,0,4.8,0.6,6.4,1.8c2.1,1.5,3.3,3.9,3.3,6.8C76.6,42.7,73.2,48.9,59.4,49.1 M83.8,70.5
		c-1-0.9-2.1-2.2-2.6-4.8c-1-4.8-3.1-11.5-7.3-16.3c0.2-0.1,0.3-0.1,0.5-0.2c4.8-2.4,7.6-6.5,7.6-11.4c0-3.5-1.7-7-4.8-9.2
		c-2.5-1.7-5.8-2.3-10-2.3h-16c1.1,0.7,2.9,1.8,2.9,5.7v33c0,3.9-1.8,4.9-2.9,5.7h11.1c-1-0.7-2.9-1.7-2.9-5.7V52.1
		c3.9,0,7.6-0.5,10.6-1.3c2.8,3.4,4.9,8.6,5.6,13.4c0.5,3.6-0.8,5.5-1.6,6.3H83.8z"/>
	<path class="st0" d="M69,46.3V35h6c-0.4-1.2-1.2-2.2-2.2-3h-12c1.1,0.7,2.9,1.7,2.9,5.7v9.9C65.7,47.3,67.5,46.9,69,46.3"/>
	<path class="st0" d="M79.9,88.6c0,1.6,1,2.9,2.6,2.9c1.2,0,2.3-0.3,2.8-0.9L85,92.4c-0.4,0.2-1.2,0.4-2.4,0.4
		c-2.7,0-4.5-1.6-4.5-4.2c0-1.4,0.6-2.5,1.4-3.2c0.8-0.7,1.8-1,3.1-1c1.2,0,2,0.2,2.4,0.5v1.8c-0.5-0.6-1.3-0.9-2.5-0.9
		C80.8,85.7,79.9,86.9,79.9,88.6"/>
	<path class="st0" d="M57.2,87c0,0.8-0.7,1.1-1.7,1.1h-1.9v-2.3h1.9C56.5,85.9,57.2,86.1,57.2,87 M58.4,90.6
		c-0.4-0.8-0.7-1.4-1.3-1.6c1.2-0.2,1.9-1,1.9-2c0-1.1-0.5-1.9-1.3-2.2c-0.5-0.2-1.2-0.2-2.3-0.2h-4.1c0.4,0.2,0.6,1,0.6,1.8v4.6
		c0,0.7-0.2,1.5-0.6,1.8h2.9c-0.4-0.3-0.6-1.1-0.6-1.8v-1.5h1.2c0.7,0,1,0.3,1.3,0.8c0.4,0.7,0.8,1.7,1.3,2.5l2.4,0
		C59.1,92.1,58.7,91.4,58.4,90.6"/>
	<path class="st0" d="M64.7,92.9c1.1,0,2.1-0.3,2.8-1c0.9-0.7,1.5-1.8,1.5-3.3c0-1.5-0.6-2.6-1.5-3.4c-0.7-0.6-1.7-0.9-2.8-0.9
		c-1.1,0-2,0.3-2.8,0.9c-0.9,0.8-1.5,1.8-1.5,3.4c0,1.5,0.6,2.6,1.5,3.3C62.6,92.6,63.6,92.9,64.7,92.9 M63,90.7
		c-0.5-0.4-0.7-1.1-0.7-2.1c0-1,0.2-1.7,0.7-2.2c0.4-0.4,1-0.7,1.8-0.7c0.7,0,1.3,0.2,1.7,0.7c0.5,0.5,0.7,1.2,0.7,2.2
		c0,1-0.2,1.7-0.7,2.1c-0.4,0.4-1,0.7-1.7,0.7C64,91.5,63.4,91.2,63,90.7"/>
	<path class="st0" d="M75.3,84.5c0.2,0.1,0.3,0.3,0.2,0.5c0,0.2-0.1,0.5-0.3,0.8l-1.6,2.3L72,85.7c-0.2-0.3-0.4-0.6-0.3-0.8
		c0-0.1,0.1-0.3,0.3-0.4h-3.3c0.6,0.2,0.9,0.7,1.3,1.3l2.7,3.8v1.3c0,0.7-0.2,1.5-0.6,1.8H75c-0.4-0.2-0.6-1.1-0.6-1.8v-1.3l2.4-3.4
		c0.4-0.5,0.9-1.3,1.5-1.6H75.3"/>
	<path class="st0" d="M91.1,91.4H89v-2.2h3.1l0.2-1.2H89v-2h1.9c1,0,1.9,0,2.3,0.5v-1.8h-6.5c0.4,0.3,0.6,1.1,0.6,1.8v4.6
		c0,0.7-0.2,1.5-0.6,1.8h6.6l0.3-2C93.1,91.3,92.1,91.4,91.1,91.4"/>
</g>
</svg>
