<?xml version="1.0" encoding="utf-8"?>
<!-- Generator: Adobe Illustrator 24.0.2, SVG Export Plug-In . SVG Version: 6.00 Build 0)  -->
<svg version="1.1" id="Layer_1" xmlns="http://www.w3.org/2000/svg" xmlns:xlink="http://www.w3.org/1999/xlink" x="0px" y="0px"
	 viewBox="0 0 144 101" style="enable-background:new 0 0 144 101;" xml:space="preserve">
<style type="text/css">
	.st0{display:none;}
	.st1{fill-rule:evenodd;clip-rule:evenodd;fill:#002D65;}
	.st2{fill-rule:evenodd;clip-rule:evenodd;fill:#DBDCDD;}
	.st3{fill-rule:evenodd;clip-rule:evenodd;fill:#E6B239;}
	.st4{fill-rule:evenodd;clip-rule:evenodd;fill:#CD1141;}
</style>
<g id="Layer_1_1_" class="st0">
</g>
<g>
	<path class="st1" d="M120.8,50.5c0-27-21.9-48.8-48.8-48.8c-27,0-48.8,21.9-48.8,48.8c0,27,21.9,48.8,48.8,48.8
		C99,99.3,120.8,77.5,120.8,50.5L120.8,50.5z"/>
	<path class="st2" d="M72,5.2c24.9,0,45.3,20.3,45.3,45.3c0,24.9-20.4,45.3-45.3,45.3c-25,0-45.3-20.4-45.3-45.3
		C26.7,25.5,47,5.2,72,5.2L72,5.2z"/>
	<path class="st1" d="M115.6,50.5C115.6,26.4,96,6.9,72,6.9c-24,0-43.6,19.5-43.6,43.6c0,24,19.6,43.6,43.6,43.6
		C96,94.1,115.6,74.5,115.6,50.5L115.6,50.5z"/>
	<path class="st2" d="M48.6,32.4c0.9,0.8,2.4,2.4,4.6,2.4c2.3,0,4-0.8,5.5-0.8c1.1,0,3.1,0.6,4.1,2.6c-0.5-0.4-1.6-0.9-3.3-0.9
		c-1.2,0-3.4,1.2-5.3,1.2C51.2,36.9,49.5,34.5,48.6,32.4L48.6,32.4z"/>
	<path class="st3" d="M64.4,24.2l-5.2-12.1c2.2,0,4.4,0.9,4.4,2.7c0,0.5-0.2,1.1-0.6,1.8c0,0.1,0,0.1,0.1,0.1l0,0
		c0.4-0.4,0.9-0.7,1.6-0.7c1.1,0,2,0.9,2,2.1c0,1-0.8,2-2,2c-0.1,0-0.3,0-0.4,0c0.1,0.4,1.6,1.2,3.2,1.2c1.2,0,2.7-0.5,3.5-2.2
		c-0.3,0.3-0.8,0.4-1.2,0.4c-1.1,0-2.1-0.8-2.1-2s0.9-2.1,2.1-2.1c0.4,0,0.8,0.1,1.1,0.3c-0.4-0.3-0.7-0.8-0.7-1.5c0-1,0.9-2,2.1-2
		c1.1,0,2.1,0.9,2.1,2c0,0.5-0.2,1-0.6,1.4c0.3-0.1,0.6-0.2,0.9-0.2c1.1,0,2.1,0.9,2.1,2.1s-0.9,2-2.1,2c-0.5,0-0.9-0.2-1.4-0.4
		c0.3,0.8,1.9,2.3,3.7,2.3c1,0,2.2-0.4,3.2-1.4c-0.1,0-0.2,0-0.3,0c-1.2,0-2.2-0.9-2.2-2c0-1.1,0.9-2.1,2.2-2.1c0.5,0,1,0.3,1.5,0.7
		c0,0,0,0,0.1,0c0,0,0.1,0,0.1-0.1c-0.5-0.6-0.7-1.2-0.7-1.8c0-1.8,2.2-2.7,4.3-2.7l-5,12H65C64.8,24.1,64.6,24.1,64.4,24.2
		L64.4,24.2z"/>
	<path class="st2" d="M62.8,26.8c0.2-1.2,1.1-2.7,2.2-2.7h15.1c0.3,0.3,0.6,0.7,0.9,1.1c1-0.4,2.1-0.5,2.9-0.5
		c0.7,0,1.2,0.1,1.4,0.1c0,0,0.6,0.1,0.7,0.3c-0.7,1.7-1.2,2.6-1.9,3.4c2.6,2.7,3.6,6,3.1,10.3c-0.7-0.4-2.2-1-3-1.2
		c1.4,2.1,1.8,4,1.8,6c0,1.5-0.3,3-0.9,4.5l-0.4,1.1c-0.8-1.1-1.5-2-2.4-2.7c0.2,0.7,0.5,2.3,0.5,3.3c0,2.8-1.1,5.3-3.7,7
		c-0.5-1.4-1.6-3.3-2.6-4.6c0.1,2.6,0,5.6-1,7.6c-2,2.6-4.7,4.2-8.9,5.2c0.7-1.8,1.4-6.5,1-12.1c-0.8,1.2-1.8,3.6-2.1,6.7
		c-1-0.8-4.2-3.1-4.2-7.2c0-1.7,0.6-3.3,1.7-5c-1.5,0.6-2.5,1.6-3.5,3.6c-0.3-2.9,0.2-6,1.7-8.3c-3.7-0.1-4.8-2.3-4.6-5.6
		c1,0.9,2.2,1.6,3.7,1.6c1.6,0,3.5-0.6,5.5-3.2c-0.9-0.5-1.8-0.8-2.4-1c-0.7-0.2-1.9-0.4-3-1.9c-0.4-0.5-1.1-0.6-2-0.6
		c-1,0-2.6,0.2-5,1.5c0.3-6,3.2-7.9,5.5-7.9C60,25.5,61.4,25.9,62.8,26.8L62.8,26.8z"/>
	<path class="st2" d="M50.4,67.3c3.9,0,7.4,0.6,7.4,3.9h-5.2c0-1.4-0.9-1.6-2.2-1.6c-1.1,0-2,0.3-2,1.1c0,0.8,0.7,1.2,2.6,1.2
		c4.7,0,6.8,0.8,7.2,3l3-7.5h6.8l3.2,8l3.3-8h6.7l3.7,8.8v-8.8h10.7c2.7,0,3.3,1.9,3.3,3c0,1-0.4,2.5-2.5,2.8c2.4,0.2,2.9,2,2.9,3
		c0,1.2-0.9,3.2-3.2,3.2H81.6l-0.7-1.9h-5.9l-0.8,1.9h-5.7l-0.8-1.9h-5.9l-0.8,1.9h-4.6l0.4-1c-0.7,0.6-2,1.4-6.1,1.4
		c-4,0-7.5-0.8-7.6-4.1h5.3c0,0.7,0.5,1.6,2.2,1.6c2.1,0,2.3-0.6,2.3-1.1c0-0.7-0.5-1.4-3-1.4c-3.6,0-6.2-0.6-6.2-3.5
		C43.4,68,47.2,67.3,50.4,67.3L50.4,67.3z M76.1,74.9h3.6l-1.9-4.5L76.1,74.9L76.1,74.9z M62.7,74.9h3.6l-1.9-4.5L62.7,74.9
		L62.7,74.9z M93.1,72.1c0.4,0,0.8-0.4,0.8-0.9c0-0.4-0.4-0.8-0.8-0.8h-3.9v1.8H93.1L93.1,72.1z M89.3,76.4h4.1
		c0.5,0,0.9-0.4,0.9-0.8c0-0.5-0.4-0.8-0.9-0.8h-4.1V76.4L89.3,76.4z"/>
	<path class="st4" d="M67.3,28.6c0,0.4-0.5,1-1.5,1c-0.8,0-1.2-0.5-1.4-0.9c-0.2,0-0.4,0-0.6-0.1c0,1.5,1,1.9,2.1,1.9
		c0.7,0,1.9-0.2,2.2-1.9C67.9,28.6,67.6,28.6,67.3,28.6L67.3,28.6z"/>
	<path class="st4" d="M62.7,28.2c-1.5-0.8-2.8-1.4-3.9-1.4c-2.5,0-3.5,2.8-4,4.4c1.4-0.4,2.5-0.6,3.4-0.6c1.4,0,2.3,0.3,3,1.1
		c0.7,1,1.7,1.2,2,1.2c1.4,0.4,3.7,1.2,3.7,2.4c0,0.2,0,0.5-0.3,0.8c-2.4,3-4.6,3.9-6.5,3.9c-0.9,0-1.7-0.2-2.3-0.4
		c0.5,1.5,2,1.8,3.1,1.8c0.9,0,1.8-0.1,3.5-0.5c-1.9,1.5-3.4,3.3-3.9,6.2c1.7-1.2,3.4-1.6,5.3-1.6c-2.2,2.3-3.4,4.6-3.4,6.9
		c0,2.4,1,3.7,1.8,4.6c0.8-3.9,2.8-6.2,4.1-7.5c0.7,5.4,0.3,11.2-0.1,13.5c2.3-0.8,4.3-1.9,5.8-4c0.9-1.6,1-6.1,0.7-9.9
		c2,1.2,3.7,3.5,4.6,5.4c1.1-1.1,1.8-2.7,1.8-4.8c0-2.3-0.7-4.4-1.5-5.9c1.7,0.5,3.1,1.2,4.3,2.6c0.3-1,0.5-2,0.5-3
		c0-3.6-2-6.2-3.3-7.6c2.2,0,3.4,0.4,4.7,0.8c0.1-2.3-0.5-5-2.6-7.2c-1.9,2.2-3.6,3.4-7.2,4.7c3.1,2.4,2.2,6-0.7,9.7
		c-0.3-1.6-0.7-2.9-1.8-4.1c0.2,2-0.3,5.6-4.4,7.6c0.1-1.6-0.1-2.9-0.4-4.3c-0.3,0.3-0.8,0.7-1.4,1.1c-0.1-0.4-0.2-1.1-0.1-1.7
		c0.7-0.6,1.4-1.5,2.1-2.3c0.6,1.6,0.9,3.6,1,4.6c1.5-1.4,2.6-3.9,1.1-8.3c2.2,1.1,3.3,2.3,4.2,4.2c2.3-3.9-0.1-5.8-3.6-7.2
		c4.2-0.5,9.3-2.4,11.9-7.6c-1.8-0.1-4.5,0.5-7.1,3.9c-0.3-0.2-0.7-0.5-0.8-0.8c1-1.5,2.3-2.6,3.6-3.3c-0.1-0.2-0.2-0.4-0.3-0.4
		H65.1c-0.5,0-1,0.9-1.2,2c0.3,0.1,0.8,0.1,1.4,0.1c0.5,0,1,0,1.7,0c1,0,2.6,0.1,3.5,0.7c-0.1,0.4-0.3,0.7-0.5,0.9
		c-0.2-0.1-0.4-0.1-0.6-0.2c-0.5,2.4-2.2,2.9-3.3,2.9C63,31.8,62.5,29.5,62.7,28.2L62.7,28.2z"/>
</g>
</svg>
