<?xml version="1.0" encoding="utf-8"?>
<!-- Generator: Adobe Illustrator 24.0.2, SVG Export Plug-In . SVG Version: 6.00 Build 0)  -->
<svg version="1.1" id="Layer_1" xmlns="http://www.w3.org/2000/svg" xmlns:xlink="http://www.w3.org/1999/xlink" x="0px" y="0px"
	 viewBox="0 0 144 101" style="enable-background:new 0 0 144 101;" xml:space="preserve">
<style type="text/css">
	.st0{display:none;}
	.st1{fill-rule:evenodd;clip-rule:evenodd;fill:#231F20;}
	.st2{fill-rule:evenodd;clip-rule:evenodd;fill:#FFFFFF;}
	.st3{fill-rule:evenodd;clip-rule:evenodd;fill:#135A39;}
</style>
<g id="Layer_1_1_" class="st0">
</g>
<g>
	<path class="st1" d="M74.5,1c27.3,1.4,48.4,24.6,47.1,52c-1.4,27.3-24.6,48.4-52,47.1c-27.3-1.4-48.4-24.6-47.1-52
		C23.8,20.7,47.1-0.4,74.5,1L74.5,1z"/>
	<path class="st2" d="M74.4,2.6c26.5,1.3,46.9,23.8,45.6,50.3c-1.3,26.5-23.8,46.9-50.3,45.6c-26.5-1.3-46.9-23.8-45.6-50.3
		C25.4,21.7,47.9,1.3,74.4,2.6L74.4,2.6z"/>
	<path class="st1" d="M74.2,5.4c24.9,1.2,44.3,22.6,43,47.6C116,78,94.7,97.3,69.7,96.1c-24.9-1.2-44.3-22.6-43-47.6
		C27.9,23.5,49.3,4.1,74.2,5.4L74.2,5.4z M46.2,17.2c1-0.8,2.1-1.5,3.1-2.1c0.9,1.4,1.9,2.8,2.8,4.2c0.1-2.1,0.1-4.1,0.2-6.2
		c1.2-0.6,2.5-1.2,3.8-1.7c-0.2,2-0.4,4.1-0.5,6c2.3,1.3,4.6,2.6,7,3.8c-1.5,0.6-3,1.2-4.3,1.9c-1.9-1-3.7-2-5.6-3
		c0.9,1.5,1.9,3,2.8,4.5c-1,0.7-2,1.5-2.9,2.3C50.4,23.8,48.3,20.5,46.2,17.2L46.2,17.2z M94.8,29.9c4.2-0.8,8.4-1.6,12.6-2.5
		c0.9,1.4,1.8,2.8,2.5,4.3c-2.8,3.3-5.5,6.7-8.3,10c-0.5-1.5-1.1-2.8-1.7-4c0.6-0.6,1.2-1.2,1.8-1.8c-0.7-1.2-1.5-2.3-2.2-3.5
		c-0.8,0.2-1.6,0.4-2.3,0.7C96.4,32,95.7,30.9,94.8,29.9L94.8,29.9z M103.9,34.1l-1.4-2.3l4.4-1.1L103.9,34.1L103.9,34.1z
		 M89.3,12.1c2.1,1,4,2,6.2,3.4c2.8,1.8,2.3,5,1.2,7.1c-1.1,2.2-3.1,4.2-6.6,3.1c-2.2-1.1-4.4-2.2-6.4-3.6
		C85.6,18.8,87.4,15.4,89.3,12.1L89.3,12.1z M91.1,15.9c1.1,0.5,1,0.5,2.1,1.2c1.5,1,0.4,3.2,0,3.8c-0.6,1.2-2,2.5-3.4,1.8
		c-1.2-0.6-0.7-0.4-1.8-1.2C89,19.8,90.1,17.7,91.1,15.9L91.1,15.9z M33,30.3c0.2-0.6,0.3-1.1,0.7-1.7c0.3,0,0.6,0,1,0
		c-0.2-0.3-0.3-0.5-0.5-0.8c0.3-0.6,0.6-1,1-1.5c0.2,0.4,0.4,0.8,0.6,1.3c0,0.1,0,0.2,0,0.3c-0.4,0.5-0.8,1.2-1.1,1.9
		c0,0.1-0.1,0.2-0.2,0.2C33.9,30.2,33.5,30.2,33,30.3L33,30.3z M38,25.9c0.1-0.1,0.2-0.1,0.3,0c0.6,0.4,1.1,0.8,1.6,1.2
		c0.1,0.1,0.1,0.2,0,0.3c-0.7,0.8-1.6,1.6-2.1,2.6c-0.4,0.9,0.1,1.4,0.3,1.5c0.2,0.1,0.5,0.1,0.8-0.2c0.7-0.7,1.2-1.7,2-2.3
		c0.7-0.5,1.6-1,2.5-0.9c0.7,0,1.5,0.3,2.1,0.7c0.5,0.3,0.8,0.9,1.1,1.5c0.5,1,0.2,2.4-0.1,3.5c-0.2,0.6-1,1.7-1.6,2.5
		c-0.5,0.7-1.1,1.3-1.7,1.9c-0.1,0.1-0.2,0.1-0.3,0c-0.7-0.5-1.1-0.8-2-1.5c0.9-0.7,2-1.6,2.5-2.8c0.2-0.5,0.5-1.2,0.1-1.7
		c-0.8-0.9-1.6,0.3-1.9,0.8c-0.6,0.8-1.1,1.5-2,2c-0.6,0.4-1.5,0.4-2.1,0.4c-0.8-0.1-1.7-0.7-2.1-1.4c-0.5-0.8-0.5-1.8-0.5-2.8
		c0.1-0.8,0.5-1.6,0.9-2.3C36.4,27.8,37.2,26.9,38,25.9L38,25.9z M72,8.4c5.1,0.1,6.5,2.9,6.5,6c-0.1,3.9-2.2,5.8-6.6,5.8
		c-5.8,0-6.5-3.7-6.4-6.1C65.5,10.6,67.5,8.4,72,8.4L72,8.4z M72.1,10.6c2,0,2.6,1.7,2.5,3.6c-0.1,2.4-0.9,3.6-2.7,3.7
		c-2.3,0-2.5-2.2-2.5-3.7C69.5,12,70.3,10.6,72.1,10.6L72.1,10.6z M74.9,84c-0.1-0.2-0.2-0.4-0.2-0.6c0-0.6,0.6-1.1,1.2-1
		c0.6,0,1.1,0.5,1.1,1.2c0,0.6-0.6,1.1-1.2,1c-0.6,0.7-1.2,1.4-1.9,2.1c0.6-0.1,1.2-0.1,1.8-0.2c0.6-0.2,1-0.8,1.3-1.3
		c1.1-1.8,2.6-3.2,4.6-4c1.3-0.5,2.6-1.1,3.9-1.4l0.6-0.2L86,80.3c-0.2,1-0.6,2-1.2,2.8c-0.6,0.8-1.8,1.2-2.8,1.4
		c-0.9,0.2-1.8,0.4-2.7,0.8c-0.3,0.2-0.5,0.4-0.8,0.6c2.1-0.3,4.1-0.9,6.2-1.5c0.6-0.2,1-0.7,1.3-1.3c0.5-0.9,0.8-1.8,1.1-2.8
		C87.1,80,87,79.8,87,79.5c0-0.6,0.6-1.1,1.2-1.1c0.6,0,1.1,0.6,1.1,1.2c0,0.6-0.5,1-1.1,1.1c-0.3,0.9-0.6,1.7-1,2.5
		c0.6-0.3,1.3-0.6,1.9-0.8c0.6-0.4,0.8-1,0.8-1.7c0-0.8,0.1-1.8,0.3-2.5c0.4-1.3,1.5-2.2,2.6-2.9c1-0.6,1.9-1.3,2.7-2.2l0.7-0.7l0,1
		c0,2.3-0.9,4.2-2.9,5.4c-0.9,0.6-1.7,1.4-2,2.4c1.9-1.2,3.8-2.6,5.4-4.1c0.6-0.5,0.9-1.2,0.9-2c0.1-0.8,0-1.7-0.1-2.5
		c-0.4-0.2-0.7-0.6-0.7-1.1c0-0.6,0.6-1.1,1.2-1.1c0.6,0,1.1,0.6,1.1,1.2c0,0.4-0.2,0.7-0.5,0.9c0.1,0.8,0.1,1.6,0.1,2.4
		c0.6-0.7,1.2-1.4,1.8-2c-0.3-1.1-0.5-2.3-0.5-3.5v0l0,0c0.1-1,0.4-1.9,1.1-2.7c0.4-0.6,0.7-1.2,0.9-1.8l0.7-1.9l0,2.1
		c0,0.5,0,1.1,0.1,1.6c0.2-0.6,0.4-1.3,0.6-1.9c-0.2-0.2-0.3-0.5-0.2-0.8c0-0.6,0.6-1.1,1.2-1.1c0.6,0,1.1,0.6,1.1,1.2
		c0,0.6-0.5,1-1.1,1.1c-0.2,0.6-0.4,1.2-0.5,1.9c0.6-0.5,1.1-1,1.7-1.6l0.8-0.9l-0.2,1.2c-0.1,0.8-0.2,1.6-0.3,2.4
		c0.4-0.6,0.9-1.2,1.2-1.8c0-0.1-0.1-0.3-0.1-0.4c0-0.6,0.5-1.1,1.1-1c0.6,0,1,0.5,1,1.1c0,0.6-0.5,1.1-1.1,1c-0.1,0-0.1,0-0.2,0
		c-0.4,0.5-0.7,1.1-1.1,1.6c0.4-0.2,0.7-0.4,1-0.6l1.5-1l-1,1.5c-0.7,1.1-1.4,2.2-1.9,3.4l0,0l0,0c-0.5,0.8-1.2,1.3-2.2,1.4
		c-0.9,0.2-1.8,0.3-2.7,0.3c-0.6,0.6-1.3,1.3-1.8,2.1c0.5-0.1,1.2-0.2,1.7-0.3c0.1-0.5,0.6-0.8,1.1-0.8c0.6,0,1.1,0.5,1,1.2
		c0,0.6-0.5,1.1-1.1,1c-0.3,0-0.5-0.1-0.7-0.3c-0.5,0.1-1,0.2-1.6,0.3c-0.9,0.1-1.6,0.5-2.2,1c-1.9,1.6-3.8,3.1-5.9,4.4
		c0.3,0,0.5,0.1,0.8,0.1c1.4-0.1,2.3-0.8,3.1-1.9c1.3-2,3.3-2.4,5.5-2.3l1,0l-0.7,0.6c-1,0.9-2,1.9-2.8,2.9
		c-1.4,1.7-3.1,2.4-5.3,2.2c-1-0.1-2-0.3-3.1-0.4c-0.7-0.1-1.5,0.3-2.2,0.8c0.9,0.2,1.8,0.3,2.7,0.4c0.1,0,0.3-0.1,0.4-0.1
		c0.6,0,1.1,0.5,1,1.1c0,0.6-0.5,1.1-1.1,1c-0.6,0-1-0.5-1-1.1c-1-0.1-2-0.2-2.9-0.4c-0.7-0.1-1.5,0-2.2,0.2
		c-2.2,0.6-4.4,1.1-6.6,1.7c1.2,0.5,2.6,0.4,3.8,0.1c1-0.3,2-0.7,2.9-1.1l0,0l0,0c1.4-0.3,2.7,0.1,3.8,0.9l0.5,0.4l-0.6,0.3
		c-1.8,1-3.8,1.9-5.8,2.3l0,0l0,0c-2.1,0.3-4-0.2-5.7-1.5l0,0l0,0c-0.5-0.5-1-0.8-1.8-0.6l0,0l0,0c-0.5,0-1,0.1-1.6,0.1
		c1.9,1,3.3,2.5,4.5,4.4l0.3,0.4l-1.4,0.4l-0.1-0.3c-1.1-2.2-2.9-3.6-5.1-4.4c-0.1,0-0.3-0.1-0.4-0.1c-0.1,0-0.2,0-0.2,0.1
		c-2.3,0.8-4,2.3-5.1,4.4l-0.1,0.3L65,92.7l0.3-0.4c1.1-1.8,2.5-3.3,4.3-4.3c-0.5,0-1-0.1-1.4-0.1l0,0l0,0c-0.7-0.1-1.3,0.1-1.8,0.6
		l0,0l0,0c-1.7,1.3-3.6,1.8-5.7,1.5l0,0l0,0c-2-0.4-4-1.3-5.8-2.3l-0.6-0.3l0.5-0.4c1.2-0.8,2.4-1.2,3.8-0.9l0,0l0,0
		c1,0.4,1.9,0.8,2.9,1.1c1.3,0.3,2.6,0.4,3.8-0.1c-2.2-0.6-4.4-1.1-6.6-1.7c-0.7-0.2-1.5-0.2-2.2-0.2c-1,0.1-2,0.2-2.9,0.4
		c0,0.6-0.5,1-1,1.1c-0.6,0-1.1-0.4-1.1-1c0-0.6,0.4-1.1,1-1.1c0.1,0,0.3,0,0.4,0.1c0.9-0.1,1.8-0.2,2.7-0.4
		c-0.7-0.4-1.5-0.8-2.2-0.8c-1,0.1-2,0.3-3.1,0.4c-2.2,0.3-4-0.4-5.3-2.2c-0.8-1.1-1.8-2.1-2.8-2.9l-0.7-0.6l1-0.1
		c2.2-0.1,4.2,0.4,5.5,2.3c0.8,1.1,1.8,1.9,3.1,1.9c0.3,0,0.5-0.1,0.8-0.1c-2.1-1.3-4-2.8-5.9-4.4c-0.7-0.5-1.4-0.9-2.2-1
		c-0.5-0.1-1-0.2-1.6-0.2c-0.2,0.2-0.5,0.3-0.7,0.3c-0.6,0-1.1-0.4-1.2-1c0-0.6,0.4-1.1,1-1.2c0.5,0,0.9,0.3,1.1,0.8
		c0.5,0.1,1.2,0.2,1.7,0.3c-0.5-0.7-1.2-1.4-1.8-2.1c-0.9,0-1.8-0.1-2.7-0.3c-1-0.1-1.7-0.6-2.2-1.4l0,0l0,0c-0.6-1.2-1.2-2.3-2-3.4
		l-1-1.5l1.5,1c0.3,0.2,0.7,0.4,1,0.6c-0.3-0.6-0.7-1.1-1.1-1.6c-0.1,0-0.1,0-0.2,0c-0.6,0-1.1-0.4-1.1-1c0-0.6,0.4-1.1,1-1.1
		c0.6,0,1.1,0.4,1.1,1c0,0.1,0,0.3-0.1,0.4c0.4,0.6,0.8,1.2,1.3,1.8c-0.1-0.8-0.2-1.6-0.4-2.4l-0.2-1.2l0.9,0.9
		c0.5,0.5,1.1,1.1,1.7,1.6c-0.2-0.6-0.3-1.3-0.5-1.9c-0.6,0-1-0.5-1.1-1.1c0-0.6,0.4-1.1,1.1-1.2c0.6,0,1.1,0.4,1.2,1.1
		c0,0.3-0.1,0.5-0.2,0.8c0.2,0.6,0.4,1.3,0.6,1.9c0.1-0.5,0.1-1.1,0.1-1.6l0-2.1l0.7,1.9c0.2,0.6,0.6,1.2,0.9,1.8
		c0.6,0.8,1,1.7,1.1,2.7l0,0v0c0,1.2-0.2,2.3-0.5,3.5c0.6,0.7,1.2,1.4,1.8,2c0-0.8,0-1.6,0.1-2.4c-0.3-0.2-0.5-0.5-0.5-0.9
		c0-0.6,0.5-1.2,1.1-1.2c0.6,0,1.2,0.5,1.2,1.1c0,0.5-0.3,0.9-0.7,1.1c-0.1,0.8-0.1,1.7-0.1,2.5c0.1,0.8,0.3,1.5,0.9,2
		c1.7,1.5,3.5,3,5.4,4.1c-0.4-1-1.2-1.8-2-2.4c-2-1.2-2.9-3.1-3-5.4l0-1l0.7,0.7c0.8,0.9,1.7,1.6,2.7,2.2c1.1,0.7,2.3,1.6,2.6,2.9
		c0.2,0.8,0.3,1.7,0.3,2.5c0,0.7,0.2,1.3,0.8,1.7c0.6,0.3,1.3,0.6,1.9,0.8c-0.4-0.8-0.7-1.7-1-2.5c-0.6,0-1-0.5-1.1-1.1
		c0-0.6,0.5-1.2,1.1-1.2c0.6,0,1.2,0.5,1.2,1.1c0,0.3-0.1,0.5-0.2,0.7c0.3,1,0.6,1.9,1.1,2.8c0.3,0.6,0.7,1.1,1.3,1.3
		c2,0.6,4.1,1.2,6.2,1.5c-0.2-0.2-0.4-0.4-0.8-0.6c-0.8-0.4-1.8-0.6-2.7-0.8c-0.9-0.2-2.2-0.6-2.7-1.4c-0.6-0.8-1-1.8-1.2-2.8
		l-0.1-0.6l0.6,0.2c1.3,0.3,2.6,0.9,3.9,1.4c2,0.8,3.5,2.2,4.6,4c0.3,0.5,0.7,1,1.3,1.3c0.6,0.1,1.2,0.1,1.8,0.2
		c-0.6-0.7-1.2-1.4-1.9-2.1c-0.6,0-1.2-0.4-1.2-1c0-0.6,0.5-1.1,1.1-1.2c0.6,0,1.2,0.4,1.2,1c0,0.2,0,0.4-0.2,0.6
		c0.5,0.6,1,1.3,1.6,1.9l0,0l0,0c0.3,0.4,0.7,0.8,1.1,0.9c0.5-0.2,0.9-0.5,1.2-1l0,0l0,0C73.8,85.3,74.4,84.6,74.9,84L74.9,84z
		 M73.4,22.1c15.8,0.8,28,14.3,27.2,30c-0.8,15.8-14.3,28-30,27.2c-15.8-0.8-28-14.3-27.2-30C44.2,33.6,57.7,21.3,73.4,22.1
		L73.4,22.1z"/>
	<path class="st3" d="M78.4,92.5c-1.3-2.2-3.1-3.8-5.5-4.8c0.9-0.2,1.9-0.3,2.9-0.3c0.7-0.1,1.4,0,2.1,0.7c1.5,1.1,3.3,1.7,5.4,1.4
		c1.9-0.4,3.8-1.2,5.7-2.3c-1-0.7-2.1-1.1-3.6-0.9c-1,0.4-2,0.8-3,1.1c-2.1,0.5-3.8,0.3-5-0.6c2.5-0.6,5.1-1.3,7.6-1.9
		c0.7-0.2,1.5-0.3,2.3-0.2c1.1,0.1,2.2,0.3,3.4,0.4c0,0.1-0.1,0.2-0.1,0.3c0,0.4,0.3,0.7,0.7,0.7c0.4,0,0.7-0.3,0.7-0.7
		c0-0.4-0.3-0.7-0.7-0.7c-0.1,0-0.2,0-0.3,0.1c-0.5-0.1-2.7-0.4-3.8-0.6c1.1-0.7,2.3-1.4,3.3-1.3c1,0.1,2,0.3,3.1,0.4
		c1.9,0.2,3.6-0.3,5-2c0.9-1.1,1.8-2.1,2.9-3c-2.1-0.1-3.9,0.3-5.1,2.2c-0.9,1.2-2,2-3.5,2.1c-0.6-0.1-1.3-0.2-1.9-0.2
		c2.5-1.6,4.7-3.3,6.8-5c0.7-0.6,1.5-1,2.4-1.1c0.6-0.1,1.2-0.2,1.8-0.3c0.1,0.2,0.3,0.4,0.6,0.4c0.4,0,0.7-0.3,0.7-0.7
		c0-0.4-0.3-0.7-0.7-0.7c-0.4,0-0.7,0.3-0.7,0.7c0,0,0,0,0,0.1c-0.4,0-2.3,0.4-2.8,0.3c0.5-0.8,1.5-1.9,2.4-2.8
		c0.8,0,1.7-0.1,2.8-0.3c0.8-0.1,1.4-0.5,1.9-1.2c0.6-1.1,1.2-2.3,2-3.4c-0.6,0.4-1.2,0.7-1.7,1c-0.1,0-0.2-0.1-0.3-0.1
		c0.5-0.9,1.1-1.8,1.7-2.7c0.1,0.1,0.2,0.1,0.3,0.1c0.4,0,0.7-0.3,0.7-0.7c0-0.4-0.3-0.7-0.7-0.7c-0.4,0-0.7,0.3-0.7,0.7
		c0,0.1,0,0.3,0.1,0.4c-0.6,0.9-1.2,1.8-1.9,2.7c-0.1,0-0.2-0.1-0.3-0.1c0.1-1.1,0.3-2.2,0.4-3.3c-0.7,0.7-1.4,1.4-2.2,2
		c-0.1,0-0.2,0-0.3,0c0.2-1,0.5-2,0.8-3c0.1,0,0.1,0,0.2,0c0.4,0,0.7-0.3,0.8-0.7c0-0.4-0.3-0.7-0.7-0.8c-0.4,0-0.7,0.3-0.8,0.7
		c0,0.2,0.1,0.5,0.3,0.6c-0.3,1-0.6,2-1,2.9c-0.1,0-0.2,0-0.4-0.1c-0.2-0.8-0.2-1.6-0.2-2.4c-0.2,0.6-0.6,1.3-1,1.9
		c-0.6,0.7-0.9,1.6-1,2.5c0,1.2,0.2,2.4,0.6,3.6c-0.9,1.1-1.8,2.1-2.7,3c0.1-1.2,0.1-2.5-0.1-3.7c0.3-0.1,0.5-0.4,0.5-0.7
		c0-0.4-0.3-0.8-0.7-0.8c-0.4,0-0.8,0.3-0.8,0.7c0,0.4,0.3,0.7,0.7,0.8c0.1,1,0.2,1.9,0.1,2.8C98,76,97.7,76.7,97,77.3
		c-2.2,2-4.4,3.6-6.3,4.6c0.1-1.3,0.9-2.4,2.4-3.5c1.8-1,2.8-2.7,2.8-5.1c-0.8,0.9-1.7,1.6-2.8,2.3c-1.1,0.7-2.1,1.6-2.5,2.7
		c-0.2,0.6-0.3,1.5-0.3,2.4c0,0.9-0.3,1.6-1,2.1c-1,0.4-1.9,0.9-2.9,1.3c0.6-1.2,1.1-2.4,1.5-3.7c0,0,0.1,0,0.1,0
		c0.4,0,0.8-0.3,0.8-0.7c0-0.4-0.3-0.8-0.7-0.8c-0.4,0-0.8,0.3-0.8,0.7c0,0.2,0.1,0.4,0.2,0.6c-0.3,1-0.6,2.1-1.2,3.1
		c-0.4,0.7-0.9,1.3-1.6,1.5c-2.4,0.7-4.8,1.4-7.1,1.7c0.4-0.6,0.7-1.1,1.4-1.4c0.8-0.4,1.8-0.6,2.7-0.8c1.3-0.3,2.1-0.7,2.5-1.3
		c0.5-0.7,0.9-1.6,1.1-2.6c-1.2,0.3-2.5,0.8-3.8,1.4c-1.8,0.7-3.2,1.9-4.4,3.8c-0.4,0.7-0.9,1.2-1.6,1.5C74.9,87,74,87,73,87.1
		c0.9-1,1.8-2,2.6-3c0.1,0,0.1,0,0.2,0c0.4,0,0.8-0.3,0.8-0.7c0-0.4-0.3-0.7-0.7-0.7c-0.4,0-0.8,0.3-0.8,0.7c0,0.2,0.1,0.4,0.3,0.6
		c-0.6,0.8-1.2,1.6-1.8,2.2c-0.4,0.6-0.9,1-1.6,1.2c-0.6-0.2-1.1-0.6-1.4-1.1c-0.6-0.6-1.2-1.3-1.9-2.2c0.2-0.1,0.3-0.4,0.3-0.6
		c0-0.4-0.4-0.7-0.8-0.7c-0.4,0-0.8,0.4-0.7,0.7c0,0.4,0.4,0.7,0.8,0.7c0.1,0,0.1,0,0.2,0c0.9,1,1.8,2,2.6,3
		c-0.9-0.1-1.9-0.2-2.8-0.3c-0.7-0.2-1.2-0.8-1.6-1.5c-1.1-1.9-2.6-3.1-4.4-3.8c-1.3-0.6-2.6-1.1-3.8-1.4c0.2,1,0.6,1.9,1.1,2.6
		c0.4,0.5,1.2,1,2.5,1.3c1,0.2,1.9,0.4,2.7,0.8c0.7,0.3,1.1,0.9,1.4,1.4c-2.4-0.3-4.7-1-7.1-1.6c-0.7-0.2-1.2-0.7-1.6-1.5
		c-0.5-1-0.9-2-1.2-3.1c0.2-0.1,0.3-0.4,0.2-0.6c0-0.4-0.4-0.7-0.8-0.7c-0.4,0-0.7,0.4-0.7,0.8c0,0.4,0.4,0.7,0.8,0.7
		c0.1,0,0.1,0,0.1,0c0.4,1.3,0.9,2.5,1.5,3.7c-1-0.4-1.9-0.9-2.9-1.3c-0.7-0.5-1-1.2-1-2.1c0-0.9-0.1-1.8-0.3-2.4
		c-0.3-1.1-1.3-2-2.5-2.7c-1.1-0.6-2-1.4-2.8-2.3c0,2.4,1,4.1,2.8,5.1c1.5,1.1,2.3,2.2,2.4,3.5c-1.9-1-4.1-2.6-6.3-4.6
		c-0.6-0.6-1-1.3-1.1-2.3c-0.1-0.9,0-1.9,0.1-2.8c0.4,0,0.7-0.4,0.7-0.8c0-0.4-0.4-0.7-0.8-0.7c-0.4,0-0.7,0.4-0.7,0.8
		c0,0.3,0.2,0.6,0.5,0.7c-0.2,1.2-0.2,2.5-0.1,3.7c-0.9-0.9-1.8-1.9-2.7-3c0.4-1.2,0.5-2.4,0.5-3.6c-0.1-0.9-0.4-1.8-1-2.5
		c-0.4-0.6-0.7-1.3-1-1.9c0,0.8,0,1.6-0.2,2.4c-0.1,0-0.2,0-0.4,0.1c-0.4-1-0.7-1.9-1-2.9c0.2-0.1,0.3-0.4,0.3-0.6
		c0-0.4-0.4-0.7-0.8-0.7c-0.4,0-0.7,0.4-0.7,0.8c0,0.4,0.4,0.7,0.8,0.7c0.1,0,0.1,0,0.2,0c0.3,1,0.6,2,0.8,3c-0.1,0-0.2,0-0.3,0
		c-0.7-0.6-1.5-1.3-2.2-2c0.2,1.1,0.3,2.2,0.5,3.3c-0.1,0-0.2,0.1-0.3,0.1c-0.7-0.8-1.3-1.7-1.9-2.7c0.1-0.1,0.1-0.3,0.1-0.4
		c0-0.4-0.3-0.7-0.7-0.7c-0.4,0-0.7,0.3-0.7,0.7c0,0.4,0.3,0.7,0.7,0.7c0.1,0,0.2,0,0.3-0.1c0.6,0.9,1.3,1.8,1.7,2.7
		c-0.1,0-0.2,0.1-0.3,0.1c-0.5-0.3-1.1-0.6-1.7-1c0.7,1.1,1.4,2.3,2,3.4c0.5,0.8,1.1,1.2,1.9,1.2c1.1,0.2,2,0.3,2.8,0.3
		c0.9,1,1.9,2.1,2.4,2.8c-0.5,0.1-2.4-0.3-2.8-0.3c0,0,0,0,0-0.1c0-0.4-0.4-0.7-0.7-0.7c-0.4,0-0.7,0.4-0.7,0.7
		c0,0.4,0.4,0.7,0.7,0.7c0.3,0,0.5-0.2,0.6-0.4c0.6,0.1,1.2,0.2,1.8,0.3c0.9,0.1,1.7,0.5,2.4,1.1c2,1.7,4.2,3.4,6.8,4.9
		c-0.6,0.1-1.3,0.2-1.9,0.2c-1.5-0.1-2.6-0.9-3.5-2.1c-1.2-1.8-3.1-2.3-5.2-2.1c1,0.9,2,1.9,2.9,3c1.4,1.7,3,2.3,5,2
		c1-0.1,2-0.3,3.1-0.4c1-0.1,2.1,0.6,3.3,1.3c-1.1,0.2-3.3,0.5-3.8,0.6c-0.1,0-0.2-0.1-0.3-0.1c-0.4,0-0.7,0.4-0.7,0.7
		c0,0.4,0.4,0.7,0.7,0.7c0.4,0,0.7-0.4,0.7-0.7c0-0.1,0-0.2-0.1-0.3c1.1-0.1,2.2-0.3,3.4-0.4c0.8-0.1,1.6,0,2.3,0.2
		c2.5,0.6,5.1,1.3,7.6,1.9c-1.3,0.9-2.9,1.1-5,0.6c-1-0.3-2-0.7-3-1.1c-1.4-0.3-2.5,0.2-3.6,0.9c1.9,1,3.8,1.9,5.7,2.3
		c2.1,0.3,3.9-0.3,5.4-1.4c0.7-0.7,1.4-0.9,2.1-0.8c0.9,0.1,1.9,0.1,2.7,0.3c-2.3,1-4,2.6-5.3,4.7l0.6,0.2c1.2-2.3,3-3.8,5.4-4.6
		c0.1,0,0.2-0.1,0.3-0.1c0.2,0,0.4,0.1,0.6,0.2c2.3,0.8,4.2,2.3,5.4,4.6L78.4,92.5L78.4,92.5z"/>
	<path class="st3" d="M62.9,58.5c-0.9-3.6-2.8-6.5-5.7-8.6c-1.9-1.4-4.1-2.3-6.8-2.3c-1,0-2.1,0-2.7-0.1c-1,0-1.4-0.8-1.4-2.2
		c0.4-2.5,1.3-5,2.9-7.2c0.4-0.5,0.9-0.7,1.6-0.7c0.6,0.1,1.2,0.2,1.7,0.4c2.1,0.7,4.3,1.7,6.5,2.8c0.9,0.4,1.5-0.4,0.9-0.9
		c-1.2-1.4-4.4-2.7-7.8-4c-0.3-0.1-1.1-0.7-0.3-1.7c2.2-2.8,4.9-5,8-6.6c1.1-0.6,2.1-0.4,3.1,0c1,0.6,2,1.3,2.8,2.3
		c1.6,1.6,3.2,3.2,4.6,4.8c0.9,0.7,1.6-0.4,1.2-1c-2-2.1-4-4.1-6-6.2c-0.9-1-0.7-1.7,0.6-2.3c1.9-0.6,4-0.9,6.8-0.6
		c0.9,0.1,1.7,0.4,2.4,0.9c1.3,0.9,2.4,1.8,3.2,2.7c6.7,7.6,9.9,17.5,5.1,32.8c-0.1,0.4-0.1,0.8,0.6,1.1c0.3,0.1,0.6,0,1,0
		c0.6-0.2,0.6-0.6,0.5-1c-0.1-0.3-0.1-0.6-0.1-1c0-0.3,0.3-0.4,0.9-0.4c0.8,0,1.5,0.1,2.2,0.3c2.6,0.8,4.6,2.2,6.2,4
		c0.1,0.2,0.1,0.3,0,0.5c-1.9,2.3-4.4,3.7-7.4,4.4c-0.4,0-0.9,0-1.3,0c-0.4-0.1-0.5-0.3-0.6-0.7c0-0.3,0-0.6,0.1-0.9
		c-0.1-0.4-0.3-0.6-0.7-0.8c-0.6-0.2-1.2-0.2-1.7-0.1c-0.5,0-20.4,0.1-21.8,0.1c-1.6,0.1-2.7,0.7-3.4,1.3c-0.4,0.5-0.9,0.8-1.6,1.1
		c-0.9,0.1-1.9,0.1-2.8,0c-0.4-0.1-0.8-0.4-1-1.1c-1-3.1-2.3-4.9-3.8-5.7c-1.2-0.7-1.2-1.7,0-2c0.5,0,1.1-0.1,1.6-0.1
		c2,0,4.1,0,6.1,0c0.7,0.1,1.2,0.2,1.7,0.4c1.1,0.6,2.3,1.2,3.4,1.7c1.2,0.4,1.9-0.3,1.7-1.6C63.2,59.8,63,59.1,62.9,58.5L62.9,58.5
		z M77,52.1c-2.1-0.1-3.9,1.5-4,3.7c-0.1,2.1,1.5,3.9,3.6,4c2.1,0.1,3.9-1.5,4-3.7C80.7,54,79.1,52.2,77,52.1L77,52.1z"/>
</g>
</svg>
