<?xml version="1.0" encoding="utf-8"?>
<!-- Generator: Adobe Illustrator 24.0.2, SVG Export Plug-In . SVG Version: 6.00 Build 0)  -->
<svg version="1.1" id="Layer_1" xmlns="http://www.w3.org/2000/svg" xmlns:xlink="http://www.w3.org/1999/xlink" x="0px" y="0px"
	 viewBox="0 0 144 101" style="enable-background:new 0 0 144 101;" xml:space="preserve">
<style type="text/css">
	.st0{display:none;}
	.st1{fill:#FFFFFF;}
	.st2{fill:#231F20;}
	.st3{fill:url(#SVGID_1_);}
	.st4{fill:url(#SVGID_2_);}
	.st5{fill:url(#SVGID_3_);}
	.st6{fill:url(#SVGID_4_);}
	.st7{fill:url(#SVGID_5_);}
	.st8{fill:url(#SVGID_6_);}
	.st9{fill:url(#SVGID_7_);}
	.st10{fill:#A6A8AB;}
	.st11{fill:url(#SVGID_8_);}
	.st12{fill:#929497;}
	.st13{fill:url(#SVGID_9_);}
	.st14{fill:url(#SVGID_10_);}
	.st15{fill:url(#SVGID_11_);}
	.st16{fill:url(#SVGID_12_);}
	.st17{fill:url(#SVGID_13_);}
	.st18{fill:url(#SVGID_14_);}
	.st19{fill:url(#SVGID_15_);}
	.st20{fill:url(#SVGID_16_);}
	.st21{fill:url(#SVGID_17_);}
	.st22{opacity:0.1;fill:url(#SVGID_18_);}
	.st23{fill:#808184;}
	.st24{fill:#404041;}
</style>
<g id="Layer_1_1_" class="st0">
</g>
<g>
	<g>
		<g>
			<g>
				<g>
					<path class="st1" d="M127.4,58.2L16.7,38.6c0,0,0.3-12.4,0.5-19c0.2-6.6,1.6-10.6,4.3-13C25.3,3.3,29.6,2.5,40,2
						c24.1-1.3,48.6-1.1,79.4,1c3.2,0.2,4.4,0.8,5,1.3c1.4,0.9,1.5,2,1.9,7.4c0.3,4.4,1,19.2,1,19.2s-36.3-1.3-54.2-1.3
						c-5,0-9.1,0-12.4,0.1c-2.2,0-3.2,0.2-4.1,0.7l70.6,12V58.2z"/>
				</g>
				<g>
					<path class="st1" d="M16.6,42.8l110.7,19.7c0,0-0.3,12.4-0.5,19c-0.2,6.6-1.6,10.6-4.3,13c-3.7,3.3-8.1,4.1-18.5,4.7
						c-24.1,1.3-48.6,1.1-79.4-1c-3.2-0.2-4.4-0.8-5-1.3c-1.4-0.9-1.5-2-1.9-7.4c-0.3-4.4-1-19.2-1-19.2s36.3,1.3,54.2,1.3
						c5,0,9.1,0,12.4-0.1c2.2,0,3.2-0.2,4.1-0.7l-70.6-12V42.8z"/>
				</g>
			</g>
			<g id="did_2_">
				<g>
					<path class="st2" d="M127.4,58.2L16.7,38.6c0,0,0.3-12.4,0.5-19c0.2-6.6,1.6-10.6,4.3-13C25.3,3.3,29.6,2.5,40,2
						c24.1-1.3,48.6-1.1,79.4,1c3.2,0.2,4.4,0.8,5,1.3c1.4,0.9,1.5,2,1.9,7.4c0.3,4.4,1,19.2,1,19.2s-36.3-1.3-54.2-1.3
						c-5,0-9.1,0-12.4,0.1c-2.2,0-3.2,0.2-4.1,0.7l70.6,12V58.2z M16.6,42.8l110.7,19.7c0,0-0.3,12.4-0.5,19
						c-0.2,6.6-1.6,10.6-4.3,13c-3.7,3.3-8.1,4.1-18.5,4.7c-24.1,1.3-48.6,1.1-79.4-1c-3.2-0.2-4.4-0.8-5-1.3
						c-1.4-0.9-1.5-2-1.9-7.4c-0.3-4.4-1-19.2-1-19.2s36.3,1.3,54.2,1.3c5,0,9.1,0,12.4-0.1c2.2,0,3.2-0.2,4.1-0.7l-70.6-12V42.8z
						 M17.8,44.2v13.6l72,12.3c0,0-1,1.3-2,1.8c-1,0.5-2.3,0.7-4.6,0.8c-3.3,0.1-7.4,0.1-12.4,0.1c-15.8,0-46.4-1-52.9-1.3
						c0.2,3.7,0.7,14.3,0.9,17.9c0.4,5.4,0.5,6,1.4,6.6c0.3,0.2,1.2,0.8,4.5,1.1c17.8,1.2,33.8,1.8,48.9,1.8
						c10.2,0,20.2-0.3,30.4-0.8c10.1-0.5,14.3-1.3,17.8-4.4c2.5-2.2,3.7-6,3.9-12.1c0.2-5.4,0.4-14.9,0.5-17.9L17.8,44.2z
						 M126.2,56.8V43.3L54.2,31c0,0,1-1.3,2-1.8c1-0.5,2.3-0.7,4.6-0.8c3.3-0.1,7.4-0.1,12.4-0.1c15.8,0,46.4,1,52.9,1.3
						c-0.2-3.7-0.7-14.3-0.9-17.9c-0.4-5.4-0.5-6-1.4-6.6c-0.3-0.2-1.2-0.8-4.5-1.1c-17.8-1.2-33.8-1.8-48.9-1.8
						c-10.2,0-20.2,0.3-30.4,0.8C30,3.7,25.8,4.4,22.3,7.5c-2.5,2.2-3.7,6-3.9,12.1C18.2,25,18,34.5,17.9,37.6L126.2,56.8z"/>
					<path class="st1" d="M74.9,77.3c-0.6,0-3.9,0-4.6,0c-14.7,0-30.4-0.1-49.7-1.2l-2.8-4.8l0.7,0l3.2,3.7
						c16.6,0.9,31.9,1.1,48.6,1.1c0.7,0,3.8,0,4.6,0c2.4,0,5.1,0,7.6-0.1c8.4-0.3,11-1.2,16.8-7l2.1-0.2l-0.9,0.9
						c-6.2,6.4-8.8,7.1-18,7.4C80,77.3,77.3,77.3,74.9,77.3L74.9,77.3z"/>
					<polygon class="st1" points="126.1,63.4 17.8,44.2 17.8,44.9 19.7,45.8 19.7,54.7 17.8,56.8 17.8,57.7 20.7,55.3 20.7,45.4 
						124.5,63.8 					"/>
					
						<radialGradient id="SVGID_1_" cx="68.3375" cy="94.783" r="56.0497" gradientTransform="matrix(0.9637 0.2671 -0.1683 0.6071 18.4346 18.9824)" gradientUnits="userSpaceOnUse">
						<stop  offset="0.3301" style="stop-color:#7A7C7F"/>
						<stop  offset="0.5694" style="stop-color:#939598"/>
						<stop  offset="0.7979" style="stop-color:#A6A8AB"/>
						<stop  offset="1" style="stop-color:#D0D2D3"/>
					</radialGradient>
					<path class="st3" d="M123.4,63.6c-0.1,1.8-0.1,4.1-0.2,6.2c-0.1,1.8-0.1,3.3-0.2,4.7c-0.1,1.9-0.2,3.9-0.3,6.5
						c-0.3,6.7-1.8,8.9-4.7,10.7c-2.8,1.7-6.1,1.9-16,2.4c-10.1,0.5-20.8,0.8-32,0.9c-0.9,0-1.7,0-2.5,0c-13.1,0-25-0.7-40-1.9
						c-2.6-0.2-4.2-0.4-4.9-0.9c-0.8-0.5-1-0.7-1.2-3.9c0-0.5-0.1-0.9-0.1-1.3c-0.1-1.2-0.2-2.3-0.2-3.9c-0.1-1.7-0.2-3.3-0.4-6.9
						l-1-1.7c0.2,3.8,0.3,7.1,0.4,8.8c0.1,1.5,0.1,2.6,0.2,3.8l0,0.1c0,0.4,0,0.8,0.1,1.2c0.2,3.2,0.4,3.9,1.7,4.7
						c0.9,0.6,2.6,0.9,5.4,1.1c15,1.2,27,1.9,40.1,1.9c0.8,0,1.7,0,2.5,0c11.2-0.1,22-0.4,32-0.9c10.1-0.5,13.5-0.7,16.5-2.6
						c3.3-2,5-4.3,5.3-11.5c0.1-2.6,0.2-4.5,0.3-6.4l0-0.1c0.1-3,0.3-6.3,0.4-10.7L123.4,63.6z"/>
					<g>
						<linearGradient id="SVGID_2_" gradientUnits="userSpaceOnUse" x1="54.6792" y1="27.8093" x2="123.3051" y2="27.8093">
							<stop  offset="0" style="stop-color:#4D4D4F"/>
							<stop  offset="0.3305" style="stop-color:#545557"/>
							<stop  offset="0.454" style="stop-color:#58595B"/>
							<stop  offset="0.4825" style="stop-color:#545557"/>
							<stop  offset="0.7616" style="stop-color:#312E2F"/>
							<stop  offset="0.9069" style="stop-color:#231F20"/>
						</linearGradient>
						<path class="st4" d="M123.5,26.4L123.5,26.4H123c-15.8-0.8-32-0.7-50.1-0.7c-1.1,0-2.6,0-4.2,0c-4.8,0.1-8.5,0.1-10.7,0.5
							c-4.8,0.9-4.5,3.3-2.7,3.7c0.3-0.3,0.6-0.5,1-0.7c1-0.5,2.3-0.7,4.6-0.8c3.3-0.1,7.4-0.1,12.4-0.1c15.4,0,44.8,1,52.4,1.3
							C125,28.8,123.7,26.8,123.5,26.4z"/>
					</g>
					<path class="st1" d="M121.3,10.1l0.6-0.9c0,0-0.2-0.1-0.2-0.1c-0.8-0.5-2.4-0.9-5.2-1.1c-14.1-1-29.8-1.6-41-1.6
						c-0.8,0-1.5,0-2.2,0c-2.3,0-4.6,0-6.7,0C56,6.5,47.6,6.6,41.5,6.9C41,7,40.5,7,40,7c-8.8,0.5-13.2,0.7-16.6,3.8
						c-2.3,2.1-3.3,4.9-3.5,10.3l-0.1,2.6c-0.2,4.1-0.2,6.7-0.4,12.3c-0.3,0.1-1.1,0.5-1.4,0.7l0,0.9l2.5-1l0-1.3
						c0.2-4.8,0.2-7.7,0.4-11.5l0.1-2.6c0.2-5.1,1.1-7.7,3.1-9.6c3.2-2.8,7.4-3,16-3.5c0.5,0,1-0.1,1.5-0.1
						C47.7,7.7,56,7.6,66.7,7.5c2.1,0,4.3,0,6.7,0c0.7,0,1.5,0,2.2,0c11.1,0,26.8,0.6,40.9,1.6c2.5,0.2,4.1,0.5,4.7,0.9L121.3,10.1
						C121.3,10.1,121.3,10.1,121.3,10.1z"/>
					<linearGradient id="SVGID_3_" gradientUnits="userSpaceOnUse" x1="26.5296" y1="34.7587" x2="20.4651" y2="7.6579">
						<stop  offset="0" style="stop-color:#929497"/>
						<stop  offset="0.4807" style="stop-color:#9EA0A3"/>
						<stop  offset="1" style="stop-color:#A6A8AB"/>
					</linearGradient>
					<path class="st5" d="M19.7,23.7l0.1-2.6c0.2-5.5,1.2-8.3,3.5-10.3c0.5-0.5,1-0.8,1.6-1.2c-0.5-1-0.7-2-0.3-2.7
						c0.3-0.6,1.5-1.6,4.2-2.5C26,5,24.1,6,22.3,7.5c-2.5,2.2-3.7,6-3.9,12.1c-0.2,4.9-0.4,13.3-0.5,17c0.2-0.1,1-0.5,1.4-0.7
						C19.5,30.5,19.6,27.9,19.7,23.7z"/>
					<linearGradient id="SVGID_4_" gradientUnits="userSpaceOnUse" x1="24.9365" y1="6.6257" x2="125.1957" y2="6.6257">
						<stop  offset="5.670860e-02" style="stop-color:#BFBFBF"/>
						<stop  offset="0.2789" style="stop-color:#BCBCBC"/>
						<stop  offset="0.442" style="stop-color:#B3B3B3"/>
						<stop  offset="0.5862" style="stop-color:#A3A3A3"/>
						<stop  offset="0.7194" style="stop-color:#8C8C8C"/>
						<stop  offset="0.8452" style="stop-color:#6F6F6F"/>
						<stop  offset="0.9637" style="stop-color:#4C4C4C"/>
						<stop  offset="1" style="stop-color:#404040"/>
					</linearGradient>
					<path class="st6" d="M122.4,9.6c0.7-1.1,1.8-1.1,2.7,1.3c-0.3-4.7-0.5-5.2-1.3-5.7c-0.3-0.2-1.2-0.8-4.5-1.1
						c-17.8-1.2-33.8-1.8-48.9-1.8c-10.2,0-20.2,0.3-30.4,0.8c-5,0.3-8.6,0.6-11.3,1.2c-2.6,0.9-3.9,2-4.2,2.5
						c-0.4,0.7-0.2,1.7,0.3,2.7c3.2-2,7.5-2.2,15-2.6c0.5,0,1-0.1,1.5-0.1C47.6,6.6,56,6.5,66.7,6.4c2.1,0,4.3,0,6.7,0
						c0.7,0,1.5,0,2.2,0c11.1,0,26.8,0.6,41,1.6c2.8,0.2,4.4,0.5,5.2,1.1c0,0,0.2,0.1,0.2,0.1C122.1,9.3,122.3,9.5,122.4,9.6z"/>
					<linearGradient id="SVGID_5_" gradientUnits="userSpaceOnUse" x1="123.7329" y1="9.7814" x2="123.7329" y2="29.1779">
						<stop  offset="6.134970e-03" style="stop-color:#FFFFFF"/>
						<stop  offset="0.1166" style="stop-color:#CCCCCC"/>
						<stop  offset="0.495" style="stop-color:#CACACA"/>
						<stop  offset="0.6313" style="stop-color:#C3C3C3"/>
						<stop  offset="0.7284" style="stop-color:#B8B8B8"/>
						<stop  offset="0.807" style="stop-color:#A7A7A7"/>
						<stop  offset="0.8742" style="stop-color:#919191"/>
						<stop  offset="0.9338" style="stop-color:#757575"/>
						<stop  offset="0.9863" style="stop-color:#565656"/>
						<stop  offset="1" style="stop-color:#4D4D4D"/>
					</linearGradient>
					<path class="st7" d="M126.1,28.9l-2.1-3.6c0-2.9-0.3-9-0.5-11.5c-0.2-2.4-0.3-3.4-1-4.2c-0.1-0.2-0.3-0.3-0.5-0.4l-0.6,0.9
						c0.7,0.5,0.8,1,1.1,3.8c0.2,2.6,0.6,9.2,0.7,11.8l2.6,3.9l0.5,0L126.1,28.9z"/>
					<path class="st2" d="M125.2,10.9c-1-2.4-2-2.4-2.7-1.3c0.7,0.8,0.8,1.8,1,4.2c0.2,2.5,0.5,8.6,0.5,11.5l2.1,3.6
						c-0.2-4.2-0.7-13.8-0.9-17.2"/>
					<radialGradient id="SVGID_6_" cx="122.2898" cy="94.9789" r="133.7067" gradientUnits="userSpaceOnUse">
						<stop  offset="0.1417" style="stop-color:#808184"/>
						<stop  offset="0.2456" style="stop-color:#919295"/>
						<stop  offset="0.4659" style="stop-color:#AFB1B3"/>
						<stop  offset="0.5888" style="stop-color:#BBBDBF"/>
						<stop  offset="0.6356" style="stop-color:#C6C8CA"/>
						<stop  offset="0.7344" style="stop-color:#D8D9DB"/>
						<stop  offset="0.8395" style="stop-color:#E3E4E5"/>
						<stop  offset="0.9612" style="stop-color:#E6E7E8"/>
					</radialGradient>
					<path class="st8" d="M123,25.7c-14.8-0.7-30.7-1.1-50.2-1.1c-3.9,0-11.5,0.1-14.9,0.2c-5.9,0.1-6.9,3.8-6.9,5.1l72.6,16.9v9
						l2.6,1L17.9,37.6l2.5-1l0-1.3c0,0,0.2-7.7,0.4-11.5l0.1-2.6c0.2-5.1,1.1-7.7,3.1-9.6c3.2-2.8,7.4-3,16-3.5c0.5,0,1-0.1,1.5-0.1
						C47.7,7.7,56,7.6,66.7,7.5c2.1,0,4.3,0,6.7,0c0.7,0,1.5,0,2.2,0c11.1,0,26.8,0.6,40.9,1.6c2.5,0.2,4.1,0.5,4.7,0.9l0.2,0.1
						c0,0,0,0,0,0c0,0,0,0,0,0c0,0,0,0,0,0c0,0,0,0,0.1,0c0,0,0,0,0,0c0,0,0,0,0.1,0c0,0,0,0,0,0c0,0,0,0,0,0c0,0,0,0,0,0
						c0,0,0,0,0,0l0,0c0.4,0.4,0.5,1.1,0.7,3.1c0,0.2,0,0.3,0,0.5C122.6,16.5,123,23.1,123,25.7"/>
					<radialGradient id="SVGID_7_" cx="171.5742" cy="116.8137" r="139.5085" gradientUnits="userSpaceOnUse">
						<stop  offset="0.1417" style="stop-color:#808184"/>
						<stop  offset="0.2456" style="stop-color:#919295"/>
						<stop  offset="0.4659" style="stop-color:#AFB1B3"/>
						<stop  offset="0.5888" style="stop-color:#BBBDBF"/>
						<stop  offset="0.6163" style="stop-color:#C6C8CA"/>
						<stop  offset="0.69" style="stop-color:#DFE0E1"/>
						<stop  offset="0.767" style="stop-color:#F1F1F2"/>
						<stop  offset="0.8488" style="stop-color:#FCFCFC"/>
						<stop  offset="0.9435" style="stop-color:#FFFFFF"/>
					</radialGradient>
					<path class="st9" d="M123,25.7c-14.8-0.7-30.7-1.1-50.2-1.1c-3.9,0-11.5,0.1-14.9,0.2c-5.9,0.1-6.9,3.8-6.9,5.1l72.6,16.9v9
						l2.6,1L17.9,37.6l2.5-1l0-1.3c0,0,0.2-7.7,0.4-11.5l0.1-2.6c0.2-5.1,1.1-7.7,3.1-9.6c3.2-2.8,7.4-3,16-3.5c0.5,0,1-0.1,1.5-0.1
						C47.7,7.7,56,7.6,66.7,7.5c2.1,0,4.3,0,6.7,0c0.7,0,1.5,0,2.2,0c11.1,0,26.8,0.6,40.9,1.6c2.5,0.2,4.1,0.5,4.7,0.9l0.2,0.1
						c0,0,0,0,0,0c0,0,0,0,0,0c0,0,0,0,0,0c0,0,0,0,0.1,0c0,0,0,0,0,0c0,0,0,0,0.1,0c0,0,0,0,0,0c0,0,0,0,0,0c0,0,0,0,0,0
						c0,0,0,0,0,0l0,0c0.4,0.4,0.5,1.1,0.7,3.1c0,0.2,0,0.3,0,0.5C122.6,16.5,123,23.1,123,25.7"/>
					<polygon class="st10" points="17.8,44.9 19.7,45.8 19.7,54.7 17.8,56.8 					"/>
					<linearGradient id="SVGID_8_" gradientUnits="userSpaceOnUse" x1="19.0124" y1="95.4452" x2="116.6033" y2="95.4452">
						<stop  offset="0" style="stop-color:#6D6E70;stop-opacity:0.91"/>
						<stop  offset="0.528" style="stop-color:#444244;stop-opacity:0.9575"/>
						<stop  offset="1" style="stop-color:#231F20"/>
					</linearGradient>
					<path class="st11" d="M115.2,96.6c0.8-0.5,1.2-1,1.3-1.3c0.3-0.6,0-1.1-0.4-1.6c-2.7,0.8-6.5,1.1-14,1.4
						C92,95.7,81.2,96,70.1,96c-0.9,0-1.7,0-2.5,0c-13.1,0-25.1-0.7-40.1-1.9c-2.8-0.2-4.5-0.5-5.4-1.1c-0.3-0.2-0.6-0.4-0.8-0.6
						c-0.1,0.1-0.2,0.2-0.4,0.4c-1,0.9-1.5,0.7-1.8-0.7c0.2,2.7,0.5,3.1,1.2,3.6c0.3,0.2,1.2,0.8,4.5,1.1
						c17.8,1.2,33.8,1.8,48.9,1.8c10.2,0,20.2-0.3,30.4-0.8C108.9,97.6,112.4,97.3,115.2,96.6L115.2,96.6z"/>
					<path class="st12" d="M20.2,87.2l0-0.1c-0.1-1.2-0.1-2.2-0.2-3.8c-0.1-1.7-0.2-5-0.4-8.8l-1.8-3.1c0.2,3.7,0.7,14.3,0.9,17.9
						l0.2,3c0.4,1.4,0.9,1.5,1.8,0.7c0.2-0.2,0.3-0.3,0.4-0.4c-0.6-0.7-0.8-1.7-0.9-4.1C20.3,88,20.3,87.6,20.2,87.2z"/>
					<linearGradient id="SVGID_9_" gradientUnits="userSpaceOnUse" x1="119.6985" y1="93.3088" x2="127.277" y2="65.9229">
						<stop  offset="0.2699" style="stop-color:#58595B"/>
						<stop  offset="0.3924" style="stop-color:#49494B"/>
						<stop  offset="0.6154" style="stop-color:#343233"/>
						<stop  offset="0.8233" style="stop-color:#272425"/>
						<stop  offset="1" style="stop-color:#231F20"/>
					</linearGradient>
					<path class="st13" d="M124.5,63.8c-0.2,4.5-0.3,7.7-0.4,10.7l0,0.1c-0.1,1.9-0.2,3.8-0.3,6.4c-0.3,7.2-2,9.6-5.3,11.5
						c-0.8,0.5-1.6,0.8-2.5,1.1c0.5,0.6,0.7,1.1,0.4,1.6c-0.1,0.3-0.5,0.8-1.3,1.3c2.8-0.6,4.7-1.6,6.5-3.2c2.5-2.2,3.7-6,3.9-12.1
						c0.2-5.4,0.4-14.9,0.5-17.9L124.5,63.8z"/>
					<radialGradient id="SVGID_10_" cx="168.8018" cy="368.0493" r="432.3733" gradientUnits="userSpaceOnUse">
						<stop  offset="0" style="stop-color:#77787B"/>
						<stop  offset="0.247" style="stop-color:#A5A7A9"/>
						<stop  offset="0.4475" style="stop-color:#C4C6C7"/>
						<stop  offset="0.5589" style="stop-color:#D0D2D3"/>
						<stop  offset="0.6288" style="stop-color:#D9DBDC"/>
						<stop  offset="0.863" style="stop-color:#F5F5F5"/>
						<stop  offset="1" style="stop-color:#FFFFFF"/>
					</radialGradient>
					<path class="st14" d="M123,74.5c-0.1,1.9-0.2,3.9-0.3,6.5c-0.3,6.7-1.8,8.9-4.7,10.7c-2.8,1.7-6.1,1.9-16,2.4
						c-10.1,0.5-20.8,0.8-32,0.9c-0.9,0-1.7,0-2.5,0c-13.1,0-25-0.7-40-1.9c-2.6-0.2-4.2-0.4-4.9-0.9c-0.8-0.5-1-0.7-1.2-3.9
						c0-0.5-0.1-0.9-0.1-1.3c-0.1-1.2-0.2-2.3-0.2-3.9c-0.1-1.7-0.2-3.3-0.4-6.9c19.2,1.1,35,1.2,49.7,1.2c0.7,0,3.9,0,4.6,0
						c2.4,0,5.1,0,7.6-0.1c9.2-0.3,11.7-1,18-7.4l0.9-0.9L20.7,55.3l0-9.9l102.7,18.2l0,0h0c-0.1,1.8-0.1,4.1-0.2,6.2
						C123.1,71.5,123.1,73.1,123,74.5z"/>
					<linearGradient id="SVGID_11_" gradientUnits="userSpaceOnUse" x1="93.1696" y1="66.8832" x2="90.8919" y2="76.0184">
						<stop  offset="6.134970e-02" style="stop-color:#6D6E70"/>
						<stop  offset="8.283891e-02" style="stop-color:#757678"/>
						<stop  offset="0.1881" style="stop-color:#959698"/>
						<stop  offset="0.3021" style="stop-color:#AFB1B2"/>
						<stop  offset="0.4263" style="stop-color:#C4C5C7"/>
						<stop  offset="0.5656" style="stop-color:#D2D4D5"/>
						<stop  offset="0.7325" style="stop-color:#DADCDD"/>
						<stop  offset="1" style="stop-color:#DDDFE0"/>
					</linearGradient>
					<path class="st15" d="M89.7,74.5c0,0.4-0.5,0.9-2.4,1.3c4.9-0.6,7.4-2.1,11.9-6.7L89.8,70c0,0-1,1.3-2,1.8
						c-0.7,0.3-1.5,0.5-2.6,0.7c2,0.5,2.7,0.7,3.5,1C89.3,73.7,89.8,74.2,89.7,74.5z"/>
					<linearGradient id="SVGID_12_" gradientUnits="userSpaceOnUse" x1="18.5883" y1="73.7981" x2="89.7327" y2="73.7981">
						<stop  offset="0" style="stop-color:#9C9C9C"/>
						<stop  offset="0.1964" style="stop-color:#949494"/>
						<stop  offset="0.5007" style="stop-color:#7E7E7F"/>
						<stop  offset="0.873" style="stop-color:#5B5B5C"/>
						<stop  offset="1" style="stop-color:#4D4D4F"/>
					</linearGradient>
					<path class="st16" d="M87.3,75.8c1.9-0.4,2.4-0.9,2.4-1.3c0-0.3-0.4-0.8-1.1-1c-0.8-0.3-1.4-0.6-3.5-1c0,0-1.2,0.1-2,0.1
						c-3.3,0.1-7.4,0.1-12.4,0.1c-15.3,0-44.3-1-52.2-1.3l0,0l3.2,3.7c16.6,0.9,31.9,1.1,48.6,1.1c0.7,0,3.8,0,4.6,0
						c2.4,0,5.1,0,7.6-0.1C84.3,76.1,85.9,76,87.3,75.8z"/>
					<g>
						<linearGradient id="SVGID_13_" gradientUnits="userSpaceOnUse" x1="60.3836" y1="38.8233" x2="125.1372" y2="38.8233">
							<stop  offset="0" style="stop-color:#A6A8AB"/>
							<stop  offset="0.2795" style="stop-color:#AEB0B2"/>
							<stop  offset="0.7113" style="stop-color:#C4C4C6"/>
							<stop  offset="1" style="stop-color:#D6D6D6"/>
						</linearGradient>
						<path class="st17" d="M123.4,45.6l1.8-2.5l-64.8-11c6.7,2.2,24.7,6.3,38.4,9.4C98.2,41.4,121.1,45.2,123.4,45.6z"/>
					</g>
					<g>
						<linearGradient id="SVGID_14_" gradientUnits="userSpaceOnUse" x1="19.5657" y1="56.9489" x2="88.4068" y2="68.9005">
							<stop  offset="0" style="stop-color:#808184"/>
							<stop  offset="0.8957" style="stop-color:#231F20"/>
						</linearGradient>
						<path class="st18" d="M82.5,66.9c-1.8-0.3-3.1-0.6-4.6-0.9c-0.6-0.1-35.1-6-58.1-10l-2,1.7l72,12.3
							C88.7,68.8,85.2,67.4,82.5,66.9z"/>
					</g>
					<linearGradient id="SVGID_15_" gradientUnits="userSpaceOnUse" x1="20.3478" y1="56.8952" x2="99.866" y2="69.9623">
						<stop  offset="0" style="stop-color:#626366"/>
						<stop  offset="1" style="stop-color:#4D4D4F"/>
					</linearGradient>
					<path class="st19" d="M82.5,66.9c-1.8-0.3-3.1-0.6-4.6-0.9c-0.6-0.1-35.1-6-58.1-10l0.9-0.8l80.6,13.6l-11.5,1
						C89.1,69.1,85.8,67.5,82.5,66.9z"/>
					<path class="st2" d="M123,25.7c-14.8-0.7-30.7-1.1-50.2-1.1c-3.9,0-11.5,0.1-14.9,0.2C50.6,25,46.4,28.5,43,32.2l-0.6,0.6
						l12-2.1c0,0,0.2-0.3,0.8-0.8c-1.8-0.3-2-2.8,2.7-3.7c2.2-0.4,5.9-0.4,10.7-0.5c1.6,0,3,0,4.2,0c18.2,0,34.3-0.1,50.1,0.7l0.5,0
						L123,25.7z"/>
					<linearGradient id="SVGID_16_" gradientUnits="userSpaceOnUse" x1="44.3553" y1="36.133" x2="98.8052" y2="36.133">
						<stop  offset="0.2242" style="stop-color:#58595B"/>
						<stop  offset="0.4052" style="stop-color:#5E5F61"/>
						<stop  offset="0.6431" style="stop-color:#6E6F71"/>
						<stop  offset="0.9115" style="stop-color:#888A8C"/>
						<stop  offset="1" style="stop-color:#929497"/>
					</linearGradient>
					<path class="st20" d="M44.4,32.5c4.9,0.8,33.1,5.5,54.4,9c-13.7-3.1-31.7-7.3-38.4-9.4l-5.9-1.3L44.4,32.5z"/>
					<radialGradient id="SVGID_17_" cx="123.3467" cy="94.0451" r="134.2362" gradientUnits="userSpaceOnUse">
						<stop  offset="0" style="stop-color:#808184"/>
						<stop  offset="0.1192" style="stop-color:#919295"/>
						<stop  offset="0.3719" style="stop-color:#AFB1B3"/>
						<stop  offset="0.513" style="stop-color:#BBBDBF"/>
						<stop  offset="0.5507" style="stop-color:#C6C8CA"/>
						<stop  offset="0.6519" style="stop-color:#DFE0E1"/>
						<stop  offset="0.7577" style="stop-color:#F1F1F2"/>
						<stop  offset="0.87" style="stop-color:#FCFCFC"/>
						<stop  offset="1" style="stop-color:#FFFFFF"/>
					</radialGradient>
					<path class="st21" d="M123,74.5c-0.1,1.9-0.2,3.9-0.3,6.5c-0.3,6.7-1.8,8.9-4.7,10.7c-2.8,1.7-6.1,1.9-16,2.4
						c-10.1,0.5-20.8,0.8-32,0.9c-0.9,0-1.7,0-2.5,0c-13.1,0-25-0.7-40-1.9c-2.6-0.2-4.2-0.4-4.9-0.9c-0.8-0.5-1-0.7-1.2-3.9
						c0-0.5-0.1-0.9-0.1-1.3c-0.1-1.2-0.2-2.3-0.2-3.9c-0.1-1.7-0.2-3.3-0.4-6.9c19.2,1.1,35,1.2,49.7,1.2c0.7,0,3.9,0,4.6,0
						c2.4,0,5.1,0,7.6-0.1c9.2-0.3,11.7-1,18-7.4l0.9-0.9L20.7,55.3l0-9.9l102.7,18.2l0,0h0c-0.1,1.8-0.1,4.1-0.2,6.2
						C123.1,71.5,123.1,73.1,123,74.5z"/>
					<path class="st1" d="M42.4,32.8l1.9-0.3c7.8,1.3,73.3,12.1,79,13.1l1.8-2.5l1.1,0.2l-2.6,3.5L42.4,32.8z"/>
					<radialGradient id="SVGID_18_" cx="120.509" cy="95.9103" r="46.3831" gradientUnits="userSpaceOnUse">
						<stop  offset="0" style="stop-color:#231F20"/>
						<stop  offset="0.2148" style="stop-color:#545152"/>
						<stop  offset="0.6259" style="stop-color:#ADADAE"/>
						<stop  offset="0.8118" style="stop-color:#D0D2D3"/>
						<stop  offset="0.8416" style="stop-color:#D9DBDC"/>
						<stop  offset="0.9415" style="stop-color:#F5F5F5"/>
						<stop  offset="1" style="stop-color:#FFFFFF"/>
					</radialGradient>
					<path class="st22" d="M118,91.7c2.9-1.8,4.5-3.9,4.7-10.7c0.1-2.6,0.2-4.6,0.3-6.5c0.1-1.4,0.1-3,0.2-4.7
						c0.1-2.1,0.1-4.4,0.2-6.2h0l-29.2-5.2c-5.1,1.7-9.6,4.1-13.4,7l20.4,3.5l-0.9,0.9c-6.2,6.4-8.8,7.1-18,7.4
						c-2.5,0.1-5.2,0.1-7.6,0.1c-0.5,0-2.4,0-3.7,0c-1.3,2.9-2,6.1-2,9.3c0,2.9,0.6,5.7,1.6,8.3c10.9-0.1,21.4-0.4,31.2-0.9
						C112,93.6,115.2,93.4,118,91.7z"/>
				</g>
				<polygon class="st12" points="123.6,55.8 124.6,55.5 124.6,45.4 123.6,46.8 				"/>
				<polygon class="st23" points="123.6,55.8 124.6,55.5 126.2,56.3 126.2,56.8 				"/>
				<polygon class="st24" points="126.2,43.3 124.6,45.4 124.6,55.5 126.2,56.3 				"/>
			</g>
		</g>
	</g>
</g>
</svg>
