<?xml version="1.0" encoding="utf-8"?>
<!-- Generator: Adobe Illustrator 24.0.2, SVG Export Plug-In . SVG Version: 6.00 Build 0)  -->
<svg version="1.1" id="Layer_1" xmlns="http://www.w3.org/2000/svg" xmlns:xlink="http://www.w3.org/1999/xlink" x="0px" y="0px"
	 viewBox="0 0 144 101" style="enable-background:new 0 0 144 101;" xml:space="preserve">
<style type="text/css">
	.st0{fill-rule:evenodd;clip-rule:evenodd;fill:#2F5E9C;}
	.st1{fill-rule:evenodd;clip-rule:evenodd;fill:#FFFFFF;}
</style>
<g>
	<path class="st0" d="M72.2,76.79c39.46,0,71.46-12.08,71.46-27.02c0-14.94-31.99-27.06-71.46-27.06c-39.51,0-71.5,12.12-71.5,27.06
		C0.7,64.71,32.69,76.79,72.2,76.79L72.2,76.79L72.2,76.79L72.2,76.79z"/>
	<path class="st1" d="M72.2,74.02c-37.9,0-68.69-10.79-68.69-24.25c0-13.42,30.8-24.34,68.69-24.34c37.99,0,68.74,10.93,68.74,24.34
		C140.94,63.24,110.19,74.02,72.2,74.02L72.2,74.02L72.2,74.02L72.2,74.02z"/>
	<path class="st0" d="M72.2,72.13c36.74,0,66.57-10,66.57-22.36c0-12.31-29.83-22.31-66.57-22.31c-36.79,0-66.52,10-66.52,22.31
		C5.68,62.13,35.41,72.13,72.2,72.13L72.2,72.13L72.2,72.13L72.2,72.13z"/>
	<path class="st1" d="M89.63,54.25c3.13-2.95,4.89-6.04,9.4-5.99c2.72,0.05,3.41,2.21,3.87,3.13l0,0l5.95-10.05h3.64l-9.87,17.47
		l0,0c-0.18,0.37-0.65,1.06-0.6,1.61c0.09,0.88,1.2,0.65,0.78,0.65c1.98-0.09,5.62-3.87,6.5-4.79c0.18-0.23,0.51-0.65,0.69-0.65
		c0.18,0,0.55,0.18,0.55,0.46c0,0.18-0.42,0.88-0.74,1.29c-1.84,2.31-4.89,5.85-8.34,5.95c-1.71,0-2.35-0.69-2.58-2.03
		c-0.78,0.69-3.46,1.89-6.18,1.89c-2.26-0.05-3.18-1.38-3.64-2.44c-0.41-0.88-0.6-2.17-0.28-3.46c-1.24,0.65-2.4,0.74-4.06,0.69
		c-1.94-0.05-3.13-0.92-3.73-3.18c-2.21,4.06-2.31,4.2-4.56,8.44l0,0h-3.92l5.03-8.53l0,0c0.65-1.15,0.97-2.07,1.2-3.04
		c0.14-0.55-0.28-1.06-0.88-1.11c-0.65,0-1.71,0.65-2.72,1.61c0,0-2.58,2.77-4.47,5.58c-1.8,2.67-4.89,5.72-8.25,5.72
		c-2.44,0-4.66-1.34-5.12-3.92c0,0-0.23,0.6-2.4,1.84c-0.18,0.09-0.65,0.37-0.78,0.28c-0.42-0.37-0.65-0.83-0.69-1.15
		c0.14,0.05,0.41-0.18,1.29-0.88c1.71-1.29,2.07-2.31,2.07-2.31c0.41-0.88,1.15-2.26,1.66-3.23c1.38-2.77,3.78-5.58,7.7-5.72
		c0.65,0,0.83,0.28,0.97,0.51c0.37,0.28,0.23,0.83,0.23,0.83c-2.77,0.41-4.66,2.03-5.81,3.6c-0.69,1.01-1.43,2.67-1.57,3.87
		c-0.28,2.07,0.69,3.46,2.12,3.78c2.67,0.42,4.89-1.52,6.64-4.52c0.46-0.78,0.78-2.81,0.78-3.92c0-1.11-0.6-2.26-1.06-2.72
		c0-0.78,0.51-1.29,1.11-1.29c0.18,0,0.37,0,0.55,0.18c0.92,0.92,1.43,2.67,1.43,4.01c0,0.46,0,0.92-0.09,1.38
		c1.94-2.35,4.38-5.39,6.27-5.99c0.37-0.18,0.74-0.18,1.11-0.18c3.46-0.09,3,3.04,3,3.04c1.84-2.12,3.13-2.9,4.84-2.81
		c1.84,0.09,2.49,1.38,2.49,2.4c-0.05,1.2-0.92,2.58-2.44,2.63c-1.34,0-2.12-0.65-2.54-1.84c-0.88,0.32-1.29,0.92-1.48,2.12
		c-0.28,1.52,0.88,2.72,2.35,2.72C87.6,56.18,88.71,55.08,89.63,54.25L89.63,54.25L89.63,54.25L89.63,54.25z"/>
	<path class="st1" d="M92.4,34.38c0,1.48-5.16,4.29-9.54,4.29c-6.82,0-13.92-3.27-17.2-4.01c-3.55-0.83-6.78-1.52-9.31-1.52
		c-8.9,0-12.86,3.83-12.68,7.33c0.09,1.43,1.24,2.35,2.95,2.03c1.84-0.32,4.43-2.07,5.07-3.6c0.14-0.32,0.51-0.37,0.65-0.28
		c0.28,0.23,0.18,0.55,0.18,0.55c-0.23,1.8-3,6.78-7.79,6.78c-2.67,0-4.47-2.49-4.43-4.93c0.05-4.56,4.7-9.17,16.18-9.17
		c2.17,0,4.61,0.18,7.28,0.65c3.09,0.55,10.79,1.84,17.06,1.94c2.31,0,5.26,0.09,7.65-0.28c2.54-0.42,1.98-0.51,3-0.51
		C92.4,33.64,92.4,34.01,92.4,34.38L92.4,34.38L92.4,34.38L92.4,34.38z"/>
	<path class="st0" d="M99.22,50.42c-1.61-0.18-3.64,1.2-5.3,3.23c-0.83,1.01-1.71,2.95-1.84,4.1c-0.18,1.15,0.14,2.31,0.55,2.63
		c0.41,0.32,2.26,1.29,5.12-1.61c1.61-1.61,3.18-4.24,3.18-4.24l0,0l-0.51-0.14l0,0C101.39,52.59,101.2,50.65,99.22,50.42
		L99.22,50.42L99.22,50.42L99.22,50.42z"/>
	<path class="st1" d="M65.52,44.98c0,0.51,0.69,0.92,1.29,0.97c-0.14,0.51-0.09,0.74-0.32,0.69c-1.38,0-1.94-1.34-1.94-1.34
		c-1.84,0.32-3.64,0.55-7.28,0.92c-9.17,14.84-12.03,17.29-17.66,17.29c-4.01,0-7.56-2.63-7.65-7.33c-0.05-2.86,2.26-6.36,6.55-7.42
		c0.51,0,0.69,0.18,0.69,0.46c0,0.18-0.18,0.41-0.6,0.6c-1.24,0.46-3.41,2.9-3.41,5.16c0,1.71,1.06,3.6,2.86,4.01
		c0.51,0.14,0.97,0.09,1.43,0.09c4.47,0,9.5-5.03,14.94-12.68c-0.88,0.05-4.61,0.46-5.53,1.52c-0.41,0.32-0.69,0.14-0.78-0.23
		c0-0.09,0.14-0.42,0.28-0.6c1.47-1.66,5.9-2.03,6.96-2.17c4.15-6.36,9.5-10.33,10.6-10.28c0.18,0,0.6,0.28,0.42,0.74
		c-0.05,0.09-0.51,0.6-0.69,0.74c-0.92,0.83-4.06,2.86-7.47,8.62c2.77-0.14,5.99-0.69,5.99-0.69S64,43.46,64,42.95
		c0.14-1.98,1.29-3.18,2.77-2.95c0.83,0.14,1.38,0.83,1.38,1.57c0,0.78-0.6,1.94-1.2,2.49C66.53,44.38,66.07,44.7,65.52,44.98
		L65.52,44.98L65.52,44.98L65.52,44.98z"/>
	<path class="st0" d="M65.29,43.97c0,0,0.46,0.05,1.15-0.74c0.28-0.28,0.74-1.11,0.65-1.66c-0.05-0.28-0.18-0.6-0.51-0.55
		c-0.69,0.14-1.11,0.46-1.29,1.15C65.06,42.91,65.15,43.41,65.29,43.97L65.29,43.97L65.29,43.97L65.29,43.97z"/>
</g>
</svg>
