<?xml version="1.0" encoding="utf-8"?>
<!-- Generator: Adobe Illustrator 24.0.2, SVG Export Plug-In . SVG Version: 6.00 Build 0)  -->
<svg version="1.1" id="Layer_1" xmlns="http://www.w3.org/2000/svg" xmlns:xlink="http://www.w3.org/1999/xlink" x="0px" y="0px"
	 viewBox="0 0 144 101" style="enable-background:new 0 0 144 101;" xml:space="preserve">
<style type="text/css">
	.st0{display:none;}
	.st1{fill:url(#SVGID_1_);stroke:#A6A8AB;stroke-miterlimit:3.8637;}
	.st2{fill:url(#SVGID_2_);stroke:#A6A8AB;stroke-miterlimit:3.8637;}
	.st3{fill:url(#SVGID_3_);stroke:#FFFFFF;stroke-miterlimit:3.8637;}
	.st4{fill:url(#SVGID_4_);stroke:#FFFFFF;stroke-miterlimit:3.8637;}
	.st5{fill:#FFFFFF;}
	.st6{fill:#7B7D7F;}
	.st7{fill:none;stroke:#808184;stroke-width:1.1325;stroke-miterlimit:3.8637;}
	.st8{fill-rule:evenodd;clip-rule:evenodd;fill:none;stroke:#808184;stroke-width:1.1325;stroke-miterlimit:3.8637;}
	.st9{fill:none;stroke:#A6A8AB;stroke-miterlimit:3.8637;}
	.st10{fill:none;stroke:#58595B;stroke-miterlimit:3.8637;}
	.st11{fill-rule:evenodd;clip-rule:evenodd;fill:#7B7D7F;}
	.st12{fill-rule:evenodd;clip-rule:evenodd;fill:none;stroke:#A6A8AB;stroke-miterlimit:3.8637;}
	.st13{fill-rule:evenodd;clip-rule:evenodd;fill:#274084;}
	.st14{fill-rule:evenodd;clip-rule:evenodd;fill:#FFFFFF;}
</style>
<g id="Layer_1_1_" class="st0">
</g>
<g>
	<linearGradient id="SVGID_1_" gradientUnits="userSpaceOnUse" x1="23.8525" y1="50.6987" x2="119.1891" y2="50.6987">
		<stop  offset="0" style="stop-color:#E6E7E8"/>
		<stop  offset="1" style="stop-color:#6D6E70"/>
	</linearGradient>
	<circle class="st1" cx="71.5" cy="50.7" r="47.7"/>
	<linearGradient id="SVGID_2_" gradientUnits="userSpaceOnUse" x1="71.5206" y1="50.6987" x2="71.5206" y2="50.6987">
		<stop  offset="0" style="stop-color:#E6E7E8"/>
		<stop  offset="1" style="stop-color:#6D6E70"/>
	</linearGradient>
	<path class="st2" d="M71.5,50.7"/>
</g>
<g>
	<linearGradient id="SVGID_3_" gradientUnits="userSpaceOnUse" x1="78.0466" y1="87.7092" x2="64.9947" y2="13.6881">
		<stop  offset="0" style="stop-color:#D0D2D3"/>
		<stop  offset="1" style="stop-color:#58595B"/>
	</linearGradient>
	<circle class="st3" cx="71.5" cy="50.7" r="37.6"/>
	<linearGradient id="SVGID_4_" gradientUnits="userSpaceOnUse" x1="71.5206" y1="50.6987" x2="71.5206" y2="50.6987">
		<stop  offset="0" style="stop-color:#D0D2D3"/>
		<stop  offset="1" style="stop-color:#58595B"/>
	</linearGradient>
	<path class="st4" d="M71.5,50.7"/>
</g>
<g>
	
		<ellipse transform="matrix(9.446001e-03 -1 1 9.446001e-03 20.1487 121.7373)" class="st5" cx="71.5" cy="50.7" rx="30.3" ry="30.3"/>
	<path class="st5" d="M71.5,50.7"/>
</g>
<g>
	<polygon class="st6" points="110.5,4.3 120.3,14.2 105,29.5 95.1,19.7 110.5,4.3 	"/>
	<path class="st6" d="M107.7,16.9"/>
</g>
<path class="st7" d="M67.1-1.9"/>
<path class="st7" d="M102.7,75.6"/>
<path class="st8" d="M80.1,3"/>
<g>
	<line class="st6" x1="95.1" y1="19.7" x2="110.5" y2="4.3"/>
	<line class="st9" x1="95.1" y1="19.7" x2="110.5" y2="4.3"/>
</g>
<line class="st10" x1="120.3" y1="14.2" x2="105" y2="29.5"/>
<g>
	<path class="st11" d="M121.1,28.4c-5.6-11.9-12.9-20-24.2-25.4l24.2,0L121.1,28.4z"/>
	<path class="st12" d="M121.1,28.4c-5.6-11.9-12.9-20-24.2-25.4l24.2,0L121.1,28.4z"/>
</g>
<path class="st13" d="M22.4,50.7c0-4.2,0.3-7.6,1.5-12.2l95.2,0.2c1.1,4.6,1.5,7.8,1.5,12c0,4.6-0.4,8.3-1.8,13.4L24.2,64
	C22.8,59,22.4,55.3,22.4,50.7z"/>
<g>
	<path class="st14" d="M78.1,51.7c0,1.8-1.4,3.4-3.2,3.4l-2,0c-0.2,0-0.3-0.2-0.3-0.3l0-0.6v-5.2l0-0.7c0-0.2,0.2-0.4,0.4-0.4l2,0
		v-2H64.5v2l2,0h0.1c0.2,0,0.4,0.2,0.4,0.4l0,6.6c0,0.1-0.1,0.2-0.2,0.2l-2.3,0v2h15.7v-5.3L78.1,51.7L78.1,51.7z"/>
	<path class="st14" d="M79.8,47.9c0,0-0.1-0.1-0.2-0.1h-2.3v-2h11.3v2h-2l-0.1,0c-0.1,0-0.2,0.1-0.2,0.2l3.4,5.7l3.2-5.8
		c0-0.1-0.1-0.2-0.2-0.2h-1.8v-2h7.9v2h-2.1l-0.2,0c-0.1,0-0.1,0-0.2,0l-5,9.2h-6.2L79.8,47.9L79.8,47.9z"/>
	<path class="st14" d="M30.6,47.9c-0.1,0-0.1-0.1-0.2-0.1h-2.3v-2h11.3v2h-2l-0.1,0c-0.1,0-0.2,0.1-0.2,0.2l3.4,5.7l3.2-5.8
		c0-0.1-0.1-0.2-0.2-0.2h-1.8v-2h7.9v2h-2.1l-0.2,0c-0.1,0-0.1,0-0.2,0L42,57h-6.2L30.6,47.9L30.6,47.9z"/>
	<path class="st14" d="M48.1,51.5c0-3.1,3.5-5.7,7.9-5.7c4.4,0,7.9,2.5,7.9,5.7c0,3.1-3.5,5.7-7.9,5.7
		C51.7,57.1,48.1,54.6,48.1,51.5L48.1,51.5z M57.6,54.7c0.7-0.7,1.1-1.9,1.1-3.2c0-1.1-0.3-2.2-0.8-2.9c-0.4-0.5-1-0.8-1.7-0.8
		c-0.6,0-1.1,0.2-1.5,0.6c-0.1,0.1-0.2,0.2-0.2,0.2c-0.5,0.7-0.8,1.8-0.8,2.9c0,1.2,0.5,2.4,1.1,3.2c0.3,0.4,0.9,0.6,1.5,0.6
		C56.7,55.2,57.2,55,57.6,54.7L57.6,54.7z"/>
	<path class="st14" d="M97.4,51.4c0-3.1,3.5-5.7,7.9-5.7c4.4,0,7.9,2.5,7.9,5.7c0,3.1-3.5,5.6-7.9,5.6C101,57.1,97.4,54.5,97.4,51.4
		L97.4,51.4z M106.8,54.6c0.7-0.7,1.1-1.9,1.1-3.2c0-1.1-0.3-2.2-0.8-2.9c-0.4-0.5-1-0.8-1.7-0.8c-0.6,0-1.1,0.2-1.5,0.6
		c-0.1,0.1-0.2,0.2-0.2,0.2c-0.5,0.7-0.8,1.8-0.8,2.9c0,1.2,0.5,2.4,1.1,3.2c0.3,0.4,0.9,0.6,1.5,0.6
		C106,55.2,106.5,54.9,106.8,54.6L106.8,54.6z"/>
</g>
</svg>
