<?xml version="1.0" encoding="utf-8"?>
<!-- Generator: Adobe Illustrator 24.0.2, SVG Export Plug-In . SVG Version: 6.00 Build 0)  -->
<svg version="1.1" id="Layer_1" xmlns="http://www.w3.org/2000/svg" xmlns:xlink="http://www.w3.org/1999/xlink" x="0px" y="0px"
	 viewBox="0 0 144 101" style="enable-background:new 0 0 144 101;" xml:space="preserve">
<style type="text/css">
	.st0{fill:#231F20;}
	.st1{fill:#BBBDBF;}
	.st2{fill:url(#SVGID_1_);}
	.st3{fill:#70111E;}
	.st4{fill:url(#SVGID_2_);}
	.st5{fill:url(#SVGID_3_);}
</style>
<g>
	<path class="st0" d="M120.41,50.19c0,27.19-22.04,49.24-49.24,49.24c-27.19,0-49.24-22.04-49.24-49.24
		C21.94,23,43.98,0.95,71.18,0.95C98.37,0.95,120.41,23,120.41,50.19z"/>
	
		<ellipse transform="matrix(0.9285 -0.3713 0.3713 0.9285 -13.5478 30.0176)" class="st1" cx="71.18" cy="50.19" rx="47.51" ry="47.51"/>
	<path class="st0" d="M32.97,26.26c0,0.04-5.27,0.84-5.27,0.87c0.03,0.13-0.27,27.12,4.54,25.76c3.17-1.49,1.46-19.07,1.46-16.71
		c0,3.3,0.32,8.7,1.58,17.19c1.43,9.57,0.83,10.76,1.49,12.82c-1.55-1.5-3.95-2.18-3.95-2.18l3.41,11.53l2.51-0.76
		c0,0,0.04-0.04,0.07-0.08c0.07,0,2.48,0.18,4.14,3.21C52.55,95.47,77.81,88.72,71.2,89.1l10.41-1.25
		c-30.49,5.22-36.2-8.84-37.74-11.65c-1.27-2.32-4.3-2.18-5.04-2.19c-0.18,0-0.31,0.07-0.42,0.15c-0.09,0.03-1.27,0.38-1.72,0.52
		c-0.16-0.54,6.31,0.37,5.77-1.47c1.32,1.29-3.29-2.08-3.29-2.08l0,0c0.03,0.03,0.06,0.05,0.08,0.06l2.3-0.39c0,0-1.94-0.2-1.94-0.2
		c-0.12-0.15,0.52-0.91-1.77-16.25c-1.26-8.43-1-14.99-1-18.25c0-3.16-0.21-3.39-0.2-3.41l-1.86-1.21l-0.36-0.07
		c-0.51-0.1-1.02-0.27-1.24-0.39c0.11-0.17,0.18-0.4,0.18-0.77c0-0.36-0.04-0.83-0.09-1.44c-0.07-0.81-0.03-3.73-0.15-2.76
		c-5.92,51.37,2.27-5.75,1.27-4.65l0.58-0.65c2.79-3.22,12.53-10.73,37.66-11.32c26.58-0.62,26.7,9.09,26.79,9.23l6.89,3.41
		c-0.09-0.15-9.03-14.99-36.02-14.36c-25.43,0.6-32.98,9.31-35.83,12.59l-0.56,0.64c-1.17,1.27-2.51,1.29-2.51,3.16
		c0,1-1.12,2.34-1.06,3.17c0.04,0.51,2.35,2.66,2.35,3.03c0,0.18-0.01,0.31-0.04,0.37C32.47,30.77,32.97,26.14,32.97,26.26z
		 M105.65,23.79c-0.58,0.25-0.49,1.19-0.37,2.49c0.09,0.97,0.19,2.07,0,2.84l0.66,0.17c0.22-0.88,0.11-2.04,0.02-3.07
		c-0.06-0.65-0.15-1.64-0.01-1.81c0.02,0.02,0.21,7.34,1.72,9.09c2.4,2.78,1.2,1.18,1.2,6.02c0,2.38,1.78,5.16,1.71,6.14
		c-0.89-1.13-1.14-4.02-1.37-6.62c-0.26-3.02-0.49-5.63-1.57-6.5c-0.3-0.24-1.41-0.23-1.03-0.29c6.67-0.89-2.57-7.06-1.94-2.84
		c0.22,1.44-0.49-3.24-1.51-4.83c-3.14-4.88-9.64-10.59-32.22-11.37c-20.7-0.72-30.96,7.78-33.6,10.37c0-0.01,0.34-0.59,0.34-0.59
		l-2.95-1.73l-1.36,8.47l1.07,1.44c0,0,2.69-6.32,2.73-6.42c0.36-0.43,10.17-11.66,33.74-10.84c25.12,0.87,29.71,8.01,31.67,11.06
		c0.94,1.47,1.19,3.11,1.41,4.56c0.29,1.91,0.56,3.71,2.7,3.42c0.2-0.03,0.36,0.02,0.51,0.14c0.85,0.68,1.08,3.4,1.31,6.02
		c0.3,3.47,0.59,6.75,2.18,7.56l0.45,0.22l0.05-0.5c0.06-0.64,1.44-15.65-2.81-20.57C106.71,23.86,106.1,23.6,105.65,23.79z
		 M114.73,36.23c-0.39-1.81-1.01-3.79-1.93-5.8C113.29,31.55,114.06,33.53,114.73,36.23z M112.81,30.44
		c-0.12-0.27-0.22-0.51-0.3-0.67C112.62,29.99,112.7,30.21,112.81,30.44z M110.67,25.47c5.62,5.42,4.61,19.39,4.61,19.39l-2.73-3.17
		v13.54l-1.89,3.81c-3.36,17.98-11.35,33.85-42.66,33C36.68,91.19,31.85,74.47,28.9,58.61c-2.94-15.87,1.26-33.21,1.26-33.21
		c-9.25,27.5,1.68,48.24,1.68,48.24s5.25,19.46,37.62,19.25c32.36-0.21,37.41-18.19,37.41-18.19l0.59,4.54c0,0,7.52-6.88,9.83-21.26
		C118.46,50.68,113.93,28.61,110.67,25.47z M112.51,29.77c-0.11-0.23-0.17-0.35-0.17-0.35C112.39,29.53,112.45,29.65,112.51,29.77z"
		/>
	<radialGradient id="SVGID_1_" cx="71.2891" cy="50.0303" r="46.6385" gradientUnits="userSpaceOnUse">
		<stop  offset="0.6348" style="stop-color:#000000"/>
		<stop  offset="0.7865" style="stop-color:#626366"/>
		<stop  offset="1" style="stop-color:#FFFFFF"/>
	</radialGradient>
	<path class="st2" d="M114.61,42.8c0.02,0.17,0.04,0.32,0.05,0.49C115.2,48.67,115.45,47.23,114.61,42.8z M34.19,20.24
		c0,0,4.28-3.95,7.33-6.85C41.52,13.38,37.45,15.67,34.19,20.24z M33.05,72.61c2.42,4.89,4.81,8.07,4.81,8.07
		S35.58,77.25,33.05,72.61z M112.42,25.64l-0.8-2.32l7.11,2.53l-6.88-3.53l6.99-4.15l-7.68,3.15l1.23-7.68l-2.49,7.42l-1.81-0.51
		c-3.79-5.63-9-8.45-15.55-11.6C80.37,3.11,64.14,4.66,64.14,4.66S83.3,4.9,97.95,13.59c3.03,1.79,5.55,4.28,7.65,7.09l-3.16,0.17
		l3.63,0.46c0.34,0.48,0.67,0.97,0.99,1.47l-4.21,2.43l4.54-1.91c0.47,0.76,0.91,1.53,1.33,2.31l-1.8,5.62l2.12-5
		c3.14,6.08,4.8,12.55,5.57,16.56c-0.88-8.39-2.42-14.38-4.59-18.87l0.16-0.37c0,0,7.94,10.39,6.52,27.42s-5.5,23.06-9.58,27.21
		l-0.2-2.08c0,0-5.91,17.66-35.24,17.24c-29.34-0.42-31.58-9.97-31.58-9.97l-1.63-0.83c0,0-6.93-5.4-11.2-19.73
		c-4.28-14.33-0.2-25.96-0.2-25.96s-2.24,9.55-0.61,19.32c0.84,5.06,3.88,11.45,6.6,16.44c-2-4.04-4.03-9.24-4.77-14.78
		c-1.63-12.25-1.22-20.56,0.81-26.79c2.04-6.23,3.26-8.93,3.26-8.93s-8.56,9.97-8.76,31.16c-0.2,21.19,17.72,35.72,25.67,38.84
		c7.95,3.12,33,7.27,48.08-3.32c15.08-10.59,14.06-13.29,18.95-23.06C121.18,55.96,119.14,36.23,112.42,25.64z M108.85,21.75
		c-0.02-0.03-0.03-0.05-0.05-0.08l0.15,0.02L108.85,21.75z M109.55,23c-0.09-0.16-0.17-0.33-0.26-0.49l0.48-0.2L109.55,23z
		 M37.86,22.11c1.22-2.08,7.54-5.82,7.54-5.82s-3.46,2.08-7.33,6.65c-3.87,4.57,1.43-0.42,8.56-5.19
		c7.13-4.78,17.11-4.36,17.11-4.36s-3.26-2.49-15.69,1.45l12.02-5.19c0,0-18.33,3.95-23.63,11.42
		C31.13,28.55,36.63,24.18,37.86,22.11z M99.18,21.45c2.25,2.33,3.87,4.4,3.87,4.4S102.39,23.75,99.18,21.45z M29.5,52.02
		c2.24,22.02,11.61,31.36,11.61,31.36s7.13,7.06,29.34,8.1c22.21,1.04,29.34-7.69,29.95-9.14c0.61-1.45-2.85,0.83-3.87,0.42
		c-1.02-0.42,3.26-8.1,3.26-8.1c-2.24,8.31,1.22-1.25,3.46-0.21c2.24,1.04-4.48,3.74-2.24,5.82c2.24,2.08,6.93-12.67,9.98-19.32
		c3.06-6.65,2.04-13.5,1.83-17.86c-0.2-4.36-1.22-6.23-1.22-6.23l-0.61,10.39c0,0,0.41,1.45-2.85-5.82l-2.65-7.06
		c-1.83,32.4-9.17,44.66-9.17,44.66s-2.65,8.1-24.04,8.31c-21.39,0.21-24.45-5.4-24.45-5.4c-6.93-9.14-11-28.66-9.98-41.54
		c1.02-12.88,0-16.41,9.17-20.36c9.17-3.95,23.02-4.36,23.02-4.36c16.64-0.47,25,2.82,29.14,5.78c-0.52-0.54-1.06-1.09-1.64-1.63
		c-3.06-2.91-31.37-8.93-46.25-3.12c-14.87,5.82-15.89,11.42-14.87,28.46c1.02,17.03,6.32,31.16,9.98,36.56
		c3.67,5.4,16.71,7.06,16.71,7.06c-17.72-0.42-19.76-9.76-20.78-11.42c-1.02-1.66-4.08-4.99-4.69-2.28
		c-0.61,2.7-6.09-13.81-5.07-14.64c1.02-0.83,7.31,8.41,7.31,8.41s-2.24-4.57-4.48-17.45c-2.24-12.88,1.22-19.32-1.02-19.73
		c-2.24-0.42,2.79,19-3.63,19.87c-1.83,0.25-0.31-17.17,0.5-20.7c0.81-3.53,1.7-4.56,1.7-4.56S27.26,30,29.5,52.02z"/>
	<path class="st3" d="M100.35,22.38c-5.12-5.67-14.27-6.72-28.35-6.62c-14.4,0.1-24.33,1.31-29.33,6.97
		c-4.94,5.59-4.92,15.25-3.3,29.01c3.43,29.16,7.95,33.88,32.21,33.65c11.51-0.11,19.14-1.14,24.07-6.1
		c4.58-4.61,7.04-12.64,8.78-28.65C106.05,35.79,104.82,27.33,100.35,22.38z"/>
	<radialGradient id="SVGID_2_" cx="78.1161" cy="39.9716" r="22.8881" gradientUnits="userSpaceOnUse">
		<stop  offset="0" style="stop-color:#EC1C24"/>
		<stop  offset="1" style="stop-color:#961B1E"/>
	</radialGradient>
	<path class="st4" d="M89.98,82.21c0.37-0.16,0.73-0.32,1.09-0.49l0.48-63.48c-0.45-0.12-0.91-0.24-1.38-0.34L89.98,82.21z
		 M81.73,16.79c-0.07,9.61-0.33,43.26-0.78,67.4c1.04-0.1,2.03-0.22,2.97-0.37c-0.43-24.74-0.63-58.63-0.67-66.93
		C82.76,16.85,82.25,16.82,81.73,16.79z M83.96,16.95l0.73,66.74c0.35-0.06,0.69-0.13,1.02-0.2c-0.25-24.52-0.35-57.83-0.38-66.41
		C84.89,17.04,84.42,17,83.96,16.95z M88.21,82.85c0.37-0.11,0.73-0.24,1.08-0.37l0.19-64.75c-0.45-0.09-0.91-0.18-1.38-0.25
		C88.12,27.44,88.18,64.9,88.21,82.85z M72.01,16.58c-0.22,0-0.43,0.01-0.65,0.01l0.75,67.99c0.35,0,0.69-0.01,1.03-0.01
		c-0.26-24.34-0.37-58.61-0.4-67.99C72.5,16.58,72.26,16.57,72.01,16.58z M73.44,16.57l0.43,67.97c0.35-0.01,0.7-0.02,1.05-0.02
		c-0.08-24.34-0.1-58.57-0.1-67.95C74.36,16.57,73.9,16.57,73.44,16.57z M91.81,81.32c0.36-0.2,0.71-0.42,1.05-0.65l0.76-61.79
		c-0.44-0.16-0.89-0.32-1.36-0.46C92.2,28.4,92.05,58.2,91.81,81.32z M96.58,20.27l0.61,55.9c0.36-0.56,0.7-1.15,1.03-1.79
		c-0.17-20.24-0.25-43.09-0.28-53.2C97.51,20.86,97.06,20.55,96.58,20.27z M100.78,67.4c0.43-1.61,0.81-3.36,1.17-5.27l0.11-35.79
		c-0.4-0.85-0.84-1.62-1.35-2.33C100.72,34.22,100.76,52.26,100.78,67.4z M79.66,16.68c-0.04,9.49-0.22,43.41-0.49,67.65
		c0.35-0.02,0.7-0.05,1.04-0.08l0.83-67.51C80.58,16.72,80.12,16.7,79.66,16.68z M102.74,28.02l-0.09,29.87
		c0.34-2.27,0.64-4.72,0.93-7.39c0.14-1.29,0.25-2.51,0.35-3.7l0.1-12.54C103.79,31.87,103.36,29.81,102.74,28.02z M99.79,22.85
		c-0.35-0.39-0.74-0.75-1.14-1.1l0.32,51.03c0.39-0.91,0.75-1.88,1.09-2.93c-0.04-17.8-0.05-36.7-0.06-46.73
		C99.93,23.03,99.86,22.93,99.79,22.85z M52.19,82.02c0.35,0.18,0.7,0.34,1.07,0.5l0.49-64.54c-0.47,0.1-0.93,0.2-1.37,0.31
		L52.19,82.02z M75.62,84.5c0.36-0.01,0.72-0.02,1.07-0.04l0.2-67.86c-0.45-0.01-0.92-0.01-1.38-0.02
		C75.53,27.01,75.6,67.81,75.62,84.5z M77.38,84.43c0.36-0.02,0.72-0.04,1.07-0.06l0.51-67.72c-0.45-0.02-0.92-0.03-1.38-0.04
		L77.38,84.43z M86.03,17.18l0.42,66.16c0.36-0.08,0.71-0.18,1.06-0.27c-0.08-24.22-0.09-56.75-0.09-65.7
		C86.96,17.29,86.5,17.24,86.03,17.18z M41.58,61.28c0.32,1.85,0.66,3.56,1.03,5.13l0.53-43.1c-0.49,0.56-0.92,1.17-1.32,1.83
		C41.77,34.71,41.69,48.09,41.58,61.28z M39.7,46.71c0.14,1.54,0.31,3.16,0.51,4.89c0.21,1.76,0.42,3.43,0.64,5.01l0.23-30.04
		c-0.59,1.33-1.03,2.85-1.34,4.61L39.7,46.71z M43.88,22.54c-0.09,11.45-0.27,29.98-0.51,46.82c0.77,2.64,1.65,4.83,2.69,6.65
		c-0.3-19.32-0.47-42.44-0.54-54.81C44.92,21.61,44.38,22.05,43.88,22.54z M94.32,19.17c-0.08,10.45-0.31,38.55-0.68,60.94
		c1.02-0.79,1.94-1.72,2.77-2.81c-0.32-21.82-0.49-47.65-0.54-57.41C95.37,19.63,94.85,19.39,94.32,19.17z M46.24,20.72l0.62,56.57
		c0.33,0.48,0.68,0.94,1.04,1.36c-0.2-20.45-0.3-46.1-0.34-58.66C47.11,20.22,46.67,20.46,46.24,20.72z M48.28,19.67l0.38,59.79
		c0.34,0.34,0.7,0.66,1.06,0.96c-0.07-21.19-0.09-48.73-0.09-61.29C49.16,19.3,48.71,19.48,48.28,19.67z M69.13,16.61
		c-0.08,10.66-0.35,44.32-0.8,67.97c0.97,0.01,1.98,0,3.03,0c-0.44-24.33-0.65-58.59-0.7-67.99C70.15,16.6,69.63,16.6,69.13,16.61z
		 M58.79,17.2l0.73,66.89c0.34,0.05,0.68,0.09,1.03,0.13c-0.26-23.31-0.37-56.09-0.4-67.15C59.69,17.1,59.24,17.15,58.79,17.2z
		 M50.43,80.95c0.35,0.24,0.7,0.47,1.07,0.69l0.19-63.17c-0.47,0.13-0.92,0.26-1.36,0.41C50.35,32.75,50.41,65.17,50.43,80.95z
		 M67.06,16.66c-0.05,10.71-0.22,44.28-0.5,67.9c0.34,0.01,0.68,0.01,1.03,0.02l0.83-67.95C67.97,16.64,67.51,16.65,67.06,16.66z
		 M54.45,17.84c-0.06,12.3-0.23,42.76-0.48,64.96c0.34,0.12,0.68,0.24,1.03,0.35l0.8-65.55C55.35,17.67,54.9,17.75,54.45,17.84z
		 M56.53,17.49c-0.09,12.17-0.35,43.41-0.78,65.87c0.95,0.25,1.95,0.46,3.02,0.63c-0.42-23.15-0.63-55.47-0.69-66.7
		C57.55,17.34,57.03,17.41,56.53,17.49z M64.78,84.51c0.35,0.01,0.7,0.02,1.06,0.03l0.52-67.85c-0.47,0.02-0.92,0.03-1.38,0.05
		L64.78,84.51z M63.03,84.42c0.35,0.02,0.7,0.04,1.06,0.06l0.2-67.7c-0.47,0.02-0.92,0.05-1.38,0.08
		C62.94,29.05,63,68.82,63.03,84.42z M60.85,17l0.43,67.28c0.34,0.03,0.69,0.06,1.05,0.09c-0.08-23.44-0.1-56.55-0.1-67.48
		C61.76,16.93,61.31,16.96,60.85,17z"/>
	<radialGradient id="SVGID_3_" cx="72.8016" cy="41.9689" r="45.472" gradientUnits="userSpaceOnUse">
		<stop  offset="0" style="stop-color:#FFFFFF"/>
		<stop  offset="1" style="stop-color:#626366"/>
	</radialGradient>
	<path class="st5" d="M58.95,70.21h6.32V31.22h-6.32V70.21z M45.22,70.21h6.32V52.56h4.57v-5.01h-4.57V36.23h5.23v-5.01H45.22V70.21
		z M83.56,31.22v5.01h3.92v33.98h6.32V36.23h4.35v-5.01H83.56z M79.86,31.22H67.88v38.99h6.32V52.56h4.95c0,0,0.26,1.25,0.27,3.05
		c0.01,1.8,0,14.59,0,14.59h5.59V55.62c0,0,0-6.7-1.29-13.03C82.43,36.26,79.86,31.22,79.86,31.22z M78.7,47.55h-4.5V36.23h1.25
		c0,0,1.79,2.34,2.54,6.09C78.74,46.06,78.7,47.55,78.7,47.55z"/>
	<path class="st0" d="M58.6,30.87v39.68h7.01V30.87H58.6z M64.92,31.56c0,0.67,0,37.63,0,38.3c-0.58,0-5.05,0-5.63,0
		c0-0.67,0-37.63,0-38.3C59.87,31.56,64.34,31.56,64.92,31.56z"/>
	<path class="st0" d="M44.88,30.87v39.68h7.01c0,0,0-16.98,0-17.64c0.59,0,4.57,0,4.57,0v-5.7c0,0-3.99,0-4.57,0
		c0-0.63,0-10.01,0-10.64c0.6,0,5.23,0,5.23,0v-5.7H44.88z M56.42,31.56c0,0.55,0,3.77,0,4.32c-0.6,0-5.23,0-5.23,0V47.9
		c0,0,3.99,0,4.57,0c0,0.55,0,3.77,0,4.32c-0.59,0-4.57,0-4.57,0s0,16.98,0,17.64c-0.58,0-5.05,0-5.63,0c0-0.67,0-37.63,0-38.3
		C46.2,31.56,55.8,31.56,56.42,31.56z"/>
	<path class="st0" d="M83.22,30.87v5.7c0,0,3.35,0,3.92,0c0,0.67,0,33.98,0,33.98h7c0,0,0-33.31,0-33.98c0.58,0,4.35,0,4.35,0v-5.7
		H83.22z M97.81,31.56c0,0.55,0,3.77,0,4.32c-0.58,0-4.35,0-4.35,0s0,33.31,0,33.98c-0.58,0-5.05,0-5.63,0c0-0.67,0-33.98,0-33.98
		s-3.35,0-3.92,0c0-0.55,0-3.77,0-4.32C84.55,31.56,97.17,31.56,97.81,31.56z"/>
	<path class="st0" d="M67.53,30.87v39.68h7.01c0,0,0-16.98,0-17.64c0.56,0,3.84,0,4.32,0c0.07,0.45,0.21,1.44,0.22,2.71v14.93
		l6.28,0V55.62c0-0.07-0.01-6.81-1.3-13.1c-1.28-6.3-3.87-11.41-3.9-11.46l-0.1-0.19H67.53z M79.64,31.56
		c0.43,0.88,2.6,5.48,3.74,11.09c1.27,6.22,1.28,12.89,1.28,12.96c0,0,0,13.59,0,14.25c-0.57,0-4.34,0-4.9,0c0-0.66,0-14.25,0-14.25
		c-0.01-1.82-0.27-3.07-0.28-3.12l-0.06-0.27h-5.57c0,0,0,16.98,0,17.64c-0.58,0-5.05,0-5.63,0c0-0.67,0-37.63,0-38.3
		C68.86,31.56,79.24,31.56,79.64,31.56z"/>
	<path class="st0" d="M73.85,35.88V47.9h5.18l0.01-0.33c0-0.06,0.03-1.57-0.71-5.32c-0.76-3.78-2.53-6.13-2.61-6.23l-0.1-0.14H73.85
		z M75.27,36.57c0.37,0.53,1.75,2.67,2.38,5.81c0.54,2.71,0.66,4.22,0.69,4.83c-0.55,0-3.27,0-3.8,0c0-0.63,0-10.01,0-10.64
		C74.83,36.57,75.09,36.57,75.27,36.57z"/>
</g>
</svg>
