<?xml version="1.0" encoding="utf-8"?>
<!-- Generator: Adobe Illustrator 24.0.2, SVG Export Plug-In . SVG Version: 6.00 Build 0)  -->
<svg version="1.1" id="Layer_1" xmlns="http://www.w3.org/2000/svg" xmlns:xlink="http://www.w3.org/1999/xlink" x="0px" y="0px"
	 viewBox="0 0 144 101" style="enable-background:new 0 0 144 101;" xml:space="preserve">
<style type="text/css">
	.st0{fill:#231F20;}
	.st1{fill:url(#XMLID_22_);}
	.st2{fill:url(#XMLID_23_);}
	.st3{fill:url(#XMLID_65_);}
	.st4{fill:url(#XMLID_66_);}
	.st5{fill:url(#XMLID_67_);}
	.st6{fill:url(#XMLID_68_);}
	.st7{fill:url(#XMLID_69_);}
	.st8{fill:url(#XMLID_70_);}
	.st9{fill:url(#XMLID_71_);}
	.st10{fill:url(#XMLID_72_);}
	.st11{fill:url(#XMLID_73_);}
	.st12{fill:url(#XMLID_74_);}
	.st13{fill:url(#XMLID_75_);}
	.st14{fill:url(#XMLID_76_);}
	.st15{fill:url(#XMLID_77_);}
	.st16{fill:url(#XMLID_78_);}
	.st17{fill:url(#XMLID_79_);stroke:#B8B8B8;}
	.st18{fill:#191919;}
	.st19{fill:url(#XMLID_80_);stroke:#B8B8B8;}
	.st20{fill:#FFFFFF;}
	.st21{fill:url(#XMLID_81_);}
	.st22{fill:url(#XMLID_82_);}
	.st23{fill:url(#XMLID_83_);}
	.st24{fill:url(#XMLID_84_);}
	.st25{fill:url(#XMLID_85_);}
	.st26{fill:url(#XMLID_86_);}
	.st27{fill:url(#XMLID_87_);}
	.st28{fill:url(#XMLID_88_);}
	.st29{fill:url(#XMLID_89_);}
	.st30{fill:url(#XMLID_90_);}
	.st31{fill:url(#XMLID_91_);}
	.st32{fill:#929292;}
	.st33{fill:#F2F2F2;}
	.st34{fill:#848C8E;}
	.st35{fill:url(#XMLID_92_);}
	.st36{fill:url(#XMLID_93_);}
	.st37{fill:url(#XMLID_94_);}
</style>
<g id="XMLID_16_">
	<g>
		<g>
			<polyline id="XMLID_64_" class="st0" points="90.06,41.58 101.1,41.58 101.1,40.32 93.44,40.32 93.44,34.86 90.06,34.86 
				90.06,41.58 			"/>
			<path id="XMLID_63_" class="st0" d="M26.4,34.86v6.72h3.38c0,0,0-2.66,0-2.74c0.07,0,5.79,0,5.87,0c0,0.08,0,2.74,0,2.74h3.37
				v-6.72h-3.37c0,0,0,2.66,0,2.73c-0.08,0-5.79,0-5.87,0c0-0.08,0-2.73,0-2.73H26.4"/>
			<path id="XMLID_62_" class="st0" d="M68.67,34.86l-3.14,2.84l-3.25-2.84l-3.92-0.27v0.27c0,0,4.76,3.96,4.79,3.98
				c0,0.04,0,2.73,0,2.73h3.38c0,0,0-2.75,0-2.8c0.03-0.02,4.43-3.92,4.43-3.92v-0.27L68.67,34.86"/>
			<polyline id="XMLID_61_" class="st0" points="104.86,41.58 116.11,41.58 116.11,40.45 108.23,40.45 108.23,38.73 115.82,38.73 
				115.82,37.61 108.23,37.61 108.23,35.99 115.97,35.99 115.97,34.86 104.86,34.86 104.86,41.58 			"/>
			<path id="XMLID_60_" class="st0" d="M73.73,36.61c0,1.55,1.8,1.93,4.25,2.23c2.5,0.31,3.66,0.39,3.66,0.98
				c0,0.52-0.74,0.8-2.89,0.8c-2.45,0-4.51-0.6-4.78-0.68c-0.01,0.05-0.23,0.76-0.32,1.14c-0.03,0.13,0,0.27,0,0.27
				c0.35,0.07,2.28,0.52,5.24,0.52c3.25,0,6.39-0.57,6.39-2.33c0-1.21-1.28-1.83-4.9-2.25c-1.5-0.18-3.08-0.29-3.08-0.87
				c0-0.43,0.44-0.63,2.58-0.63c2.14,0,3.9,0.46,4.19,0.52l0.27-1.57c-0.37-0.06-2.49-0.18-5.28-0.18
				C76.75,34.56,73.73,34.88,73.73,36.61"/>
			<path id="XMLID_59_" class="st0" d="M10.23,38.22c0,2.17,2.29,3.65,7.03,3.65c1.83,0,3.77-0.27,4.09-0.31l0.29-1.67
				c-0.41,0.04-1.98,0.55-3.68,0.55c-2.63,0-4.41-0.63-4.41-2.21c0-1.55,1.69-2.21,4.46-2.21c1.58,0,3.23,0.22,3.63,0.28v-0.27
				l-0.29-1.14c-0.48-0.05-2.15-0.31-3.99-0.31C12.55,34.58,10.23,36,10.23,38.22"/>
			<path id="XMLID_58_" class="st0" d="M44.24,41.58h3.37v-5.52c0.46-0.03,0.98-0.08,1.77-0.08c0.82,0,1.41,0.01,1.9,0.09
				c1.03,0.16,1.36,0.49,1.35,0.93c-0.01,0.46-0.46,0.87-1.5,1.02c-0.68,0.09-1.14,0.11-1.74,0.11c-0.28,0-1.03-0.29-1.03-0.29v0.27
				l3.84,3.49h4.29v-0.27l-3.89-2.53c0.77-0.05,1.04-0.09,1.81-0.33c1.03-0.33,1.54-0.87,1.54-1.46c0.01-0.78-0.49-1.46-2.39-1.89
				c-1.05-0.24-2.37-0.34-4.16-0.34c-2.42,0-4.93,0.09-5.17,0.1C44.24,34.87,44.24,41.58,44.24,41.58"/>
			<path id="XMLID_57_" class="st0" d="M120.57,41.58h3.38v-5.52c0.46-0.03,0.97-0.08,1.77-0.08c0.82,0,1.41,0.01,1.91,0.09
				c1.02,0.16,1.36,0.49,1.35,0.93c-0.01,0.46-0.45,0.87-1.5,1.02c-0.66,0.09-1.14,0.11-1.74,0.11c-0.3,0-1.02-0.29-1.02-0.29v0.27
				l3.84,3.49h4.29v-0.27l-3.89-2.53c0.77-0.05,1.05-0.09,1.81-0.33c1.03-0.33,1.53-0.87,1.54-1.46c0-0.78-0.5-1.46-2.39-1.89
				c-1.05-0.24-2.37-0.34-4.16-0.34c-2.43,0-4.93,0.09-5.18,0.1C120.57,34.87,120.57,41.58,120.57,41.58"/>
		</g>
		<g>
			<linearGradient id="XMLID_22_" gradientUnits="userSpaceOnUse" x1="95.5806" y1="40.9278" x2="95.5806" y2="34.6406">
				<stop  offset="0" style="stop-color:#FFFFFF"/>
				<stop  offset="0.2528" style="stop-color:#1E1E1E"/>
				<stop  offset="0.6629" style="stop-color:#C7C7C7"/>
				<stop  offset="0.8989" style="stop-color:#C7C7C7"/>
			</linearGradient>
			<polyline id="XMLID_56_" class="st1" points="90.06,40.93 101.1,40.93 101.1,39.75 93.44,39.75 93.44,34.64 90.06,34.64 
				90.06,40.93 			"/>
			<linearGradient id="XMLID_23_" gradientUnits="userSpaceOnUse" x1="32.7042" y1="40.9278" x2="32.7042" y2="34.6406">
				<stop  offset="0" style="stop-color:#FFFFFF"/>
				<stop  offset="0.2528" style="stop-color:#1E1E1E"/>
				<stop  offset="0.6629" style="stop-color:#C7C7C7"/>
				<stop  offset="0.8989" style="stop-color:#C7C7C7"/>
			</linearGradient>
			<path id="XMLID_55_" class="st2" d="M26.4,34.64v6.29h3.38c0,0,0-2.49,0-2.56c0.07,0,5.79,0,5.87,0c0,0.07,0,2.56,0,2.56h3.37
				v-6.29h-3.37c0,0,0,2.49,0,2.56c-0.08,0-5.79,0-5.87,0c0-0.07,0-2.56,0-2.56H26.4"/>
			<linearGradient id="XMLID_65_" gradientUnits="userSpaceOnUse" x1="64.6479" y1="40.9278" x2="64.6479" y2="34.6189">
				<stop  offset="0" style="stop-color:#FFFFFF"/>
				<stop  offset="0.2528" style="stop-color:#1E1E1E"/>
				<stop  offset="0.6629" style="stop-color:#C7C7C7"/>
				<stop  offset="0.8989" style="stop-color:#C7C7C7"/>
			</linearGradient>
			<path id="XMLID_54_" class="st3" d="M68.67,34.64l-3.14,2.66l-3.25-2.66l-3.89-0.02c0,0,4.73,3.73,4.76,3.75
				c0,0.04,0,2.56,0,2.56h3.38c0,0,0-2.58,0-2.62c0.03-0.02,4.4-3.69,4.4-3.69L68.67,34.64"/>
			<linearGradient id="XMLID_66_" gradientUnits="userSpaceOnUse" x1="110.4843" y1="40.9278" x2="110.4843" y2="34.6406">
				<stop  offset="0" style="stop-color:#FFFFFF"/>
				<stop  offset="0.2528" style="stop-color:#1E1E1E"/>
				<stop  offset="0.6629" style="stop-color:#C7C7C7"/>
				<stop  offset="0.8989" style="stop-color:#C7C7C7"/>
			</linearGradient>
			<polyline id="XMLID_53_" class="st4" points="104.86,40.93 116.11,40.93 116.11,39.87 108.23,39.87 108.23,38.27 115.82,38.27 
				115.82,37.21 108.23,37.21 108.23,35.7 115.97,35.7 115.97,34.64 104.86,34.64 104.86,40.93 			"/>
			<linearGradient id="XMLID_67_" gradientUnits="userSpaceOnUse" x1="79.4671" y1="41.1995" x2="79.4671" y2="34.3612">
				<stop  offset="0" style="stop-color:#FFFFFF"/>
				<stop  offset="0.2528" style="stop-color:#1E1E1E"/>
				<stop  offset="0.6629" style="stop-color:#C7C7C7"/>
				<stop  offset="0.8989" style="stop-color:#C7C7C7"/>
			</linearGradient>
			<path id="XMLID_52_" class="st5" d="M73.73,36.28c0,1.45,1.8,1.8,4.25,2.09c2.5,0.29,3.66,0.37,3.66,0.92
				c0,0.49-0.74,0.75-2.89,0.75c-2.45,0-4.51-0.57-4.78-0.64c-0.02,0.06-0.32,1.68-0.32,1.68c0.35,0.07,2.28,0.12,5.24,0.12
				c3.25,0,6.39-0.53,6.39-2.18c0-1.13-1.28-1.71-4.9-2.11c-1.5-0.16-3.08-0.27-3.08-0.81c0-0.4,0.44-0.59,2.58-0.59
				c2.14,0,3.9,0.43,4.19,0.49l0.27-1.22c-0.37-0.06-2.49-0.42-5.28-0.42C76.75,34.36,73.73,34.66,73.73,36.28"/>
			<linearGradient id="XMLID_68_" gradientUnits="userSpaceOnUse" x1="15.9393" y1="41.1995" x2="15.9393" y2="34.374">
				<stop  offset="0" style="stop-color:#FFFFFF"/>
				<stop  offset="0.2528" style="stop-color:#1E1E1E"/>
				<stop  offset="0.6629" style="stop-color:#C7C7C7"/>
				<stop  offset="0.8989" style="stop-color:#C7C7C7"/>
			</linearGradient>
			<path id="XMLID_51_" class="st6" d="M10.23,37.79c0,2.03,2.29,3.41,7.03,3.41c1.83,0,3.77-0.25,4.09-0.29l0.29-1.02v-0.29
				c-0.41,0.04-1.98,0.26-3.68,0.26c-2.63,0-4.41-0.59-4.41-2.07c0-1.45,1.69-2.07,4.46-2.07c1.58,0,3.23,0.21,3.63,0.26l-0.29-1.32
				c-0.48-0.05-2.15-0.29-3.99-0.29C12.55,34.37,10.23,35.71,10.23,37.79"/>
			<linearGradient id="XMLID_69_" gradientUnits="userSpaceOnUse" x1="50.372" y1="41.3097" x2="50.372" y2="34.5435">
				<stop  offset="0" style="stop-color:#FFFFFF"/>
				<stop  offset="0.2528" style="stop-color:#1E1E1E"/>
				<stop  offset="0.6629" style="stop-color:#C7C7C7"/>
				<stop  offset="0.8989" style="stop-color:#C7C7C7"/>
			</linearGradient>
			<path id="XMLID_50_" class="st7" d="M44.24,40.93h3.37v-5.17c0.46-0.03,0.98-0.08,1.77-0.08c0.82,0,1.41,0.01,1.9,0.08
				c1.03,0.15,1.36,0.46,1.35,0.87c-0.01,0.43-0.46,0.82-1.5,0.96c-0.68,0.09-1.14,0.1-1.74,0.1c-0.35,0-0.61,0-1.03-0.02v0.16
				l3.84,3.1l4.29,0.38v-0.38l-3.89-2.62c0.77-0.04,1.04-0.08,1.81-0.31c1.03-0.31,1.54-0.81,1.54-1.37
				c0.01-0.73-0.49-1.37-2.39-1.76c-1.05-0.22-2.37-0.32-4.16-0.32c-2.42,0-4.93,0.09-5.17,0.1C44.24,34.65,44.24,40.93,44.24,40.93
				"/>
			<linearGradient id="XMLID_70_" gradientUnits="userSpaceOnUse" x1="126.6969" y1="41.3097" x2="126.6969" y2="34.5435">
				<stop  offset="0" style="stop-color:#FFFFFF"/>
				<stop  offset="0.2528" style="stop-color:#1E1E1E"/>
				<stop  offset="0.6629" style="stop-color:#C7C7C7"/>
				<stop  offset="0.8989" style="stop-color:#C7C7C7"/>
			</linearGradient>
			<path id="XMLID_49_" class="st8" d="M120.57,40.93h3.38v-5.17c0.46-0.03,0.97-0.08,1.77-0.08c0.82,0,1.41,0.01,1.91,0.08
				c1.02,0.15,1.36,0.46,1.35,0.87c-0.01,0.43-0.45,0.82-1.5,0.96c-0.66,0.09-1.14,0.1-1.74,0.1c-0.35,0-0.61,0-1.02-0.02v0.16
				l3.84,3.1l4.29,0.38v-0.38l-3.89-2.62c0.77-0.04,1.05-0.08,1.81-0.31c1.03-0.31,1.53-0.81,1.54-1.37c0-0.73-0.5-1.37-2.39-1.76
				c-1.05-0.22-2.37-0.32-4.16-0.32c-2.43,0-4.93,0.09-5.18,0.1C120.57,34.65,120.57,40.93,120.57,40.93"/>
		</g>
		<g>
			<linearGradient id="XMLID_71_" gradientUnits="userSpaceOnUse" x1="95.5806" y1="41.3097" x2="95.5806" y2="34.5929">
				<stop  offset="0.0281" style="stop-color:#3C3C3C"/>
				<stop  offset="0.0618" style="stop-color:#2D2D2D"/>
				<stop  offset="0.2362" style="stop-color:#787878"/>
				<stop  offset="0.3427" style="stop-color:#A1A1A1"/>
				<stop  offset="0.5787" style="stop-color:#FFFFFF"/>
				<stop  offset="0.7809" style="stop-color:#E9E9E9"/>
				<stop  offset="0.9101" style="stop-color:#CCCCCC"/>
				<stop  offset="1" style="stop-color:#8B8B8B"/>
			</linearGradient>
			<polyline id="XMLID_48_" class="st9" points="90.06,41.31 101.1,41.31 101.1,40.05 93.44,40.05 93.44,34.59 90.06,34.59 
				90.06,41.31 			"/>
			<linearGradient id="XMLID_72_" gradientUnits="userSpaceOnUse" x1="32.7042" y1="41.3097" x2="32.7042" y2="34.5929">
				<stop  offset="0.0281" style="stop-color:#3C3C3C"/>
				<stop  offset="0.0618" style="stop-color:#2D2D2D"/>
				<stop  offset="0.2362" style="stop-color:#787878"/>
				<stop  offset="0.3427" style="stop-color:#A1A1A1"/>
				<stop  offset="0.5787" style="stop-color:#FFFFFF"/>
				<stop  offset="0.7809" style="stop-color:#E9E9E9"/>
				<stop  offset="0.9101" style="stop-color:#CCCCCC"/>
				<stop  offset="1" style="stop-color:#8B8B8B"/>
			</linearGradient>
			<path id="XMLID_47_" class="st10" d="M26.4,34.59v6.72h3.38c0,0,0-2.66,0-2.74c0.07,0,5.79,0,5.87,0c0,0.08,0,2.74,0,2.74h3.37
				v-6.72h-3.37c0,0,0,2.66,0,2.73c-0.08,0-5.79,0-5.87,0c0-0.08,0-2.73,0-2.73H26.4"/>
			<linearGradient id="XMLID_73_" gradientUnits="userSpaceOnUse" x1="64.6511" y1="41.3097" x2="64.6511" y2="34.5929">
				<stop  offset="0.0281" style="stop-color:#3C3C3C"/>
				<stop  offset="0.0618" style="stop-color:#2D2D2D"/>
				<stop  offset="0.2362" style="stop-color:#787878"/>
				<stop  offset="0.3427" style="stop-color:#A1A1A1"/>
				<stop  offset="0.5787" style="stop-color:#FFFFFF"/>
				<stop  offset="0.7809" style="stop-color:#E9E9E9"/>
				<stop  offset="0.9101" style="stop-color:#CCCCCC"/>
				<stop  offset="1" style="stop-color:#8B8B8B"/>
			</linearGradient>
			<path id="XMLID_46_" class="st11" d="M68.67,34.59l-3.14,2.84l-3.25-2.84h-3.92c0,0,4.76,3.96,4.79,3.98c0,0.04,0,2.73,0,2.73
				h3.38c0,0,0-2.75,0-2.8c0.03-0.02,4.43-3.92,4.43-3.92H68.67"/>
			<linearGradient id="XMLID_74_" gradientUnits="userSpaceOnUse" x1="110.4843" y1="41.3097" x2="110.4843" y2="34.5929">
				<stop  offset="0.0281" style="stop-color:#3C3C3C"/>
				<stop  offset="0.0618" style="stop-color:#2D2D2D"/>
				<stop  offset="0.2362" style="stop-color:#787878"/>
				<stop  offset="0.3427" style="stop-color:#A1A1A1"/>
				<stop  offset="0.5787" style="stop-color:#FFFFFF"/>
				<stop  offset="0.7809" style="stop-color:#E9E9E9"/>
				<stop  offset="0.9101" style="stop-color:#CCCCCC"/>
				<stop  offset="1" style="stop-color:#8B8B8B"/>
			</linearGradient>
			<polyline id="XMLID_45_" class="st12" points="104.86,41.31 116.11,41.31 116.11,40.18 108.23,40.18 108.23,38.47 115.82,38.47 
				115.82,37.34 108.23,37.34 108.23,35.72 115.97,35.72 115.97,34.59 104.86,34.59 104.86,41.31 			"/>
			<linearGradient id="XMLID_75_" gradientUnits="userSpaceOnUse" x1="79.4671" y1="41.5999" x2="79.4671" y2="34.2945">
				<stop  offset="0.0281" style="stop-color:#3C3C3C"/>
				<stop  offset="0.0618" style="stop-color:#2D2D2D"/>
				<stop  offset="0.2362" style="stop-color:#787878"/>
				<stop  offset="0.3427" style="stop-color:#A1A1A1"/>
				<stop  offset="0.5787" style="stop-color:#FFFFFF"/>
				<stop  offset="0.7809" style="stop-color:#E9E9E9"/>
				<stop  offset="0.9101" style="stop-color:#CCCCCC"/>
				<stop  offset="1" style="stop-color:#8B8B8B"/>
			</linearGradient>
			<path id="XMLID_44_" class="st13" d="M73.73,36.34c0,1.55,1.8,1.93,4.25,2.23c2.5,0.31,3.66,0.39,3.66,0.98
				c0,0.52-0.74,0.8-2.89,0.8c-2.45,0-4.51-0.6-4.78-0.68c-0.02,0.06-0.32,1.41-0.32,1.4c0.35,0.07,2.28,0.52,5.24,0.52
				c3.25,0,6.39-0.57,6.39-2.33c0-1.21-1.28-1.83-4.9-2.25c-1.5-0.18-3.08-0.29-3.08-0.87c0-0.43,0.44-0.63,2.58-0.63
				c2.14,0,3.9,0.46,4.19,0.52l0.27-1.3c-0.37-0.06-2.49-0.45-5.28-0.45C76.75,34.29,73.73,34.61,73.73,36.34"/>
			<linearGradient id="XMLID_76_" gradientUnits="userSpaceOnUse" x1="15.9393" y1="41.5999" x2="15.9393" y2="34.3082">
				<stop  offset="0.0281" style="stop-color:#3C3C3C"/>
				<stop  offset="0.0618" style="stop-color:#2D2D2D"/>
				<stop  offset="0.2362" style="stop-color:#787878"/>
				<stop  offset="0.3427" style="stop-color:#A1A1A1"/>
				<stop  offset="0.5787" style="stop-color:#FFFFFF"/>
				<stop  offset="0.7809" style="stop-color:#E9E9E9"/>
				<stop  offset="0.9101" style="stop-color:#CCCCCC"/>
				<stop  offset="1" style="stop-color:#8B8B8B"/>
			</linearGradient>
			<path id="XMLID_43_" class="st14" d="M10.23,37.95c0,2.17,2.29,3.65,7.03,3.65c1.83,0,3.77-0.27,4.09-0.31l0.29-1.4
				c-0.41,0.04-1.98,0.28-3.68,0.28c-2.63,0-4.41-0.63-4.41-2.21c0-1.55,1.69-2.21,4.46-2.21c1.58,0,3.23,0.22,3.63,0.28l-0.29-1.41
				c-0.48-0.05-2.15-0.31-3.99-0.31C12.55,34.31,10.23,35.73,10.23,37.95"/>
			<linearGradient id="XMLID_77_" gradientUnits="userSpaceOnUse" x1="50.372" y1="41.3097" x2="50.372" y2="34.4893">
				<stop  offset="0.0281" style="stop-color:#3C3C3C"/>
				<stop  offset="0.0618" style="stop-color:#2D2D2D"/>
				<stop  offset="0.2362" style="stop-color:#787878"/>
				<stop  offset="0.3427" style="stop-color:#A1A1A1"/>
				<stop  offset="0.5787" style="stop-color:#FFFFFF"/>
				<stop  offset="0.7809" style="stop-color:#E9E9E9"/>
				<stop  offset="0.9101" style="stop-color:#CCCCCC"/>
				<stop  offset="1" style="stop-color:#8B8B8B"/>
			</linearGradient>
			<path id="XMLID_42_" class="st15" d="M44.24,41.31h3.37v-5.52c0.46-0.03,0.98-0.08,1.77-0.08c0.82,0,1.41,0.01,1.9,0.09
				c1.03,0.16,1.36,0.49,1.35,0.93c-0.01,0.46-0.46,0.87-1.5,1.02c-0.68,0.09-1.14,0.11-1.74,0.11c-0.35,0-0.61,0-1.03-0.03
				l3.84,3.49h4.29l-3.89-2.8c0.77-0.05,1.04-0.09,1.81-0.33c1.03-0.33,1.54-0.87,1.54-1.46c0.01-0.78-0.49-1.46-2.39-1.89
				c-1.05-0.24-2.37-0.34-4.16-0.34c-2.42,0-4.93,0.09-5.17,0.1C44.24,34.61,44.24,41.31,44.24,41.31"/>
			<linearGradient id="XMLID_78_" gradientUnits="userSpaceOnUse" x1="126.6969" y1="41.3097" x2="126.6969" y2="34.4893">
				<stop  offset="0.0281" style="stop-color:#3C3C3C"/>
				<stop  offset="0.0618" style="stop-color:#2D2D2D"/>
				<stop  offset="0.2362" style="stop-color:#787878"/>
				<stop  offset="0.3427" style="stop-color:#A1A1A1"/>
				<stop  offset="0.5787" style="stop-color:#FFFFFF"/>
				<stop  offset="0.7809" style="stop-color:#E9E9E9"/>
				<stop  offset="0.9101" style="stop-color:#CCCCCC"/>
				<stop  offset="1" style="stop-color:#8B8B8B"/>
			</linearGradient>
			<path id="XMLID_41_" class="st16" d="M120.57,41.31h3.38v-5.52c0.46-0.03,0.97-0.08,1.77-0.08c0.82,0,1.41,0.01,1.91,0.09
				c1.02,0.16,1.36,0.49,1.35,0.93c-0.01,0.46-0.45,0.87-1.5,1.02c-0.66,0.09-1.14,0.11-1.74,0.11c-0.35,0-0.61,0-1.02-0.03
				l3.84,3.49h4.29l-3.89-2.8c0.77-0.05,1.05-0.09,1.81-0.33c1.03-0.33,1.53-0.87,1.54-1.46c0-0.78-0.5-1.46-2.39-1.89
				c-1.05-0.24-2.37-0.34-4.16-0.34c-2.43,0-4.93,0.09-5.18,0.1C120.57,34.61,120.57,41.31,120.57,41.31"/>
		</g>
	</g>
	<g>
		<linearGradient id="XMLID_79_" gradientUnits="userSpaceOnUse" x1="36.6228" y1="60.7011" x2="37.8288" y2="46.9164">
			<stop  offset="0.0281" style="stop-color:#3C3C3C"/>
			<stop  offset="0.0618" style="stop-color:#2D2D2D"/>
			<stop  offset="0.2183" style="stop-color:#8F8F8F"/>
			<stop  offset="0.2921" style="stop-color:#B8B8B8"/>
			<stop  offset="0.5169" style="stop-color:#474747"/>
			<stop  offset="0.5787" style="stop-color:#FFFFFF"/>
			<stop  offset="0.7809" style="stop-color:#E9E9E9"/>
			<stop  offset="0.882" style="stop-color:#CCCCCC"/>
			<stop  offset="0.9382" style="stop-color:#8B8B8B"/>
			<stop  offset="1" style="stop-color:#606060"/>
		</linearGradient>
		<path id="XMLID_40_" class="st17" d="M72.4,61.89c-1.65-0.07-4.37,0.18-5.18,0.5c-0.92,0.36-1.2,0.6-3.44,0.6
			c-2.24,0-6.64-0.6-6.64-0.6s-46.78-7.14-48.05-7.57c-1.27-0.43-2.84-1.27-4.61-2.34c-1.77-1.07-2.77-2.04-2.77-2.74
			c0-0.7,1.1-0.87,1.1-0.87l51.61-0.32c0,0,2.14-0.09,2.85,0.09c0.71,0.18,3.84,1.59,4.81,1.78c2.31,0.44,10.32,0.27,10.32,0.27"/>
		<path id="XMLID_39_" class="st18" d="M10.4,51.12l32.05,0.52c0,0,1.01,0.05,1.7,0.24c0.69,0.19,1.41,0.72,1.41,0.72h8.12
			c0,0-2.78,0.08-3.01,0.19c-0.23,0.11-0.08,0.19-0.08,0.19h-5.83l0.23,0.23l1.75,0.23l1.33,1.11h6.41c0,0-1.22,0.23-1.45,0.42
			c-0.23,0.19-0.23,0.19-0.23,0.19H48c0,0,0.15,0.27,0.84,0.31c0.69,0.04,0.76,0.19,1.07,0.27c0.31,0.08,1.68,1.26,4.46,2.06
			c2.78,0.8,7.74,1.64,7.74,1.64s-7.17-0.15-10.3-1.49c-3.13-1.33-7.36-4.42-8.31-4.81c-0.95-0.38-1.94-0.27-1.94-0.27
			S19.78,52,17.3,51.81S10.4,51.12,10.4,51.12z"/>
		
			<linearGradient id="XMLID_80_" gradientUnits="userSpaceOnUse" x1="298.0044" y1="60.7011" x2="299.2104" y2="46.9164" gradientTransform="matrix(-1 0 0 1 405.75 0)">
			<stop  offset="0.0281" style="stop-color:#3C3C3C"/>
			<stop  offset="0.0618" style="stop-color:#2D2D2D"/>
			<stop  offset="0.2183" style="stop-color:#8F8F8F"/>
			<stop  offset="0.2921" style="stop-color:#B8B8B8"/>
			<stop  offset="0.5169" style="stop-color:#474747"/>
			<stop  offset="0.5787" style="stop-color:#FFFFFF"/>
			<stop  offset="0.7809" style="stop-color:#E9E9E9"/>
			<stop  offset="0.882" style="stop-color:#CCCCCC"/>
			<stop  offset="0.9382" style="stop-color:#8B8B8B"/>
			<stop  offset="1" style="stop-color:#606060"/>
		</linearGradient>
		<path id="XMLID_38_" class="st19" d="M71.97,61.89c1.65-0.07,4.37,0.18,5.18,0.5c0.92,0.36,1.2,0.6,3.44,0.6
			c2.24,0,6.64-0.6,6.64-0.6s46.78-7.14,48.05-7.57c1.27-0.43,2.84-1.27,4.61-2.34c1.77-1.07,2.77-2.04,2.77-2.74
			c0-0.7-1.1-0.87-1.1-0.87l-51.61-0.32c0,0-2.14-0.09-2.85,0.09c-0.71,0.18-3.84,1.59-4.81,1.78c-2.31,0.44-10.32,0.27-10.32,0.27"
			/>
		<path id="XMLID_37_" class="st18" d="M133.97,51.12l-32.05,0.52c0,0-1.01,0.05-1.7,0.24c-0.69,0.19-1.41,0.72-1.41,0.72h-8.12
			c0,0,2.78,0.08,3.01,0.19c0.23,0.11,0.08,0.19,0.08,0.19h5.83l-0.23,0.23l-1.75,0.23l-1.33,1.11h-6.41c0,0,1.22,0.23,1.45,0.42
			c0.23,0.19,0.23,0.19,0.23,0.19h4.81c0,0-0.15,0.27-0.84,0.31c-0.69,0.04-0.76,0.19-1.07,0.27C94.16,55.82,92.78,57,90,57.8
			c-2.78,0.8-7.74,1.64-7.74,1.64s7.17-0.15,10.3-1.49c3.13-1.33,7.36-4.42,8.31-4.81c0.95-0.38,1.95-0.27,1.95-0.27
			s21.78-0.88,24.26-1.07C129.55,51.62,133.97,51.12,133.97,51.12z"/>
		<g>
			<path id="XMLID_36_" class="st20" d="M72.4,56.93c0,0-6.03-0.02-9.87,0c-3.84,0.02-4.65-0.52-6.24-1.86
				c-2.13-1.79-1.87-2.61-1.87-2.61H72.4"/>
		</g>
		<linearGradient id="XMLID_81_" gradientUnits="userSpaceOnUse" x1="63.5371" y1="56.8994" x2="63.5371" y2="52.494">
			<stop  offset="5.617980e-03" style="stop-color:#000000"/>
			<stop  offset="0.118" style="stop-color:#00205F"/>
			<stop  offset="0.3315" style="stop-color:#00053F"/>
			<stop  offset="0.7584" style="stop-color:#000747"/>
			<stop  offset="0.8989" style="stop-color:#001E9F"/>
			<stop  offset="1" style="stop-color:#000000"/>
		</linearGradient>
		<path id="XMLID_35_" class="st21" d="M72.4,56.9c0,0-5.94-0.02-9.72,0c-3.78,0.02-4.77-0.65-6.16-1.87
			c-2.06-1.8-1.82-2.54-1.82-2.54H72.4"/>
		<g>
			<path id="XMLID_34_" class="st20" d="M71.76,56.93c0,0,6.03-0.02,9.87,0c3.84,0.02,4.65-0.52,6.24-1.86
				c2.13-1.79,1.87-2.61,1.87-2.61H71.76"/>
		</g>
		
			<linearGradient id="XMLID_82_" gradientUnits="userSpaceOnUse" x1="123.6192" y1="56.8994" x2="123.6192" y2="52.494" gradientTransform="matrix(-1 0 0 1 203.9766 0)">
			<stop  offset="5.617980e-03" style="stop-color:#000000"/>
			<stop  offset="0.118" style="stop-color:#00205F"/>
			<stop  offset="0.3315" style="stop-color:#00053F"/>
			<stop  offset="0.7584" style="stop-color:#000747"/>
			<stop  offset="0.8989" style="stop-color:#001E9F"/>
			<stop  offset="1" style="stop-color:#000000"/>
		</linearGradient>
		<path id="XMLID_33_" class="st22" d="M71.77,56.9c0,0,5.94-0.02,9.72,0c3.78,0.02,4.77-0.65,6.16-1.87
			c2.06-1.8,1.82-2.54,1.82-2.54H71.23"/>
		<g>
			<polyline id="XMLID_32_" class="st20" points="75.68,55.2 78.19,55.2 78.19,54.91 76.44,54.91 76.45,53.67 75.68,53.67 
				75.68,55.2 			"/>
			<linearGradient id="XMLID_83_" gradientUnits="userSpaceOnUse" x1="76.9335" y1="55.1516" x2="76.9335" y2="53.7111">
				<stop  offset="0.0281" style="stop-color:#686868"/>
				<stop  offset="0.3427" style="stop-color:#A1A1A1"/>
				<stop  offset="0.5787" style="stop-color:#FFFFFF"/>
				<stop  offset="0.7809" style="stop-color:#E9E9E9"/>
				<stop  offset="0.9101" style="stop-color:#CCCCCC"/>
				<stop  offset="1" style="stop-color:#8B8B8B"/>
			</linearGradient>
			<polyline id="XMLID_31_" class="st23" points="75.75,55.15 78.12,55.15 78.12,54.88 76.47,54.88 76.47,53.71 75.75,53.71 
				75.75,55.15 			"/>
			<path id="XMLID_30_" class="st20" d="M62.03,53.68v1.51h0.76c0,0,0-0.6,0-0.62c0.02,0,1.3,0,1.32,0c0,0.02,0,0.62,0,0.62h0.76
				v-1.51h-0.76c0,0,0,0.6,0,0.61c-0.02,0-1.3,0-1.32,0c0-0.02,0-0.61,0-0.61H62.03"/>
			<linearGradient id="XMLID_84_" gradientUnits="userSpaceOnUse" x1="63.4492" y1="55.1516" x2="63.4492" y2="53.7111">
				<stop  offset="0.0281" style="stop-color:#686868"/>
				<stop  offset="0.3427" style="stop-color:#A1A1A1"/>
				<stop  offset="0.5787" style="stop-color:#FFFFFF"/>
				<stop  offset="0.7809" style="stop-color:#E9E9E9"/>
				<stop  offset="0.9101" style="stop-color:#CCCCCC"/>
				<stop  offset="1" style="stop-color:#8B8B8B"/>
			</linearGradient>
			<path id="XMLID_29_" class="st24" d="M62.1,53.71v1.44h0.72c0,0,0-0.57,0-0.59c0.02,0,1.24,0,1.26,0c0,0.02,0,0.59,0,0.59h0.72
				v-1.44h-0.72c0,0,0,0.57,0,0.59c-0.02,0-1.24,0-1.26,0c0-0.02,0-0.59,0-0.59H62.1"/>
			<path id="XMLID_28_" class="st20" d="M71.23,53.65l-0.73,0.66l-0.75-0.66h-0.91c0,0,1.1,0.92,1.11,0.92c0,0.01,0,0.63,0,0.63
				h0.78c0,0,0-0.64,0-0.65c0.01,0,1.03-0.91,1.03-0.91H71.23"/>
			<linearGradient id="XMLID_85_" gradientUnits="userSpaceOnUse" x1="70.3005" y1="55.1516" x2="70.3005" y2="53.7111">
				<stop  offset="0.0281" style="stop-color:#686868"/>
				<stop  offset="0.3427" style="stop-color:#A1A1A1"/>
				<stop  offset="0.5787" style="stop-color:#FFFFFF"/>
				<stop  offset="0.7809" style="stop-color:#E9E9E9"/>
				<stop  offset="0.9101" style="stop-color:#CCCCCC"/>
				<stop  offset="1" style="stop-color:#8B8B8B"/>
			</linearGradient>
			<path id="XMLID_27_" class="st25" d="M71.16,53.71l-0.67,0.61l-0.7-0.61h-0.84c0,0,1.02,0.85,1.03,0.85c0,0.01,0,0.59,0,0.59
				h0.72c0,0,0-0.59,0-0.6c0.01,0,0.95-0.84,0.95-0.84H71.16"/>
			<polyline id="XMLID_26_" class="st20" points="78.85,55.2 81.41,55.2 81.41,54.94 79.62,54.94 79.62,54.55 81.34,54.55 
				81.34,54.29 79.62,54.29 79.62,53.92 81.38,53.92 81.38,53.67 78.85,53.67 78.85,55.2 			"/>
			<linearGradient id="XMLID_86_" gradientUnits="userSpaceOnUse" x1="80.1298" y1="55.1516" x2="80.1298" y2="53.7111">
				<stop  offset="0.0281" style="stop-color:#686868"/>
				<stop  offset="0.3427" style="stop-color:#A1A1A1"/>
				<stop  offset="0.5787" style="stop-color:#FFFFFF"/>
				<stop  offset="0.7809" style="stop-color:#E9E9E9"/>
				<stop  offset="0.9101" style="stop-color:#CCCCCC"/>
				<stop  offset="1" style="stop-color:#8B8B8B"/>
			</linearGradient>
			<polyline id="XMLID_25_" class="st26" points="78.92,55.15 81.34,55.15 81.34,54.91 79.65,54.91 79.65,54.54 81.27,54.54 
				81.27,54.3 79.65,54.3 79.65,53.95 81.31,53.95 81.31,53.71 78.92,53.71 78.92,55.15 			"/>
			<path id="XMLID_24_" class="st20" d="M72.16,54.06c0,0.36,0.41,0.44,0.98,0.51c0.57,0.07,0.84,0.09,0.84,0.23
				c0,0.12-0.17,0.18-0.66,0.18c-0.56,0-1.04-0.14-1.1-0.16c0,0.02-0.07,0.32-0.07,0.32c0.08,0.02,0.52,0.12,1.2,0.12
				c0.75,0,1.47-0.13,1.47-0.54c0-0.28-0.29-0.42-1.13-0.52c-0.34-0.04-0.71-0.07-0.71-0.2c0-0.1,0.1-0.14,0.59-0.14
				c0.49,0,0.9,0.11,0.96,0.12l0.06-0.3c-0.09-0.01-0.57-0.1-1.21-0.1C72.85,53.59,72.16,53.66,72.16,54.06"/>
			<linearGradient id="XMLID_87_" gradientUnits="userSpaceOnUse" x1="73.478" y1="55.2138" x2="73.478" y2="53.6472">
				<stop  offset="0.0281" style="stop-color:#686868"/>
				<stop  offset="0.3427" style="stop-color:#A1A1A1"/>
				<stop  offset="0.5787" style="stop-color:#FFFFFF"/>
				<stop  offset="0.7809" style="stop-color:#E9E9E9"/>
				<stop  offset="0.9101" style="stop-color:#CCCCCC"/>
				<stop  offset="1" style="stop-color:#8B8B8B"/>
			</linearGradient>
			<path id="XMLID_21_" class="st27" d="M72.25,54.09c0,0.33,0.39,0.41,0.91,0.48c0.54,0.07,0.79,0.08,0.79,0.21
				c0,0.11-0.16,0.17-0.62,0.17c-0.53,0-0.97-0.13-1.03-0.15c0,0.01-0.07,0.3-0.07,0.3c0.08,0.02,0.49,0.11,1.12,0.11
				c0.7,0,1.37-0.12,1.37-0.5c0-0.26-0.27-0.39-1.05-0.48c-0.32-0.04-0.66-0.06-0.66-0.19c0-0.09,0.09-0.13,0.55-0.13
				c0.46,0,0.84,0.1,0.9,0.11l0.06-0.28c-0.08-0.01-0.53-0.1-1.13-0.1C72.9,53.65,72.25,53.72,72.25,54.09"/>
			<path id="XMLID_20_" class="st20" d="M58.56,54.43c0,0.49,0.52,0.82,1.59,0.82c0.41,0,0.85-0.06,0.93-0.07l0.07-0.32
				c-0.09,0.01-0.45,0.06-0.83,0.06c-0.6,0-1-0.14-1-0.5c0-0.35,0.38-0.5,1.01-0.5c0.36,0,0.73,0.05,0.82,0.06l-0.07-0.32
				c-0.11-0.01-0.49-0.07-0.9-0.07C59.09,53.61,58.56,53.93,58.56,54.43"/>
			<linearGradient id="XMLID_88_" gradientUnits="userSpaceOnUse" x1="59.8538" y1="55.2138" x2="59.8538" y2="53.65">
				<stop  offset="0.0281" style="stop-color:#686868"/>
				<stop  offset="0.3427" style="stop-color:#A1A1A1"/>
				<stop  offset="0.5787" style="stop-color:#FFFFFF"/>
				<stop  offset="0.7809" style="stop-color:#E9E9E9"/>
				<stop  offset="0.9101" style="stop-color:#CCCCCC"/>
				<stop  offset="1" style="stop-color:#8B8B8B"/>
			</linearGradient>
			<path id="XMLID_19_" class="st28" d="M58.63,54.43c0,0.47,0.49,0.78,1.51,0.78c0.39,0,0.81-0.06,0.88-0.07l0.06-0.3
				c-0.09,0.01-0.42,0.06-0.79,0.06c-0.56,0-0.95-0.14-0.95-0.47c0-0.33,0.36-0.47,0.96-0.47c0.34,0,0.69,0.05,0.78,0.06l-0.06-0.3
				c-0.1-0.01-0.46-0.07-0.86-0.07C59.13,53.65,58.63,53.96,58.63,54.43"/>
			<path id="XMLID_18_" class="st20" d="M65.88,55.18h0.75v-1.22c0.1-0.01,0.22-0.02,0.39-0.02c0.18,0,0.31,0,0.42,0.02
				c0.23,0.04,0.3,0.11,0.3,0.21c0,0.1-0.1,0.19-0.33,0.23c-0.15,0.02-0.25,0.02-0.39,0.02c-0.08,0-0.14,0-0.23-0.01l0.85,0.77h0.95
				l-0.86-0.62c0.17-0.01,0.23-0.02,0.4-0.07c0.23-0.07,0.34-0.19,0.34-0.32c0-0.17-0.11-0.32-0.53-0.42
				c-0.23-0.05-0.53-0.08-0.92-0.08c-0.54,0-1.09,0.02-1.15,0.02C65.88,53.69,65.88,55.18,65.88,55.18"/>
			<linearGradient id="XMLID_89_" gradientUnits="userSpaceOnUse" x1="67.2383" y1="55.1516" x2="67.2383" y2="53.6889">
				<stop  offset="0.0281" style="stop-color:#686868"/>
				<stop  offset="0.3427" style="stop-color:#A1A1A1"/>
				<stop  offset="0.5787" style="stop-color:#FFFFFF"/>
				<stop  offset="0.7809" style="stop-color:#E9E9E9"/>
				<stop  offset="0.9101" style="stop-color:#CCCCCC"/>
				<stop  offset="1" style="stop-color:#8B8B8B"/>
			</linearGradient>
			<path id="XMLID_15_" class="st29" d="M65.92,55.15h0.72v-1.18c0.1-0.01,0.21-0.02,0.38-0.02c0.17,0,0.3,0,0.41,0.02
				c0.22,0.03,0.29,0.11,0.29,0.2c0,0.1-0.1,0.19-0.32,0.22c-0.15,0.02-0.24,0.02-0.37,0.02c-0.07,0-0.13,0-0.22-0.01l0.82,0.75
				h0.92l-0.83-0.6c0.17-0.01,0.22-0.02,0.39-0.07c0.22-0.07,0.33-0.19,0.33-0.31c0-0.17-0.11-0.31-0.51-0.4
				c-0.22-0.05-0.51-0.07-0.89-0.07c-0.52,0-1.06,0.02-1.11,0.02C65.92,53.71,65.92,55.15,65.92,55.15"/>
			<path id="XMLID_14_" class="st20" d="M82.21,55.2h0.77v-1.26c0.11-0.01,0.22-0.02,0.4-0.02c0.19,0,0.32,0,0.43,0.02
				c0.23,0.04,0.31,0.11,0.31,0.21c0,0.1-0.1,0.2-0.34,0.23c-0.15,0.02-0.26,0.02-0.4,0.02c-0.08,0-0.14,0-0.23-0.01l0.87,0.79H85
				l-0.88-0.64c0.18-0.01,0.24-0.02,0.41-0.08c0.23-0.08,0.35-0.2,0.35-0.33c0-0.18-0.11-0.33-0.54-0.43
				c-0.24-0.05-0.54-0.08-0.95-0.08c-0.55,0-1.12,0.02-1.18,0.02C82.21,53.67,82.21,55.2,82.21,55.2"/>
			<linearGradient id="XMLID_90_" gradientUnits="userSpaceOnUse" x1="83.607" y1="55.1516" x2="83.607" y2="53.6889">
				<stop  offset="0.0281" style="stop-color:#686868"/>
				<stop  offset="0.3427" style="stop-color:#A1A1A1"/>
				<stop  offset="0.5787" style="stop-color:#FFFFFF"/>
				<stop  offset="0.7809" style="stop-color:#E9E9E9"/>
				<stop  offset="0.9101" style="stop-color:#CCCCCC"/>
				<stop  offset="1" style="stop-color:#8B8B8B"/>
			</linearGradient>
			<path id="XMLID_13_" class="st30" d="M82.29,55.15h0.72v-1.18c0.1-0.01,0.21-0.02,0.38-0.02c0.18,0,0.3,0,0.41,0.02
				c0.22,0.03,0.29,0.11,0.29,0.2c0,0.1-0.1,0.19-0.32,0.22c-0.14,0.02-0.24,0.02-0.37,0.02c-0.08,0-0.13,0-0.22-0.01L84,55.15h0.92
				l-0.83-0.6c0.17-0.01,0.22-0.02,0.39-0.07c0.22-0.07,0.33-0.19,0.33-0.31c0-0.17-0.11-0.31-0.51-0.4
				c-0.22-0.05-0.51-0.07-0.89-0.07c-0.52,0-1.06,0.02-1.11,0.02C82.29,53.71,82.29,55.15,82.29,55.15"/>
		</g>
		<linearGradient id="XMLID_91_" gradientUnits="userSpaceOnUse" x1="55.5324" y1="54.1848" x2="47.0787" y2="54.1848">
			<stop  offset="0.1461" style="stop-color:#DADADA"/>
			<stop  offset="1" style="stop-color:#666666"/>
		</linearGradient>
		<polyline id="XMLID_12_" class="st31" points="54.62,53.72 47.08,53.72 48.17,54.65 55.53,54.65 		"/>
		<path id="XMLID_11_" class="st32" d="M53.68,52.61c0,0-1.96-0.01-2.57,0.05c-0.56,0.06-0.74,0.34-0.74,0.34s1.42,0.42,2.06,0.41
			c0.43,0.02,1.95,0.12,1.95,0.12L53.68,52.61z"/>
		<path id="XMLID_10_" class="st33" d="M52.77,55.16h-4.98c0,0,0.4,0.53,1.11,0.56c0.71,0.02,6.67,0,6.67,0L52.77,55.16z"/>
		<path id="XMLID_9_" class="st33" d="M91.44,55.16h4.98c0,0-0.4,0.53-1.11,0.56c-0.71,0.02-6.67,0-6.67,0L91.44,55.16z"/>
		<path id="XMLID_8_" class="st34" d="M54.95,54.7c-0.61,0.02-0.82-0.01-1.02,0.01c-0.8,0.07-1.23,0.47-1.23,0.47
			s0.66,0.24,1.37,0.37s1.87,0.22,1.87,0.22"/>
		
			<linearGradient id="XMLID_92_" gradientUnits="userSpaceOnUse" x1="215.976" y1="54.1848" x2="207.5224" y2="54.1848" gradientTransform="matrix(-1 0 0 1 304.834 0)">
			<stop  offset="0.1461" style="stop-color:#DADADA"/>
			<stop  offset="1" style="stop-color:#666666"/>
		</linearGradient>
		<polyline id="XMLID_7_" class="st35" points="89.77,53.72 97.31,53.72 96.22,54.65 88.86,54.65 		"/>
		<path id="XMLID_6_" class="st32" d="M90.71,52.61c0,0,1.85,0,2.47,0.06c0.56,0.06,0.85,0.33,0.85,0.33s-1.42,0.42-2.06,0.41
			c-0.43,0.02-1.95,0.12-1.95,0.12L90.71,52.61z"/>
		<path id="XMLID_5_" class="st34" d="M89.44,54.7c0.61,0.02,0.82-0.01,1.02,0.01c0.8,0.07,1.35,0.47,1.35,0.47
			s-0.77,0.24-1.48,0.37c-0.71,0.13-1.87,0.22-1.87,0.22"/>
		<path id="XMLID_4_" d="M72.35,61.69c0,0-1.78-0.01-3.14,0.18c-2.54,0.37-2.17,0.62-3.5,0.95c-1.33,0.33-6.37-0.3-6.37-0.3
			s-44.21-6.75-46.68-7.14c-3.57-0.57-3.42-0.47-6.21-1.87c-3.74-1.88-4.71-3.54-4.71-3.54s0.67,0.33,1.6,0.93
			c4.74,3.05,5.16,2.9,6.07,3.25c2.64,0.99,43.65,6.9,43.65,6.9s9.28,1.67,10.81,1.07c1.54-0.6,2.41-1.17,3.14-1.33
			c2.6-0.6,6.24-0.41,6.24-0.41"/>
		<path id="XMLID_3_" d="M72.02,61.69c0,0,1.78-0.01,3.14,0.18c2.54,0.37,2.17,0.62,3.5,0.95c1.33,0.33,6.37-0.3,6.37-0.3
			s44.21-6.75,46.68-7.14c3.57-0.57,3.4-0.52,6.21-1.87c3.87-1.85,4.71-3.54,4.71-3.54s-0.67,0.33-1.6,0.93
			c-4.74,3.05-5.16,2.9-6.07,3.25c-2.64,0.99-43.65,6.9-43.65,6.9s-9.28,1.67-10.81,1.07c-1.54-0.6-2.41-1.17-3.14-1.33
			c-2.6-0.6-6.04-0.39-6.04-0.39"/>
		<linearGradient id="XMLID_93_" gradientUnits="userSpaceOnUse" x1="37.4292" y1="51.9157" x2="37.4292" y2="48.6454">
			<stop  offset="0.0281" style="stop-color:#B0B0B0"/>
			<stop  offset="0.3258" style="stop-color:#DCDCDC"/>
			<stop  offset="0.5787" style="stop-color:#B5B5B5"/>
			<stop  offset="0.6798" style="stop-color:#9D9D9D"/>
			<stop  offset="0.9382" style="stop-color:#8B8B8B"/>
		</linearGradient>
		<path id="XMLID_2_" class="st36" d="M72.72,50.91c0,0-9.94,0-11.05-0.33c-0.76-0.23-3.07-1.37-3.8-1.6
			c-0.73-0.23-2.34-0.33-2.34-0.33S3.39,48.96,2.92,49.02c-0.47,0.07-0.95,0.39-0.95,0.39s3.25,0.54,4.75,0.66
			c15.59,1.2,49.38,0.61,50.61,0.78c1.23,0.17,2.1,1.07,3.74,1.07c1.64,0,11.81,0,11.81,0"/>
		
			<linearGradient id="XMLID_94_" gradientUnits="userSpaceOnUse" x1="292.5363" y1="51.9157" x2="292.5363" y2="48.6454" gradientTransform="matrix(-1 0 0 1 399.375 0)">
			<stop  offset="0.0281" style="stop-color:#B0B0B0"/>
			<stop  offset="0.3258" style="stop-color:#DCDCDC"/>
			<stop  offset="0.5787" style="stop-color:#B5B5B5"/>
			<stop  offset="0.6798" style="stop-color:#9D9D9D"/>
			<stop  offset="0.9382" style="stop-color:#8B8B8B"/>
		</linearGradient>
		<path id="XMLID_1_" class="st37" d="M71.55,50.91c0,0,9.94,0,11.05-0.33c0.76-0.23,3.07-1.37,3.8-1.6
			c0.73-0.23,2.34-0.33,2.34-0.33s52.15,0.31,52.61,0.38c0.47,0.07,0.95,0.39,0.95,0.39s-3.25,0.54-4.75,0.66
			c-15.59,1.2-49.38,0.61-50.61,0.78c-1.23,0.17-2.1,1.07-3.74,1.07c-1.64,0-11.81,0-11.81,0"/>
	</g>
</g>
</svg>
