<?xml version="1.0" encoding="utf-8"?>
<!-- Generator: Adobe Illustrator 24.1.1, SVG Export Plug-In . SVG Version: 6.00 Build 0)  -->
<svg version="1.1" id="Layer_1" xmlns="http://www.w3.org/2000/svg" xmlns:xlink="http://www.w3.org/1999/xlink" x="0px" y="0px"
	 viewBox="0 0 144 101" style="enable-background:new 0 0 144 101;" xml:space="preserve">
<style type="text/css">
	.st0{fill:#A73439;}
</style>
<g>
	<path class="st0" d="M72,14.2c-39.1,0-70.7,16.3-70.7,36.3S32.9,86.8,72,86.8c39.1,0,70.7-16.3,70.7-36.3S111.1,14.2,72,14.2z
		 M72.3,78.5C36.6,78.5,7.6,66,7.6,50.7c0-15.4,28.9-27.8,64.7-27.8c35.7,0,64.7,12.5,64.7,27.8C137,66,108,78.5,72.3,78.5z"/>
	<path class="st0" d="M95.4,36.1c0-0.1,0.1-0.2,0.1-0.3c0-0.4-0.3-0.7-0.7-0.7l0,0l-1,0c-0.1,0-0.1-0.1-0.1-0.1v-1.7
		c0-0.1,0.1-0.1,0.1-0.1l3.7,0h0.8l8.7,0c0.4,0,0.8,0.1,0.9,0.5L119.4,67c0,0.1,0,0.1,0,0.2c0,0.4-0.3,0.6-0.6,0.6l0,0l-8.3,0
		c-0.4,0-0.8-0.3-1-0.7l-7.1-21.6c0-0.2-0.2-0.3-0.4-0.3c-0.2,0-0.3,0.1-0.4,0.3l-7.1,21.6c-0.1,0.4-0.6,0.7-1,0.7l-8.3,0
		c-0.4,0-0.6-0.3-0.6-0.6c0-0.1,0-0.1,0-0.2L95.4,36.1z"/>
	<path class="st0" d="M67.8,36v-0.3v0c0-0.4-0.3-0.7-0.7-0.7l-1.1,0c-0.1,0-0.1-0.1-0.1-0.1v-1.7c0-0.1,0.1-0.1,0.1-0.1h1.7h0.9H69
		h7.9c0.4,0,0.7,0.3,0.7,0.7v33.4c0,0.4-0.3,0.7-0.7,0.7h-8.4c-0.4,0-0.7-0.3-0.7-0.7V37v-0.2L67.8,36z"/>
	<path class="st0" d="M60.6,67.9l-9.7,0c-0.4,0-1-0.3-1.3-0.7L40,53.8c-0.2-0.2-0.2-0.2-0.3-0.3c-0.1,0-0.2-0.1-0.3-0.1
		c-0.2,0-0.4,0.2-0.4,0.4v0.2v0l0,13.1c0,0.4-0.3,0.7-0.7,0.7h-8.2c-0.4,0-0.7-0.3-0.7-0.7l0-31.4v0c0-0.4-0.3-0.7-0.7-0.7h0l-1.1,0
		c-0.1,0-0.1-0.1-0.1-0.1v-1.7c0-0.1,0.1-0.1,0.1-0.1h1.7h0.9l8.2,0c0.4,0,0.7,0.3,0.7,0.7l0,8.7V43l0,1.6v0v0.2
		c0,0.3,0.2,0.4,0.4,0.4c0.1,0,0.2,0,0.3-0.1c0.1-0.1,0.1-0.1,0.3-0.3l1.3-1.8l6.7-9.3c0.3-0.4,0.9-0.7,1.3-0.7h9.3
		c0.4,0,0.6,0.3,0.6,0.6c0,0.1,0,0.3-0.1,0.4L48.9,48.9c-0.1,0.2-0.2,0.3-0.2,0.5c0,0.2,0,0.3,0.2,0.4l12.3,17
		c0.1,0.1,0.2,0.3,0.2,0.4C61.3,67.6,61,67.9,60.6,67.9z"/>
</g>
</svg>
