<?xml version="1.0" encoding="utf-8"?>
<!-- Generator: Adobe Illustrator 24.0.2, SVG Export Plug-In . SVG Version: 6.00 Build 0)  -->
<svg version="1.1" id="Layer_1" xmlns="http://www.w3.org/2000/svg" xmlns:xlink="http://www.w3.org/1999/xlink" x="0px" y="0px"
	 viewBox="0 0 144 101" style="enable-background:new 0 0 144 101;" xml:space="preserve">
<style type="text/css">
	.st0{fill:#FFFFFF;}
	.st1{fill-rule:evenodd;clip-rule:evenodd;fill:url(#in_sf_base_1_);}
	.st2{fill-rule:evenodd;clip-rule:evenodd;fill:url(#in_sf_base_2_);}
	.st3{fill-rule:evenodd;clip-rule:evenodd;fill:url(#SVGID_1_);}
	.st4{fill-rule:evenodd;clip-rule:evenodd;fill:url(#out_sf_base_1_);}
	.st5{opacity:0.74;fill-rule:evenodd;clip-rule:evenodd;fill:url(#SVGID_2_);enable-background:new    ;}
	.st6{fill-rule:evenodd;clip-rule:evenodd;fill:url(#in_up_right_1_);}
	.st7{fill-rule:evenodd;clip-rule:evenodd;fill:url(#in_up_right_2_);}
	.st8{fill-rule:evenodd;clip-rule:evenodd;fill:url(#SVGID_3_);}
	.st9{opacity:0.9;fill-rule:evenodd;clip-rule:evenodd;fill:url(#SVGID_4_);enable-background:new    ;}
	.st10{fill:#241D1E;}
	.st11{fill:#727172;}
	.st12{fill:#5C5B5B;}
	.st13{opacity:0.2;fill-rule:evenodd;clip-rule:evenodd;fill:url(#SVGID_5_);enable-background:new    ;}
	.st14{opacity:0.2;fill-rule:evenodd;clip-rule:evenodd;fill:url(#SVGID_6_);fill-opacity:0.42;enable-background:new    ;}
	.st15{opacity:0.5;fill:#C5C5C4;enable-background:new    ;}
	.st16{fill:none;}
	.st17{fill-rule:evenodd;clip-rule:evenodd;fill:url(#SVGID_7_);}
	.st18{opacity:0.9;fill-rule:evenodd;clip-rule:evenodd;fill:url(#SVGID_8_);enable-background:new    ;}
	.st19{fill:url(#wing_low_sf_1_);}
	.st20{fill-rule:evenodd;clip-rule:evenodd;fill:url(#SVGID_9_);}
	.st21{fill-rule:evenodd;clip-rule:evenodd;fill:url(#SVGID_10_);}
	.st22{fill-rule:evenodd;clip-rule:evenodd;fill:url(#SVGID_11_);}
	.st23{fill-rule:evenodd;clip-rule:evenodd;fill:url(#SVGID_12_);}
	.st24{fill-rule:evenodd;clip-rule:evenodd;fill:#454242;}
	.st25{fill:#C5C5C4;}
	.st26{fill:url(#SVGID_13_);fill-opacity:0.8;}
	.st27{fill:#454242;}
	.st28{fill-rule:evenodd;clip-rule:evenodd;fill:url(#SVGID_14_);}
	.st29{fill-rule:evenodd;clip-rule:evenodd;fill:#DADBDA;}
	.st30{fill-rule:evenodd;clip-rule:evenodd;fill:url(#SVGID_15_);}
	.st31{fill-rule:evenodd;clip-rule:evenodd;fill:url(#SVGID_16_);}
	.st32{fill-rule:evenodd;clip-rule:evenodd;fill:url(#SVGID_17_);}
	.st33{fill-rule:evenodd;clip-rule:evenodd;fill:url(#SVGID_18_);}
</style>
<g>
	<g>
		<g>
			<path class="st0" d="M72.3,99.8c-20.1,0-36.6-4.6-46.5-12.9c-9.6-8.1-14.5-19.9-15.1-36.5c-0.5-15.2,5.7-29.6,16.3-37.8
				c10-7.7,24.4-11.2,45-11.2c21.3,0,35.7,3.6,45.4,11.3c10.2,8.2,16.6,23,16.2,37.8c-0.5,16.4-5.4,28-15.4,36.2
				C108.2,95.2,91.9,99.8,72.3,99.8z M72.3,8.6c-5.7,0-11,0.4-15.2,1.3c-7,1.5-10.8,3-15.8,6.3c-13.1,8.6-15.8,23.2-15.8,33.8
				c0,16.2,5.4,28,16.2,35c6.6,4.3,16,6.3,30.7,6.3c13.6,0,21.8-1.8,29.6-6.2c7.7-4.4,16.8-14.1,16.8-35.3
				c0-15.5-5.3-26.8-15.6-33.8c-4.8-3.2-7.9-4.7-15.9-6.3C83.4,9,78,8.6,72.3,8.6L72.3,8.6z"/>
			<path class="st0" d="M72.6,72.8c-0.9,0-1.2-0.5-2.2-2.6c-0.4-0.9-0.9-2.2-1.9-4c-3.6-7.1-10-13.1-17.4-16c-2.2-0.8-5-1.8-7.8-2.6
				l0,0c-5.8-1.8-12.3-3.6-17.1-6.6L26.1,38v-7.8l5.3-3.5c0.3,0.3,2.8,1.9,6.5,3.5c1.6,0.7,3.4,1.5,5.3,2.3h0.1
				c6.2,2.7,13.2,5.8,16.2,7.9c4.7,3.4,9.2,8.5,12.1,13.7c0.4,0.8,0.8,1.1,0.9,1.1s0.5-0.3,0.9-1.1c3-5.8,8.3-11.2,12.3-14
				c3.8-2.6,10.2-5.3,15.9-7.5l0,0c2.6-1.1,5.1-2,7-3c3-1.3,4.8-2.7,5.1-2.8l5,3.1v7.9l-0.1,3c-3.4,1.9-5.4,3.1-13.5,5.3l-0.4,0.1
				C89.4,50.1,80,56.8,76.1,66.2c-0.4,1.1-0.8,2.2-1.1,3v0.1C74.2,71.6,73.8,72.8,72.6,72.8z"/>
		</g>
		<g>
			
				<linearGradient id="in_sf_base_1_" gradientUnits="userSpaceOnUse" x1="60.2243" y1="97.9955" x2="84.8222" y2="6.1953" gradientTransform="matrix(1 0 0 -1 0 102)">
				<stop  offset="0.2121" style="stop-color:#241D1E"/>
				<stop  offset="0.3132" style="stop-color:#2E2829"/>
				<stop  offset="0.4928" style="stop-color:#4A4747"/>
				<stop  offset="0.5939" style="stop-color:#5C5B5B"/>
				<stop  offset="0.8036" style="stop-color:#B2B2B2"/>
				<stop  offset="1" style="stop-color:#FFFFFF"/>
			</linearGradient>
			<path id="in_sf_base_8_" class="st1" d="M58.3,90.7C45.4,89,25.6,82.1,25.6,49.4c0-18.7,8.3-41.1,46.9-41.1
				c34.7,0,46.6,18.7,46.6,40.9c0,30.8-17.8,38.8-32.5,41.2C79.3,91.8,66.7,92,58.3,90.7z M127.4,49.7c0-24.9-11.7-45.5-54.9-45.5
				c-45.4,0-54.9,25-54.9,45.6c0,34.5,23.2,42.8,40,44.8c8.5,0.9,20.9,0.9,28.8,0C103,92.6,127.4,84.4,127.4,49.7z"/>
			
				<linearGradient id="in_sf_base_2_" gradientUnits="userSpaceOnUse" x1="60.2243" y1="97.9955" x2="84.8222" y2="6.1953" gradientTransform="matrix(1 0 0 -1 0 102)">
				<stop  offset="0" style="stop-color:#241D1E"/>
				<stop  offset="0.5636" style="stop-color:#454242"/>
				<stop  offset="0.5685" style="stop-color:#464343"/>
				<stop  offset="0.6497" style="stop-color:#565555"/>
				<stop  offset="0.7091" style="stop-color:#5C5B5B"/>
				<stop  offset="0.8364" style="stop-color:#FFFFFF"/>
				<stop  offset="0.8909" style="stop-color:#FFFFFF"/>
				<stop  offset="1" style="stop-color:#9CA2AB"/>
			</linearGradient>
			<path id="in_sf_base_7_" class="st2" d="M58.3,90.7C45.4,89,25.6,82.1,25.6,49.4c0-18.7,8.3-41.1,46.9-41.1
				c34.7,0,46.6,18.7,46.6,40.9c0,30.8-17.8,38.8-32.5,41.2C79.3,91.8,66.7,92,58.3,90.7z M127.4,49.7c0-24.9-11.7-45.5-54.9-45.5
				c-45.4,0-54.9,25-54.9,45.6c0,34.5,23.2,42.8,40,44.8c8.5,0.9,20.9,0.9,28.8,0C103,92.6,127.4,84.4,127.4,49.7z"/>
			
				<linearGradient id="SVGID_1_" gradientUnits="userSpaceOnUse" x1="-563.3562" y1="100.6324" x2="-539.4397" y2="11.3753" gradientTransform="matrix(-1 0 0 -1 -503.666 102)">
				<stop  offset="0" style="stop-color:#353131;stop-opacity:0"/>
				<stop  offset="0.6061" style="stop-color:#353131"/>
				<stop  offset="0.6414" style="stop-color:#383434"/>
				<stop  offset="0.6698" style="stop-color:#413E3E"/>
				<stop  offset="0.6957" style="stop-color:#514F4F"/>
				<stop  offset="0.7091" style="stop-color:#5C5B5B"/>
				<stop  offset="0.8667" style="stop-color:#EEEEEE"/>
				<stop  offset="1" style="stop-color:#DADBDA;stop-opacity:0"/>
			</linearGradient>
			<path class="st3" d="M72.6,4.8v3.1c-35.1,0.1-47,18.7-47,42.3c0,21.4,9.3,32.3,19.8,37.2c11.7,5.5,25.4,4.6,19,7
				c-1.6,0.5-2.8,1.6-8.5,0.9c-16.8-2-38.1-10.2-38.1-44.8C17.8,25.6,29.5,5,72.6,4.8z"/>
			
				<linearGradient id="out_sf_base_1_" gradientUnits="userSpaceOnUse" x1="90.0075" y1="2.3542" x2="54.1762" y2="100.7999" gradientTransform="matrix(1 0 0 -1 0 102)">
				<stop  offset="3.636360e-02" style="stop-color:#414040"/>
				<stop  offset="0.1939" style="stop-color:#454242"/>
				<stop  offset="0.3696" style="stop-color:#8C8A8A"/>
				<stop  offset="0.5396" style="stop-color:#CAC9C9"/>
				<stop  offset="0.663" style="stop-color:#F0F0F0"/>
				<stop  offset="0.7273" style="stop-color:#FFFFFF"/>
				<stop  offset="1" style="stop-color:#767D82"/>
			</linearGradient>
			<path id="out_sf_base_4_" class="st4" d="M133.3,50.7c0,13.2-4.4,27.1-15.2,35.8c-11.2,9.3-28.5,13.2-45.9,13.2
				c-18.6,0-34.7-3.5-46.9-13.7c-9.7-8.1-14.3-22.6-14.3-35.4c0-14,4.4-28.8,16.2-37.7C38,4.6,57.1,1.6,72.1,1.6
				c17.4,0,34.1,2.8,45.2,11.7C128.1,22.1,133.3,37,133.3,50.7z M127.1,50.2c0-23.2-13.5-45.5-54.9-45.5c-45.4,0-54.9,25-54.9,45.6
				c0,35.1,24.1,43.2,40.9,45c9.2,0.9,18.3,1.1,28.3,0C96.6,94.1,127.1,87.5,127.1,50.2z"/>
			
				<linearGradient id="SVGID_2_" gradientUnits="userSpaceOnUse" x1="28.9092" y1="56.0267" x2="42.2492" y2="102.5489" gradientTransform="matrix(1 0 0 -1 0 102)">
				<stop  offset="0" style="stop-color:#FFFFFF;stop-opacity:0"/>
				<stop  offset="0.4606" style="stop-color:#FFFFFF"/>
				<stop  offset="0.5388" style="stop-color:#F0F0F0;stop-opacity:0.8551"/>
				<stop  offset="1" style="stop-color:#9A9A9A;stop-opacity:0"/>
			</linearGradient>
			<path class="st5" d="M18.6,38.8c2.2-6.1,4.7-15.9,12.5-22.8C39.9,8.3,55.2,5.5,59.7,5c-1.8-1.1-2.7-1.2-5.3-2
				C41.8,4.8,31.1,8.3,23.6,16.3c-7.7,8.1-10.9,18-11.8,24.8C14.3,40.1,15.4,39.8,18.6,38.8z"/>
			
				<linearGradient id="in_up_right_1_" gradientUnits="userSpaceOnUse" x1="35.7103" y1="88.4191" x2="109.0974" y2="88.4191" gradientTransform="matrix(1 0 0 -1 0 102)">
				<stop  offset="0" style="stop-color:#241D1E"/>
				<stop  offset="4.560214e-02" style="stop-color:#383333;stop-opacity:0.9544"/>
				<stop  offset="0.1231" style="stop-color:#545151;stop-opacity:0.8769"/>
				<stop  offset="0.2047" style="stop-color:#6A6968;stop-opacity:0.7953"/>
				<stop  offset="0.2911" style="stop-color:#7A7A79;stop-opacity:0.7089"/>
				<stop  offset="0.3855" style="stop-color:#838483;stop-opacity:0.6145"/>
				<stop  offset="0.503" style="stop-color:#868786;stop-opacity:0.497"/>
				<stop  offset="1" style="stop-color:#241D1E"/>
			</linearGradient>
			<path id="in_up_right_8_" class="st6" d="M71.8,6.7c14.7,0,28.5,2.6,37.3,13.7c-13.3-16.6-58.6-17-73.4,0
				C44.5,10.5,57.3,6.7,71.8,6.7z"/>
			
				<linearGradient id="in_up_right_2_" gradientUnits="userSpaceOnUse" x1="-844.4471" y1="1060.3118" x2="-775.2972" y2="1060.3118" gradientTransform="matrix(-1 0 0 1 -737 -972.9921)">
				<stop  offset="0" style="stop-color:#241D1E"/>
				<stop  offset="0.2421" style="stop-color:#484344"/>
				<stop  offset="0.503" style="stop-color:#727172"/>
				<stop  offset="1" style="stop-color:#241D1E"/>
			</linearGradient>
			<path id="in_up_right_7_" class="st7" d="M72.3,93c-16,0-25.3-2-33.4-9.3c-0.9-0.9-0.9-0.8,0.3,0c2.3,1.6,5.1,3.5,8.2,4.6
				c7.3,2.7,16.6,3.5,25,3.5c8.5,0,15.9-0.9,22.4-3c4.7-1.5,8.3-4,11.7-6.6c1.2-0.9,1.3-0.8,0.3,0.1C97.9,89.9,87.7,93,72.3,93z"/>
			
				<linearGradient id="SVGID_3_" gradientUnits="userSpaceOnUse" x1="-660.2168" y1="29.0363" x2="-663.7222" y2="19.4056" gradientTransform="matrix(-1 0 0 -1 -541 102)">
				<stop  offset="0.2364" style="stop-color:#241D1E;stop-opacity:0"/>
				<stop  offset="0.4424" style="stop-color:#241D1E"/>
				<stop  offset="0.6909" style="stop-color:#241D1E;stop-opacity:0.7394"/>
				<stop  offset="1" style="stop-color:#241D1E;stop-opacity:0"/>
			</linearGradient>
			<path class="st8" d="M128.9,71.9c0.8-1.8,0.7-1.6,1.1-2.7c0.1-0.4-0.1,0.3-0.4,0.9c-0.4,0.8-0.3,0.7-0.9,1.6
				c-0.7,0.9-0.8,0.9-2,1.8c-0.9,0.5-2.2,0.9-4,2c-0.5,0.3-0.7,0.4-1.8,1.8c-0.7,0.9-1.5,2-1.9,2.4c-1.2,1.3-4.4,4-6.2,5.5
				c-1.5,1.3-1.1,1.5,1.2,0.7c2-0.7,4.8-1.9,6.6-2.6c1.1-0.4,2-1.2,2.3-1.6C124.9,79.2,127.4,75.1,128.9,71.9z"/>
			
				<linearGradient id="SVGID_4_" gradientUnits="userSpaceOnUse" x1="58.5511" y1="103.6453" x2="28.7391" y2="49.8631" gradientTransform="matrix(1 0 0 -1 -11.166 102)">
				<stop  offset="0" style="stop-color:#FFFFFF;stop-opacity:0"/>
				<stop  offset="0.3697" style="stop-color:#FFFFFF"/>
				<stop  offset="1" style="stop-color:#9A9A9A;stop-opacity:0"/>
			</linearGradient>
			<path class="st9" d="M17.7,50.2c0-11.2,3.9-25.7,13.5-34.1C39.7,8.3,54.7,5.5,59.3,5c-1.8-1.1-2.7-1.2-5.3-2
				c-12.7,1.8-23.4,5.4-31,13.5C15,25,11.1,39,10.9,48.5C13.1,49,14.7,49.5,17.7,50.2z"/>
			<path id="in_line_8_" class="st10" d="M72.3,8.6L72.3,8.6c5.7,0,11,0.4,15.1,1.3c7.8,1.6,10.9,3.1,15.8,6.3
				c10.4,6.9,15.6,18.3,15.6,33.8c0,21-9.2,30.7-16.8,35.1c-7.8,4.4-16.2,6.2-29.6,6.2c-14.5,0-24.1-1.9-30.7-6.3
				c-10.6-7-16.2-18.9-16.2-35c0-10.6,2.7-25.2,15.8-33.8c5.1-3.5,8.9-5,15.9-6.5C61.3,9,66.7,8.6,72.3,8.6z M72.3,8.5
				c-5.4,0-10.9,0.4-15.2,1.3c-7,1.5-10.8,3-15.8,6.3C29,24.4,25.5,38,25.5,50.1c0,16.6,5.5,28.1,16.2,35.1
				c7.7,5.1,18.6,6.3,30.7,6.3c12.5,0,21.4-1.5,29.8-6.3c9.7-5.5,17-16.6,17-35.3c0-14.3-4.6-26.5-15.8-33.9
				c-5-3.2-8.1-4.7-15.9-6.3C83.2,8.9,77.7,8.5,72.3,8.5L72.3,8.5z"/>
			<path id="in_line_7_" class="st11" d="M72.3,8.5c5.4,0,10.9,0.4,15.1,1.3c7.7,1.6,10.9,3,15.9,6.3c11,7.4,15.8,19.5,15.8,33.9
				c0,18.7-7.1,29.8-16.8,35.3c-8.3,4.8-17.2,6.3-29.8,6.3c-12.1,0-23-1.2-30.7-6.3c-10.5-7-16.2-18.6-16.2-35.1
				c0-12.1,3.5-25.7,15.8-33.9c5-3.6,8.8-5.1,15.8-6.6C61.4,8.9,67,8.5,72.3,8.5z M72.3,8.2L72.3,8.2c-5.7,0-11,0.5-15.4,1.3
				c-7.1,1.5-10.8,3-15.9,6.3C28,24.6,25.2,39.3,25.2,50.1c0,16.3,5.5,28.3,16.3,35.4c6.7,4.4,16.2,6.3,30.8,6.3
				c13.6,0,21.9-1.8,29.9-6.3c7.8-4.4,17-14.3,17-35.5c0-15.6-5.3-27.1-15.8-34.1c-4.8-3.2-8.1-4.7-16-6.3C83.4,8.6,78,8.2,72.3,8.2
				L72.3,8.2z"/>
			<path id="outline_8_" class="st10" d="M72.1,1.6c17.9,0,34.3,2.6,45.2,11.3c11,8.8,16.6,24.2,16.2,37.7
				c-0.4,15.4-4.6,27.3-15.4,36.1C106.9,96,89.7,99.6,72.3,99.6c-17.5,0-35.3-3.5-46.3-12.8c-10.2-8.6-14.5-21.1-15.1-36.4
				c-0.5-14.9,5.4-29.4,16.3-37.7C39.2,3.6,56.2,1.6,72.1,1.6z M72.1,1.5c-20.7,0-35,3.5-45,11.2c-10.6,8.1-16.8,22.6-16.3,37.8
				c0.5,16.4,5.5,28.4,15.1,36.5c9.8,8.3,26.4,12.9,46.5,12.9c19.5,0,35.8-4.6,45.9-13.1c10-8.2,14.8-19.8,15.4-36.2
				c0.4-14.8-5.9-29.6-16.2-37.8C107.8,5.1,93.3,1.5,72.1,1.5L72.1,1.5z"/>
			<path id="outline_7_" class="st12" d="M72.1,1.9c21.1,0,35.5,3.5,45.1,11.2c10.2,8.1,16.4,22.9,16,37.4
				c-0.5,16.3-5.4,27.7-15.2,36c-10.1,8.3-26.3,12.9-45.6,12.9c-19.9,0-36.4-4.6-46.2-12.8c-9.4-7.9-14.4-19.8-14.9-36.1
				C10.7,35.4,16.9,21,27.4,13C37.3,5.5,51.6,1.9,72.1,1.9z M72.1,1.6c-15.9,0-32.9,2-44.8,11.2c-10.9,8.3-16.8,22.8-16.3,37.7
				c0.5,15.2,4.8,27.7,15.1,36.4c11.2,9.4,29,12.8,46.3,12.8s34.6-3.8,45.8-12.9c10.6-8.9,14.8-20.9,15.4-36.1
				c0.4-13.5-5.1-29-16.2-37.7C106.4,4.2,90,1.6,72.1,1.6L72.1,1.6z"/>
			
				<linearGradient id="SVGID_5_" gradientUnits="userSpaceOnUse" x1="103.8458" y1="87.4765" x2="121.4343" y2="87.4765" gradientTransform="matrix(1 0 0 -1 0 102)">
				<stop  offset="0" style="stop-color:#241D1E"/>
				<stop  offset="8.962709e-02" style="stop-color:#241D1E;stop-opacity:0.9104"/>
				<stop  offset="1" style="stop-color:#241D1E;stop-opacity:0"/>
			</linearGradient>
			<path class="st13" d="M103.8,10.3c2.6,0.4,11.8,2.4,15.1,4.3c3,1.9,2.6,1.9,2.6,1.9l-5.7,2.2C115.8,18.7,111.9,14.3,103.8,10.3z"
				/>
			
				<linearGradient id="SVGID_6_" gradientUnits="userSpaceOnUse" x1="-686.5387" y1="92.1637" x2="-686.5387" y2="80.7778" gradientTransform="matrix(-1 0 0 -1 -656 102)">
				<stop  offset="0" style="stop-color:#241D1E"/>
				<stop  offset="1" style="stop-color:#241D1E;stop-opacity:0"/>
			</linearGradient>
			<path class="st14" d="M40.2,10.2c-5.5,1.3-13.1,3.2-15.9,5.1c-1.3,0.9-5.3,5.9-5.3,5.9l5.4-4.4c2.7-0.7,2.8-0.8,4.8-1.3
				c2.3-0.5,3.5-0.7,5.9-2.4C37.7,11.4,45.7,8.9,40.2,10.2z"/>
			<path class="st0" d="M72.5,96.3c-5.5,0-11-0.4-17.6-1.3c-14-1.9-37.7-10.2-37.7-45c0-20.5,9.8-35.8,27.1-42c7.4-2.7,17-4,28.3-4
				c20.3,0,34.9,5,44.4,15.2c7.1,7.7,10.6,17.8,10.6,30.8c0,32.9-21.7,42.7-39.9,45.2C82.3,96,77.5,96.3,72.5,96.3z M72.5,5
				c-11.2,0-20.6,1.3-28,4c-16.8,6.1-26.5,21-26.5,41.1c0,32.5,20.1,41.9,36.9,44c12.5,1.6,21.4,1.8,32.6,0.3
				c17.8-2.4,39.1-12,39.1-44.3c0-12.8-3.4-22.8-10.4-30.2C106.8,9.8,92.5,5,72.5,5z"/>
			<path class="st15" d="M72.5,96.4L72.5,96.4c-5.5,0-11-0.4-17.6-1.2c-10.4-1.3-18.7-5-25-10.8C21.3,76.6,17,65.2,17,50.2
				c0-20.6,9.8-36,27.1-42.1c7.4-2.7,17-4,28.3-4c20.3,0,34.9,5,44.4,15.2c7.1,7.7,10.6,17.8,10.6,30.8c0,33-21.7,42.8-40,45.4
				C82.3,96.1,77.5,96.4,72.5,96.4z M72.5,4.3c-11.3,0-20.7,1.3-28.3,4c-17.1,6.2-26.9,21.4-26.9,41.9c0,14.8,4.3,26.3,12.7,34.1
				c6.2,5.8,14.7,9.4,24.9,10.8c6.6,0.8,12.3,1.2,17.6,1.2l0,0c5,0,9.8-0.3,15.1-1.1c18-2.4,39.7-12.3,39.7-45
				c0-13.1-3.5-23-10.6-30.7C107.2,9.1,92.8,4.3,72.5,4.3z"/>
			<path class="st16" d="M72.5,5c-11.2,0-20.6,1.3-28,4c-16.8,6.1-26.5,21-26.5,41.1c0,32.5,20.1,41.9,36.9,44
				c6.6,0.8,12.1,1.2,17.5,1.2l0,0c5,0,9.7-0.3,15.1-1.1c17.8-2.4,39.1-12,39.1-44.3c0-12.8-3.4-22.8-10.4-30.2
				C106.8,9.8,92.5,5,72.5,5z"/>
			
				<linearGradient id="SVGID_7_" gradientUnits="userSpaceOnUse" x1="335.0137" y1="24.7846" x2="330.0483" y2="11.1425" gradientTransform="matrix(1 0 0 -1 -299.0254 102)">
				<stop  offset="4.848480e-02" style="stop-color:#241D1E;stop-opacity:0"/>
				<stop  offset="0.158" style="stop-color:#373233;stop-opacity:0.5162"/>
				<stop  offset="0.2606" style="stop-color:#454242"/>
				<stop  offset="0.3466" style="stop-color:#403C3C;stop-opacity:0.9532"/>
				<stop  offset="0.4596" style="stop-color:#312C2C;stop-opacity:0.8918"/>
				<stop  offset="0.5333" style="stop-color:#241D1E;stop-opacity:0.8517"/>
				<stop  offset="0.5855" style="stop-color:#282122;stop-opacity:0.8232"/>
				<stop  offset="0.638" style="stop-color:#332D2E;stop-opacity:0.7946"/>
				<stop  offset="0.6906" style="stop-color:#454142;stop-opacity:0.766"/>
				<stop  offset="0.7394" style="stop-color:#5C5B5B;stop-opacity:0.7394"/>
				<stop  offset="0.7421" style="stop-color:#595858;stop-opacity:0.7317"/>
				<stop  offset="0.7648" style="stop-color:#464243;stop-opacity:0.6673"/>
				<stop  offset="0.7914" style="stop-color:#363132;stop-opacity:0.5919"/>
				<stop  offset="0.8245" style="stop-color:#2C2627;stop-opacity:0.4979"/>
				<stop  offset="0.871" style="stop-color:#261F20;stop-opacity:0.3661"/>
				<stop  offset="1" style="stop-color:#241D1E;stop-opacity:0"/>
			</linearGradient>
			<path class="st17" d="M15.2,70.3c0.4,0.8,0.7,2,2.2,2.6c1.1,0.5,2,0.8,3.1,1.3c1.8,0.7,3.1,3.1,4.3,4.6c1.2,1.5,4.8,4.8,6.6,6.3
				c2.7,2.2,7.7,5.3,11.6,6.7c0.3,0.1,10.8,4.4,9.6,5.5c-0.3,0.3-10-2.4-10.4-2.6c-8.2-2.6-17-7.5-22.8-15.9
				c-0.8-1.1-3.6-6.3-4.3-8.5C14.7,69.2,14.8,69.3,15.2,70.3z"/>
			
				<linearGradient id="SVGID_8_" gradientUnits="userSpaceOnUse" x1="-802.5481" y1="59.4303" x2="-790.2305" y2="102.3869" gradientTransform="matrix(-1 0 0 -1 -688 102)">
				<stop  offset="0" style="stop-color:#FFFFFF;stop-opacity:0"/>
				<stop  offset="0.1055" style="stop-color:#E3E3E3;stop-opacity:0.229"/>
				<stop  offset="0.3318" style="stop-color:#9D9C9D;stop-opacity:0.7203"/>
				<stop  offset="0.4606" style="stop-color:#727172"/>
				<stop  offset="0.4727" style="stop-color:#727172"/>
				<stop  offset="0.635" style="stop-color:#767576;stop-opacity:0.6923"/>
				<stop  offset="0.8041" style="stop-color:#828282;stop-opacity:0.3714"/>
				<stop  offset="0.976" style="stop-color:#979697;stop-opacity:4.554760e-02"/>
				<stop  offset="1" style="stop-color:#9A9A9A;stop-opacity:0"/>
			</linearGradient>
			<path class="st18" d="M125.9,38.9c-2.2-6.1-4.7-15.9-12.5-22.8c-8.6-7.8-24-10.5-28.4-11c1.8-1.1,2.7-1.2,5.3-2
				c12.7,1.9,23.3,5.5,31,13.6c6.5,6.7,9.2,14.5,10.6,21C129.6,38.2,128.9,38.2,125.9,38.9z"/>
			
				<linearGradient id="wing_low_sf_1_" gradientUnits="userSpaceOnUse" x1="24.8032" y1="48.4265" x2="120.947" y2="48.4265" gradientTransform="matrix(1 0 0 -1 0 102)">
				<stop  offset="0" style="stop-color:#241D1E"/>
				<stop  offset="6.287608e-02" style="stop-color:#433F3F"/>
				<stop  offset="0.134" style="stop-color:#605D5E"/>
				<stop  offset="0.209" style="stop-color:#767575"/>
				<stop  offset="0.2883" style="stop-color:#868686"/>
				<stop  offset="0.375" style="stop-color:#8F9090"/>
				<stop  offset="0.483" style="stop-color:#929393"/>
				<stop  offset="0.497" style="stop-color:#FFFFFF;stop-opacity:0.7679"/>
				<stop  offset="0.498" style="stop-color:#241D1E;stop-opacity:0.9"/>
				<stop  offset="0.5109" style="stop-color:#2C2627;stop-opacity:0.924"/>
				<stop  offset="0.5317" style="stop-color:#423E3F;stop-opacity:0.9631"/>
				<stop  offset="0.5515" style="stop-color:#5C5B5B"/>
				<stop  offset="0.5526" style="stop-color:#5D5C5C"/>
				<stop  offset="0.5619" style="stop-color:#646262"/>
				<stop  offset="0.5879" style="stop-color:#666464"/>
				<stop  offset="1" style="stop-color:#241D1E"/>
			</linearGradient>
			<path id="wing_low_sf_4_" class="st19" d="M89.8,42.7c0,0-0.1,0-0.1,0.1c-3,1.3-17,16.7-17.4,17.1C71.9,60.3,57,48.1,56.7,47.6
				C56.4,47.1,31,38,31,38l-6.2-0.5c0,0,0.4,1.6,2,3.8c6.5,4,19.1,6.7,25.7,9.4C60.5,53.8,66,61,69,66.2c1.9,3.5,2.3,6.5,3.6,6.5
				c1.3,0,2.2-3.2,3-5.3c4.4-10.4,10-16.6,29.2-21.4c11.8-3,13.6-5.5,13.6-5.5l2.6-6.1C120.8,34.6,93.3,41.1,89.8,42.7z"/>
			
				<linearGradient id="SVGID_9_" gradientUnits="userSpaceOnUse" x1="-989.1336" y1="50.4787" x2="-1031.2582" y2="58.667" gradientTransform="matrix(-1 0 0 -1 -963.2852 102)">
				<stop  offset="0" style="stop-color:#241D1E"/>
				<stop  offset="0.1356" style="stop-color:#2D2728"/>
				<stop  offset="0.7016" style="stop-color:#4F4D4D"/>
				<stop  offset="1" style="stop-color:#5C5B5B"/>
			</linearGradient>
			<path class="st20" d="M23.7,35.5c1.1,2.7,2.7,5.7,2.7,5.7s3,1.6,6.7,2.8c8.5,2.8,19.4,4.4,22.5,5.9c11.2,5.4,13.7,10.4,16.4,14.8
				c-1.2-3-2.2-5.7-6.2-10.6c-5.8-7.3-9.6-8.9-17.9-12c-2.8-1.1-6.9-2.7-11.7-4.4c-4.8-1.8-10.9-5-14.7-7.5
				C21.6,30,22.9,33.4,23.7,35.5z"/>
			
				<linearGradient id="SVGID_10_" gradientUnits="userSpaceOnUse" x1="72.3695" y1="60.1323" x2="123.8676" y2="60.1323" gradientTransform="matrix(1 0 0 -1 0 102)">
				<stop  offset="0" style="stop-color:#241D1E"/>
				<stop  offset="2.548992e-02" style="stop-color:#413C3E"/>
				<stop  offset="6.100763e-02" style="stop-color:#626065"/>
				<stop  offset="0.1004" style="stop-color:#808087"/>
				<stop  offset="0.1434" style="stop-color:#999BA3"/>
				<stop  offset="0.1913" style="stop-color:#ADB1BA"/>
				<stop  offset="0.2461" style="stop-color:#BDC2CC"/>
				<stop  offset="0.312" style="stop-color:#C8CED9"/>
				<stop  offset="0.4004" style="stop-color:#CED5E0"/>
				<stop  offset="0.6061" style="stop-color:#D0D7E2"/>
				<stop  offset="0.8242" style="stop-color:#FFFFFF"/>
			</linearGradient>
			<path class="st21" d="M79.6,45.8c2.3-2.6,4-4.3,8.3-6.9c7.9-4.7,20.2-7.3,28.3-13.5c5.4-4.2,7-6.3,7-6.3s0.7,1.8,0.7,4.2
				c0,1.3,0.1,2.6,0,4c-0.1,1.3-0.4,2.6-0.5,2.6c-3.8,2.6-9.2,5.5-14,7.4c-4.8,1.9-9.6,3.4-12.4,4.4c-12.5,4.7-18,11.8-22.1,19.1
				c-1.9,3.4-2.4,3.9-2.4,3.8c0-0.1,0-8.1,0-9.3c0.1,0,0.3,0,0.8-0.9C74.2,52.6,76.6,49,79.6,45.8z"/>
			
				<linearGradient id="SVGID_11_" gradientUnits="userSpaceOnUse" x1="94.0727" y1="63.0831" x2="101.6346" y2="38.3498" gradientTransform="matrix(1 0 0 -1 0 102)">
				<stop  offset="0" style="stop-color:#241D1E"/>
				<stop  offset="3.041890e-02" style="stop-color:#241D1E"/>
				<stop  offset="0.3394" style="stop-color:#241D1E"/>
				<stop  offset="0.358" style="stop-color:#292223"/>
				<stop  offset="0.496" style="stop-color:#494647"/>
				<stop  offset="0.5697" style="stop-color:#555454"/>
				<stop  offset="0.8061" style="stop-color:#241D1E"/>
			</linearGradient>
			<path class="st22" d="M123,30.1c-3.8,2.6-10.2,5.5-15.1,7.3c-4.8,1.8-7.7,2.6-10.5,3.6c-8.1,3-13.2,6.1-19.1,13.5
				c-4,5-4.7,7.7-5.7,10c0,1.3,0.1,7.9,0.1,7.9s0.4,0.1,0.8-0.4c0.1-0.3,0-2.4,0-3.9c0-1.3,0.1-1.6,0.8-3c0.5-0.9,1.2-2.2,1.6-2.7
				c3.4-5.3,9.8-9.3,16-12.3c5.5-2.6,13.7-4.3,19.3-6.2c3.8-1.2,7.3-3,7.3-3s1.5-2.2,2.4-4.7C121.5,34,123,30,123,30.1z"/>
			
				<linearGradient id="SVGID_12_" gradientUnits="userSpaceOnUse" x1="-1035.6965" y1="60.2761" x2="-984.2582" y2="60.2761" gradientTransform="matrix(-1 0 0 -1 -963.2852 102)">
				<stop  offset="0" style="stop-color:#241D1E"/>
				<stop  offset="4.257243e-02" style="stop-color:#423F42"/>
				<stop  offset="8.780635e-02" style="stop-color:#5B5C61"/>
				<stop  offset="0.132" style="stop-color:#6D7177"/>
				<stop  offset="0.1741" style="stop-color:#787E84"/>
				<stop  offset="0.2121" style="stop-color:#7C8289"/>
				<stop  offset="0.3041" style="stop-color:#9EA2A8"/>
				<stop  offset="0.4178" style="stop-color:#C1C4C7"/>
				<stop  offset="0.5335" style="stop-color:#DCDEE0"/>
				<stop  offset="0.6502" style="stop-color:#F0F0F1"/>
				<stop  offset="0.7685" style="stop-color:#FBFBFC"/>
				<stop  offset="0.8909" style="stop-color:#FFFFFF"/>
				<stop  offset="1" style="stop-color:#AFAFB0"/>
			</linearGradient>
			<path class="st23" d="M71.1,54.5c0.5,0.9,1.1,0.9,1.2,0.9c0,1.5,0,9,0,9.2c0,0-0.1-0.5-2-3.9C62.8,47.1,55.5,44.6,48.6,42
				c-3-1.1-8.3-3.1-13.2-5c-4.8-1.9-10.4-5-14.3-7.4c-0.3-0.1,0-0.9-0.1-2.3c-0.1-1.5-0.1-3.1-0.1-4.4c0.1-2.3,0.5-4,0.5-4
				s2.6,3.6,8.3,7.4c3.5,2.3,7.8,4.6,12.1,6.3c5.1,2.2,10.4,4.4,14.7,7s6.5,4.6,8.8,7.3C68.3,49.9,70,52.6,71.1,54.5z"/>
			<path class="st24" d="M60.9,42.3c3.5,3.6,5,5.4,7.4,10c1.6,3.2,2,3.4,4,11.4l-0.5-7.9c0,0-2.8-4.4-4.7-6.7
				C65.3,46.8,62.9,44,60.9,42.3z"/>
			<path class="st10" d="M72.6,72.8c-0.9,0-1.2-0.5-2.2-2.6c-0.4-0.9-0.9-2.3-1.9-4c-3.6-7.1-10-13.1-17.4-16
				c-2-0.8-4.8-1.6-7.8-2.6c-5.8-1.8-12.3-3.6-17.2-6.6l0.1-0.3c4.8,3,11.4,4.8,17.1,6.6c3,0.9,5.8,1.8,7.8,2.6
				c7.5,3,13.9,8.9,17.5,16.2c0.8,1.8,1.5,3.1,1.9,4c0.9,2,1.1,2.4,1.9,2.4c1.1,0,1.3-1.1,2.2-3.2c0.3-0.8,0.7-1.9,1.2-3.1
				c2.6-6.2,7.4-11.2,14.5-14.9c5.8-3.1,11.3-4.6,13.9-5.3l0.4-0.1c8.1-2.2,10.1-3.2,13.5-5.3l0.1,0.3c-3.4,1.9-5.4,3.1-13.5,5.3
				l-0.4,0.1C89.6,50.1,80,56.8,76.1,66.4c-0.5,1.2-0.8,2.3-1.2,3.1C74.2,71.8,73.8,72.8,72.6,72.8z"/>
			<path class="st11" d="M72.6,72.6c-0.9,0-1.2-0.5-2-2.6c-0.4-0.9-1.1-2.3-1.9-4c-3.6-7.3-10-13.1-17.4-16c-2-0.8-4.7-1.6-7.7-2.4
				c-5.8-1.6-12.4-3.5-17.4-6.7l-0.1-0.1c5,3.1,11.6,5,17.4,6.7c3,0.8,5.7,1.6,7.7,2.4c7.5,3,13.9,8.9,17.5,16.2
				c0.9,1.8,1.5,3.1,1.9,4c0.8,1.9,1.1,2.4,1.9,2.4c1.1,0,1.5-1.1,2.2-3.2c0.3-0.9,0.7-2,1.2-3.2c2.4-6.1,7.4-11.2,14.4-14.9
				c5.7-3.1,11.2-4.4,13.9-5.1l0.4-0.1c8.2-2.2,10.5-3.4,13.7-5.3l0.1,0.1c-3.2,1.9-5.7,3.1-13.7,5.3l-0.4,0.1
				C89.4,49.8,80,56.5,76.1,66c-0.5,1.2-0.9,2.4-1.2,3.2C74.1,71.5,73.7,72.6,72.6,72.6z"/>
			<path class="st0" d="M72.3,64.7c-0.1,0-0.3-0.1-0.4-0.3c0,0-1.8-4-5.1-8.9c-2.2-3.1-4.4-5.1-6.5-7l-0.1-0.1
				c-1.9-1.8-4.2-3.5-10.9-6.1c-1.1-0.4-2.6-0.9-4.2-1.5c-3.5-1.3-7.9-3-10.2-3.9c-1.3-0.5-2.3-1.1-3.1-1.3
				c-3.5-1.5-4.2-1.8-10.4-5.7c-0.1-0.1-0.3-0.4-0.1-0.5c0.1-0.1,0.4-0.3,0.5-0.1c6.2,3.9,6.7,4.2,10.2,5.7c0.8,0.4,1.9,0.8,3.1,1.3
				c2.2,0.9,6.6,2.6,10.2,3.9c1.6,0.5,3.1,1.1,4.2,1.5c6.9,2.6,9.3,4.4,11.2,6.2l0.1,0.1c2,1.9,4.3,3.9,6.6,7.1
				c2.6,3.6,4.2,6.7,4.8,8.1c0.7-1.5,2.2-4.6,5-8.3c2.4-3.2,5.1-6.2,8.1-8.5c3.2-2.6,7.1-4,10.8-5.5c2.3-0.9,4.2-1.5,5.9-2.2
				c3.2-1.1,6.1-2.2,10.4-4c7-3.2,10.2-5.4,10.2-5.5c0.1-0.1,0.4-0.1,0.5,0.1c0.1,0.1,0.1,0.4-0.1,0.5c-0.1,0.1-3.2,2.3-10.4,5.5
				c-4.3,2-7.1,3-10.5,4.2c-1.8,0.7-3.6,1.2-5.9,2.2c-3.6,1.3-7.4,3-10.5,5.4c-2.8,2.2-5.5,5.1-7.9,8.2c-3.8,5.1-5.3,9-5.3,9
				C72.7,64.6,72.6,64.7,72.3,64.7L72.3,64.7z"/>
			<path class="st11" d="M72.3,55.7c-0.4,0-0.8-0.4-1.2-1.2c-3-5.3-7.4-10.2-12.1-13.7c-2.8-2-10-5.1-16.2-7.9
				c-1.9-0.8-3.6-1.6-5.3-2.3c-3.8-1.8-6.9-3.8-6.9-3.8l0.1-0.3c0,0,3,2,6.9,3.8c1.6,0.7,3.4,1.5,5.3,2.3c6.2,2.7,13.3,5.9,16.2,7.9
				c4.7,3.4,9.2,8.5,12.1,13.7c0.4,0.8,0.8,1.1,0.9,1.1c0.1,0,0.5-0.3,0.9-1.1c3-5.8,8.3-11.2,12.3-14c3.8-2.7,10.2-5.3,15.9-7.5
				c2.7-1.1,5.1-2,7-3c3.1-1.5,5.5-3.1,5.5-3.1l0.1,0.3c0,0-2.6,1.8-5.5,3.1c-1.8,1.2-4.2,2.2-6.9,3.2c-5.7,2.3-12.1,4.8-15.9,7.4
				c-3.9,2.7-9.2,8.1-12.1,13.9C73.1,55.3,72.6,55.7,72.3,55.7z"/>
			<path class="st10" d="M72.3,55.5c-0.4,0-0.8-0.4-1.2-1.2C68.2,49,63.7,44,59,40.5c-2.8-2-10-5.1-16.2-7.9
				c-1.9-0.8-3.6-1.6-5.3-2.3c-3.8-1.8-6.5-3.5-6.5-3.5l0.1-0.3c0,0,2.7,1.8,6.5,3.5c1.6,0.7,3.4,1.5,5.3,2.3
				c6.2,2.7,13.3,5.9,16.2,7.9c4.7,3.4,9.2,8.5,12.1,13.7c0.4,0.8,0.8,1.1,0.9,1.1c0.1,0,0.5-0.3,0.9-1.1c3-5.8,8.3-11.2,12.3-14
				c3.8-2.6,10.2-5.3,15.9-7.5c2.7-1.1,5.1-2,7-3c3.1-1.5,5-2.8,5.1-2.8l0.3,0.5c0,0-2,1.3-5.1,2.8c-1.9,0.8-4.4,1.9-7,3
				c-5.7,2.3-12.1,4.8-15.9,7.4c-3.9,2.7-9.2,8.1-12.1,13.9C73.1,55.1,72.6,55.5,72.3,55.5z"/>
			<polygon class="st0" points="72.5,63.1 72.3,55.9 72.6,55.9 			"/>
			<g>
				<path class="st0" d="M29.4,18.7c4-4.3,9.2-7.5,15.1-9.7c7.4-2.7,16.8-4,28-4c19.5,0,33.5,4.6,43,14c0,0,0.1,0.1,0.3,0.1
					c0.1-0.1,0.5-0.5,0.7-0.5c-0.1-0.1-0.3-0.3-0.3-0.3C106.5,8.9,92.3,4.2,72.5,4.2c-11.3,0-20.9,1.3-28.3,4
					c-6.2,2.3-11.4,5.7-15.6,10.1c0,0-0.1,0,0,0.1c0,0,0.1,0.1,0.3,0.1c0.1,0.1,0.3,0.3,0.4,0.3C29.2,18.8,29.4,18.7,29.4,18.7z"/>
				<path class="st25" d="M115.6,19.4L115.6,19.4c-0.1-0.1-0.3-0.1-0.3-0.3l0,0C106,9.7,92,5.1,72.5,5.1c-11.2,0-20.6,1.3-28,4
					c-5.9,2.2-11,5.4-15.1,9.7C29.2,19,29.2,19,29.1,19l0,0l0,0c-0.1,0-0.1-0.1-0.3-0.1c0,0-0.1,0-0.1-0.1c0,0-0.1,0-0.1-0.1
					c-0.1,0-0.1-0.1-0.1-0.1l0,0v-0.1c0-0.1,0.1-0.1,0.1-0.1c4.2-4.4,9.6-7.9,15.6-10.1c7.4-2.7,17-4,28.3-4
					c19.8,0,34.1,4.7,43.6,14.4l0,0c0,0,0.1,0.1,0.3,0.3l0.1,0.3h-0.3c0,0-0.1,0.1-0.3,0.3C116,19.1,115.8,19.2,115.6,19.4
					L115.6,19.4z M72.5,4.8c19.5,0,33.7,4.6,43.1,14.1l0,0c0,0,0,0,0.1,0.1c0,0,0.1-0.1,0.3-0.1c0.1-0.1,0.1-0.1,0.3-0.1
					c0,0,0,0-0.1-0.1l0,0C106.4,9,92.3,4.3,72.5,4.3c-11.3,0-20.7,1.3-28.3,4c-6.1,2.2-11.3,5.5-15.5,10l0,0c0,0,0.1,0,0.1,0.1
					l0.1,0.1l0.1,0.1l0,0l0,0c4.2-4.3,9.3-7.5,15.2-9.7C51.7,6.2,61.2,4.8,72.5,4.8z"/>
			</g>
			<path class="st0" d="M122.6,29.5c-0.7,0.4-3.9,2.6-10.1,5.4c-4.3,2-7.1,3-10.4,4c-1.8,0.7-3.6,1.2-5.9,2.2
				c-3.6,1.3-7.5,3-10.8,5.5c-3,2.3-5.7,5.1-8.1,8.5c-2.8,3.8-4.3,6.9-5,8.3c-0.7-1.5-2.3-4.6-4.8-8.1c-2.3-3.2-4.6-5.3-6.6-7.1
				l-0.1-0.1c-2-1.8-4.3-3.6-11.2-6.2c-1.1-0.4-2.6-0.9-4.2-1.5c-3.5-1.3-7.9-2.8-10.2-3.9c-1.3-0.5-2.3-1.1-3.1-1.3
				c-3.4-1.5-4-1.8-10-5.5c-0.7-0.4-0.9-0.1-1.1,0.4c-2.6,5.9-3.9,12.8-3.9,20.3c0,14.9,4.3,26.4,12.7,34.2
				c6.3,5.8,14.7,9.4,24.9,10.8c6.6,0.8,12.3,1.3,17.6,1.3l0,0c5,0,9.8-0.4,15.2-1.1c18.2-2.4,39.9-12.3,39.9-45.2
				c0-7.8-1.2-14.5-3.8-20.3C123.5,29.2,123,29.2,122.6,29.5z M87.6,94.4c-5.4,0.7-10.1,1.1-15.1,1.1l0,0c-5.4,0-11-0.4-17.5-1.2
				c-16.8-2.3-37-11.7-37-44.2c0-7.4,1.3-14.1,3.8-19.9c5.9,3.8,6.6,4,10.1,5.5c0.8,0.4,1.9,0.8,3.1,1.3c2.3,0.9,6.7,2.6,10.2,3.9
				c1.6,0.5,3.1,1.1,4.2,1.5c6.7,2.6,9,4.3,10.9,6.1l0.1,0.1c2,1.8,4.3,3.9,6.5,7c3.4,4.8,5.1,8.9,5.1,8.9c0,0.1,0.3,0.3,0.4,0.3
				l0,0c0.1,0,0.3-0.1,0.4-0.3c0,0,1.5-3.9,5.3-9c2.3-3.2,5.1-6.1,7.9-8.2c3.2-2.4,7-4,10.5-5.4c2.3-0.8,4.2-1.5,5.9-2.2
				c3.2-1.1,6.1-2.2,10.5-4.2c6.1-2.8,9.3-4.8,10.1-5.4c2.4,5.7,3.6,12.3,3.6,19.9C126.6,82.4,105.3,92.1,87.6,94.4z"/>
			
				<linearGradient id="SVGID_13_" gradientUnits="userSpaceOnUse" x1="17.8011" y1="39.2699" x2="126.7342" y2="39.2699" gradientTransform="matrix(1 0 0 -1 0 102)">
				<stop  offset="0" style="stop-color:#5C5B5B"/>
				<stop  offset="0.1046" style="stop-color:#757474"/>
				<stop  offset="0.327" style="stop-color:#B4B3B3"/>
				<stop  offset="0.5697" style="stop-color:#FFFFFF"/>
				<stop  offset="0.7096" style="stop-color:#FDFDFD;stop-opacity:0.6749"/>
				<stop  offset="0.7703" style="stop-color:#F6F6F6;stop-opacity:0.5337"/>
				<stop  offset="0.8158" style="stop-color:#EAE9E9;stop-opacity:0.4282"/>
				<stop  offset="0.8536" style="stop-color:#D9D7D7;stop-opacity:0.3403"/>
				<stop  offset="0.8866" style="stop-color:#C2C0C0;stop-opacity:0.2634"/>
				<stop  offset="0.9164" style="stop-color:#A6A3A4;stop-opacity:0.1943"/>
				<stop  offset="0.9437" style="stop-color:#858182;stop-opacity:0.1309"/>
				<stop  offset="0.969" style="stop-color:#5F5A5A;stop-opacity:7.206398e-02"/>
				<stop  offset="0.9919" style="stop-color:#352E2F;stop-opacity:1.886868e-02"/>
				<stop  offset="1" style="stop-color:#241D1E;stop-opacity:0"/>
			</linearGradient>
			<path class="st26" d="M72.5,95.6L72.5,95.6c-5.4,0-11-0.4-17.6-1.2c-16.8-2.3-37-11.7-37-44.3c0-7.3,1.3-14,3.8-19.9V30l0.1,0.1
				c5.9,3.8,6.6,4,10,5.5c0.8,0.4,1.9,0.8,3.1,1.3c2.2,0.9,6.6,2.6,10.2,3.9c1.6,0.5,3.1,1.1,4.2,1.5c6.7,2.6,9,4.3,10.9,6.1
				l0.1,0.1c2,1.8,4.3,3.9,6.5,7c3.5,4.8,5.1,8.9,5.1,8.9c0,0.1,0.1,0.1,0.3,0.1c0.1,0,0.3-0.1,0.3-0.1s1.5-3.9,5.3-9
				c2.3-3.2,5.1-6.1,7.9-8.3c3.2-2.4,7-4,10.6-5.4c2.3-0.8,4.2-1.5,5.9-2.2c3.2-1.1,6.1-2.2,10.4-4.2c6.1-2.8,9.3-4.8,10.1-5.4
				l0.1-0.1V30c2.4,5.7,3.6,12.3,3.6,19.9c0,32.5-21.3,42.1-39.2,44.4C82.2,95.3,77.5,95.6,72.5,95.6z M21.8,30.4
				c-2.4,5.8-3.8,12.5-3.8,19.7c0,32.3,20.1,41.7,36.8,43.9c6.6,0.8,12.1,1.2,17.5,1.2l0,0c5,0,9.7-0.3,15.1-1.1
				c17.8-2.4,39.1-12,39.1-44.2c0-7.7-1.2-14-3.6-19.7c-1.1,0.7-4.2,2.6-10,5.3c-4.3,2-7.1,3-10.5,4.2c-1.8,0.7-3.6,1.2-5.9,2.2
				c-3.6,1.3-7.4,3-10.5,5.4c-2.8,2.2-5.5,5-7.9,8.2c-3.8,5.1-5.1,9-5.3,9c-0.1,0.3-0.3,0.4-0.5,0.4l0,0c-0.3,0-0.4-0.1-0.5-0.4
				c0,0-1.6-3.9-5.1-8.9c-2.2-3.1-4.4-5.1-6.5-7l-0.1-0.1c-1.9-1.8-4.2-3.5-10.9-5.9c-1.1-0.4-2.6-0.9-4.2-1.5
				c-3.6-1.3-7.9-3-10.2-3.9c-1.3-0.5-2.3-1.1-3.1-1.3C28.4,34.5,27.6,34,21.8,30.4z"/>
			<path class="st27" d="M118.5,40.5L118.5,40.5L118.5,40.5c0-0.1,1.5-3,2.2-4.6c0.7-1.6,2.2-5.5,2.2-5.7c0,0,0,0,0.1,0
				c0,0,0,0,0,0.1c0,0-1.5,4-2.2,5.7C120.1,37.5,118.7,40.5,118.5,40.5L118.5,40.5z"/>
			
				<linearGradient id="SVGID_14_" gradientUnits="userSpaceOnUse" x1="21.2425" y1="72.4978" x2="21.2425" y2="83.1765" gradientTransform="matrix(1 0 0 -1 0 102)">
				<stop  offset="0" style="stop-color:#F6F8F8"/>
				<stop  offset="0.9385" style="stop-color:#F6F8F8"/>
				<stop  offset="1" style="stop-color:#F6F8F8"/>
			</linearGradient>
			<path class="st28" d="M21.4,19.1c0.1-0.5,0.3-0.4,0.1,0c-0.3,1.3-0.4,3.8-0.3,6.3c0,1.8,0.4,3.8,0.4,3.8c-0.3,0-0.5,0-0.7,0.4
				C20.8,26.6,20.5,23.1,21.4,19.1z"/>
			<path class="st29" d="M123.4,19.6C123.2,19.1,123.1,19.1,123.4,19.6c0.1,1.2,0.3,3.6,0.3,6.2c0,1.8-0.3,3.6-0.3,3.6
				s0.4,0.3,0.5,0.7C124.3,25.6,123.9,22.2,123.4,19.6z"/>
			
				<linearGradient id="SVGID_15_" gradientUnits="userSpaceOnUse" x1="353.2219" y1="80.1378" x2="364.0809" y2="80.1378" gradientTransform="matrix(1 0 0 -1 -241.0625 102)">
				<stop  offset="0" style="stop-color:#241D1E"/>
				<stop  offset="0.2295" style="stop-color:#292323"/>
				<stop  offset="0.5238" style="stop-color:#373333"/>
				<stop  offset="0.8518" style="stop-color:#4F4D4D"/>
				<stop  offset="1" style="stop-color:#5C5B5B"/>
			</linearGradient>
			<path class="st30" d="M118.8,23.3l-4.8,3.8l-1.8-2.8c1.2-1.6,3.1-4.6,3.2-4.8c0.3-0.3,0.8-0.7,1.2-0.9c0.4-0.1,2.6-1.1,4.2-1.8
				l2.2,2.4L118.8,23.3z"/>
			
				<linearGradient id="SVGID_16_" gradientUnits="userSpaceOnUse" x1="-397.8632" y1="80.5417" x2="-387.0066" y2="80.5417" gradientTransform="matrix(-1 0 0 -1 -365.25 102)">
				<stop  offset="0" style="stop-color:#241D1E"/>
				<stop  offset="0.2295" style="stop-color:#292323"/>
				<stop  offset="0.5238" style="stop-color:#373333"/>
				<stop  offset="0.8518" style="stop-color:#4F4D4D"/>
				<stop  offset="1" style="stop-color:#5C5B5B"/>
			</linearGradient>
			<path class="st31" d="M26,22.9l4.8,3.8l1.8-2.8c-1.2-1.6-3.1-4.6-3.2-4.8c-0.3-0.3-0.8-0.7-1.2-0.9c-0.4-0.1-2.6-1.1-4.2-1.8
				l-2.2,2.4L26,22.9z"/>
			
				<linearGradient id="SVGID_17_" gradientUnits="userSpaceOnUse" x1="2.4722" y1="80.2724" x2="13.6098" y2="80.2724" gradientTransform="matrix(1 0 0 -1 19.125 102)">
				<stop  offset="0" style="stop-color:#AFAFB0"/>
				<stop  offset="0.1146" style="stop-color:#9A9A9B"/>
				<stop  offset="0.3893" style="stop-color:#6D6D6D"/>
				<stop  offset="0.5273" style="stop-color:#5C5B5B"/>
			</linearGradient>
			<path class="st32" d="M32.7,23.9c0,0-0.7,1.1-1.1,1.5c-0.3,0.5-0.9,1.5-0.9,1.5s-2.8-2-5.3-4c-2.2-1.9-3.1-3.1-3.9-4
				c0.4-0.5,2.2-2.3,2.2-2.3s-0.1,0.1,0.3,0.5c1.2,1.3,5.9,5.4,7.8,6.6C32.3,24.1,32.7,23.9,32.7,23.9z"/>
			<path class="st0" d="M120.8,16.7c-0.8,0.3-3.5,1.3-4.2,1.6c-0.3,0.1-0.7,0.1-0.9-0.1c-9.6-9.4-23.7-14-43.2-14
				c-11.3,0-20.9,1.3-28.3,4c-5.9,2.2-11,5.4-15.1,9.6C29,17.9,28.7,18,28.4,18c-0.4-0.3-3.6-1.3-4.6-1.6l0,0
				c0.8,0.3,3.8,1.8,4.3,1.9c0.4,0.1,0.9,0.5,1.2,0.8c0.1,0.3,3.5,4.7,3.5,4.7l0,0c0,0-2.4-3.5-3.1-4.6c-0.3-0.4-0.3-0.7,0-0.9
				c4-4,8.9-7.3,14.8-9.3c7.4-2.7,16.8-4,28-4c19.3,0,33.3,4.4,42.6,13.7c0.3,0.3,0.3,0.5,0.1,0.8c-0.4,0.5-2.3,3.8-3.1,4.7l0,0
				c0.8-1.1,3.2-4.7,3.4-4.8c0.3-0.3,0.8-0.7,1.2-0.8C116.9,18.6,120.1,17.2,120.8,16.7L120.8,16.7z"/>
			
				<linearGradient id="SVGID_18_" gradientUnits="userSpaceOnUse" x1="-748.6174" y1="79.9358" x2="-737.5756" y2="79.9358" gradientTransform="matrix(-1 0 0 -1 -625.4375 102)">
				<stop  offset="0" style="stop-color:#9A9A9A"/>
				<stop  offset="0.1291" style="stop-color:#888787"/>
				<stop  offset="0.3856" style="stop-color:#686767"/>
				<stop  offset="0.5273" style="stop-color:#5C5B5B"/>
			</linearGradient>
			<path class="st33" d="M112.2,24.4l1.9,3c0,0,2.8-1.9,5.3-3.9c2.2-1.9,2.2-2,3.9-4l-2.2-2.6c0,0,0.1,0.4-0.4,0.9
				c-1.2,1.3-5.7,5.3-7.5,6.5C112.5,24.5,112.2,24.4,112.2,24.4z"/>
			<path class="st27" d="M26.3,40.6C26.1,40.6,26.1,40.6,26.3,40.6c-0.1,0-1.6-3-2.3-4.4c-0.7-1.6-2.2-5.7-2.2-5.7v-0.1H22
				c0,0,1.5,4,2.2,5.7C24.7,37.7,26.3,40.5,26.3,40.6C26.3,40.5,26.3,40.6,26.3,40.6L26.3,40.6z"/>
		</g>
	</g>
</g>
</svg>
