<?xml version="1.0" encoding="utf-8"?>
<!-- Generator: Adobe Illustrator 24.0.2, SVG Export Plug-In . SVG Version: 6.00 Build 0)  -->
<svg version="1.1" id="Layer_1" xmlns="http://www.w3.org/2000/svg" xmlns:xlink="http://www.w3.org/1999/xlink" x="0px" y="0px"
	 viewBox="0 0 144 101" style="enable-background:new 0 0 144 101;" xml:space="preserve">
<style type="text/css">
	.st0{fill:url(#SVGID_1_);}
	.st1{fill:none;}
	.st2{fill:url(#SVGID_2_);}
	.st3{fill:url(#SVGID_3_);}
	.st4{fill:url(#SVGID_4_);}
	.st5{fill:url(#SVGID_5_);}
	.st6{fill:#AAACAF;}
	.st7{fill:url(#SVGID_6_);}
	.st8{fill:url(#SVGID_7_);}
	.st9{fill:#FFFFFF;}
	.st10{fill:url(#SVGID_8_);}
	.st11{fill:url(#SVGID_9_);}
	.st12{fill:url(#SVGID_10_);}
	.st13{fill:url(#SVGID_11_);}
	.st14{fill:url(#SVGID_12_);}
	.st15{fill:url(#SVGID_13_);}
	.st16{fill:url(#SVGID_14_);}
	.st17{fill:url(#SVGID_15_);}
	.st18{fill-rule:evenodd;clip-rule:evenodd;fill:#AAACAF;}
	.st19{fill:url(#SVGID_16_);}
	.st20{fill:url(#SVGID_17_);}
	.st21{fill:url(#SVGID_18_);}
	.st22{fill:url(#SVGID_19_);}
	.st23{fill:url(#SVGID_20_);}
	.st24{fill:url(#SVGID_21_);}
	.st25{fill:url(#SVGID_22_);}
	.st26{fill:url(#SVGID_23_);}
	.st27{fill:url(#SVGID_24_);}
	.st28{fill:url(#SVGID_25_);}
	.st29{fill:url(#SVGID_26_);}
	.st30{fill:url(#SVGID_27_);}
	.st31{fill:url(#SVGID_28_);}
	.st32{fill:url(#SVGID_29_);}
	.st33{fill:url(#SVGID_30_);}
	.st34{fill:url(#SVGID_31_);}
	.st35{fill:url(#SVGID_32_);}
	.st36{fill:url(#SVGID_33_);}
	.st37{fill:url(#SVGID_34_);}
	.st38{fill:url(#SVGID_35_);}
</style>
<g>
	<linearGradient id="SVGID_1_" gradientUnits="userSpaceOnUse" x1="72" y1="89.8961" x2="72" y2="11.1039">
		<stop  offset="0" style="stop-color:#666666"/>
		<stop  offset="0.5" style="stop-color:#8C8C8C"/>
		<stop  offset="1" style="stop-color:#E6E6E6"/>
	</linearGradient>
	<path class="st0" d="M8.6,89.9c-0.3-2.5-0.4-5-0.4-7.6c0-35.3,28.6-63.8,63.8-63.8c35.3,0,63.8,28.6,63.8,63.8
		c0,2.6-0.2,5.1-0.4,7.6h7.4c0.3-2.5,0.4-5,0.4-7.6c0-39.3-31.9-71.2-71.2-71.2C32.7,11.1,0.8,43,0.8,82.3c0,2.6,0.1,5.1,0.4,7.6
		H8.6L8.6,89.9L8.6,89.9z"/>
	<path class="st1" d="M2.3,88.6c-0.2-2.1-0.3-4.2-0.3-6.3c0-38.6,31.3-69.9,69.9-69.9c38.6,0,69.9,31.3,69.9,69.9
		c0,2.1-0.1,4.2-0.3,6.3h-4.9c0.2-2.1,0.3-4.2,0.3-6.3c0-36-29.1-65.1-65.1-65.1S6.9,46.4,6.9,82.3c0,2.1,0.1,4.2,0.3,6.3H2.3
		L2.3,88.6L2.3,88.6z"/>
	<linearGradient id="SVGID_2_" gradientUnits="userSpaceOnUse" x1="137.1087" y1="53.2724" x2="6.8914" y2="53.2724">
		<stop  offset="0" style="stop-color:#000000"/>
		<stop  offset="0.35" style="stop-color:#000000"/>
		<stop  offset="0.6" style="stop-color:#EDEDED"/>
		<stop  offset="1" style="stop-color:#EDEDED"/>
	</linearGradient>
	<path class="st2" d="M8,89.3c-0.2-2.3-0.4-4.6-0.4-7c0-35.6,28.8-64.4,64.4-64.4c35.6,0,64.4,28.8,64.4,64.4c0,2.4-0.1,4.7-0.4,7
		l0.8-0.7c0.2-2.1,0.3-4.2,0.3-6.3c0-36-29.1-65.1-65.1-65.1S6.9,46.4,6.9,82.3c0,2.1,0.1,4.2,0.3,6.3L8,89.3L8,89.3L8,89.3z"/>
	<linearGradient id="SVGID_3_" gradientUnits="userSpaceOnUse" x1="4.8356" y1="89.3309" x2="4.8356" y2="88.6199">
		<stop  offset="0" style="stop-color:#000000"/>
		<stop  offset="1" style="stop-color:#666666"/>
	</linearGradient>
	<polygon class="st3" points="1.7,89.3 2.3,88.6 7.2,88.6 8,89.3 1.7,89.3 1.7,89.3 	"/>
	<linearGradient id="SVGID_4_" gradientUnits="userSpaceOnUse" x1="1.3475" y1="50.5" x2="142.6525" y2="50.5">
		<stop  offset="0" style="stop-color:#000000"/>
		<stop  offset="0.15" style="stop-color:#000000"/>
		<stop  offset="0.5" style="stop-color:#EDEDED"/>
		<stop  offset="1" style="stop-color:#EDEDED"/>
	</linearGradient>
	<path class="st4" d="M142.3,89.3c0.2-2.3,0.3-4.6,0.3-7c0-39-31.6-70.7-70.7-70.7S1.3,43.3,1.3,82.3c0,2.4,0.1,4.7,0.3,7l0.6-0.7
		c-0.2-2.1-0.3-4.2-0.3-6.3c0-38.6,31.3-69.9,69.9-69.9c38.6,0,69.9,31.3,69.9,69.9c0,2.1-0.1,4.2-0.3,6.3L142.3,89.3L142.3,89.3
		L142.3,89.3z"/>
	<linearGradient id="SVGID_5_" gradientUnits="userSpaceOnUse" x1="139.1691" y1="89.3309" x2="139.1691" y2="88.6199">
		<stop  offset="0" style="stop-color:#000000"/>
		<stop  offset="1" style="stop-color:#808080"/>
	</linearGradient>
	<polygon class="st5" points="136,89.3 136.8,88.6 141.7,88.6 142.3,89.3 136,89.3 136,89.3 	"/>
	<polygon class="st6" points="32,75.6 39.4,68.2 49.9,68.2 49.9,89.9 38.7,89.9 38.7,81.3 32,88 25.3,81.3 25.3,89.9 14.1,89.9 
		14.1,68.2 24.6,68.2 32,75.6 32,75.6 	"/>
	<linearGradient id="SVGID_6_" gradientUnits="userSpaceOnUse" x1="18.9216" y1="92.1395" x2="45.0773" y2="65.9839">
		<stop  offset="0" style="stop-color:#666666"/>
		<stop  offset="1" style="stop-color:#E6E6E6"/>
	</linearGradient>
	<polygon class="st7" points="32,77.4 24.1,69.5 15.4,69.5 15.4,88.6 24,88.6 24,78.2 32,86.2 40,78.2 40,88.6 48.6,88.6 48.6,69.5 
		39.9,69.5 32,77.4 32,77.4 	"/>
	<linearGradient id="SVGID_7_" gradientUnits="userSpaceOnUse" x1="44.2951" y1="89.3252" x2="44.2951" y2="88.6143">
		<stop  offset="0" style="stop-color:#000000"/>
		<stop  offset="1" style="stop-color:#4D4D4D"/>
	</linearGradient>
	<polygon class="st8" points="39.3,89.3 40,88.6 48.6,88.6 49.3,89.3 39.3,89.3 39.3,89.3 	"/>
	<polygon class="st9" points="14.7,68.8 15.4,69.5 24.1,69.5 24.4,68.8 14.7,68.8 14.7,68.8 	"/>
	<linearGradient id="SVGID_8_" gradientUnits="userSpaceOnUse" x1="24.0747" y1="73.1164" x2="31.9995" y2="73.1164">
		<stop  offset="0" style="stop-color:#EDEDED"/>
		<stop  offset="1" style="stop-color:#CCCCCC"/>
	</linearGradient>
	<polygon class="st10" points="24.4,68.8 24.1,69.5 32,77.4 32,76.4 24.4,68.8 24.4,68.8 	"/>
	<linearGradient id="SVGID_9_" gradientUnits="userSpaceOnUse" x1="36.0665" y1="73.3678" x2="35.5638" y2="72.8651">
		<stop  offset="0" style="stop-color:#4D4D4D"/>
		<stop  offset="1" style="stop-color:#000000"/>
	</linearGradient>
	<polygon class="st11" points="32,76.4 32,77.4 39.9,69.5 39.6,68.8 32,76.4 32,76.4 	"/>
	<polygon class="st9" points="49.3,68.8 48.6,69.5 39.9,69.5 39.6,68.8 49.3,68.8 49.3,68.8 	"/>
	<linearGradient id="SVGID_10_" gradientUnits="userSpaceOnUse" x1="48.958" y1="68.7981" x2="48.958" y2="89.3252">
		<stop  offset="0" style="stop-color:#EDEDED"/>
		<stop  offset="1" style="stop-color:#D9D9D9"/>
	</linearGradient>
	<polygon class="st12" points="49.3,68.8 48.6,69.5 48.6,88.6 49.3,89.3 49.3,68.8 49.3,68.8 	"/>
	<polygon points="39.3,89.3 40,88.6 40,78.2 39.3,79.9 39.3,89.3 39.3,89.3 	"/>
	<linearGradient id="SVGID_11_" gradientUnits="userSpaceOnUse" x1="36.2449" y1="82.9526" x2="35.7422" y2="82.4499">
		<stop  offset="0" style="stop-color:#000000"/>
		<stop  offset="1" style="stop-color:#4D4D4D"/>
	</linearGradient>
	<polygon class="st13" points="32,87.2 32,86.2 40,78.2 39.3,79.9 32,87.2 32,87.2 	"/>
	<linearGradient id="SVGID_12_" gradientUnits="userSpaceOnUse" x1="27.754" y1="82.9526" x2="28.2567" y2="82.4499">
		<stop  offset="0" style="stop-color:#000000"/>
		<stop  offset="1" style="stop-color:#4D4D4D"/>
	</linearGradient>
	<polygon class="st14" points="32,87.2 32,86.2 24,78.2 24.7,79.9 32,87.2 32,87.2 	"/>
	<linearGradient id="SVGID_13_" gradientUnits="userSpaceOnUse" x1="24.3673" y1="78.2044" x2="24.3673" y2="89.3252">
		<stop  offset="0" style="stop-color:#000000"/>
		<stop  offset="1" style="stop-color:#EDEDED"/>
	</linearGradient>
	<polygon class="st15" points="24.7,89.3 24,88.6 24,78.2 24.7,79.9 24.7,89.3 24.7,89.3 	"/>
	<linearGradient id="SVGID_14_" gradientUnits="userSpaceOnUse" x1="19.7043" y1="89.3252" x2="19.7043" y2="88.6143">
		<stop  offset="0" style="stop-color:#000000"/>
		<stop  offset="1" style="stop-color:#4D4D4D"/>
	</linearGradient>
	<polygon class="st16" points="24.7,89.3 24,88.6 15.4,88.6 14.7,89.3 24.7,89.3 24.7,89.3 	"/>
	<linearGradient id="SVGID_15_" gradientUnits="userSpaceOnUse" x1="14.6854" y1="79.0617" x2="15.3964" y2="79.0617">
		<stop  offset="0" style="stop-color:#000000"/>
		<stop  offset="1" style="stop-color:#4D4D4D"/>
	</linearGradient>
	<polygon class="st17" points="14.7,68.8 15.4,69.5 15.4,88.6 14.7,89.3 14.7,68.8 14.7,68.8 	"/>
	<g>
		<path class="st18" d="M78,68.2l14.1,21.7H80.5L79,87.5H65.1l-1.6,2.4H52l14.1-21.7H78L78,68.2L78,68.2z M75.3,81.7L72,76.7
			l-3.3,5.1H75.3L75.3,81.7L75.3,81.7z"/>
		<linearGradient id="SVGID_16_" gradientUnits="userSpaceOnUse" x1="72.0237" y1="88.6199" x2="72.0237" y2="69.4873">
			<stop  offset="0" style="stop-color:#BFBFBF"/>
			<stop  offset="1" style="stop-color:#E6E6E6"/>
		</linearGradient>
		<path class="st19" d="M66.8,69.5L54.3,88.6h8.5l1.6-2.4h15.3l1.6,2.4h8.5L77.3,69.5H66.8L66.8,69.5L66.8,69.5z M72,74.3l5.6,8.7
			H66.4L72,74.3L72,74.3L72,74.3z"/>
		<linearGradient id="SVGID_17_" gradientUnits="userSpaceOnUse" x1="72.0237" y1="78.6584" x2="66.4117" y2="78.6584">
			<stop  offset="0" style="stop-color:#000000"/>
			<stop  offset="1" style="stop-color:#EDEDED"/>
		</linearGradient>
		<polygon class="st20" points="72,74.3 72,75.6 67.7,82.3 66.4,83 72,74.3 72,74.3 		"/>
		<linearGradient id="SVGID_18_" gradientUnits="userSpaceOnUse" x1="59.6944" y1="79.0471" x2="60.3102" y2="79.447">
			<stop  offset="0" style="stop-color:#000000"/>
			<stop  offset="1" style="stop-color:#4D4D4D"/>
		</linearGradient>
		<polygon class="st21" points="66.4,68.8 66.8,69.5 54.3,88.6 53,89.3 66.4,68.8 66.4,68.8 		"/>
		<linearGradient id="SVGID_19_" gradientUnits="userSpaceOnUse" x1="66.4117" y1="82.6397" x2="77.6357" y2="82.6397">
			<stop  offset="0" style="stop-color:#EDEDED"/>
			<stop  offset="1" style="stop-color:#D9D9D9"/>
		</linearGradient>
		<polygon class="st22" points="77.6,83 76.3,82.3 67.7,82.3 66.4,83 77.6,83 77.6,83 		"/>
		<linearGradient id="SVGID_20_" gradientUnits="userSpaceOnUse" x1="72.0237" y1="78.6584" x2="77.6357" y2="78.6584">
			<stop  offset="0" style="stop-color:#000000"/>
			<stop  offset="1" style="stop-color:#4D4D4D"/>
		</linearGradient>
		<polygon class="st23" points="77.6,83 76.3,82.3 72,75.6 72,74.3 77.6,83 77.6,83 		"/>
		<linearGradient id="SVGID_21_" gradientUnits="userSpaceOnUse" x1="58.1064" y1="89.3309" x2="58.1064" y2="88.6199">
			<stop  offset="0" style="stop-color:#000000"/>
			<stop  offset="1" style="stop-color:#4D4D4D"/>
		</linearGradient>
		<polygon class="st24" points="63.2,89.3 62.8,88.6 54.3,88.6 53,89.3 63.2,89.3 63.2,89.3 		"/>
		<linearGradient id="SVGID_22_" gradientUnits="userSpaceOnUse" x1="63.4878" y1="87.5666" x2="64.089" y2="87.9569">
			<stop  offset="0" style="stop-color:#4D4D4D"/>
			<stop  offset="1" style="stop-color:#000000"/>
		</linearGradient>
		<polygon class="st25" points="63.2,89.3 62.8,88.6 64.4,86.2 64.8,86.9 63.2,89.3 63.2,89.3 		"/>
		<linearGradient id="SVGID_23_" gradientUnits="userSpaceOnUse" x1="72.0237" y1="86.9046" x2="72.0237" y2="86.1926">
			<stop  offset="0" style="stop-color:#000000"/>
			<stop  offset="1" style="stop-color:#4D4D4D"/>
		</linearGradient>
		<polygon class="st26" points="79.3,86.9 79.7,86.2 64.4,86.2 64.8,86.9 79.3,86.9 79.3,86.9 		"/>
		<linearGradient id="SVGID_24_" gradientUnits="userSpaceOnUse" x1="79.9576" y1="87.9572" x2="80.5594" y2="87.5663">
			<stop  offset="0" style="stop-color:#000000"/>
			<stop  offset="1" style="stop-color:#4D4D4D"/>
		</linearGradient>
		<polygon class="st27" points="79.3,86.9 79.7,86.2 81.2,88.6 80.8,89.3 79.3,86.9 79.3,86.9 		"/>
		<linearGradient id="SVGID_25_" gradientUnits="userSpaceOnUse" x1="85.94" y1="89.3309" x2="85.94" y2="88.6199">
			<stop  offset="0" style="stop-color:#000000"/>
			<stop  offset="1" style="stop-color:#4D4D4D"/>
		</linearGradient>
		<polygon class="st28" points="91,89.3 89.7,88.6 81.2,88.6 80.8,89.3 91,89.3 91,89.3 		"/>
		<linearGradient id="SVGID_26_" gradientUnits="userSpaceOnUse" x1="77.2684" y1="79.0536" x2="91.0304" y2="79.0536">
			<stop  offset="0" style="stop-color:#EDEDED"/>
			<stop  offset="1" style="stop-color:#D9D9D9"/>
		</linearGradient>
		<polygon class="st29" points="91,89.3 89.7,88.6 77.3,69.5 77.7,68.8 91,89.3 91,89.3 		"/>
		<polygon class="st9" points="66.4,68.8 66.8,69.5 77.3,69.5 77.7,68.8 66.4,68.8 66.4,68.8 		"/>
	</g>
	<g>
		<polygon class="st6" points="118.5,68.2 129.7,68.2 129.7,89.9 118.5,89.9 105.3,80.1 105.3,89.9 94.1,89.9 94.1,68.2 105.2,68.2 
			118.5,78.1 118.5,68.2 118.5,68.2 		"/>
		<linearGradient id="SVGID_27_" gradientUnits="userSpaceOnUse" x1="128.401" y1="79.0617" x2="95.3672" y2="79.0617">
			<stop  offset="0" style="stop-color:#666666"/>
			<stop  offset="1" style="stop-color:#E6E6E6"/>
		</linearGradient>
		<polygon class="st30" points="119.8,69.5 119.8,80.7 104.8,69.5 95.4,69.5 95.4,88.6 104,88.6 104,77.6 118.9,88.6 128.4,88.6 
			128.4,69.5 119.8,69.5 119.8,69.5 		"/>
		<linearGradient id="SVGID_28_" gradientUnits="userSpaceOnUse" x1="94.6562" y1="79.0617" x2="95.3672" y2="79.0617">
			<stop  offset="0" style="stop-color:#000000"/>
			<stop  offset="1" style="stop-color:#4D4D4D"/>
		</linearGradient>
		<polygon class="st31" points="94.7,68.8 95.4,69.5 95.4,88.6 94.7,89.3 94.7,68.8 94.7,68.8 		"/>
		<polygon class="st9" points="94.7,68.8 95.4,69.5 104.8,69.5 105,68.8 94.7,68.8 94.7,68.8 		"/>
		<linearGradient id="SVGID_29_" gradientUnits="userSpaceOnUse" x1="104.7536" y1="74.7306" x2="119.7861" y2="74.7306">
			<stop  offset="0" style="stop-color:#EDEDED"/>
			<stop  offset="1" style="stop-color:#BFBFBF"/>
		</linearGradient>
		<polygon class="st32" points="119.1,79.2 119.8,80.7 104.8,69.5 105,68.8 119.1,79.2 119.1,79.2 		"/>
		<linearGradient id="SVGID_30_" gradientUnits="userSpaceOnUse" x1="119.0752" y1="74.7306" x2="119.7861" y2="74.7306">
			<stop  offset="0" style="stop-color:#000000"/>
			<stop  offset="1" style="stop-color:#4D4D4D"/>
		</linearGradient>
		<polygon class="st33" points="119.1,79.2 119.8,80.7 119.8,69.5 119.1,68.8 119.1,79.2 119.1,79.2 		"/>
		<polygon class="st9" points="129.1,68.8 128.4,69.5 119.8,69.5 119.1,68.8 129.1,68.8 129.1,68.8 		"/>
		<linearGradient id="SVGID_31_" gradientUnits="userSpaceOnUse" x1="128.401" y1="79.0617" x2="129.112" y2="79.0617">
			<stop  offset="0" style="stop-color:#EDEDED"/>
			<stop  offset="1" style="stop-color:#D9D9D9"/>
		</linearGradient>
		<polygon class="st34" points="129.1,68.8 128.4,69.5 128.4,88.6 129.1,89.3 129.1,68.8 129.1,68.8 		"/>
		<linearGradient id="SVGID_32_" gradientUnits="userSpaceOnUse" x1="123.9024" y1="89.3252" x2="123.9024" y2="88.6143">
			<stop  offset="0" style="stop-color:#000000"/>
			<stop  offset="1" style="stop-color:#4D4D4D"/>
		</linearGradient>
		<polygon class="st35" points="118.7,89.3 118.9,88.6 128.4,88.6 129.1,89.3 118.7,89.3 118.7,89.3 		"/>
		<linearGradient id="SVGID_33_" gradientUnits="userSpaceOnUse" x1="111.125" y1="83.7254" x2="111.5507" y2="83.1501">
			<stop  offset="0" style="stop-color:#000000"/>
			<stop  offset="1" style="stop-color:#4D4D4D"/>
		</linearGradient>
		<polygon class="st36" points="118.7,89.3 118.9,88.6 104,77.6 104.7,79 118.7,89.3 118.7,89.3 		"/>
		<linearGradient id="SVGID_34_" gradientUnits="userSpaceOnUse" x1="104.338" y1="77.5503" x2="104.338" y2="89.3252">
			<stop  offset="0" style="stop-color:#000000"/>
			<stop  offset="1" style="stop-color:#EDEDED"/>
		</linearGradient>
		<polygon class="st37" points="104.7,89.3 104,88.6 104,77.6 104.7,79 104.7,89.3 104.7,89.3 		"/>
		<linearGradient id="SVGID_35_" gradientUnits="userSpaceOnUse" x1="99.6746" y1="89.3252" x2="99.6746" y2="88.6143">
			<stop  offset="0" style="stop-color:#000000"/>
			<stop  offset="1" style="stop-color:#4D4D4D"/>
		</linearGradient>
		<polygon class="st38" points="104.7,89.3 104,88.6 95.4,88.6 94.7,89.3 104.7,89.3 104.7,89.3 		"/>
	</g>
</g>
</svg>
