<?xml version="1.0" encoding="utf-8"?>
<!-- Generator: Adobe Illustrator 24.0.2, SVG Export Plug-In . SVG Version: 6.00 Build 0)  -->
<svg version="1.1" id="Layer_1" xmlns="http://www.w3.org/2000/svg" xmlns:xlink="http://www.w3.org/1999/xlink" x="0px" y="0px"
	 viewBox="0 0 144 101" style="enable-background:new 0 0 144 101;" xml:space="preserve">
<style type="text/css">
	.st0{fill-rule:evenodd;clip-rule:evenodd;fill:#231F20;}
</style>
<polygon class="st0" points="73,50.2 75.2,49 102.6,67.8 73,50.2 73,50.2 "/>
<polygon class="st0" points="71.4,49.2 69.4,48.1 71.7,12.2 71.4,49.2 71.4,49.2 "/>
<polygon class="st0" points="69,49.1 59.9,56.6 70.8,50.2 69,49.1 69,49.1 "/>
<path class="st0" d="M72,1.5c-27,0-49,21.9-49,49c0,27,21.9,49,49,49c27,0,49-21.9,49-49C121,23.5,99,1.5,72,1.5L72,1.5L72,1.5
	L72,1.5z M72,96.9c-11.2,0-21.7-3.7-29.5-10.6C35,79.6,29.1,69,27.6,57.8c3.5,21.4,22,37.8,44.4,37.8c24.8,0,45-20.1,45-45
	c0-10.3-3.9-20.4-9.7-28c5.9,4.6,11,17.5,11,28C118.3,76.1,97.6,96.9,72,96.9L72,96.9L72,96.9L72,96.9z M67.8,47l4-40.6l0,0
	c0.1,0,0.2,0,0.3,0c0,0,0.1,0,0.1,0l0,0l0.4,42.7l6.8-4.1L72.4,6.4l0,0c24.1,0.2,43.6,19.9,43.6,44.1c0,7.8-2,15.1-5.5,21.4l0,0
	L79.9,46.3L77,48l33.3,24.3l0,0c-0.1,0.1-0.2,0.3-0.3,0.4l0,0L72.6,51.2v7.6l37.2,14.4l0,0C102.1,86,88.1,94.6,72,94.6
	c-16,0-30.1-8.6-37.8-21.4l0,0l37.2-14.5v-7.6L33.9,72.6l0,0c-0.1-0.1-0.2-0.3-0.2-0.4l0,0L66.8,48l-2.9-1.6L33.4,71.8l0,0
	c-3.5-6.3-5.5-13.6-5.5-21.3C27.9,26.5,47.1,7,71,6.4l0,0l-6,38.9L67.8,47L67.8,47L67.8,47z M72,4.2c-25.6,0-46.3,20.7-46.3,46.3
	c0,10.4,3.8,20.2,9.5,28.7c1.9,3.6,4.1,5.9,6.9,8.9c-11-8.8-18.2-22.4-18.2-37.6C23.9,23.9,45.4,2.4,72,2.4
	c26.6,0,48.5,22.5,47.7,48.1C119,25.5,97.2,4.2,72,4.2L72,4.2L72,4.2L72,4.2z"/>
</svg>
