<?xml version="1.0" encoding="utf-8"?>
<!-- Generator: Adobe Illustrator 24.0.2, SVG Export Plug-In . SVG Version: 6.00 Build 0)  -->
<svg version="1.1" id="Layer_1" xmlns="http://www.w3.org/2000/svg" xmlns:xlink="http://www.w3.org/1999/xlink" x="0px" y="0px"
	 viewBox="0 0 144 101" style="enable-background:new 0 0 144 101;" xml:space="preserve">
<style type="text/css">
	.st0{fill-rule:evenodd;clip-rule:evenodd;fill:#231F20;}
	.st1{fill-rule:evenodd;clip-rule:evenodd;fill:#FFFFFF;}
</style>
<g>
	<path class="st0" d="M65.6,56.1H46.9c-0.7,0-1-0.4-1-1.1V44c0-0.7,0.3-1.1,1-1.1h18.6c0.7,0,1,0.4,1,1.1v11
		C66.6,55.7,66.3,56.1,65.6,56.1L65.6,56.1z"/>
	<path class="st0" d="M109.7,56.1l-1.3,4.7c-0.1,0.4-0.4,0.6-0.8,0.6H1.6c-0.5,0-0.9-0.3-0.9-0.9v-1.5C0.7,58.5,1,58,1.6,58h66.8
		h32.7c0.4,0,0.6-0.2,0.7-0.5l0.5-1.4H91.8c-0.5,0-0.9-0.4-0.9-0.9V43.8c0-0.5,0.4-0.8,0.9-0.8h6c0.5,0,0.9,0.3,0.9,0.8v9.1
		c0,0.3,0.1,0.6,0.5,0.6h4.1l4.3-11.8c0.2-0.5,0.5-0.7,1-0.7h8.6c0.4,0,0.8,0.3,0.9,0.7l5.7,15.8c0.2,0.5,0.4,0.5,0.9,0.5h17.9
		c0.7,0,1,0.4,1,1.1v1.5c0,0.5-0.3,0.9-0.8,0.9h-24.7c-0.6,0-0.8-0.4-0.9-0.9l-1.2-4.5H109.7L109.7,56.1z"/>
	<path class="st0" d="M8.4,51.5V55c0,0.6-0.3,1.1-0.9,1.1H1.6c-0.6,0-0.9-0.5-0.9-1.1v-11C0.7,43.5,1,43,1.6,43h7.9
		c0.2,0,0.5,0,0.7,0.2l0.2,0.2l3.2,3.7v-3.3c0-0.5,0.2-0.8,0.8-0.8h6c0.5,0,1,0.2,1,0.8v11.5c0,0.7-0.5,0.9-1.1,0.9h-7.3
		c-0.6,0-0.8-0.5-1.1-0.9L8.4,51.5L8.4,51.5z"/>
	<path class="st0" d="M43.3,56.1H24.1c-0.6,0-0.8-0.6-0.8-1.1V43.8c0-0.5,0.3-0.8,0.8-0.8h19.2c0.5,0,0.8,0.3,0.8,0.8v0.8
		c0,0.5-0.3,1-0.8,1H31.4c-0.4,0-0.5,0.4-0.5,0.7v1.5c0,0.4,0.1,0.5,0.5,0.5h11.7c0.6,0,1,0.3,1,1V50c0,0.6-0.4,1-1,1H31.4
		c-0.4,0-0.5,0.2-0.5,0.6v1.3c0,0.4,0.1,0.6,0.5,0.6h11.9c0.6,0,0.8,0.3,0.8,0.9v0.9C44.1,55.8,43.9,56.1,43.3,56.1L43.3,56.1z"/>
	<path class="st0" d="M76.1,51v4.3c0,0.6-0.3,0.9-0.8,0.9h-6.1c-0.5,0-0.7-0.4-0.7-0.9V43.8c0-0.5,0.4-0.8,0.9-0.8h19.2
		c0.4,0,0.6,0.1,0.6,0.5v6.7c0,0.4-0.2,0.8-0.6,0.8H76.1L76.1,51z"/>
	<path class="st0" d="M130.9,51.5V55c0,0.6-0.3,1.1-0.9,1.1h-5.9c-0.7,0-0.9-0.5-0.9-1.1v-11c0-0.6,0.3-1.1,0.9-1.1h7.8
		c0.2,0,0.5,0,0.7,0.2l0.2,0.2l3.2,3.7v-3.3c0-0.5,0.2-0.8,0.8-0.8h6c0.5,0,1,0.2,1,0.8v11.5c0,0.7-0.5,0.9-1.1,0.9h-7.3
		c-0.6,0-0.8-0.5-1.1-0.9L130.9,51.5L130.9,51.5z"/>
	<path class="st1" d="M76.1,45.6v2.7h4.8c0.3,0,0.5-0.2,0.5-0.5V46c0-0.3-0.2-0.5-0.5-0.5H76.1L76.1,45.6z"/>
	<path class="st1" d="M58.9,52.9v-6.7c0-0.4-0.2-0.7-0.6-0.7h-4c-0.4,0-0.6,0.2-0.6,0.7v6.7c0,0.4,0.2,0.6,0.6,0.6h4
		C58.7,53.5,58.9,53.3,58.9,52.9L58.9,52.9z"/>
	<path class="st1" d="M110.4,53.5h4.9l-1.5-5.4l-0.1-0.2c-0.1-0.3-0.2-0.5-0.5-0.5h-0.6c-0.5,0-0.6,0.3-0.7,0.7L110.4,53.5
		L110.4,53.5z"/>
</g>
</svg>
