<?xml version="1.0" encoding="utf-8"?>
<!-- Generator: Adobe Illustrator 24.0.2, SVG Export Plug-In . SVG Version: 6.00 Build 0)  -->
<svg version="1.1" id="Layer_1" xmlns="http://www.w3.org/2000/svg" xmlns:xlink="http://www.w3.org/1999/xlink" x="0px" y="0px"
	 viewBox="0 0 144 101" style="enable-background:new 0 0 144 101;" xml:space="preserve">
<style type="text/css">
	.st0{display:none;}
	.st1{fill-rule:evenodd;clip-rule:evenodd;fill:#231F20;}
	.st2{fill:#231F20;stroke:#939292;stroke-width:0.2189;stroke-miterlimit:22.9256;}
	.st3{fill:#FFFFFF;}
	.st4{fill:none;stroke:#231F20;stroke-width:0.1095;stroke-miterlimit:22.9256;}
	.st5{clip-path:url(#SVGID_15_);}
	.st6{clip-path:url(#SVGID_31_);}
</style>
<g id="Layer_1_1_" class="st0">
</g>
<g>
	<path class="st1" d="M12.5,24.8c0,0-0.9,10.8,0,22.9c1.7,25.6,6.1,38.2,11.5,42C35,97.7,55.7,96.7,72,96.7c0,1,0,1.2,0,1.7
		c0,0.4,0,0.8,0,1.2c-24.8-0.8-43.4,0-51.7-10c-5.1-6.1-8-26.2-8.6-42.2c-0.5-13.2,0.5-22.6,0.5-22.6s0,0,0.2,0
		C12.4,24.8,12.4,24.8,12.5,24.8L12.5,24.8z"/>
	<path class="st1" d="M24.6,13.8c-0.4,0.4-0.7,0.8-1.1,1.2c-4.7,6.3-4.2,15.7-4.2,23.1c-0.1,9.5,0.3,19.1,1.6,28.4
		c0.7,5.1,1.2,11.5,3.7,16.3l-2.4,0.9c0,0-6-11.7-6-45.4C16.2,14.2,24.6,13.8,24.6,13.8L24.6,13.8z"/>
	<g>
		<defs>
			<path id="SVGID_1_" d="M24.5,82.6c-0.2-0.5-1.2-3.5-1.7-5.5c-0.1-0.5-1-5.4-1.2-6.3c-0.6-2.6-1.3-7.1-1.7-12.2
				c-1-10.1-1.6-21.5-1.6-25.1c-0.1,0.5-0.2,6.1-0.3,6.8c0,0.5-0.1,3.5-0.1,4C18,58.7,21.1,81.1,24.5,82.6L24.5,82.6z"/>
		</defs>
		<use xlink:href="#SVGID_1_"  style="overflow:visible;fill-rule:evenodd;clip-rule:evenodd;fill:#231F20;"/>
		<clipPath id="SVGID_2_">
			<use xlink:href="#SVGID_1_"  style="overflow:visible;"/>
		</clipPath>
	</g>
	<path class="st1" d="M21.1,14.2c-4.3,6.1-4.8,13.8-4.8,26.1c0,6.6,0.9,28.1,4.4,39.4c0.1,0.5,1.3,2.6,1.7,2.2
		c0.4-0.4,0.1-1.2-0.1-1.8c-0.3-0.7-4.1-17.7-4.1-39.7c0-2-0.2-14.7,1.3-18.3c1.6-4.2,2.9-5.5,4.8-7.7c2.5-3.1,9.7-4.8,9.7-4.8
		s0.3-0.1,0.5,0c0.3,0.1,0.4,0.3,0.4,0.3s0.7-1.1,3-1.9c2.7-1,5.1-1.2,5.1-1.2l2.8,1.6c0,0,0.1-0.1,0.1-0.1
		C46.5,7.9,57.4,6.7,72,6.9V4.9C44.4,4.9,27,5.7,21.1,14.2L21.1,14.2z"/>
	<g>
		<defs>
			<path id="SVGID_3_" d="M18.1,35.8c0,0-0.2-5.9,0.2-10.3c0.1-1.5,0.4-2.8,0.7-3.7c0.9-2.2,1.8-3.9,2.7-5c0.5-0.6,0.9-1.1,1.3-1.5
				c0.8-0.8,1.3-1.1,1.3-1.1s-3.2,3.3-4.4,8.2c-0.1,0.3-0.1,0.6-0.2,0.9c-0.6,3.1-1.3,9.1-1.4,11.7C18.2,35.2,18.2,35.5,18.1,35.8
				C18.2,35.7,18.1,35.8,18.1,35.8L18.1,35.8z"/>
		</defs>
		<use xlink:href="#SVGID_3_"  style="overflow:visible;fill-rule:evenodd;clip-rule:evenodd;fill:#231F20;"/>
		<clipPath id="SVGID_4_">
			<use xlink:href="#SVGID_3_"  style="overflow:visible;"/>
		</clipPath>
	</g>
	<path class="st2" d="M72,95.7c-30,0-44.7,0.4-50.4-13.3c-4.2-10.1-5.4-34.9-5.4-42.1C16.2,8.7,20.6,4.9,72,4.9"/>
	<path class="st1" d="M131.5,24.8c0,0-1.4-13.8-12.1-17.4C105.1,2.5,88.3,3,72,3c0-1.5,0-1.6,0-1.7c5.2,0,36.1,0.1,48.5,5.2
		c11,4.6,11.3,18.2,11.3,18.2S131.8,24.8,131.5,24.8L131.5,24.8z"/>
	<path class="st1" d="M131.5,24.8c0,0,0.9,10.8,0,22.9c-1.7,25.6-6.1,38.2-11.5,42C109,97.7,88.3,96.7,72,96.7c0,1,0,1.2,0,1.7
		c0,0.4,0,0.8,0,1.2c24.8-0.8,43.4,0,51.7-10c5.1-6.1,8-26.2,8.6-42.2c0.5-13.2-0.5-22.6-0.5-22.6s0,0-0.1,0
		C131.6,24.8,131.6,24.8,131.5,24.8L131.5,24.8z"/>
	<path class="st1" d="M127.8,38.4c0,33.7-6,45.4-6,45.4l-2.4-0.9c2.5-4.8,3-11.2,3.7-16.3c1.3-9.4,1.7-19,1.6-28.4
		c-0.1-7.4,0.5-16.8-4.2-23.1c-0.3-0.4-0.7-0.8-1.1-1.2C119.4,13.8,127.8,14.2,127.8,38.4L127.8,38.4z"/>
	<path class="st1" d="M122.9,14.2c4.3,6.1,4.8,13.8,4.8,26.1c0,6.6-0.9,28.1-4.4,39.4c-0.1,0.5-1.3,2.6-1.7,2.2
		c-0.4-0.4-0.1-1.2,0.1-1.8c0.3-0.7,4.1-17.7,4.1-39.7c0-2,0.2-14.7-1.3-18.3c-1.6-4.2-2.9-5.5-4.8-7.7c-2.5-3.1-9.7-4.8-9.7-4.8
		s-0.3-0.1-0.5,0c-0.3,0.1-0.4,0.3-0.4,0.3s-0.7-1.1-3-1.9c-2.7-1-5.1-1.2-5.1-1.2l-2.8,1.6c0,0-0.1-0.1-0.1-0.1
		C97.5,7.9,86.6,6.7,72,6.9V4.9C99.6,4.9,117,5.7,122.9,14.2L122.9,14.2z"/>
	<g>
		<defs>
			<path id="SVGID_5_" d="M125.9,35.8c0,0,0.2-5.9-0.2-10.3c-0.1-1.5-0.4-2.8-0.7-3.7c-0.9-2.2-1.8-3.9-2.7-5
				c-0.5-0.6-0.9-1.1-1.3-1.5c-0.8-0.8-1.3-1.1-1.3-1.1s3.2,3.3,4.4,8.2c0.1,0.3,0.1,0.6,0.2,0.9c0.6,3.1,1.3,9.1,1.5,11.7
				C125.8,35.2,125.8,35.5,125.9,35.8C125.8,35.7,125.9,35.8,125.9,35.8L125.9,35.8z"/>
		</defs>
		<use xlink:href="#SVGID_5_"  style="overflow:visible;fill-rule:evenodd;clip-rule:evenodd;fill:#231F20;"/>
		<clipPath id="SVGID_6_">
			<use xlink:href="#SVGID_5_"  style="overflow:visible;"/>
		</clipPath>
	</g>
	<path class="st2" d="M72,95.7c30,0,44.7,0.4,50.4-13.3c4.2-10.1,5.4-34.9,5.4-42.1c0-31.6-4.3-35.3-55.8-35.3"/>
	<g>
		<g>
			<path class="st3" d="M72,4.9c-51.4,0-55.8,3.7-55.8,35.3c0,7.2,1.2,32,5.4,42.1C27.3,96.1,42,95.7,72,95.7
				c30,0,44.7,0.4,50.4-13.3c4.2-10.1,5.4-34.9,5.4-42.1C127.8,8.7,123.4,4.9,72,4.9z"/>
		</g>
		<g>
			<path class="st4" d="M72,4.9c-51.4,0-55.8,3.7-55.8,35.3c0,7.2,1.2,32,5.4,42.1C27.3,96.1,42,95.7,72,95.7
				c30,0,44.7,0.4,50.4-13.3c4.2-10.1,5.4-34.9,5.4-42.1C127.8,8.7,123.4,4.9,72,4.9z"/>
		</g>
	</g>
	<g>
		<defs>
			<path id="SVGID_7_" d="M123.2,15.7c-0.1-0.1-3.6-4.1-7.4-5.4c-1.3-0.4-5.4-1.5-6.6-1.2c-0.3,0.1-0.3,0.2-0.3,0.4
				c-1-0.8-1.6-1.1-1.9-1.3c-1.2-0.5-1.4-0.7-5.4-1.5c0.2,0,0.7,0,1,0.1c2.3,0.1,7.7,0.8,13.5,2.9c4.4,1.6,7.2,5.7,7.2,5.9
				C123.3,15.6,123.3,15.6,123.2,15.7C123.3,15.6,123.2,15.7,123.2,15.7L123.2,15.7z"/>
		</defs>
		<use xlink:href="#SVGID_7_"  style="overflow:visible;fill-rule:evenodd;clip-rule:evenodd;fill:#231F20;"/>
		<clipPath id="SVGID_8_">
			<use xlink:href="#SVGID_7_"  style="overflow:visible;"/>
		</clipPath>
	</g>
	<path class="st1" d="M123.1,66.5c-0.9,6.5-1.5,14.9-6.2,19.9c-1.6,1.8-14.3,9.1-13.7,3.5c2.3-17.8,3.6-35.6,4.7-53.4
		c0.3-7.5,0.8-15,0.9-22.5c0.1-1.3-0.7-4.4,1.3-4.5c3.8,1.1,7.9,2.2,10.4,5.5c4.7,6.3,4.2,15.7,4.2,23.1
		C124.8,47.6,124.4,57.2,123.1,66.5L123.1,66.5z M98.3,9.4c-2.6,9.4-5.6,21.8-8.2,31.2c-2.1,7.5-4.6,17.2-13.7,18.2
		c-1.4,0.1-2.8,0.3-4.3,0.3c-1.5,0-2.9-0.1-4.3-0.3c-9.2-1-11.6-10.7-13.8-18.2c-2.6-9.4-5.6-21.8-8.2-31.2
		c-0.4-1.6,0.2-1.2,3.6-1.7c6-0.8,14.9-0.9,22.7-0.9c7.8-0.1,16.7,0,22.7,0.9C98,8.1,98.7,7.7,98.3,9.4L98.3,9.4z M88.4,93.4
		c-0.7,0.1-3.2,0.1-6,0.2c-3.5,0.1-7,0.1-10.4,0.1c-3.5,0-7,0-10.4-0.1c-2.8-0.1-5.2-0.1-6-0.2c-0.7-0.1-1.5-0.2-1.3-1
		c0.2-0.8,3.6-11.6,3.6-11.6c2.2-7.2,2.3-7.6,8-8.7c1.9-0.4,4-0.6,6.2-0.6c2.2,0,4.3,0.3,6.2,0.6c5.6,1.1,5.8,1.6,8,8.7
		c0,0,3.3,10.8,3.6,11.6C89.9,93.3,89.2,93.3,88.4,93.4L88.4,93.4z M27.1,86.5c-4.7-5-5.3-13.5-6.2-19.9c-1.3-9.4-1.7-19-1.6-28.4
		c0.1-7.4-0.5-16.8,4.2-23.1c2.5-3.3,6.6-4.4,10.4-5.5c2,0.1,1.2,3.2,1.3,4.5c0.1,7.5,0.5,15,0.9,22.5c1.1,17.9,2.4,35.7,4.7,53.4
		C41.4,95.6,28.7,88.3,27.1,86.5L27.1,86.5z M132.4,30.1c-0.4-7-1.5-14.6-6.6-19.8c-4.7-4.7-11.6-6-17.9-6.9c-12-1.6-23.7-2-35.8-2
		c-12.1,0-23.9,0.4-35.8,2C29.8,4.2,23,5.5,18.3,10.3c-5.2,5.2-6.2,12.8-6.6,19.8c-0.5,8.1-0.1,16.2,0.4,24.3c0.5,8,1.4,16,3.3,23.8
		c0.9,3.6,2.1,7.2,4.2,10.3c2,3,4.9,5.1,8.1,6.6c6.9,3.1,14.8,3.4,22.3,3.9c7.3,0.5,14.6,0.7,22,0.8c7.3,0,14.7-0.3,22-0.8
		c7.4-0.5,15.4-0.7,22.3-3.9c3.2-1.5,6.1-3.6,8.1-6.6c2.1-3.1,3.3-6.7,4.2-10.3c1.9-7.8,2.8-15.8,3.3-23.8
		C132.4,46.3,132.9,38.2,132.4,30.1L132.4,30.1z"/>
	<g>
		<defs>
			<path id="SVGID_9_" d="M50.7,94.4c0-0.1,0,0,0-0.1c0.9-3.7,1.3-5.7,2.2-9c1-3.6,1.8-6,3.1-9.4c0.8-2.1,2.7-5,5.4-6
				c2.6-1,4.8-1.5,10.5-1.5c0,0.5,0,0.6,0,0.9c0,0.8,0,1.5,0,1.6c0,0.2,0-0.1,0,0.8c-4.6,0-7.3,0.3-9.6,1.7
				c-1.2,0.8-2.6,2.3-3.4,4.3c-1.3,3.1-1.9,5.3-2.8,8.2c-1,3.1-1.4,4.7-1.9,6.5c0,0.1-0.1,0.3-0.1,0.4c0,0.1,0,0.2,0.1,0.2
				c-1.1,0.5-1.4,0.6-1.6,0.7c-0.2,0.1-0.7,0.2-1.1,0.4C51.3,94.2,51.1,94.2,50.7,94.4L50.7,94.4z"/>
		</defs>
		<use xlink:href="#SVGID_9_"  style="overflow:visible;fill-rule:evenodd;clip-rule:evenodd;fill:#231F20;"/>
		<clipPath id="SVGID_10_">
			<use xlink:href="#SVGID_9_"  style="overflow:visible;"/>
		</clipPath>
	</g>
	<g>
		<defs>
			<path id="SVGID_11_" d="M42.7,6.9c1.4,7.2,5.1,23.8,5.8,27.2c0.7,3.4,4.7,18.4,7,22.1c1.2,2,2.5,3.4,4,4.4
				c3,1.9,6.8,2.3,12.5,2.3c0-0.7,0-1.3,0-2c0-0.6,0-1.2,0-2c-4.6,0-7.3-0.2-9.6-1.6c-1.2-0.8-2.2-1.8-3.2-3.5
				c-3.3-5-5.9-15.4-7.3-20.5C51,30,46.7,12.7,45.6,8.6c-0.8-0.5-1.2-0.6-1.5-0.9C43.9,7.5,43.6,7.4,42.7,6.9L42.7,6.9z"/>
		</defs>
		<use xlink:href="#SVGID_11_"  style="overflow:visible;fill-rule:evenodd;clip-rule:evenodd;fill:#231F20;"/>
		<clipPath id="SVGID_12_">
			<use xlink:href="#SVGID_11_"  style="overflow:visible;"/>
		</clipPath>
	</g>
	<path class="st1" d="M72,63c-13.7,0-17.3-2.5-22.7-25.6c-5.4-23.2-6.6-30.5-6.6-30.5S40.3,7.2,38,8c-2.4,0.9-3,2-3,2
		s-0.5,16.4,2.4,46.2c2.9,29.8,3.5,34.9,3.5,34.9s4.7,2.8,6.9,3.1c2,0.3,2.9,0.2,2.9,0.2s1.3-6.6,3.4-12.7c3-9.1,3.7-13.4,17.9-13.4
		V63L72,63z"/>
	<path class="st1" d="M72,68.3c-8.6,0-12.6,1.8-14.7,5.1c-1.3,2.1-2.2,4.9-3.3,8.4c-1.1,3.4-1.2,4.3-1.7,6c-0.5,1.7-1.6,6.5-1.6,6.5
		s-3.2,0-4.7-0.5c-2.7-0.9-3.8-1.3-5.4-2.2c0,0,0.3-0.3,0.3-0.7c-0.3-2.7-2.4-24.2-2.7-26.5c-0.4-4.4-0.2-1.5-0.8-8.3
		c-0.9-9.5-1.5-17.7-1.9-24.3C34.7,17.6,35,10,35,10s0.5-0.9,2.6-1.8c0.4-0.1,3.3-1.4,3.4-0.8c0.1,0.5,0.2,2,0.7,4.9
		c0.7,4.4,2.2,12,5.1,24.3c0.1,0.3,0.1,0.5,0.2,0.8c2.7,11.7,2.8,18.1,5.9,22.5c1.3,1.7,2.4,3,3.8,4C59.8,66,63.9,67.4,72,68.3
		L72,68.3z"/>
	<path class="st1" d="M12.5,24.8c0,0,1.4-13.8,12.1-17.4C38.9,2.5,55.7,3,72,3c0-1.5,0-1.6,0-1.7c-5.2,0-36.1,0.1-48.5,5.2
		c-11,4.6-11.3,18.2-11.3,18.2S12.2,24.8,12.5,24.8L12.5,24.8z"/>
	<g>
		<defs>
			<polyline id="SVGID_13_" points="51,93.1 51,95.2 72,95.2 72,93.1 51,93.1 			"/>
		</defs>
		<defs>
			<path id="SVGID_14_" d="M51,94.4c0.6-0.2,1.4-0.4,1.9-0.6c0.5-0.2,1-0.4,1.5-0.7c0.3,0.2,0.6,0.2,0.9,0.2
				c0.8,0.1,2.7,0.2,7.1,0.3c5.8,0.1,9.6,0.1,9.6,0.1c0,0.2,0,0.5,0,0.7c0,0.2,0,0.4,0,0.7c0,0-4.6,0.1-11-0.2
				c-4.5-0.2-5-0.2-6.2-0.3C54.3,94.7,51,94.4,51,94.4L51,94.4z"/>
		</defs>
		<use xlink:href="#SVGID_13_"  style="overflow:visible;fill:#231F20;"/>
		<use xlink:href="#SVGID_14_"  style="overflow:visible;fill-rule:evenodd;clip-rule:evenodd;fill:#231F20;"/>
		<clipPath id="SVGID_15_">
			<use xlink:href="#SVGID_13_"  style="overflow:visible;"/>
		</clipPath>
		<clipPath id="SVGID_16_" class="st5">
			<use xlink:href="#SVGID_14_"  style="overflow:visible;"/>
		</clipPath>
	</g>
	<g>
		<defs>
			<path id="SVGID_17_" d="M22.2,83.8c0.4,1.1,2.4,4.2,4.6,5.9c4.7,3.8,15,5.7,19.3,5.3c0.5,0,2.9,0,3.3-0.1c-1.6-0.2-4-0.8-6.6-2
				c-0.7-0.3-1.7-0.8-2.3-1.2c-0.1,0.1-0.4,0.2-0.7,0.3c-1.2,0.2-8.8-1.2-11.8-4.5c-0.9-1-2.5-2.5-3.4-4.6c-0.4,0.2-0.8,0.3-1.2,0.5
				C23,83.5,22.6,83.6,22.2,83.8L22.2,83.8z"/>
		</defs>
		<use xlink:href="#SVGID_17_"  style="overflow:visible;fill-rule:evenodd;clip-rule:evenodd;fill:#231F20;"/>
		<clipPath id="SVGID_18_">
			<use xlink:href="#SVGID_17_"  style="overflow:visible;"/>
		</clipPath>
	</g>
	<g>
		<defs>
			<path id="SVGID_19_" d="M45.6,8.5c0,0,0-0.3,0.2-0.3c0.3-0.1,0.8-0.2,1.9-0.3c1.4-0.2,3.9-0.4,8.1-0.6C65.2,6.9,71.7,6.9,72,6.9
				c0-0.5,0-0.4,0-0.5c0-0.1,0-0.3,0-0.6c0,0-9.8-0.2-16.8,0.1C48.7,6.2,44.6,6.4,43,6.6c-0.3,0-0.3,0.1-0.3,0.1
				c0.7,0.4,0.7,0.4,0.9,0.5C43.9,7.4,44.7,7.9,45.6,8.5L45.6,8.5z"/>
		</defs>
		<use xlink:href="#SVGID_19_"  style="overflow:visible;fill-rule:evenodd;clip-rule:evenodd;fill:#231F20;"/>
		<clipPath id="SVGID_20_">
			<use xlink:href="#SVGID_19_"  style="overflow:visible;"/>
		</clipPath>
	</g>
	<g>
		<defs>
			<path id="SVGID_21_" d="M20.8,15.7c0.1-0.1,3.6-4.1,7.4-5.4c1.3-0.4,5.4-1.5,6.6-1.2c0.3,0.1,0.3,0.2,0.3,0.4
				c1-0.8,1.6-1.1,1.9-1.3c1.2-0.5,1.4-0.7,5.4-1.5c-0.2,0-0.7,0-1,0.1C39,6.9,33.6,7.6,27.9,9.7c-4.4,1.6-7.2,5.7-7.2,5.9
				C20.7,15.6,20.7,15.6,20.8,15.7C20.7,15.6,20.7,15.7,20.8,15.7L20.8,15.7z"/>
		</defs>
		<use xlink:href="#SVGID_21_"  style="overflow:visible;fill-rule:evenodd;clip-rule:evenodd;fill:#231F20;"/>
		<clipPath id="SVGID_22_">
			<use xlink:href="#SVGID_21_"  style="overflow:visible;"/>
		</clipPath>
	</g>
	<g>
		<defs>
			<path id="SVGID_23_" d="M93.3,94.4c0-0.1,0,0,0-0.1c-0.9-3.7-1.3-5.7-2.2-9c-1-3.6-1.8-6-3.1-9.4c-0.8-2.1-2.7-5-5.4-6
				c-2.6-1-4.8-1.5-10.5-1.5c0,0.5,0,0.6,0,0.9c0,0.8,0,1.5,0,1.6c0,0.2,0-0.1,0,0.8c4.6,0,7.3,0.3,9.6,1.7c1.2,0.8,2.6,2.3,3.4,4.3
				c1.3,3.1,1.9,5.3,2.8,8.2c1,3.1,1.4,4.7,1.9,6.5c0,0.1,0.1,0.3,0.1,0.4c0,0.1,0,0.2-0.1,0.2c1.1,0.5,1.4,0.6,1.6,0.7
				c0.2,0.1,0.7,0.2,1.1,0.4C92.7,94.2,92.9,94.2,93.3,94.4L93.3,94.4z"/>
		</defs>
		<use xlink:href="#SVGID_23_"  style="overflow:visible;fill-rule:evenodd;clip-rule:evenodd;fill:#231F20;"/>
		<clipPath id="SVGID_24_">
			<use xlink:href="#SVGID_23_"  style="overflow:visible;"/>
		</clipPath>
	</g>
	<g>
		<defs>
			<path id="SVGID_25_" d="M101.3,6.9c-1.4,7.2-5.1,23.8-5.8,27.2c-0.7,3.4-4.7,18.4-7,22.1c-1.2,2-2.5,3.4-4,4.4
				c-2.9,1.9-6.8,2.3-12.5,2.3c0-0.7,0-1.3,0-2c0-0.6,0-1.2,0-2c4.6,0,7.3-0.2,9.6-1.6c1.2-0.8,2.2-1.8,3.2-3.5
				c3.3-5,5.9-15.4,7.3-20.5C93,30,97.4,12.7,98.4,8.6c0.8-0.5,1.2-0.6,1.5-0.9C100.1,7.5,100.4,7.4,101.3,6.9L101.3,6.9z"/>
		</defs>
		<use xlink:href="#SVGID_25_"  style="overflow:visible;fill-rule:evenodd;clip-rule:evenodd;fill:#231F20;"/>
		<clipPath id="SVGID_26_">
			<use xlink:href="#SVGID_25_"  style="overflow:visible;"/>
		</clipPath>
	</g>
	<path class="st1" d="M72,63c13.7,0,17.3-2.5,22.7-25.6c5.4-23.2,6.6-30.5,6.6-30.5s2.4,0.3,4.8,1.2c2.4,0.9,3,2,3,2
		s0.5,16.4-2.4,46.2c-2.9,29.8-3.5,34.9-3.5,34.9s-4.7,2.8-6.9,3.1c-2,0.3-2.9,0.2-2.9,0.2s-1.3-6.6-3.4-12.7
		c-3-9.1-3.7-13.4-17.9-13.4V63L72,63z"/>
	<g>
		<defs>
			<path id="SVGID_27_" d="M72,68.3c8.6,0,12.6,1.8,14.7,5.1c1.3,2.1,2.1,4.9,3.3,8.4c1.1,3.4,1.2,4.3,1.7,6
				c0.5,1.7,1.6,6.5,1.6,6.5s3.2,0,4.7-0.5c2.7-0.9,3.8-1.3,5.4-2.2c0,0-0.3-0.3-0.3-0.7c0.3-2.7,2.4-24.2,2.7-26.5
				c0.4-4.4,0.2-1.5,0.8-8.3c0.9-9.5,1.5-17.7,1.9-24.3C109.3,17.6,109,10,109,10s-0.5-0.9-2.6-1.8c-0.4-0.1-3.3-1.4-3.4-0.8
				c-0.1,0.5-0.2,2-0.7,4.9c-0.7,4.4-2.2,12-5.1,24.3c-0.1,0.3-0.1,0.5-0.2,0.8c-2.7,11.7-2.8,18.1-5.9,22.5c-1.3,1.7-2.4,3-3.8,4
				C84.2,66,80.1,67.4,72,68.3L72,68.3z"/>
		</defs>
		<use xlink:href="#SVGID_27_"  style="overflow:visible;fill-rule:evenodd;clip-rule:evenodd;fill:#231F20;"/>
		<clipPath id="SVGID_28_">
			<use xlink:href="#SVGID_27_"  style="overflow:visible;"/>
		</clipPath>
	</g>
	<g>
		<defs>
			<polyline id="SVGID_29_" points="72,93.1 72,95.2 93,95.2 93,93.1 72,93.1 			"/>
		</defs>
		<defs>
			<path id="SVGID_30_" d="M93,94.4c-0.6-0.2-1.4-0.4-1.9-0.6c-0.5-0.2-1-0.4-1.5-0.7c-0.3,0.2-0.6,0.2-0.9,0.2
				c-0.8,0.1-2.8,0.2-7.1,0.3c-5.8,0.1-9.6,0.1-9.6,0.1c0,0.2,0,0.5,0,0.7c0,0.2,0,0.4,0,0.7c0,0,4.6,0.1,11-0.2
				c4.5-0.2,5-0.2,6.2-0.3C89.7,94.7,93,94.4,93,94.4L93,94.4z"/>
		</defs>
		<use xlink:href="#SVGID_29_"  style="overflow:visible;fill:#231F20;"/>
		<use xlink:href="#SVGID_30_"  style="overflow:visible;fill-rule:evenodd;clip-rule:evenodd;fill:#231F20;"/>
		<clipPath id="SVGID_31_">
			<use xlink:href="#SVGID_29_"  style="overflow:visible;"/>
		</clipPath>
		<clipPath id="SVGID_32_" class="st6">
			<use xlink:href="#SVGID_30_"  style="overflow:visible;"/>
		</clipPath>
	</g>
	<path class="st1" d="M121.8,83.8c-0.4,1.1-2.4,4.2-4.6,5.9c-4.7,3.8-15,5.7-19.3,5.3c-0.5,0-2.9,0-3.3-0.1c1.6-0.2,4-0.8,6.6-2
		c0.7-0.3,1.7-0.8,2.3-1.2c0.1,0.1,0.4,0.2,0.7,0.3c1.2,0.2,8.8-1.2,11.8-4.5c0.9-1,2.5-2.5,3.4-4.6c0.4,0.2,0.8,0.3,1.2,0.5
		C121,83.5,121.4,83.6,121.8,83.8L121.8,83.8z"/>
	<path class="st1" d="M119.5,82.6c0.2-0.5,1.2-3.5,1.7-5.5c0.1-0.5,1-5.4,1.2-6.3c0.6-2.6,1.3-7.1,1.7-12.2
		c1-10.1,1.6-21.5,1.6-25.1c0.1,0.5,0.2,6.1,0.3,6.8c0,0.5,0.1,3.5,0.1,4C126,58.7,122.9,81.1,119.5,82.6L119.5,82.6z"/>
	<g>
		<defs>
			<path id="SVGID_33_" d="M98.4,8.5c0,0,0-0.3-0.2-0.3c-0.3-0.1-0.8-0.2-1.8-0.3c-1.4-0.2-3.9-0.4-8.1-0.6
				C78.8,6.9,72.3,6.9,72,6.9c0-0.5,0-0.4,0-0.5c0-0.1,0-0.3,0-0.6c0,0,9.8-0.2,16.8,0.1c6.5,0.3,10.6,0.5,12.2,0.7
				c0.3,0,0.3,0.1,0.3,0.1c-0.7,0.4-0.7,0.4-0.9,0.5C100.1,7.4,99.3,7.9,98.4,8.5L98.4,8.5z"/>
		</defs>
		<use xlink:href="#SVGID_33_"  style="overflow:visible;fill-rule:evenodd;clip-rule:evenodd;fill:#231F20;"/>
		<clipPath id="SVGID_34_">
			<use xlink:href="#SVGID_33_"  style="overflow:visible;"/>
		</clipPath>
	</g>
</g>
</svg>
