<?xml version="1.0" encoding="utf-8"?>
<!-- Generator: Adobe Illustrator 24.0.2, SVG Export Plug-In . SVG Version: 6.00 Build 0)  -->
<svg version="1.1" id="Layer_1" xmlns="http://www.w3.org/2000/svg" xmlns:xlink="http://www.w3.org/1999/xlink" x="0px" y="0px"
	 viewBox="0 0 144 101" style="enable-background:new 0 0 144 101;" xml:space="preserve">
<style type="text/css">
	.st0{display:none;}
	.st1{fill:url(#SVGID_1_);}
	.st2{fill:#231F20;}
	.st3{fill:url(#SVGID_2_);}
	.st4{fill:url(#SVGID_3_);}
	.st5{fill:url(#SVGID_4_);}
	.st6{fill:url(#SVGID_5_);}
	.st7{fill:url(#SVGID_6_);}
	.st8{fill:url(#SVGID_7_);}
	.st9{fill:url(#SVGID_8_);}
	.st10{fill:url(#SVGID_9_);}
	.st11{fill:#FFFFFF;}
	.st12{fill:#C5C7C9;}
	.st13{fill:#58595B;}
	.st14{fill:#808184;}
	.st15{fill:url(#SVGID_10_);}
	.st16{fill:url(#SVGID_11_);}
	.st17{fill:url(#SVGID_12_);}
	.st18{fill:url(#SVGID_13_);}
	.st19{fill:url(#SVGID_14_);}
	.st20{fill:url(#SVGID_15_);}
	.st21{fill:url(#SVGID_16_);}
</style>
<g id="Layer_1_1_" class="st0">
</g>
<g>
	<g>
		<g>
			
				<radialGradient id="SVGID_1_" cx="-3542.1829" cy="-3117.5969" r="440.1139" fx="-3559.926" fy="-3092.25" gradientTransform="matrix(0.1284 0 0 0.1284 511.0421 423.9646)" gradientUnits="userSpaceOnUse">
				<stop  offset="0" style="stop-color:#F9D4E4"/>
				<stop  offset="8.962145e-02" style="stop-color:#F9CFDF"/>
				<stop  offset="0.194" style="stop-color:#F8C2D1"/>
				<stop  offset="0.3058" style="stop-color:#F6ABBA"/>
				<stop  offset="0.4228" style="stop-color:#F48C99"/>
				<stop  offset="0.544" style="stop-color:#F1646F"/>
				<stop  offset="0.6667" style="stop-color:#EE333C"/>
				<stop  offset="0.7191" style="stop-color:#EC1C24"/>
				<stop  offset="1" style="stop-color:#CD181E"/>
			</radialGradient>
			<path class="st1" d="M22.9,50.5c0-27.1,22-49.2,49.1-49.2c27.1,0,49.1,22,49.1,49.2c0,27.1-22,49.1-49.1,49.1
				C44.9,99.6,22.9,77.6,22.9,50.5z"/>
		</g>
		<path class="st2" d="M72,98.7c26,0,47.2-21.1,47.2-47.2C119.2,25.5,98,4.4,72,4.4c-26,0-47.2,21.1-47.2,47.2
			C24.8,77.6,46,98.7,72,98.7z M112,74.7c-0.2,0.4-0.6,0.5-1,0.5l-6.6-1.5C97.4,84,85.5,90.9,72,90.9c-13.5,0-25.4-6.8-32.5-17.2
			L33,75.1c-0.4,0-0.8-0.1-1-0.5c-0.2-0.3-0.2-0.8,0.1-1.1l4.5-5c-2.5-5.2-3.9-11-3.9-17.1c0-20.7,16-37.7,36.4-39.2l2-6.4
			c0.1-0.4,0.5-0.6,0.9-0.6c0.4,0,0.7,0.2,0.9,0.6l2,6.4c20.3,1.5,36.4,18.5,36.4,39.2c0,6.1-1.4,11.9-3.9,17.1l4.5,5
			C112.2,73.9,112.2,74.3,112,74.7z"/>
		<path class="st2" d="M111.1,73.8l-9.9-10.6c-1.4,0.6-3,0.6-4.4-0.3c-1.4-0.8-2.2-2.2-2.4-3.7l0,0c-0.3-2.2-1.5-4.3-3.6-5.5l-4-2.3
			l17.8-10.3l-2-3.4L82.8,49.2l-3.4-2v-4l19.8-11.5l-2-3.4L79.4,38.7v-4.6c0-2.4-1.2-4.6-3-5.9l0,0c-1.2-0.9-2-2.3-2-3.9
			c0-1.6,0.8-3,2-3.9l0,0L72.2,6.5c0-0.1-0.1-0.2-0.2-0.2c-0.1,0-0.2,0.1-0.2,0.2l-4.2,13.8c1.2,0.9,2,2.3,2,3.9c0,1.6-0.8,3-2,3.9
			l0,0c-1.8,1.3-3,3.5-3,5.9v4.6L46.8,28.4l-2,3.4l19.8,11.4v4l-3.4,2L41.4,37.8l-2,3.4l17.9,10.3l-4,2.3l0,0
			c-2.1,1.2-3.4,3.3-3.6,5.5l0,0c-0.2,1.5-1,2.9-2.4,3.7c-1.4,0.8-3,0.8-4.4,0.3l0,0l-9.9,10.5c-0.1,0.1-0.2,0.2-0.1,0.3
			c0.1,0.1,0.2,0.2,0.3,0.1l14.1-3.3c0.2-1.5,1-2.9,2.4-3.7c1.4-0.8,3-0.8,4.4-0.3l0,0c2.1,0.9,4.5,0.8,6.6-0.4l4-2.3v20.6h3.9V62
			l3.4-2l3.4,2v22.9h3.9V64.3l4,2.3c2.1,1.2,4.5,1.3,6.6,0.4l0,0c1.4-0.6,3-0.5,4.4,0.3c1.4,0.8,2.2,2.2,2.4,3.7l0,0l14.1,3.3
			c0.1,0,0.3,0,0.3-0.1C111.2,74,111.2,73.8,111.1,73.8z M72,55.5l-3.4-2v-4l3.4-2l3.4,2v4L72,55.5z M68.6,34.1
			c0-1.9,1.5-3.4,3.4-3.4c1.9,0,3.4,1.5,3.4,3.4V41L72,43l-3.4-2V34.1z M58.7,63.2c-1.6,0.9-3.7,0.4-4.7-1.3
			c-0.9-1.6-0.4-3.8,1.3-4.7l6-3.4l3.4,2v4L58.7,63.2z M90,61.9c-1,1.6-3.1,2.2-4.7,1.3l-6-3.4v-4l3.4-2l6,3.4
			C90.4,58.2,91,60.3,90,61.9z M90.7,53.8C90.7,53.8,90.7,53.8,90.7,53.8L90.7,53.8L90.7,53.8z M83.4,66.6L83.4,66.6L83.4,66.6
			L83.4,66.6z M60.6,66.6C60.6,66.6,60.6,66.6,60.6,66.6L60.6,66.6L60.6,66.6z"/>
		
			<radialGradient id="SVGID_2_" cx="-4999.9399" cy="-2709.4302" r="1743.5907" gradientTransform="matrix(6.420000e-02 0 0 6.420000e-02 347.0132 180.1883)" gradientUnits="userSpaceOnUse">
			<stop  offset="0" style="stop-color:#E3EAED"/>
			<stop  offset="0.1822" style="stop-color:#EEF2F4"/>
			<stop  offset="0.3876" style="stop-color:#FFFFFF"/>
			<stop  offset="0.4578" style="stop-color:#FBFCFC"/>
			<stop  offset="0.5241" style="stop-color:#F0F1F4"/>
			<stop  offset="0.5889" style="stop-color:#DDE0E5"/>
			<stop  offset="0.6527" style="stop-color:#C2C8D1"/>
			<stop  offset="0.7153" style="stop-color:#A0A9B8"/>
			<stop  offset="0.7416" style="stop-color:#8F9AAB"/>
			<stop  offset="0.7775" style="stop-color:#A7B0BE"/>
			<stop  offset="0.8504" style="stop-color:#D1D7E0"/>
			<stop  offset="0.8876" style="stop-color:#E2E6ED"/>
			<stop  offset="0.9038" style="stop-color:#D9DEE6"/>
			<stop  offset="0.9303" style="stop-color:#C1C9D3"/>
			<stop  offset="0.9636" style="stop-color:#99A6B5"/>
			<stop  offset="1" style="stop-color:#667A8D"/>
		</radialGradient>
		<path class="st3" d="M72,97.7c26,0,47.2-21.1,47.2-47.2C119.2,24.4,98,3.3,72,3.3c-26,0-47.2,21.1-47.2,47.2
			C24.8,76.6,46,97.7,72,97.7z M112,73.6c-0.2,0.4-0.6,0.5-1,0.5l-6.6-1.5C97.4,83,85.5,89.8,72,89.8c-13.5,0-25.4-6.8-32.5-17.2
			L33,74.1c-0.4,0-0.8-0.1-1-0.5c-0.2-0.3-0.2-0.8,0.1-1.1l4.5-5c-2.5-5.2-3.9-11-3.9-17.1c0-20.7,16-37.7,36.4-39.2l2-6.4
			c0.1-0.4,0.5-0.6,0.9-0.6c0.4,0,0.7,0.2,0.9,0.6l2,6.4c20.3,1.5,36.4,18.5,36.4,39.2c0,6.1-1.4,11.9-3.9,17.1l4.5,5
			C112.2,72.8,112.2,73.3,112,73.6z"/>
		
			<linearGradient id="SVGID_3_" gradientUnits="userSpaceOnUse" x1="-3879.9209" y1="-3220.9795" x2="-3367.0193" y2="-2708.0776" gradientTransform="matrix(0.1284 0 0 0.1284 536.232 430.1306)">
			<stop  offset="0" style="stop-color:#FFFFFF"/>
			<stop  offset="1" style="stop-color:#58595B"/>
		</linearGradient>
		<path class="st4" d="M72,97.7c26,0,47.2-21.1,47.2-47.2C119.2,24.4,98,3.3,72,3.3c-26,0-47.2,21.1-47.2,47.2
			C24.8,76.6,46,97.7,72,97.7z M25.1,50.5c0-25.9,21-46.9,46.9-46.9c25.9,0,46.9,21.1,46.9,46.9c0,25.9-21,46.9-46.9,46.9
			C46.1,97.5,25.1,76.4,25.1,50.5z"/>
		
			<linearGradient id="SVGID_4_" gradientUnits="userSpaceOnUse" x1="-3416.4734" y1="-2728.0173" x2="-3804.6787" y2="-3116.2227" gradientTransform="matrix(0.1284 0 0 0.1284 536.232 430.1306)">
			<stop  offset="0" style="stop-color:#FFFFFF"/>
			<stop  offset="1" style="stop-color:#58595B"/>
		</linearGradient>
		<path class="st5" d="M112.1,72.4l-4.4-4.8c2.6-5.3,3.8-11.1,3.8-17c0-10.1-3.8-19.6-10.6-27C94.1,16.3,85,11.8,75.1,11.1l-2-6.3
			l0,0l0,0C72.9,4.3,72.5,4,72,4c-0.5,0-0.9,0.3-1.1,0.7c0,0-1.7,5.3-2,6.3c-9.9,0.8-19,5.2-25.8,12.5c-6.9,7.3-10.6,16.9-10.6,27
			c0,6,1.3,11.7,3.8,17l-4.4,4.8l0,0l0,0c-0.3,0.4-0.3,0.9-0.1,1.3c0.2,0.4,0.7,0.7,1.2,0.6c0,0,5.4-1.2,6.4-1.4
			C46.8,83.7,59,90.1,72,90.1c13,0,25.2-6.4,32.6-17.1l6.4,1.4l0,0h0c0.5,0.1,1-0.2,1.2-0.6C112.5,73.3,112.4,72.8,112.1,72.4z
			 M112,73.6c-0.2,0.4-0.6,0.5-1,0.5l-6.6-1.5C97.4,83,85.5,89.8,72,89.8c-13.5,0-25.4-6.8-32.5-17.2L33,74.1c-0.4,0-0.8-0.1-1-0.5
			c-0.2-0.3-0.2-0.8,0.1-1.1l4.5-5c-2.5-5.2-3.9-11-3.9-17.1c0-20.7,16-37.7,36.4-39.2l2-6.4c0.1-0.4,0.5-0.6,0.9-0.6
			c0.4,0,0.8,0.2,0.9,0.6l2,6.4c20.3,1.5,36.4,18.5,36.4,39.2c0,6.1-1.4,11.9-3.9,17.1l4.5,5C112.2,72.8,112.2,73.3,112,73.6z"/>
		
			<linearGradient id="SVGID_5_" gradientUnits="userSpaceOnUse" x1="-4700.6899" y1="-2779.0593" x2="-4700.6899" y2="-2829.303" gradientTransform="matrix(-0.1284 0 0 0.1284 -493.6749 430.1418)">
			<stop  offset="0" style="stop-color:#FFFFFF"/>
			<stop  offset="1" style="stop-color:#808184"/>
		</linearGradient>
		<path class="st6" d="M107.7,67.6l-0.3,0l4.5,4.9c0,0,0.3,0.4,0.3,0.7h0.3c0-0.5-0.4-1-0.4-1C111.8,72,107.7,67.6,107.7,67.6z"/>
		
			<linearGradient id="SVGID_6_" gradientUnits="userSpaceOnUse" x1="-4903.9229" y1="-1661.8778" x2="-4783.2368" y2="-1661.8778" gradientTransform="matrix(6.420000e-02 0 0 6.420000e-02 347.0132 180.1883)">
			<stop  offset="0" style="stop-color:#BBBDBF"/>
			<stop  offset="2.662474e-02" style="stop-color:#C3C5C7"/>
			<stop  offset="0.1154" style="stop-color:#D9DADB"/>
			<stop  offset="0.2196" style="stop-color:#EAEBEB"/>
			<stop  offset="0.3478" style="stop-color:#F6F6F7"/>
			<stop  offset="0.5258" style="stop-color:#FDFDFD"/>
			<stop  offset="1" style="stop-color:#FFFFFF"/>
		</linearGradient>
		<path class="st7" d="M31.8,73.7c0.2,0.4,0.7,0.7,1.2,0.6c0,0,5.4-1.2,6.4-1.4l0.1-0.3L33,74.1c-0.4,0-0.8-0.1-1-0.5L31.8,73.7z"/>
		
			<linearGradient id="SVGID_7_" gradientUnits="userSpaceOnUse" x1="-4906.4473" y1="-1706.4556" x2="-4829.0439" y2="-1706.4556" gradientTransform="matrix(6.420000e-02 0 0 6.420000e-02 347.0132 180.1883)">
			<stop  offset="0" style="stop-color:#BBBDBF"/>
			<stop  offset="9.701705e-02" style="stop-color:#A2A3A5"/>
			<stop  offset="0.2275" style="stop-color:#87888A"/>
			<stop  offset="0.3698" style="stop-color:#727375"/>
			<stop  offset="0.528" style="stop-color:#636466"/>
			<stop  offset="0.7145" style="stop-color:#5B5C5E"/>
			<stop  offset="1" style="stop-color:#58595B"/>
		</linearGradient>
		<path class="st8" d="M32,73.6c-0.2-0.3-0.2-0.8,0.1-1.1l4.5-5l-0.3,0l-4.4,4.8l0,0l0,0c-0.3,0.4-0.3,0.9-0.1,1.3L32,73.6z"/>
		
			<linearGradient id="SVGID_8_" gradientUnits="userSpaceOnUse" x1="-4700.6899" y1="-2779.0593" x2="-4700.6899" y2="-2829.303" gradientTransform="matrix(-0.1284 0 0 0.1284 -493.6749 430.1418)">
			<stop  offset="0" style="stop-color:#FFFFFF"/>
			<stop  offset="1" style="stop-color:#A6A8AB"/>
		</linearGradient>
		<path class="st9" d="M107.7,67.6l-0.3,0l4.5,4.9c0,0,0.3,0.4,0.3,0.7h0.3c0-0.5-0.4-1-0.4-1C111.8,72,107.7,67.6,107.7,67.6z"/>
		
			<radialGradient id="SVGID_9_" cx="-4999.9399" cy="-2709.4124" r="1743.6042" gradientTransform="matrix(6.420000e-02 0 0 6.420000e-02 347.0132 180.1883)" gradientUnits="userSpaceOnUse">
			<stop  offset="0" style="stop-color:#E3EAED"/>
			<stop  offset="0.1822" style="stop-color:#EEF2F4"/>
			<stop  offset="0.3876" style="stop-color:#FFFFFF"/>
			<stop  offset="0.4578" style="stop-color:#FBFCFC"/>
			<stop  offset="0.5241" style="stop-color:#F0F1F4"/>
			<stop  offset="0.5889" style="stop-color:#DDE0E5"/>
			<stop  offset="0.6527" style="stop-color:#C2C8D1"/>
			<stop  offset="0.7153" style="stop-color:#A0A9B8"/>
			<stop  offset="0.7416" style="stop-color:#8F9AAB"/>
			<stop  offset="0.7775" style="stop-color:#A7B0BE"/>
			<stop  offset="0.8504" style="stop-color:#D1D7E0"/>
			<stop  offset="0.8876" style="stop-color:#E2E6ED"/>
			<stop  offset="0.9038" style="stop-color:#D9DEE6"/>
			<stop  offset="0.9303" style="stop-color:#C1C9D3"/>
			<stop  offset="0.9636" style="stop-color:#99A6B5"/>
			<stop  offset="1" style="stop-color:#667A8D"/>
		</radialGradient>
		<path class="st10" d="M111.1,72.7l-9.9-10.6c-1.4,0.6-3,0.6-4.4-0.3c-1.4-0.8-2.2-2.2-2.4-3.7l0,0c-0.3-2.2-1.5-4.3-3.6-5.5
			l-4-2.3l17.8-10.3l-2-3.4L82.8,48.2l-3.4-2v-4l19.8-11.4l-2-3.4L79.4,37.7v-4.6c0-2.4-1.2-4.6-3-5.9l0,0c-1.2-0.9-2-2.3-2-3.9
			c0-1.6,0.8-3,2-3.9l0,0L72.2,5.4c0-0.1-0.1-0.2-0.2-0.2c-0.1,0-0.2,0.1-0.2,0.2l-4.2,13.8c1.2,0.9,2,2.3,2,3.9c0,1.6-0.8,3-2,3.9
			l0,0c-1.8,1.3-3,3.5-3,5.9v4.6L46.8,27.4l-2,3.4l19.8,11.4v4l-3.4,2L41.4,36.7l-2,3.4l17.9,10.3l-4,2.3l0,0
			c-2.1,1.2-3.4,3.3-3.6,5.5l0,0c-0.2,1.5-1,2.9-2.4,3.7c-1.4,0.8-3,0.9-4.4,0.3h0l-9.9,10.6c-0.1,0.1-0.2,0.2-0.1,0.3
			c0.1,0.1,0.2,0.2,0.3,0.1l14.1-3.3c0.2-1.5,1-2.9,2.4-3.7c1.4-0.8,3-0.8,4.4-0.3l0,0c2.1,0.9,4.5,0.8,6.6-0.4l4-2.3v20.6h3.9V61
			l3.4-2l3.4,2v22.9h3.9V63.2l4,2.3c2.1,1.2,4.5,1.3,6.6,0.4l0,0c1.4-0.6,3-0.5,4.4,0.3c1.4,0.8,2.2,2.2,2.4,3.7l0,0l14.1,3.3
			c0.1,0,0.3,0,0.3-0.1C111.2,73,111.2,72.8,111.1,72.7z M72,54.4l-3.4-2v-4l3.4-2l3.4,2v4L72,54.4z M68.6,33.1
			c0-1.9,1.5-3.4,3.4-3.4c1.9,0,3.4,1.5,3.4,3.4V40l-3.4,2l-3.4-2V33.1z M58.7,62.1c-1.6,0.9-3.7,0.4-4.7-1.3
			c-0.9-1.6-0.4-3.7,1.3-4.7l6-3.4l3.4,2v4L58.7,62.1z M90,60.9c-1,1.6-3.1,2.2-4.7,1.3l-6-3.5v-4l3.4-2l6,3.4
			C90.4,57.1,91,59.2,90,60.9z M90.7,52.8C90.7,52.8,90.7,52.8,90.7,52.8L90.7,52.8L90.7,52.8z M83.4,65.5L83.4,65.5L83.4,65.5
			L83.4,65.5z M60.6,65.5C60.6,65.5,60.6,65.5,60.6,65.5L60.6,65.5L60.6,65.5z"/>
		<polygon class="st11" points="72,54.7 68.3,52.6 68.6,52.4 72,54.4 		"/>
		<polygon class="st11" points="75.7,52.6 72,54.7 72,54.4 75.4,52.4 		"/>
		<polygon class="st11" points="75.7,52.6 75.7,48.4 75.4,48.5 75.4,52.5 		"/>
		<polygon class="st12" points="75.7,48.4 72,46.2 72,46.5 75.4,48.5 		"/>
		<polygon class="st13" points="68.3,48.4 72,46.2 72,46.5 68.6,48.5 		"/>
		<polygon class="st14" points="68.3,52.6 68.3,48.4 68.6,48.5 68.6,52.5 		"/>
		
			<linearGradient id="SVGID_10_" gradientUnits="userSpaceOnUse" x1="-4569.3647" y1="-1860.0547" x2="-4388.6084" y2="-1860.0547" gradientTransform="matrix(6.420000e-02 0 0 6.420000e-02 347.0132 180.1883)">
			<stop  offset="0" style="stop-color:#A6A8AB"/>
			<stop  offset="8.086848e-02" style="stop-color:#C1C2C4"/>
			<stop  offset="0.1751" style="stop-color:#D7D8DA"/>
			<stop  offset="0.2841" style="stop-color:#E9EAEA"/>
			<stop  offset="0.4154" style="stop-color:#F6F6F6"/>
			<stop  offset="0.5913" style="stop-color:#FDFDFD"/>
			<stop  offset="1" style="stop-color:#FFFFFF"/>
		</linearGradient>
		<path class="st15" d="M53.2,59.1c0,0.7,0.2,1.3,0.5,1.9c1,1.8,3.3,2.4,5,1.3l6.1-3.5l-0.2-0.1l-6,3.4c-1.6,0.9-3.8,0.4-4.7-1.3
			c-0.3-0.6-0.5-1.2-0.5-1.8H53.2z"/>
		
			<linearGradient id="SVGID_11_" gradientUnits="userSpaceOnUse" x1="-4569.3647" y1="-1937.7917" x2="-4445.731" y2="-1937.7917" gradientTransform="matrix(6.420000e-02 0 0 6.420000e-02 347.0132 180.1883)">
			<stop  offset="0" style="stop-color:#A6A8AB"/>
			<stop  offset="4.912782e-02" style="stop-color:#9FA1A4"/>
			<stop  offset="0.3076" style="stop-color:#808284"/>
			<stop  offset="0.5576" style="stop-color:#6A6B6D"/>
			<stop  offset="0.7934" style="stop-color:#5D5E60"/>
			<stop  offset="1" style="stop-color:#58595B"/>
		</linearGradient>
		<path class="st16" d="M53.5,59.1c0-1.2,0.6-2.3,1.7-2.9l6-3.4v-0.3L55.1,56c-0.8,0.5-1.5,1.3-1.7,2.2c-0.1,0.3-0.1,0.6-0.1,0.9
			H53.5z"/>
		<path class="st11" d="M90.8,59.1c0,0.7-0.2,1.3-0.5,1.9c-1,1.8-3.3,2.4-5,1.3l-6.1-3.5l0.2-0.1l6,3.4c1.6,0.9,3.7,0.4,4.7-1.3
			c0.3-0.6,0.5-1.2,0.5-1.8H90.8z"/>
		
			<linearGradient id="SVGID_12_" gradientUnits="userSpaceOnUse" x1="-4108.0864" y1="-1938.1844" x2="-3984.4465" y2="-1938.1844" gradientTransform="matrix(6.420000e-02 0 0 6.420000e-02 347.0132 180.204)">
			<stop  offset="0" style="stop-color:#808184"/>
			<stop  offset="0.1606" style="stop-color:#8E8E91"/>
			<stop  offset="0.4615" style="stop-color:#B1B2B4"/>
			<stop  offset="0.8674" style="stop-color:#EBEBEB"/>
			<stop  offset="1" style="stop-color:#FFFFFF"/>
		</linearGradient>
		<path class="st17" d="M90.5,59.1c0-1.2-0.6-2.3-1.7-2.9l-6-3.4v-0.3l6.1,3.5c0.9,0.5,1.5,1.3,1.7,2.2c0.1,0.3,0.1,0.6,0.1,0.9
			H90.5z"/>
		<polygon class="st11" points="64.8,58.8 64.8,54.6 64.6,54.7 64.6,58.7 		"/>
		<polygon class="st12" points="61.2,52.5 64.8,54.6 64.6,54.7 61.2,52.7 		"/>
		<polygon class="st14" points="79.1,83.6 79.1,62.8 79.4,63.2 79.4,83.8 		"/>
		<polygon class="st13" points="75.4,83.9 79.4,83.9 79.1,83.6 75.7,83.6 		"/>
		<polygon class="st11" points="75.4,60.9 75.4,83.8 75.7,83.6 75.7,60.8 		"/>
		<polygon class="st12" points="72,58.7 75.7,60.8 75.4,60.9 72,59 		"/>
		<polygon class="st13" points="68.3,60.8 72,58.7 72,59 68.6,61 		"/>
		<polygon class="st14" points="68.3,83.6 68.3,60.8 68.6,61 68.6,83.8 		"/>
		<polygon class="st13" points="64.6,83.8 68.6,83.8 68.3,83.6 64.9,83.6 		"/>
		<polygon class="st11" points="64.6,63.2 64.6,83.8 64.9,83.6 64.8,62.8 		"/>
		<path class="st13" d="M64.6,63.2l-4,2.3c-2.1,1.2-4.5,1.3-6.6,0.4l0,0c-1.4-0.6-3-0.5-4.4,0.3c-1.4,0.8-2.2,2.2-2.4,3.7L47,69.7
			c0.2-1.6,1.1-2.9,2.5-3.7c1.4-0.8,3.1-0.9,4.6-0.3l0,0c2.1,0.9,4.4,0.8,6.4-0.4l4.4-2.5L64.6,63.2z"/>
		<path class="st13" d="M32.8,73.1c0.1,0.1,0.2,0.2,0.4,0.1l14.1-3.3L47,69.7l-14,3.2L32.8,73.1z"/>
		<path class="st11" d="M42.8,62.2l-9.9,10.5c-0.1,0.1-0.2,0.2-0.1,0.3l0.3-0.2l9.8-10.4L42.8,62.2z"/>
		<path class="st11" d="M57.2,50.4l-4,2.3c-2.1,1.2-3.4,3.3-3.6,5.5l0,0c-0.2,1.5-1,2.9-2.4,3.7c-1.4,0.8-3,0.8-4.4,0.3l0.1,0.3
			c1.5,0.6,3.1,0.5,4.5-0.3c1.4-0.8,2.3-2.2,2.5-3.9l0,0c0.3-2.3,1.5-4.2,3.5-5.3l4.4-2.5H57.2z"/>
		<polygon class="st13" points="82.8,52.5 79.1,54.6 79.4,54.7 82.8,52.7 		"/>
		<polygon class="st14" points="79.1,58.8 79.1,54.6 79.4,54.7 79.4,58.7 		"/>
		<polygon class="st11" points="97.1,27.7 79.1,38.1 79.4,37.7 97.2,27.4 		"/>
		<polygon class="st12" points="99.2,30.8 97.2,27.4 97.1,27.7 98.9,30.7 		"/>
		<polygon class="st13" points="79.4,42.2 99.2,30.8 98.9,30.7 79.1,42.1 		"/>
		<polygon class="st14" points="79.1,46.3 79.1,42.1 79.4,42.2 79.4,46.2 		"/>
		<polygon class="st11" points="82.8,48.4 79.1,46.3 79.4,46.2 82.8,48.2 		"/>
		<polygon class="st11" points="102.5,37 82.8,48.4 82.8,48.2 102.6,36.7 		"/>
		<polygon class="st12" points="104.6,40.1 102.6,36.7 102.5,37 104.3,40 		"/>
		<polygon class="st13" points="86.7,50.5 104.6,40.1 104.3,40.1 86.3,50.5 		"/>
		
			<linearGradient id="SVGID_13_" gradientUnits="userSpaceOnUse" x1="-4054.5381" y1="-1924.5052" x2="-3821.6316" y2="-1924.5052" gradientTransform="matrix(6.420000e-02 0 0 6.420000e-02 347.0132 180.1883)">
			<stop  offset="0" style="stop-color:#FFFFFF"/>
			<stop  offset="0.2088" style="stop-color:#FDFDFD"/>
			<stop  offset="0.3164" style="stop-color:#F5F5F6"/>
			<stop  offset="0.4009" style="stop-color:#E8E8E9"/>
			<stop  offset="0.4729" style="stop-color:#D5D6D8"/>
			<stop  offset="0.5169" style="stop-color:#C5C7C9"/>
			<stop  offset="0.558" style="stop-color:#DADBDC"/>
			<stop  offset="0.608" style="stop-color:#EBEBEC"/>
			<stop  offset="0.6703" style="stop-color:#F6F7F7"/>
			<stop  offset="0.7576" style="stop-color:#FDFDFD"/>
			<stop  offset="1" style="stop-color:#FFFFFF"/>
		</linearGradient>
		<path class="st18" d="M86.7,50.4l4,2.3c2.1,1.2,3.4,3.3,3.6,5.5l0,0c0.2,1.5,1,2.9,2.4,3.7c1.4,0.8,3,0.8,4.4,0.3l-0.1,0.3
			c-1.5,0.6-3.1,0.5-4.5-0.3c-1.4-0.8-2.3-2.2-2.5-3.9l0,0c-0.3-2.3-1.5-4.2-3.5-5.3l-4.4-2.5H86.7z"/>
		<path class="st12" d="M111.2,73.1c0.1-0.1,0-0.3-0.1-0.3l-9.9-10.6l-0.1,0.3l9.8,10.5L111.2,73.1z"/>
		<path class="st14" d="M96.8,69.9l14.1,3.3c0.1,0,0.3,0,0.3-0.1l-0.3-0.2L97,69.7L96.8,69.9z"/>
		
			<linearGradient id="SVGID_14_" gradientUnits="userSpaceOnUse" x1="-4165.8633" y1="-1773.3751" x2="-3887.8035" y2="-1773.3751" gradientTransform="matrix(6.420000e-02 0 0 6.420000e-02 347.0132 180.1883)">
			<stop  offset="1.123600e-02" style="stop-color:#C5C7C9"/>
			<stop  offset="0.1281" style="stop-color:#C2C4C6"/>
			<stop  offset="0.2191" style="stop-color:#B8BABC"/>
			<stop  offset="0.3015" style="stop-color:#A8AAAC"/>
			<stop  offset="0.3787" style="stop-color:#919294"/>
			<stop  offset="0.4516" style="stop-color:#737476"/>
			<stop  offset="0.5056" style="stop-color:#58595B"/>
			<stop  offset="0.6695" style="stop-color:#9A9A9B"/>
			<stop  offset="0.8236" style="stop-color:#D0D1D1"/>
			<stop  offset="0.9379" style="stop-color:#F2F2F2"/>
			<stop  offset="1" style="stop-color:#FFFFFF"/>
		</linearGradient>
		<path class="st19" d="M79.4,63.2l4,2.3c2.1,1.2,4.5,1.3,6.6,0.4l0,0c1.4-0.6,3-0.5,4.4,0.3c1.4,0.8,2.2,2.2,2.4,3.7l0.2-0.2
			c-0.2-1.5-1.2-2.9-2.5-3.7c-1.4-0.8-3.1-0.9-4.6-0.3l0,0c-2.1,0.9-4.4,0.8-6.4-0.4l-4.4-2.5L79.4,63.2z"/>
		<g>
			<polygon class="st11" points="75.7,33 75.7,40.1 75.4,39.9 75.4,33 			"/>
			
				<linearGradient id="SVGID_15_" gradientUnits="userSpaceOnUse" x1="-4335.0063" y1="-2320.6726" x2="-4216.814" y2="-2320.6726" gradientTransform="matrix(6.420000e-02 0 0 6.420000e-02 347.025 180.1913)">
				<stop  offset="0" style="stop-color:#808184"/>
				<stop  offset="1" style="stop-color:#FFFFFF"/>
			</linearGradient>
			<path class="st20" d="M68.3,33c0-2,1.7-3.7,3.7-3.7c1,0,1.9,0.4,2.6,1.1c0.7,0.7,1.1,1.6,1.1,2.6h-0.2c0-1.9-1.5-3.4-3.4-3.4
				c-1.9,0-3.4,1.5-3.4,3.4H68.3z"/>
			<polygon class="st14" points="68.3,33 68.3,40.1 68.6,39.9 68.6,33 			"/>
			<polygon class="st11" points="68.3,40.1 72,42.2 72,41.9 68.6,39.9 			"/>
			<polygon class="st11" points="75.7,40.1 72,42.2 72,41.9 75.4,39.9 			"/>
			<polygon class="st12" points="39.7,40 57.8,50.4 57.3,50.4 39.4,40.1 			"/>
			<polygon class="st11" points="41.4,36.7 39.4,40.1 39.7,40 41.5,37.1 			"/>
			<polygon class="st11" points="61.2,48.2 41.4,36.7 41.5,37.1 61.2,48.4 			"/>
			<polygon class="st11" points="64.9,46.3 61.2,48.4 61.2,48.2 64.7,46.2 			"/>
			<polygon class="st11" points="64.9,42.1 64.9,46.3 64.7,46.2 64.7,42.2 			"/>
			<polygon class="st12" points="45.2,30.7 64.9,42.1 64.7,42.2 44.8,30.8 			"/>
			<polygon class="st11" points="46.8,27.4 44.8,30.8 45.2,30.7 46.9,27.7 			"/>
			<polygon class="st11" points="64.7,37.7 46.8,27.4 46.9,27.7 64.9,38.1 			"/>
			<path class="st11" d="M64.7,37.7V33c0-2.4,1.2-4.6,3-5.9l0,0c1.2-0.9,2-2.3,2-3.9c0-1.6-0.8-3-2-3.9l0.3-0.1c1.2,1,1.9,2.4,1.9,4
				c0,1.6-0.8,3.1-2.1,4.1l0,0c-1.8,1.4-2.9,3.4-2.9,5.7v5L64.7,37.7z"/>
			<path class="st11" d="M72,5.2c-0.1,0-0.2,0.1-0.2,0.2l-4.2,13.8l0.3-0.1L72,5.5V5.2z"/>
			<path class="st11" d="M76.5,19.3L72.3,5.4c0-0.1-0.1-0.2-0.2-0.2v0.3l4.2,13.7L76.5,19.3z"/>
			
				<linearGradient id="SVGID_16_" gradientUnits="userSpaceOnUse" x1="-3578.0515" y1="-3205.2065" x2="-3578.0515" y2="-3057.1323" gradientTransform="matrix(0.1284 0 0 0.1284 536.253 430.1306)">
				<stop  offset="0" style="stop-color:#58595B"/>
				<stop  offset="5.582554e-02" style="stop-color:#616163"/>
				<stop  offset="0.1451" style="stop-color:#78797A"/>
				<stop  offset="0.2567" style="stop-color:#9E9EA0"/>
				<stop  offset="0.3849" style="stop-color:#D2D2D3"/>
				<stop  offset="0.4831" style="stop-color:#FFFFFF"/>
				<stop  offset="0.7142" style="stop-color:#C9C9CA"/>
				<stop  offset="1" style="stop-color:#808184"/>
			</linearGradient>
			<path class="st21" d="M79.4,37.7V33c0-2.4-1.2-4.6-3-5.9l0,0c-1.2-0.9-2-2.3-2-3.9c0-1.6,0.8-3,2-3.9l-0.3-0.1
				c-1.2,1-1.9,2.5-1.9,4c0,1.6,0.8,3.2,2.1,4.1l0,0c1.8,1.4,2.9,3.4,2.9,5.7v5L79.4,37.7z"/>
		</g>
	</g>
</g>
</svg>
