<?xml version="1.0" encoding="utf-8"?>
<!-- Generator: Adobe Illustrator 24.1.1, SVG Export Plug-In . SVG Version: 6.00 Build 0)  -->
<svg version="1.1" id="Layer_1" xmlns="http://www.w3.org/2000/svg" xmlns:xlink="http://www.w3.org/1999/xlink" x="0px" y="0px"
	 viewBox="0 0 144 101" style="enable-background:new 0 0 144 101;" xml:space="preserve">
<style type="text/css">
	.st0{fill-rule:evenodd;clip-rule:evenodd;fill:#005CAA;}
	.st1{fill-rule:evenodd;clip-rule:evenodd;fill:#FFFFFF;}
</style>
<g>
	<path class="st0" d="M72,1c27.2,0,49.5,22.2,49.5,49.5c0,27.2-22.2,49.5-49.5,49.5c-27.2,0-49.5-22.3-49.5-49.5
		C22.5,23.2,44.8,1,72,1L72,1z"/>
	<path class="st1" d="M72,7.3c23.8,0,43.2,19.4,43.2,43.2c0,23.8-19.4,43.1-43.2,43.1S28.8,74.3,28.8,50.5
		C28.8,26.7,48.3,7.3,72,7.3L72,7.3z M43.1,27.3l15.5,40.2l5.7-14.7h4.4h6.1h4.4l5.7,14.7l15.6-40.7c-2.8-3.3-6.1-6.2-9.8-8.4
		L79.8,48.4H75h-5.7h-4.8l-10.9-30C49.6,20.6,46,23.7,43.1,27.3L43.1,27.3z M106.7,37.4l-17.6,46c11.8-6.2,20-18.6,20-32.9
		C109.1,45.9,108.3,41.5,106.7,37.4L106.7,37.4z M81.4,86.4l-0.1-0.9l-9.6-24.8l-9.6,24.8l0,0.8c3.2,0.9,6.5,1.3,9.9,1.3
		C75.3,87.6,78.4,87.2,81.4,86.4L81.4,86.4z M54.2,83L37,38.2c-1.4,3.9-2.1,8-2.1,12.3C34.9,64.5,42.7,76.7,54.2,83L54.2,83z
		 M72,13.4c3.2,0,6.4,0.4,9.5,1.2l-9.4,25.9l-9.4-25.9C65.7,13.8,68.8,13.4,72,13.4L72,13.4z"/>
</g>
</svg>
