<?xml version="1.0" encoding="utf-8"?>
<!-- Generator: Adobe Illustrator 24.0.2, SVG Export Plug-In . SVG Version: 6.00 Build 0)  -->
<svg version="1.1" id="Layer_1" xmlns="http://www.w3.org/2000/svg" xmlns:xlink="http://www.w3.org/1999/xlink" x="0px" y="0px"
	 viewBox="0 0 144 101" style="enable-background:new 0 0 144 101;" xml:space="preserve">
<style type="text/css">
	.st0{display:none;}
</style>
<g id="Layer_1_1_" class="st0">
</g>
<g>
	<polygon points="121,83.5 124.3,83.5 124.3,71.5 128,71.5 128,68.7 124.3,68.7 121,68.7 117.4,68.7 117.4,71.5 121,71.5 	"/>
	<polygon points="26.4,80.5 21.5,68.7 17,68.7 17,83.5 19.5,83.5 19.5,71.6 19.8,71.6 24.4,83.5 29,83.5 29,68.7 26.4,68.7 	"/>
	<path d="M105.4,32.2c-2.4-7.6-12.7-14.1-30.8-14.6c-0.4,0-1.5-0.1-2.6-0.1c-1.1,0-2.2,0.1-2.7,0.1c-18,0.6-28.3,7-30.7,14.6
		c-0.4,1.1-5.5,16.2,24.6,20.4L72,26.9l8.8,25.7C110.9,48.4,105.8,33.4,105.4,32.2z M86.5,42.4L72,23.1L57.5,42.4
		c-6.4-0.8-13.2-4.2-13.2-8.8C44.3,22.3,66,20,71,19.7c0.6,0,1.3,0,1.9,0c4.8,0.3,26.8,2.5,26.8,13.9C99.7,38.2,92.9,41.7,86.5,42.4
		z"/>
	<polygon points="80.9,71.6 85.4,83.5 90,83.5 90,68.7 87.4,68.7 87.4,80.5 82.5,68.7 78,68.7 78,83.5 80.6,83.5 80.6,71.6 	"/>
	<rect x="62.1" y="68.7" width="3.3" height="14.8"/>
	<rect x="139.5" y="68.7" width="3.3" height="14.8"/>
	<rect x="1.2" y="68.7" width="3.3" height="14.8"/>
	<rect x="102.5" y="68.7" width="3.3" height="14.8"/>
	<polygon points="50.4,71.2 50.4,68.7 44.1,68.7 43.3,68.7 41.1,68.7 41.1,83.5 44.1,83.5 44.1,77.2 50.4,77.2 50.4,74.6 44.1,74.6 
		44.1,71.2 	"/>
</g>
</svg>
