<?xml version="1.0" encoding="utf-8"?>
<!-- Generator: Adobe Illustrator 24.1.1, SVG Export Plug-In . SVG Version: 6.00 Build 0)  -->
<svg version="1.1" id="Layer_1" xmlns="http://www.w3.org/2000/svg" xmlns:xlink="http://www.w3.org/1999/xlink" x="0px" y="0px"
	 viewBox="0 0 144 101" style="enable-background:new 0 0 144 101;" xml:space="preserve">
<g>
	<g>
		<path d="M27.7,21.1c0.1,0,0.3,0,0.4,0c0.7,0,1.4-0.3,1.9-0.5c0.4-0.2,0.6-0.3,0.5-0.3c-0.5,0-1.2,0-1.5,0c-1.2,0-1.8,0.7-1.8,0.7
			C27.3,21,27.4,21,27.7,21.1z M137.8,52.7c-0.7-1.5-2.5-1-2.5-1c-0.9,0.2-1.9,1.2-3.4,1.6c-3.2,0.9-5.7-0.2-5.7-0.2
			C121.3,51,105.5,42,97.4,38c0,0-9.2-4.6-22.8-10c0,0-26.2-11.5-44.5-10.4c0,0-9.5,0.4-12.4,4.7c0,0-0.5,0.6-0.2,1.2
			c0,0,0.1,0.2-0.1,0.3c0,0-1.6,1.4-2.4,2.7c-0.3,0.5-0.6,1.2,0,1.8c0,0,0.3,0.2,0.4,0.4c0.2,0.4,0.4,0.9,0.7,1.3
			c0.4,0.5,1.3,1.3,2.4,1.1c0.4-0.1,0.5-0.2,0.5-0.2c0.6,0.6,1.5,0.6,1.5,0.6c-0.1-0.4-0.5-1.1-0.6-1.6c-0.1-0.5,0.1-1,0.1-1
			c0.2-0.6,0.5-1.3,0.9-1.6c0.3-0.3,1.1-0.7,1.8-0.2c0.5,0.4,1.2,1.6,0.6,3.3c0,0.1-0.6,1.4-1.2,1.5c0,0-0.1,0-0.2,0
			c-0.4,0-1.2-0.4-1.2-0.4s0,0.1,0.1,0.6c0.1,0.3,0.2,0.5,0.2,0.8c0,0-0.2,0.3-0.2,0.4c-0.1,0.3-0.3,0.8,0,1c0,0,1.4,0.9,2.7,1
			c0.9,0.1,1.3-0.6,1.3-0.6c0.7-0.9,1.2-1.7,1.9-2.4c1.9-1.8,4.7-2.3,4.7-2.3c0.2,0,3.2-0.9,8.2,3.2c-1.4,0.1-3.2,0.5-4.5,0.7
			c-3.7,0.7-6.2,4.2-6.9,5.6c-1.8,3.8,1.9,5,1.9,5c0,0,3.6-0.3,5.2-4c0,0,0.6-1.7,2.3-1.1c1.1,0.3,10.6,3.7,12.8,4.2
			c0,0,6.4,1.7,8.8-1.3c3.8,1.3,7.4,1.9,16.9,0.7c1.6-0.2,2.9-0.2,2.9-0.2c2.2,0.2,4.2,1.7,4.8,2.6c2.5,4,5.6,11.9,16.6,10.9
			l4.9-0.4c3-0.2,5.5-0.3,8,1c1.1,0.6,1.7,0.8,3.5,2.5c2.5,2.4,4.8,5,7.9,3.6c1.1-0.5,2.3-2.5,2.3-2.5c-0.1-0.9-0.5-1.8-1.5-2.5
			c2.8,0.7,9.1,1.1,11.6-3.2C138,54.1,138.1,53.2,137.8,52.7z M30.2,18.4c17.9-1.1,43.9,10.2,44.1,10.4l0,0l0,0
			c2.2,0.9,4.2,1.7,6.2,2.5c-0.5-0.2-2.8-1.1-2.8-1.1c-3.8-1.5-10.8-3.8-10.8-3.8c-9.2-3.2-13.2-3.7-13.4-3.8
			c-1.1-0.2-1.5-0.2-1.5-0.2l-1.6-0.2c0,0,0.9,1.5,0.9,1.5c-6.5-4.6-14.2-4.8-14.6-4.8h0c-1.6,0-2.9,0.4-4,1c0.1-0.2,0.5-1,0.5-1
			l-1.3-0.1c-2.3-0.1-4.1,0-5.3,0.1C28.6,18.5,30.2,18.4,30.2,18.4z M15.4,26.9c1-1.5,2.4-2.7,2.4-2.7c0,0,0,0,0.1,0
			c0,0,0,0,0.1-0.1c0.1,0.1,0.2,0.2,0.3,0.3C17.5,24.7,15.4,26.9,15.4,26.9z M23.2,26.5c-0.5-0.3-1-0.4-1.5-0.3
			C22,26,22.3,26,22.3,26c0.2,0,1.3-0.1,1.8,1.6C23.9,27.1,23.6,26.7,23.2,26.5z M136.8,54.7c-0.2,0.8-1.4,1.9-2.9,2.6
			c-1.5,0.7-4.7,0.9-6.5,0.6c0,0-3.5-0.4-6.6-3.6c-1-1-2.2-2.2-3.3-3.3c-0.5-0.5-1.7-1.7-3.7-2c-2.1-0.3-7.1-0.4-9-1
			c-1.3-0.4-2.8-1.3-4.9-4.3c-1-1.4-1.7-1.8-3-2.7c0,0,1,0.8,1.6,1.8c0.8,1.5,1.3,2.6,1.7,3.4c0.5,0.8,1,1.5,1.8,2.1
			c1,0.8,1.6,0.9,2.6,1.1c1,0.2,4.4,0.1,7.3,0.1c2.9,0,4.1,0.9,5.1,1.7c0.9,0.7,2.4,2.8,3.3,3.7c1.1,1.1,1.9,2.2,4.1,3.3
			c0.8,0.4,2,1.3,1.9,2.2c-1,1-2.2,1.2-5.1,0.5c0.2,0.2,1.7,1.8,4.3,1c-0.8,0.7-1.5,0.9-2.3,0.9c-2.7-0.2-5.4-3.5-6.9-4.7
			c-1.1-0.9-1.3-1.2-3.2-2.5c-2.9-2-9.5-1.5-9.5-1.5l-4.8,0.2c-9.4,0.7-13.3-7.6-14.3-9.3c-0.4-0.6-0.7-1.1-1-1.5
			c-0.5-0.6-3-4-5.6-5c0,0,2.5,2.2,2.4,3.6c0,0-1.1-0.5-3.9-0.1c-12.3,1.8-16.5-1.3-16.5-1.3c0.6-2.5-1.2-5-1.2-5
			c1,0.3,7,2.4,12.8,1.2c0,0-9.4,0.1-16-5.2c0,0,4.1,5.1,3.1,8.5c0,0-0.7,3.6-7.8,2.1c-0.8-0.2-1.7-0.4-12.3-3.4
			c-2.5-0.8-3.4,0.4-3.8,1.2c0,1.1-1.3,2.3-1.9,2.7c-3.3-0.6-2-3.7-2-3.7c-2.1,3,0.1,4.3,0.8,4.4c-0.4,0.2-0.8,0.3-1.1,0.5
			c0,0-2.7-1.6-1.2-4.2c2.1-3.7,4.2-4.9,8.2-5.2c1.7-0.2,3.2-0.3,4.2-0.1c2.9,0.4,4.6,2,8.9,2.4c-9.1-2.7-9.1-7.9-9.1-8c0,0,0,0,0,0
			c-0.5,1.7-0.2,3.2,0.2,4.4c-0.1,0-2.1-1.3-2.9-1.8c-3.3-2-5.8-2.3-5.8-2.3c-1.1-0.1-1.6-1.4-1.6-1.4c0-0.1-0.1-0.1-0.1-0.2
			c-1.5-2.6-3-2.6-3-2.6c0.5,0.7,0.7,1.6,0.8,2.2c0,0.3,0.1,0.9,0.1,1.1c0,2.7-3.2,3.6-3.2,3.6c-2.2,2.8-2.1,2.9-2.6,2.9
			c-0.5,0.1-1.6-0.5-1.6-0.5c-0.1,0-0.1-0.2-0.1-0.2c0-0.2,0.2-0.3,0.2-0.3c0.4-0.3,0.8-0.7,0.8-0.7c2.3-2.4,2.6-3.6,2.3-5.1
			c-0.6-3.1-2.8-2.7-2.8-2.7c-1.1,0.1-1.5,1-1.5,1c-0.4,0.6-1.2,2.3-1.2,2.3c-0.5,1-1,1.3-1.2,1.3c-0.1,0-0.3,0-0.4,0
			c-0.8,0-1.3-0.7-1.3-0.7c0,0-0.1-0.1-0.1-0.1c-0.7-0.7-0.2-1.7-0.2-1.7c0.9-2.2,2.7-2.5,3-2.5c0.3,0,1.1-0.2,1.1-0.2
			c2.3-0.4,3.4-2.8,3.4-2.8c-1.5,0-2.3,0.1-2.3,0.1c-1.5,0.3-2,2-2,2c-1.3,0.3-1.2-0.8-1-1.1c0.2-0.3,1-1.6,5.9-2.8
			c0,0,2.4-0.7,7.6-0.5c0,0,0,0-0.2,0.4c-0.5,0.9-2.3,2.7-5.3,2c0,0,0,1.3,3.3,1.8c0,0,3,0.5,8,4.5c0,0-2.4-4.8-6.5-6
			c0,0-0.5-0.1-0.3-0.4c0,0,2.4-2.3,5.7-2.3c0,0,10.4,0.2,17,7.1c0,0-0.3-1.2-1.3-2.9c0,0,0,0-0.4-0.7c0,0,0.4,0,1.5,0.2
			c0,0,4,0.5,13.3,3.7c0,0,7,2.3,10.8,3.8c5.7,2.3,20.1,7.9,29.3,12.9c1.6,0.9,18.2,9.6,18.2,9.6c4.6,2.1,7.8,0.8,7.8,0.8
			c1-0.4,2.9-1.8,3.7-1C137,53.6,137,54.2,136.8,54.7z M19.9,24c0,0,0.1-0.3,0.1-0.4c0-0.1,0.3-0.8,1-0.9c0,0,0.4,0,1,0
			c0,0-0.3,1-1.5,1.2C20.5,23.9,20.1,24,19.9,24z M30.9,23.1c1,0.3,1.8,0.8,2.6,1.4c-2.3-1.3-3.6-1.6-3.7-1.6l0,0
			c-0.4-0.1-0.7-0.1-0.9-0.2c0.4-0.1,0.9-0.2,1.2-0.4c0,0,0,0,0,0C30.2,22.9,30.7,23.1,30.9,23.1z"/>
	</g>
	<path id="FS_Master_Logo" d="M26.6,77.3h10l-5-5.8L26.6,77.3z M37.8,78.7H25.3l-2.1,2.4h-2.4l9.8-11.3h4.1l9.8,11.3h-4.7L37.8,78.7
		z M100.2,77.3h10l-5-5.8L100.2,77.3z M111.4,78.7H99l-2.1,2.4h-2.4l9.8-11.3h4.1l9.8,11.3h-4.7L111.4,78.7z M18.9,69.8v5.5
		c0,1.8-0.4,2.9-1.3,3.7c-1.5,1.5-4.3,2.1-8.3,2.1H0.9v-1.5h7.8c2.4,0,4-0.4,5-1.4c0.7-0.7,1.1-1.7,1.1-3.3v-5.2H18.9z M62.9,79.6
		v-3.7h4.2v5.2H54.9c-2.3,0-4.1-0.3-5.4-0.8c-2.3-0.9-3.3-2.6-3.3-4.9c0-2.2,1.1-3.6,2.6-4.5c1.5-0.9,3.2-1.2,6.1-1.2h11.8v1.5H56.2
		c-2.3,0-3.5,0.3-4.4,1.1c-0.8,0.7-1.3,1.7-1.3,3c0,1.4,0.5,2.4,1.4,3.1c0.9,0.7,2.2,1,4.4,1L62.9,79.6z M136.5,77.1
		c1.6-0.1,2.9-0.3,4-0.8c1.1-0.6,1.6-1.7,1.6-2.8c0-1.5-0.7-2.5-1.9-3c-1.1-0.5-2.4-0.6-5.1-0.6H122v11.3h4.2v-3.9h5.5l6.3,3.9h5.1
		L136.5,77.1z M134.5,71.2c1.6,0,2.3,0.1,2.8,0.5c0.5,0.3,0.6,0.9,0.6,1.7v0.2c0,0.7-0.2,1.3-0.7,1.7c-0.5,0.4-1.3,0.4-2.6,0.4h-8.3
		v-4.5H134.5z M92.6,69.8v5.6c0,1.5-0.2,2.6-0.9,3.6c-1.2,1.6-3.4,2.5-9.5,2.5l-0.1,0c-6.1,0-8.3-0.9-9.5-2.5
		c-0.7-1-0.9-2.1-0.9-3.6v-5.6H76v5.5c0,1.5,0.2,2.3,0.7,3.1c0.9,1.3,2.5,1.7,5.3,1.7h0.4c3,0,4.4-0.5,5.3-1.7
		c0.5-0.8,0.7-1.7,0.7-3.1v-5.5H92.6z"/>
</g>
</svg>
