<?xml version="1.0" encoding="utf-8"?>
<!-- Generator: Adobe Illustrator 24.0.2, SVG Export Plug-In . SVG Version: 6.00 Build 0)  -->
<svg version="1.1" id="Layer_1" xmlns="http://www.w3.org/2000/svg" xmlns:xlink="http://www.w3.org/1999/xlink" x="0px" y="0px"
	 viewBox="0 0 144 101" style="enable-background:new 0 0 144 101;" xml:space="preserve">
<style type="text/css">
	.st0{display:none;}
	.st1{fill-rule:evenodd;clip-rule:evenodd;fill:#231F20;}
</style>
<g id="Layer_1_1_" class="st0">
</g>
<g>
	<path class="st1" d="M73.3,22c-2.9,3.6-11.1,15-12,16.5c-1.8,2.8-2,4.2-2,5.1c-0.1,0.9-0.1,2.5,1.4,3.9c2.5,2.2,5.9,1.8,9,1.8h25.2
		c1.1,0,1.4-0.3,2-1.1c2-3.1,2.9-6.4,2.9-9.4c0-6.4-4.2-14.5-14.7-18.1l-1.2,1.7c8.4,4,11.8,9.1,11.8,16.4c0.1,1.9-0.5,4.1-1.7,6
		H69.5c-1.5,0-1.7-1.7-1.1-2.6c2.2-3.9,4.4-7.3,7-10.8c2.5-3.3,4.9-6.4,7.5-9.6c0.7-0.9,0.2-1.8-1.1-2.1c-2.9-0.6-5.9-1-9.5-1
		c-20.1,0-27.5,11.6-27.5,20.1c0,9.3,7.4,20.1,27.5,20.1c11.2,0,18.5-3.6,22.7-8.2h-4.3c-3.7,3.4-10,5.8-18.4,5.8
		c-17,0-23.3-9.6-23.3-17.8c0.1-7.4,6.9-17.5,23.7-17.9C73.3,20.9,73.8,21.5,73.3,22L73.3,22z"/>
	<path class="st1" d="M133.9,75c1,0.1,1.8,0.9,1.8,1.9c0,1.1-1,1.9-2.1,1.9h-21.6V64.7h-6.4v14.2H93.8c-3.2,0-3.8-1.9-3.8-3.7V64.6
		H79.4c-1,0.7-2.1,1.5-3.1,2.1L70,70.6l-8.1-5.9H49.2v3.6h4.6v-1.9L64.6,74l-7.4,4.6h-8v3.6h9.3c1-0.7,1.9-1.4,3-2l6.4-3.9l8.2,5.8
		h9.3l-12.3-9.3l6.3-4.1c1.3-0.9,2.8-1.6,4.1-2.4v9.3c0,3.9,1,6.7,8.9,6.7l44.7-0.1c3.5,0.1,5.7-2.3,5.7-5.2c0-2.9-2.5-5.2-5.7-5.2
		H121c0.2-2,1.9-3.6,3.6-3.6h16.3l-0.1-3.4h-17.3c-5.5,0-9.9,4.5-10,9.8c0,0.4,0.2,0.6,0.6,0.6L133.9,75L133.9,75L133.9,75L133.9,75
		z M49.2,75v-3.6h3.1V75H49.2L49.2,75L49.2,75z M49.2,64.7h-12c-3.2,0-5.7,0.8-7.6,2.3c-3.3,2.6-4.4,5.4-4.3,6.6h4.3
		c-1.9,1.4-3.2,3.1-3.8,5.1H11.7c-2.5,0-4.2-1.8-4.2-3.6V64.5H1.2v11c0,3.9,3.8,6.7,9.8,6.7h38.2v-3.6H34.1c0.1-1.8,2-3.6,3.8-3.6
		h11.4v-3.6H33.9c-0.2-1.1,1.8-3.1,3.3-3.1h12.1V64.7L49.2,64.7z"/>
</g>
</svg>
