<?xml version="1.0" encoding="utf-8"?>
<!-- Generator: Adobe Illustrator 24.1.1, SVG Export Plug-In . SVG Version: 6.00 Build 0)  -->
<svg version="1.1" id="Layer_1" xmlns="http://www.w3.org/2000/svg" xmlns:xlink="http://www.w3.org/1999/xlink" x="0px" y="0px"
	 viewBox="0 0 144 101" style="enable-background:new 0 0 144 101;" xml:space="preserve">
<style type="text/css">
	.st0{fill-rule:evenodd;clip-rule:evenodd;fill:#498DCB;}
	.st1{clip-path:url(#SVGID_2_);}
	.st2{clip-path:url(#SVGID_10_);}
	.st3{clip-path:url(#SVGID_18_);}
	.st4{fill-rule:evenodd;clip-rule:evenodd;fill:#DBDCDD;}
</style>
<g>
	<path class="st0" d="M108.9,26.1c13.5,5.6,22.2,14.3,22.2,24c0,17-26.4,30.7-59.1,30.7c-4.4,0-8.7-0.3-12.9-0.8l-5.1,10.7
		C59.8,91.5,65.8,92,72,92c36.6,0,66.7-16.3,70.6-37.3C145.1,35.1,126,28.3,108.9,26.1L108.9,26.1z"/>
	<path class="st0" d="M108.9,26.1c-13.4-1.7-25.6-0.7-25.6-0.7l2.5-5.2c-4.4-0.5-9-0.9-13.7-0.9c-32.6,0-59,13.7-59,30.7
		c0,11.5,12.2,21.5,30.1,26.7c5.1,0.5,10.8,0.7,17.3,0.6L59.1,80c4.1,0.5,8.4,0.8,12.9,0.8c32.6,0,59.1-13.7,59.1-30.7
		C131.1,40.3,122.4,31.7,108.9,26.1L108.9,26.1z M72,72.4c-25.7,0-46.6-10-46.6-22.4c0-12.4,20.9-22.4,46.6-22.4
		c25.7,0,46.6,10,46.6,22.4C118.6,62.4,97.7,72.4,72,72.4L72,72.4z"/>
	<path class="st0" d="M43.1,76.8C25.1,71.5,13,61.5,13,50c0-17,26.4-30.7,59-30.7c4.7,0,9.3,0.3,13.7,0.9l5.1-10.6
		C84.8,8.6,78.5,8,72,8C35.8,8,5.9,24.1,1.5,44.8C0.8,49.8,0.2,72.7,43.1,76.8L43.1,76.8z"/>
	<g>
		<defs>
			<path id="SVGID_1_" d="M108.9,26.1c-13.4-1.7-25.6-0.7-25.6-0.7l2.5-5.2c-4.4-0.5-9-0.9-13.7-0.9c-32.6,0-59,13.7-59,30.7
				c0,11.5,12.2,21.5,30.1,26.7c5.1,0.5,10.8,0.7,17.3,0.6L59.1,80c4.1,0.5,8.4,0.8,12.9,0.8c32.6,0,59.1-13.7,59.1-30.7
				C131.1,40.3,122.4,31.7,108.9,26.1L108.9,26.1z M72,72.4c-25.7,0-46.6-10-46.6-22.4c0-12.4,20.9-22.4,46.6-22.4
				c25.7,0,46.6,10,46.6,22.4C118.6,62.4,97.7,72.4,72,72.4L72,72.4z"/>
		</defs>
		<clipPath id="SVGID_2_">
			<use xlink:href="#SVGID_1_"  style="overflow:visible;"/>
		</clipPath>
		<g class="st1">
			<defs>
				<rect id="SVGID_3_" x="13" y="19.3" width="118.1" height="61.4"/>
			</defs>
			<clipPath id="SVGID_4_">
				<use xlink:href="#SVGID_3_"  style="overflow:visible;"/>
			</clipPath>
			<g style="clip-path:url(#SVGID_4_);">
				
					<image style="overflow:visible;" width="312" height="163" xlink:href="372E1179.png"  transform="matrix(0.3865 0 0 -0.3865 11.8946 81.7019)">
				</image>
			</g>
		</g>
		<g class="st1">
			<defs>
				<rect id="SVGID_5_" x="13" y="19.3" width="118.1" height="61.4"/>
			</defs>
			<clipPath id="SVGID_6_">
				<use xlink:href="#SVGID_5_"  style="overflow:visible;"/>
			</clipPath>
			<g style="clip-path:url(#SVGID_6_);">
				
					<image style="overflow:visible;" width="312" height="163" xlink:href="372E117B.png"  transform="matrix(0.3865 0 0 -0.3865 11.8946 81.7019)">
				</image>
			</g>
		</g>
		<g class="st1">
			<defs>
				<rect id="SVGID_7_" x="13" y="19.3" width="118.1" height="61.4"/>
			</defs>
			<clipPath id="SVGID_8_">
				<use xlink:href="#SVGID_7_"  style="overflow:visible;"/>
			</clipPath>
			<g style="clip-path:url(#SVGID_8_);">
				
					<image style="overflow:visible;" width="312" height="163" xlink:href="372E117E.png"  transform="matrix(0.3865 0 0 -0.3865 11.8946 81.7019)">
				</image>
			</g>
		</g>
	</g>
	<g>
		<defs>
			<path id="SVGID_9_" d="M43.1,76.8C25.1,71.5,13,61.5,13,50c0-17,26.4-30.7,59-30.7c4.7,0,9.3,0.3,13.7,0.9l5.1-10.6
				C84.8,8.6,78.5,8,72,8C35.8,8,5.9,24.1,1.5,44.8C0.8,49.8,0.2,72.7,43.1,76.8L43.1,76.8z"/>
		</defs>
		<clipPath id="SVGID_10_">
			<use xlink:href="#SVGID_9_"  style="overflow:visible;"/>
		</clipPath>
		<g class="st2">
			<defs>
				<rect id="SVGID_11_" x="0.2" y="8" width="90.7" height="68.8"/>
			</defs>
			<clipPath id="SVGID_12_">
				<use xlink:href="#SVGID_11_"  style="overflow:visible;"/>
			</clipPath>
			<g style="clip-path:url(#SVGID_12_);">
				
					<image style="overflow:visible;" width="240" height="182" xlink:href="372E117F.png"  transform="matrix(0.3865 0 0 -0.3865 -0.7242 77.7365)">
				</image>
			</g>
		</g>
		<g class="st2">
			<defs>
				<rect id="SVGID_13_" x="0.2" y="8" width="90.7" height="68.8"/>
			</defs>
			<clipPath id="SVGID_14_">
				<use xlink:href="#SVGID_13_"  style="overflow:visible;"/>
			</clipPath>
			<g style="clip-path:url(#SVGID_14_);">
				
					<image style="overflow:visible;" width="240" height="182" xlink:href="372E117A.png"  transform="matrix(0.3865 0 0 -0.3865 -0.7242 77.7365)">
				</image>
			</g>
		</g>
		<g class="st2">
			<defs>
				<rect id="SVGID_15_" x="0.2" y="8" width="90.7" height="68.8"/>
			</defs>
			<clipPath id="SVGID_16_">
				<use xlink:href="#SVGID_15_"  style="overflow:visible;"/>
			</clipPath>
			<g style="clip-path:url(#SVGID_16_);">
				
					<image style="overflow:visible;" width="240" height="182" xlink:href="372E1175.png"  transform="matrix(0.3865 0 0 -0.3865 -0.7242 77.7365)">
				</image>
			</g>
		</g>
	</g>
	<g>
		<defs>
			<path id="SVGID_17_" d="M108.9,26.1c13.5,5.6,22.2,14.3,22.2,24c0,17-26.4,30.7-59.1,30.7c-4.4,0-8.7-0.3-12.9-0.8l-5.1,10.7
				C59.8,91.5,65.8,92,72,92c36.6,0,66.7-16.3,70.6-37.3C145.1,35.1,126,28.3,108.9,26.1L108.9,26.1z"/>
		</defs>
		<clipPath id="SVGID_18_">
			<use xlink:href="#SVGID_17_"  style="overflow:visible;"/>
		</clipPath>
		<g class="st3">
			<defs>
				<rect id="SVGID_19_" x="54.1" y="26.1" width="91" height="66"/>
			</defs>
			<clipPath id="SVGID_20_">
				<use xlink:href="#SVGID_19_"  style="overflow:visible;"/>
			</clipPath>
			<g transform="matrix(1 0 0 1 -3.814697e-06 0)" style="clip-path:url(#SVGID_20_);">
				
					<image style="overflow:visible;" width="244" height="175" xlink:href="372E1176.png"  transform="matrix(0.3865 0 0 -0.3865 52.8992 92.964)">
				</image>
			</g>
		</g>
		<g class="st3">
			<defs>
				<rect id="SVGID_21_" x="54.1" y="26.1" width="91" height="66"/>
			</defs>
			<clipPath id="SVGID_22_">
				<use xlink:href="#SVGID_21_"  style="overflow:visible;"/>
			</clipPath>
			<g transform="matrix(1 0 0 1 -3.814697e-06 0)" style="clip-path:url(#SVGID_22_);">
				
					<image style="overflow:visible;" width="244" height="175" xlink:href="372E1177.png"  transform="matrix(0.3865 0 0 -0.3865 52.8992 92.964)">
				</image>
			</g>
		</g>
		<g class="st3">
			<defs>
				<rect id="SVGID_23_" x="54.1" y="26.1" width="91" height="66"/>
			</defs>
			<clipPath id="SVGID_24_">
				<use xlink:href="#SVGID_23_"  style="overflow:visible;"/>
			</clipPath>
			<g transform="matrix(1 0 0 1 -3.814697e-06 0)" style="clip-path:url(#SVGID_24_);">
				
					<image style="overflow:visible;" width="244" height="175" xlink:href="372E1189.png"  transform="matrix(0.3865 0 0 -0.3865 52.8992 92.964)">
				</image>
			</g>
		</g>
	</g>
	<path class="st4" d="M116.9,69.9l-7-7c-8.4,5.7-22.3,9.4-37.9,9.4c-3,0-6-0.2-8.9-0.4l-3.9,8c4.1,0.5,8.4,0.7,12.8,0.7
		C90,80.7,106.1,76.5,116.9,69.9L116.9,69.9z"/>
</g>
</svg>
