<?xml version="1.0" encoding="utf-8"?>
<!-- Generator: Adobe Illustrator 24.0.2, SVG Export Plug-In . SVG Version: 6.00 Build 0)  -->
<svg version="1.1" id="Layer_1" xmlns="http://www.w3.org/2000/svg" xmlns:xlink="http://www.w3.org/1999/xlink" x="0px" y="0px"
	 viewBox="0 0 144 101" style="enable-background:new 0 0 144 101;" xml:space="preserve">
<style type="text/css">
	.st0{display:none;}
	.st1{fill:#002169;}
	.st2{fill:#00226A;}
	.st3{fill:#01236A;}
	.st4{fill:#03236B;}
	.st5{fill:#06246B;}
	.st6{fill:#08256C;}
	.st7{fill:#0C266D;}
	.st8{fill:#0E276E;}
	.st9{fill:#10286E;}
	.st10{fill:#12286F;}
	.st11{fill:#14296F;}
	.st12{fill:#152A70;}
	.st13{fill:#172B70;}
	.st14{fill:#182B71;}
	.st15{fill:#1A2C72;}
	.st16{fill:#1B2D72;}
	.st17{fill:#1E2E73;}
	.st18{fill:#1F2F74;}
	.st19{fill:#203074;}
	.st20{fill:#223075;}
	.st21{fill:#233176;}
	.st22{fill:#243276;}
	.st23{fill:#253277;}
	.st24{fill:#263377;}
	.st25{fill:#273478;}
	.st26{fill:#293578;}
	.st27{fill:#2B367A;}
	.st28{fill:#2C377A;}
	.st29{fill:#2D387B;}
	.st30{fill:#2E387B;}
	.st31{fill:#2F397C;}
	.st32{fill:#303A7C;}
	.st33{fill:#313B7D;}
	.st34{fill:#323B7D;}
	.st35{fill:#333C7E;}
	.st36{fill:#343D7F;}
	.st37{fill:#363E80;}
	.st38{fill:#373F80;}
	.st39{fill:#384081;}
	.st40{fill:#394181;}
	.st41{fill:#3A4282;}
	.st42{fill:#3B4283;}
	.st43{fill:#3C4383;}
	.st44{fill:#3D4484;}
	.st45{fill:#3E4584;}
	.st46{fill:#3F4585;}
	.st47{fill:#404685;}
	.st48{fill:#424887;}
	.st49{fill:#434987;}
	.st50{fill:#444988;}
	.st51{fill:#454A88;}
	.st52{fill:#464B89;}
	.st53{fill:#474C89;}
	.st54{fill:#484C8A;}
	.st55{fill:#494D8B;}
	.st56{fill:#4A4E8B;}
	.st57{fill:#4B4F8C;}
	.st58{fill:#4C508D;}
	.st59{fill:#4D518D;}
	.st60{fill:#4E528E;}
	.st61{fill:#4F538F;}
	.st62{fill:#50548F;}
	.st63{fill:#515490;}
	.st64{fill:#525590;}
	.st65{fill:#535691;}
	.st66{fill:#545791;}
	.st67{fill:#555892;}
	.st68{fill:#575993;}
	.st69{fill:#575A94;}
	.st70{fill:#585B94;}
	.st71{fill:#595C95;}
	.st72{fill:#5A5D95;}
	.st73{fill:#5B5D96;}
	.st74{fill:#5C5E97;}
	.st75{fill:#5D5F97;}
	.st76{fill:#5E6098;}
	.st77{fill:#5F6198;}
	.st78{fill:#61629A;}
	.st79{fill:#62639A;}
	.st80{fill:#62649B;}
	.st81{fill:#63659B;}
	.st82{fill:#64669C;}
	.st83{fill:#65669C;}
	.st84{fill:#66679D;}
	.st85{fill:#67689E;}
	.st86{fill:#68699E;}
	.st87{fill:#696A9F;}
	.st88{fill:#6A6B9F;}
	.st89{fill:#6B6CA0;}
	.st90{fill:#6C6DA1;}
	.st91{fill:#6D6EA2;}
	.st92{fill:#6E6FA2;}
	.st93{fill:#6F70A3;}
	.st94{fill:#7071A3;}
	.st95{fill:#7171A4;}
	.st96{fill:#7272A4;}
	.st97{fill:#7373A5;}
	.st98{fill:#7474A6;}
	.st99{fill:#7576A7;}
	.st100{fill:#7677A7;}
	.st101{fill:#7777A8;}
	.st102{fill:#7878A9;}
	.st103{fill:#7979A9;}
	.st104{fill:#7A7AAA;}
	.st105{fill:#7B7BAA;}
	.st106{fill:#7C7CAB;}
	.st107{fill:#7D7DAB;}
	.st108{fill:#7E7DAC;}
	.st109{fill:#7F7FAD;}
	.st110{fill:#8080AE;}
	.st111{fill:#8181AE;}
	.st112{fill:#8282AF;}
	.st113{fill:#8383B0;}
	.st114{fill:#8484B0;}
	.st115{fill:#8584B1;}
	.st116{fill:#8685B1;}
	.st117{fill:#8786B2;}
	.st118{fill:#8887B2;}
	.st119{fill:#8989B4;}
	.st120{fill:#8A8AB4;}
	.st121{fill:#8B8BB5;}
	.st122{fill:#8C8BB5;}
	.st123{fill:#8D8CB6;}
	.st124{fill:#8E8DB7;}
	.st125{fill:#8F8EB7;}
	.st126{fill:#908FB8;}
	.st127{fill:#9190B8;}
	.st128{fill:#9291B9;}
	.st129{fill:#9393BA;}
	.st130{fill:#9493BB;}
	.st131{fill:#9594BB;}
	.st132{fill:#9695BC;}
	.st133{fill:#9796BC;}
	.st134{fill:#9897BD;}
	.st135{fill:#9998BE;}
	.st136{fill:#9A99BE;}
	.st137{fill:#9B9ABF;}
	.st138{fill:#9C9BBF;}
	.st139{fill:#9C9BC0;}
	.st140{fill:#9E9DC1;}
	.st141{fill:#9F9EC2;}
	.st142{fill:#A09FC2;}
	.st143{fill:#A1A0C3;}
	.st144{fill:#A2A1C3;}
	.st145{fill:#A3A2C4;}
	.st146{fill:#A4A3C5;}
	.st147{fill:#A5A4C5;}
	.st148{fill:#A6A5C6;}
	.st149{fill:#A7A5C6;}
	.st150{fill:#A8A7C8;}
	.st151{fill:#A9A8C8;}
	.st152{fill:#AAA9C9;}
	.st153{fill:url(#SVGID_1_);}
	.st154{fill:none;stroke:#000000;stroke-width:1.8107;}
	.st155{fill:none;stroke:#231F20;stroke-width:1.8107;}
	.st156{fill:none;stroke:#231F20;stroke-width:0.9052;}
	.st157{fill:none;}
	.st158{fill:url(#SVGID_2_);}
	.st159{fill:url(#SVGID_3_);}
	.st160{fill:url(#SVGID_4_);}
	.st161{fill:url(#SVGID_5_);}
	.st162{fill:url(#SVGID_6_);}
	.st163{fill:url(#SVGID_7_);}
	.st164{fill:url(#SVGID_8_);}
	.st165{fill:url(#SVGID_9_);}
	.st166{fill:url(#SVGID_10_);}
	.st167{fill:url(#SVGID_11_);}
	.st168{fill:url(#SVGID_12_);}
	.st169{fill:url(#SVGID_13_);}
	.st170{fill:url(#SVGID_14_);}
	.st171{fill:url(#SVGID_15_);}
	.st172{fill:url(#SVGID_16_);}
	.st173{fill:url(#SVGID_17_);}
	.st174{fill:url(#SVGID_18_);}
	.st175{fill:url(#SVGID_19_);}
	.st176{fill:url(#SVGID_20_);}
	.st177{fill:url(#SVGID_21_);}
	.st178{fill:url(#SVGID_22_);}
	.st179{fill:url(#SVGID_23_);}
	.st180{fill:url(#SVGID_24_);}
	.st181{fill:url(#SVGID_25_);}
	.st182{fill:url(#SVGID_26_);}
	.st183{fill:url(#SVGID_27_);}
	.st184{fill:url(#SVGID_28_);}
	.st185{fill:url(#SVGID_29_);}
	.st186{fill:url(#SVGID_30_);}
	.st187{fill:url(#SVGID_31_);}
	.st188{fill:url(#SVGID_32_);}
	.st189{fill:url(#SVGID_33_);}
	.st190{fill:url(#SVGID_34_);}
	.st191{fill:url(#SVGID_35_);}
	.st192{fill:url(#SVGID_36_);}
	.st193{fill:url(#SVGID_37_);}
	.st194{fill:url(#SVGID_38_);}
	.st195{fill:url(#SVGID_39_);}
	.st196{fill:url(#SVGID_40_);}
	.st197{fill:url(#SVGID_41_);}
	.st198{fill:url(#SVGID_42_);}
	.st199{fill:url(#SVGID_43_);}
	.st200{fill:url(#SVGID_44_);}
	.st201{fill:url(#SVGID_45_);}
	.st202{fill:url(#SVGID_46_);}
	.st203{fill:url(#SVGID_47_);}
	.st204{fill:url(#SVGID_48_);}
	.st205{fill:url(#SVGID_49_);}
	.st206{fill:url(#SVGID_50_);}
	.st207{fill:url(#SVGID_51_);}
	.st208{fill:url(#SVGID_52_);}
	.st209{fill:url(#SVGID_53_);}
	.st210{fill:url(#SVGID_54_);}
	.st211{fill:url(#SVGID_55_);}
	.st212{fill:url(#SVGID_56_);}
	.st213{fill:url(#SVGID_57_);}
	.st214{fill:url(#SVGID_58_);}
	.st215{fill:url(#SVGID_59_);}
	.st216{fill:url(#SVGID_60_);}
	.st217{fill:url(#SVGID_61_);}
	.st218{fill:url(#SVGID_62_);}
	.st219{fill:url(#SVGID_63_);}
	.st220{fill:url(#SVGID_64_);}
</style>
<g id="Layer_1_1_" class="st0">
</g>
<g>
	<path class="st1" d="M136.9,50.6c0,18.5-29,33.4-64.7,33.4C36.4,84,7.4,69,7.4,50.6c0-18.5,29-33.4,64.7-33.4
		C107.9,17.1,136.9,32.1,136.9,50.6z"/>
</g>
<g>
	<path class="st1" d="M106.1,40.9c0.2,8-20.3,27.2-50.5,27.2c-30.2,0-49.9-5.8-49.9-22.5c0-16.7,24.5-29.1,54.7-30.3
		C97.9,13.9,105.7,24,106.1,40.9z"/>
	<path class="st2" d="M105.8,40.8c0.2,7.9-20.1,27.1-50.2,27.1C25.5,67.9,6,62.2,6,45.5c0-16.6,24.4-29,54.4-30.1
		C97.6,14,105.3,24.1,105.8,40.8z"/>
	<path class="st3" d="M105.4,40.8c0.2,7.9-20,26.9-49.9,26.9C25.6,67.7,6.2,62,6.2,45.5c0-16.5,24.2-28.8,54.1-30
		C97.3,14.1,105,24.2,105.4,40.8z"/>
	<path class="st4" d="M105.1,40.8c0.2,7.9-19.9,26.8-49.6,26.8c-29.7,0-49-5.7-49-22.1c0-16.5,24.1-28.6,53.8-29.8
		C97,14.2,104.6,24.2,105.1,40.8z"/>
	<path class="st5" d="M104.7,40.8c0.2,7.8-19.8,26.6-49.4,26.6c-29.5,0-48.8-5.7-48.8-22c0-16.4,24-28.5,53.5-29.6
		C96.6,14.3,104.2,24.3,104.7,40.8z"/>
	<path class="st6" d="M104.3,40.7c0.2,7.8-19.7,26.5-49.1,26.5c-29.4,0-48.5-5.6-48.5-21.9C6.8,29.1,30.6,17,60,15.9
		C96.3,14.5,103.9,24.4,104.3,40.7z"/>
	<path class="st7" d="M104,40.7C104.2,48.5,84.4,67,55.2,67C26,67,7,61.4,7,45.3C7,29.1,30.7,17.1,59.9,16
		C96,14.6,103.5,24.4,104,40.7z"/>
	<path class="st8" d="M103.6,40.7c0.2,7.7-19.5,26.2-48.5,26.2c-29,0-47.9-5.6-47.9-21.7c0-16.1,23.6-28,52.6-29.1
		C95.7,14.7,103.2,24.5,103.6,40.7z"/>
	<path class="st9" d="M103.3,40.7c0.2,7.7-19.4,26-48.2,26c-28.9,0-47.6-5.6-47.6-21.5c0-16,23.4-27.8,52.2-28.9
		C95.3,14.8,102.8,24.6,103.3,40.7z"/>
	<path class="st10" d="M102.9,40.6c0.2,7.6-19.3,25.9-47.9,25.9C26.3,66.5,7.6,61,7.6,45.1c0-15.9,23.3-27.7,51.9-28.8
		C95,15,102.5,24.6,102.9,40.6z"/>
	<path class="st11" d="M102.6,40.6c0.2,7.6-19.2,25.7-47.7,25.7C26.4,66.3,7.8,60.8,7.8,45c0-15.8,23.1-27.5,51.6-28.6
		C94.7,15.1,102.1,24.7,102.6,40.6z"/>
	<path class="st12" d="M102.2,40.6c0.2,7.6-19,25.6-47.4,25.6C26.5,66.2,8,60.7,8,45c0-15.7,23-27.3,51.3-28.4
		C94.4,15.2,101.8,24.8,102.2,40.6z"/>
	<path class="st13" d="M101.9,40.6C102.1,48.1,82.9,66,54.7,66C26.6,66,8.2,60.5,8.2,44.9c0-15.6,22.9-27.2,51-28.2
		C94,15.3,101.4,24.9,101.9,40.6z"/>
	<path class="st14" d="M101.5,40.5c0.2,7.5-18.8,25.3-46.8,25.3c-28,0-46.3-5.4-46.3-20.9c0-15.5,22.7-27,50.7-28.1
		C93.7,15.5,101.1,24.9,101.5,40.5z"/>
	<path class="st15" d="M101.1,40.5c0.2,7.5-18.7,25.1-46.5,25.1c-27.8,0-46-5.4-46-20.8C8.6,29.4,31.2,18,59,16.9
		C93.4,15.6,100.7,25,101.1,40.5z"/>
	<path class="st16" d="M100.8,40.5c0.2,7.4-18.6,25-46.3,25c-27.7,0-45.7-5.4-45.7-20.7c0-15.3,22.4-26.7,50.1-27.7
		C93,15.7,100.4,25.1,100.8,40.5z"/>
	<path class="st17" d="M100.4,40.4c0.2,7.4-18.5,24.8-46,24.8C26.9,65.3,9,59.9,9,44.7c0-15.2,22.3-26.5,49.8-27.6
		C92.7,15.8,100,25.1,100.4,40.4z"/>
	<path class="st18" d="M100.1,40.4c0.2,7.4-18.4,24.7-45.7,24.7C27,65.1,9.2,59.8,9.2,44.6c0-15.1,22.2-26.4,49.5-27.4
		C92.4,16,99.6,25.2,100.1,40.4z"/>
	<path class="st19" d="M99.7,40.4c0.2,7.3-18.3,24.5-45.4,24.5c-27.2,0-44.9-5.3-44.9-20.3c0-15,22-26.2,49.2-27.2
		C92.1,16.1,99.3,25.3,99.7,40.4z"/>
	<path class="st20" d="M99.4,40.4c0.2,7.3-18.2,24.4-45.1,24.4c-27,0-44.6-5.3-44.6-20.2c0-14.9,21.9-26,48.9-27.1
		C91.7,16.2,98.9,25.3,99.4,40.4z"/>
	<path class="st21" d="M99,40.3c0.2,7.2-18.1,24.2-44.9,24.2c-26.8,0-44.3-5.3-44.3-20.1c0-14.8,21.8-25.9,48.5-26.9
		C91.4,16.3,98.6,25.4,99,40.3z"/>
	<path class="st22" d="M98.6,40.3c0.2,7.2-17.9,24.1-44.6,24.1c-26.6,0-44.1-5.2-44.1-20c0-14.8,21.6-25.7,48.2-26.7
		C91.1,16.4,98.2,25.5,98.6,40.3z"/>
	<path class="st23" d="M98.3,40.3c0.2,7.2-17.8,23.9-44.3,23.9c-26.5,0-43.8-5.2-43.8-19.9c0-14.7,21.5-25.5,47.9-26.5
		C90.8,16.6,97.9,25.5,98.3,40.3z"/>
	<path class="st24" d="M97.9,40.3c0.2,7.1-17.7,23.8-44,23.8c-26.3,0-43.5-5.2-43.5-19.7c0-14.6,21.3-25.4,47.6-26.4
		C90.4,16.7,97.5,25.6,97.9,40.3z"/>
	<path class="st25" d="M97.6,40.2c0.2,7.1-17.6,23.6-43.7,23.6c-26.1,0-43.2-5.2-43.2-19.6C10.6,29.8,31.8,19,57.9,18
		C90.1,16.8,97.2,25.7,97.6,40.2z"/>
	<path class="st26" d="M97.2,40.2c0.2,7.1-17.5,23.5-43.5,23.5c-26,0-42.9-5.1-42.9-19.5c0-14.4,21.1-25.1,47-26
		C89.8,16.9,96.8,25.8,97.2,40.2z"/>
	<path class="st27" d="M96.9,40.2c0.2,7-17.4,23.3-43.2,23.3C27.9,63.5,11,58.4,11,44.1c0-14.3,20.9-24.9,46.7-25.9
		C89.4,17.1,96.5,25.8,96.9,40.2z"/>
	<path class="st28" d="M96.5,40.2c0.2,7-17.3,23.2-42.9,23.2c-25.6,0-42.4-5.1-42.4-19.3c0-14.2,20.8-24.7,46.4-25.7
		C89.1,17.2,96.1,25.9,96.5,40.2z"/>
	<path class="st29" d="M96.1,40.1c0.2,7-17.2,23-42.6,23c-25.4,0-42.1-5.1-42.1-19.2c0-14.1,20.6-24.6,46.1-25.5
		C88.8,17.3,95.8,26,96.1,40.1z"/>
	<path class="st30" d="M95.8,40.1C96,47,78.7,63,53.4,63c-25.3,0-41.8-5-41.8-19c0-14,20.5-24.4,45.8-25.3
		C88.5,17.4,95.4,26,95.8,40.1z"/>
	<path class="st31" d="M95.4,40.1c0.2,6.9-17,22.7-42.1,22.7c-25.1,0-41.6-5-41.6-18.9c0-13.9,20.4-24.2,45.5-25.2
		C88.1,17.6,95,26.1,95.4,40.1z"/>
	<path class="st32" d="M95.1,40.1c0.2,6.8-16.8,22.6-41.8,22.6c-24.9,0-41.3-5-41.3-18.8c0-13.8,20.2-24.1,45.1-25
		C87.8,17.7,94.7,26.2,95.1,40.1z"/>
	<path class="st33" d="M94.7,40c0.2,6.8-16.7,22.4-41.5,22.4c-24.8,0-41-5-41-18.7c0-13.7,20.1-23.9,44.8-24.8
		C87.5,17.8,94.3,26.2,94.7,40z"/>
	<path class="st34" d="M94.4,40c0.2,6.8-16.6,22.3-41.2,22.3c-24.6,0-40.7-4.9-40.7-18.6c0-13.6,20-23.7,44.5-24.7
		C87.2,17.9,94,26.3,94.4,40z"/>
	<path class="st35" d="M94,40c0.2,6.7-16.5,22.1-40.9,22.1c-24.4,0-40.5-4.9-40.5-18.4c0-13.5,19.8-23.6,44.2-24.5
		C86.8,18,93.6,26.4,94,40z"/>
	<path class="st36" d="M93.6,40c0.2,6.7-16.4,22-40.7,22c-24.3,0-40.2-4.9-40.2-18.3c0-13.4,19.7-23.4,43.9-24.3
		C86.5,18.2,93.3,26.4,93.6,40z"/>
	<path class="st37" d="M93.3,39.9c0.2,6.7-16.3,21.8-40.4,21.8C28.8,61.7,13,56.9,13,43.5c0-13.3,19.5-23.3,43.6-24.1
		C86.2,18.3,92.9,26.5,93.3,39.9z"/>
	<path class="st38" d="M92.9,39.9c0.2,6.6-16.2,21.7-40.1,21.7c-23.9,0-39.6-4.8-39.6-18.1c0-13.2,19.4-23.1,43.3-24
		C85.9,18.4,92.6,26.6,92.9,39.9z"/>
	<path class="st39" d="M92.6,39.9c0.2,6.6-16.1,21.5-39.8,21.5c-23.7,0-39.3-4.8-39.3-18c0-13.1,19.3-22.9,43-23.8
		C85.5,18.5,92.2,26.7,92.6,39.9z"/>
	<path class="st40" d="M92.2,39.9c0.2,6.6-16,21.4-39.5,21.4c-23.6,0-39.1-4.8-39.1-17.8c0-13.1,19.1-22.8,42.7-23.6
		C85.2,18.7,91.9,26.7,92.2,39.9z"/>
	<path class="st41" d="M91.9,39.8C92,46.3,76,61,52.6,61c-23.4,0-38.8-4.8-38.8-17.7c0-13,19-22.6,42.4-23.5
		C84.9,18.8,91.5,26.8,91.9,39.8z"/>
	<path class="st42" d="M91.5,39.8c0.2,6.5-15.7,21.1-39,21.1C29.3,60.9,14,56.1,14,43.3C14,30.4,32.9,20.8,56.1,20
		C84.5,18.9,91.2,26.9,91.5,39.8z"/>
	<path class="st43" d="M91.1,39.8c0.2,6.4-15.6,20.9-38.7,20.9c-23.1,0-38.2-4.7-38.2-17.5c0-12.8,18.7-22.3,41.7-23.1
		C84.2,19,90.8,26.9,91.1,39.8z"/>
	<path class="st44" d="M90.8,39.8c0.2,6.4-15.5,20.8-38.4,20.8c-22.9,0-38-4.7-38-17.4C14.4,30.5,33,21,55.9,20.2
		C83.9,19.2,90.4,27,90.8,39.8z"/>
	<path class="st45" d="M90.4,39.7c0.2,6.4-15.4,20.6-38.1,20.6c-22.7,0-37.7-4.7-37.7-17.2c0-12.6,18.4-21.9,41.1-22.8
		C83.6,19.3,90.1,27.1,90.4,39.7z"/>
	<path class="st46" d="M90.1,39.7c0.2,6.3-15.3,20.4-37.8,20.4c-22.5,0-37.4-4.6-37.4-17.1c0-12.5,18.3-21.8,40.8-22.6
		C83.2,19.4,89.7,27.1,90.1,39.7z"/>
	<path class="st47" d="M89.7,39.7C89.9,46,74.5,60,52.1,60C29.8,60,15,55.4,15,43c0-12.4,18.2-21.6,40.5-22.4
		C82.9,19.5,89.4,27.2,89.7,39.7z"/>
	<path class="st48" d="M89.4,39.6c0.2,6.3-15.1,20.1-37.3,20.1c-22.2,0-36.9-4.6-36.9-16.9c0-12.3,18-21.5,40.2-22.3
		C82.6,19.7,89,27.3,89.4,39.6z"/>
	<path class="st49" d="M89,39.6c0.2,6.2-15,20-37,20c-22,0-36.6-4.6-36.6-16.8c0-12.2,17.9-21.3,39.9-22.1
		C82.3,19.8,88.7,27.3,89,39.6z"/>
	<path class="st50" d="M88.6,39.6c0.1,6.2-14.9,19.8-36.7,19.8c-21.9,0-36.3-4.5-36.3-16.6c0-12.1,17.7-21.1,39.6-21.9
		C81.9,19.9,88.3,27.4,88.6,39.6z"/>
	<path class="st51" d="M88.3,39.6c0.1,6.1-14.7,19.7-36.4,19.7c-21.7,0-36-4.5-36-16.5c0-12,17.6-21,39.3-21.7
		C81.6,20,88,27.5,88.3,39.6z"/>
	<path class="st52" d="M87.9,39.5c0.1,6.1-14.6,19.5-36.2,19.5C30.2,59.1,16,54.6,16,42.7c0-11.9,17.5-20.8,39-21.6
		C81.3,20.1,87.6,27.6,87.9,39.5z"/>
	<path class="st53" d="M87.6,39.5c0.1,6.1-14.5,19.4-35.9,19.4c-21.4,0-35.5-4.5-35.5-16.3c0-11.8,17.3-20.6,38.7-21.4
		C81,20.3,87.3,27.6,87.6,39.5z"/>
	<path class="st54" d="M87.2,39.5c0.1,6-14.4,19.2-35.6,19.2c-21.2,0-35.2-4.4-35.2-16.2c0-11.7,17.2-20.5,38.4-21.2
		C80.6,20.4,86.9,27.7,87.2,39.5z"/>
	<path class="st55" d="M86.9,39.5c0.1,6-14.3,19.1-35.3,19.1c-21,0-34.9-4.4-34.9-16c0-11.6,17-20.3,38-21.1
		C80.3,20.5,86.6,27.8,86.9,39.5z"/>
	<path class="st56" d="M86.5,39.4c0.1,6-14.2,18.9-35,18.9c-20.8,0-34.6-4.4-34.6-15.9c0-11.5,16.9-20.2,37.7-20.9
		C80,20.6,86.2,27.8,86.5,39.4z"/>
	<path class="st57" d="M86.1,39.4c0.1,5.9-14.1,18.8-34.8,18.8C30.7,58.2,17,53.8,17,42.4c0-11.4,16.8-20,37.4-20.7
		C79.6,20.8,85.8,27.9,86.1,39.4z"/>
	<path class="st58" d="M85.8,39.4c0.1,5.9-14,18.6-34.5,18.6c-20.5,0-34.1-4.3-34.1-15.7c0-11.4,16.6-19.8,37.1-20.6
		C79.3,20.9,85.5,28,85.8,39.4z"/>
	<path class="st59" d="M85.4,39.4c0.1,5.9-13.9,18.5-34.2,18.5c-20.3,0-33.8-4.3-33.8-15.6c0-11.3,16.5-19.7,36.8-20.4
		C79,21,85.1,28,85.4,39.4z"/>
	<path class="st60" d="M85.1,39.3c0.1,5.8-13.8,18.3-33.9,18.3c-20.2,0-33.5-4.3-33.5-15.5C17.6,31.1,34,22.7,54.1,22
		C78.7,21.1,84.8,28.1,85.1,39.3z"/>
	<path class="st61" d="M84.7,39.3c0.1,5.8-13.6,18.2-33.6,18.2c-20,0-33.3-4.3-33.3-15.3c0-11.1,16.2-19.3,36.2-20
		C78.3,21.3,84.4,28.2,84.7,39.3z"/>
	<path class="st62" d="M84.4,39.3c0.1,5.7-13.5,18-33.4,18c-19.8,0-33-4.2-33-15.2c0-11,16.1-19.2,35.9-19.9
		C78,21.4,84.1,28.2,84.4,39.3z"/>
	<path class="st63" d="M84,39.3c0.1,5.7-13.4,17.9-33.1,17.9c-19.6,0-32.7-4.2-32.7-15.1c0-10.9,15.9-19,35.6-19.7
		C77.7,21.5,83.7,28.3,84,39.3z"/>
	<path class="st64" d="M83.6,39.2C83.8,44.9,70.3,57,50.9,57c-19.5,0-32.4-4.2-32.4-15c0-10.8,15.8-18.8,35.3-19.5
		C77.4,21.6,83.4,28.4,83.6,39.2z"/>
	<path class="st65" d="M83.3,39.2c0.1,5.6-13.2,17.6-32.5,17.6c-19.3,0-32.2-4.2-32.2-14.9c0-10.7,15.7-18.7,35-19.4
		C77,21.7,83,28.5,83.3,39.2z"/>
	<path class="st66" d="M82.9,39.2c0.1,5.6-13.1,17.4-32.2,17.4c-19.1,0-31.9-4.1-31.9-14.7c0-10.6,15.5-18.5,34.6-19.2
		C76.7,21.9,82.7,28.5,82.9,39.2z"/>
	<path class="st67" d="M82.6,39.2c0.1,5.6-13,17.3-31.9,17.3c-19,0-31.6-4.1-31.6-14.6c0-10.5,15.4-18.4,34.3-19
		C76.4,22,82.3,28.6,82.6,39.2z"/>
	<path class="st68" d="M82.2,39.1c0.1,5.5-12.9,17.1-31.7,17.1c-18.8,0-31.3-4.1-31.3-14.5c0-10.4,15.2-18.2,34-18.8
		C76,22.1,82,28.7,82.2,39.1z"/>
	<path class="st69" d="M81.9,39.1c0.1,5.5-12.8,17-31.4,17c-18.6,0-31.1-4.1-31.1-14.4c0-10.3,15.1-18,33.7-18.7
		C75.7,22.2,81.6,28.7,81.9,39.1z"/>
	<path class="st70" d="M81.5,39.1c0.1,5.5-12.7,16.8-31.1,16.8c-18.5,0-30.8-4-30.8-14.3c0-10.2,15-17.9,33.4-18.5
		C75.4,22.4,81.2,28.8,81.5,39.1z"/>
	<path class="st71" d="M81.1,39.1c0.1,5.4-12.5,16.7-30.8,16.7c-18.3,0-30.5-4-30.5-14.1c0-10.1,14.8-17.7,33.1-18.3
		C75.1,22.5,80.9,28.9,81.1,39.1z"/>
	<path class="st72" d="M80.8,39c0.1,5.4-12.4,16.5-30.5,16.5c-18.1,0-30.2-4-30.2-14c0-10,14.7-17.5,32.8-18.2
		C74.7,22.6,80.5,28.9,80.8,39z"/>
	<path class="st73" d="M80.4,39c0.1,5.3-12.3,16.4-30.3,16.4c-17.9,0-29.9-4-29.9-13.9c0-9.9,14.6-17.4,32.5-18
		C74.4,22.7,80.2,29,80.4,39z"/>
	<path class="st74" d="M80.1,39c0.1,5.3-12.2,16.2-30,16.2c-17.8,0-29.7-3.9-29.7-13.8c0-9.8,14.4-17.2,32.2-17.8
		C74.1,22.9,79.8,29.1,80.1,39z"/>
	<path class="st75" d="M79.7,38.9C79.8,44.2,67.6,55,50,55c-17.6,0-29.4-3.9-29.4-13.7c0-9.7,14.3-17.1,31.9-17.6
		C73.8,23,79.5,29.1,79.7,38.9z"/>
	<path class="st76" d="M79.4,38.9c0.1,5.2-12,15.9-29.4,15.9c-17.4,0-29.1-3.9-29.1-13.5c0-9.7,14.1-16.9,31.6-17.5
		C73.4,23.1,79.1,29.2,79.4,38.9z"/>
	<path class="st77" d="M79,38.9c0.1,5.2-11.9,15.8-29.1,15.8C32.6,54.7,21,50.8,21,41.3s14-16.7,31.3-17.3
		C73.1,23.2,78.8,29.3,79,38.9z"/>
	<path class="st78" d="M78.6,38.9c0.1,5.2-11.8,15.6-28.9,15.6c-17.1,0-28.6-3.8-28.6-13.3s13.9-16.6,30.9-17.1
		C72.8,23.4,78.4,29.4,78.6,38.9z"/>
	<path class="st79" d="M78.3,38.8c0.1,5.1-11.7,15.5-28.6,15.5c-16.9,0-28.3-3.8-28.3-13.2c0-9.4,13.7-16.4,30.6-17
		C72.5,23.5,78.1,29.4,78.3,38.8z"/>
	<path class="st80" d="M77.9,38.8c0.1,5.1-11.6,15.3-28.3,15.3c-16.7,0-28-3.8-28-13.1c0-9.3,13.6-16.2,30.3-16.8
		C72.1,23.6,77.7,29.5,77.9,38.8z"/>
	<path class="st81" d="M77.6,38.8c0.1,5.1-11.4,15.2-28,15.2C33,54,21.8,50.2,21.8,41c0-9.2,13.4-16.1,30-16.6
		C71.8,23.7,77.4,29.6,77.6,38.8z"/>
	<path class="st82" d="M77.2,38.8c0.1,5-11.3,15-27.7,15C33.1,53.8,22,50,22,41c0-9.1,13.3-15.9,29.7-16.4
		C71.5,23.8,77,29.6,77.2,38.8z"/>
	<path class="st83" d="M76.9,38.7c0.1,5-11.2,14.9-27.5,14.9c-16.2,0-27.2-3.7-27.2-12.7c0-9,13.2-15.7,29.4-16.3
		C71.1,24,76.6,29.7,76.9,38.7z"/>
	<path class="st84" d="M76.5,38.7c0.1,4.9-11.1,14.7-27.2,14.7c-16.1,0-26.9-3.7-26.9-12.6c0-8.9,13-15.6,29.1-16.1
		C70.8,24.1,76.3,29.8,76.5,38.7z"/>
	<path class="st85" d="M76.1,38.7c0.1,4.9-11,14.6-26.9,14.6c-15.9,0-26.6-3.7-26.6-12.5c0-8.8,12.9-15.4,28.8-15.9
		C70.5,24.2,75.9,29.8,76.1,38.7z"/>
	<path class="st86" d="M75.8,38.7c0.1,4.9-10.9,14.4-26.6,14.4c-15.7,0-26.3-3.6-26.3-12.4c0-8.7,12.8-15.3,28.5-15.8
		C70.2,24.3,75.6,29.9,75.8,38.7z"/>
	<path class="st87" d="M75.4,38.6c0.1,4.8-10.8,14.3-26.3,14.3C33.5,52.9,23,49.3,23,40.7c0-8.6,12.6-15.1,28.2-15.6
		C69.8,24.5,75.2,30,75.4,38.6z"/>
	<path class="st88" d="M75.1,38.6c0.1,4.8-10.7,14.1-26.1,14.1c-15.4,0-25.8-3.6-25.8-12.1c0-8.5,12.5-14.9,27.9-15.4
		C69.5,24.6,74.9,30,75.1,38.6z"/>
	<path class="st89" d="M74.7,38.6c0.1,4.8-10.6,14-25.8,14c-15.2,0-25.5-3.6-25.5-12c0-8.4,12.3-14.8,27.5-15.3
		C69.2,24.7,74.5,30.1,74.7,38.6z"/>
	<path class="st90" d="M74.4,38.6c0.1,4.7-10.5,13.8-25.5,13.8c-15,0-25.2-3.5-25.2-11.9c0-8.3,12.2-14.6,27.2-15.1
		C68.9,24.8,74.2,30.2,74.4,38.6z"/>
	<path class="st91" d="M74,38.5c0.1,4.7-10.3,13.7-25.2,13.7c-14.9,0-25-3.5-25-11.8c0-8.2,12.1-14.4,26.9-14.9
		C68.5,25,73.8,30.3,74,38.5z"/>
	<path class="st92" d="M73.6,38.5C73.7,43.2,63.4,52,48.7,52C34,52,24,48.5,24,40.4c0-8.1,11.9-14.3,26.6-14.7
		C68.2,25.1,73.5,30.3,73.6,38.5z"/>
	<path class="st93" d="M73.3,38.5c0.1,4.6-10.1,13.4-24.7,13.4c-14.5,0-24.4-3.5-24.4-11.5c0-8,11.8-14.1,26.3-14.6
		C67.9,25.2,73.1,30.4,73.3,38.5z"/>
	<path class="st94" d="M72.9,38.5c0.1,4.6-10,13.2-24.4,13.2c-14.4,0-24.1-3.4-24.1-11.4c0-8,11.6-13.9,26-14.4
		C67.6,25.3,72.8,30.5,72.9,38.5z"/>
	<path class="st95" d="M72.6,38.4c0.1,4.5-9.9,13.1-24.1,13.1c-14.2,0-23.9-3.4-23.9-11.3c0-7.9,11.5-13.8,25.7-14.2
		C67.2,25.4,72.4,30.5,72.6,38.4z"/>
	<path class="st96" d="M72.2,38.4c0.1,4.5-9.8,12.9-23.8,12.9c-14,0-23.6-3.4-23.6-11.2c0-7.8,11.4-13.6,25.4-14.1
		C66.9,25.6,72.1,30.6,72.2,38.4z"/>
	<path class="st97" d="M71.9,38.4c0.1,4.5-9.7,12.8-23.5,12.8c-13.8,0-23.3-3.4-23.3-11c0-7.7,11.2-13.5,25.1-13.9
		C66.6,25.7,71.7,30.7,71.9,38.4z"/>
	<path class="st98" d="M71.5,38.4C71.6,42.8,61.9,51,48.3,51c-13.7,0-23-3.3-23-10.9c0-7.6,11.1-13.3,24.8-13.7
		C66.2,25.8,71.4,30.7,71.5,38.4z"/>
	<path class="st99" d="M71.1,38.3c0.1,4.4-9.5,12.5-23,12.5c-13.5,0-22.8-3.3-22.8-10.8c0-7.5,11-13.1,24.5-13.5
		C65.9,25.9,71,30.8,71.1,38.3z"/>
	<path class="st100" d="M70.8,38.3c0.1,4.4-9.4,12.3-22.7,12.3c-13.3,0-22.5-3.3-22.5-10.7c0-7.4,10.8-13,24.1-13.4
		C65.6,26.1,70.6,30.9,70.8,38.3z"/>
	<path class="st101" d="M70.4,38.3c0.1,4.3-9.2,12.2-22.4,12.2c-13.2,0-22.2-3.3-22.2-10.6c0-7.3,10.7-12.8,23.8-13.2
		C65.3,26.2,70.3,31,70.4,38.3z"/>
	<path class="st102" d="M70.1,38.3c0.1,4.3-9.1,12-22.1,12C35,50.3,26,47,26,39.8c0-7.2,10.5-12.6,23.5-13
		C64.9,26.3,69.9,31,70.1,38.3z"/>
	<path class="st103" d="M69.7,38.2c0.1,4.3-9,11.9-21.8,11.9c-12.8,0-21.6-3.2-21.6-10.3c0-7.1,10.4-12.5,23.2-12.9
		C64.6,26.4,69.6,31.1,69.7,38.2z"/>
	<path class="st104" d="M69.4,38.2c0.1,4.2-8.9,11.7-21.6,11.7c-12.7,0-21.4-3.2-21.4-10.2c0-7,10.3-12.3,22.9-12.7
		C64.3,26.6,69.2,31.2,69.4,38.2z"/>
	<path class="st105" d="M69,38.2c0.1,4.2-8.8,11.6-21.3,11.6c-12.5,0-21.1-3.2-21.1-10.1c0-6.9,10.1-12.2,22.6-12.5
		C64,26.7,68.9,31.2,69,38.2z"/>
	<path class="st106" d="M68.6,38.1c0.1,4.1-8.7,11.4-21,11.4c-12.3,0-20.8-3.1-20.8-10c0-6.8,10-12,22.3-12.3
		C63.6,26.8,68.5,31.3,68.6,38.1z"/>
	<path class="st107" d="M68.3,38.1c0.1,4.1-8.6,11.3-20.7,11.3c-12.1,0-20.5-3.1-20.5-9.8c0-6.7,9.9-11.8,22-12.2
		C63.3,26.9,68.2,31.4,68.3,38.1z"/>
	<path class="st108" d="M67.9,38.1c0.1,4.1-8.5,11.1-20.4,11.1c-12,0-20.3-3.1-20.3-9.7c0-6.6,9.7-11.7,21.7-12
		C63,27.1,67.8,31.4,67.9,38.1z"/>
	<path class="st109" d="M67.6,38.1c0.1,4-8.4,11-20.2,11c-11.8,0-20-3.1-20-9.6c0-6.5,9.6-11.5,21.4-11.8
		C62.7,27.2,67.5,31.5,67.6,38.1z"/>
	<path class="st110" d="M67.2,38c0.1,4-8.3,10.8-19.9,10.8c-11.6,0-19.7-3-19.7-9.5c0-6.4,9.4-11.3,21.1-11.7
		C62.3,27.3,67.1,31.6,67.2,38z"/>
	<path class="st111" d="M66.9,38c0.1,4-8.1,10.7-19.6,10.7c-11.5,0-19.4-3-19.4-9.4c0-6.3,9.3-11.2,20.8-11.5
		C62,27.4,66.7,31.6,66.9,38z"/>
	<path class="st112" d="M66.5,38c0.1,3.9-8,10.5-19.3,10.5c-11.3,0-19.2-3-19.2-9.2c0-6.3,9.2-11,20.4-11.3
		C61.7,27.5,66.4,31.7,66.5,38z"/>
	<path class="st113" d="M66.1,38c0.1,3.9-7.9,10.4-19,10.4c-11.1,0-18.9-3-18.9-9.1c0-6.2,9-10.8,20.1-11.1
		C61.3,27.7,66,31.8,66.1,38z"/>
	<path class="st114" d="M65.8,37.9C65.9,41.8,58,48.1,47,48.1c-10.9,0-18.6-2.9-18.6-9c0-6.1,8.9-10.7,19.8-11
		C61,27.8,65.7,31.9,65.8,37.9z"/>
	<path class="st115" d="M65.4,37.9C65.5,41.7,57.7,48,47,48c-10.8,0-18.3-2.9-18.3-8.9c0-6,8.7-10.5,19.5-10.8
		C60.7,27.9,65.3,31.9,65.4,37.9z"/>
	<path class="st116" d="M65.1,37.9c0.1,3.8-7.6,9.9-18.2,9.9c-10.6,0-18-2.9-18-8.8c0-5.9,8.6-10.4,19.2-10.6
		C60.4,28,65,32,65.1,37.9z"/>
	<path class="st117" d="M64.7,37.9c0.1,3.7-7.5,9.8-17.9,9.8C36.4,47.6,29,44.7,29,39c0-5.8,8.5-10.2,18.9-10.5
		C60,28.2,64.6,32.1,64.7,37.9z"/>
	<path class="st118" d="M64.4,37.8c0.1,3.7-7.4,9.6-17.6,9.6c-10.3,0-17.5-2.8-17.5-8.5c0-5.7,8.3-10,18.6-10.3
		C59.7,28.3,64.3,32.1,64.4,37.8z"/>
	<path class="st119" d="M64,37.8c0.1,3.7-7.3,9.4-17.4,9.4c-10.1,0-17.2-2.8-17.2-8.4c0-5.6,8.2-9.9,18.3-10.1
		C59.4,28.4,63.9,32.2,64,37.8z"/>
	<path class="st120" d="M63.6,37.8c0.1,3.6-7.2,9.3-17.1,9.3c-9.9,0-16.9-2.8-16.9-8.3c0-5.5,8.1-9.7,18-9.9
		C59.1,28.5,63.6,32.3,63.6,37.8z"/>
	<path class="st121" d="M63.3,37.8c0.1,3.6-7,9.1-16.8,9.1c-9.8,0-16.7-2.8-16.7-8.2c0-5.4,7.9-9.5,17.7-9.8
		C58.7,28.7,63.2,32.3,63.3,37.8z"/>
	<path class="st122" d="M62.9,37.7c0.1,3.6-6.9,9-16.5,9C36.8,46.7,30,44,30,38.7c0-5.3,7.8-9.4,17.4-9.6
		C58.4,28.8,62.9,32.4,62.9,37.7z"/>
	<path class="st123" d="M62.6,37.7c0.1,3.5-6.8,8.8-16.2,8.8c-9.4,0-16.1-2.7-16.1-7.9c0-5.2,7.6-9.2,17-9.4
		C58.1,28.9,62.5,32.5,62.6,37.7z"/>
	<path class="st124" d="M62.2,37.7c0.1,3.5-6.7,8.7-16,8.7c-9.2,0-15.8-2.7-15.8-7.8c0-5.1,7.5-9,16.7-9.3
		C57.7,29,62.1,32.5,62.2,37.7z"/>
	<path class="st125" d="M61.9,37.7c0,3.5-6.6,8.5-15.7,8.5c-9.1,0-15.6-2.7-15.6-7.7c0-5,7.4-8.9,16.4-9.1
		C57.4,29.1,61.8,32.6,61.9,37.7z"/>
	<path class="st126" d="M61.5,37.6C61.6,41,55,46,46.1,46c-8.9,0-15.3-2.7-15.3-7.6c0-4.9,7.2-8.7,16.1-8.9
		C57.1,29.3,61.4,32.7,61.5,37.6z"/>
	<path class="st127" d="M61.1,37.6c0,3.4-6.4,8.2-15.1,8.2c-8.7,0-15-2.6-15-7.5c0-4.8,7.1-8.6,15.8-8.8
		C56.8,29.4,61.1,32.8,61.1,37.6z"/>
	<path class="st128" d="M60.8,37.6c0,3.3-6.3,8.1-14.8,8.1c-8.6,0-14.7-2.6-14.7-7.3c0-4.7,6.9-8.4,15.5-8.6
		C56.4,29.5,60.7,32.8,60.8,37.6z"/>
	<path class="st129" d="M60.4,37.6c0,3.3-6.2,7.9-14.5,7.9c-8.4,0-14.5-2.6-14.5-7.2c0-4.6,6.8-8.2,15.2-8.4
		C56.1,29.6,60.4,32.9,60.4,37.6z"/>
	<path class="st130" d="M60.1,37.5c0,3.3-6,7.8-14.3,7.8c-8.2,0-14.2-2.6-14.2-7.1c0-4.6,6.7-8.1,14.9-8.2
		C55.8,29.8,60,33,60.1,37.5z"/>
	<path class="st131" d="M59.7,37.5c0,3.2-5.9,7.6-14,7.6c-8.1,0-13.9-2.5-13.9-7c0-4.5,6.5-7.9,14.6-8.1
		C55.5,29.9,59.7,33,59.7,37.5z"/>
	<path class="st132" d="M59.4,37.5c0,3.2-5.8,7.5-13.7,7.5C37.8,45,32,42.5,32,38.1c0-4.4,6.4-7.7,14.3-7.9
		C55.1,30,59.3,33.1,59.4,37.5z"/>
	<path class="st133" d="M59,37.4c0,3.2-5.7,7.3-13.4,7.3c-7.7,0-13.3-2.5-13.3-6.7c0-4.3,6.3-7.6,14-7.7C54.8,30.1,59,33.2,59,37.4z
		"/>
	<path class="st134" d="M58.7,37.4c0,3.1-5.6,7.2-13.1,7.2c-7.5,0-13.1-2.5-13.1-6.6c0-4.2,6.1-7.4,13.7-7.6
		C54.5,30.3,58.6,33.2,58.7,37.4z"/>
	<path class="st135" d="M58.3,37.4c0,3.1-5.5,7-12.9,7c-7.4,0-12.8-2.4-12.8-6.5c0-4.1,6-7.3,13.3-7.4
		C54.2,30.4,58.3,33.3,58.3,37.4z"/>
	<path class="st136" d="M57.9,37.4c0,3.1-5.4,6.9-12.6,6.9c-7.2,0-12.5-2.4-12.5-6.4c0-4,5.8-7.1,13-7.2
		C53.8,30.5,57.9,33.4,57.9,37.4z"/>
	<path class="st137" d="M57.6,37.3c0,3-5.3,6.7-12.3,6.7c-7,0-12.2-2.4-12.2-6.3c0-3.9,5.7-6.9,12.7-7
		C53.5,30.6,57.5,33.4,57.6,37.3z"/>
	<path class="st138" d="M57.2,37.3c0,3-5.2,6.6-12,6.6c-6.9,0-12-2.4-12-6.1c0-3.8,5.6-6.8,12.4-6.9C53.2,30.8,57.2,33.5,57.2,37.3z
		"/>
	<path class="st139" d="M56.9,37.3c0,2.9-5.1,6.4-11.7,6.4c-6.7,0-11.7-2.3-11.7-6c0-3.7,5.4-6.6,12.1-6.7
		C52.8,30.9,56.8,33.6,56.9,37.3z"/>
	<path class="st140" d="M56.5,37.3c0,2.9-4.9,6.3-11.5,6.3c-6.5,0-11.4-2.3-11.4-5.9c0-3.6,5.3-6.4,11.8-6.5
		C52.5,31,56.5,33.7,56.5,37.3z"/>
	<path class="st141" d="M56.2,37.2c0,2.9-4.8,6.1-11.2,6.1c-6.3,0-11.1-2.3-11.1-5.8c0-3.5,5.1-6.3,11.5-6.4
		C52.2,31.1,56.1,33.7,56.2,37.2z"/>
	<path class="st142" d="M55.8,37.2c0,2.8-4.7,6-10.9,6c-6.2,0-10.9-2.3-10.9-5.7c0-3.4,5-6.1,11.2-6.2
		C51.9,31.2,55.8,33.8,55.8,37.2z"/>
	<path class="st143" d="M55.4,37.2c0,2.8-4.6,5.8-10.6,5.8c-6,0-10.6-2.2-10.6-5.6c0-3.3,4.9-5.9,10.9-6
		C51.5,31.4,55.4,33.9,55.4,37.2z"/>
	<path class="st144" d="M55.1,37.2c0,2.8-4.5,5.7-10.3,5.7c-5.8,0-10.3-2.2-10.3-5.4c0-3.2,4.7-5.8,10.6-5.8
		C51.2,31.5,55.1,33.9,55.1,37.2z"/>
	<path class="st145" d="M54.7,37.1c0,2.7-4.4,5.5-10.1,5.5c-5.7,0-10-2.2-10-5.3c0-3.1,4.6-5.6,10.3-5.7
		C50.9,31.6,54.7,34,54.7,37.1z"/>
	<path class="st146" d="M54.4,37.1c0,2.7-4.3,5.4-9.8,5.4c-5.5,0-9.8-2.2-9.8-5.2c0-3,4.5-5.5,9.9-5.5
		C50.6,31.7,54.3,34.1,54.4,37.1z"/>
	<path class="st147" d="M54,37.1c0,2.7-4.2,5.2-9.5,5.2c-5.3,0-9.5-2.1-9.5-5.1c0-2.9,4.3-5.3,9.6-5.3C50.2,31.9,54,34.1,54,37.1z"
		/>
	<path class="st148" d="M53.7,37.1c0,2.6-4.1,5.1-9.2,5.1c-5.2,0-9.2-2.1-9.2-5c0-2.9,4.2-5.1,9.3-5.2C49.9,32,53.6,34.2,53.7,37.1z
		"/>
	<path class="st149" d="M53.3,37c0,2.6-4,4.9-8.9,4.9c-5,0-8.9-2.1-8.9-4.8c0-2.8,4-5,9-5C49.6,32.1,53.3,34.3,53.3,37z"/>
	<path class="st150" d="M52.9,37c0,2.5-3.8,4.8-8.7,4.8c-4.8,0-8.6-2.1-8.6-4.7c0-2.7,3.9-4.8,8.7-4.8C49.3,32.2,52.9,34.3,52.9,37z
		"/>
	<path class="st151" d="M52.6,37c0,2.5-3.7,4.6-8.4,4.6c-4.6,0-8.4-2-8.4-4.6c0-2.6,3.8-4.6,8.4-4.6C48.9,32.4,52.6,34.4,52.6,37z"
		/>
	<path class="st152" d="M52.2,37c0,2.5-3.6,4.5-8.1,4.5c-4.5,0-8.1-2-8.1-4.5c0-2.5,3.6-4.5,8.1-4.5C48.6,32.5,52.2,34.5,52.2,37z"
		/>
</g>
<linearGradient id="SVGID_1_" gradientUnits="userSpaceOnUse" x1="77.6703" y1="86.9726" x2="64.4139" y2="-1.869">
	<stop  offset="5.494000e-03" style="stop-color:#231F20"/>
	<stop  offset="2.825003e-02" style="stop-color:#1F242D"/>
	<stop  offset="9.841450e-02" style="stop-color:#143151"/>
	<stop  offset="0.1694" style="stop-color:#0B3C6C"/>
	<stop  offset="0.2405" style="stop-color:#054380"/>
	<stop  offset="0.3121" style="stop-color:#01488C"/>
	<stop  offset="0.3846" style="stop-color:#004990"/>
	<stop  offset="1" style="stop-color:#004990"/>
</linearGradient>
<path class="st153" d="M88.7,18.2c9.9,5.1,16,12.2,16,20.1c0,15.6-24.2,28.3-53.9,28.3c-17.3,0-32.7-4.3-42.6-10.9
	c4.8,16,31.6,28.3,64,28.3c35.7,0,64.7-15,64.7-33.4C136.9,35.1,116.4,22,88.7,18.2z"/>
<g>
	<path class="st154" d="M136.1,55.6"/>
	<g>
		<path class="st155" d="M142.1,50.5c0,20.9-31.4,37.8-70.1,37.8c-38.7,0-70.1-16.9-70.1-37.8c0-20.9,31.4-37.8,70.1-37.8
			C110.7,12.7,142.1,29.6,142.1,50.5z"/>
		<path class="st156" d="M136.3,50.4c0,18.3-28.8,33.2-64.3,33.2c-35.5,0-64.3-14.9-64.3-33.2c0-18.3,28.8-33.2,64.3-33.2
			C107.6,17.1,136.3,32,136.3,50.4z"/>
		<path class="st157" d="M142.1,50.5c0,20.9-31.4,37.8-70.1,37.8c-38.7,0-70.1-16.9-70.1-37.8c0-20.9,31.4-37.8,70.1-37.8
			C110.7,12.7,142.1,29.6,142.1,50.5z"/>
		<path class="st157" d="M140.9,50.1c0,20.2-30.8,36.5-68.8,36.5c-38,0-68.8-16.4-68.8-36.5c0-20.2,30.8-36.5,68.8-36.5
			C110.1,13.6,140.9,30,140.9,50.1z"/>
		<linearGradient id="SVGID_2_" gradientUnits="userSpaceOnUse" x1="1.8981" y1="50.5" x2="142.1019" y2="50.5">
			<stop  offset="5.494000e-03" style="stop-color:#808080"/>
			<stop  offset="0.1538" style="stop-color:#FFFFFF"/>
			<stop  offset="0.1942" style="stop-color:#F4F4F4"/>
			<stop  offset="0.3001" style="stop-color:#DDDDDD"/>
			<stop  offset="0.3991" style="stop-color:#CECECE"/>
			<stop  offset="0.4835" style="stop-color:#C9C9C9"/>
			<stop  offset="0.4885" style="stop-color:#C0C0C0"/>
			<stop  offset="0.5136" style="stop-color:#979797"/>
			<stop  offset="0.5394" style="stop-color:#757575"/>
			<stop  offset="0.5654" style="stop-color:#5A5A5A"/>
			<stop  offset="0.5919" style="stop-color:#474747"/>
			<stop  offset="0.6192" style="stop-color:#3C3C3C"/>
			<stop  offset="0.6484" style="stop-color:#383838"/>
			<stop  offset="0.8352" style="stop-color:#383838"/>
			<stop  offset="1" style="stop-color:#7A7A7A"/>
		</linearGradient>
		<path class="st158" d="M72,12.7c-38.7,0-70.1,16.9-70.1,37.8c0,20.9,31.4,37.8,70.1,37.8c38.7,0,70.1-16.9,70.1-37.8
			C142.1,29.6,110.7,12.7,72,12.7z M72.1,86.7c-38,0-68.8-16.4-68.8-36.5c0-20.2,30.8-36.5,68.8-36.5c38,0,68.8,16.4,68.8,36.5
			C140.9,70.3,110.1,86.7,72.1,86.7z"/>
		<path class="st157" d="M136.3,50.4c0,18.3-28.8,33.2-64.3,33.2c-35.5,0-64.3-14.9-64.3-33.2c0-18.3,28.8-33.2,64.3-33.2
			C107.6,17.1,136.3,32,136.3,50.4z"/>
		<linearGradient id="SVGID_3_" gradientUnits="userSpaceOnUse" x1="1.8981" y1="50.5" x2="142.1019" y2="50.5">
			<stop  offset="5.494000e-03" style="stop-color:#D1D1D1"/>
			<stop  offset="0.456" style="stop-color:#4D4D4D"/>
			<stop  offset="1" style="stop-color:#A6A6A6"/>
		</linearGradient>
		<path class="st159" d="M72,12.7c-38.7,0-70.1,16.9-70.1,37.8c0,20.9,31.4,37.8,70.1,37.8c38.7,0,70.1-16.9,70.1-37.8
			C142.1,29.6,110.7,12.7,72,12.7z M72.1,83.6c-35.5,0-64.3-14.9-64.3-33.2c0-18.3,28.8-33.2,64.3-33.2c35.5,0,64.3,14.9,64.3,33.2
			C136.3,68.7,107.6,83.6,72.1,83.6z"/>
		<linearGradient id="SVGID_4_" gradientUnits="userSpaceOnUse" x1="42.4074" y1="19.8871" x2="99.7425" y2="79.2146">
			<stop  offset="5.494000e-03" style="stop-color:#E6E6E6"/>
			<stop  offset="0.456" style="stop-color:#595959"/>
			<stop  offset="0.8352" style="stop-color:#808080"/>
			<stop  offset="1" style="stop-color:#D9D9D9"/>
		</linearGradient>
		<path class="st160" d="M71.8,14.3c-37.5,0-67.9,16.1-67.9,36c0,19.9,30.4,36,67.9,36c37.5,0,67.9-16.1,67.9-36
			C139.7,30.4,109.3,14.3,71.8,14.3z M72.1,83.6c-35.5,0-64.3-14.9-64.3-33.2c0-18.3,28.8-33.2,64.3-33.2
			c35.5,0,64.3,14.9,64.3,33.2C136.3,68.7,107.6,83.6,72.1,83.6z"/>
		<linearGradient id="SVGID_5_" gradientUnits="userSpaceOnUse" x1="45.9179" y1="35.1123" x2="120.8919" y2="78.7981">
			<stop  offset="5.494000e-03" style="stop-color:#F2F2F2"/>
			<stop  offset="0.3462" style="stop-color:#1A1A1A"/>
			<stop  offset="0.5879" style="stop-color:#3D3D3D"/>
			<stop  offset="0.6956" style="stop-color:#484848"/>
			<stop  offset="0.7692" style="stop-color:#525252"/>
			<stop  offset="1" style="stop-color:#BDBDBD"/>
		</linearGradient>
		<path class="st161" d="M72.1,16.6C36,16.6,6.8,31.7,6.8,50.4C6.8,69,36,84.1,72.1,84.1c36.1,0,65.3-15.1,65.3-33.7
			C137.4,31.7,108.1,16.6,72.1,16.6z M72.1,83.6c-35.5,0-64.3-14.9-64.3-33.2c0-18.3,28.8-33.2,64.3-33.2
			c35.5,0,64.3,14.9,64.3,33.2C136.3,68.7,107.6,83.6,72.1,83.6z"/>
		<path class="st154" d="M60.5,68.2c0,0-6.8,0.5-6.7,1.3c0,0.7,5.6,1.3,6.5,1.4c0.9,0.1,4.5,0.5,5.6,0.9c1,0.4,1.7,0.7,2.1,1.8
			c0.4,1.1,1.4,4.5,1.4,4.5s0.5,1.9,0.9,1.9c0.4,0,0.9-2,0.9-2s1-4.2,1.7-5c0.7-0.8,0.8-1.1,4.1-1.6c3.3-0.5,6.5-1.1,9-1.1
			c2.5,0,3,0,4.5,0.2c1.5,0.2,4.8,0.6,6.1,1c1.3,0.4,1.7,1.3,2.1,2.2c0.3,0.8,1.1,3.1,1.1,3.1s0.2,0.9,0.6,0.9c0.4,0,0.6-1,0.6-1
			s1.2-3.8,1.8-4.4c0.7-0.6,1.1-1.1,4.4-1.5c3.3-0.4,5.2-0.8,6.4-0.9c1.1-0.1,2-0.2,2-0.6c0-0.4-0.4-0.5-2.1-0.7
			c-1.6-0.2-6.5-0.7-9-1.3c-2.5-0.6-2.7-2.6-3.1-3.6c-0.4-1-0.6-2.6-1.2-2.6c-0.6,0-0.7,1.1-0.8,1.4c-0.1,0.3-0.7,2.4-1.1,3.1
			c-0.4,0.7-0.8,1.5-2.5,1.8c-1.7,0.3-5,1-8,1.1c-3.1,0.1-4.8-0.1-7.2-0.4c-2.4-0.3-4.6-0.4-6.3-1.1c-1.7-0.7-2.5-3.2-3-4.6
			c-0.4-1.5-0.7-2.2-1-2.2c-0.3,0-0.7,1.1-1,2.1c-0.3,1-1.1,3.8-2.2,4.5C65.8,67.5,63.9,67.9,60.5,68.2z"/>
		<linearGradient id="SVGID_6_" gradientUnits="userSpaceOnUse" x1="82.9564" y1="73.7466" x2="100.8882" y2="73.7466">
			<stop  offset="8.241700e-02" style="stop-color:#999999"/>
			<stop  offset="0.1746" style="stop-color:#7C7C7C"/>
			<stop  offset="0.3242" style="stop-color:#525252"/>
			<stop  offset="0.6374" style="stop-color:#4A4A4A"/>
			<stop  offset="0.7857" style="stop-color:#B0B0B0"/>
			<stop  offset="0.8901" style="stop-color:#7A7A7A"/>
			<stop  offset="1" style="stop-color:#9E9E9E"/>
		</linearGradient>
		<path class="st162" d="M100.8,74.8c-0.1,0.3-0.2,0.9-0.6,0.9c-0.3,0-0.4-0.4-0.6-0.8c-0.1-0.5-0.3-1.7-0.8-3.1
			c-0.6-1.3-3-1.5-4.6-1.6c-1.7-0.1-8.6-0.5-10-0.3c-0.2,0-0.5,0-1,0.1L83,70.5c1.1-0.1,2.1-0.2,3-0.2c2.5,0,3,0,4.5,0.2
			c1.5,0.2,4.8,0.6,6.1,1c1.3,0.4,1.7,1.3,2.1,2.2c0.3,0.8,1.1,3.1,1.1,3.1s0.2,0.9,0.6,0.9c0.4,0,0.6-1,0.6-1L100.8,74.8z"/>
		<linearGradient id="SVGID_7_" gradientUnits="userSpaceOnUse" x1="109.2824" y1="68.7998" x2="109.2824" y2="69.7038">
			<stop  offset="0.1374" style="stop-color:#E6E6E6"/>
			<stop  offset="0.5055" style="stop-color:#CCCCCC"/>
			<stop  offset="0.9121" style="stop-color:#E0E0E0"/>
		</linearGradient>
		<path class="st163" d="M103.1,68.1c1.4,0.6,4.9,0.8,5.4,0.8c0.6,0,1.5-0.1,1.5,0.4c0,0.5-0.6,0.5-1.2,0.6l4.8,0.1
			c1.1-0.1,2-0.2,2-0.6c0-0.4-0.4-0.5-2.1-0.7c-1.6-0.2-6.5-0.7-9-1.3L103.1,68.1z"/>
		<linearGradient id="SVGID_8_" gradientUnits="userSpaceOnUse" x1="89.1259" y1="65.4753" x2="99.2704" y2="64.8113">
			<stop  offset="8.241700e-02" style="stop-color:#999999"/>
			<stop  offset="0.1282" style="stop-color:#A4A4A4"/>
			<stop  offset="0.3242" style="stop-color:#CFCFCF"/>
			<stop  offset="0.5604" style="stop-color:#D9D9D9"/>
			<stop  offset="0.7582" style="stop-color:#E0E0E0"/>
		</linearGradient>
		<path class="st164" d="M100.8,64.4c-0.1-0.6-0.4-1.2-0.7-1.2c-0.3,0-0.6,0.7-0.7,1.2c-0.1,0.5-0.1,2.3-1.3,3.1
			c-1.2,0.8-2.5,1.1-6.6,1.3c-4.1,0.2-7.5,0.1-8.8,0.1l0-0.5c1.4,0.1,2.8,0.2,4.8,0.2c3.1-0.1,6.3-0.8,8-1.1
			c1.7-0.3,2.1-1.1,2.5-1.8c0.4-0.7,1-2.8,1.1-3.1c0.1-0.3,0.3-1.4,0.8-1.4c0.6,0,0.8,1.6,1.2,2.6L100.8,64.4z"/>
		<linearGradient id="SVGID_9_" gradientUnits="userSpaceOnUse" x1="76.525" y1="64.7075" x2="81.9624" y2="70.062">
			<stop  offset="8.241700e-02" style="stop-color:#EDEDED"/>
			<stop  offset="0.2054" style="stop-color:#BCBCBC"/>
			<stop  offset="0.3242" style="stop-color:#919191"/>
			<stop  offset="0.5604" style="stop-color:#8C8C8C"/>
			<stop  offset="0.7582" style="stop-color:#999999"/>
		</linearGradient>
		<path class="st165" d="M73.6,66.7c0.2,0.1,0.3,0.2,0.5,0.3c1.7,0.7,3.9,0.8,6.3,1.1c2.4,0.3,4.1,0.5,7.2,0.4l0,0.4
			c-2.2,0-3.9,0-4.7,0c-1.3,0-7.8-0.2-9.9-0.9c-0.2-0.1-0.4-0.2-0.6-0.3L73.6,66.7z"/>
		<linearGradient id="SVGID_10_" gradientUnits="userSpaceOnUse" x1="71.3791" y1="76.5252" x2="82.1712" y2="67.6701">
			<stop  offset="8.241700e-02" style="stop-color:#949494"/>
			<stop  offset="0.1639" style="stop-color:#7C7C7C"/>
			<stop  offset="0.3242" style="stop-color:#525252"/>
			<stop  offset="0.5604" style="stop-color:#4A4A4A"/>
			<stop  offset="0.7582" style="stop-color:#999999"/>
		</linearGradient>
		<path class="st166" d="M84.2,69.8c-1.2,0-8,0.6-9.8,0.7c-1.8,0.1-2.4,1.3-2.7,1.8c-0.3,0.5-1,4.1-1.1,4.4
			c-0.1,0.3-0.2,0.9-0.4,0.9V80c0.4,0,0.9-2,0.9-2s1-4.2,1.7-5c0.7-0.8,0.8-1.1,4.1-1.6c2.5-0.4,5.1-0.8,7.2-1L84.2,69.8z"/>
		<linearGradient id="SVGID_11_" gradientUnits="userSpaceOnUse" x1="67.0158" y1="73.1269" x2="72.1766" y2="82.0788">
			<stop  offset="0" style="stop-color:#D9D9D9"/>
			<stop  offset="0.2033" style="stop-color:#6B6B6B"/>
			<stop  offset="0.206" style="stop-color:#6C6C6C"/>
			<stop  offset="0.4451" style="stop-color:#969696"/>
			<stop  offset="0.5604" style="stop-color:#969696"/>
			<stop  offset="0.7582" style="stop-color:#A8A8A8"/>
		</linearGradient>
		<path class="st167" d="M63.8,70.4c0,0,2.2,0.1,3.1,0.5c0.9,0.4,1.7,0.8,1.9,1.7c0.2,0.9,1,4.1,1,4.4c0.1,0.3,0.2,0.7,0.4,0.7
			c0.2,0,0.3-0.6,0.4-0.9l0.5,1.3c0,0-0.5,2-0.9,2c-0.4,0-0.9-1.9-0.9-1.9s-1-3.4-1.4-4.5c-0.4-1.1-1.1-1.4-2.1-1.8
			c-0.4-0.1-1.2-0.3-2-0.4L63.8,70.4z"/>
		<linearGradient id="SVGID_12_" gradientUnits="userSpaceOnUse" x1="69.6963" y1="78.4662" x2="70.7942" y2="78.4662">
			<stop  offset="0.2143" style="stop-color:#969696"/>
			<stop  offset="0.3626" style="stop-color:#ADADAD"/>
			<stop  offset="0.5055" style="stop-color:#C9C9C9"/>
			<stop  offset="0.7418" style="stop-color:#A3A3A3"/>
			<stop  offset="0.8846" style="stop-color:#9E9E9E"/>
		</linearGradient>
		<path class="st168" d="M69.9,77c0.1,0.3,0.2,0.7,0.4,0.7c0.1,0,0.2-0.3,0.3-0.6l0.1,2.5c-0.1,0.3-0.3,0.5-0.4,0.5
			c-0.1,0-0.3-0.2-0.4-0.5L69.9,77z"/>
		<linearGradient id="SVGID_13_" gradientUnits="userSpaceOnUse" x1="58.9797" y1="69.4313" x2="65.6211" y2="73.3054">
			<stop  offset="0" style="stop-color:#A8A8A8"/>
			<stop  offset="8.791199e-02" style="stop-color:#6B6B6B"/>
			<stop  offset="0.3681" style="stop-color:#5E5E5E"/>
			<stop  offset="0.4626" style="stop-color:#626262"/>
			<stop  offset="0.5417" style="stop-color:#6C6C6C"/>
			<stop  offset="0.6149" style="stop-color:#7D7D7D"/>
			<stop  offset="0.6846" style="stop-color:#969696"/>
			<stop  offset="0.6868" style="stop-color:#969696"/>
			<stop  offset="0.8462" style="stop-color:#D9D9D9"/>
		</linearGradient>
		<path class="st169" d="M65.8,71.8c-1-0.4-4.6-0.8-5.6-0.9c-0.9-0.1-6.5-0.7-6.5-1.4c0-0.7,6.7-1.3,6.7-1.3l0.2,0.7
			c-1.1,0.1-2,0.1-2,0.5s0.7,0.6,2.1,0.7c1.4,0.1,3.2,0.3,3.2,0.3s2.2,0.1,3.1,0.5L65.8,71.8z"/>
		<linearGradient id="SVGID_14_" gradientUnits="userSpaceOnUse" x1="53.7367" y1="64.8337" x2="71.1872" y2="64.8337">
			<stop  offset="0" style="stop-color:#A8A8A8"/>
			<stop  offset="1" style="stop-color:#FFFFFF"/>
		</linearGradient>
		<path class="st170" d="M53.7,69.5c0-0.7,6.7-1.3,6.7-1.3c3.4-0.3,5.4-0.7,6.5-1.4c1.1-0.7,1.9-3.5,2.2-4.5c0.3-1,0.8-2.1,1-2.1
			c0.3,0,0.6,0.7,1,2.2l-0.4,1.5c-0.2-1.3-0.3-1.7-0.7-1.7c-0.3,0-0.6,1-0.7,1.9C69.2,65,69,67.5,67.2,68c-1.9,0.6-3,0.8-6.6,0.9
			c-1.1,0.1-2,0.1-2,0.5L53.7,69.5z"/>
		<linearGradient id="SVGID_15_" gradientUnits="userSpaceOnUse" x1="70.2303" y1="61.8931" x2="74.0212" y2="69.0322">
			<stop  offset="0" style="stop-color:#C7C7C7"/>
			<stop  offset="8.241700e-02" style="stop-color:#BDBDBD"/>
			<stop  offset="0.1429" style="stop-color:#8C8C8C"/>
			<stop  offset="0.2151" style="stop-color:#7E7E7E"/>
			<stop  offset="0.3297" style="stop-color:#6B6B6B"/>
			<stop  offset="0.3907" style="stop-color:#595959"/>
			<stop  offset="0.544" style="stop-color:#2E2E2E"/>
			<stop  offset="0.5738" style="stop-color:#323232"/>
			<stop  offset="0.6042" style="stop-color:#3E3E3E"/>
			<stop  offset="0.6351" style="stop-color:#535353"/>
			<stop  offset="0.6661" style="stop-color:#707070"/>
			<stop  offset="0.6973" style="stop-color:#959595"/>
			<stop  offset="0.7283" style="stop-color:#C1C1C1"/>
			<stop  offset="0.7473" style="stop-color:#E0E0E0"/>
			<stop  offset="0.8901" style="stop-color:#FFFFFF"/>
		</linearGradient>
		<path class="st171" d="M73,68c-1.2-0.5-1.8-1.5-2.2-4.1c-0.2-1.3-0.3-1.7-0.7-1.7l0-2.1c0.3,0,0.6,0.7,1,2.2
			c0.4,1.5,1.3,3.9,3,4.6L73,68z"/>
		<linearGradient id="SVGID_16_" gradientUnits="userSpaceOnUse" x1="69.9325" y1="61.2964" x2="70.4273" y2="61.2964">
			<stop  offset="0" style="stop-color:#FFFFFF"/>
			<stop  offset="0.4505" style="stop-color:#BFBFBF"/>
			<stop  offset="0.8242" style="stop-color:#C2C2C2"/>
		</linearGradient>
		<path class="st172" d="M70,62.4c0.1-0.1,0.1-0.1,0.2-0.1c0.1,0,0.2,0,0.2,0.1l0-2c-0.1-0.1-0.2-0.2-0.2-0.2
			c-0.1,0-0.2,0.1-0.3,0.2L70,62.4z"/>
		<linearGradient id="SVGID_17_" gradientUnits="userSpaceOnUse" x1="56.352" y1="69.8536" x2="56.3596" y2="68.8866">
			<stop  offset="0" style="stop-color:#A6A6A6"/>
			<stop  offset="0.4505" style="stop-color:#E6E6E6"/>
			<stop  offset="0.8242" style="stop-color:#B8B8B8"/>
		</linearGradient>
		<path class="st173" d="M59,69.8c-0.2-0.1-0.4-0.2-0.4-0.4c0-0.1,0.1-0.2,0.4-0.3L54.7,69c-0.6,0.2-1,0.3-1,0.5
			c0,0.2,0.4,0.4,0.9,0.5L59,69.8z"/>
		<linearGradient id="SVGID_18_" gradientUnits="userSpaceOnUse" x1="108.9049" y1="69.2329" x2="105.3297" y2="80.8052">
			<stop  offset="5.494000e-03" style="stop-color:#FFFFFF"/>
			<stop  offset="6.160256e-03" style="stop-color:#FEFEFE"/>
			<stop  offset="3.529267e-02" style="stop-color:#CBCBCB"/>
			<stop  offset="6.403726e-02" style="stop-color:#A1A1A1"/>
			<stop  offset="9.184059e-02" style="stop-color:#818181"/>
			<stop  offset="0.1185" style="stop-color:#6A6A6A"/>
			<stop  offset="0.1434" style="stop-color:#5C5C5C"/>
			<stop  offset="0.1648" style="stop-color:#575757"/>
			<stop  offset="0.2037" style="stop-color:#686868"/>
			<stop  offset="0.2809" style="stop-color:#959595"/>
			<stop  offset="0.3407" style="stop-color:#BDBDBD"/>
			<stop  offset="0.4544" style="stop-color:#A1A1A1"/>
			<stop  offset="0.511" style="stop-color:#919191"/>
			<stop  offset="0.8571" style="stop-color:#B8B8B8"/>
		</linearGradient>
		<path class="st174" d="M100.3,77.7c0.4,0,0.6-1,0.6-1s1.2-3.8,1.8-4.4c0.7-0.6,1.1-1.1,4.4-1.5c3.3-0.4,5.2-0.8,6.4-0.9
			c1.1-0.1,2-0.2,2-0.6l-5.5-0.1c0,0.5-0.6,0.5-1.2,0.6c-0.7,0-3.7,0.3-5.6,0.7c-1.9,0.4-2.3,3.9-2.4,4.3c-0.1,0.3-0.2,0.9-0.6,0.9
			V77.7z"/>
		<linearGradient id="SVGID_19_" gradientUnits="userSpaceOnUse" x1="100.3995" y1="63.5204" x2="106.0628" y2="69.3132">
			<stop  offset="8.241700e-02" style="stop-color:#DEDEDE"/>
			<stop  offset="0.2443" style="stop-color:#7D7D7D"/>
			<stop  offset="0.3242" style="stop-color:#525252"/>
			<stop  offset="0.5604" style="stop-color:#737373"/>
			<stop  offset="0.6696" style="stop-color:#A0A0A0"/>
			<stop  offset="0.8242" style="stop-color:#E6E6E6"/>
		</linearGradient>
		<path class="st175" d="M105.6,68.6c-1-0.1-2-0.3-2.6-0.5c-1.4-0.6-1.9-1.5-2.2-3.6c-0.1-0.6-0.4-1.2-0.7-1.2
			c-0.3,0-0.6,0.7-0.7,1.2l-0.2-1.9c0.1-0.3,0.3-1.4,0.8-1.4c0.6,0,0.8,1.6,1.2,2.6c0.4,1,0.5,3,3.1,3.6c0.5,0.1,1,0.2,1.6,0.3
			L105.6,68.6z"/>
		<linearGradient id="SVGID_20_" gradientUnits="userSpaceOnUse" x1="99.7643" y1="62.5591" x2="100.6118" y2="62.5591">
			<stop  offset="0" style="stop-color:#E3E3E3"/>
			<stop  offset="0.4505" style="stop-color:#BABABA"/>
			<stop  offset="0.7637" style="stop-color:#DADADA"/>
			<stop  offset="0.8242" style="stop-color:#E0E0E0"/>
		</linearGradient>
		<path class="st176" d="M99.7,61.5c0.1-0.2,0.3-0.4,0.5-0.4c0.2,0,0.3,0.1,0.4,0.3l0.1,2.4c0,0,0,0,0,0c-0.1-0.3-0.3-0.6-0.5-0.6
			c-0.2,0-0.4,0.3-0.5,0.7L99.7,61.5z"/>
		<linearGradient id="SVGID_21_" gradientUnits="userSpaceOnUse" x1="112.5029" y1="69.0125" x2="112.5029" y2="69.5378">
			<stop  offset="0" style="stop-color:#E6E6E6"/>
			<stop  offset="5.393867e-02" style="stop-color:#DDDDDD"/>
			<stop  offset="0.2029" style="stop-color:#CBCBCB"/>
			<stop  offset="0.3603" style="stop-color:#C0C0C0"/>
			<stop  offset="0.5385" style="stop-color:#BDBDBD"/>
			<stop  offset="0.6449" style="stop-color:#C2C2C2"/>
			<stop  offset="0.7716" style="stop-color:#D0D0D0"/>
			<stop  offset="0.9081" style="stop-color:#E8E8E8"/>
			<stop  offset="1" style="stop-color:#FCFCFC"/>
		</linearGradient>
		<path class="st177" d="M114.7,69.8c0.5-0.1,0.8-0.2,0.8-0.5c0-0.2-0.2-0.4-0.8-0.5l-5.2,0c0.3,0.1,0.5,0.2,0.5,0.4
			c0,0.1,0,0.2-0.1,0.3L114.7,69.8z"/>
		<linearGradient id="SVGID_22_" gradientUnits="userSpaceOnUse" x1="99.6354" y1="76.2354" x2="101.0907" y2="76.2354">
			<stop  offset="1.648300e-02" style="stop-color:#878787"/>
			<stop  offset="6.423820e-02" style="stop-color:#8A8A8A"/>
			<stop  offset="9.340701e-02" style="stop-color:#919191"/>
			<stop  offset="0.4286" style="stop-color:#E0E0E0"/>
			<stop  offset="0.7692" style="stop-color:#9E9E9E"/>
			<stop  offset="1" style="stop-color:#ADADAD"/>
		</linearGradient>
		<path class="st178" d="M100.8,74.8c-0.1,0.3-0.2,0.9-0.6,0.9c-0.3,0-0.4-0.4-0.6-0.8l0,1.9c0,0,0.2,0.9,0.6,0.9
			c0.6,0,0.8-1.6,0.8-1.6L100.8,74.8z"/>
		<path class="st155" d="M106.6,56.6c-2.5,0-5.7,0.6-9,1.1c-3.3,0.5-3.4,0.8-4.1,1.6c-0.7,0.8-1.7,5.1-1.7,5.1s-0.5,2-0.9,2
			c-0.4,0-0.9-1.9-0.9-1.9s-1-3.5-1.4-4.6c-0.4-1.2-1.1-1.5-2.1-1.8c-1-0.4-4.6-0.8-5.6-0.9c-0.9-0.1-6.5-0.7-6.5-1.4
			c0-0.8,6.7-1.3,6.7-1.3c3.4-0.3,5.3-0.8,6.5-1.5c1.1-0.7,1.9-3.6,2.2-4.6c0.3-1,0.8-2.1,1-2.1c0.3,0,0.6,0.7,1,2.2
			c0.4,1.5,1.3,4,3,4.7c1.7,0.8,3.9,0.9,6.3,1.2c0,0,2.9,0.6,5.9,0.5c3-0.1,4.9-0.6,6.1-0.8c1.2-0.2,3.4-0.6,4.1-2.2
			c0.7-1.6,1.4-4,1.9-4c0.5,0,1.3,2.6,1.3,2.6s0.6,2.5,2.6,3c2,0.4,5.1,1.2,6.8,1.4c1.6,0.2,2.1,0.4,2.1,0.8c0,0.4-2.2,0.7-2.2,0.7
			s-5.9,0.7-7,1.4c-1.2,0.7-1.9,1.3-2.8,5.2c-0.3,1-0.4,1.5-0.7,1.5c-0.3,0-0.9-1.7-1.5-3.9c-0.7-2.3-1.2-2.9-4.5-3.4
			C109.8,56.7,108.4,56.6,106.6,56.6z"/>
		<linearGradient id="SVGID_23_" gradientUnits="userSpaceOnUse" x1="95.7837" y1="52.1144" x2="99.6574" y2="55.929">
			<stop  offset="8.241700e-02" style="stop-color:#EDEDED"/>
			<stop  offset="0.2054" style="stop-color:#BCBCBC"/>
			<stop  offset="0.3242" style="stop-color:#919191"/>
			<stop  offset="0.5604" style="stop-color:#8C8C8C"/>
			<stop  offset="0.7582" style="stop-color:#999999"/>
		</linearGradient>
		<path class="st179" d="M103.6,55.3c-1.3,0-7.8-0.2-9.9-0.9c-0.2-0.1-0.4-0.2-0.6-0.3l1.1-1c0.2,0.1,0.3,0.2,0.5,0.3
			c1.7,0.7,3.9,0.9,6.3,1.2"/>
		<linearGradient id="SVGID_24_" gradientUnits="userSpaceOnUse" x1="91.9869" y1="62.9341" x2="102.8728" y2="54.0021">
			<stop  offset="8.241700e-02" style="stop-color:#949494"/>
			<stop  offset="0.1639" style="stop-color:#7C7C7C"/>
			<stop  offset="0.3242" style="stop-color:#525252"/>
			<stop  offset="0.5604" style="stop-color:#4A4A4A"/>
			<stop  offset="0.7582" style="stop-color:#999999"/>
		</linearGradient>
		<path class="st180" d="M104.9,56.2c-1.2,0-8,0.6-9.9,0.7c-1.8,0.1-2.4,1.3-2.7,1.8c-0.3,0.5-1,4.2-1.1,4.5
			c-0.1,0.3-0.2,0.9-0.4,0.9v2.4c0.4,0,0.9-2,0.9-2s1-4.3,1.7-5.1c0.7-0.8,0.9-1.1,4.2-1.6c2.6-0.4,5.1-0.9,7.3-1L104.9,56.2z"/>
		<linearGradient id="SVGID_25_" gradientUnits="userSpaceOnUse" x1="87.6545" y1="59.515" x2="92.8796" y2="68.5782">
			<stop  offset="0" style="stop-color:#D9D9D9"/>
			<stop  offset="0.2033" style="stop-color:#6B6B6B"/>
			<stop  offset="0.206" style="stop-color:#6C6C6C"/>
			<stop  offset="0.4451" style="stop-color:#969696"/>
			<stop  offset="0.5604" style="stop-color:#969696"/>
			<stop  offset="0.7582" style="stop-color:#A8A8A8"/>
		</linearGradient>
		<path class="st181" d="M84.5,56.7c0,0,2.2,0.1,3.1,0.5c0.9,0.4,1.7,0.9,1.9,1.8c0.2,0.9,1,4.1,1,4.4c0.1,0.3,0.2,0.7,0.4,0.7
			c0.2,0,0.3-0.6,0.4-0.9l0.5,1.3c0,0-0.5,2-0.9,2S90,64.6,90,64.6s-1-3.4-1.4-4.6c-0.4-1.2-1.1-1.5-2.2-1.8c-0.4-0.1-1.2-0.3-2-0.4
			L84.5,56.7z"/>
		<linearGradient id="SVGID_26_" gradientUnits="userSpaceOnUse" x1="90.3366" y1="64.937" x2="91.4424" y2="64.937">
			<stop  offset="0.2143" style="stop-color:#969696"/>
			<stop  offset="0.3626" style="stop-color:#ADADAD"/>
			<stop  offset="0.5055" style="stop-color:#C9C9C9"/>
			<stop  offset="0.7418" style="stop-color:#A3A3A3"/>
			<stop  offset="0.8846" style="stop-color:#9E9E9E"/>
		</linearGradient>
		<path class="st182" d="M90.5,63.4c0.1,0.3,0.2,0.7,0.4,0.7c0.1,0,0.2-0.3,0.3-0.6l0.1,2.5c-0.1,0.3-0.3,0.5-0.4,0.5
			c-0.1,0-0.3-0.2-0.4-0.5L90.5,63.4z"/>
		<linearGradient id="SVGID_27_" gradientUnits="userSpaceOnUse" x1="79.5692" y1="55.769" x2="86.2444" y2="59.6629">
			<stop  offset="0" style="stop-color:#A8A8A8"/>
			<stop  offset="8.791199e-02" style="stop-color:#6B6B6B"/>
			<stop  offset="0.3681" style="stop-color:#5E5E5E"/>
			<stop  offset="0.4626" style="stop-color:#626262"/>
			<stop  offset="0.5417" style="stop-color:#6C6C6C"/>
			<stop  offset="0.6149" style="stop-color:#7D7D7D"/>
			<stop  offset="0.6846" style="stop-color:#969696"/>
			<stop  offset="0.6868" style="stop-color:#969696"/>
			<stop  offset="0.8462" style="stop-color:#D9D9D9"/>
		</linearGradient>
		<path class="st183" d="M86.4,58.1c-1-0.4-4.7-0.8-5.6-0.9c-0.9-0.1-6.5-0.7-6.5-1.4c0-0.7,6.7-1.3,6.7-1.3l0.2,0.7
			c-1.1,0.2-2,0.1-2,0.5c0,0.4,0.7,0.6,2.1,0.7c1.4,0.1,3.2,0.3,3.2,0.3s2.2,0.1,3.1,0.5L86.4,58.1z"/>
		<linearGradient id="SVGID_28_" gradientUnits="userSpaceOnUse" x1="74.3048" y1="51.0911" x2="91.8356" y2="51.0911">
			<stop  offset="0" style="stop-color:#A8A8A8"/>
			<stop  offset="1" style="stop-color:#FFFFFF"/>
		</linearGradient>
		<path class="st184" d="M74.3,55.8c0-0.7,6.7-1.3,6.7-1.3c3.4-0.3,5.4-0.7,6.5-1.5c1.2-0.7,1.9-3.6,2.2-4.6c0.3-1,0.8-2.1,1-2.1
			c0.3,0,0.6,0.7,1,2.2l-0.4,1.6c-0.2-1.3-0.3-1.7-0.7-1.7c-0.3,0-0.6,1-0.7,1.9c-0.2,0.9-0.5,3.4-2.2,3.9c-1.9,0.6-3,0.8-6.6,0.9
			c-1.1,0.2-2,0.1-2,0.5L74.3,55.8z"/>
		<linearGradient id="SVGID_29_" gradientUnits="userSpaceOnUse" x1="90.8497" y1="48.1152" x2="94.6934" y2="55.3537">
			<stop  offset="0" style="stop-color:#C7C7C7"/>
			<stop  offset="8.241700e-02" style="stop-color:#BDBDBD"/>
			<stop  offset="0.1429" style="stop-color:#8C8C8C"/>
			<stop  offset="0.2151" style="stop-color:#7E7E7E"/>
			<stop  offset="0.3297" style="stop-color:#6B6B6B"/>
			<stop  offset="0.3907" style="stop-color:#595959"/>
			<stop  offset="0.544" style="stop-color:#2E2E2E"/>
			<stop  offset="0.5738" style="stop-color:#323232"/>
			<stop  offset="0.6042" style="stop-color:#3E3E3E"/>
			<stop  offset="0.6351" style="stop-color:#535353"/>
			<stop  offset="0.6661" style="stop-color:#707070"/>
			<stop  offset="0.6973" style="stop-color:#959595"/>
			<stop  offset="0.7283" style="stop-color:#C1C1C1"/>
			<stop  offset="0.7473" style="stop-color:#E0E0E0"/>
			<stop  offset="0.8901" style="stop-color:#FFFFFF"/>
		</linearGradient>
		<path class="st185" d="M93.7,54.3c-1.2-0.5-1.8-1.5-2.2-4.2c-0.2-1.3-0.3-1.7-0.7-1.7l0-2.1c0.3,0,0.6,0.7,1,2.2
			c0.4,1.5,1.3,4,3,4.7L93.7,54.3z"/>
		<path class="st157" d="M104.9,56.2c-1.2,0-8,0.6-9.9,0.7c-1.8,0.1-2.4,1.3-2.7,1.8c-0.3,0.5-1,4.2-1.1,4.5
			c-0.1,0.3-0.2,0.9-0.4,0.9c-0.2,0-0.3-0.4-0.4-0.7c-0.1-0.3-0.8-3.5-1-4.4c-0.2-0.9-1-1.3-1.9-1.8c-0.9-0.4-3.1-0.5-3.1-0.5
			s-1.8-0.2-3.2-0.3c-1.4-0.1-2.1-0.3-2.1-0.7c0-0.4,0.9-0.3,2-0.5c3.6-0.1,4.7-0.3,6.6-0.9c1.8-0.5,2-3,2.2-3.9
			c0.2-0.9,0.4-1.9,0.7-1.9c0.3,0,0.4,0.3,0.7,1.7c0.4,2.6,1,3.7,2.2,4.2c2.1,0.7,8.6,0.9,9.9,0.9c0,0,3.9,0.1,5.9,0
			c2-0.1,5.6-0.5,6.4-0.7c0.8-0.2,2-0.6,2.2-2c0.2-1.3,0.6-2.8,1-2.8c0.4,0,0.6,1.1,0.7,1.4c0,0,0.3,2.6,1.8,3.1
			c1.5,0.5,3.7,0.7,4.6,0.8c0.9,0.1,1.7,0.2,1.7,0.6c0,0.4-1.2,0.7-1.7,0.7c-0.5,0-3,0.1-3.9,0.5c-0.9,0.4-1.7,0.7-2,2.4
			c-0.3,1.7-0.5,2.3-0.5,2.3s-0.1,0.7-0.5,0.7c-0.5,0-0.6-0.9-0.6-0.9s-0.6-2.7-0.9-3.3c-0.4-0.6-0.8-1.5-4.4-1.6
			C109.6,56.3,108.1,56.1,104.9,56.2z"/>
		<linearGradient id="SVGID_30_" gradientUnits="userSpaceOnUse" x1="127.0944" y1="57.3947" x2="117.7979" y2="59.5252">
			<stop  offset="0" style="stop-color:#B8B8B8"/>
			<stop  offset="0.1073" style="stop-color:#A0A0A0"/>
			<stop  offset="0.3187" style="stop-color:#757575"/>
			<stop  offset="0.4341" style="stop-color:#767676"/>
			<stop  offset="0.5604" style="stop-color:#737373"/>
			<stop  offset="0.6297" style="stop-color:#787878"/>
			<stop  offset="0.7097" style="stop-color:#868686"/>
			<stop  offset="0.7747" style="stop-color:#969696"/>
		</linearGradient>
		<path class="st186" d="M120.1,59.3c0.3-1.7,1.1-2,2-2.4c0.9-0.4,3.5-0.5,3.9-0.5c0.5,0,1.7-0.3,1.7-0.7l4.1,0.1
			c0,0.4-2.2,0.7-2.2,0.7s-5.9,0.7-7,1.4c-0.9,0.6-1.5,1-2.1,2.8L120.1,59.3z"/>
		<linearGradient id="SVGID_31_" gradientUnits="userSpaceOnUse" x1="125.2424" y1="53.4717" x2="127.8924" y2="56.1217">
			<stop  offset="0" style="stop-color:#E6E6E6"/>
			<stop  offset="0.1017" style="stop-color:#C8C8C8"/>
			<stop  offset="0.2692" style="stop-color:#9C9C9C"/>
			<stop  offset="0.43" style="stop-color:#A6A6A6"/>
			<stop  offset="0.7532" style="stop-color:#B7B7B7"/>
			<stop  offset="1" style="stop-color:#BDBDBD"/>
		</linearGradient>
		<path class="st187" d="M121.5,54.3c1.5,0.5,3.7,0.7,4.6,0.8c0.9,0.1,1.7,0.2,1.7,0.6c0,0.4-1.2,0.7-1.7,0.7l3.5,0.1
			c0,0,2.2-0.2,2.2-0.7c0-0.4-0.5-0.6-2.1-0.8c-1.6-0.2-4.8-1-6.8-1.4L121.5,54.3z"/>
		<linearGradient id="SVGID_32_" gradientUnits="userSpaceOnUse" x1="118.9403" y1="49.1241" x2="121.9654" y2="56.0601">
			<stop  offset="0.1429" style="stop-color:#DEDEDE"/>
			<stop  offset="0.236" style="stop-color:#A0A0A0"/>
			<stop  offset="0.3077" style="stop-color:#757575"/>
			<stop  offset="0.5769" style="stop-color:#737373"/>
			<stop  offset="0.6174" style="stop-color:#787878"/>
			<stop  offset="0.6642" style="stop-color:#868686"/>
			<stop  offset="0.7143" style="stop-color:#9D9D9D"/>
			<stop  offset="0.7665" style="stop-color:#BDBDBD"/>
			<stop  offset="0.8187" style="stop-color:#E6E6E6"/>
		</linearGradient>
		<path class="st188" d="M123.2,54.7c-0.6-0.1-1.2-0.2-1.7-0.4c-1.4-0.5-1.8-3.1-1.8-3.1c-0.1-0.3-0.3-1.4-0.7-1.4
			c-0.4,0-0.7,1.5-1,2.8l-1-0.6c0.7-1.6,1.4-4,1.9-4c0.5,0,1.3,2.6,1.3,2.6s0.6,2.5,2.6,3c0.3,0.1,0.7,0.2,1.1,0.2L123.2,54.7z"/>
		<linearGradient id="SVGID_33_" gradientUnits="userSpaceOnUse" x1="100.6317" y1="51.6209" x2="119.0789" y2="51.6209">
			<stop  offset="8.241700e-02" style="stop-color:#999999"/>
			<stop  offset="0.1282" style="stop-color:#A4A4A4"/>
			<stop  offset="0.3242" style="stop-color:#CFCFCF"/>
			<stop  offset="0.5604" style="stop-color:#D9D9D9"/>
			<stop  offset="0.7582" style="stop-color:#E0E0E0"/>
		</linearGradient>
		<path class="st189" d="M119,48c-0.5,0-1.2,2.4-1.9,4c-0.7,1.6-2.9,2-4.1,2.2c-1.2,0.2-3.1,0.7-6.1,0.8c-3,0.1-5.9-0.5-5.9-0.5
			l-0.4,0.7c1.4,0.1,2.5,0.1,3,0.1c0,0,3.9,0.1,5.9,0c2-0.1,5.6-0.5,6.4-0.7c0.8-0.2,2-0.6,2.2-2c0.2-1.3,0.6-2.8,1-2.8L119,48z"/>
		<linearGradient id="SVGID_34_" gradientUnits="userSpaceOnUse" x1="118.6787" y1="49.0309" x2="119.4302" y2="49.0309">
			<stop  offset="0" style="stop-color:#E3E3E3"/>
			<stop  offset="0.1097" style="stop-color:#DBDBDB"/>
			<stop  offset="0.2807" style="stop-color:#C5C5C5"/>
			<stop  offset="0.4505" style="stop-color:#A8A8A8"/>
			<stop  offset="0.6708" style="stop-color:#C8C8C8"/>
			<stop  offset="0.8242" style="stop-color:#E0E0E0"/>
		</linearGradient>
		<path class="st190" d="M118.7,50.1c0.1-0.2,0.2-0.3,0.3-0.3c0.1,0,0.3,0.1,0.4,0.3v-1.8c-0.1-0.2-0.3-0.3-0.4-0.3
			c-0.1,0-0.2,0.1-0.4,0.3L118.7,50.1z"/>
		<linearGradient id="SVGID_35_" gradientUnits="userSpaceOnUse" x1="118.4073" y1="61.4447" x2="120.7481" y2="61.4447">
			<stop  offset="0" style="stop-color:#BABABA"/>
			<stop  offset="0.1147" style="stop-color:#A0A0A0"/>
			<stop  offset="0.3187" style="stop-color:#757575"/>
			<stop  offset="0.4341" style="stop-color:#767676"/>
			<stop  offset="0.5604" style="stop-color:#737373"/>
			<stop  offset="0.6627" style="stop-color:#787878"/>
			<stop  offset="0.7747" style="stop-color:#858585"/>
		</linearGradient>
		<path class="st191" d="M120.7,60c-0.3,0.7-0.6,1.7-0.9,3.1c-0.3,1-0.4,1.5-0.7,1.5c-0.2,0-0.4-0.5-0.7-1.3l0.1-1.9
			c0,0,0.1,0.9,0.6,0.9c0.5,0,0.5-0.7,0.5-0.7s0.2-0.6,0.5-2.3c0.1-0.4,0.2-0.7,0.3-0.9L120.7,60z"/>
		<linearGradient id="SVGID_36_" gradientUnits="userSpaceOnUse" x1="102.0345" y1="58.3811" x2="118.1403" y2="58.3811">
			<stop  offset="8.241700e-02" style="stop-color:#999999"/>
			<stop  offset="0.1746" style="stop-color:#7C7C7C"/>
			<stop  offset="0.3242" style="stop-color:#525252"/>
			<stop  offset="0.5604" style="stop-color:#404040"/>
			<stop  offset="0.7473" style="stop-color:#999999"/>
			<stop  offset="0.8681" style="stop-color:#D1D1D1"/>
		</linearGradient>
		<path class="st192" d="M118.1,59.7c-0.2-0.7-0.4-1.4-0.6-1.7c-0.4-0.6-0.8-1.5-4.4-1.6c-3.6-0.1-5.2-0.4-8.3-0.3
			c-0.4,0-1.5,0.1-2.8,0.2l0.1,0.6c1.7-0.2,3.2-0.4,4.5-0.4c1.8,0,3.2,0.1,6.4,0.6c3.3,0.5,3.8,1.1,4.5,3.4L118.1,59.7z"/>
		<linearGradient id="SVGID_37_" gradientUnits="userSpaceOnUse" x1="119.7391" y1="62.7307" x2="116.2534" y2="59.494">
			<stop  offset="0" style="stop-color:#3B3B3B"/>
			<stop  offset="2.576239e-02" style="stop-color:#3D3D3D"/>
			<stop  offset="0.2555" style="stop-color:#4C4C4C"/>
			<stop  offset="0.4396" style="stop-color:#525252"/>
			<stop  offset="0.4973" style="stop-color:#585858"/>
			<stop  offset="0.5737" style="stop-color:#686868"/>
			<stop  offset="0.6264" style="stop-color:#787878"/>
			<stop  offset="0.7473" style="stop-color:#999999"/>
			<stop  offset="0.8681" style="stop-color:#D1D1D1"/>
		</linearGradient>
		<path class="st193" d="M117.8,58.4c0.4,1,0.7,2.9,0.7,2.9s0.1,0.9,0.6,0.9l0,2.2c-0.3,0-0.9-1.7-1.5-3.9c-0.1-0.5-0.3-0.9-0.4-1.3
			L117.8,58.4z"/>
		<linearGradient id="SVGID_38_" gradientUnits="userSpaceOnUse" x1="77.0701" y1="55.3255" x2="77.0701" y2="56.2587">
			<stop  offset="0" style="stop-color:#BDBDBD"/>
			<stop  offset="0.4505" style="stop-color:#D9D9D9"/>
			<stop  offset="0.8242" style="stop-color:#A8A8A8"/>
		</linearGradient>
		<path class="st194" d="M75.3,56.4c-0.6-0.2-1-0.4-1-0.6c0-0.2,0.4-0.4,1.1-0.5l4.4,0.1c-0.4,0.1-0.6,0.1-0.6,0.3
			c0,0.1,0.1,0.2,0.3,0.3L75.3,56.4z"/>
		<linearGradient id="SVGID_39_" gradientUnits="userSpaceOnUse" x1="90.5743" y1="47.4986" x2="91.071" y2="47.4986">
			<stop  offset="0" style="stop-color:#FFFFFF"/>
			<stop  offset="0.4505" style="stop-color:#BFBFBF"/>
			<stop  offset="0.8242" style="stop-color:#C2C2C2"/>
		</linearGradient>
		<path class="st195" d="M90.6,48.6c0.1-0.1,0.1-0.1,0.2-0.1c0.1,0,0.2,0,0.2,0.1l0-2c-0.1-0.1-0.2-0.2-0.2-0.2
			c-0.1,0-0.2,0.1-0.3,0.2L90.6,48.6z"/>
		<path class="st155" d="M22.9,40.5l-8.1,1.1c0,0-1.4,0.1-1.4,0.6c0,0.6,1.2,0.6,1.7,0.6c0.4,0.1,9.1,1.2,9.1,1.2s13.8,1.9,15.1,2.1
			c1.3,0.2,5,0.7,6.6,2.2c1.6,1.4,3,4.5,4,9.1c1,4.6,2,8.5,2,8.5s0.2,1.4,0.7,1.4c0.6,0,0.7-1.4,0.7-1.4s2.7-10.8,3.4-12.7
			c0.7-1.9,1.6-5.9,7.6-6.8c6-0.9,17.3-2.2,17.3-2.2s11-1.3,14.7-1.1c3.8,0.2,8,0.8,9,0.9c1.1,0.2,2.7,0.4,3.5,2.2
			c0.7,1.8,1.5,5.3,1.5,5.3s0.3,1.1,0.7,1.1c0.4,0,0.7-1,0.7-1s1.2-4.2,1.7-5.3c0.4-1.1,1.3-2,4.6-2.4c3.3-0.4,6.8-1.1,6.8-1.1
			s1.7,0,1.7-0.7c0-0.6-1.8-0.7-1.8-0.7l-7.5-1.2c0,0-3-0.2-3.8-2.2c-0.8-2-1.6-4.2-1.6-4.2s-0.1-0.9-0.6-0.9
			c-0.4,0-0.7,1.1-0.7,1.1s-0.9,3.1-1.6,4.1c-0.7,1-1.5,2-5.3,2.4c-3.7,0.4-5.7,0.8-7.2,0.8c-1.5,0-4.5,0-7-0.3
			c-2.4-0.3-18.2-2.2-18.2-2.2S65,38.1,63,37.4c-2-0.7-4.9-0.8-7.2-7.8c-2.3-7-2.4-7.6-2.4-7.6s-0.2-1.3-0.8-1.3
			c-0.6,0-0.8,1.4-0.8,1.4s-2.5,8.2-3.7,10.6c-1.2,2.4-2,4.7-11.9,5.8C27.5,39.8,22.9,40.5,22.9,40.5z"/>
		<linearGradient id="SVGID_40_" gradientUnits="userSpaceOnUse" x1="21.1087" y1="43.0267" x2="51.3265" y2="47.6756">
			<stop  offset="0" style="stop-color:#A8A8A8"/>
			<stop  offset="8.791199e-02" style="stop-color:#6B6B6B"/>
			<stop  offset="0.3681" style="stop-color:#4D4D4D"/>
			<stop  offset="0.4521" style="stop-color:#505050"/>
			<stop  offset="0.5222" style="stop-color:#5A5A5A"/>
			<stop  offset="0.5875" style="stop-color:#6C6C6C"/>
			<stop  offset="0.6494" style="stop-color:#848484"/>
			<stop  offset="0.6868" style="stop-color:#969696"/>
			<stop  offset="0.8462" style="stop-color:#F0F0F0"/>
		</linearGradient>
		<path class="st196" d="M47.2,46.4c-1.1-0.8-2.3-1.1-3.5-1.3c-2.6-0.5-12.5-1.5-12.5-1.5l-9.8-0.8c0,0-1.9-0.2-1.9-0.6
			c0-0.4,1.9-0.5,1.9-0.5l-6.6-0.1c0,0-1.4,0.1-1.4,0.6c0,0.6,1.2,0.6,1.7,0.6c0.4,0.1,9.1,1.2,9.1,1.2s13.8,1.9,15.1,2.1
			c1.3,0.2,5,0.7,6.6,2.2L47.2,46.4z"/>
		<linearGradient id="SVGID_41_" gradientUnits="userSpaceOnUse" x1="13.39" y1="31.4807" x2="53.4426" y2="31.4807">
			<stop  offset="0" style="stop-color:#A8A8A8"/>
			<stop  offset="0.6099" style="stop-color:#F0F0F0"/>
			<stop  offset="0.7363" style="stop-color:#FFFFFF"/>
			<stop  offset="0.8005" style="stop-color:#FBFBFB"/>
			<stop  offset="0.8712" style="stop-color:#EDEDED"/>
			<stop  offset="0.9447" style="stop-color:#D7D7D7"/>
			<stop  offset="1" style="stop-color:#C2C2C2"/>
		</linearGradient>
		<path class="st197" d="M53.4,22.1c0,0-0.2-1.3-0.8-1.3c-0.6,0-0.8,1.4-0.8,1.4s-2.5,8.2-3.7,10.6c-1.2,2.4-2,4.7-11.9,5.8
			c-8.7,1.1-13.3,1.9-13.3,1.9l-8.1,1.1c0,0-1.4,0.1-1.4,0.6l6.2-0.1c0-0.4,1.9-0.5,1.9-0.5l7.4-0.7c0,0,8.4-0.7,12.5-1.1
			c4-0.4,7-2.7,8.1-5c1.1-2.3,2.4-9.3,2.4-9.3s0.2-2.3,0.8-2.3c0.6,0,0.7,2.2,0.7,2.2L53.4,22.1z"/>
		<linearGradient id="SVGID_42_" gradientUnits="userSpaceOnUse" x1="51.819" y1="30.5533" x2="69.6674" y2="30.5533">
			<stop  offset="0" style="stop-color:#CFCFCF"/>
			<stop  offset="8.241700e-02" style="stop-color:#D9D9D9"/>
			<stop  offset="0.1429" style="stop-color:#6B6B6B"/>
			<stop  offset="0.1918" style="stop-color:#5F5F5F"/>
			<stop  offset="0.2857" style="stop-color:#4D4D4D"/>
			<stop  offset="0.3002" style="stop-color:#505050"/>
			<stop  offset="0.5165" style="stop-color:#7A7A7A"/>
			<stop  offset="0.5764" style="stop-color:#7F7F7F"/>
			<stop  offset="0.6378" style="stop-color:#8B8B8B"/>
			<stop  offset="0.6997" style="stop-color:#9F9F9F"/>
			<stop  offset="0.7619" style="stop-color:#BCBCBC"/>
			<stop  offset="0.8242" style="stop-color:#E0E0E0"/>
			<stop  offset="0.9725" style="stop-color:#EDEDED"/>
		</linearGradient>
		<path class="st198" d="M69.7,38.6c-2-0.3-5.3-0.7-6.7-1.2c-2-0.7-4.9-0.8-7.2-7.8c-2.3-7-2.4-7.6-2.4-7.6s-0.2-1.3-0.8-1.3
			c-0.6,0-0.8,1.4-0.8,1.4l0,3.4c0,0,0.2-2.3,0.8-2.3c0.4,0,0.6,1,0.7,1.6c0,0.3,0.1,0.5,0.1,0.5s0,0.2,0.1,0.4
			c0.3,1.3,1.3,5.8,1.8,7.6c0.6,2.2,2.1,4.4,4.5,5.4c2.5,1,8.4,1.4,9.4,1.4L69.7,38.6z"/>
		<linearGradient id="SVGID_43_" gradientUnits="userSpaceOnUse" x1="52.1233" y1="22.374" x2="53.1621" y2="22.374">
			<stop  offset="0" style="stop-color:#D4D4D4"/>
			<stop  offset="0.5275" style="stop-color:#9E9E9E"/>
			<stop  offset="0.8242" style="stop-color:#D9D9D9"/>
		</linearGradient>
		<path class="st199" d="M52.1,24c0.1-0.4,0.3-0.7,0.5-0.7c0.2,0,0.4,0.3,0.5,0.7l0-2.8c-0.1-0.2-0.3-0.4-0.5-0.4
			c-0.2,0-0.4,0.2-0.5,0.4L52.1,24z"/>
		<linearGradient id="SVGID_44_" gradientUnits="userSpaceOnUse" x1="106.6589" y1="34.047" x2="103.2095" y2="40.4667">
			<stop  offset="0" style="stop-color:#D1D1D1"/>
			<stop  offset="0.6209" style="stop-color:#FFFFFF"/>
			<stop  offset="0.7991" style="stop-color:#D6D6D6"/>
			<stop  offset="1" style="stop-color:#ABABAB"/>
		</linearGradient>
		<path class="st200" d="M111.8,36.5c-0.1-0.8-0.2-1.5-0.6-1.5c-0.4,0-0.5,0.9-0.6,1.5c-0.1,0.6-0.5,3-1.4,3.7c-1,0.6-2.8,1.1-5,1.2
			c-2.2,0.1-6.8,0.3-8,0.3l0.4-0.5c1.5,0,3.4-0.4,7.2-0.8c3.7-0.4,4.6-1.4,5.3-2.4c0.7-1,1.6-4.1,1.6-4.1s0.2-1.1,0.7-1.1
			c0.4,0,0.6,0.9,0.6,0.9L111.8,36.5z"/>
		<linearGradient id="SVGID_45_" gradientUnits="userSpaceOnUse" x1="120.3321" y1="39.6575" x2="121.255" y2="45.0639">
			<stop  offset="6.593400e-02" style="stop-color:#FFFFFF"/>
			<stop  offset="0.2637" style="stop-color:#8C8C8C"/>
			<stop  offset="0.3083" style="stop-color:#777777"/>
			<stop  offset="0.4066" style="stop-color:#4D4D4D"/>
			<stop  offset="0.6394" style="stop-color:#494949"/>
			<stop  offset="0.6868" style="stop-color:#474747"/>
			<stop  offset="1" style="stop-color:#EBEBEB"/>
		</linearGradient>
		<path class="st201" d="M114.9,41c0.8,0.2,1.6,0.2,2.2,0.3c1.1,0.1,3.5,0.4,3.5,0.4s1.3,0.1,1.3,0.5c0,0.4-1.3,0.5-1.3,0.5l4.1,0.1
			c0,0,1.7,0,1.7-0.7c0-0.6-1.8-0.7-1.8-0.7l-7.5-1.2c0,0-0.3,0-0.8-0.1L114.9,41z"/>
		<linearGradient id="SVGID_46_" gradientUnits="userSpaceOnUse" x1="113.9469" y1="42.6272" x2="110.6262" y2="55.4115">
			<stop  offset="6.043900e-02" style="stop-color:#E0E0E0"/>
			<stop  offset="0.2582" style="stop-color:#EBEBEB"/>
			<stop  offset="0.2667" style="stop-color:#E4E4E4"/>
			<stop  offset="0.4092" style="stop-color:#787878"/>
			<stop  offset="0.4725" style="stop-color:#4D4D4D"/>
			<stop  offset="0.6701" style="stop-color:#4D4D4D"/>
			<stop  offset="0.6868" style="stop-color:#4D4D4D"/>
			<stop  offset="1" style="stop-color:#5E5E5E"/>
		</linearGradient>
		<path class="st202" d="M113.2,44.1c-0.8,0.7-1.1,3-1.2,3.5c-0.1,0.4-0.4,1.9-0.4,1.9s-0.1,0.7-0.4,0.7l-0.1,2.4c0.4,0,0.7-1,0.7-1
			s1.2-4.2,1.7-5.3c0.1-0.4,0.3-0.7,0.6-1L113.2,44.1z"/>
		<linearGradient id="SVGID_47_" gradientUnits="userSpaceOnUse" x1="57.5615" y1="49.0309" x2="51.8614" y2="68.3448">
			<stop  offset="0" style="stop-color:#BDBDBD"/>
			<stop  offset="0.2253" style="stop-color:#828282"/>
			<stop  offset="0.2596" style="stop-color:#777777"/>
			<stop  offset="0.4066" style="stop-color:#4D4D4D"/>
			<stop  offset="0.4804" style="stop-color:#505050"/>
			<stop  offset="0.5421" style="stop-color:#5A5A5A"/>
			<stop  offset="0.5995" style="stop-color:#6C6C6C"/>
			<stop  offset="0.6539" style="stop-color:#848484"/>
			<stop  offset="0.6868" style="stop-color:#969696"/>
			<stop  offset="1" style="stop-color:#9C9C9C"/>
		</linearGradient>
		<path class="st203" d="M52.6,64.2c0.7,0,0.7-1.5,0.7-1.5s1.4-8.8,1.7-9.8c0.2-1.1,0.9-4.6,2.5-5.9l1.7,1.8
			c-1.6,1.5-2.1,3.4-2.4,4.5c-0.7,1.9-3.4,12.7-3.4,12.7s-0.2,1.4-0.7,1.4V64.2z"/>
		<linearGradient id="SVGID_48_" gradientUnits="userSpaceOnUse" x1="47.6195" y1="50.9736" x2="51.272" y2="70.0106">
			<stop  offset="0" style="stop-color:#B5B5B5"/>
			<stop  offset="0.2253" style="stop-color:#6B6B6B"/>
			<stop  offset="0.4066" style="stop-color:#4D4D4D"/>
			<stop  offset="0.4804" style="stop-color:#505050"/>
			<stop  offset="0.5421" style="stop-color:#5A5A5A"/>
			<stop  offset="0.5995" style="stop-color:#6C6C6C"/>
			<stop  offset="0.6539" style="stop-color:#848484"/>
			<stop  offset="0.6868" style="stop-color:#969696"/>
			<stop  offset="1" style="stop-color:#C2C2C2"/>
		</linearGradient>
		<path class="st204" d="M53.3,62.7c0,0-0.1,1.5-0.7,1.5c-0.7,0-0.7-1.5-0.7-1.5s-0.6-3.3-1.5-9.8c-0.9-6.5-4-7.4-6.6-7.9L43.4,47
			c1,0.3,1.9,0.7,2.5,1.3c1.6,1.4,3,4.5,4,9.1c1,4.6,2,8.5,2,8.5s0.2,1.4,0.7,1.4c0.6,0,0.7-1.4,0.7-1.4V62.7z"/>
		<linearGradient id="SVGID_49_" gradientUnits="userSpaceOnUse" x1="52.1865" y1="65.4555" x2="53.0733" y2="65.4555">
			<stop  offset="0" style="stop-color:#999999"/>
			<stop  offset="0.4505" style="stop-color:#E6E6E6"/>
			<stop  offset="0.8242" style="stop-color:#A3A3A3"/>
		</linearGradient>
		<path class="st205" d="M52.1,66.6c0.1,0.3,0.3,0.7,0.6,0.7c0.3,0,0.4-0.3,0.5-0.6l0-3c-0.1,0.3-0.3,0.6-0.6,0.6
			c-0.3,0-0.5-0.3-0.6-0.6L52.1,66.6z"/>
		<linearGradient id="SVGID_50_" gradientUnits="userSpaceOnUse" x1="17.431" y1="41.5338" x2="17.431" y2="42.8257">
			<stop  offset="0" style="stop-color:#A8A8A8"/>
			<stop  offset="4.339971e-02" style="stop-color:#B2B2B2"/>
			<stop  offset="0.2581" style="stop-color:#DCDCDC"/>
			<stop  offset="0.4268" style="stop-color:#F5F5F5"/>
			<stop  offset="0.5275" style="stop-color:#FFFFFF"/>
			<stop  offset="0.6462" style="stop-color:#EBEBEB"/>
			<stop  offset="0.8878" style="stop-color:#B8B8B8"/>
			<stop  offset="1" style="stop-color:#9E9E9E"/>
		</linearGradient>
		<path class="st206" d="M21.5,42.8c0,0-1.9-0.2-1.9-0.6c0-0.4,1.9-0.5,1.9-0.5l-6.6-0.1c0,0-1.4,0.1-1.4,0.6c0,0.6,1.2,0.6,1.7,0.6
			L21.5,42.8z"/>
		<linearGradient id="SVGID_51_" gradientUnits="userSpaceOnUse" x1="60.8847" y1="51.3097" x2="87.3434" y2="39.0214">
			<stop  offset="0" style="stop-color:#BDBDBD"/>
			<stop  offset="0.2637" style="stop-color:#6B6B6B"/>
			<stop  offset="0.4066" style="stop-color:#4D4D4D"/>
			<stop  offset="0.6394" style="stop-color:#494949"/>
			<stop  offset="0.6868" style="stop-color:#474747"/>
			<stop  offset="1" style="stop-color:#545454"/>
		</linearGradient>
		<path class="st207" d="M59,48.9c1.1-1.1,2.8-2.1,5.4-2.5c6-0.9,17.3-2.2,17.3-2.2s5.7-0.7,10.3-1l0.1-0.7
			c-2.2,0-17.3,1.3-24.5,1.8c-7.2,0.5-8.4,1.3-10,2.6L59,48.9z"/>
		<linearGradient id="SVGID_52_" gradientUnits="userSpaceOnUse" x1="108.5221" y1="45.0948" x2="97.749" y2="43.1024">
			<stop  offset="0" style="stop-color:#BFBFBF"/>
			<stop  offset="0.2637" style="stop-color:#737373"/>
			<stop  offset="0.4066" style="stop-color:#4D4D4D"/>
			<stop  offset="0.6394" style="stop-color:#494949"/>
			<stop  offset="0.6868" style="stop-color:#474747"/>
			<stop  offset="1" style="stop-color:#545454"/>
		</linearGradient>
		<path class="st208" d="M108.3,45.3c-0.8-1-2.1-1.1-2.9-1.2c-1.1-0.2-5.3-0.7-9-0.9c-1.3-0.1-3.4,0-5.6,0.2l-0.1-0.7
			c0.6,0,1.1-0.1,1.3-0.1c2.2,0,5.4,0,8.4,0.2c3,0.2,6.5,0.3,8.1,1c0.4,0.2,0.7,0.5,0.9,0.8L108.3,45.3z"/>
		<linearGradient id="SVGID_53_" gradientUnits="userSpaceOnUse" x1="108.9445" y1="43.5762" x2="110.9932" y2="52.2744">
			<stop  offset="0" style="stop-color:#D1D1D1"/>
			<stop  offset="0.2418" style="stop-color:#9C9C9C"/>
			<stop  offset="0.3284" style="stop-color:#777777"/>
			<stop  offset="0.4396" style="stop-color:#4D4D4D"/>
			<stop  offset="0.645" style="stop-color:#494949"/>
			<stop  offset="0.6868" style="stop-color:#474747"/>
			<stop  offset="1" style="stop-color:#4D4D4D"/>
		</linearGradient>
		<path class="st209" d="M108.1,45c0.3,0.3,0.6,0.7,0.8,1.2c0.7,1.8,1.5,5.3,1.5,5.3s0.3,1.1,0.7,1.1c0.4,0,0.7-1,0.7-1l-0.2-2.1
			c0,0-0.1,0.7-0.4,0.7c-0.3,0-0.3-0.4-0.4-0.7c-0.1-0.3-0.3-1.4-0.4-1.9c-0.1-0.4-0.3-2.4-1.2-3.4L108.1,45z"/>
		<linearGradient id="SVGID_54_" gradientUnits="userSpaceOnUse" x1="110.592" y1="51.0623" x2="111.625" y2="51.0623">
			<stop  offset="0" style="stop-color:#4A4A4A"/>
			<stop  offset="0.1028" style="stop-color:#4D4D4D"/>
			<stop  offset="0.1881" style="stop-color:#575757"/>
			<stop  offset="0.267" style="stop-color:#696969"/>
			<stop  offset="0.3421" style="stop-color:#818181"/>
			<stop  offset="0.4146" style="stop-color:#A0A0A0"/>
			<stop  offset="0.4841" style="stop-color:#C6C6C6"/>
			<stop  offset="0.5055" style="stop-color:#D4D4D4"/>
			<stop  offset="0.5481" style="stop-color:#CACACA"/>
			<stop  offset="0.6198" style="stop-color:#B0B0B0"/>
			<stop  offset="0.711" style="stop-color:#868686"/>
			<stop  offset="0.7527" style="stop-color:#707070"/>
			<stop  offset="0.9396" style="stop-color:#4F4F4F"/>
		</linearGradient>
		<path class="st210" d="M110.4,51.5c0,0,0.3,1.1,0.7,1.1c0.4,0,0.7-1,0.7-1l-0.2-2.1c0,0-0.1,0.7-0.4,0.7c-0.3,0-0.3-0.4-0.4-0.7
			L110.4,51.5z"/>
		<linearGradient id="SVGID_55_" gradientUnits="userSpaceOnUse" x1="113.7982" y1="44.5864" x2="122.6337" y2="42.5022">
			<stop  offset="0" style="stop-color:#E6E6E6"/>
			<stop  offset="0.2308" style="stop-color:#737373"/>
			<stop  offset="0.4505" style="stop-color:#4D4D4D"/>
			<stop  offset="0.6319" style="stop-color:#474747"/>
			<stop  offset="0.6923" style="stop-color:#666666"/>
			<stop  offset="0.7893" style="stop-color:#929292"/>
			<stop  offset="0.8763" style="stop-color:#B2B2B2"/>
			<stop  offset="0.9496" style="stop-color:#C5C5C5"/>
			<stop  offset="1" style="stop-color:#CCCCCC"/>
		</linearGradient>
		<path class="st211" d="M113.9,45.5c0.1-0.1,0.1-0.2,0.2-0.2c0.6-0.6,1.8-1.1,3.9-1.4c3.3-0.4,6.8-1.1,6.8-1.1s1.7,0,1.7-0.7
			l-4.4,0c0,0.4-1.3,0.5-1.3,0.5s-1.2,0.3-3.3,0.4c-2.2,0.1-3.4,0.3-4.2,1.1c0,0-0.1,0.1-0.1,0.1L113.9,45.5z"/>
		<linearGradient id="SVGID_56_" gradientUnits="userSpaceOnUse" x1="123.9103" y1="42.5011" x2="123.8966" y2="41.7472">
			<stop  offset="0" style="stop-color:#C9C9C9"/>
			<stop  offset="0.2457" style="stop-color:#C6C6C6"/>
			<stop  offset="0.4489" style="stop-color:#BCBCBC"/>
			<stop  offset="0.5055" style="stop-color:#B8B8B8"/>
			<stop  offset="0.5541" style="stop-color:#AEAEAE"/>
			<stop  offset="0.6358" style="stop-color:#949494"/>
			<stop  offset="0.7253" style="stop-color:#707070"/>
			<stop  offset="0.9396" style="stop-color:#4F4F4F"/>
		</linearGradient>
		<path class="st212" d="M121.4,41.7c0.3,0.1,0.6,0.2,0.6,0.4c0,0.1-0.1,0.2-0.3,0.3l4.5,0.1c0.2-0.1,0.3-0.2,0.3-0.4
			c0-0.4-0.6-0.5-1.1-0.6L121.4,41.7z"/>
		<linearGradient id="SVGID_57_" gradientUnits="userSpaceOnUse" x1="114.9563" y1="40.6709" x2="112.06" y2="33.9002">
			<stop  offset="0" style="stop-color:#FFFFFF"/>
			<stop  offset="0.1264" style="stop-color:#A6A6A6"/>
			<stop  offset="0.2743" style="stop-color:#777777"/>
			<stop  offset="0.4231" style="stop-color:#4D4D4D"/>
			<stop  offset="0.7308" style="stop-color:#474747"/>
			<stop  offset="0.9916" style="stop-color:#515151"/>
			<stop  offset="1" style="stop-color:#525252"/>
		</linearGradient>
		<path class="st213" d="M111.1,35.1c0.4,0,0.5,0.7,0.6,1.5c0.1,0.8,0.4,2.7,1.3,3.6c0.5,0.5,1.3,0.7,2.1,0.9l1.5-0.9
			c-0.9-0.2-2.7-0.7-3.3-2.1c-0.8-2-1.6-4.2-1.6-4.2s-0.1-0.9-0.6-0.9V35.1z"/>
		<linearGradient id="SVGID_58_" gradientUnits="userSpaceOnUse" x1="110.573" y1="34.184" x2="111.5517" y2="34.184">
			<stop  offset="0" style="stop-color:#D4D4D4"/>
			<stop  offset="0.2026" style="stop-color:#D0D0D0"/>
			<stop  offset="0.3703" style="stop-color:#C6C6C6"/>
			<stop  offset="0.5055" style="stop-color:#B8B8B8"/>
			<stop  offset="0.5466" style="stop-color:#AEAEAE"/>
			<stop  offset="0.6157" style="stop-color:#949494"/>
			<stop  offset="0.7036" style="stop-color:#6A6A6A"/>
			<stop  offset="0.7253" style="stop-color:#5E5E5E"/>
			<stop  offset="0.9396" style="stop-color:#4D4D4D"/>
		</linearGradient>
		<path class="st214" d="M110.8,33.2c0.1-0.1,0.2-0.2,0.3-0.2c0.1,0,0.3,0.1,0.3,0.2l0,2.2c-0.1-0.2-0.2-0.3-0.3-0.3
			c-0.1,0-0.2,0.1-0.3,0.3L110.8,33.2z"/>
		<linearGradient id="SVGID_59_" gradientUnits="userSpaceOnUse" x1="66.957" y1="39.3021" x2="96.4568" y2="41.4053">
			<stop  offset="0" style="stop-color:#E8E8E8"/>
			<stop  offset="0.6209" style="stop-color:#FFFFFF"/>
			<stop  offset="0.7991" style="stop-color:#D6D6D6"/>
			<stop  offset="1" style="stop-color:#ABABAB"/>
		</linearGradient>
		<path class="st215" d="M99.5,41c-1.3,0.2-2.2,0.3-3,0.3c-1.5,0-4.5,0-7-0.3c-2.4-0.3-18.2-2.2-18.2-2.2s-1-0.1-2.2-0.3l0,1.8
			c1.1,0,15.8,1.1,18.1,1.2c2.3,0.1,7.7,0.2,8.9,0.2c0.6,0,2,0,3.5-0.1L99.5,41z"/>
		<linearGradient id="SVGID_60_" gradientUnits="userSpaceOnUse" x1="118.4073" y1="62.9709" x2="119.8521" y2="62.9709">
			<stop  offset="2.747200e-02" style="stop-color:#4A4A4A"/>
			<stop  offset="8.942832e-02" style="stop-color:#575757"/>
			<stop  offset="0.2055" style="stop-color:#7B7B7B"/>
			<stop  offset="0.3571" style="stop-color:#B3B3B3"/>
			<stop  offset="0.489" style="stop-color:#D4D4D4"/>
			<stop  offset="0.55" style="stop-color:#C7C7C7"/>
			<stop  offset="0.6618" style="stop-color:#A5A5A5"/>
			<stop  offset="0.7198" style="stop-color:#919191"/>
			<stop  offset="0.8736" style="stop-color:#757575"/>
		</linearGradient>
		<path class="st216" d="M118.5,61.4c0,0,0.1,0.9,0.6,0.9c0.5,0,0.5-0.7,0.5-0.7l0.2,1.5c-0.3,1-0.4,1.5-0.7,1.5
			c-0.2,0-0.4-0.5-0.7-1.3L118.5,61.4z"/>
		<radialGradient id="SVGID_61_" cx="46.9569" cy="38.0609" r="52.6584" gradientUnits="userSpaceOnUse">
			<stop  offset="7.142900e-02" style="stop-color:#FFFFFF"/>
			<stop  offset="7.495473e-02" style="stop-color:#FDFDFD"/>
			<stop  offset="0.144" style="stop-color:#D5D5D5"/>
			<stop  offset="0.2073" style="stop-color:#B8B8B8"/>
			<stop  offset="0.2621" style="stop-color:#A7A7A7"/>
			<stop  offset="0.3022" style="stop-color:#A1A1A1"/>
			<stop  offset="0.3748" style="stop-color:#8F8F8F"/>
			<stop  offset="0.483" style="stop-color:#7D7D7D"/>
			<stop  offset="0.5947" style="stop-color:#717171"/>
			<stop  offset="0.7143" style="stop-color:#6E6E6E"/>
			<stop  offset="1" style="stop-color:#696969"/>
		</radialGradient>
		<path class="st217" d="M28.9,41l-7.4,0.7c0,0-1.9,0.1-1.9,0.5c0,0.4,1.9,0.6,1.9,0.6l9.8,0.8c0,0,9.9,1,12.5,1.5
			c2.6,0.5,5.7,1.3,6.6,7.9c0.9,6.5,1.5,9.8,1.5,9.8s0,1.5,0.7,1.5c0.7,0,0.7-1.5,0.7-1.5s1.4-8.8,1.7-9.8c0.2-1.1,0.9-4.6,2.5-5.9
			c1.6-1.3,2.8-2.1,10-2.6c7.2-0.5,22.4-1.8,24.5-1.8c2.2,0,5.4,0,8.4,0.2c3,0.2,6.5,0.3,8.1,1c1.5,0.7,1.8,3.4,1.9,3.9
			c0.1,0.5,0.3,1.6,0.4,1.9c0.1,0.3,0.2,0.7,0.4,0.7c0.3,0,0.4-0.7,0.4-0.7s0.3-1.5,0.4-1.9c0.1-0.4,0.4-2.7,1.2-3.5
			c0.8-0.7,2-0.9,4.2-1.1c2.2-0.1,3.3-0.4,3.3-0.4s1.3-0.1,1.3-0.5c0-0.4-1.3-0.5-1.3-0.5s-2.4-0.3-3.5-0.4c-1.1-0.1-3-0.2-4-1.1
			c-1-0.9-1.2-2.9-1.3-3.6c-0.1-0.8-0.2-1.5-0.6-1.5c-0.4,0-0.5,0.9-0.6,1.5c-0.1,0.6-0.5,3-1.4,3.7c-1,0.6-2.8,1.1-5,1.2
			c-2.2,0.1-6.8,0.3-8,0.3c-1.2,0-6.6-0.1-8.9-0.2c-2.3-0.1-16.9-1.2-17.9-1.2c-1.1,0-6.9-0.4-9.4-1.4c-2.5-1-4-3.2-4.5-5.4
			c-0.6-2.2-1.8-8.1-1.8-8.1s-0.3-2.2-0.8-2.2c-0.6,0-0.8,2.3-0.8,2.3s-1.2,7-2.4,9.3c-1.1,2.3-4.1,4.6-8.1,5
			C37.3,40.3,28.9,41,28.9,41z"/>
		<linearGradient id="SVGID_62_" gradientUnits="userSpaceOnUse" x1="99.4246" y1="50.2007" x2="111.3786" y2="66.3607">
			<stop  offset="0" style="stop-color:#ADADAD"/>
			<stop  offset="9.175625e-02" style="stop-color:#999999"/>
			<stop  offset="0.1538" style="stop-color:#919191"/>
			<stop  offset="0.1679" style="stop-color:#8F8F8F"/>
			<stop  offset="0.3421" style="stop-color:#7D7D7D"/>
			<stop  offset="0.5219" style="stop-color:#717171"/>
			<stop  offset="0.7143" style="stop-color:#6E6E6E"/>
			<stop  offset="1" style="stop-color:#8A8A8A"/>
		</linearGradient>
		<path class="st218" d="M104.9,56.2c-1.2,0-8,0.6-9.9,0.7c-1.8,0.1-2.4,1.3-2.7,1.8c-0.3,0.5-1,4.2-1.1,4.5
			c-0.1,0.3-0.2,0.9-0.4,0.9c-0.2,0-0.3-0.4-0.4-0.7c-0.1-0.3-0.8-3.5-1-4.4c-0.2-0.9-1-1.3-1.9-1.8c-0.9-0.4-3.1-0.5-3.1-0.5
			s-1.8-0.2-3.2-0.3c-1.4-0.1-2.1-0.3-2.1-0.7c0-0.4,0.9-0.3,2-0.5c3.6-0.1,4.7-0.3,6.6-0.9c1.8-0.5,2-3,2.2-3.9
			c0.2-0.9,0.4-1.9,0.7-1.9c0.3,0,0.4,0.3,0.7,1.7c0.4,2.6,1,3.7,2.2,4.2c2.1,0.7,8.6,0.9,9.9,0.9c0,0,3.9,0.1,5.9,0
			c2-0.1,5.6-0.5,6.4-0.7c0.8-0.2,2-0.6,2.2-2c0.2-1.3,0.6-2.8,1-2.8c0.4,0,0.6,1.1,0.7,1.4c0,0,0.3,2.6,1.8,3.1
			c1.5,0.5,3.7,0.7,4.6,0.8c0.9,0.1,1.7,0.2,1.7,0.6c0,0.4-1.2,0.7-1.7,0.7c-0.5,0-3,0.1-3.9,0.5c-0.9,0.4-1.7,0.7-2,2.4
			c-0.3,1.7-0.5,2.3-0.5,2.3s-0.1,0.7-0.5,0.7c-0.5,0-0.6-0.9-0.6-0.9s-0.6-2.7-0.9-3.3c-0.4-0.6-0.8-1.5-4.4-1.6
			C109.6,56.3,108.1,56.1,104.9,56.2z"/>
	</g>
	<linearGradient id="SVGID_63_" gradientUnits="userSpaceOnUse" x1="98.9972" y1="80.3061" x2="92.8718" y2="75.7301">
		<stop  offset="0" style="stop-color:#E6E6E6"/>
		<stop  offset="0.2444" style="stop-color:#C6C6C6"/>
		<stop  offset="0.564" style="stop-color:#A4A4A4"/>
		<stop  offset="0.8273" style="stop-color:#8F8F8F"/>
		<stop  offset="1" style="stop-color:#878787"/>
	</linearGradient>
	<path class="st219" d="M63.8,70.4c0,0,2.2,0.1,3.1,0.5c0.9,0.4,1.7,0.8,1.9,1.7c0.2,0.9,1,4.1,1,4.4c0.1,0.3,0.2,0.7,0.4,0.7
		c0.2,0,0.3-0.6,0.4-0.9c0.1-0.3,0.8-3.9,1.1-4.4c0.3-0.5,0.9-1.7,2.7-1.8c1.8-0.1,8.6-0.7,9.8-0.7c1.2,0,8.3,0.2,10,0.3
		c1.7,0.1,4.1,0.3,4.6,1.6c0.6,1.3,0.7,2.6,0.8,3.1c0.1,0.5,0.3,0.8,0.6,0.8c0.3,0,0.5-0.6,0.6-0.9c0.1-0.3,0.5-3.9,2.4-4.3
		c1.9-0.4,4.9-0.6,5.6-0.7c0.7,0,1.2-0.1,1.2-0.6c0-0.5-0.8-0.5-1.4-0.5c-0.6,0-4.1-0.2-5.5-0.7c-1.4-0.6-1.9-1.5-2.2-3.6
		c-0.1-0.6-0.4-1.2-0.7-1.2c-0.3,0-0.6,0.7-0.7,1.2c-0.1,0.5-0.1,2.3-1.3,3.1c-1.2,0.8-2.4,1-6.5,1.3c-4.1,0.2-7.6,0.1-8.8,0.1
		c-1.3,0-7.8-0.2-9.9-0.9c-1.2-0.5-1.8-1.5-2.2-4.1c-0.2-1.3-0.3-1.7-0.7-1.7c-0.3,0-0.6,1-0.7,1.9C69.2,65,69,67.5,67.2,68
		c-1.9,0.6-3,0.8-6.6,0.9c-1.1,0.1-2,0.1-2,0.5s0.7,0.6,2.1,0.7C62,70.2,63.8,70.4,63.8,70.4z"/>
	<linearGradient id="SVGID_64_" gradientUnits="userSpaceOnUse" x1="129.5669" y1="55.2317" x2="129.5669" y2="56.1178">
		<stop  offset="0" style="stop-color:#C2C2C2"/>
		<stop  offset="0.1258" style="stop-color:#BABABA"/>
		<stop  offset="0.3218" style="stop-color:#A4A4A4"/>
		<stop  offset="0.4505" style="stop-color:#919191"/>
		<stop  offset="0.7154" style="stop-color:#B1B1B1"/>
		<stop  offset="0.8242" style="stop-color:#BFBFBF"/>
	</linearGradient>
	<path class="st220" d="M127.6,55.4c0.1,0.1,0.2,0.2,0.2,0.3c0,0.2-0.2,0.3-0.5,0.4l3.4,0.2c0.6-0.1,1.2-0.3,1.2-0.5
		c0-0.3-0.3-0.5-1-0.6L127.6,55.4z"/>
</g>
</svg>
