<?xml version="1.0" encoding="utf-8"?>
<!-- Generator: Adobe Illustrator 24.0.2, SVG Export Plug-In . SVG Version: 6.00 Build 0)  -->
<svg version="1.1" id="Layer_1" xmlns="http://www.w3.org/2000/svg" xmlns:xlink="http://www.w3.org/1999/xlink" x="0px" y="0px"
	 viewBox="0 0 144 101" style="enable-background:new 0 0 144 101;" xml:space="preserve">
<style type="text/css">
	.st0{display:none;}
	.st1{fill-rule:evenodd;clip-rule:evenodd;fill:#0095D7;}
	.st2{fill-rule:evenodd;clip-rule:evenodd;fill:#FFFFFF;}
</style>
<g id="Layer_1_1_" class="st0">
</g>
<g>
	<path class="st1" d="M45.2,25.1c7.8-0.7,15.7-0.9,23.5-0.7c1.6,6.5,1.3,12.9,1.7,19.3c-0.1,2.1,2.1,2.2,2,0.1
		c0.5-6.4,0.3-13.1,2.3-19.4c7-0.3,14.8,0,23.7,0.8c-7.5,4.1-12.4,10.6-16.1,18.9c-0.8,2.1,1.1,2.7,2.1,0.5
		c4.8-7.9,9-16.2,19.7-18.7c7.4-1,20.2,0.7,31.6,2.6c6.5,0.9,8.3,4.5,7.3,9.6c-9.5,52.2-140,48-141.8-1c-0.2-6.1,3.6-8.5,9.1-9.3
		c8.9-1.2,14.1-2,26.6-2.3c11.2,0.8,17.4,8.6,21.8,18.9c0.9,2.3,3,1.4,2.3-0.2C56.6,34.8,51.3,28.7,45.2,25.1L45.2,25.1z"/>
	<path class="st2" d="M133.5,32.3c-25.1-2.9-45.2,2.5-47.3,35.4c-0.4,3,1.6,4.3,3.9,3.7C113.7,65.7,134.3,56.2,133.5,32.3
		L133.5,32.3z"/>
	<path class="st2" d="M9.4,32c25.1-2.9,45.2,2.5,47.3,35.4c0.4,3-1.6,4.3-3.9,3.7C29.3,65.5,8.7,56,9.4,32L9.4,32z"/>
</g>
</svg>
