<?xml version="1.0" encoding="utf-8"?>
<!-- Generator: Adobe Illustrator 24.0.2, SVG Export Plug-In . SVG Version: 6.00 Build 0)  -->
<svg version="1.1" id="Layer_1" xmlns="http://www.w3.org/2000/svg" xmlns:xlink="http://www.w3.org/1999/xlink" x="0px" y="0px"
	 viewBox="0 0 144 101" style="enable-background:new 0 0 144 101;" xml:space="preserve">
<style type="text/css">
	.st0{display:none;}
	.st1{fill:#373435;}
	.st2{fill-rule:evenodd;clip-rule:evenodd;fill:#373435;}
	.st3{fill-rule:evenodd;clip-rule:evenodd;fill:#FFF212;}
	.st4{fill-rule:evenodd;clip-rule:evenodd;fill:#ED3237;}
	.st5{fill-rule:evenodd;clip-rule:evenodd;fill:#FEFEFE;}
	.st6{fill-rule:evenodd;clip-rule:evenodd;fill:#00A859;}
</style>
<g id="Layer_1_1_" class="st0">
</g>
<g id="Capa_x0020_1">
	<g>
		<path class="st1" d="M44.2,14.5c9.2-4,18.1-6,27.3-6c9.1,0,18.4,1.8,28.3,5.6l0.3,0.1l0,0.3l0,18.4v0l0,0v0c0,1.8-0.3,3.9-0.7,6
			c-0.4,2.2-1.1,4.4-1.9,6.7C93.1,57.6,84,71.1,72.2,77L72,77.1L71.8,77c-0.1,0,0.1,0,0,0l0,0c-2.4-1.2-4.6-2.6-6.7-4.3
			c-2.1-1.7-4.1-3.5-5.9-5.5C49.9,56.8,44.4,42.5,44,33v0l-0.1-18l0-0.3L44.2,14.5L44.2,14.5z M99.2,33C99.2,32.9,99.2,32.9,99.2,33
			L99.2,33c0,1.8-0.3,3.8-0.7,5.9c-0.4,2.1-1.1,4.3-1.9,6.6c-4.2,11.7-13,24.8-24.6,30.7c-2.2-1.1-4.4-2.5-6.4-4.1
			c-2.1-1.6-4-3.5-5.8-5.4c-9.2-10.2-14.6-24.3-15-33.7l-0.1-17.7c9-3.9,17.7-5.8,26.6-5.8c8.9,0,18,1.8,27.7,5.4L99.2,33
			C99.2,32.9,99.2,33,99.2,33z M99.2,32.9L99.2,32.9L99.2,32.9z"/>
	</g>
	<path class="st2" d="M27,79.9v2.6h2.5v14.3h-2.9v2.6h9.9v-2.6h-2.8v-6h1.7l0,1.1h2.1v-5.1h-2.2v1.3l-1.5,0v-5.8h75v-2.6L27,79.9
		L27,79.9z M43.1,84.8C41.6,85,40.5,85.7,40,87v9.1c0.1,1.9,1.2,3,3.4,3.3h5.4c2-0.2,3.2-1.1,3.6-2.7v-2h-4.2v1.8
		c-0.1,0.6-0.4,0.9-0.9,0.9h-1.9c-0.7,0.1-0.9-0.2-1.1-0.6v-3.6h8v-6.1c-0.7-1.5-1.7-2.1-3-2.4L43.1,84.8L43.1,84.8z M45,86.7
		c-0.4,0-0.8,0.4-0.8,0.8v4.1H48v-4c0-0.4-0.2-0.7-0.6-0.9L45,86.7L45,86.7z M54,84.8v2.3h1.5v9.7h-1.4v2.5H61v-2.5h-1.5v-7.2
		c1.6-1.8,2.5-2.5,2.8-2.3v5.2h4.3v-5.8c-0.8-2.4-3.2-2.7-5.2-1.1L59.5,87v-2.2L54,84.8L54,84.8z M68.3,84.8v2.3h1.5v9.7h-1.4v2.5
		h6.8v-2.5h-1.5v-7.2c1.6-1.8,2.5-2.5,2.8-2.3v5.2h4.3v-5.8c-0.8-2.4-3.2-2.7-5.2-1.1L73.8,87v-2.2L68.3,84.8L68.3,84.8z M96.3,84.8
		v2.3h1.5v9.7h-1.4v2.5h6.8v-2.5h-1.5v-7.2c1.6-1.8,2.5-2.5,2.8-2.3v5.2h4.3v-5.8c-0.8-2.4-3.2-2.7-5.2-1.1l-1.8,1.2v-2.2L96.3,84.8
		L96.3,84.8z M110.2,84.7v2.2l1.4,0v9.8h-1.4v2.5h7.2v-2.4l-1.5,0v-9.9h1.4v-2.2L110.2,84.7L110.2,84.7z M113.7,79.7
		c-2,0-3.7,0.6-3.7,1.4c0,0.8,1.6,1.4,3.7,1.4s3.7-0.6,3.7-1.4S115.8,79.7,113.7,79.7z M82.1,89.3h4.2v-1.8c0-0.6,0.2-0.9,0.8-0.9
		h1.7c0.6,0,0.8,0.4,0.7,1v3.2h-3.9c-1.8-0.1-3.3,1.1-3.3,2.4v3.4c0.1,1.2,1.2,2.8,3.2,2.8h9.4v-2.6h-1v-8.9c-0.4-2-1.6-3-3.8-3.2
		h-4C84.4,84.8,82,85.4,82.1,89.3L82.1,89.3z M89.5,92.2v5.2h-2.2c-0.7,0.1-1-0.1-1.1-0.6v-3.9c0-0.3,0.2-0.5,0.7-0.7H89.5z"/>
	<path class="st3" d="M44.4,14.9C62.7,7,80,7.1,99.6,14.5l0,18.4c-0.2,13-11.3,35.5-27.6,43.7C55.3,68.4,44.9,46.1,44.5,33
		L44.4,14.9L44.4,14.9z"/>
	<path class="st2" d="M70,43.1L69.6,43l-0.1,0.2c0,0-0.1,0.2,0,0.5c0.1,0.3,0,0.7,0.1,0.9c0.1,0.2,0.2,0.4,0.3,0.8
		c0.1,0.4,0.3,1.5,0.3,1.5s0.1,0.4,0.3,0.8c0.2,0.4,0.5,0.6,0.6,0.9c0.1,0.3,0.5,1,0.5,1l0.5,0.6c0,0,0.1,0,0.2,0.3
		c0.1,0.4,0.1,0.3,0.1,0.5c0,0.2-0.3,0.4-0.3,0.4s-0.5-0.1-0.8-0.1c-0.4,0-0.5,0-0.9-0.1c-0.4,0-1-0.1-1-0.1s-0.2-0.2-0.6-0.3
		c-0.4-0.1-0.9-0.2-0.9-0.2s-0.4-0.2-0.7-0.2c-0.3,0-0.5,0-0.5,0l-0.6,0l-0.4-0.2h-0.8h-0.9l-0.6,0h-0.7l-0.3,0.2l0.2,0.8l0.3,0.4
		l0.7,0.4c0,0,0.5,0.3,0.7,0.3c0.2,0,0.6,0,0.9,0s0.7-0.1,0.7-0.1s0.5-0.3,0.7,0c0.1,0.2,0.5,0.4,0.5,0.4s0.2,0,0.5,0
		c0.3,0,0.4,0,0.7,0c0.3,0,0.1-0.3,0.7,0c0.6,0.2,1.1,0.2,1.1,0.2l1.3,0.4c0,0,0.3,0.2,0.6,0.3c0.2,0.1,0.5,0.1,0.7,0.2
		c0.3,0.1,0.7,0.2,1,0.2c0.2,0,0.6-0.2,0.6-0.2s0.2-0.1,0.2-0.4c0-0.3,0-0.5,0-0.5l-0.6-1l-0.3-1.1l-0.3-1.2l0-1.1l0.2-1.2l-0.2-0.3
		l-0.7-0.7l-0.1-0.4l-0.1-0.5l-0.2-0.5l-0.3-0.5L71.4,44l-0.5-0.4l-0.5-0.3L70,43.1L70,43.1z"/>
	<path class="st2" d="M71.5,12.1l-0.2,0.2l0,0.2c-0.1,0.3,0,0.6,0,0.6l0.1,0.2l-0.1,0.3l-0.5,0h-0.4l-0.5-0.1l-0.4-0.2l-0.3,0h-0.4
		h-0.5l-0.3,0.1l0.3,0.2l0.3,0.1l-0.2,0.1l-0.3,0l-0.5-0.1l-0.3,0.2L67.1,14l0.4,0c0,0-0.1-0.1,0.2-0.1c0.3,0,0.4,0.1,0.4,0.1l0.3,0
		l0.2,0.1l0.5,0.2l0.3,0.2l-3.4,1.8L65,16.6l-0.5,0.5l-0.7,0.7v1.3l0.2,0.2l0.4,0l1.4-0.4l0.2,0.1l0,0.2l-0.4,0.1l-1.1,0.4
		c0.2,0.2,0.5,0.3,0.5,0.3s0.1,0,0.3,0c0.2,0,0,0,0.4-0.1c0.4-0.1,0.5-0.1,0.5-0.1l0.4-0.2l0.3,0l0.3-0.1l0.2,0.2l0.4,0l0.5,0.1
		l0.5,0.1l0.5,0.1l0.5,0H70l0.2,0.4l-0.1,0.4L70,21.4l-0.3,0.7l-0.3,0.6l-0.5,0.8l-0.4,0.6L68,24.7l-0.5,0.5l-0.6,0.4l-0.4,0.4
		l-0.2,0.6L66,27.1l-0.7,0.4l-0.6,0.4L64,28.4l-0.6,0.4l-0.5,0.3l-0.2-0.2l-0.6-0.2l-0.6-0.3l-0.6-0.2l-0.4-0.3l-0.4-0.5L59.6,27
		l-0.5-0.3l-0.3-0.1l-0.6,0l-0.5,0.1L57.2,27l-0.3,0.4l-0.2,0.4l-0.4,0.6l-0.3,1L56,29.9c0,0-0.4,0.8-0.4,1c0,0.2-0.2,0.8-0.2,0.8
		L55,32.6l0,0.4l-0.4,0.6c0,0-0.2,0.2-0.2,0.4s0.1,0.8,0.1,0.8s0,0.4,0,0.6s-0.1,0.3-0.1,0.5c0,0.2-0.1,0.6,0,0.8
		c0,0.2,0.1,0.7,0.1,0.7l0.5,0.2l0.3-0.4l0.4-0.3l0.4-0.4L56,35.8l-0.2-0.5l-0.2-0.6l-0.1-0.9l0.2-1l0.2-0.6l0.4-0.3l0.4-0.3
		l0.6-0.4l0.2-0.7l0.3-0.6l0-0.4l0.5,0.1l0.2,0.2l0.4,0.4l0.4,0.4l0.5,0.5l0.6,0.5l0.3,0.3l0,0.2l-0.4,0l-0.9-0.3l-0.6,0l-0.5,0
		L58,31.6l-0.4,0L57,31.7l-0.5,0.4l-0.4,0.5L56,33.2v0.6l0.1,0.9l0.2,0.9l0.4,2.7l0.2,0.4c0,0,0,0.2,0,0.5c0,0.2,0.3,0.6,0.3,0.6
		l0.4,0.3l0.4,0.5l0.4,0.9l0.3,0.4l0.4,0.5l0.4,0.3l0.6,0.1l0.4-0.2l0.1-0.6l0-0.7l-0.1-0.6l-0.4-0.5l-0.4-0.4L59,39.7v-0.8
		l-0.3-0.3l-0.2-0.5L58.1,37L58,36.1l-0.3-0.8l0-0.6l0.1-0.4l0.2-0.2l0.4,0.1l0.8,0.4l0.6,0.3l0.7,0.3l0.6,0.3l0.4,0.4l0.6,0.6
		l0.5,0.2l0.6,0.1h0.8l0.4,0l-0.2,0.4l0.1,0.4c0,0,0.2,0.3,0.3,0.5c0.1,0.2,0.4,0.6,0.4,0.6l0.6,0.6l0.7,0.6l0.6,0.6l0.8,0.6
		l0.8,0.6l0.9,0.5l0.6,0.6l1,0.7l0.8,0.8l0.5,0.5l0.3,0.8l0.2,0.6c0,0,0.4,0.4,0.6,0.4c0.2,0,0.4,0,0.4,0l0.4-0.6l0.4-0.9l0-1l0-0.4
		l0.2-0.5c0,0,0.2-0.3,0.4-0.3c0.2,0,0.3,0.1,0.3,0.1l-0.4,0.5c0,0-0.3,0.3-0.3,0.5s0,0.6,0,0.6l-0.1,0.6L75,45.9l-0.3,0.4l-0.5,0.6
		L74,47.4L73.8,48c0,0-0.2,0.8-0.2,1s0.2,0.4,0.2,0.7c0,0.3,0.1,0.8,0.2,1c0.1,0.2,0.3,0.8,0.3,0.8s0.2,0.4,0.3,0.6
		c0.2,0.2,0.5,0.9,0.5,0.9l0.4,0.5l0.2,0.5l0.3,0.4l0.2,0.3c0,0,0,0.3-0.2,0.5c-0.1,0.2-0.3,0.5-0.4,0.7c-0.2,0.2-0.6,0.5-0.6,0.5
		l-0.5,0.8l-0.8,0.6l-0.4,0.2l-0.5,0.2L72,59.1l-0.3,0.5L71,60.3l-0.6,0.9l-0.2,0.6l0.2,0.6l0.6,0.1l2.2-1l0.1-0.3l0-0.5l0.1-0.4
		l0.6-0.4l0.4-0.5l0.2-0.5l0.1-0.3l0.4-0.3l0.4-0.4l0.2-0.3l0.6-0.5l0.4-0.4l1-0.6l0.6-0.4l0.1-1.6l-0.4-0.5l-0.3-0.5
		c0,0,0-0.4,0-0.6c0-0.2,0-0.8,0-0.8s0.1-0.3,0.2-0.5c0.1-0.2,0.6-0.6,0.6-0.6l0.7-0.6l0.8-0.4l0.7-0.8l0.8-1l0.4-0.7l0.4-0.9
		l0.3-0.7V45c0,0,0.1-0.4,0.3-0.2s0.2,0.2,0.3,0.4c0.1,0.2,0.1,0.6,0.1,0.9c0,0.3-0.1,0.7-0.1,0.7l0,0.8l0,0.7l0.3,0.2V48l0.1-0.5
		l0.2-0.5v-0.5l0.2-0.5c0,0,0.2,0.3,0.3,0.6c0,0.2,0.1,0.7,0.1,0.7s0,0.4-0.1,0.7c-0.1,0.3,0,0.4-0.2,0.6s-0.4,0.6-0.4,0.6
		s-0.3,0.3-0.3,0.5c0,0.2-0.1,0.4-0.1,0.7c0,0.3,0.2,0.7,0.2,0.7l0.2-0.3l0.1-0.5l0.3-0.7l0.5-0.6l0.6-1l0.3-1.2l0-0.8l-0.1-0.5
		L84.8,45l-0.1-0.4l0.2-0.1l0.4,0.6c0,0,0,0,0.1,0.3c0.1,0.2,0.1,0,0.1,0.4c0,0.4,0,0.4,0.1,0.7c0.1,0.3,0.1,0.4,0.2,0.6
		s0.2,0.4,0.2,0.6c0,0.2,0.3,0.5,0.3,0.5v-0.3l-0.2-0.4l0.1-0.5l-0.1-0.5l0.1-0.5l0.1-0.6l-0.2-0.5l-0.2-0.5v-0.4l0.8-0.4l1-0.6
		l0.4-0.5l0.5-0.5l0.3-0.8l0.1-0.9l0.2-1.1L89,37.8l-0.2-0.9L88.7,36l-0.1-0.8l0.2-0.8l0.3-0.8l0.5-0.7l0.3-0.4l0.3-1l-0.4,0.3
		L89.5,32l-0.1,0.2L89,32.7l-0.4,0.4l-0.3,0.5l-0.2,0.4h-0.4l-0.2-0.5c0,0,0-0.3,0-0.6c0-0.2,0.2-0.8,0.2-0.8l0.2-0.6l0.2-0.6
		l0.5-0.6l0.3-0.7l0.2-0.9l-0.4,0.5L88.4,30l-0.6,0.6l-0.4,0.5l-0.5,0.5l-0.2,0.3l-0.2-0.2l-0.1-0.4l0.2-0.7l0.2-0.7l0.2-0.8l0.6-1
		l0.6-0.6l0.5-0.4c-0.2,0-0.7,0.2-0.7,0.2l-0.6,0.6l-1.1,1.2l-0.4,0.9l-0.2,0.8l-0.1,0.7c0,0-0.1,0.6-0.1,0.8c0,0.2,0.1,0.5,0.1,0.8
		c0,0.3,0,0.5,0.2,0.9c0.2,0.4,0.3,0.6,0.4,0.9c0.1,0.3,0.2,0.5,0.2,0.8s0,0.4,0.1,0.7c0.1,0.3,0.1,0.7,0.1,0.9s0.1,0.8,0.1,0.8
		l-0.1,0.9c0,0,0,0.4,0,0.6c0,0.2-0.2,0.3-0.2,0.6c-0.1,0.3-0.1,0.5-0.2,0.7c-0.2,0.2-0.3,0.4-0.5,0.6c-0.2,0.2-0.5,0.5-0.5,0.5
		s-0.2,0.2-0.6,0.4c-0.3,0.2-0.5,0.1-0.7,0.2c-0.2,0.1-0.2,0.2-0.5,0.2c-0.3,0-0.9,0.1-0.9,0.1l0-0.4l-0.3-0.5l-0.4-0.6l-0.4-0.8
		L80.8,40l-0.5-0.5L80,39.1l-0.7-0.6l-0.6-0.6L78,37.5l-0.9-0.7l-0.8-0.6l-0.9-1l-0.9-1.2L74,33.2l-0.4-0.7l-0.2-0.8l0.1-0.8
		c0,0,0.4,0.2,0.6,0.3c0.2,0.1,0.8,0.1,0.8,0.1l0.4,0.2l0.6,0.2l0.5,0.4l0.6,0.5l0.5-0.1l-0.2-0.2L77,32.2l-0.4-0.5l-0.3-0.4
		L75.9,31l-0.4-0.2l0.6-0.1l0.6,0.4l0.4,0.4c0.2-0.2,0.1-0.4,0.1-0.4l-0.6-0.4l-0.4-0.4L75.5,30l-0.6-0.2l-0.2-0.3l0.3,0l0.5,0.2
		l0.4,0.1l0.4,0.1l0.5,0.3c0,0,0.3,0,0.6,0.1c0.3,0.1,0.5,0.2,0.8,0.2c0.2,0,0.4,0,0.6,0c0.2-0.1,0.6-0.3,0.6-0.3l0.4-0.4L79.2,30
		c0,0-0.4,0.2-0.6,0.2c-0.2,0-0.5,0-0.5,0s-0.4-0.2-0.6-0.4c-0.1-0.2-0.2-0.3-0.4-0.5c-0.2-0.2-0.6-0.4-0.8-0.4
		c-0.2,0-0.6-0.1-0.6-0.1l-0.4-0.3c0,0,0.2,0,0.4,0.1c0.2,0,0.6,0,0.6,0l0.3-0.1c0,0,0.1,0,0.4,0s0.2-0.2,0.5,0.1
		c0.3,0.3,0.7,0.4,0.7,0.4l0.1-0.2L78,28.4l-0.3-0.2l-0.4-0.3c0,0-0.2-0.2-0.5-0.2c-0.2,0-0.5,0-0.5,0l-0.2-0.2c0,0,0-0.1,0.3,0
		c0.3,0,0.5,0.1,0.5,0.1l0.5,0.2c0,0,0.2,0.2,0.4,0.2c0.2,0,0.5,0.1,0.5,0.1l0.6,0c0.1-0.2,0-0.4,0-0.4h-0.5L78,27.2l-0.3-0.4
		c0,0-0.3,0-0.5,0c-0.2,0-0.4-0.1-0.6-0.2c-0.2-0.1-0.4-0.2-0.4-0.2s-0.2-0.2,0-0.2c0.2,0,0.7,0.2,0.7,0.2l0.4,0.1h0.2l-0.3-0.2
		c-0.2-0.2-0.2-0.4-0.2-0.4l0.4,0.1h0.2l0.5,0.2l0.4,0.3l0.3,0.3h0.3l-0.2-0.2c0,0-0.2-0.1-0.3-0.3c0-0.2,0-0.2-0.2-0.4
		c-0.1-0.2-0.1-0.3-0.3-0.4c-0.2-0.1-0.2-0.2-0.5-0.3c-0.3-0.1-0.6-0.2-0.6-0.2l-0.4-0.4c0,0-0.1-0.2-0.3-0.4
		c-0.2-0.1-0.4-0.2-0.4-0.2l0-0.4l0.7,0.2l0.5,0c0,0,0.1,0,0.2,0.2c0.1,0.2,0.3,0.4,0.3,0.4s0.3,0.3,0.5,0.3c0.2,0,0.1,0,0.4,0
		c0.3,0,0.7,0,0.7,0l0.3-0.1l-0.4-0.1l-0.3-0.1L79,24.4l-0.3-0.2l-0.2-0.4l-0.1-0.3l-0.4-0.4c0,0-0.3-0.2-0.5-0.3
		c-0.2-0.1-0.4-0.2-0.6-0.3c-0.2-0.1-0.4-0.2-0.4-0.2L76.4,22l0-0.3l0.4,0.3l0.5,0.4l0.3,0.2l0.4,0.2l0.4,0.3l0.2,0.3l0.3,0.3
		l0.4,0.2l0.3-0.1l-0.4-0.3L79,23.1L79,22.7l-0.2-0.4l-0.5-0.2v-0.3l-0.3-0.4l-0.4-0.4l-0.4-0.3l-0.2-0.3L76.8,20c0,0-0.1,0.1,0.2,0
		c0.3-0.1,0.4,0.2,0.4,0.2l0.6,0.4l0.4,0.1c0,0,0.2,0,0.5,0c0.2,0,0.3,0.1,0.6,0.2c0.2,0,0.4,0,0.4,0l0.2-0.2l-0.3,0l-0.4-0.2
		c0,0-0.2-0.2-0.4-0.2c-0.2,0-0.2-0.1-0.4-0.1c-0.2,0-0.4,0-0.4,0l-0.2-0.2l-0.2-0.2l0-0.2c0,0-0.3-0.2-0.1-0.2
		c0.2,0,0.2,0.1,0.4,0.2c0.2,0.1,0.1,0.1,0.4,0.1c0.2,0,0.2,0.1,0.4,0c0.2-0.1,0.4-0.1,0.4-0.1s0.1,0,0.4,0c0.3,0,0.2,0,0.5,0.1
		c0.2,0.1,0.4,0.3,0.4,0.3l0.3,0.2l-0.1-0.4l-0.2-0.2c0,0-0.2-0.2-0.4-0.4c-0.2-0.1-0.2-0.2-0.4-0.2c-0.2,0-0.5-0.1-0.5-0.1
		s-0.2-0.1-0.5-0.1c-0.3,0-0.3,0.1-0.6,0c-0.2-0.1-0.4-0.1-0.6-0.3c-0.2-0.2-0.1-0.2-0.4-0.4c-0.3-0.2-0.4-0.2-0.4-0.2l-0.2-0.3
		c0.5-0.1,0.6,0,0.8,0.1c0.2,0.1,0.1,0.1,0.4,0.1c0.3,0,0.4,0,0.4,0l0.8,0.1l0.3,0.1c0,0,0.1,0.1,0.3,0.3c0.2,0.2,0.4,0.3,0.4,0.3
		l0.4,0.2h0.2l-0.3-0.3L79.9,18c0,0,0-0.2-0.2-0.4c-0.2-0.2-0.2-0.2-0.4-0.3c-0.2-0.1-0.5-0.3-0.5-0.3s-0.1,0.1-0.3,0
		c-0.2-0.2-0.3-0.2-0.5-0.4c-0.2-0.2-0.2-0.2-0.5-0.4c-0.2-0.2-0.1-0.1-0.4-0.2c-0.3-0.1-0.6-0.2-0.6-0.2l-0.1-0.2
		c-0.2-0.3,0.3-0.4,0.3-0.4s0.2,0,0.4-0.1c0.2-0.1,0.5-0.1,0.5-0.1l0.3-0.1c0,0,0.3-0.1,0.1-0.2c-0.2-0.1-0.2-0.1-0.4-0.1
		c-0.2,0-0.2-0.1-0.5-0.1s-0.2,0-0.4,0c-0.2,0-0.3,0-0.6,0c-0.2,0-0.4,0-0.4,0s-0.2,0-0.4-0.2C75.2,14.2,75,14,75,14
		s-0.3-0.2-0.5-0.2c-0.2-0.1-0.2-0.2-0.4-0.2c-0.3,0-0.4-0.1-0.6-0.1c-0.2,0-0.3,0.2-0.6,0c-0.3-0.2-0.4-0.3-0.4-0.3l-0.4-0.2
		L72,12.6l-0.2-0.2L71.5,12.1L71.5,12.1z"/>
	<path class="st2" d="M70,12.1l0,0.3v0.2c-0.2,0.2-0.3,0.4-0.3,0.4s0,0.2,0.2,0.2c0.2,0,0.4,0.1,0.4,0.1l0.4,0.1l0.2-0.1l0-0.3
		l-0.3-0.3l-0.2-0.2l-0.2-0.2L70,12.1z"/>
	<path class="st4" d="M44,10.2v4.6c18.7-8.1,37.4-8,56.1-0.3V9.6L72,5.1C72,5.1,44,10.2,44,10.2z"/>
	<path class="st5" d="M44,8.5v1.6l28-5.1l28,4.4V7.8L72.1,3C72.1,3,44,8.4,44,8.5z"/>
	<polygon class="st6" points="44,8.5 44,6.9 72,1.5 100,6.4 100,7.8 72,3.1 	"/>
	<path class="st2" d="M67.3,58.5c-0.1-0.1-0.2-0.1-0.3-0.1c0,0.1-0.1,0.1-0.1,0.2c-0.2,0.1-0.5,0.1-0.7,0c-0.8-0.4-1.9-0.7-2.7-0.1
		c-0.6,0.6-1.3,1.9,0.7,3.1c0.7,0.5,2,0.8,2.7,1.1c1.5,1,0.2,2.8-1.6,2.9c-1.7,0-2.9-1.5-2.2-2.1c0.6,0.3,1-0.1,1-0.5
		c0-0.5-0.8-0.9-1.3-0.3c-1.1,0.9-0.1,3.8,2.7,3.4c2.2-0.3,3.2-1.4,2.7-3.5c-0.5-1.2-2.3-1.7-3.8-2.4c-0.9-0.6-0.8-1.7,1-1.5
		c0.9,0.3,1.6,0.9,2.2,1.7c0.1,0,0.1-0.1,0.2-0.1C67.6,59.8,67.5,59.2,67.3,58.5z"/>
	<path class="st2" d="M80.1,59.8c-1.1,0.6-1.5,0.3-1.4-0.2c0.6-1.5,2.9-0.4,3.8-0.4c-0.7,0.8-1.2,1.6-1.4,2.4
		c-0.9,0-1.1,0.4-1.2,0.9c0.2-0.1,0.5-0.2,0.8-0.2c0,0.6-0.8,1.9-1.4,2.5c-1.2,1.4-3.9,0.2-3.1-1.5c0.3,0.3,1.2,0.1,1.1-0.5
		c-0.1-0.6-0.8-0.8-1.3-0.3c-0.8,0.6-0.8,3.5,2.2,3.6c2.4-0.1,3.3-2.5,3.9-3.8c1,0,1.5-0.4,1.5-1c-0.4,0.2-0.8,0.3-1.2,0.3
		c0.1-0.8,0.3-1.6,1.1-2.4c1.8,0.1,3.5-0.8,4.1-1.1c0.1-0.1,0.1-0.2-0.1-0.3c-4.3,1.2-5.7,0.1-7.2,0.3c-1.7,0.1-3.1,1.7-2.1,2.5
		C79.1,61.2,79.9,60.5,80.1,59.8L80.1,59.8z"/>
	<path class="st5" d="M87.4,36.8c1.5,2.5-0.5,5.8-1.6,5.7C87.2,41.1,87.6,39.1,87.4,36.8z"/>
	<polygon class="st5" points="59.5,29.6 59.7,29.8 59.8,30 60.2,30.2 60.2,30 59.9,29.7 59.8,29.6 	"/>
	<polygon class="st5" points="58.3,27.2 58,27.3 57.8,27.4 57.8,27.5 58.1,27.5 58.5,27.5 58.5,27.3 	"/>
	<path class="st5" d="M57.2,28.6l-0.2,0.1l-0.1,0.3l-0.2,0.3l0,0.3l-0.1,0.3l0.1,0.3l0.2-0.1l0.2-0.3l0.1-0.3c0,0,0-0.1,0.1-0.3
		c0.1-0.2,0.1-0.3,0.1-0.3L57.2,28.6z"/>
	<path class="st5" d="M59.5,34l0.2,0.1l0.3,0.3l0.4,0.3l0.3,0.2l0.3,0.2l0.3-0.2c0,0,0.1-0.1-0.1-0.2c-0.2-0.1-0.3-0.2-0.3-0.2
		l-0.3-0.1l-0.2-0.1l-0.2-0.1l-0.3-0.1C59.8,34.2,59.5,34,59.5,34z"/>
	<polygon class="st5" points="56.9,32.3 56.7,32.6 56.7,32.8 56.9,32.8 56.9,32.6 	"/>
	<path class="st5" d="M57.1,35.3l-0.3,0.2l0,0.3l0,0.5l0.1,0.3l0.1,0.3l0.2,0.3l0.2,0.1c0,0,0.1-0.1,0.1-0.3c0-0.2,0-0.1-0.1-0.3
		c-0.1-0.2-0.1-0.2-0.1-0.4c0-0.2,0-0.3,0-0.4s0-0.4,0-0.4L57.1,35.3L57.1,35.3z"/>
	<polygon class="st5" points="55,36.3 54.9,36.5 55.1,36.6 	"/>
	<polygon class="st5" points="59.5,41.7 59.3,41.9 59.6,42.1 59.8,42 59.8,41.8 	"/>
	<path class="st5" d="M68.6,51.2h-0.2c0,0-0.1,0.1,0.1,0.2c0.2,0.1,0.2,0.1,0.4,0.1c0.2,0,0.2,0,0.4,0.1c0.2,0.1,0.1,0,0.3,0.1
		c0.2,0.1,0.1,0.1,0.3,0.2c0.3,0,0.2,0.1,0.5,0c0.3,0,0.2-0.1,0.4,0c0.2,0.1,0.4,0.1,0.4,0.1l-0.2-0.2l-0.3-0.1h-0.2
		c0,0,0,0.1-0.2,0c-0.2,0-0.3-0.1-0.3-0.1s-0.1-0.1-0.3-0.2c-0.2,0-0.3-0.1-0.5-0.1s-0.3,0-0.3,0l-0.3-0.1L68.6,51.2L68.6,51.2z"/>
	<polygon class="st5" points="66.9,50.8 67.2,50.8 67.2,51 67,51.1 66.8,51 	"/>
	<polygon class="st5" points="63.4,50.7 63.9,50.6 64,50.9 63.7,51.1 63.4,51.1 	"/>
	<polygon class="st5" points="73.1,51.5 72.9,51.6 72.8,51.8 73.1,51.8 73.2,51.6 	"/>
	<polygon class="st5" points="71.6,61 71.4,61.1 71.2,61.3 71.1,61.5 71.2,61.7 71.5,61.6 71.8,61.3 	"/>
	<polygon class="st5" points="73.2,58.8 72.9,58.9 72.7,59.1 72.7,59.3 72.9,59.3 73.1,59.2 	"/>
	<path class="st5" d="M76.3,55.9L76,56.1l-0.5,0.3l-0.2,0.3L75,57l-0.3,0.3l-0.4,0.4l-0.3,0.3l0.2,0c0,0,0.2-0.2,0.3-0.3
		c0.2-0.1,0.7-0.4,0.7-0.4l0.4-0.5l0.3-0.3l0.3-0.2L76.3,55.9L76.3,55.9z"/>
	<polygon class="st5" points="77.8,55.1 77.5,55.2 77.4,55.5 77.7,55.5 	"/>
	<path class="st5" d="M75.3,51.2l-0.2,0.1v0.3l0.1,0.3l0.2,0.2l0.2,0.4l0.1,0.3l0.1-0.2c0,0-0.1-0.3-0.1-0.4c0-0.2,0-0.4,0-0.4
		l0-0.3L75.3,51.2L75.3,51.2z"/>
	<path class="st5" d="M75,47l-0.3,0.2l-0.2,0.4l-0.1,0.3v0.4v0.3l0.2,0.2l0.1-0.4c0,0,0.1-0.1,0.1-0.3c0-0.2,0.1-0.3,0.1-0.3
		l0.2-0.3l0.1-0.2L75,47L75,47z"/>
	<path class="st5" d="M81.2,44.5L81,44.6l0.1,0.2l0.1,0.2c0,0,0,0.2,0,0.4c0,0.2,0,0.4,0,0.4l0.2-0.3v-0.3v-0.4l-0.1-0.2L81.2,44.5z
		"/>
	<path class="st5" d="M74.9,39.5l-0.3,0l-0.2,0.1c0,0,0,0.1,0,0.3c0,0.2-0.1,0.3-0.1,0.3l-0.1,0.3l0.3,0.2c0.1-0.2,0.1-0.2,0.2-0.3
		c0.1-0.2,0.2-0.3,0.2-0.3l0-0.2L74.9,39.5L74.9,39.5z"/>
	<path class="st5" d="M66.6,38.1L66.5,38c0,0-0.2,0-0.2,0.2c0,0.2,0,0.1,0.1,0.3c0.1,0.3,0.3,0.4,0.3,0.4l0.4,0.5l0.6,0.4l0.5,0.5
		c0,0,0.2,0.2,0.4,0.3c0.2,0.1,0.4,0.3,0.5,0.3c0.2,0.1,0.3,0.2,0.4,0.3c0.2,0.1,0.1,0.1,0.3,0.2c0.2,0.1,0.4,0.2,0.4,0.2
		s0.3,0,0.1-0.2c-0.2-0.2-0.1-0.2-0.3-0.3c-0.2-0.2-0.3-0.3-0.4-0.4c-0.2-0.2-0.3-0.2-0.5-0.4c-0.2-0.2-0.2-0.2-0.3-0.3
		c-0.2-0.2-0.3-0.3-0.4-0.4c-0.1-0.2-0.2-0.2-0.3-0.4c-0.2-0.2-0.2-0.2-0.4-0.4c-0.2-0.2-0.4-0.4-0.4-0.4l-0.2-0.2L66.6,38.1
		L66.6,38.1z"/>
	<path class="st5" d="M71.9,30.6C71.9,30.6,71.8,30.6,71.9,30.6c-0.1,0-0.2,0.1-0.2,0.1s0,0,0,0c0,0,0,0,0,0.1c0,0,0,0.1,0.1,0.1
		c0,0,0,0,0.1,0c0,0,0,0,0.1,0s0.1,0,0.1,0c0,0,0,0,0-0.1c0,0,0-0.1,0-0.1l0-0.1l0,0L71.9,30.6L71.9,30.6L71.9,30.6z"/>
	<path class="st5" d="M71.7,29.2C71.7,29.2,71.6,29.3,71.7,29.2c-0.1,0-0.2,0.1-0.2,0.1s0,0,0,0c0,0,0,0,0,0.1c0,0,0,0.1,0.1,0.1
		c0,0,0,0,0.1,0c0,0,0,0,0.1,0c0.1,0,0.1,0,0.1,0c0,0,0,0,0-0.1c0,0,0-0.1,0-0.1l0-0.1l0,0L71.7,29.2C71.8,29.2,71.7,29.2,71.7,29.2
		z"/>
	<path class="st5" d="M75.1,18.6C75.1,18.6,75.1,18.6,75.1,18.6C75.1,18.6,75,18.6,75.1,18.6c-0.1,0-0.1,0-0.1,0.1c0,0,0,0,0,0
		c0,0,0,0,0,0c0,0,0,0,0,0c0,0,0,0,0,0c0,0,0,0,0.1,0c0,0,0,0,0,0c0,0,0,0,0,0L75.1,18.6L75.1,18.6L75.1,18.6L75.1,18.6L75.1,18.6z"
		/>
	<path class="st5" d="M75.2,19.2C75.2,19.2,75.2,19.2,75.2,19.2c-0.1,0-0.2,0.1-0.2,0.1s0,0,0,0c0,0,0,0,0,0.1c0,0,0,0.1,0.1,0.1
		c0,0,0,0,0.1,0c0,0,0,0,0.1,0c0.1,0,0.1,0,0.1,0c0,0,0,0,0-0.1c0,0,0-0.1,0-0.1l0-0.1l0,0L75.2,19.2L75.2,19.2L75.2,19.2z"/>
	<path class="st5" d="M75.2,19.8C75.2,19.8,75.2,19.8,75.2,19.8c-0.1,0-0.2,0.1-0.2,0.1s0,0,0,0c0,0,0,0,0,0.1c0,0,0,0.1,0.1,0.1
		c0,0,0,0,0.1,0c0,0,0,0,0.1,0c0.1,0,0.1,0,0.1,0c0,0,0,0,0-0.1c0,0,0-0.1,0-0.1l0-0.1l0,0L75.2,19.8C75.3,19.8,75.2,19.8,75.2,19.8
		z"/>
	<path class="st5" d="M75.1,20.3C75.1,20.3,75.1,20.3,75.1,20.3c-0.1,0-0.2,0.1-0.2,0.1s0,0,0,0s0,0,0,0.1c0,0,0,0.1,0.1,0.1
		c0,0,0,0,0.1,0c0,0,0,0,0.1,0c0.1,0,0.1,0,0.1,0c0,0,0,0,0-0.1c0,0,0-0.1,0-0.1l0-0.1l0,0L75.1,20.3L75.1,20.3L75.1,20.3z"/>
	<path class="st5" d="M75.1,21c0,0-0.1,0-0.1,0.1c0,0-0.1,0-0.1,0s0,0-0.1,0.1c0,0,0,0.1,0,0.1c0,0.1,0,0.1,0.1,0.1
		c0.1,0,0.1,0,0.1,0s0,0,0.1,0c0.1,0,0.1,0,0.1,0c0,0,0,0,0.1-0.1c0,0,0.1-0.1,0.1-0.1l0-0.1l-0.1,0L75.1,21L75.1,21z"/>
	<path class="st5" d="M75.1,21.7c0,0-0.1,0-0.1,0.1c0,0-0.1,0-0.1,0s0,0-0.1,0.1c0,0,0,0.1,0,0.1c0,0.1,0,0.1,0.1,0.1s0.1,0,0.1,0
		s0,0,0.1,0c0.1,0,0.1,0,0.1,0s0,0,0.1-0.1c0,0,0.1-0.1,0.1-0.1l0-0.1l-0.1,0L75.1,21.7L75.1,21.7z"/>
	<path class="st5" d="M75.1,22.4c0,0-0.1,0-0.1,0.1c0,0-0.1,0-0.1,0s0,0-0.1,0.1c0,0,0,0.1,0,0.1c0,0.1,0,0.1,0.1,0.1
		c0.1,0,0.1,0,0.1,0s0,0,0.1,0s0.1,0,0.1,0c0,0,0,0,0.1-0.1c0,0,0.1-0.1,0.1-0.1l0-0.1l-0.1,0L75.1,22.4L75.1,22.4z"/>
	<path class="st5" d="M75,23c0,0-0.1,0-0.1,0.1c0,0-0.1,0-0.1,0s0,0-0.1,0.1c0,0,0,0.1,0,0.1c0,0.1,0,0.1,0.1,0.1c0.1,0,0.1,0,0.1,0
		c0.1,0,0,0,0.1,0c0.1,0,0.1,0,0.1,0s0,0,0.1-0.1c0,0,0.1-0.1,0.1-0.1l0-0.1l-0.1,0L75,23C75.1,23,75,23,75,23z"/>
	<path class="st5" d="M73.7,27.9C73.7,27.9,73.7,27.9,73.7,27.9c-0.1,0-0.2,0.1-0.2,0.1s0,0,0,0c0,0,0,0,0,0.1c0,0,0,0.1,0.1,0.1
		c0,0,0,0,0.1,0c0,0,0,0,0.1,0c0.1,0,0.1,0,0.1,0c0,0,0,0,0-0.1c0,0,0-0.1,0-0.1l0-0.1l0,0L73.7,27.9L73.7,27.9L73.7,27.9z"/>
	<path class="st5" d="M74,27.3C74,27.3,73.9,27.4,74,27.3c-0.1,0-0.2,0.1-0.2,0.1s0,0,0,0c0,0,0,0,0,0.1c0,0,0,0.1,0.1,0.1
		c0,0,0,0,0.1,0c0,0,0,0,0.1,0c0.1,0,0.1,0,0.1,0c0,0,0,0,0-0.1c0,0,0-0.1,0-0.1l0-0.1l0,0L74,27.3L74,27.3z"/>
	<path class="st5" d="M74.2,26.6C74.2,26.6,74.1,26.7,74.2,26.6c-0.1,0-0.2,0.1-0.2,0.1s0,0,0,0c0,0,0,0,0,0.1c0,0,0,0.1,0.1,0.1
		c0,0,0,0,0.1,0s0,0,0.1,0c0.1,0,0.1,0,0.1,0c0,0,0,0,0-0.1c0,0,0-0.1,0-0.1l0-0.1l0,0L74.2,26.6L74.2,26.6L74.2,26.6z"/>
	<path class="st5" d="M74.4,26C74.4,26,74.3,26,74.4,26c-0.1,0-0.2,0.1-0.2,0.1s0,0,0,0c0,0,0,0,0,0.1c0,0,0,0.1,0.1,0.1
		c0,0,0,0,0.1,0c0,0,0,0,0.1,0c0.1,0,0.1,0,0.1,0c0,0,0,0,0-0.1c0,0,0-0.1,0-0.1l0-0.1l0,0L74.4,26L74.4,26L74.4,26z"/>
	<path class="st5" d="M74.6,25.2c0,0-0.1,0-0.1,0.1c0,0-0.1,0-0.1,0s0,0-0.1,0.1c0,0,0,0.1,0,0.1c0,0.1,0,0.1,0.1,0.1
		c0.1,0,0.1,0,0.1,0s0,0,0.1,0c0.1,0,0.1,0,0.1,0c0,0,0,0,0.1-0.1c0,0,0.1-0.1,0.1-0.1l0-0.1l-0.1,0L74.6,25.2L74.6,25.2z"/>
	<path class="st5" d="M74.8,24.4c0,0-0.1,0-0.1,0.1c0,0-0.1,0-0.1,0s0,0-0.1,0.1c0,0,0,0.1,0,0.1c0,0.1,0,0.1,0.1,0.1
		c0.1,0,0.1,0,0.1,0c0.1,0,0,0,0.1,0s0.1,0,0.1,0c0,0,0,0,0.1-0.1c0,0,0.1-0.1,0.1-0.1l0-0.1l-0.1,0L74.8,24.4L74.8,24.4z"/>
	<path class="st5" d="M75,23.7c0,0-0.1,0-0.1,0.1c0,0-0.1,0-0.1,0s0,0-0.1,0.1c0,0,0,0.1,0,0.1c0,0.1,0,0.1,0.1,0.1
		c0.1,0,0.1,0,0.1,0c0.1,0,0,0,0.1,0c0.1,0,0.1,0,0.1,0s0,0,0.1-0.1c0,0,0.1-0.1,0.1-0.1l0-0.1l-0.1,0L75,23.7L75,23.7z"/>
	<path class="st5" d="M72.8,32.1l-0.3,0.1l-0.1,0.3l0.1,0.3c0,0,0.1,0.4,0.1,0.5c0,0.2,0,0.2,0.1,0.3c0.1,0.2,0,0,0.2,0.3
		c0.1,0.3,0.2,0.3,0.2,0.5c0.1,0.2,0.1,0.2,0.2,0.3c0.1,0.2,0.3,0.3,0.3,0.3l0.2,0.3c0,0,0,0.1,0.3,0.2c0.3,0.2,0.2,0.1,0.4,0.2
		c0.2,0.1,0.3,0.2,0.3,0.2l0.2,0.1l0.2,0.1c0,0-0.2-0.2-0.3-0.3c-0.1-0.2-0.1-0.1-0.2-0.3c-0.1-0.2-0.1-0.2-0.2-0.4
		c-0.1-0.2-0.2-0.2-0.3-0.4c-0.1-0.2-0.2-0.2-0.3-0.4c-0.1-0.2-0.1-0.2-0.2-0.4c-0.1-0.2-0.1-0.2-0.2-0.4c-0.1-0.2-0.2-0.2-0.2-0.4
		c0-0.2,0-0.1-0.1-0.3c0-0.2-0.1-0.3-0.1-0.3l-0.1-0.3L72.8,32.1L72.8,32.1z"/>
	<path class="st5" d="M62.9,30.1l-0.2,0.2l-0.2,0.2l-0.1,0.2l0,0.2l-0.1,0.2c0,0-0.1,0.1-0.1,0.2c-0.1,0.2-0.1,0.3-0.1,0.3l-0.3,0.3
		l-0.1,0.2l0.2,0.2l0.3-0.1l0.2-0.2l0.2-0.3l0-0.2l0.1-0.2l0.2-0.2l0.2-0.3l0.1-0.3L63,30.3L62.9,30.1L62.9,30.1z"/>
	<polygon class="st5" points="70.6,29.9 70.3,29.8 70.2,30.1 70.3,30.3 70.5,30.3 70.7,30.4 70.9,30.3 70.9,30.1 	"/>
	<path class="st5" d="M69.4,28.2l-0.4,0c0,0-0.2-0.1-0.4-0.1c-0.3,0-0.5-0.1-0.6-0.1c-0.2,0-0.2,0-0.4,0s-0.3,0.1-0.4,0.1
		s-0.3,0.1-0.3,0.1l-0.3,0v-0.2l0.3-0.2l0.4-0.1l0.5-0.1c0,0,0.2-0.1,0.4-0.1c0.2,0,0.3,0.1,0.4,0.1c0.2,0,0.3,0.1,0.3,0.1l0.2,0.1
		L69.4,28.2L69.4,28.2z"/>
	<polygon class="st5" points="71.5,21.9 71.2,21.9 71,22.2 70.7,22.6 70.5,22.9 70.3,23.3 70,23.7 69.9,24.1 69.7,24.5 69.5,24.8 
		69.3,25.1 69.1,25.5 69.1,25.7 69.4,25.5 69.8,25.1 70.2,24.5 70.7,24 71.1,23.3 71.4,22.6 71.5,22.2 	"/>
	<path class="st5" d="M74.1,15l0.3,0c0,0.2-0.2,0.2-0.2,0.2l-0.2-0.1C74.1,15.2,74.1,15,74.1,15L74.1,15z"/>
	<polygon class="st5" points="74,14.3 73.7,14.3 73.8,14.5 74,14.5 74.2,14.5 	"/>
	<polygon class="st5" points="70.1,16.2 69.9,16.1 69.7,16.1 69.3,16.2 69.2,16.4 69.5,16.7 69.7,16.9 70.1,17 70.4,17.1 70.5,16.9 
		70.4,16.6 70.3,16.4 	"/>
	<path class="st5" d="M74.4,16.8l-0.2-0.1l-0.2,0.1L74,17l-0.1,0.3c0,0-0.3,0.2-0.1,0.2c0.2,0,0.3,0,0.3,0l0.2-0.1
		c0,0,0-0.1,0.3-0.1c0.2,0,0.2,0,0.3-0.1c0.2,0,0.3-0.2,0.3-0.2h-0.3l-0.2,0l-0.2,0L74.4,16.8L74.4,16.8z"/>
	<path class="st5" d="M72.6,19.4l-0.3,0.1l-0.2,0.1l-0.2,0.2l-0.2,0.1L71.4,20l-0.2,0.1c0,0,0,0.2,0.2,0.2c0.3,0,0.6,0,0.6,0
		l0.2-0.3l0.3-0.1l0.1-0.4L72.6,19.4L72.6,19.4z"/>
	<path class="st5" d="M71.9,18.7l-0.2,0.1L71.5,19l-0.1,0.2l-0.2,0.1c0,0-0.2,0.1-0.1,0.2c0.2,0,0.4,0,0.4,0l0.3-0.3
		C72,19,72,18.9,72,18.9L71.9,18.7L71.9,18.7z"/>
	<polygon class="st5" points="70.6,18.5 69.5,19.3 70.3,19.2 70.5,18.6 	"/>
	<path class="st5" d="M66.6,18.6h-0.2l0.1,0.2l0.2,0.1C66.7,18.7,66.6,18.6,66.6,18.6z"/>
	<path class="st5" d="M65.8,17.6l-0.2,0.1v0.2l0.2,0.1C65.9,17.8,65.8,17.6,65.8,17.6z"/>
	<polygon class="st5" points="64.9,17.6 64.6,17.7 64.5,17.9 64.5,18.1 64.5,18.4 64.7,18.3 65,18.1 65.2,18 65.2,17.8 65.1,17.7 	
		"/>
	<path class="st5" d="M68.4,16l-0.3,0.1c0,0-0.2,0.1-0.4,0.2c-0.2,0-0.4,0.1-0.4,0.1s-0.1,0.1-0.3,0.2c-0.2,0.1-0.5,0.1-0.3,0.2
		c0.2,0.1,0.3,0.1,0.3,0.1l0.4-0.1c0,0,0.2,0,0.3-0.1c0.2-0.1,0.4-0.1,0.4-0.1l0.2-0.1L68.4,16L68.4,16z"/>
	<polygon class="st5" points="70.8,15.3 70.7,15.4 70.7,15.6 70.9,15.6 71.1,15.4 71.1,15.2 	"/>
</g>
</svg>
