<?xml version="1.0" encoding="utf-8"?>
<!-- Generator: Adobe Illustrator 24.0.2, SVG Export Plug-In . SVG Version: 6.00 Build 0)  -->
<svg version="1.1" id="Layer_1" xmlns="http://www.w3.org/2000/svg" xmlns:xlink="http://www.w3.org/1999/xlink" x="0px" y="0px"
	 viewBox="0 0 144 101" style="enable-background:new 0 0 144 101;" xml:space="preserve">
<style type="text/css">
	.st0{display:none;}
	.st1{fill:#231F20;}
	.st2{fill-rule:evenodd;clip-rule:evenodd;fill:#C83252;}
	.st3{fill-rule:evenodd;clip-rule:evenodd;fill:#32347F;}
	.st4{fill-rule:evenodd;clip-rule:evenodd;fill:#FFFFFF;}
</style>
<g id="Layer_1_1_" class="st0">
</g>
<g>
	<path class="st1" d="M42.6,50.5c0-13.7,3.3-26.1,8.6-35.1C56.5,6.4,63.8,0.8,72,0.8c8.2,0,15.5,5.6,20.9,14.6
		c5.3,9,8.6,21.4,8.6,35.1c0,13.7-3.3,26.1-8.6,35.1c-5.3,9-12.7,14.6-20.9,14.6c-8.2,0-15.5-5.6-20.9-14.6
		C45.9,76.6,42.6,64.2,42.6,50.5L42.6,50.5z M43.4,50.5c0,13.6,3.2,25.8,8.4,34.7C57,94,64.1,99.4,72,99.4c7.9,0,15-5.4,20.2-14.3
		c5.2-8.9,8.4-21.1,8.4-34.7c0-13.6-3.2-25.8-8.4-34.7C87,7,79.9,1.6,72,1.6c-7.9,0-15,5.4-20.2,14.3C46.6,24.7,43.4,36.9,43.4,50.5
		L43.4,50.5z"/>
	<polygon class="st2" points="72,47.2 72,47.2 58.1,47.2 58.1,47.7 72,47.7 85.9,47.7 85.9,47.2 72,47.2 	"/>
	<polygon class="st2" points="72,50.1 72,50.1 58.1,50.1 58.1,50.6 72,50.6 72,50.6 85.9,50.6 85.9,50.1 72,50.1 	"/>
	<polygon class="st2" points="72,48.5 72,48.5 56.6,48.5 56.6,49 72,49 72,49 87.4,49 87.4,48.5 72,48.5 	"/>
	<path class="st2" d="M72,51.5L72,51.5H56.8v0.6h1.4c0,1,0.6,2.2,2,2.2c1.4,0,1.9-0.9,1.9-2.1c1.4,0,6.3,0,6.3,5.9H72h0h3.8
		c0-5.9,4.9-5.9,6.3-5.9c0,1.2,0.5,2.1,1.9,2.1c1.4,0,2-1.2,2-2.2h1.4v-0.6H72L72,51.5z"/>
	<path class="st2" d="M77.2,58.8H72h0h-5.2c-0.1,0-0.3,0.1-0.3,0.3v2.1c0,0.1,0.1,0.3,0.3,0.3H72h0h5.2c0.1,0,0.3-0.1,0.3-0.3v-2.1
		C77.5,59,77.3,58.8,77.2,58.8L77.2,58.8z"/>
	<path class="st2" d="M75.8,62H72h0h-3.8c-0.1,0-0.3,0.1-0.3,0.3v5.2h4h0h4v-5.2C76,62.1,75.9,62,75.8,62L75.8,62z"/>
	<path class="st2" d="M92.5,21.9c-3.3,0.7-7.3,4.3-9,6.4c1.3-0.4,2.5-1.3,3.7-1.8c-1.2,2.5-4.6,13.1-4.6,18.6h-3.3
		c-3.9-6.6-6.1-10.2-6.1-23.7c2.1,1.2,2.8,2.1,5.1,2.5c-2.5-2.5-6.2-8.2-6.2-13.8c0,5.5-3.7,11.2-6.2,13.8c2.2-0.4,3-1.3,5.1-2.5
		c0,13.5-2.2,17.1-6.1,23.7h-3.3c0-5.5-3.4-16-4.6-18.6c1.2,0.4,2.4,1.3,3.7,1.8c-1.6-2.2-5.7-5.7-9-6.4c5.1,6.7,6.4,15.9,6.4,23.2
		h-1.3v1.5H72h15.4v-1.5H86C86,37.8,87.4,28.6,92.5,21.9L92.5,21.9z M70.6,45.1h-3.1c1-2.1,2.7-4,3.1-6.6V45.1L70.6,45.1z
		 M73.4,45.1v-6.6c0.4,2.5,2.1,4.5,3.1,6.6H73.4L73.4,45.1z"/>
	<path class="st3" d="M97.4,66.8C93.6,84.9,83.7,97.9,72,97.9c-11.7,0-21.6-12.9-25.4-31.1L97.4,66.8L97.4,66.8z"/>
	<polygon class="st4" points="51.6,79.1 51.6,71.1 53.3,71.1 54.3,74.6 55.3,71.1 57,71.1 57,79.1 56,79.1 56,72.8 54.3,77.8 
		52.7,72.8 52.7,79.1 51.6,79.1 	"/>
	<path class="st4" d="M59.9,76.6l0.8-3l0.8,3H59.9L59.9,76.6z M61.3,71.1h-1.2l-2.2,8h1.4l0.3-1.2h2.3l0.3,1.2h1.4L61.3,71.1
		L61.3,71.1z"/>
	<path class="st4" d="M82,76.6l0.8-3l0.8,3H82L82,76.6z M83.4,71.1h-1.2l-2.2,8h1.4l0.3-1.2h2.3l0.3,1.2h1.4L83.4,71.1L83.4,71.1z"
		/>
	<path class="st4" d="M67.5,72.8c-0.5-0.5-0.8-0.6-1.1-0.7c-0.3-0.1-0.6,0-0.8,0.2c-0.1,0.1-0.2,0.3-0.2,0.5c0,0.2,0.1,0.4,0.2,0.5
		c0.1,0.2,0.6,0.6,1.1,0.9c0.5,0.3,1,0.6,1.3,0.8c0.6,0.5,0.7,0.7,0.7,0.9c0.1,0.3,0.2,0.5,0.2,1c0,0.5-0.1,0.8-0.3,1.2
		c-0.2,0.4-0.4,0.7-0.8,0.9c-0.3,0.2-0.7,0.3-1.2,0.3c-0.7,0-1.2-0.2-2.5-1.1l0.8-1c1,0.7,1.3,0.8,1.6,0.8c0.4,0,0.6-0.1,0.8-0.3
		c0.2-0.2,0.3-0.5,0.3-0.8c0-0.2,0-0.3-0.1-0.5c-0.1-0.1-0.2-0.2-0.4-0.3c-0.1-0.1-0.5-0.3-0.9-0.5c-0.7-0.3-1.1-0.7-1.4-1
		C64.4,74.1,64,73.6,64,73c0-0.4,0.1-0.8,0.3-1.2c0.2-0.4,0.4-0.6,0.7-0.8c0.3-0.2,0.9-0.2,1.3-0.2c0.7,0,1.4,0.3,2.1,1.1L67.5,72.8
		L67.5,72.8z"/>
	<polygon class="st4" points="69.8,79.1 69.8,71.1 73.3,71.1 73.3,72.4 70.9,72.4 70.9,74.2 73.1,74.2 73.1,75.5 70.9,75.5 
		70.9,77.7 73.4,77.7 73.4,79.1 69.8,79.1 	"/>
	<polygon class="st4" points="87,79.1 87,72.4 85.3,72.4 85.3,71.1 89.8,71.1 89.8,72.4 88.1,72.4 88.1,79.1 87,79.1 	"/>
	<polygon class="st4" points="91,79.1 91,71.1 92.2,71.1 92.2,79.1 91,79.1 	"/>
	<path class="st4" d="M78.3,74.1c0-1.6-1.1-1.8-2.2-1.8l0,3.9C77,76.2,78.3,76,78.3,74.1L78.3,74.1z M77.7,77.1l1,2h-1.1l-0.9-1.8
		c-0.2,0-0.4,0-0.7,0l0,1.7h-1.1v-8h1.1c1.7,0,3.5,0.5,3.5,2.9C79.5,75.9,78.7,76.7,77.7,77.1L77.7,77.1z"/>
</g>
</svg>
