<?xml version="1.0" encoding="utf-8"?>
<!-- Generator: Adobe Illustrator 24.0.2, SVG Export Plug-In . SVG Version: 6.00 Build 0)  -->
<svg version="1.1" id="Layer_1" xmlns="http://www.w3.org/2000/svg" xmlns:xlink="http://www.w3.org/1999/xlink" x="0px" y="0px"
	 viewBox="0 0 144 101" style="enable-background:new 0 0 144 101;" xml:space="preserve">
<style type="text/css">
	.st0{display:none;}
	.st1{fill-rule:evenodd;clip-rule:evenodd;fill:#201E1E;}
	.st2{fill-rule:evenodd;clip-rule:evenodd;fill:url(#SVGID_1_);filter:url(#Adobe_OpacityMaskFilter);}
	.st3{mask:url(#id0_2_);fill-rule:evenodd;clip-rule:evenodd;fill:#FEFEFE;}
	.st4{fill-rule:evenodd;clip-rule:evenodd;fill:#D2AE6D;}
	.st5{fill-rule:evenodd;clip-rule:evenodd;fill:url(#SVGID_2_);filter:url(#Adobe_OpacityMaskFilter_1_);}
	.st6{mask:url(#id2_2_);fill-rule:evenodd;clip-rule:evenodd;fill:#FEFEFE;}
	.st7{fill-rule:evenodd;clip-rule:evenodd;fill:url(#SVGID_3_);filter:url(#Adobe_OpacityMaskFilter_2_);}
	.st8{mask:url(#id4_2_);fill-rule:evenodd;clip-rule:evenodd;fill:#FEFEFE;}
	.st9{fill-rule:evenodd;clip-rule:evenodd;fill:url(#SVGID_4_);filter:url(#Adobe_OpacityMaskFilter_3_);}
	.st10{mask:url(#id6_2_);fill-rule:evenodd;clip-rule:evenodd;fill:#FEFEFE;}
	.st11{fill-rule:evenodd;clip-rule:evenodd;fill:url(#SVGID_5_);filter:url(#Adobe_OpacityMaskFilter_4_);}
	.st12{mask:url(#id8_2_);fill-rule:evenodd;clip-rule:evenodd;fill:#FEFEFE;}
	.st13{fill-rule:evenodd;clip-rule:evenodd;fill:url(#SVGID_6_);filter:url(#Adobe_OpacityMaskFilter_5_);}
	.st14{mask:url(#id10_2_);fill-rule:evenodd;clip-rule:evenodd;fill:#FEFEFE;}
	.st15{fill-rule:evenodd;clip-rule:evenodd;fill:url(#SVGID_7_);filter:url(#Adobe_OpacityMaskFilter_6_);}
	.st16{mask:url(#id12_2_);fill-rule:evenodd;clip-rule:evenodd;fill:#FEFEFE;}
	.st17{fill-rule:evenodd;clip-rule:evenodd;fill:#79591A;}
	.st18{fill-rule:evenodd;clip-rule:evenodd;fill:#8B641B;}
	.st19{fill-rule:evenodd;clip-rule:evenodd;fill:#FFFBD6;}
	.st20{fill-rule:evenodd;clip-rule:evenodd;fill:#F3C55C;}
	.st21{fill-rule:evenodd;clip-rule:evenodd;fill:#BB8C1C;}
	.st22{fill-rule:evenodd;clip-rule:evenodd;fill:#373435;}
	.st23{fill-rule:evenodd;clip-rule:evenodd;fill:#F9D886;}
	.st24{fill-rule:evenodd;clip-rule:evenodd;fill:#F3CD73;}
	.st25{fill-rule:evenodd;clip-rule:evenodd;fill:#F9E3A3;}
	.st26{fill-rule:evenodd;clip-rule:evenodd;fill:url(#SVGID_8_);filter:url(#Adobe_OpacityMaskFilter_7_);}
	.st27{mask:url(#id14_2_);fill-rule:evenodd;clip-rule:evenodd;fill:#FEFEFE;}
</style>
<g id="Layer_1_1_" class="st0">
</g>
<path class="st1" d="M69.5,96.8l-3.9-2.6c-8.9-7.8-17.4-16.8-23.9-28.7c-6.5-12-10.8-27-11.2-46.7c0-1.8,0.1-3.6,0.7-5
	c0.6-1.4,1.8-2.5,3.9-3.4l0,0l0,0l0,0c6.1-2.6,14.2-4.4,23-5.3C61,4.7,64,4.5,66.9,4.4c1.6-0.1,3.3-0.1,4.9-0.1
	c13.6,0,27.3,2,36.7,6c2.1,0.9,3.3,2.1,3.9,3.4c0.6,1.4,0.7,3.2,0.7,5c-0.4,19.7-4.7,34.7-11.2,46.7c-6.5,12-15.1,21.1-24.1,29
	c-2.2,1.9-4.1,2.8-6,2.8h0C71.1,97.3,70.3,97.1,69.5,96.8L69.5,96.8z"/>
<defs>
	<filter id="Adobe_OpacityMaskFilter" filterUnits="userSpaceOnUse" x="53" y="68.7" width="38.4" height="26.4">
		<feColorMatrix  type="matrix" values="1 0 0 0 0  0 1 0 0 0  0 0 1 0 0  0 0 0 1 0"/>
	</filter>
</defs>
<mask maskUnits="userSpaceOnUse" x="53" y="68.7" width="38.4" height="26.4" id="id0_2_">
	
		<linearGradient id="SVGID_1_" gradientUnits="userSpaceOnUse" x1="17108.0801" y1="-19716.5273" x2="17194.0977" y2="-17960.5293" gradientTransform="matrix(2.834646e-02 0 0 -2.834646e-02 -414.8961 -433.3811)">
		<stop  offset="0" style="stop-color:#FFFFFF"/>
		<stop  offset="1" style="stop-color:#FFFFFF;stop-opacity:0"/>
	</linearGradient>
	<rect x="52.9" y="68.6" class="st2" width="38.6" height="26.6"/>
</mask>
<path class="st3" d="M53,75.3c5.7,9.8,13.2,15.9,18.6,19.4c0.7,0.6,1.5,0.5,2.4-0.1c10.8-8.5,13.4-12.2,17.4-16.5
	C78.6,65.2,65.8,66.9,53,75.3L53,75.3z"/>
<path class="st4" d="M71.8,1.8c13.9,0,28,2.1,37.7,6.2c2.8,1.2,4.3,2.8,5.2,4.7c0.8,1.9,1,3.9,0.9,6.1c-0.4,20.2-4.8,35.5-11.5,47.9
	C97.6,79,88.7,88.3,79.5,96.3c-2.7,2.3-5.2,3.5-7.7,3.5h0c-2.5,0-5-1.2-7.7-3.5l0,0c-9.2-8-18-17.3-24.7-29.7
	C32.8,54.3,28.4,38.9,28,18.8c0-2.2,0.1-4.2,0.9-6c0.9-1.9,2.4-3.5,5.2-4.7l0,0l0,0l0,0c6.4-2.7,14.7-4.6,23.7-5.5
	c2.9-0.3,5.9-0.5,8.9-0.6C68.5,1.9,70.2,1.8,71.8,1.8L71.8,1.8z M71.8,97.3c1.9,0,3.8-0.9,6-2.8c9-7.8,17.6-16.9,24.1-29
	c6.5-12,10.8-27,11.2-46.7c0-1.8-0.1-3.6-0.7-5c-0.6-1.4-1.8-2.5-3.9-3.4c-9.4-4-23.1-6-36.7-6c-1.6,0-3.3,0-4.9,0.1
	C64,4.5,61,4.7,58.2,5c-8.8,0.9-16.8,2.7-23,5.3l0,0l0,0l0,0c-2.1,0.9-3.3,2.1-3.9,3.4c-0.6,1.4-0.8,3.1-0.7,5
	c0.4,19.7,4.7,34.7,11.2,46.7c6.5,12,15.1,21.1,24.1,29C68,96.3,70,97.3,71.8,97.3L71.8,97.3z"/>
<defs>
	<filter id="Adobe_OpacityMaskFilter_1_" filterUnits="userSpaceOnUse" x="35.8" y="14" width="32.9" height="39.6">
		<feColorMatrix  type="matrix" values="1 0 0 0 0  0 1 0 0 0  0 0 1 0 0  0 0 0 1 0"/>
	</filter>
</defs>
<mask maskUnits="userSpaceOnUse" x="35.8" y="14" width="32.9" height="39.6" id="id2_2_">
	
		<linearGradient id="SVGID_2_" gradientUnits="userSpaceOnUse" x1="15115.9629" y1="-15645.7217" x2="16851.7676" y2="-16709.0977" gradientTransform="matrix(2.834646e-02 0 0 -2.834646e-02 -414.8961 -433.3811)">
		<stop  offset="0" style="stop-color:#FFFFFF"/>
		<stop  offset="1" style="stop-color:#FFFFFF;stop-opacity:0"/>
	</linearGradient>
	<rect x="35.7" y="13.9" class="st5" width="33.1" height="39.7"/>
</mask>
<path class="st6" d="M35.9,24c-0.2-1.9,0.1-3,1.9-4.1c8.6-3,18.2-4.6,28-5.9c8.4,20.7-2,32.4-21.7,39.6C40.6,44,37.5,34.2,35.9,24
	L35.9,24z"/>
<defs>
	<filter id="Adobe_OpacityMaskFilter_2_" filterUnits="userSpaceOnUse" x="48.4" y="59.4" width="51.4" height="35.7">
		<feColorMatrix  type="matrix" values="1 0 0 0 0  0 1 0 0 0  0 0 1 0 0  0 0 0 1 0"/>
	</filter>
</defs>
<mask maskUnits="userSpaceOnUse" x="48.4" y="59.4" width="51.4" height="35.7" id="id4_2_">
	
		<linearGradient id="SVGID_3_" gradientUnits="userSpaceOnUse" x1="16974.0117" y1="-22924.0762" x2="17271.1914" y2="-17653.0371" gradientTransform="matrix(2.834646e-02 0 0 -2.834646e-02 -414.8961 -433.3811)">
		<stop  offset="0" style="stop-color:#FFFFFF"/>
		<stop  offset="1" style="stop-color:#FFFFFF;stop-opacity:0"/>
	</linearGradient>
	<rect x="48.3" y="59.3" class="st7" width="51.6" height="35.9"/>
</mask>
<path class="st8" d="M48.4,64.5c4.5,13.3,12.5,23.1,23.2,30.3c0.7,0.6,1.5,0.5,2.4-0.1c15-11.7,25-23.5,25.8-35.2
	c-3.3,9.7-8.8,18.5-19.7,25.3c-0.9,0.6-2.2,0.9-2.9,1.8c-0.7,0.9-0.7,2.4-1.1,3.5c-0.4,1-0.9,1.9-1.5,2.8c-1.5,2.2-2.8,2.2-3.9,0.1
	c-6.2-10.2-8.1-20-5.7-29.3L48.4,64.5L48.4,64.5z"/>
<defs>
	<filter id="Adobe_OpacityMaskFilter_3_" filterUnits="userSpaceOnUse" x="32.8" y="12.5" width="2.9" height="2.6">
		<feColorMatrix  type="matrix" values="1 0 0 0 0  0 1 0 0 0  0 0 1 0 0  0 0 0 1 0"/>
	</filter>
</defs>
<mask maskUnits="userSpaceOnUse" x="32.8" y="12.5" width="2.9" height="2.6" id="id6_2_">
	
		<linearGradient id="SVGID_4_" gradientUnits="userSpaceOnUse" x1="14554.2988" y1="-15888.9355" x2="16735.9629" y2="-15697.5273" gradientTransform="matrix(2.834646e-02 0 0 -2.834646e-02 -414.8961 -433.3811)">
		<stop  offset="0" style="stop-color:#FFFFFF"/>
		<stop  offset="1" style="stop-color:#FFFFFF;stop-opacity:0"/>
	</linearGradient>
	<rect x="32.7" y="12.4" class="st9" width="3.1" height="2.8"/>
</mask>
<path class="st10" d="M32.8,14l1.2,1.1c0.4-1,1-1.9,1.8-2.6C34.5,12.7,33.5,13.2,32.8,14z"/>
<defs>
	<filter id="Adobe_OpacityMaskFilter_4_" filterUnits="userSpaceOnUse" x="42.9" y="6.1" width="55.6" height="4">
		<feColorMatrix  type="matrix" values="1 0 0 0 0  0 1 0 0 0  0 0 1 0 0  0 0 0 1 0"/>
	</filter>
</defs>
<mask maskUnits="userSpaceOnUse" x="42.9" y="6.1" width="55.6" height="4" id="id8_2_">
	
		<linearGradient id="SVGID_5_" gradientUnits="userSpaceOnUse" x1="11542.7363" y1="-15623.8418" x2="20902.0117" y2="-15537.833" gradientTransform="matrix(2.834646e-02 0 0 -2.834646e-02 -414.8961 -433.3811)">
		<stop  offset="0" style="stop-color:#FFFFFF"/>
		<stop  offset="1" style="stop-color:#FFFFFF;stop-opacity:0"/>
	</linearGradient>
	<rect x="42.8" y="6" class="st11" width="55.8" height="4.1"/>
</mask>
<path class="st12" d="M42.9,10C60,6.4,78.3,6.6,98.5,10C78.9,4.8,60.5,4.7,42.9,10z"/>
<defs>
	<filter id="Adobe_OpacityMaskFilter_5_" filterUnits="userSpaceOnUse" x="32.4" y="14.8" width="7.9" height="42.6">
		<feColorMatrix  type="matrix" values="1 0 0 0 0  0 1 0 0 0  0 0 1 0 0  0 0 0 1 0"/>
	</filter>
</defs>
<mask maskUnits="userSpaceOnUse" x="32.4" y="14.8" width="7.9" height="42.6" id="id10_2_">
	
		<linearGradient id="SVGID_6_" gradientUnits="userSpaceOnUse" x1="7239.2358" y1="-16492.7383" x2="19704.6484" y2="-16594.4297" gradientTransform="matrix(2.834646e-02 0 0 -2.834646e-02 -414.8961 -433.3811)">
		<stop  offset="0" style="stop-color:#FFFFFF"/>
		<stop  offset="1" style="stop-color:#FFFFFF;stop-opacity:0"/>
	</linearGradient>
	<rect x="32.4" y="14.7" class="st13" width="8.1" height="42.8"/>
</mask>
<path class="st14" d="M32.5,15.7c-0.2-1.8,1.3-0.8,1.6,2.2c-0.2,16.4,2.4,28.8,6.3,39.6C34.6,45.1,32.2,31.3,32.5,15.7z"/>
<defs>
	<filter id="Adobe_OpacityMaskFilter_6_" filterUnits="userSpaceOnUse" x="84.9" y="15.9" width="24.1" height="30.2">
		<feColorMatrix  type="matrix" values="1 0 0 0 0  0 1 0 0 0  0 0 1 0 0  0 0 0 1 0"/>
	</filter>
</defs>
<mask maskUnits="userSpaceOnUse" x="84.9" y="15.9" width="24.1" height="30.2" id="id12_2_">
	
		<linearGradient id="SVGID_7_" gradientUnits="userSpaceOnUse" x1="19620.918" y1="-15567.2705" x2="18049.3105" y2="-16388.2598" gradientTransform="matrix(2.834646e-02 0 0 -2.834646e-02 -414.8961 -433.3811)">
		<stop  offset="0" style="stop-color:#FFFFFF"/>
		<stop  offset="1" style="stop-color:#FFFFFF;stop-opacity:0"/>
	</linearGradient>
	<rect x="84.9" y="15.8" class="st15" width="24.3" height="30.4"/>
</mask>
<path class="st16" d="M109,23.3c0.1-1.4-0.1-2.2-1.4-3c-6.4-2.2-13.5-3.4-20.7-4.3c-6.2,15.3,3,25,17.6,30.2
	C107,39,108.5,31,109,23.3z"/>
<path class="st4" d="M44.7,17.2l0.6-0.1l-0.5-2.4l0,0.1l-0.6,2.6L44.7,17.2z M42.6,22.2l-1.3,0.3l1.3-5.9l1.1-5.4l0.9-0.2l0.8-0.2
	l2.2,10l-1.5,0.4l-0.6-2.6l-0.9,0.2l-0.9,0.2l-0.6,3L42.6,22.2z M37.3,13.4L37.3,13.4l0,8.9l3.2-1.3l0,1.8l-4.9,1.9l0-10.9
	L37.3,13.4L37.3,13.4z M87.5,8.8L88.9,9l0,4.9l2.8,0.6l0-5l1.5,0.3l0,11.1l-1.6-0.3l0-4.5l-2.8-0.5l0,4.6l-1.3-0.2l-0.3,0l0-11.1
	L87.5,8.8L87.5,8.8z M96.7,10.4L96.7,10.4l0,11.2l-1.6-0.4l0-11.2L96.7,10.4L96.7,10.4z M98.6,22L98.6,22l0-10.8l1.8,0.5l2.7,7.5
	l0-6.7l1.6,0.5l0,11l-1.8-0.5l-2.7-7.7l0,6.8L98.6,22L98.6,22z M108,14.1L108,14.1l0,10.9l-1.6-0.5l0-11L108,14.1L108,14.1z
	 M80.1,10.4c0.4-1.2,1.2-2.1,2.6-2.1c0.8,0,1.6,0.3,2.1,0.9c0.5,0.5,0.7,1.2,0.7,2.1c0,0,0,0.2,0,0.2l-1.6,0c0-0.3-0.2-1-0.3-1.2
	c-0.7-0.8-1.7-0.2-2,0.7c-0.3,0.8-0.3,1.8-0.3,2.7c0,1.6,0.1,2.7,0.5,3.4c0.4,0.8,1.7,0.9,2.1,0c0.2-0.4,0.3-1,0.2-1.7l-1.2,0l0-1.7
	l2.8,0c0,1.2,0.1,3-0.4,4.1c-0.9,2.2-3.8,2.1-4.9,0.1c-0.1-0.2-0.2-0.4-0.3-0.6c-0.3-0.9-0.5-2.1-0.4-3.7
	C79.7,12.7,79.8,11.5,80.1,10.4L80.1,10.4L80.1,10.4z M75.5,12.7l0.1,0c0.3,0.1,0.7-0.2,1-0.5c0.2-0.3,0.4-0.7,0.4-1.1
	c0-0.4-0.1-1-0.4-1.3c-0.2-0.2-0.6-0.3-1.1-0.4c-0.1,0-0.2,0-0.2,0l-1.2,0l0,3.3L75.5,12.7L75.5,12.7z M75.5,7.8
	c0.7,0,1.6,0.3,2.1,0.9c0.6,0.6,0.9,1.4,0.9,2.5c0,0.8-0.3,1.6-0.7,2.2c-0.3,0.3-0.6,0.6-0.9,0.8l1.6,4.9l-1.7,0l-1.3-4l-0.2-0.6
	l-1.2,0l0,4.6l-1.6,0l0-11.2l2.8,0C75.4,7.8,75.4,7.8,75.5,7.8L75.5,7.8z M67.9,17.5c0.3,0,0.6-0.2,0.7-0.4c0.4-0.4,0.6-1,0.7-1.6
	c0-0.2,0.1-0.5,0.1-0.8c0.2-1.4,0.1-3.2-0.3-4.1c-0.1-0.3-0.3-0.7-0.6-1c-0.2-0.2-0.4-0.4-0.8-0.4l0,0c-0.3,0-0.6,0.2-0.7,0.4
	c-0.4,0.4-0.6,1-0.7,1.6c0,0.2-0.1,0.5-0.1,0.8c-0.2,1.4-0.1,3.2,0.3,4.1c0.1,0.3,0.3,0.7,0.6,1C67.3,17.3,67.6,17.5,67.9,17.5
	L67.9,17.5L67.9,17.5z M67.9,7.6L67.9,7.6c0.9,0,1.5,0.3,1.9,0.9c0.4,0.5,0.7,1,0.9,1.5c0.4,1.1,0.6,3.3,0.4,4.9
	c0,0.3-0.1,0.6-0.2,0.9c-0.2,0.8-0.6,1.7-1.1,2.4c-0.5,0.5-1.1,0.9-1.9,0.9l0,0c-0.8,0-1.5-0.3-1.9-0.9c-0.4-0.5-0.7-1-0.9-1.5
	c-0.4-1.1-0.6-3.3-0.4-4.9c0.1-1.2,0.5-2.4,1.3-3.3C66.5,8,67.1,7.6,67.9,7.6L67.9,7.6z M63.2,13.7c0.3,0.5,0.5,1.2,0.5,2.1
	c0,0.6-0.2,1.2-0.5,1.7c-0.2,0.4-0.5,0.7-0.8,0.9c-0.3,0.2-0.6,0.4-1,0.5c-0.2,0-0.4,0.1-0.7,0.1c-0.9,0.2-1.9,0.2-2.8,0.4l0-11
	L60.4,8c0.1,0,0.2,0,0.2,0c0,0,0.1,0,0.1,0c0.7,0,1.3,0.2,1.8,0.6c0.3,0.2,0.5,0.5,0.7,0.8c0.2,0.3,0.3,0.7,0.3,1.1
	c0,0.5-0.1,1.1-0.3,1.6c-0.1,0.3-0.3,0.7-0.5,0.9c0.1,0.1,0.3,0.3,0.4,0.4C63.1,13.6,63.2,13.6,63.2,13.7L63.2,13.7z M60.7,17.3
	l0.3,0c0.6-0.1,1.1-0.9,1.1-1.5c0-0.6-0.1-1-0.3-1.2c-0.1-0.2-0.4-0.3-0.8-0.3c-0.1,0-0.2,0-0.3,0c-0.2,0-0.4,0.1-0.6,0.1
	c-0.2,0-0.4,0.1-0.6,0.1l0,3.1L60.7,17.3L60.7,17.3z M60.7,12.5c0.1,0,0.1,0,0.2,0c0.1,0,0.3-0.1,0.4-0.2c0.4-0.4,0.7-1.1,0.7-1.7
	c0-0.3-0.1-0.6-0.4-0.8c-0.2-0.2-0.5-0.3-0.8-0.2l0,0c-0.4,0-0.8,0.1-1.2,0.2l0,2.9c0.1,0,0.2,0,0.3,0
	C60.2,12.6,60.5,12.6,60.7,12.5L60.7,12.5z M48.9,20.6L48.9,20.6l0-10.6l1.7-0.3l2,5.8l2-6.5l1.7-0.3l0,10.7l-1.6,0.3l0-5.6l-2,6.6
	l-2.2-6.4l0,6L48.9,20.6L48.9,20.6z"/>
<path class="st17" d="M76.7,38.1c-0.2,0.1-0.4-0.1-0.2-0.2c0.1-0.1,0.2-0.3,0.4-0.3c0.2-0.1,0.4,0.1,0.3,0.3
	C77,38,76.9,38.1,76.7,38.1L76.7,38.1z M83,48.3c0,0,0.5,0.4,0.5,0.7c0,0.3,0,0.8-0.5,0.6c-0.4-0.1-1.6-0.2-2.1,0
	c-0.5,0.2-0.8,0-1-0.2c-0.1-0.2-0.4-0.3-0.7-0.3c-0.2,0-0.9,0.3-1,0.2c-0.1-0.2-0.2-0.4,0.3-0.5c0.5-0.1,0.2-0.3-0.2-0.3
	C78,48.3,78,48.3,78,48.3c0,0-0.4,0-0.6,0.2c-0.2,0.1-0.5,0.2-0.7-0.1c-0.2-0.3-0.1-0.9,0.5-0.7c0.6,0.1,1.2-0.2,1.1-0.3
	c-0.1-0.2,0.1-0.3,0.3,0c0.1,0.2,0.2,0.2,0.7,0.5c0.6,0.2,0.4-0.1,0.7,0.2c0.3,0.3,0.5,0.3,0.6,0c0.1-0.3-0.1-0.9-0.5-0.8
	c-0.4,0.1-0.6,0-0.7-0.2c0-0.2-0.2-0.4-0.4-0.4c-0.2,0-0.2-0.4,0.1-0.4c0.3,0,0.5-0.4,0.4-0.6c-0.1-0.2-0.3-0.4-0.7-0.2
	c-0.4,0.2-0.9-0.1-1.1-0.1c-0.2-0.1-1.4-0.2-1.7,0c-0.3,0.2-0.8-0.2-0.1-0.5c0.7-0.3,2.3-0.9,2.4-1.2c0.1-0.3,0-1.3-0.4-1.4
	c-0.3-0.1-1.3-0.5-1.5-0.6c-0.2-0.1-1.1-0.4-1.4,0.2c-0.3,0.6-0.4-0.2-0.4-0.2c0,0-0.8-0.9-1.7-0.4c-0.9,0.5-0.3-0.4-0.1-0.5
	c0.2-0.1,0.6-0.4,1.2-0.4c0.5,0,0.4-0.5,1.5-0.3c1,0.2,0.8-0.3,0.9-0.5c0-0.2-0.1-0.7,0.4-0.9c0.5-0.2,0.6-0.2,0.5,0.3
	c-0.1,0.5-0.1,0.9,0.1,0.9c0.2,0,0.1,0.5,0.2,0.6c0,0.1,0.4,0.1,0.7,0c0.3-0.1,0.5-0.1,0.6,0.2c0.1,0.3,0,0.4,0,0.6
	c0,0.1-0.1,0.4,0,0.6c0.2,0.2,0.2,0.6,0.1,0.8c-0.1,0.2-0.3,0.5-0.1,0.7c0.2,0.2,0.1,0.8,0.6,0.9c0.5,0.1,0.6,0.3,0.9,0.7
	c0.3,0.4,0.5,0.2,0.3-0.1s-0.8-0.9-0.4-1.2c0.4-0.3,0.4,0.2,0.6,0.6C80.9,44.3,82.5,47.8,83,48.3L83,48.3z M74.4,65.9
	c0,0-0.2,0.7-0.4,0.2c-0.2-0.5-0.9-1.1-0.7-1.8c0.2-0.7-0.2-0.8-0.2-0.8c0,0,0.8,0.3,0.7,1.2c0,0,0.5,0,0.4,0.6
	C74.2,65.9,74.4,65.9,74.4,65.9L74.4,65.9z M60.6,49.8c0,0-1.4,3.1-1.5,3.5c-0.1,0.5-0.3,1.6-0.3,1.6c0,0-0.4-1.4,0-2.1
	c0.4-0.7,0.8-3.3,0.9-3.8c0.1-0.5,0.7-2.7,1.4-3.4c0.7-0.7,0.4-2.3,0.8-2.6c0.3-0.3,0.6-1.8,0.8-2.2c0.3-0.4,0.2-1.6,1-2.4
	c0.8-0.8,1.4-1.7,1.5-2.1c0-0.4,2.1-2.9,3.7-3.5c1.6-0.7,2.2-1.2,2.2-1.2c0,0,3.5-2.3,5-2c1.5,0.3,3,1.4,3.6,1.5
	c0.6,0.1,2.4,0.8,3.8,0.8c1.4,0,1.7,0,2.1-0.5c0.3-0.6,0.8-2.9-1.3-3.7c-2.1-0.8-4.5-1.7-9.3-2c-4.8-0.3-5.4-0.2-6.8-0.8
	c-1.4-0.6-1.6-2.7,0.7-3.3c2.3-0.5,3.2-0.3,3.8-0.6c0.6-0.3,1.6-0.1,1.9-0.2c0.3-0.2,0.4,0.5,1,0.2c0.5-0.2,0.3,0.4,0.9,0.3
	c0.6-0.1,0.6,0.2,0.8,0.6c0.2,0.4,0.9,0.5,2.1,0.6c1.2,0.1,1.6-0.1,2.2,0.2c0,0-1.2,0.5-1.9,0.3c-0.7-0.1-3-0.3-3.1,0
	c-0.1,0.3,0.4,0.5,1.3,0.6c0.9,0.1,0.6,0.3,0.1,0.3c-0.6,0-4-0.1-4.7-0.3c-0.7-0.1-3.7-0.9-4.1-0.2c-0.4,0.7,0,0.9,0.8,1.2
	c0.9,0.2,5.1,0.3,6,0.3c0.9,0,7.3,0.2,9.6,2.3c2.3,2.1,1.9,3.2,1.3,4.7c-0.6,1.4-0.8,1.5-0.2,2.4c0.6,0.9,3.7,6.5,3.2,9.5
	c-0.4,3-0.8,4.2-0.2,5.3c0.6,1,0.3,2.5,0.1,2.9c-0.2,0.4-0.4,1.1,0.6,1.6c0.9,0.5,2.7,1.6,3.5,1.4c0.8-0.2,1.6-0.4,1.7,0
	c0.1,0.4-2,1.5-2.6,1.5c-0.6,0-2.8-0.1-4-0.5c-1.2-0.5-0.2,0.4-0.1,0.5c0.1,0.1,0.5,1.5,0.9,1.7c0.4,0.2,0.4,1.1,0.3,2
	c-0.1,0.9-0.2,3.1-0.2,3.1c0,0,0.1,1,0.4,1.2c0.3,0.2,0.2,1,0.1,1.3c-0.1,0.3,0.3,0.9,0.6,1.2c0.3,0.3,0.5,1.4,0.4,1.7
	c-0.2,0.3-0.6,0.3-0.6,0.8c0,0.4-0.6,0.5-0.9,0.4c-0.3-0.1-0.7-0.6-0.2-0.5c0.4,0.1,0.4-0.9,0-0.8c-0.4,0-0.5,0.3-0.7,0.1
	c-0.3-0.2-0.2,0.8-0.5,0.2c-0.3-0.6,0-1.6,0.2-1.6c0,0-0.3-1.2-0.5-1.5c-0.3-0.3-0.1-1.5,0.1-2.1c0.2-0.6-0.2-2.7-0.7-3.1
	c-0.5-0.4-1.1-1.3-1.1-1.3c0,0,0.6-0.6,0.6-1c0-0.4-0.2-0.7-0.4-0.2c-0.2,0.5-1.5,2.1-3.3,2.8c0,0-2.9,3.3-1.9,4.9
	c0,0,0.2,0.9-0.2,1.1c-0.4,0.2-0.6,0.9-0.7,1.1c-0.1,0.2-0.7,0.5-1.5,0.4c-0.8-0.1-2.7-0.2-3.1-0.1c-0.4,0.1-1.1-0.1-1.4-1.3
	c0,0,1.1,0.9,0.8-0.1c-0.3-1-0.4-1.4,0.5-1.1c0.9,0.3,1,0.2,0.7-0.1c-0.3-0.4-1-0.4-1-0.4c0,0-0.4-0.4,0.3-0.4
	c0.6-0.1-0.1-0.6-0.1-0.6c0,0-0.3-0.2,0.1-0.6c0.3-0.5,0.3-1.3,0.3-1.3c0,0,0-0.9,0.3-1.7C77,60,77,59.8,77,59.8s0-0.9-0.9,0
	c-0.9,1-0.9,1.4-1.2,1.5c-0.4,0.1-0.8,0.5-0.7,0.7c0.1,0.2-0.6,0.2-0.5-0.1c0-0.3-0.9-1.8,0.2-1.3c0,0,0.1-1,0.6-0.7
	c0,0,0.2-0.6-0.1-0.9c-0.3-0.3-0.1-0.9,0.4-1.4c0.5-0.4,2.5-3.5,2-4.3c-0.5-0.8-0.6-0.7-0.6-0.3c0,0.4-0.4,0.3-0.6,0
	c-0.2-0.2-1.2-1-1.1-1.4c0-0.4-0.4-0.5-0.5-0.2c-0.1,0.2-0.5-0.5-0.5-0.5s-0.2-0.7,0.3-0.6c0.6,0.1,0.8-0.2,1.5-0.2
	c0.7,0,1.9,0.6,2.3,1.1c0,0,1.3-1.7,3.1-1.1c1.2,0.2,0.8,1.9,0.7,2.1c-0.1,0.2-0.9,0.8,1.2,1c2.1,0.2,0.8-0.4,0.5-0.5
	c-0.3,0-1.5-0.1-1.2-0.6c0.3-0.5,0.3-1,1-0.7c0.7,0.2,1.4-0.2,1.6,0.8c0,0,0.4-0.7,1-0.3c0.7,0.4,1.1,0.2,1.5,0.7
	c0.5,0.4,1.2,0.4,1.2,0.4c0,0,0.5,0.3,0.4,0.8c-0.1,0.6-0.4,0.9-0.9,0.7c-0.4-0.2-0.9,0.5,0,0.6c0.9,0.1,1-0.4,2.3,0.3
	c1.3,0.7,3,1,3.6,0.7c0.6-0.3,1.7-0.6,1.7-0.6s0.4-0.6-0.3-0.4c-0.7,0.3-1.8,0.3-3.3-0.4c-1.5-0.7-2.1-1.3-2.3-1.3
	c-0.2,0-0.4-0.2-0.3-0.5c0.1-0.4-0.5-1.1-0.7-1.3c-0.2-0.2-0.9-0.6-1.4-0.7c-0.4-0.1-2.5-1.4-2.8-1.9c-0.3-0.5-1.1-1.5-1.2-3.1
	c-0.1-1.6-0.7-2.2-1-2.6c-0.3-0.5-1-1.1-0.8-2.7c0.2-1.5-0.5-2.4-0.7-2.8c-0.3-0.4-1.4-3.2-1.4-3.5c-0.1-0.3-0.1-1.4,0.6-0.5
	c0.7,0.9,1,1.3,0.8,1.8c0,0,0.4,0.3,0.1,0.7c0,0,0.6,0.7,0.4,1.1c0,0,0.6,0.9,0.7,1.2c0,0.3,0.5,0.4,0.7,0.2
	c0.2-0.3,1.1-0.1,0.8-0.5c-0.3-0.4-0.1-0.7,0.1-0.3c0.2,0.4,0.5,1.2,0.9,1c0.4-0.2,0.7-0.7,0.3-0.7C84.1,38.3,84,38,84,37.7
	c0-0.3-0.4-0.7,0-1.1c0.5-0.4-0.1-1.1-0.1-1.5c0-0.4-0.2-0.6-0.4-0.8c-0.2-0.1-0.1-0.5,0.5-0.7c0.6-0.2,0.7-0.5,1.2-0.1
	c0.6,0.3,1,0.2,0.8,0c-0.2-0.2-0.1-0.3,0.1-0.6c0.2-0.3,1.6-2.7,0.3-4.4c-1.2-1.7-4.9-2.7-7-2.9c-2.1-0.2-6.8-0.2-7.2-0.3
	c-0.4-0.1-2.5-0.2-2.9-0.5c-0.4-0.3-0.8,0-0.3,0.3c0.5,0.3,3.3,0.5,4,0.5c0.6,0,7.6,0.3,9.6,1.2c2,0.9,3.8,1.6,3.8,3.3
	c0,1.7-1.4,2.8-1.4,2.8c0,0-0.4,0.3-1,0.1c-0.6-0.1-4.4-1.1-5.3-1.6c-0.9-0.5-3.2-1.7-4.9-0.6c-1.7,1.1-4.6,2.4-5.1,2.6
	c-0.4,0.2-2,1.5-2.4,2.4c-0.5,0.9-0.9,1-1,1.6c-0.1,0.6-1.5,0.9-1.8,2.2c-0.3,1.4-0.6,2.1-0.8,2.5c-0.2,0.3-0.7,1.1-0.3,1.2
	c0.4,0.1,0.3,0.6,0,0.5c-0.3-0.1-0.6,0.1-0.3,0.9c0.2,0.8-0.9,1.3-1.1,2.1C60.5,47.8,61,48.8,60.6,49.8L60.6,49.8z M66.6,43.9
	c0,0-0.6,1.4-0.3,2.1c0.3,0.8,0.3,1.9,0.7,2.2c0.4,0.3,0.4,0.4,0.7,0.3c0.3-0.2,0.3,0.1,0.5,0.3c0.2,0.2,0.5,0.3,0.5,0.5
	c0,0.2-0.1,0.3-0.3,0.3c-0.3,0-0.6,0.1-0.7-0.1c-0.1-0.2-0.4-0.6-0.7-0.3c-0.3,0.2-0.4,0.9-0.9,0.5c-0.5-0.4-1.3-0.5-0.5-0.8
	c0,0-0.6-0.6-0.7-0.8c-0.1-0.1-0.4-0.1-0.3-0.8c0.1-0.6-0.2-1.2,0.7-1.7c0.9-0.4,0.4-0.4,0.4-0.7C65.8,44.7,66.3,43.3,66.6,43.9
	L66.6,43.9z M64,59.1c0,0-0.4-1.1-1-1c-0.5,0.1-0.4,0.3-0.6,0.5c-0.2,0.2-1.4,2.1-1.5,2.5c0,0.4-0.8,3.1-0.7,3.6
	c0,0.6-0.7,1.6-1.3,1.9c-0.6,0.3-1.8,1.5-2.1,2.7c-0.3,1.2-0.3,1.5-0.4,2.3c-0.1,0.8-0.3,2.5-0.8,2.9c-0.5,0.4-1.4,0.5-2.3,0.3
	c-0.9-0.2-2.4-0.8-1.1-2c1.3-1.2,2.8-2.7,2.5-3.7c-0.2-1,0.8-1,1-1.2c0.2-0.3,0.2-0.3,0.2-0.3l0.5-1.6c0,0,0.1-0.7,0.6-0.6
	c0.5,0.1,1.4-0.6,1.4-1.1c0.1-0.5,0.2-1,0-1c-0.2,0-0.3-0.5-0.3-0.5c0,0-0.2-0.4-0.5,0c-0.4,0.5-0.5,0.2-0.2-0.2
	c0.3-0.4,0.3-0.7,0.3-0.7s0.3-0.2,0.5-0.3c0.2-0.1,0.2-1.4,0.2-1.6c0-0.2-0.4-0.6-0.4,0.2c0,0.7,0,1.1,0,1.1s-0.5,0.2-0.4-0.3
	c0.1-0.5,0.2-1.4,0.3-1.7c0.1-0.3-0.3-1.1,0.1-1.5c0.3-0.4,0.4-1.2,0.4-1.2c0,0,0.5-0.5,0.4,0.1c-0.2,0.5-0.6,1.6-0.5,1.8
	c0.1,0.2,0.4,0.4,0.5,0.1c0.1-0.2-0.3-0.7,0.1-0.9c0.4-0.2,0.2-1.1,0.2-1.1c0,0,0.3-0.8,0.5-1c0.3-0.2,0.5-2.1,0.4-2.3
	c-0.1-0.3-0.1-0.3,0.3-0.6c0.4-0.3,0.3-1,0.8-1.3c0.5-0.3,0.3-0.2,0.2,0.2c-0.1,0.4-0.3,2.1,0.6,1.7c1-0.4,1.7-0.2,1.9-1.2
	c0.2-0.9,0.5-2.2,1-2.8c0,0,0.1,1.2,0.4,1.4c0.3,0.2,1.2,0.1,1.7,0.7c0.5,0.6,1.8,0.2,1.7-0.1c-0.1-0.2-0.3-1.3,0.4-0.6
	c0.6,0.7,0.9,1,1.2,1c0.3,0,0.6-0.2,0.4-0.3c-0.3-0.1-0.1-0.5,0-0.8c0.1-0.3,0.5-0.3,0.9-0.5c0.3-0.2,0.6-0.1,0.7-0.4
	c0.1-0.2,0.6-0.8,0.6-0.1c-0.1,0.7,0.1,1.3,0.3,1.5c0.2,0.3,0.4,0.5,0.1,0.8c-0.3,0.3,0.2,0.7,0.1,1.3c-0.1,0.6,0.1,0.6-0.4,0.5
	c-0.5-0.2-0.9,0-0.6,0.5c0.3,0.5,0.2,0.9-0.2,1c-0.4,0.1-0.5,0.4-0.8,1.1c-0.3,0.7-0.7,1.5-0.6,1.9c0.1,0.4,0.4,1,0.7,1.1
	c0.3,0.1,0.4,0.4,0.4,0.9c0,0.5,0.7,0.8,0.7,1.3c0,0.5,0.7,1.3,0.3,1.1c-0.5-0.1-0.6,0.2-0.7,0.7c-0.1,0.5,0,1.4,0,1.4
	c0,0,0.1,0.6-0.2,1.1c-0.3,0.4-0.7,1.2-0.6,1.8c0,0.5-1.1,1.2-1.4,1.2c-0.3-0.1-0.5-0.4,0.2-0.4c0.7,0,0.8-0.6,0.2-0.8
	c-0.6-0.1-1-0.4-1.1,0.2c-0.1,0.6-0.1,0.9-0.8,0.7s-0.5-0.5-0.5-0.8c0.1-0.4,0.5-1.1,0.7-1.3c0.2-0.2,0.5-0.8,0.7-0.9
	c0.2-0.2,1.1-1.4,1.1-1.4s0.8-1.3,0.2-0.9c-0.7,0.4-2,1.2-2.1,1.6c-0.1,0.5-1,2-1,2.5c-0.1,0.6-0.7,0.7-0.8,1.7
	c-0.1,0.9-0.7,3.1-0.4,3.7c0.3,0.6-0.4,1.2-0.7,1.2c-0.3,0-1.6,0.7-2.1,0.6c-0.6-0.1-0.8-0.4-0.7-0.7c0.1-0.4-0.2-0.6-0.4-0.3
	c-0.2,0.4-0.8,0.3-0.6-0.4c0.2-0.7,1.1-2.6,2.1-3.4c1-0.8,0.3-1.1,1.1-0.9c0,0,0.6-0.9,0.2-1.1c-0.4-0.2-0.3-0.5-0.3-0.9
	c0-0.4-0.3-1,0.1-1.6c0.4-0.6,1.4-1.7,1.2-2.5c-0.2-0.8-0.9-1.1-0.9-1.1c-0.5-0.1-1-0.5-0.9-1.1C64.3,59.8,63.6,59.6,64,59.1z
	 M69.2,66.7c0,0-0.5-0.4,0.1-0.8c0.6-0.4,1.3-1.5,1.4-1.6c0.1-0.2,0.5-0.5,0.5,0.1c-0.1,0.5-0.3,1.8-0.3,2c0,0-0.4,0-0.6,0.3
	C70,66.9,69.4,67,69.2,66.7z M68.3,67.3c0-0.1,0.1-0.1,0.2-0.1c0.1,0,0.1,0.1,0.1,0.2c0,0.1-0.2,0.3-0.3,0.2
	C68.3,67.6,68.3,67.4,68.3,67.3z M64,73.3c0.1,0,0.2,0.2,0.2,0.3c0,0.1-0.1,0.2-0.3,0.2s-0.2-0.2-0.2-0.3
	C63.7,73.4,63.8,73.3,64,73.3L64,73.3z M62.7,72c0.2,0,0.3,0.1,0.3,0.2c0,0.1-0.1,0.1-0.3,0.1c-0.2,0-0.3-0.1-0.3-0.2
	C62.4,72.1,62.6,72,62.7,72L62.7,72z M65.5,65.1c0,0,1-0.8,1.1,0.1c0.1,0.9-0.5,2-0.8,2.1c-0.2,0.1-0.6,0.2-0.5-0.3
	C65.3,66.3,65.3,65.4,65.5,65.1L65.5,65.1z M64.2,69.7c0,0,0.6-0.6,0.8,0.1c0.2,0.7,0.5,0.9,0.5,1.3c-0.1,0.4,0.1,1.1-0.4,1.1
	c-0.5-0.1-1.1,0.4-1.5,0.3c-0.3-0.1-0.6-0.8-0.6-0.8c0,0-0.4-0.2,0.3-0.7C63.9,70.5,63.5,70,64.2,69.7L64.2,69.7z M57.2,63.7
	c0,0-0.2,0.8-0.1,1.2c0.1,0.3-0.6,0.6-0.6,0.1C56.5,64.4,56.8,64,57.2,63.7L57.2,63.7z M53.5,74.2c0.1,0,0.2,0.1,0.2,0.2
	c0,0.1-0.1,0.2-0.3,0.1c-0.1,0-0.2-0.1-0.2-0.2C53.2,74.2,53.3,74.2,53.5,74.2L53.5,74.2z M52.7,73.8c0,0-0.4,0.4-0.5,0.2
	c-0.2-0.2-0.3-0.5,0.1-0.7c0.4-0.2,2-2,2.1-2.1c0.1-0.1,1.1-0.2,1.1,0.5c0,0.7-0.4,1.2-1,1.1C53.7,72.7,53,72.7,52.7,73.8z
	 M80.6,58.3c0-0.1,0.2-0.2,0.2-0.1c0.1,0.1,0.2,0.3,0.2,0.4c0,0.1-0.1,0.1-0.2,0C80.7,58.5,80.6,58.4,80.6,58.3z M78.9,59.5
	c-0.1,0-0.1-0.4,0-0.5c0.1-0.1,0.5-0.1,0.5,0C79.4,59.3,79.1,59.5,78.9,59.5z M78.6,58.1c-0.1-0.1-0.1-0.3,0-0.4
	c0.1-0.1,0.4,0,0.5,0.1c0.1,0.1,0.1,0.2,0,0.3C79,58.1,78.8,58.2,78.6,58.1z M84.8,53.7c-0.3-0.1-0.2-0.4,0-0.3
	c0.5,0.1,1.1,0.3,1.6,0.6c0.4,0.3,0,0.8-0.2,0.4C85.8,54,85.3,53.9,84.8,53.7z M88.9,59c0,0,0.4,0.3,0.6,0.4c0.2,0,0.3,0.5-0.1,0.5
	c-0.3-0.1-0.9-0.4-0.8-0.6C88.6,59.1,88.7,58.5,88.9,59z M87.6,56.9c0,0-0.4,0.4-0.3-0.1c0.1-0.4,0.2-1.2,0.6-1.1
	c0.3,0.1,0.4,0.1,0.6,0.7c0.2,0.6,0.5,1.2,1,1.5c0.5,0.3-0.5,0.6-0.6,0.3c-0.1-0.3-0.6-1.2-0.8-1.3C87.9,56.8,87.7,56.6,87.6,56.9
	L87.6,56.9z M79.1,50.5c0,0,1-0.2,1.5,0.3c0.1,0.1,0.2,0.3,0.2,0.4c0.1,0.3-0.1,0.6-0.3,0.7c-0.3,0.1-1.2,0.5-1.1,1.1
	c0.2,0.7,1.6,1.5,3.8,2c2.1,0.5,0.1,0.7-0.5,0.6c-0.6-0.1-4,0.1-5.2-1.9C76.3,51.5,78.8,50.6,79.1,50.5L79.1,50.5z"/>
<path class="st18" d="M79.1,50.5c0,0,1-0.2,1.5,0.3c0.1,0.1,0.2,0.3,0.2,0.4c0.1,0.3-0.1,0.6-0.3,0.7c-0.3,0.1-1.2,0.5-1.1,1.1
	c0.2,0.7,1.6,1.5,3.8,2c2.1,0.5,0.1,0.7-0.5,0.6c-0.6-0.1-4,0.1-5.2-1.9C76.3,51.5,78.8,50.6,79.1,50.5L79.1,50.5z"/>
<path class="st19" d="M76.7,38.1c-0.2,0.1-0.4-0.1-0.2-0.2c0.1-0.1,0.2-0.3,0.4-0.3c0.2-0.1,0.4,0.1,0.3,0.3
	C77,38,76.9,38.1,76.7,38.1L76.7,38.1z"/>
<path class="st19" d="M83,48.3c0,0,0.5,0.4,0.5,0.7c0,0.3,0,0.8-0.5,0.6c-0.4-0.1-1.6-0.2-2.1,0c-0.5,0.2-0.8,0-1-0.2
	c-0.1-0.2-0.4-0.3-0.7-0.3c-0.2,0-0.9,0.3-1,0.2c-0.1-0.2-0.2-0.4,0.3-0.5c0.5-0.1,0.2-0.3-0.2-0.3C78,48.3,78,48.3,78,48.3
	c0,0-0.4,0-0.6,0.2c-0.2,0.1-0.5,0.2-0.7-0.1c-0.2-0.3-0.1-0.9,0.5-0.7c0.6,0.1,1.2-0.2,1.1-0.3c-0.1-0.2,0.1-0.3,0.3,0
	c0.1,0.2,0.2,0.2,0.7,0.5c0.6,0.2,0.4-0.1,0.7,0.2c0.3,0.3,0.5,0.3,0.6,0c0.1-0.3-0.1-0.9-0.5-0.8c-0.4,0.1-0.6,0-0.7-0.2
	c0-0.2-0.2-0.4-0.4-0.4c-0.2,0-0.2-0.4,0.1-0.4c0.3,0,0.5-0.4,0.4-0.6c-0.1-0.2-0.3-0.4-0.7-0.2c-0.4,0.2-0.9-0.1-1.1-0.1
	c-0.2-0.1-1.4-0.2-1.7,0c-0.3,0.2-0.8-0.2-0.1-0.5c0.7-0.3,2.3-0.9,2.4-1.2c0.1-0.3,0-1.3-0.4-1.4c-0.3-0.1-1.3-0.5-1.5-0.6
	c-0.2-0.1-1.1-0.4-1.4,0.2c-0.3,0.6-0.4-0.2-0.4-0.2c0,0-0.8-0.9-1.7-0.4c-0.9,0.5-0.3-0.4-0.1-0.5c0.2-0.1,0.6-0.4,1.2-0.4
	c0.5,0,0.4-0.5,1.5-0.3c1,0.2,0.8-0.3,0.9-0.5c0-0.2-0.1-0.7,0.4-0.9c0.5-0.2,0.6-0.2,0.5,0.3c-0.1,0.5-0.1,0.9,0.1,0.9
	c0.2,0,0.1,0.5,0.2,0.6c0,0.1,0.4,0.1,0.7,0c0.3-0.1,0.5-0.1,0.6,0.2c0.1,0.3,0,0.4,0,0.6c0,0.1-0.1,0.4,0,0.6
	c0.2,0.2,0.2,0.6,0.1,0.8c-0.1,0.2-0.3,0.5-0.1,0.7c0.2,0.2,0.1,0.8,0.6,0.9c0.5,0.1,0.6,0.3,0.9,0.7c0.3,0.4,0.5,0.2,0.3-0.1
	c-0.2-0.3-0.8-0.9-0.4-1.2c0.4-0.3,0.4,0.2,0.6,0.6C80.9,44.3,82.5,47.8,83,48.3L83,48.3z"/>
<path class="st19" d="M66.6,43.9c0,0-0.6,1.4-0.3,2.1c0.3,0.8,0.3,1.9,0.7,2.2c0.4,0.3,0.4,0.4,0.7,0.3c0.3-0.2,0.3,0.1,0.5,0.3
	c0.2,0.2,0.5,0.3,0.5,0.5c0,0.2-0.1,0.3-0.3,0.3c-0.3,0-0.6,0.1-0.7-0.1c-0.1-0.2-0.4-0.6-0.7-0.3c-0.3,0.2-0.4,0.9-0.9,0.5
	c-0.5-0.4-1.3-0.5-0.5-0.8c0,0-0.6-0.6-0.7-0.8c-0.1-0.1-0.4-0.1-0.3-0.8c0.1-0.6-0.2-1.2,0.7-1.7c0.9-0.4,0.4-0.4,0.4-0.7
	C65.8,44.7,66.3,43.3,66.6,43.9L66.6,43.9z"/>
<path class="st20" d="M74.8,67.1c0,0,1.1,0.9,0.8-0.1c-0.3-1-0.4-1.4,0.5-1.1c0.9,0.3,1,0.2,0.7-0.1c-0.3-0.4-1-0.4-1-0.4
	c0,0-0.4-0.4,0.3-0.4c0.6-0.1-0.1-0.6-0.1-0.6c0,0-0.3-0.2,0.1-0.6c0.3-0.5,0.3-1.3,0.3-1.3c0,0,0-0.9,0.3-1.7
	c0.4-0.7,0.3-0.9,0.3-0.9s0-0.9-0.9,0c-0.9,1-0.9,1.4-1.2,1.5c-0.4,0.1-0.8,0.5-0.7,0.7c0.1,0.2-0.6,0.2-0.5-0.1
	c0-0.3-0.9-1.8,0.2-1.3c0,0,0.1-1,0.6-0.7c0,0,0.2-0.6-0.1-0.9c-0.3-0.3-0.1-0.9,0.4-1.4c0.5-0.4,2.5-3.5,2-4.3
	c-0.5-0.8-0.6-0.7-0.6-0.3c0,0.4-0.4,0.3-0.6,0c-0.2-0.2-1.2-1-1.1-1.4c0-0.4-0.4-0.5-0.5-0.2c-0.1,0.2-0.5-0.5-0.5-0.5
	s-0.2-0.7,0.3-0.6c0.6,0.1,0.8-0.2,1.5-0.2c0.7,0,1.9,0.6,2.3,1.1c0,0,1.3-1.7,3.1-1.1c1.2,0.2,0.8,1.9,0.7,2.1
	c-0.1,0.2-0.9,0.8,1.2,1c2.1,0.2,0.8-0.4,0.5-0.5c-0.3,0-1.5-0.1-1.2-0.6c0.3-0.5,0.3-1,1-0.7c0.7,0.2,1.4-0.2,1.6,0.8
	c0,0,0.4-0.7,1-0.3c0.7,0.4,1.1,0.2,1.5,0.7c0.5,0.4,1.2,0.4,1.2,0.4c0,0,0.5,0.3,0.4,0.8c-0.1,0.6-0.4,0.9-0.9,0.7
	c-0.4-0.2-0.9,0.5,0,0.6c0.9,0.1,1-0.4,2.3,0.3c1.3,0.7,3,1,3.6,0.7c0.6-0.3,1.7-0.6,1.7-0.6s0.4-0.6-0.3-0.4
	c-0.7,0.3-1.8,0.3-3.3-0.4c-1.5-0.7-2.1-1.3-2.3-1.3c-0.2,0-0.4-0.2-0.3-0.5c0.1-0.4-0.5-1.1-0.7-1.3c-0.2-0.2-0.9-0.6-1.4-0.7
	c-0.4-0.1-2.5-1.4-2.8-1.9c-0.3-0.5-1.1-1.5-1.2-3.1c-0.1-1.6-0.7-2.2-1-2.6c-0.3-0.5-1-1.1-0.8-2.7c0.2-1.5-0.5-2.4-0.7-2.8
	c-0.3-0.4-1.4-3.2-1.4-3.5c-0.1-0.3-0.1-1.4,0.6-0.5c0.7,0.9,1,1.3,0.8,1.8c0,0,0.4,0.3,0.1,0.7c0,0,0.6,0.7,0.4,1.1
	c0,0,0.6,0.9,0.7,1.2c0,0.3,0.5,0.4,0.7,0.2c0.2-0.3,1.1-0.1,0.8-0.5c-0.3-0.4-0.1-0.7,0.1-0.3c0.2,0.4,0.5,1.2,0.9,1
	c0.4-0.2,0.7-0.7,0.3-0.7C84.1,38.3,84,38,84,37.7c0-0.3-0.4-0.7,0-1.1c0.5-0.4-0.1-1.1-0.1-1.5s-0.2-0.6-0.4-0.8
	c-0.2-0.1-0.1-0.5,0.5-0.7c0.6-0.2,0.7-0.5,1.2-0.1c0.6,0.3,1,0.2,0.8,0c-0.2-0.2-0.1-0.3,0.1-0.6c0.2-0.3,1.6-2.7,0.3-4.4
	c-1.2-1.7-4.9-2.7-7-2.9c-2.1-0.2-6.8-0.2-7.2-0.3c-0.4-0.1-2.5-0.2-2.9-0.5c-0.4-0.3-0.8,0-0.3,0.3c0.5,0.3,3.3,0.5,4,0.5
	c0.6,0,7.6,0.3,9.6,1.2c2,0.9,3.8,1.6,3.8,3.3c0,1.7-1.4,2.8-1.4,2.8c0,0-0.4,0.3-1,0.1c-0.6-0.1-4.4-1.1-5.3-1.6
	c-0.9-0.5-3.2-1.7-4.9-0.6c-1.7,1.1-4.6,2.4-5.1,2.6c-0.4,0.2-2,1.5-2.4,2.4c-0.5,0.9-0.9,1-1,1.6c-0.1,0.6-1.5,0.9-1.8,2.2
	c-0.3,1.4-0.6,2.1-0.8,2.5c-0.2,0.3-0.7,1.1-0.3,1.2c0.4,0.1,0.3,0.6,0,0.5c-0.3-0.1-0.6,0.1-0.3,0.9c0.2,0.8-0.9,1.3-1.1,2.1
	c-0.6,1.1-0.1,2.2-0.5,3.2c0,0-1.4,3.1-1.5,3.5c-0.1,0.5-0.3,1.6-0.3,1.6c0-0.2-0.2,1.7-0.3,1.8c-0.2,0.5-0.6,1.6-0.5,1.8
	c0.1,0.2,0.4,0.4,0.5,0.1c0.1-0.2-0.3-0.7,0.1-0.9c0.4-0.2,0.2-1.1,0.2-1.1c0,0,0.3-0.8,0.5-1c0.3-0.2,0.5-2.1,0.4-2.3
	c-0.1-0.3-0.1-0.3,0.3-0.6c0.4-0.3,0.3-1,0.8-1.3c0.5-0.3,0.3-0.2,0.2,0.2c-0.1,0.4-0.3,2.1,0.6,1.7c1-0.4,1.7-0.2,1.9-1.2
	c0.2-0.9,0.5-2.2,1-2.8c0,0,0.1,1.2,0.4,1.4c0.3,0.2,1.2,0.1,1.7,0.7c0.5,0.6,1.8,0.2,1.7-0.1c-0.1-0.2-0.3-1.3,0.4-0.6
	c0.6,0.7,0.9,1,1.2,1c0.3,0,0.6-0.2,0.4-0.3c-0.3-0.1-0.1-0.5,0-0.8c0.1-0.3,0.5-0.3,0.9-0.5c0.3-0.2,0.6-0.1,0.7-0.4
	c0.1-0.2,0.6-0.8,0.6-0.1c-0.1,0.7,0.1,1.3,0.3,1.5c0.2,0.3,0.4,0.5,0.1,0.8c-0.3,0.3,0.2,0.7,0.1,1.3c-0.1,0.6,0.1,0.6-0.4,0.5
	c-0.5-0.2-0.9,0-0.6,0.5c0.3,0.5,0.2,0.9-0.2,1c-0.4,0.1-0.5,0.4-0.8,1.1c-0.3,0.7-0.7,1.5-0.6,1.9c0.1,0.4,0.4,1,0.7,1.1
	c0.3,0.1,0.4,0.4,0.4,0.9c0,0.5,0.7,0.8,0.7,1.3c0,0.5,0.7,1.3,0.3,1.1c-0.5-0.1,0.4,0.4,0.4,0.8c0,0,0.8,0.3,0.7,1.2
	c0,0,0.5,0,0.4,0.6C74.2,65.9,74.8,67.1,74.8,67.1L74.8,67.1z"/>
<path class="st20" d="M69.2,66.7c0,0-0.5-0.4,0.1-0.8c0.6-0.4,1.3-1.5,1.4-1.6c0.1-0.2,0.5-0.5,0.5,0.1c-0.1,0.5-0.3,1.8-0.3,2
	c0,0-0.4,0-0.6,0.3C70,66.9,69.4,67,69.2,66.7z"/>
<path class="st20" d="M68.3,67.3c0-0.1,0.1-0.1,0.2-0.1c0.1,0,0.1,0.1,0.1,0.2c0,0.1-0.2,0.3-0.3,0.2C68.3,67.6,68.3,67.4,68.3,67.3
	z"/>
<path class="st20" d="M64,73.3c0.1,0,0.2,0.2,0.2,0.3c0,0.1-0.1,0.2-0.3,0.2s-0.2-0.2-0.2-0.3C63.7,73.4,63.8,73.3,64,73.3L64,73.3z
	"/>
<path class="st20" d="M62.7,72c0.2,0,0.3,0.1,0.3,0.2c0,0.1-0.1,0.1-0.3,0.1c-0.2,0-0.3-0.1-0.3-0.2C62.4,72.1,62.5,72,62.7,72
	L62.7,72z"/>
<path class="st20" d="M65.5,65.1c0,0,1-0.8,1.1,0.1c0.1,0.9-0.5,2-0.8,2.1c-0.2,0.1-0.6,0.2-0.5-0.3C65.3,66.3,65.3,65.4,65.5,65.1
	L65.5,65.1z"/>
<path class="st20" d="M64.2,69.7c0,0,0.6-0.6,0.8,0.1c0.2,0.7,0.5,0.9,0.5,1.3c-0.1,0.4,0.1,1.1-0.4,1.1c-0.5-0.1-1.1,0.4-1.5,0.3
	c-0.3-0.1-0.6-0.8-0.6-0.8c0,0-0.4-0.2,0.3-0.7C63.9,70.5,63.5,70,64.2,69.7L64.2,69.7z"/>
<path class="st20" d="M53.5,74.2c0.1,0,0.2,0.1,0.2,0.2c0,0.1-0.1,0.2-0.3,0.1c-0.1,0-0.2-0.1-0.2-0.2
	C53.2,74.2,53.3,74.2,53.5,74.2L53.5,74.2z"/>
<path class="st20" d="M52.7,73.8c0,0-0.4,0.4-0.5,0.2c-0.2-0.2-0.3-0.5,0.1-0.7c0.4-0.2,2-2,2.1-2.1c0.1-0.1,1.1-0.2,1.1,0.5
	c0,0.7-0.4,1.2-1,1.1C53.7,72.7,53,72.7,52.7,73.8z"/>
<path class="st20" d="M80.6,58.3c0-0.1,0.2-0.2,0.2-0.1c0.1,0.1,0.2,0.3,0.2,0.4c0,0.1-0.1,0.1-0.2,0C80.7,58.5,80.6,58.4,80.6,58.3
	z"/>
<path class="st20" d="M78.9,59.5c-0.1,0-0.1-0.4,0-0.5c0.1-0.1,0.5-0.1,0.5,0C79.4,59.3,79.1,59.5,78.9,59.5z"/>
<path class="st20" d="M78.6,58.1c-0.1-0.1-0.1-0.3,0-0.4c0.1-0.1,0.4,0,0.5,0.1c0.1,0.1,0.1,0.2,0,0.3C79,58.1,78.8,58.2,78.6,58.1z
	"/>
<path class="st20" d="M84.8,53.7c-0.3-0.1-0.2-0.4,0-0.3c0.5,0.1,1.1,0.3,1.6,0.6c0.4,0.3,0,0.8-0.2,0.4
	C85.8,53.9,85.3,53.9,84.8,53.7z"/>
<path class="st20" d="M88.9,59c0,0,0.4,0.3,0.6,0.4c0.2,0,0.3,0.5-0.1,0.5c-0.3-0.1-0.9-0.4-0.8-0.6C88.6,59.1,88.7,58.5,88.9,59z"
	/>
<path class="st20" d="M87.6,56.9c0,0-0.4,0.4-0.3-0.1c0.1-0.4,0.2-1.2,0.6-1.1c0.3,0.1,0.4,0.1,0.6,0.7c0.2,0.6,0.5,1.2,1,1.5
	c0.5,0.3-0.5,0.6-0.6,0.3c-0.1-0.3-0.6-1.2-0.8-1.3C87.9,56.8,87.7,56.6,87.6,56.9L87.6,56.9z"/>
<path class="st21" d="M66.5,43.9C66.5,43.9,66.5,43.9,66.5,43.9c-0.2,0-0.6,0.9-0.6,1c0,0,0,0,0,0c0,0.1,0.1,0.1,0.1,0.2
	c0.1,0.3-0.4,0.5-0.6,0.6c-0.8,0.4-0.5,0.9-0.7,1.6c0,0.1-0.1,0.4,0,0.5c0,0.1,0.1,0.1,0.2,0.2c0.2,0.2,0.5,0.5,0.7,0.8l0.1,0.1
	l-0.2,0.1c0,0-0.2,0.1-0.3,0.2c0.1,0.1,0.6,0.4,0.8,0.4c0.1,0,0.2,0.1,0.3,0.1c0.1,0,0.4-0.4,0.5-0.6c0.4-0.3,0.7,0,0.9,0.4
	c0,0,0.4,0,0.6,0c0.2,0,0.2,0,0.2-0.1c0,0-0.4-0.3-0.5-0.4c0,0-0.2-0.3-0.2-0.3c0,0-0.1,0-0.1,0c-0.4,0.3-0.5,0-0.8-0.3
	c-0.5-0.4-0.5-1.7-0.7-2.3C66,45.5,66.2,44.5,66.5,43.9L66.5,43.9z"/>
<path class="st21" d="M78.4,49.1c0.1,0,0.7-0.2,0.9-0.2c0.3,0,0.6,0.1,0.8,0.3c0.2,0.2,0.5,0.3,0.8,0.2c0.5-0.2,1.7-0.1,2.2,0
	c0.3,0.1,0.3-0.3,0.3-0.5c0-0.2-0.3-0.5-0.4-0.6l0,0l0,0c-0.2-0.2-0.4-0.6-0.5-0.8c-0.2-0.4-0.5-0.9-0.7-1.3
	c-0.2-0.5-0.5-0.9-0.7-1.4c-0.1-0.3-0.3-0.5-0.4-0.8c0-0.1-0.1-0.1-0.1-0.2c0-0.1-0.1-0.4-0.2-0.4c0,0-0.1,0.1-0.2,0.1
	c-0.3,0.3,0.2,0.8,0.4,1c0.3,0.5-0.2,0.8-0.6,0.3c-0.3-0.4-0.4-0.5-0.8-0.7c-0.2,0-0.3-0.1-0.4-0.3c-0.1-0.2-0.2-0.5-0.3-0.6
	c-0.2-0.3-0.1-0.6,0.1-0.9c0.1-0.1,0-0.5-0.1-0.7c-0.2-0.2-0.1-0.4,0-0.7c0.1-0.2,0.1-0.3,0-0.5c-0.1-0.2-0.2-0.2-0.4-0.1
	c-0.2,0.1-0.8,0.2-0.9,0c0-0.1,0-0.5-0.1-0.6C76.8,39.7,77,39,77,38.7c0,0,0-0.2,0-0.2c-0.1,0-0.3,0.1-0.4,0.1
	c-0.4,0.1-0.2,0.5-0.3,0.8c0,0.1,0,0.2-0.1,0.4c-0.2,0.3-0.7,0.2-0.9,0.2c-0.9-0.2-0.8,0.4-1.4,0.3c-0.4,0-0.8,0.1-1.1,0.4
	c-0.1,0.1-0.2,0.3-0.3,0.4c0.1,0,0.2-0.1,0.3-0.1c0.4-0.2,0.9-0.2,1.3,0c0.1,0.1,0.5,0.3,0.6,0.5l0,0l0,0c0,0,0,0.1,0,0.2
	c0,0,0.1-0.1,0.1-0.1c0.1-0.1,0.2-0.2,0.3-0.3c0.4-0.2,1-0.1,1.3,0.1c0.2,0.1,0.5,0.3,0.8,0.3c0.2,0.1,0.5,0.2,0.7,0.3
	c0.4,0.2,0.5,1.2,0.5,1.6c-0.1,0.4-2,1.2-2.5,1.3c-0.5,0.2-0.1,0.3,0,0.2c0.3-0.2,1.5-0.1,1.8,0c0.3,0.1,0.7,0.3,1,0.1
	c0.4-0.2,0.7-0.1,0.9,0.2c0.2,0.3-0.1,0.7-0.4,0.8c-0.1,0-0.1,0.1-0.1,0.1c0.2,0,0.5,0.3,0.5,0.5c0,0.2,0.4,0.1,0.5,0.1
	c0.5-0.2,0.8,0.5,0.7,0.9c-0.2,0.4-0.6,0.4-0.8,0c0,0-0.1-0.1-0.1-0.1c-0.2,0-0.3,0-0.5-0.1c-0.3-0.1-0.6-0.2-0.8-0.5c0,0,0,0,0,0
	c0,0,0,0,0,0c0,0.2-0.2,0.4-0.4,0.4c-0.3,0.1-0.6,0.1-0.8,0c-0.1,0-0.3,0-0.4,0.1c-0.1,0.1-0.1,0.3,0,0.4c0.1,0.2,0.3,0.2,0.5,0.1
	c0.1-0.1,0.5-0.2,0.7-0.2h0l0,0c0.1,0,0.2,0,0.3,0.1c0,0,0,0,0.1,0c0.2,0,0.5,0.1,0.5,0.4c0,0.2-0.2,0.2-0.4,0.2
	C78.3,48.9,78.3,48.9,78.4,49.1L78.4,49.1z"/>
<path class="st22" d="M76.6,38C76.6,38,76.6,38,76.6,38c0.2,0,0.3-0.1,0.5-0.2c0-0.1,0-0.1-0.1-0.1C76.8,37.8,76.7,37.9,76.6,38
	L76.6,38z"/>
<path class="st20" d="M79.2,50.7c-0.5,0.2-0.9,0.4-1.3,0.8c-0.6,0.6-0.5,1.2-0.1,1.9c0.2,0.3,0.4,0.6,0.8,0.8
	c0.2,0.2,0.5,0.3,0.8,0.4c0.7,0.3,1.4,0.4,2.1,0.5c0.3,0,0.6,0,0.9,0.1c0.2,0,0.4,0,0.6,0c0.1,0,0.4,0,0.7,0c-0.1,0-0.2-0.1-0.3-0.1
	c-1-0.2-3.7-0.9-4-2.2c-0.2-0.7,0.7-1.2,1.2-1.4c0.1-0.1,0.2-0.3,0.2-0.4c0-0.1-0.1-0.2-0.2-0.2C80.2,50.6,79.6,50.6,79.2,50.7
	L79.2,50.7z"/>
<path class="st23" d="M73.8,46.1c0.9,4.2-4.6-0.4-5.9-4.2c-0.7-2,1-1.7,1.9,0.2C71.1,44.8,70.7,45.2,73.8,46.1L73.8,46.1z
	 M65.8,40.7l0.3,1c2.2,2.4,2.3,5.9,4.1,7c1.8,1,7.9-0.5,3.5-2.5c-4.6-3.3-1.6-2.6-3.2-5.7C69.6,38.5,66.7,37.5,65.8,40.7L65.8,40.7z
	"/>
<path class="st24" d="M65.8,40.7c0.8-3.2,3.8-2.2,4.7-0.3c1.6,3.1-1.4,2.4,3.2,5.7c4.4,2-1.7,3.5-3.5,2.5c-1.9-1.1-1.9-4.6-4.1-7
	c1,2.4,1.8,6.6,4.6,7.4c2.6,0.8,6.4-0.4,4.1-3.2c-1.2-1.4-4.3-6.7-4.7-7C68.5,37.5,66,37.9,65.8,40.7L65.8,40.7z"/>
<path class="st25" d="M73.8,46.1c-3.1-0.9-2.6-1.3-4-4c-1-1.9-2.6-2.2-1.9-0.2C69.2,45.7,74.7,50.3,73.8,46.1L73.8,46.1z"/>
<path class="st21" d="M86.5,43.1c0.9-0.2,1-1.7,0.7-3.8c-0.6-1.4-1.2-1.7-1.7-0.8c-0.2,1.1-0.4,2.2-0.4,3.3
	C85.3,42.7,85.7,43.2,86.5,43.1L86.5,43.1z"/>
<path class="st21" d="M86.3,43.7c-0.4-1.1-0.9-0.8-1,0.3c0,1,0,2,0.7,2.7c0.8,0.8,2,0.2,1.5-1L86.3,43.7z"/>
<path class="st20" d="M86.1,44c-0.1-0.6-0.4-0.5-0.6,0.1c-0.1,0.6-0.1,1.1,0.1,1.6c0.5,0.4,1.1,0.3,0.9-0.4L86.1,44L86.1,44z"/>
<path class="st20" d="M85.9,39.1c0-0.7,0.3-0.6,0.6,0c0.2,0.6,0.2,1,0.1,1.6c-0.4,0.5-1,0.5-1-0.3L85.9,39.1z"/>
<defs>
	<filter id="Adobe_OpacityMaskFilter_7_" filterUnits="userSpaceOnUse" x="111.1" y="16" width="1.3" height="9.9">
		<feColorMatrix  type="matrix" values="1 0 0 0 0  0 1 0 0 0  0 0 1 0 0  0 0 0 1 0"/>
	</filter>
</defs>
<mask maskUnits="userSpaceOnUse" x="111.1" y="16" width="1.3" height="9.9" id="id14_2_">
	
		<linearGradient id="SVGID_8_" gradientUnits="userSpaceOnUse" x1="27129.9551" y1="-15958.8887" x2="14664.5391" y2="-16060.5811" gradientTransform="matrix(2.834646e-02 0 0 -2.834646e-02 -414.8961 -433.3811)">
		<stop  offset="0" style="stop-color:#FFFFFF"/>
		<stop  offset="1" style="stop-color:#FFFFFF;stop-opacity:0"/>
	</linearGradient>
	<rect x="111" y="16" class="st26" width="1.5" height="10"/>
</mask>
<path class="st27" d="M112.4,16.7c-0.2-1.6-1.4,0.4-1.3,1c0.6,1.6,0.5,5.8,0.6,8.3C111.9,24.6,112.5,19.7,112.4,16.7z"/>
</svg>
