<?xml version="1.0" encoding="utf-8"?>
<!-- Generator: Adobe Illustrator 24.0.2, SVG Export Plug-In . SVG Version: 6.00 Build 0)  -->
<svg version="1.1" id="Layer_1" xmlns="http://www.w3.org/2000/svg" xmlns:xlink="http://www.w3.org/1999/xlink" x="0px" y="0px"
	 viewBox="0 0 144 101" style="enable-background:new 0 0 144 101;" xml:space="preserve">
<style type="text/css">
	.st0{display:none;}
	.st1{fill-rule:evenodd;clip-rule:evenodd;}
	.st2{fill-rule:evenodd;clip-rule:evenodd;fill:#FFC50A;}
</style>
<g id="Layer_1_1_" class="st0">
</g>
<g>
	<path d="M1,51.1c0-9.5,0-19,0-28.5c0-3.9,0.8-7.6,2.8-10.9c2.5-4.2,6.3-6.6,11-7.8C18.4,3,22,2.7,25.7,3c3.7,0.3,7.2,1,10.4,2.7
		c5,2.7,7.9,7,8.9,12.5c0.3,1.8,0.4,3.6,0.4,5.4c0.1,6.2,0,12.4,0,18.6c0,0.4-0.1,0.6-0.6,0.6c-5.5,0-11,0-16.5,0
		c-0.5,0-0.6-0.1-0.6-0.6c0-6.2,0-12.4,0-18.5c0-1.6-0.5-2.9-1.7-4c-2.5-2.2-6-0.9-6.8,2.5c-0.1,0.5-0.2,1.1-0.2,1.6
		c0,17.9,0,35.8,0,53.7c0,1.5,0.4,2.9,1.5,4c2.1,2,5.4,1.3,6.6-1.5c0.3-0.7,0.5-1.6,0.5-2.4c0-6.1,0-12.3,0-18.4
		c0-0.4,0.1-0.5,0.5-0.5c5.5,0,11.1,0,16.6,0c0.3,0,0.5,0,0.5,0.4c0,4.8,0,9.5,0,14.3c0,3.7-1.1,7-4,9.6c-1.8,1.6-3.5,3.2-5.3,4.8
		c-3.8,3.5-7.7,6.9-11.5,10.4c-0.3,0.2-0.7,0.4-1,0.4c-2.5,0-5,0.1-7.5-0.2c-6.4-1-10.8-4.7-13.4-10.6C1.5,85,1,82.2,1,79.3
		C1,69.9,1,60.5,1,51.1z"/>
	<path d="M130.8,60.7c0,12.3,0,24.7,0,37c0,0.5-0.1,0.7-0.6,0.7c-1.3,0-2.7,0-4,0c-0.3,0-0.7-0.1-0.9-0.4
		c-4.6-4.3-9.2-8.6-13.8-12.9c-0.2-0.1-0.2-0.4-0.2-0.7c0-13.8,0-27.6,0-41.4c0-6.5,0-13,0-19.5c0-0.5-0.1-0.6-0.6-0.6
		c-3.7,0-7.4,0-11.1,0c-0.4,0-0.5-0.1-0.5-0.5c0-5.8,0-11.5,0-17.3c0-0.4,0.1-0.5,0.5-0.5c14.3,0,28.7,0,43,0c0.4,0,0.5,0.1,0.5,0.5
		c0,5.7,0,11.5,0,17.2c0,0.4-0.1,0.6-0.5,0.6c-3.7,0-7.4,0-11.1,0c-0.5,0-0.6,0.2-0.6,0.7C130.8,36,130.8,48.4,130.8,60.7z"/>
	<path class="st1" d="M71.4,47.7c0.1,0,0.2,0.1,0.2,0.1c3,0,6,0,8.9,0c0.1,0,0.3-0.3,0.3-0.4c-0.4-2.2-0.7-4.3-1.1-6.5
		c-1-5.8-2-11.6-3-17.4c-0.1-0.8-0.3-1.6-0.4-2.4c-0.1,0-0.1,0-0.2,0C74.5,30,73,38.9,71.4,47.7z M103.9,78.2
		C94.6,69.5,85.4,61,76.2,52.3c-8.9,8-17.7,15.9-26.6,23.9c0.3-1.3,0.5-2.4,0.7-3.5c1.6-7.8,3.1-15.6,4.7-23.4
		c1.4-7,2.8-14,4.2-20.9c1.5-7.6,3-15.2,4.5-22.8c0.1-0.6,0.3-0.8,1-0.8c7.7,0,15.4,0,23.1,0c0.5,0,0.7,0.1,0.8,0.6
		c1.9,8.9,3.8,17.7,5.6,26.6c1.9,9,3.8,18,5.7,27c1.3,6.2,2.6,12.5,4,18.7C103.8,77.8,103.9,78,103.9,78.2z"/>
	<path class="st2" d="M31.8,98.6c14.8-13.4,29.6-26.7,44.4-40c14.3,13.3,28.5,26.6,42.8,40C89.9,98.6,60.9,98.6,31.8,98.6z"/>
</g>
</svg>
