<?xml version="1.0" encoding="utf-8"?>
<!-- Generator: Adobe Illustrator 24.0.2, SVG Export Plug-In . SVG Version: 6.00 Build 0)  -->
<svg version="1.1" id="Layer_1" xmlns="http://www.w3.org/2000/svg" xmlns:xlink="http://www.w3.org/1999/xlink" x="0px" y="0px"
	 viewBox="0 0 144 101" style="enable-background:new 0 0 144 101;" xml:space="preserve">
<style type="text/css">
	.st0{display:none;}
	.st1{fill-rule:evenodd;clip-rule:evenodd;fill:#231F20;}
	.st2{fill-rule:evenodd;clip-rule:evenodd;fill:#FFFFFF;}
	.st3{fill-rule:evenodd;clip-rule:evenodd;fill:#E47228;}
</style>
<g id="Layer_1_1_" class="st0">
</g>
<g>
	<path class="st1" d="M71.8,99.2L32.1,59.4c-2.5-2.7-4.1-5.6-4.1-8.6c-0.1-3.2,1.3-6.3,4.1-9.2L71.8,1.8l39.9,39.9
		c2.8,2.8,4.4,5.9,4.1,9.2c0,3-1.5,5.9-4.1,8.6L71.8,99.2L71.8,99.2z"/>
	<path class="st2" d="M33.9,57.8c-2.3-2.3-3.5-4.6-3.5-7c0,0,0-0.1,0-0.3c0-2.4,1.1-4.8,3.5-7c0,0,30.3-30.4,37.9-38
		c3.2,3.1,38.2,38,38.2,38c2.3,2.3,3.4,4.6,3.4,7c0,0.1,0,0.3,0,0.3c0,2.4-1.3,4.8-3.4,7c0,0-30.4,30.4-38.2,38
		C68.7,92.7,33.9,57.8,33.9,57.8L33.9,57.8z"/>
	<path class="st1" d="M105.6,56.8L71.8,90.6L38.1,56.8H105.6L105.6,56.8z M107.7,54.7l-1.1,1.3H37.2L36,54.7H107.7L107.7,54.7z
		 M67.7,41.6l-31,4.1l35.1-35.2l35.1,35.2L76,41.6c-0.7-0.1-2.4-0.3-4.2-0.3C70.1,41.3,68.4,41.4,67.7,41.6L67.7,41.6z"/>
	<path class="st3" d="M67.6,58.2l-1.8,19.3L46.5,58.2H67.6L67.6,58.2z M46,43.2l23.4-3l2.1-22.5L46,43.2L46,43.2z"/>
	<path class="st3" d="M97.3,58.2L78,77.5l-1.8-19.3H97.3L97.3,58.2z M72.2,17.8l2.3,22.5l23.2,3L72.2,17.8L72.2,17.8z"/>
	<path class="st1" d="M98.9,46.8l-2.1-0.3l-1.3,6.2h1.4c0,0,0.1-1,0.1-1.1h1.5l0.1,1.1h1.4L98.9,46.8L98.9,46.8z M97.3,50.4
		c0-0.3,0.4-2.4,0.4-2.7c0.1,0.3,0.6,2.4,0.6,2.7C98.1,50.4,97.4,50.4,97.3,50.4L97.3,50.4z"/>
	<polygon class="st1" points="39.1,47.5 39.1,52.7 40.5,52.7 40.5,47.3 39.1,47.5 	"/>
	<polygon class="st1" points="43.5,47 42.4,47 42.4,52.7 43.8,52.7 43.8,50 45.2,52.7 46.2,52.7 46.2,46.6 44.9,46.9 44.9,49.6 
		43.5,47 	"/>
	<polygon class="st1" points="48.7,47.8 48.7,52.7 50.1,52.7 50.1,47.6 51.1,47.5 51.1,46.2 47.6,46.5 47.6,47.9 48.7,47.8 	"/>
	<polygon class="st1" points="54.1,49.9 55.9,49.9 55.9,48.3 54.1,48.6 54.1,47.2 55.9,47 55.9,45.6 52.7,45.9 52.7,52.7 56,52.7 
		56,51.3 54.1,51.3 54.1,49.9 	"/>
	<polygon class="st1" points="65.1,48.9 66.6,52.7 67.7,52.7 67.7,44.2 66.5,44.4 66.5,48.6 64.9,44.7 63.6,44.7 63.6,52.7 
		65.1,52.7 65.1,48.9 	"/>
	<polygon class="st1" points="76.5,46.1 76.5,52.7 78,52.7 78,46.2 79.4,46.3 79.4,44.7 74.9,44.1 74.9,45.9 76.5,46.1 	"/>
	<polygon class="st1" points="81,52.7 82.4,52.7 82.4,44.9 81,44.8 81,52.7 	"/>
	<path class="st1" d="M87.3,45.5l-1.5-0.1c-1-0.1-1.4,0.4-1.4,1.5v4.2c0,1,0.4,1.5,1.4,1.5h1.4c1.1,0,1.5-0.6,1.5-1.5v-3.9
		C88.7,46.3,88.3,45.6,87.3,45.5L87.3,45.5L87.3,45.5z M87.3,51.3h-1.7v-4.4l1.7,0.1V51.3L87.3,51.3z"/>
	<path class="st1" d="M92.8,49.2c-0.4-1-0.4-1-1.5-3.2l-1-0.1v6.9h1.4c0,0,0-2.3,0-3c0.4,0.7,1.7,3,1.7,3h1v-6.3l-1.5-0.1
		C92.8,46.2,92.8,48.3,92.8,49.2L92.8,49.2z"/>
	<polygon class="st1" points="102.5,47.2 101.1,47 101.1,52.7 104.6,52.7 104.6,51.4 102.5,51.4 102.5,47.2 	"/>
	<path class="st1" d="M72.8,44l1.7,8.7h-1.4l-0.3-1.4H71l-0.1,1.4h-1.5L71,44H72.8L72.8,44z M71.8,45.9l-0.6,3.8h1.3L71.8,45.9
		L71.8,45.9z"/>
	<path class="st1" d="M60.7,52.7h1.5l-1.4-3.1c0.7-0.3,1-0.8,1-1.7v-1.4c0-1-0.4-1.5-1.4-1.4l-2.5,0.3v7.3h1.3v-3.2L60.7,52.7
		L60.7,52.7z M60.5,48.2l-1.4,0.1v-1.5l1.4-0.1V48.2L60.5,48.2z"/>
</g>
</svg>
