<?xml version="1.0" encoding="utf-8"?>
<!-- Generator: Adobe Illustrator 24.0.2, SVG Export Plug-In . SVG Version: 6.00 Build 0)  -->
<svg version="1.1" id="Layer_1" xmlns="http://www.w3.org/2000/svg" xmlns:xlink="http://www.w3.org/1999/xlink" x="0px" y="0px"
	 viewBox="0 0 144 101" style="enable-background:new 0 0 144 101;" xml:space="preserve">
<style type="text/css">
	.st0{display:none;}
	.st1{clip-path:url(#SVGID_2_);fill:url(#SVGID_3_);}
	.st2{filter:url(#Adobe_OpacityMaskFilter);}
	.st3{enable-background:new    ;}
	.st4{fill:url(#SVGID_5_);}
	.st5{mask:url(#SVGID_4_);}
	.st6{clip-path:url(#SVGID_7_);}
	.st7{clip-path:url(#SVGID_9_);fill:url(#SVGID_10_);}
	.st8{clip-path:url(#SVGID_12_);fill:url(#SVGID_13_);}
	.st9{clip-path:url(#SVGID_15_);}
	.st10{clip-path:url(#SVGID_17_);fill:url(#SVGID_18_);}
	.st11{clip-path:url(#SVGID_20_);fill:url(#SVGID_21_);}
	.st12{clip-path:url(#SVGID_23_);fill:url(#SVGID_24_);}
	.st13{clip-path:url(#SVGID_26_);fill:url(#SVGID_27_);}
	.st14{clip-path:url(#SVGID_29_);fill:url(#SVGID_30_);}
	.st15{filter:url(#Adobe_OpacityMaskFilter_1_);}
	.st16{clip-path:url(#SVGID_32_);}
	.st17{clip-path:url(#SVGID_35_);fill:url(#SVGID_36_);}
	.st18{clip-path:url(#SVGID_32_);mask:url(#SVGID_33_);fill:url(#SVGID_37_);}
	.st19{clip-path:url(#SVGID_39_);fill:url(#SVGID_40_);}
	.st20{clip-path:url(#SVGID_42_);fill:url(#SVGID_43_);}
	.st21{clip-path:url(#SVGID_45_);fill:url(#SVGID_46_);}
	.st22{clip-path:url(#SVGID_48_);fill:url(#SVGID_49_);}
	.st23{clip-path:url(#SVGID_51_);fill:url(#SVGID_52_);}
	.st24{clip-path:url(#SVGID_54_);fill:url(#SVGID_55_);}
	.st25{clip-path:url(#SVGID_57_);fill:url(#SVGID_58_);}
	.st26{fill:#FFFFFF;}
	.st27{filter:url(#Adobe_OpacityMaskFilter_2_);}
	.st28{clip-path:url(#SVGID_60_);}
	.st29{clip-path:url(#SVGID_63_);fill:url(#SVGID_64_);}
	.st30{clip-path:url(#SVGID_60_);mask:url(#SVGID_61_);}
	.st31{clip-path:url(#SVGID_66_);}
	.st32{filter:url(#Adobe_OpacityMaskFilter_3_);}
	.st33{clip-path:url(#SVGID_68_);fill:url(#SVGID_69_);}
	.st34{clip-path:url(#SVGID_68_);fill:url(#SVGID_70_);}
</style>
<g id="Layer_1_1_" class="st0">
</g>
<g>
	<defs>
		<path id="SVGID_1_" d="M69.7,74.1c-4-7.6-6.6-12.8-10.4-21.3c-0.3-0.7-0.5-1.3-0.5-1.9c0-0.7,0.2-1.2,0.6-1.9
			c3.8-8.4,6.4-13.7,10.4-21.3c0.2-0.4,0.4-0.7,0.7-0.7h0c0.3,0,0.4,0.3,0.7,0.7c4,7.6,6.6,12.8,10.4,21.3c0.3,0.7,0.5,1.3,0.5,1.9
			c0,0.7-0.2,1.2-0.6,1.9C77.7,61.3,75,66.5,71,74.1c-0.2,0.4-0.4,0.7-0.7,0.7C70.1,74.8,69.9,74.5,69.7,74.1 M59.6,3.9
			C59.3,4,59.1,4,59,4.1c-0.2,0.1-0.4,0.2-0.7,0.6C57.5,6,48.6,20.5,43,30.7c-4,7.2-7.9,14.9-9.6,18.4C33,50,33,50.7,33,50.9
			c0,0.5,0.2,1.1,0.5,1.8c1.7,3.5,5.6,11.2,9.6,18.4c5.6,10.2,14.4,24.7,15.3,25.9c0.1,0.2,0.3,0.3,0.4,0.5c0.2,0.2,0.4,0.3,0.6,0.4
			c0.2,0.1,0.7,0,1,0c0.2,0,0.4,0,0.6,0c2.3,0.1,5.7,0.2,9.4,0.2c4.6,0,9.9-0.1,10.7-0.2l0.1,0c0.3,0,0.5-0.1,0.6-0.1
			c0.2-0.1,0.3-0.2,0.7-0.7c0.9-1.2,9.6-15.7,15.2-25.9c4-7.2,7.9-14.9,9.6-18.4c0.4-0.9,0.5-1.7,0.5-2c0-0.5-0.2-1-0.5-1.7
			c-1.7-3.5-5.6-11.2-9.6-18.4C92.1,20.5,83.3,6,82.4,4.7C82.2,4.4,82,4.2,81.8,4c-0.1-0.1-0.2-0.1-0.3-0.2c-0.2-0.1-0.7,0-1.1,0
			c-0.2,0-0.4,0-0.6,0c-1.9-0.1-5.6-0.2-9.3-0.2C65.8,3.7,60.3,3.8,59.6,3.9"/>
	</defs>
	<clipPath id="SVGID_2_">
		<use xlink:href="#SVGID_1_"  style="overflow:visible;"/>
	</clipPath>
	
		<linearGradient id="SVGID_3_" gradientUnits="userSpaceOnUse" x1="-301.2895" y1="345.0433" x2="-299.1064" y2="345.0433" gradientTransform="matrix(0 -43.2775 -43.2775 0 15002.9893 -12940.873)">
		<stop  offset="0" style="stop-color:#E5E5E8"/>
		<stop  offset="0.6866" style="stop-color:#FFFFFF"/>
		<stop  offset="0.9896" style="stop-color:#A5A9AF"/>
		<stop  offset="1" style="stop-color:#A2A5AC"/>
	</linearGradient>
	<rect x="33" y="3.7" class="st1" width="74.8" height="94.5"/>
</g>
<defs>
	<filter id="Adobe_OpacityMaskFilter" filterUnits="userSpaceOnUse" x="33" y="3.7" width="74.8" height="94.5">
		
			<feColorMatrix  type="matrix" values="-1 0 0 0 1  0 -1 0 0 1  0 0 -1 0 1  0 0 0 1 0" color-interpolation-filters="sRGB" result="source"/>
		<feFlood  style="flood-color:white;flood-opacity:1" result="back"/>
		<feBlend  in="source" in2="back" mode="normal"/>
	</filter>
</defs>
<mask maskUnits="userSpaceOnUse" x="33" y="3.7" width="74.8" height="94.5" id="SVGID_4_">
	<g class="st2">
		<rect x="33" y="3.7" width="74.8" height="94.5"/>
		<g class="st3">
			
				<linearGradient id="SVGID_5_" gradientUnits="userSpaceOnUse" x1="-306.3155" y1="348.9176" x2="-304.1324" y2="348.9176" gradientTransform="matrix(0 -24.3931 -24.3931 0 8581.5605 -7367.0635)">
				<stop  offset="0" style="stop-color:#FFFFFF"/>
				<stop  offset="0.8545" style="stop-color:#FFFFFF"/>
				<stop  offset="0.8692" style="stop-color:#FAFAFA"/>
				<stop  offset="0.8872" style="stop-color:#EBEBEB"/>
				<stop  offset="0.9069" style="stop-color:#D2D2D2"/>
				<stop  offset="0.928" style="stop-color:#AFAFAF"/>
				<stop  offset="0.95" style="stop-color:#828282"/>
				<stop  offset="0.9728" style="stop-color:#4B4B4B"/>
				<stop  offset="0.996" style="stop-color:#0C0C0C"/>
				<stop  offset="1" style="stop-color:#000000"/>
			</linearGradient>
			<rect x="33" y="51.7" class="st4" width="74.8" height="46.5"/>
		</g>
	</g>
</mask>
<g class="st5">
	<g>
		<defs>
			<rect id="SVGID_6_" x="33" y="3.7" width="74.8" height="94.5"/>
		</defs>
		<clipPath id="SVGID_7_">
			<use xlink:href="#SVGID_6_"  style="overflow:visible;"/>
		</clipPath>
		<g class="st6">
			<defs>
				<path id="SVGID_8_" d="M70.4,27c0.3,0,0.4,0.3,0.7,0.7c4,7.6,6.6,12.8,10.4,21.3c0.3,0.7,0.5,1.3,0.5,1.9c0,0.7-0.2,1.2-0.6,1.9
					C77.7,61.3,75,66.5,71,74.1c-0.2,0.4-0.4,0.7-0.7,0.7c-0.3,0-0.4-0.3-0.7-0.7c-4-7.6-6.6-12.8-10.4-21.3
					c-0.3-0.7-0.5-1.3-0.5-1.9c0-0.7,0.2-1.2,0.6-1.9c3.8-8.4,6.4-13.7,10.4-21.3C69.9,27.3,70.1,27.1,70.4,27L70.4,27z M59.6,3.9
					C59.3,4,59.1,4,59,4.1c-0.2,0.1-0.4,0.2-0.7,0.6C57.5,6,48.6,20.5,43,30.7c-4,7.2-7.9,14.9-9.6,18.4C33,50,33,50.7,33,50.9
					c0,0.5,0.2,1.1,0.5,1.8c1.7,3.5,5.6,11.2,9.6,18.4c5.6,10.2,14.4,24.7,15.3,25.9c0.1,0.2,0.3,0.3,0.4,0.5
					c0.2,0.2,0.4,0.3,0.6,0.4c0.2,0.1,0.7,0,1,0c0.2,0,0.4,0,0.6,0c2.2,0.1,5.6,0.2,9.2,0.2h0.2c4.6,0,9.9-0.1,10.7-0.2l0.1,0
					c0.3,0,0.5-0.1,0.6-0.1c0.2-0.1,0.3-0.2,0.7-0.7c0.9-1.2,9.6-15.7,15.2-25.9c4-7.2,7.9-14.9,9.6-18.4c0.4-0.9,0.5-1.7,0.5-2
					c0-0.5-0.2-1-0.5-1.7c-1.7-3.5-5.6-11.2-9.6-18.4C92.1,20.5,83.3,6,82.4,4.7C82.2,4.4,82,4.2,81.8,4c-0.1-0.1-0.2-0.1-0.3-0.2
					c-0.2-0.1-0.7,0-1.1,0c-0.2,0-0.4,0-0.6,0c-1.9-0.1-5.6-0.2-9.3-0.2C65.8,3.7,60.3,3.8,59.6,3.9"/>
			</defs>
			<clipPath id="SVGID_9_">
				<use xlink:href="#SVGID_8_"  style="overflow:visible;"/>
			</clipPath>
			
				<radialGradient id="SVGID_10_" cx="-305.2372" cy="329.1873" r="2.1831" gradientTransform="matrix(21.5788 0 0 -21.659 6652.1455 7157.9341)" gradientUnits="userSpaceOnUse">
				<stop  offset="0" style="stop-color:#FFFFFF"/>
				<stop  offset="0.401" style="stop-color:#FFFFFF"/>
				<stop  offset="0.98" style="stop-color:#A5A9AF"/>
				<stop  offset="1" style="stop-color:#A2A5AC"/>
			</radialGradient>
			<rect x="33" y="3.7" class="st7" width="74.8" height="94.5"/>
		</g>
	</g>
</g>
<g>
	<defs>
		<path id="SVGID_11_" d="M55.1,50.9c-0.3,0.3-0.9,0.6-2.3,0.6c-1.2,0-11.7,0-16.7,0c-0.7,0-1.7-0.1-1.7,1.1c0,0.7,0.6,2.1,1.8,4.4
			c6.6,12.9,14,25.9,21.8,38.5c0,0,1.2,1.9,1.3,2.1c0.1,0.2,0.3,0.2,0.6,0.2c0,0,5-9.2,9-19.1c-4.5-8.3-8.6-16.5-12.5-24.7
			c0,0-1.1-2.1-1.1-2.9c0-0.1,0-0.1,0-0.2c0-0.1,0-0.1,0-0.1C55.3,50.8,55.2,50.8,55.1,50.9"/>
	</defs>
	<clipPath id="SVGID_12_">
		<use xlink:href="#SVGID_11_"  style="overflow:visible;"/>
	</clipPath>
	
		<linearGradient id="SVGID_13_" gradientUnits="userSpaceOnUse" x1="-307.7563" y1="350.7124" x2="-305.5732" y2="350.7124" gradientTransform="matrix(0 -21.3189 -21.3189 0 7528.5 -6463.3071)">
		<stop  offset="0" style="stop-color:#E5E5E8"/>
		<stop  offset="1.042330e-02" style="stop-color:#E5E5E8"/>
		<stop  offset="0.3385" style="stop-color:#B1B5BB"/>
		<stop  offset="0.5386" style="stop-color:#7F8388"/>
		<stop  offset="0.6941" style="stop-color:#55585E"/>
		<stop  offset="0.8452" style="stop-color:#3C3E42"/>
		<stop  offset="0.8983" style="stop-color:#323337"/>
		<stop  offset="0.948" style="stop-color:#242529"/>
		<stop  offset="0.9592" style="stop-color:#28292C"/>
		<stop  offset="0.9695" style="stop-color:#323437"/>
		<stop  offset="0.9795" style="stop-color:#44464A"/>
		<stop  offset="0.9893" style="stop-color:#5D6065"/>
		<stop  offset="0.9989" style="stop-color:#7D8186"/>
		<stop  offset="1" style="stop-color:#81858B"/>
	</linearGradient>
	<rect x="34.4" y="50.8" class="st8" width="34.6" height="47.1"/>
</g>
<g>
	<defs>
		<path id="SVGID_14_" d="M59.9,97.8L59.9,97.8L59.9,97.8z M60,97.8L60,97.8L60,97.8z"/>
	</defs>
	<clipPath id="SVGID_15_">
		<use xlink:href="#SVGID_14_"  style="overflow:visible;"/>
	</clipPath>
	<g class="st9">
		<defs>
			<polygon id="SVGID_16_" points="59.9,97.8 59.9,97.8 60,97.8 			"/>
		</defs>
		<clipPath id="SVGID_17_">
			<use xlink:href="#SVGID_16_"  style="overflow:visible;"/>
		</clipPath>
		
			<linearGradient id="SVGID_18_" gradientUnits="userSpaceOnUse" x1="59.9504" y1="97.8464" x2="59.9562" y2="97.8464" gradientTransform="matrix(0 -1.000000e-04 -1.000000e-04 0 283.9665 -174.1314)">
			<stop  offset="0" style="stop-color:#E5E5E8"/>
			<stop  offset="1.042330e-02" style="stop-color:#E5E5E8"/>
			<stop  offset="0.3385" style="stop-color:#B1B5BB"/>
			<stop  offset="0.5386" style="stop-color:#7F8388"/>
			<stop  offset="0.6941" style="stop-color:#55585E"/>
			<stop  offset="0.8452" style="stop-color:#3C3E42"/>
			<stop  offset="0.8983" style="stop-color:#323337"/>
			<stop  offset="0.948" style="stop-color:#242529"/>
			<stop  offset="0.9592" style="stop-color:#28292C"/>
			<stop  offset="0.9695" style="stop-color:#323437"/>
			<stop  offset="0.9795" style="stop-color:#44464A"/>
			<stop  offset="0.9893" style="stop-color:#5D6065"/>
			<stop  offset="0.9989" style="stop-color:#7D8186"/>
			<stop  offset="1" style="stop-color:#81858B"/>
		</linearGradient>
		<polygon class="st10" points="60,97.8 60,97.8 60,97.8 		"/>
	</g>
</g>
<g>
	<defs>
		<path id="SVGID_19_" d="M106.9,51.1c-0.2,0.2-0.7,0.5-1.8,0.5H91.3c-6.3,0-5.7-0.2-7.3,3.2c-0.7,1.5-1.5,3.2-2.2,4.7
			C76.3,70.8,62.9,94,61,96.9C60.4,98,60.3,98,60.8,98c0,0,4.6,0.2,9.6,0.2c7.9,0,10.7-0.2,10.7-0.2c4.6-7.1,15.5-25.3,23.4-41
			c1.8-3.6,2.7-5.2,2.6-6c0-0.1,0-0.1-0.1-0.1C107,51,106.9,51,106.9,51.1"/>
	</defs>
	<clipPath id="SVGID_20_">
		<use xlink:href="#SVGID_19_"  style="overflow:visible;"/>
	</clipPath>
	
		<linearGradient id="SVGID_21_" gradientUnits="userSpaceOnUse" x1="-307.7444" y1="349.8913" x2="-305.5613" y2="349.8913" gradientTransform="matrix(0 -21.3376 -21.3376 0 7549.5649 -6468.8125)">
		<stop  offset="0" style="stop-color:#E5E5E8"/>
		<stop  offset="1.042330e-02" style="stop-color:#E5E5E8"/>
		<stop  offset="0.3385" style="stop-color:#B1B5BB"/>
		<stop  offset="0.5386" style="stop-color:#7F8388"/>
		<stop  offset="0.6941" style="stop-color:#55585E"/>
		<stop  offset="0.8452" style="stop-color:#3C3E42"/>
		<stop  offset="0.9013" style="stop-color:#323337"/>
		<stop  offset="0.9538" style="stop-color:#242529"/>
		<stop  offset="0.9637" style="stop-color:#28292C"/>
		<stop  offset="0.9729" style="stop-color:#323437"/>
		<stop  offset="0.9818" style="stop-color:#44464A"/>
		<stop  offset="0.9905" style="stop-color:#5D6065"/>
		<stop  offset="0.999" style="stop-color:#7D8186"/>
		<stop  offset="1" style="stop-color:#81858B"/>
	</linearGradient>
	<rect x="60.3" y="51" class="st11" width="46.9" height="47.2"/>
</g>
<g>
	<defs>
		<path id="SVGID_22_" d="M80.7,4c-0.3,0-0.6,0.3-1,1c-3.9,6-17.3,31.3-22.8,43.1c-0.7,1.4-1,2.1-1,2.8l2.9,0c0,0,0,0,0,0
			c0-0.7,0.2-1.2,0.6-1.9c3.8-8.4,6.4-13.7,10.4-21.3c0.2-0.4,0.4-0.7,0.7-0.7l1.1-3.2C75.3,14.2,80.8,4,80.7,4
			C80.8,4,80.7,4,80.7,4"/>
	</defs>
	<clipPath id="SVGID_23_">
		<use xlink:href="#SVGID_22_"  style="overflow:visible;"/>
	</clipPath>
	
		<linearGradient id="SVGID_24_" gradientUnits="userSpaceOnUse" x1="-306.4741" y1="350.2134" x2="-304.291" y2="350.2134" gradientTransform="matrix(0 -21.477 -21.477 0 7589.8818 -6531.5146)">
		<stop  offset="0" style="stop-color:#55585E"/>
		<stop  offset="1.020751e-02" style="stop-color:#494C51"/>
		<stop  offset="2.432314e-02" style="stop-color:#3F4146"/>
		<stop  offset="4.003730e-02" style="stop-color:#3C3E42"/>
		<stop  offset="0.1106" style="stop-color:#393B3F"/>
		<stop  offset="0.1561" style="stop-color:#323337"/>
		<stop  offset="0.1945" style="stop-color:#242528"/>
		<stop  offset="0.2287" style="stop-color:#111213"/>
		<stop  offset="0.2521" style="stop-color:#000000"/>
		<stop  offset="1" style="stop-color:#000000"/>
	</linearGradient>
	<rect x="55.9" y="4" class="st12" width="24.8" height="46.9"/>
</g>
<g>
	<defs>
		<path id="SVGID_25_" d="M70.4,27 M70.4,27L70.4,27c0.3,0,0.5,0.3,0.7,0.7c4,7.6,6.6,12.8,10.4,21.3c0.3,0.7,0.5,1.3,0.5,1.9
			c0,0,0,0,0,0c0,0,0,0,0,0h2.8c0-0.7-0.3-1.4-1-2.8c-3.8-8-7.7-15.9-12.3-24.3L70.4,27z"/>
	</defs>
	<clipPath id="SVGID_26_">
		<use xlink:href="#SVGID_25_"  style="overflow:visible;"/>
	</clipPath>
	
		<linearGradient id="SVGID_27_" gradientUnits="userSpaceOnUse" x1="-314.8347" y1="357.2409" x2="-312.6515" y2="357.2409" gradientTransform="matrix(0 -12.4328 -12.4328 0 4519.0967 -3863.3186)">
		<stop  offset="0" style="stop-color:#8B8E94"/>
		<stop  offset="0.1599" style="stop-color:#86898F"/>
		<stop  offset="0.3468" style="stop-color:#797B81"/>
		<stop  offset="0.5472" style="stop-color:#62646A"/>
		<stop  offset="0.7559" style="stop-color:#434449"/>
		<stop  offset="0.7954" style="stop-color:#3C3E42"/>
		<stop  offset="0.8256" style="stop-color:#383A3E"/>
		<stop  offset="0.8569" style="stop-color:#2D2E31"/>
		<stop  offset="0.8888" style="stop-color:#1A1B1D"/>
		<stop  offset="0.9207" style="stop-color:#000000"/>
		<stop  offset="1" style="stop-color:#000000"/>
	</linearGradient>
	<rect x="70.4" y="23.8" class="st13" width="14.4" height="27.1"/>
</g>
<g>
	<defs>
		<path id="SVGID_28_" d="M56.9,53.8c3.8,8,7.7,15.9,12.3,24.3l1.1-3.2c-0.3,0-0.4-0.3-0.7-0.7c-4-7.6-6.6-12.8-10.4-21.3
			c-0.3-0.7-0.5-1.3-0.5-1.9l-2.9,0C55.9,51.6,56.3,52.3,56.9,53.8"/>
	</defs>
	<clipPath id="SVGID_29_">
		<use xlink:href="#SVGID_28_"  style="overflow:visible;"/>
	</clipPath>
	
		<linearGradient id="SVGID_30_" gradientUnits="userSpaceOnUse" x1="-316.0082" y1="357.8615" x2="-313.8252" y2="357.8615" gradientTransform="matrix(0 -12.4391 -12.4391 0 4514.6245 -3852.7314)">
		<stop  offset="0" style="stop-color:#C6C8CC"/>
		<stop  offset="0.3571" style="stop-color:#C6C8CC"/>
		<stop  offset="0.4936" style="stop-color:#C1C3C8"/>
		<stop  offset="0.6484" style="stop-color:#B4B6BB"/>
		<stop  offset="0.8114" style="stop-color:#9DA0A5"/>
		<stop  offset="0.9631" style="stop-color:#81858B"/>
		<stop  offset="1" style="stop-color:#55585E"/>
	</linearGradient>
	<rect x="55.9" y="50.9" class="st14" width="14.4" height="27.2"/>
</g>
<g>
	<defs>
		<path id="SVGID_31_" d="M56.9,53.8c3.8,8,7.7,15.9,12.3,24.3l1.1-3.2c-0.3,0-0.4-0.3-0.7-0.7c-4-7.6-6.6-12.8-10.4-21.3
			c-0.3-0.7-0.5-1.3-0.5-1.9v0l-2.9,0C55.9,51.6,56.3,52.3,56.9,53.8"/>
	</defs>
	<clipPath id="SVGID_32_">
		<use xlink:href="#SVGID_31_"  style="overflow:visible;"/>
	</clipPath>
	<defs>
		<filter id="Adobe_OpacityMaskFilter_1_" filterUnits="userSpaceOnUse" x="45.7" y="45.5" width="34.8" height="38">
			<feColorMatrix  type="matrix" values="1 0 0 0 0  0 1 0 0 0  0 0 1 0 0  0 0 0 1 0"/>
		</filter>
	</defs>
	<mask maskUnits="userSpaceOnUse" x="45.7" y="45.5" width="34.8" height="38" id="SVGID_33_">
		<g class="st15">
			<g>
				<defs>
					
						<rect id="SVGID_34_" x="47.8" y="52.3" transform="matrix(0.4112 -0.9115 0.9115 0.4112 -21.6095 95.5405)" width="30.7" height="24.3"/>
				</defs>
				<clipPath id="SVGID_35_" class="st16">
					<use xlink:href="#SVGID_34_"  style="overflow:visible;"/>
				</clipPath>
				
					<linearGradient id="SVGID_36_" gradientUnits="userSpaceOnUse" x1="-287.5829" y1="366.0085" x2="-285.3998" y2="366.0085" gradientTransform="matrix(-11.3151 -5.1039 -5.1039 11.3151 -1312.2889 -5539.9736)">
					<stop  offset="0" style="stop-color:#CCCCCC"/>
					<stop  offset="1.320000e-02" style="stop-color:#CCCCCC"/>
					<stop  offset="0.1096" style="stop-color:#000000"/>
					<stop  offset="1" style="stop-color:#000000"/>
				</linearGradient>
				<polygon class="st17" points="74.7,96.5 31.5,77.1 51.6,32.5 94.8,51.9 				"/>
			</g>
		</g>
	</mask>
	
		<linearGradient id="SVGID_37_" gradientUnits="userSpaceOnUse" x1="-287.5822" y1="366.0148" x2="-285.399" y2="366.0148" gradientTransform="matrix(-11.3151 -5.1039 -5.1039 11.3151 -1312.2493 -5540.042)">
		<stop  offset="0" style="stop-color:#F1F2F1"/>
		<stop  offset="1.320000e-02" style="stop-color:#F1F2F1"/>
		<stop  offset="0.1096" style="stop-color:#EEEDEE"/>
		<stop  offset="1" style="stop-color:#EEEDEE"/>
	</linearGradient>
	<polygon class="st18" points="67.9,83.5 45.7,73.5 58.4,45.5 80.6,55.5 	"/>
</g>
<g>
	<defs>
		<path id="SVGID_38_" d="M82,51c0,0.7-0.2,1.2-0.6,1.9C77.7,61.3,75,66.5,71,74.1c-0.2,0.4-0.4,0.7-0.7,0.7l-1.1,3.2
			c-4.1,10.2-9.3,19.8-9.3,19.8c0.3,0,0.7-0.4,1.1-1c0.1-0.2,0.3-0.4,0.5-0.7c2.9-5,17-31,22.3-42.2c0.7-1.4,1-2.2,1-2.9H82L82,51
			C82,51,82,51,82,51"/>
	</defs>
	<clipPath id="SVGID_39_">
		<use xlink:href="#SVGID_38_"  style="overflow:visible;"/>
	</clipPath>
	
		<linearGradient id="SVGID_40_" gradientUnits="userSpaceOnUse" x1="-307.6554" y1="350.1101" x2="-305.4715" y2="350.1101" gradientTransform="matrix(0 -21.4811 -21.4811 0 7593.1299 -6511.2261)">
		<stop  offset="0" style="stop-color:#FFFFFF"/>
		<stop  offset="0.2333" style="stop-color:#F9F9FA"/>
		<stop  offset="0.5474" style="stop-color:#E8E9EA"/>
		<stop  offset="0.9061" style="stop-color:#CCCDD2"/>
		<stop  offset="0.9693" style="stop-color:#C6C8CC"/>
		<stop  offset="0.9913" style="stop-color:#8B8E94"/>
		<stop  offset="1" style="stop-color:#8B8E94"/>
	</linearGradient>
	<rect x="59.9" y="51" class="st19" width="24.9" height="46.9"/>
</g>
<g>
	<defs>
		<path id="SVGID_41_" d="M31.1,50.9c0,0.6,0.1,1.4,0.7,2.6c1.3,2.8,4.9,10,9.6,18.5c5.1,9.3,14.4,24.7,15.4,26.1
			c0.4,0.6,0.8,0.9,1.1,1.2l0.7-1.8c-0.1-0.1-0.2-0.3-0.4-0.5c-0.9-1.2-9.7-15.8-15.3-25.9c-4-7.2-7.9-14.9-9.6-18.4
			c-0.3-0.7-0.5-1.3-0.5-1.8L31.1,50.9z"/>
	</defs>
	<clipPath id="SVGID_42_">
		<use xlink:href="#SVGID_41_"  style="overflow:visible;"/>
	</clipPath>
	
		<linearGradient id="SVGID_43_" gradientUnits="userSpaceOnUse" x1="-307.2916" y1="350.4535" x2="-305.1085" y2="350.4535" gradientTransform="matrix(0 -22.199 -22.199 0 7824.6279 -6722.1616)">
		<stop  offset="0" style="stop-color:#81858B"/>
		<stop  offset="0.1103" style="stop-color:#7D8186"/>
		<stop  offset="0.5565" style="stop-color:#707479"/>
		<stop  offset="0.9698" style="stop-color:#6C6F75"/>
		<stop  offset="0.9884" style="stop-color:#8E9297"/>
		<stop  offset="1" style="stop-color:#9EA2A8"/>
	</linearGradient>
	<rect x="31.1" y="50.9" class="st20" width="27.6" height="48.5"/>
</g>
<g>
	<defs>
		<path id="SVGID_44_" d="M58,99.4c0.5,0.3,1,0.4,1.5,0.4c1.4,0.1,7.4,0.2,10.9,0.2s10-0.1,10.9-0.2c0.4,0,0.8-0.1,1.2-0.3l-0.7-1.7
			c-0.1,0-0.3,0.1-0.6,0.1l-0.1,0c-0.8,0.1-6.1,0.2-10.7,0.2c-3.7,0-7.1-0.1-9.4-0.2c-0.2,0-0.4,0-0.6,0c-0.4,0-0.8,0.1-1,0
			c-0.2-0.1-0.4-0.2-0.6-0.4L58,99.4z"/>
	</defs>
	<clipPath id="SVGID_45_">
		<use xlink:href="#SVGID_44_"  style="overflow:visible;"/>
	</clipPath>
	
		<linearGradient id="SVGID_46_" gradientUnits="userSpaceOnUse" x1="-300.9714" y1="305.062" x2="-298.7883" y2="305.062" gradientTransform="matrix(8.5488 4.9357 4.9357 -8.5488 1128.3213 4186.9663)">
		<stop  offset="0" style="stop-color:#81858B"/>
		<stop  offset="1.931200e-02" style="stop-color:#81858B"/>
		<stop  offset="3.574006e-02" style="stop-color:#6F7277"/>
		<stop  offset="6.042267e-02" style="stop-color:#5A5C61"/>
		<stop  offset="8.396764e-02" style="stop-color:#4D4F54"/>
		<stop  offset="0.105" style="stop-color:#484A4F"/>
		<stop  offset="1" style="stop-color:#484A4F"/>
	</linearGradient>
	<polygon class="st21" points="64.1,87 83.5,98.2 76.4,110.7 56.9,99.4 	"/>
</g>
<g>
	<defs>
		<path id="SVGID_47_" d="M81.8,4c0.2,0.1,0.4,0.4,0.6,0.7c0.9,1.2,9.7,15.8,15.3,25.9c4,7.2,7.9,14.9,9.6,18.4
			c0.3,0.7,0.5,1.2,0.5,1.7l1.8,0.1v0c0-0.5-0.1-1.4-0.7-2.6c-1.4-2.9-5.9-11.7-9.6-18.5C94.3,20.6,85,5.1,83.9,3.6
			c-0.6-0.8-1-1.1-1.4-1.3L81.8,4z"/>
	</defs>
	<clipPath id="SVGID_48_">
		<use xlink:href="#SVGID_47_"  style="overflow:visible;"/>
	</clipPath>
	
		<linearGradient id="SVGID_49_" gradientUnits="userSpaceOnUse" x1="-298.6996" y1="325.9799" x2="-296.5165" y2="325.9799" gradientTransform="matrix(18.9488 10.3742 10.3742 -18.9488 2353.5229 9291.1563)">
		<stop  offset="0" style="stop-color:#787A80"/>
		<stop  offset="1" style="stop-color:#8B8E94"/>
	</linearGradient>
	<polygon class="st22" points="88.2,-9.4 130.1,13.5 103.2,62.7 61.3,39.7 	"/>
</g>
<g>
	<defs>
		<path id="SVGID_50_" d="M59.4,2.1c-0.5,0-0.8,0.1-1.1,0.3L59,4.1C59.1,4,59.3,4,59.6,3.9c0.7-0.1,6.2-0.2,10.8-0.2
			c3.7,0,7.5,0.1,9.3,0.2c0.2,0,0.4,0,0.6,0c0.4,0,0.9-0.1,1.1,0c0.1,0,0.2,0.1,0.3,0.2l0.7-1.7c-0.4-0.2-0.8-0.2-1.3-0.3
			c-1.4-0.1-7.6-0.2-10.8-0.2C67.5,1.8,60.9,1.9,59.4,2.1"/>
	</defs>
	<clipPath id="SVGID_51_">
		<use xlink:href="#SVGID_50_"  style="overflow:visible;"/>
	</clipPath>
	
		<linearGradient id="SVGID_52_" gradientUnits="userSpaceOnUse" x1="-281.6471" y1="365.4981" x2="-279.464" y2="365.4981" gradientTransform="matrix(-10.2641 -2.9432 -2.9432 10.2641 -1733.7158 -4574.3203)">
		<stop  offset="0" style="stop-color:#787A80"/>
		<stop  offset="9.552040e-03" style="stop-color:#787A80"/>
		<stop  offset="1.931424e-02" style="stop-color:#86888E"/>
		<stop  offset="3.979472e-02" style="stop-color:#9EA1A7"/>
		<stop  offset="5.852592e-02" style="stop-color:#ACB0B6"/>
		<stop  offset="7.376030e-02" style="stop-color:#B1B5BB"/>
		<stop  offset="0.5011" style="stop-color:#C4C8CB"/>
		<stop  offset="1" style="stop-color:#C6C8CC"/>
	</linearGradient>
	<polygon class="st23" points="80.7,10.5 57.6,3.9 60.1,-4.6 83.1,2 	"/>
</g>
<g>
	<defs>
		<path id="SVGID_53_" d="M56.8,3.7c-1.1,1.4-10.4,17.1-15.3,26.1c-3.5,6.3-9.1,17.3-9.6,18.5c-0.5,1.2-0.7,2-0.7,2.6l1.8,0
			c0-0.3,0.1-0.9,0.5-1.8c1.7-3.5,5.6-11.2,9.6-18.4C48.6,20.5,57.5,6,58.3,4.7c0.3-0.4,0.5-0.5,0.7-0.6l-0.7-1.8
			C57.7,2.6,57.3,3,56.8,3.7"/>
	</defs>
	<clipPath id="SVGID_54_">
		<use xlink:href="#SVGID_53_"  style="overflow:visible;"/>
	</clipPath>
	
		<linearGradient id="SVGID_55_" gradientUnits="userSpaceOnUse" x1="-310.9054" y1="333.1144" x2="-308.7223" y2="333.1144" gradientTransform="matrix(18.3038 -7.0262 -7.0262 -18.3038 8056.0483 3947.1975)">
		<stop  offset="0" style="stop-color:#9EA2A8"/>
		<stop  offset="0.9868" style="stop-color:#8B8E94"/>
		<stop  offset="1" style="stop-color:#C6C8CC"/>
	</linearGradient>
	<polygon class="st24" points="14.8,8.6 55.4,-7 75.2,44.7 34.7,60.3 	"/>
</g>
<g>
	<defs>
		<path id="SVGID_56_" d="M81.8,97.8C81.8,97.8,81.8,97.8,81.8,97.8C81.8,97.8,81.8,97.8,81.8,97.8 M107.3,52.8
			c-1.7,3.5-5.6,11.2-9.6,18.4c-5.6,10.2-14.3,24.6-15.2,25.9c-0.4,0.5-0.5,0.7-0.7,0.7l0.7,1.7c0.4-0.2,0.9-0.6,1.4-1.3
			c1-1.4,11-18.1,15.4-26.1c4.4-8.1,9.1-17.4,9.6-18.5c0.6-1.4,0.7-2.1,0.7-2.6l-1.8-0.1C107.8,51.1,107.7,51.9,107.3,52.8"/>
	</defs>
	<clipPath id="SVGID_57_">
		<use xlink:href="#SVGID_56_"  style="overflow:visible;"/>
	</clipPath>
	
		<linearGradient id="SVGID_58_" gradientUnits="userSpaceOnUse" x1="-307.228" y1="349.1631" x2="-305.0449" y2="349.1631" gradientTransform="matrix(0 -22.3212 -22.3212 0 7889.4409 -6758.1426)">
		<stop  offset="0" style="stop-color:#484A4F"/>
		<stop  offset="1.902380e-02" style="stop-color:#484A4F"/>
		<stop  offset="0.2319" style="stop-color:#525559"/>
		<stop  offset="0.5993" style="stop-color:#5E6165"/>
		<stop  offset="0.9698" style="stop-color:#616569"/>
		<stop  offset="0.986" style="stop-color:#7A7D83"/>
		<stop  offset="1" style="stop-color:#8B8E94"/>
	</linearGradient>
	<rect x="81.8" y="50.8" class="st25" width="27.9" height="48.7"/>
</g>
<path class="st26" d="M80.4,3.9c0,0,0.1,0,0.1,0c0,0-0.5,0.4-1.7,0.4c-1.4,0-4.4-0.1-6.7-0.1c-4.4,0-9.5,0.1-12,0.2
	c-1.3,0.1-1.4,0.2-2.2,1.1v0l0.4-0.6c0.3-0.4,0.5-0.5,0.7-0.6C59.1,4,59.3,4,59.6,3.9c0.7-0.1,6.2-0.2,10.8-0.2
	c3.7,0,7.5,0.1,9.3,0.2C79.9,3.9,80.2,3.9,80.4,3.9"/>
<g>
	<defs>
		<path id="SVGID_59_" d="M70.6,28.1c0.3,0.7,3.1,5.9,5.6,11.1c2.4,4.9,4.4,9.5,4.7,10c0.3,0.7,0.5,1.2,0.5,1.7c0,0.5-0.2,1-0.5,1.7
			l0,0c0,0-2.2,4.9-4.7,10.1c-2.2,4.6-4.7,9.3-5.6,11.1l0,0.1c-0.1,0.2-0.2,0.3-0.2,0.3c0,0-0.1-0.1-0.2-0.3c0,0-0.1-0.1-0.1-0.3
			c-2.6-5.1-4.5-8.7-5.5-10.9c-2.4-4.9-4.5-9.7-4.7-10.1l0-0.1c-0.3-0.6-0.5-1.1-0.5-1.7c0-0.5,0.2-1.1,0.5-1.7c0,0,0.1-0.1,0.1-0.3
			c1.5-3.4,3-6.7,4.5-9.7c2.2-4.4,4.6-9.1,5.4-10.7c-7.5,4.8-12.4,13.2-12.4,22.8c0,15,12.1,27.1,27,27.1c4.8,0,9.3-1.3,13.2-3.5
			c0.6-1,1.1-2,1.6-2.9c4.3-7.9,9.1-17.3,9.6-18.5c0.6-1.4,0.7-2.1,0.7-2.6c0-0.5-0.1-1.4-0.7-2.6c-1.4-3-5.9-11.7-9.6-18.5
			c-0.3-0.5-0.6-1.1-0.9-1.6c-4.1-2.5-8.8-3.9-13.9-3.9C79.4,24.2,74.7,25.7,70.6,28.1"/>
	</defs>
	<clipPath id="SVGID_60_">
		<use xlink:href="#SVGID_59_"  style="overflow:visible;"/>
	</clipPath>
	<defs>
		<filter id="Adobe_OpacityMaskFilter_2_" filterUnits="userSpaceOnUse" x="57.6" y="24.3" width="54.2" height="54.2">
			<feColorMatrix  type="matrix" values="1 0 0 0 0  0 1 0 0 0  0 0 1 0 0  0 0 0 1 0"/>
		</filter>
	</defs>
	<mask maskUnits="userSpaceOnUse" x="57.6" y="24.3" width="54.2" height="54.2" id="SVGID_61_">
		<g class="st27">
			<rect x="57.6" y="24.3" class="st28" width="54.2" height="54.2"/>
			<g class="st3">
				<g>
					<defs>
						<path id="SVGID_62_" d="M76.7,51.4c0,4.5,3.6,8.1,8.1,8.1c4.5,0,8.1-3.6,8.1-8.1s-3.6-8.1-8.1-8.1
							C80.3,43.3,76.7,46.9,76.7,51.4"/>
					</defs>
					<clipPath id="SVGID_63_" class="st28">
						<use xlink:href="#SVGID_62_"  style="overflow:visible;"/>
					</clipPath>
					
						<radialGradient id="SVGID_64_" cx="-351.8952" cy="273.2785" r="2.183" gradientTransform="matrix(3.7022 0 0 -3.7022 1387.5642 1063.0913)" gradientUnits="userSpaceOnUse">
						<stop  offset="0" style="stop-color:#FFFFFF"/>
						<stop  offset="0.1664" style="stop-color:#FFFFFF"/>
						<stop  offset="0.2692" style="stop-color:#C4C4C4"/>
						<stop  offset="0.3721" style="stop-color:#909090"/>
						<stop  offset="0.4764" style="stop-color:#646464"/>
						<stop  offset="0.5807" style="stop-color:#404040"/>
						<stop  offset="0.685" style="stop-color:#242424"/>
						<stop  offset="0.7895" style="stop-color:#101010"/>
						<stop  offset="0.8943" style="stop-color:#040404"/>
						<stop  offset="1" style="stop-color:#000000"/>
					</radialGradient>
					<rect x="76.7" y="43.3" class="st29" width="16.2" height="16.2"/>
				</g>
			</g>
		</g>
	</mask>
	<g class="st30">
		<g>
			<defs>
				<rect id="SVGID_65_" x="57.6" y="24.3" width="54.2" height="54.2"/>
			</defs>
			<clipPath id="SVGID_66_">
				<use xlink:href="#SVGID_65_"  style="overflow:visible;"/>
			</clipPath>
			<g class="st31">
				<defs>
					<path id="SVGID_67_" d="M57.6,51.4c0,15,12.1,27.1,27.1,27.1c15,0,27.1-12.1,27.1-27.1c0-15-12.1-27.1-27.1-27.1
						C69.7,24.3,57.6,36.4,57.6,51.4"/>
				</defs>
				<clipPath id="SVGID_68_">
					<use xlink:href="#SVGID_67_"  style="overflow:visible;"/>
				</clipPath>
				<defs>
					<filter id="Adobe_OpacityMaskFilter_3_" filterUnits="userSpaceOnUse" x="57.6" y="24.3" width="54.2" height="54.2">
						<feColorMatrix  type="matrix" values="1 0 0 0 0  0 1 0 0 0  0 0 1 0 0  0 0 0 1 0"/>
					</filter>
				</defs>
				<mask maskUnits="userSpaceOnUse" x="57.6" y="24.3" width="54.2" height="54.2" id="SVGID_61_">
					<g class="st32">
						
							<radialGradient id="SVGID_69_" cx="-311.9828" cy="320.0897" r="2.1831" gradientTransform="matrix(12.4165 0 0 -12.4165 3958.4275 4025.7544)" gradientUnits="userSpaceOnUse">
							<stop  offset="0" style="stop-color:#FFFFFF"/>
							<stop  offset="0.194" style="stop-color:#A2A2A2"/>
							<stop  offset="0.3881" style="stop-color:#4B4B4B"/>
							<stop  offset="0.524" style="stop-color:#151515"/>
							<stop  offset="0.5897" style="stop-color:#000000"/>
							<stop  offset="1" style="stop-color:#000000"/>
						</radialGradient>
						<rect x="57.6" y="24.3" class="st33" width="54.2" height="54.2"/>
					</g>
				</mask>
				
					<radialGradient id="SVGID_70_" cx="-311.9535" cy="320.1218" r="2.1831" gradientTransform="matrix(12.4165 0 0 -12.4165 3958.0618 4026.1509)" gradientUnits="userSpaceOnUse">
					<stop  offset="0" style="stop-color:#FFFFFF"/>
					<stop  offset="0.5897" style="stop-color:#FFFFFF"/>
					<stop  offset="1" style="stop-color:#FFFFFF"/>
				</radialGradient>
				<rect x="57.6" y="24.3" class="st34" width="54.2" height="54.2"/>
			</g>
		</g>
	</g>
</g>
<path d="M81.4,49c-0.2-0.3-2.3-5.1-4.7-10c-2.6-5.4-5.6-11-5.7-11.2c-0.2-0.4-0.4-0.7-0.7-0.7c-0.3,0-0.4,0.3-0.7,0.7
	c-0.1,0.2-3.1,6-5.7,11.2c-2.6,5.2-4.5,9.8-4.7,10c-0.3,0.6-0.5,1.2-0.5,1.9c0,0.7,0.2,1.2,0.5,1.9c0.1,0.3,2.3,5.1,4.7,10.1
	c2.6,5.4,5.6,11,5.7,11.2c0.2,0.4,0.4,0.7,0.7,0.7c0.3,0,0.4-0.3,0.7-0.7c0.1-0.2,3-5.8,5.7-11.2c2.4-4.9,4.5-9.7,4.7-10.1
	c0.3-0.7,0.5-1.2,0.5-1.9C82,50.3,81.7,49.8,81.4,49 M80.9,52.6L80.9,52.6c0,0.1-2.2,5-4.7,10.1c-2.2,4.6-4.7,9.3-5.6,11.1l0,0.1
	c-0.1,0.2-0.2,0.3-0.2,0.3c0,0-0.1-0.1-0.2-0.3c0,0-0.1-0.1-0.1-0.3c-2.6-5.1-4.5-8.7-5.5-10.9c-2.4-4.9-4.5-9.7-4.7-10.1l0,0
	c-0.3-0.6-0.5-1.1-0.5-1.7c0-0.5,0.2-1.1,0.5-1.7c0,0,0.1-0.1,0.1-0.3c1.5-3.4,3-6.7,4.5-9.7c2.6-5.3,5.7-11.1,5.7-11.2
	c0.1-0.2,0.2-0.3,0.2-0.3c0.1,0,0.1,0.2,0.2,0.3c0,0,3,5.7,5.7,11.2c2.4,4.9,4.4,9.5,4.7,10c0.3,0.7,0.5,1.2,0.5,1.7
	C81.4,51.5,81.3,51.9,80.9,52.6"/>
<path d="M109,48.3c-1.4-3-5.9-11.7-9.6-18.5C94.2,20.4,85,5,83.9,3.6c-1-1.4-1.6-1.4-2.6-1.5l-0.1,0c-1.4-0.2-7.3-0.2-10.8-0.2
	c-3,0-9.5,0.1-11,0.2c-1.4,0.1-1.8,0.6-2.6,1.6C55.7,5.1,46.3,21,41.4,29.8c-3.5,6.4-9.1,17.3-9.6,18.5c-0.5,1.1-0.7,1.9-0.7,2.6
	c0,0.8,0.2,1.6,0.7,2.6c1.2,2.5,4.7,9.6,9.6,18.5c5.1,9.3,14.4,24.8,15.4,26.1c1,1.4,1.7,1.5,2.7,1.6c1.4,0.1,7.6,0.2,10.9,0.2
	c3.6,0,10-0.1,10.9-0.2c0.9-0.1,1.6-0.1,2.7-1.6c0.9-1.3,10.9-17.9,15.4-26.1c4.3-7.9,9.1-17.3,9.6-18.5c0.6-1.4,0.7-2.1,0.7-2.6
	C109.7,50.5,109.6,49.5,109,48.3 M108.5,53.4c-0.5,1.2-5.3,10.6-9.6,18.5C94.4,80,84.4,96.7,83.5,97.9c-0.9,1.2-1.4,1.3-2.3,1.3
	c-0.9,0.1-7.3,0.2-10.8,0.2c-3.3,0-9.4-0.1-10.8-0.2c-0.9-0.1-1.4-0.1-2.3-1.3c-1-1.3-10.2-16.8-15.4-26.1c-4.9-9-8.4-16-9.6-18.5
	c-0.4-0.9-0.6-1.7-0.6-2.4c0-0.7,0.2-1.4,0.6-2.4c0.5-1.2,6.1-12.1,9.6-18.5c4.9-8.8,14.2-24.6,15.3-26c0.8-1,1-1.3,2.2-1.4
	c1.5-0.1,7.9-0.2,11-0.2c3.5,0,9.4,0.1,10.8,0.2l0.1,0c0.9,0.1,1.3,0.1,2.2,1.3c1,1.4,10.2,16.7,15.4,26.1
	c3.8,6.8,8.2,15.5,9.6,18.5c0.6,1.2,0.6,2,0.6,2.4C109.1,51.5,109,52.1,108.5,53.4"/>
</svg>
