<?xml version="1.0" encoding="utf-8"?>
<!-- Generator: Adobe Illustrator 24.1.1, SVG Export Plug-In . SVG Version: 6.00 Build 0)  -->
<svg version="1.1" id="Layer_1" xmlns="http://www.w3.org/2000/svg" xmlns:xlink="http://www.w3.org/1999/xlink" x="0px" y="0px"
	 viewBox="0 0 144 101" style="enable-background:new 0 0 144 101;" xml:space="preserve">
<style type="text/css">
	.st0{fill-rule:evenodd;clip-rule:evenodd;fill:#231F20;}
</style>
<g>
	<polygon class="st0" points="14.2,48.5 10,48.5 10,42.8 1.4,42.8 1.4,57.9 10,57.9 10,52 14.2,52 14.2,57.9 22.8,57.9 22.8,42.8 
		14.2,42.8 14.2,48.5 	"/>
	<path class="st0" d="M37,52.9c0,1-0.6,2.2-2.2,2.2c-1.5,0-2.2-1.2-2.2-2.2V42.8h-8.6V53c0,1.5,1.3,4.9,6.3,4.9h9
		c4.9,0,6.3-3.3,6.3-4.9V42.8H37V52.9L37,52.9z"/>
	<polygon class="st0" points="60,48.9 56.6,42.8 46.7,42.8 46.7,57.9 54.7,57.9 54.7,51.4 58.2,57.9 61.8,57.9 65.4,51.4 65.4,57.9 
		73.3,57.9 73.3,42.8 63.4,42.8 60,48.9 	"/>
	<polygon class="st0" points="87.7,48.9 84.3,42.8 74.4,42.8 74.4,57.9 82.3,57.9 82.3,51.4 85.9,57.9 89.5,57.9 93,51.4 93,57.9 
		101,57.9 101,42.8 91.1,42.8 87.7,48.9 	"/>
	<polygon class="st0" points="101.9,57.9 118.8,57.9 118.8,53.7 110.8,53.7 110.8,52 118.8,52 118.8,48.5 110.8,48.5 110.8,46.9 
		118.8,46.9 118.8,42.8 101.9,42.8 101.9,57.9 	"/>
	<path class="st0" d="M141.6,47.8c0-1.9-1.2-5-4.5-5h-17.2v15.1h8.6v-4.4l3.7,4.4h10.6l-4.5-5.4C140.1,52.6,141.6,49.7,141.6,47.8
		L141.6,47.8z M130.9,49.7h-2.4v-3.4h2.6C133.3,46.3,133.1,49.7,130.9,49.7L130.9,49.7z"/>
</g>
</svg>
