<?xml version="1.0" encoding="utf-8"?>
<!-- Generator: Adobe Illustrator 24.0.2, SVG Export Plug-In . SVG Version: 6.00 Build 0)  -->
<svg version="1.1" id="Layer_1" xmlns="http://www.w3.org/2000/svg" xmlns:xlink="http://www.w3.org/1999/xlink" x="0px" y="0px"
	 viewBox="0 0 144 101" style="enable-background:new 0 0 144 101;" xml:space="preserve">
<style type="text/css">
	.st0{display:none;}
	.st1{fill:url(#SVGID_1_);}
	.st2{fill:url(#SVGID_2_);}
	.st3{fill:url(#SVGID_3_);}
	.st4{fill:url(#SVGID_4_);}
	.st5{fill:url(#SVGID_5_);}
	.st6{fill:url(#SVGID_6_);}
	.st7{fill:url(#SVGID_7_);}
	.st8{fill:url(#SVGID_8_);}
</style>
<g id="Layer_1_1_" class="st0">
</g>
<path d="M67.5,27.7c14,0,47.8,29,52.1,32.7c0.3,0.3,0.7,0.6,1.4,0.5c1.1-0.1,1.1-1.7,1.1-1.7s0.3-3.7,0.3-7.4c0-4.7-3.7-8.8-3.7-8.8
	S80.8,1.3,67.5,1.3C54.3,1.3,16.4,43,16.4,43s-3.7,4.1-3.7,8.8c0,3.7,0.3,7.4,0.3,7.4s0,1.6,1.1,1.7c0.7,0.1,1.1-0.2,1.4-0.5
	C19.7,56.8,53.5,27.7,67.5,27.7z"/>
<path d="M67.5,66.2c14,0,47.8,29,52.1,32.7c0.3,0.3,0.7,0.6,1.4,0.5c1.1-0.1,1.1-1.7,1.1-1.7s0.3-3.7,0.3-7.4c0-4.7-3.7-8.8-3.7-8.8
	S80.8,39.7,67.5,39.7c-13.3,0-51.2,41.7-51.2,41.7s-3.7,4.1-3.7,8.8c0,3.7,0.3,7.4,0.3,7.4s0,1.6,1.1,1.7c0.7,0.1,1.1-0.2,1.4-0.5
	C19.7,95.2,53.5,66.2,67.5,66.2z"/>
<linearGradient id="SVGID_1_" gradientUnits="userSpaceOnUse" x1="13.4176" y1="42.5534" x2="121.3124" y2="42.5534">
	<stop  offset="0" style="stop-color:#B1ACB1"/>
	<stop  offset="9.169590e-02" style="stop-color:#AAA5AA"/>
	<stop  offset="0.2398" style="stop-color:#979297"/>
	<stop  offset="0.4249" style="stop-color:#7A747A"/>
	<stop  offset="0.5" style="stop-color:#6D666C"/>
	<stop  offset="0.6599" style="stop-color:#958F95"/>
	<stop  offset="0.8123" style="stop-color:#B7B3B8"/>
	<stop  offset="0.9305" style="stop-color:#CECACE"/>
	<stop  offset="1" style="stop-color:#D6D3D6"/>
</linearGradient>
<path class="st1" d="M29.1,36.7C21.4,43.1,15.5,49,13.4,51.1c-0.1,2.5,0.2,8.1,0.2,8.1c0,0,0,2,1.5,0.7l1.4-1.3
	c15.3-14,31-26.2,43.6-31.7c0.9-0.4,2.4-0.6,1.6-1.6c-0.4-0.5-1.9-0.6-2.9-0.5C45.8,25.6,29.7,36.3,29.1,36.7L29.1,36.7L29.1,36.7z"
	/>
<linearGradient id="SVGID_2_" gradientUnits="userSpaceOnUse" x1="13.3703" y1="42.5534" x2="121.2657" y2="42.5534">
	<stop  offset="0" style="stop-color:#B1ACB1"/>
	<stop  offset="9.169590e-02" style="stop-color:#AAA5AA"/>
	<stop  offset="0.2398" style="stop-color:#979297"/>
	<stop  offset="0.4249" style="stop-color:#7A747A"/>
	<stop  offset="0.5" style="stop-color:#6D666C"/>
	<stop  offset="0.6599" style="stop-color:#958F95"/>
	<stop  offset="0.8123" style="stop-color:#B7B3B8"/>
	<stop  offset="0.9305" style="stop-color:#CECACE"/>
	<stop  offset="1" style="stop-color:#D6D3D6"/>
</linearGradient>
<path class="st2" d="M106,36.7c7.7,6.3,13.6,12.3,15.6,14.4c0.1,2.5-0.2,8.1-0.2,8.1c0,0,0,2-1.5,0.7l-1.4-1.3
	c-15.3-14-31-26.2-43.6-31.7c-0.9-0.4-2.4-0.6-1.6-1.6c0.4-0.5,1.9-0.6,2.9-0.5C89.3,25.6,105.4,36.3,106,36.7L106,36.7L106,36.7z"
	/>
<linearGradient id="SVGID_3_" gradientUnits="userSpaceOnUse" x1="13.4176" y1="80.9672" x2="121.3124" y2="80.9672">
	<stop  offset="0" style="stop-color:#B1ACB1"/>
	<stop  offset="9.169590e-02" style="stop-color:#AAA5AA"/>
	<stop  offset="0.2398" style="stop-color:#979297"/>
	<stop  offset="0.4249" style="stop-color:#7A747A"/>
	<stop  offset="0.5" style="stop-color:#6D666C"/>
	<stop  offset="0.6599" style="stop-color:#958F95"/>
	<stop  offset="0.8123" style="stop-color:#B7B3B8"/>
	<stop  offset="0.9305" style="stop-color:#CECACE"/>
	<stop  offset="1" style="stop-color:#D6D3D6"/>
</linearGradient>
<path class="st3" d="M29.1,75.1c-7.7,6.3-13.6,12.3-15.6,14.4c-0.1,2.5,0.2,8.1,0.2,8.1c0,0,0,2,1.5,0.7l1.4-1.3
	c15.3-14,31-26.2,43.6-31.7c0.9-0.4,2.4-0.6,1.6-1.6c-0.4-0.5-1.9-0.6-2.9-0.5C45.8,64,29.7,74.7,29.1,75.1
	C29.1,75.1,29.1,75.1,29.1,75.1L29.1,75.1z"/>
<linearGradient id="SVGID_4_" gradientUnits="userSpaceOnUse" x1="13.3703" y1="80.9672" x2="121.2657" y2="80.9672">
	<stop  offset="0" style="stop-color:#B1ACB1"/>
	<stop  offset="9.169590e-02" style="stop-color:#AAA5AA"/>
	<stop  offset="0.2398" style="stop-color:#979297"/>
	<stop  offset="0.4249" style="stop-color:#7A747A"/>
	<stop  offset="0.5" style="stop-color:#6D666C"/>
	<stop  offset="0.6599" style="stop-color:#958F95"/>
	<stop  offset="0.8123" style="stop-color:#B7B3B8"/>
	<stop  offset="0.9305" style="stop-color:#CECACE"/>
	<stop  offset="1" style="stop-color:#D6D3D6"/>
</linearGradient>
<path class="st4" d="M106,75.1c7.7,6.3,13.6,12.3,15.6,14.4c0.1,2.5-0.2,8.1-0.2,8.1c0,0,0,2-1.5,0.7l-1.4-1.3
	c-15.3-14-31-26.2-43.6-31.7c-0.9-0.4-2.4-0.6-1.6-1.6c0.4-0.5,1.9-0.6,2.9-0.5C89.3,64,105.4,74.7,106,75.1
	C106,75.1,106,75.1,106,75.1L106,75.1z"/>
<linearGradient id="SVGID_5_" gradientUnits="userSpaceOnUse" x1="13.4413" y1="26.5323" x2="121.0109" y2="26.5323">
	<stop  offset="0" style="stop-color:#6D666C"/>
	<stop  offset="2.943045e-02" style="stop-color:#7B757B"/>
	<stop  offset="0.1133" style="stop-color:#9F9AA0"/>
	<stop  offset="0.1967" style="stop-color:#C0BCC0"/>
	<stop  offset="0.2781" style="stop-color:#DAD7DA"/>
	<stop  offset="0.357" style="stop-color:#EDEBEC"/>
	<stop  offset="0.4323" style="stop-color:#F9F8F9"/>
	<stop  offset="0.5" style="stop-color:#FFFFFF"/>
	<stop  offset="0.5637" style="stop-color:#F8F7F8"/>
	<stop  offset="0.6396" style="stop-color:#EBE9EB"/>
	<stop  offset="0.7217" style="stop-color:#D7D4D7"/>
	<stop  offset="0.8083" style="stop-color:#BBB7BB"/>
	<stop  offset="0.8984" style="stop-color:#989399"/>
	<stop  offset="0.9902" style="stop-color:#716B71"/>
	<stop  offset="1" style="stop-color:#6D666C"/>
</linearGradient>
<path class="st5" d="M118.2,43.5C117.7,43,80.3,2,67.5,2S17.3,43,16.9,43.5c0,0-3.1,3.5-3.4,7.6c2-2.1,8-8,15.6-14.4
	c0,0,2.3-1.9,5.8-4.6c7.7-5.8,21.3-14.9,32.7-14.9c11.4,0,25,9.1,32.7,14.9c3.5,2.6,5.8,4.6,5.8,4.6c7.7,6.3,13.6,12.3,15.6,14.4
	C121.3,47,118.2,43.6,118.2,43.5z"/>
<linearGradient id="SVGID_6_" gradientUnits="userSpaceOnUse" x1="13.4413" y1="64.9462" x2="121.0109" y2="64.9462">
	<stop  offset="0" style="stop-color:#6D666C"/>
	<stop  offset="2.943045e-02" style="stop-color:#7B757B"/>
	<stop  offset="0.1133" style="stop-color:#9F9AA0"/>
	<stop  offset="0.1967" style="stop-color:#C0BCC0"/>
	<stop  offset="0.2781" style="stop-color:#DAD7DA"/>
	<stop  offset="0.357" style="stop-color:#EDEBEC"/>
	<stop  offset="0.4323" style="stop-color:#F9F8F9"/>
	<stop  offset="0.5" style="stop-color:#FFFFFF"/>
	<stop  offset="0.5637" style="stop-color:#F8F7F8"/>
	<stop  offset="0.6396" style="stop-color:#EBE9EB"/>
	<stop  offset="0.7217" style="stop-color:#D7D4D7"/>
	<stop  offset="0.8083" style="stop-color:#BBB7BB"/>
	<stop  offset="0.8984" style="stop-color:#989399"/>
	<stop  offset="0.9902" style="stop-color:#716B71"/>
	<stop  offset="1" style="stop-color:#6D666C"/>
</linearGradient>
<path class="st6" d="M118.2,81.9c-0.5-0.5-37.9-41.5-50.7-41.5s-50.2,41-50.7,41.5c0,0-3.1,3.5-3.4,7.6c2-2.1,8-8,15.6-14.4
	c0,0,2.3-1.9,5.8-4.6c7.7-5.8,21.3-14.9,32.7-14.9c11.4,0,25,9.1,32.7,14.9c3.5,2.6,5.8,4.6,5.8,4.6c7.7,6.3,13.6,12.3,15.6,14.4
	C121.3,85.4,118.2,82,118.2,81.9z"/>
<linearGradient id="SVGID_7_" gradientUnits="userSpaceOnUse" x1="67.7818" y1="25.687" x2="118.6499" y2="24.657">
	<stop  offset="0" style="stop-color:#ECEAEC"/>
	<stop  offset="3.034146e-02" style="stop-color:#D6D2D6"/>
	<stop  offset="8.971556e-02" style="stop-color:#AEAAAF"/>
	<stop  offset="0.1463" style="stop-color:#918C91"/>
	<stop  offset="0.1986" style="stop-color:#7D777D"/>
	<stop  offset="0.2451" style="stop-color:#716B70"/>
	<stop  offset="0.2809" style="stop-color:#6D666C"/>
	<stop  offset="0.3715" style="stop-color:#736D72"/>
	<stop  offset="0.5111" style="stop-color:#837D83"/>
	<stop  offset="0.5899" style="stop-color:#8E898E"/>
	<stop  offset="1" style="stop-color:#6D666C"/>
</linearGradient>
<path class="st7" d="M118.8,46.1C97.8,22,74.9,3.5,68.3,3.2c-0.9,0-1,0.9-1,0.9c0,7.9,0.5,9.3,5.9,11.4c0.7,0.3,21.2,6.4,45.5,31.3
	l0.4,0.4L118.8,46.1z"/>
<linearGradient id="SVGID_8_" gradientUnits="userSpaceOnUse" x1="67.7818" y1="64.1008" x2="118.6499" y2="63.0708">
	<stop  offset="0" style="stop-color:#ECEAEC"/>
	<stop  offset="3.034146e-02" style="stop-color:#D6D2D6"/>
	<stop  offset="8.971556e-02" style="stop-color:#AEAAAF"/>
	<stop  offset="0.1463" style="stop-color:#918C91"/>
	<stop  offset="0.1986" style="stop-color:#7D777D"/>
	<stop  offset="0.2451" style="stop-color:#716B70"/>
	<stop  offset="0.2809" style="stop-color:#6D666C"/>
	<stop  offset="0.3715" style="stop-color:#736D72"/>
	<stop  offset="0.5111" style="stop-color:#837D83"/>
	<stop  offset="0.5899" style="stop-color:#8E898E"/>
	<stop  offset="1" style="stop-color:#6D666C"/>
</linearGradient>
<path class="st8" d="M118.8,84.5C97.8,60.5,74.9,42,68.3,41.6c-0.9,0-1,0.9-1,0.9c0,7.9,0.5,9.3,5.9,11.4
	c0.7,0.3,21.2,6.4,45.5,31.3l0.4,0.4L118.8,84.5z"/>
</svg>
