<?xml version="1.0" encoding="utf-8"?>
<!-- Generator: Adobe Illustrator 24.0.2, SVG Export Plug-In . SVG Version: 6.00 Build 0)  -->
<svg version="1.1" id="Layer_1" xmlns="http://www.w3.org/2000/svg" xmlns:xlink="http://www.w3.org/1999/xlink" x="0px" y="0px"
	 viewBox="0 0 144 101" style="enable-background:new 0 0 144 101;" xml:space="preserve">
<style type="text/css">
	.st0{fill-rule:evenodd;clip-rule:evenodd;fill:#231F20;}
	.st1{fill-rule:evenodd;clip-rule:evenodd;fill:#BCBDBF;}
	.st2{fill-rule:evenodd;clip-rule:evenodd;fill:#F5CE65;}
	.st3{fill-rule:evenodd;clip-rule:evenodd;fill:#A7002C;}
	.st4{fill-rule:evenodd;clip-rule:evenodd;fill:#FFFFFF;}
</style>
<g id="Layer_1_1_">
</g>
<path class="st0" d="M92.7,16.4c0.3,0.1,0.4,0.2,0.5,0.5c0.1,6.5,0,18.8-0.2,25.2c-0.5,6.6-3.3,12.4-7.3,17.2
	c-3,3.6-9.9,8.1-13.3,8.9c-5.5-0.8-10.8-4.4-14.7-9c-4-4.7-6.6-10.5-6.9-15.3c-0.5-8.8-0.5-17.5-0.5-26.3c0-0.1,0.1-0.3,0.2-0.3
	c2.3-1.1,5.4-2.1,8.8-2.8c4.4-0.9,9-1.4,12.8-1.3c3.5,0.1,7.4,0.3,11.1,0.9C86.6,14.6,89.8,15.4,92.7,16.4"/>
<path class="st1" d="M92.2,17.2c0.1,0,0,0.1,0.1,0.2l0,6.3c0,0.2-0.2,0.1-0.3,0.1c-1.9-0.8-5.8-2.1-10.3-2.9c-3-0.6-6.3-0.9-9.4-0.7
	c-0.2,0-0.2,0.1-0.2,0.3l0,4.4c0,0.1,0.1,0.1,0.2,0.1h19.9v0.5h-20c-0.1,0-0.2,0.1-0.2,0.2v5c0,0.2,0.2,0.3,0.3,0.1l0.3-0.4
	c0.1,0.1,0.3,0.2,0.4,0.1c0.1-0.1,0.3-0.2,0.2-0.4c-0.1-0.1-0.3-0.2-0.4-0.1c-0.1,0-0.1,0.1-0.2,0.1c0-0.2-0.1-0.4,0.1-0.6
	c0,0.2,0.2,0.4,0.4,0.4c0.1,0,0.3-0.2,0.4-0.3c0.1-0.1-0.1-0.3-0.1-0.4c0.1,0,0.3-0.1,0.4-0.3c0.1-0.1-0.1-0.3-0.3-0.4
	c-0.1-0.1-0.3,0.1-0.4,0.2c-0.1,0.2,0,0.4,0.1,0.4c-0.1,0-0.2,0.1-0.3,0.1c0-0.1-0.2-0.2-0.3-0.4c0.1,0.1,0.3-0.1,0.4-0.2
	c0-0.1,0.1-0.1,0-0.2l-0.1-0.1c0.1-0.1,0.3-0.1,0.4-0.4c0.1-0.1-0.1-0.3-0.2-0.4c-0.1-0.1-0.2,0-0.3,0.1c-0.1,0.1-0.1,0.1-0.1,0.1
	c0-0.1,0-0.2,0-0.3c0.1-0.3,0.3-0.5,0-0.8c0-0.2,0.1-0.3,0.4-0.3c0.1,0,0.1,0.4,0.3,0.4c0.2,0,0.3-0.1,0.4-0.3c0.1-0.1,0-0.2,0-0.4
	c0.1,0.1,0.4-0.1,0.5,0.1c-0.1,0.1-0.1,0.1-0.2,0.1c-0.1,0.1-0.2,0.2-0.1,0.4c0.1,0.1,0.3,0.2,0.4,0.1c0.1-0.1,0.3-0.2,0.2-0.4
	l-0.1-0.1c0.1,0,0.3-0.2,0.4-0.2c0,0.1,0.1,0.3,0.3,0.4c0.2,0.1,0.3-0.1,0.4-0.2c0.1-0.1,0.1-0.1,0.1-0.1c0.1,0.1-0.1,0.2,0,0.4
	c0.1,0.1,0.2,0.4,0.4,0.2c0.1,0,0.1-0.1,0.1-0.1c0,0.2,0.1,0.3,0.3,0.4c0.1,0.1,0.3-0.1,0.4-0.2c0.1-0.1-0.1-0.3-0.2-0.4
	c-0.1-0.1-0.4,0.1-0.4,0.1c0-0.1-0.1-0.1-0.1-0.3c0.3-0.1,0.6,0.2,0.9,0c0.1,0,0.1,0.1,0.1,0.2l0.1,0.1c-0.1,0.1-0.3,0.2-0.4,0.4
	c0,0.1,0.1,0.3,0.2,0.4c0.2,0.1,0.4-0.1,0.4-0.3c0-0.1-0.1-0.2-0.1-0.3c0.1-0.1,0.4-0.2,0.4-0.4h0.1c-0.1,0.1-0.1,0.2-0.1,0.4
	c0.1,0.1,0.3,0.4,0.4,0.2c0.1-0.1,0.2-0.2,0.3-0.4l-0.1-0.2c0.4-0.1,0.7,0.3,1.1,0c0.1,0,0.1,0.3,0.4,0.3c0.2,0.1,0.3-0.2,0.4-0.3
	h0.1c-0.1,0.1-0.2,0.2-0.1,0.4l0.1,0.1c-0.1,0-0.3,0.2-0.4,0.4c-0.1,0.1,0.1,0.3,0.3,0.4c0.1,0,0.3-0.1,0.4-0.3
	c0.1-0.1-0.1-0.3-0.1-0.4c0.1,0,0.3-0.1,0.4-0.3c0.1-0.1-0.1-0.2-0.1-0.4c0.2,0,0.6-0.1,0.7,0.1c0.2,0.1,0.3-0.1,0.4-0.1
	c0.1,0.1,0.1,0.2,0.3,0.3c0.2,0,0.3-0.1,0.4-0.2c0-0.1,0.1-0.1,0.1-0.1c0,0.1-0.1,0.2-0.1,0.4c0,0.1,0.1,0.1,0.1,0.2
	c-0.2-0.1-0.3,0.1-0.4,0.3c-0.1,0.2,0.1,0.3,0.3,0.4c0.1,0,0.2-0.1,0.3-0.2c0,0.1,0.1,0.3,0.3,0.4c0.1,0.1,0.4-0.1,0.4-0.2
	c0.1-0.1-0.1-0.3-0.1-0.4c0.1,0,0.3-0.1,0.4-0.3c0.1-0.2-0.1-0.3-0.2-0.4c-0.1-0.1-0.3,0.1-0.4,0.1c-0.1-0.1-0.1-0.2-0.1-0.3
	c0.4-0.1,0.6,0.2,0.9,0c0.1-0.1,0.1,0.1,0.1,0.1c0.1,0.1,0.2,0.2,0.4,0.1c0.2-0.1,0.1-0.3,0.4-0.3c0,0.1-0.1,0.1-0.1,0.3
	c0.1,0.1,0.3,0.4,0.5,0.1c0.1-0.1,0.3-0.2,0.1-0.4c0.4-0.1,0.6,0.3,1,0c0.1,0,0.2,0.3,0.4,0.3c0.2,0.1,0.4-0.4,0.4,0.1
	c0.1,0.1,0.2,0.2,0.4,0.1c0.1-0.1,0.2-0.2,0.1-0.4c0-0.1-0.1-0.1,0-0.1h0.4c-0.1,0.1-0.3,0.1-0.4,0.3c0,0.1,0,0.2,0.1,0.4
	c0.1,0.1,0.2,0.1,0.4,0.1c0.1-0.1,0.2-0.3,0.1-0.5l-0.1-0.1c0-0.1,0.2-0.1,0.3-0.1c0.1,0,0.2,0.2,0.4,0.3c0.3,0.1,0.4-0.1,0.4-0.3
	h0.1c0,0.1-0.1,0.1,0,0.3c0.1,0.1,0.3,0.4,0.4,0.1c0.2-0.1,0.3-0.3,0.2-0.4c0.4,0.1,0.9-0.2,1.1,0.2c-0.1,0-0.2,0.1-0.3,0.2
	c0-0.1-0.1-0.3-0.3-0.4c-0.1-0.1-0.3,0.1-0.4,0.2c-0.1,0.2,0.1,0.3,0.3,0.4c0.1,0,0.2-0.1,0.3-0.1c0.1,0.1,0.2,0.3,0.4,0.4
	c0.1,0,0.3-0.1,0.4-0.2c0-0.1-0.1-0.3-0.1-0.4c0.1,0,0.3-0.2,0.4-0.3c-0.1,0.2,0.4,0.5,0,0.6c-0.1,0.1-0.2,0.2-0.1,0.4
	c0.1,0.1,0.1,0.1,0.1,0.2c-0.2-0.1-0.3,0.1-0.4,0.2c-0.1,0.2,0.1,0.4,0.2,0.4c0.1,0.1,0.1,0,0.3,0v0.4c-0.1-0.1-0.2-0.3-0.4-0.4
	c-0.1,0-0.3,0.1-0.4,0.3c-0.1,0.1,0.1,0.3,0.2,0.4c0.1,0.1,0.3,0,0.4-0.1l0.1,0.4c-0.1,0.1-0.4,0.3-0.3,0.5c0.1,0.1,0.3,0.1,0.3,0.4
	c-0.1-0.1-0.3-0.1-0.4,0c-0.1,0.1-0.3,0.2-0.1,0.4l0.1,0.1c-0.1,0.1-0.4,0.2-0.4,0.4c0.1,0.1,0.4,0.1,0.6,0.1c0-0.1,0.1-0.1,0.1-0.1
	c-0.1-0.1-0.1-0.1-0.1-0.2l0.2-0.1l0.1-0.1l0,1.1l-11.8,0c-0.1,0-0.2,0-0.3,0.1l0.1,4.4l0.2,0.1l11.6,0l0,0.6H80.4
	c-0.1,0-0.2,0.1-0.2,0.2l0,5c0,0.2,0.3,0.1,0.4,0.1c0.1,0,0-0.3,0.1-0.2c0.1,0.1,0.3,0.2,0.4,0.1c0.1-0.1,0.3-0.2,0.2-0.4
	C81.3,41.1,81.2,41,81,41l-0.1,0.1c0-0.1-0.1-0.4,0.1-0.5c0.1,0,0.1,0.1,0.1,0.1c0.1,0.1,0.3,0.2,0.4,0.2c0.1-0.1,0.3-0.3,0.2-0.5
	l-0.1-0.1c0.1,0,0.3-0.1,0.4-0.3c0.1-0.1-0.1-0.3-0.2-0.4c-0.2-0.1-0.4,0.1-0.4,0.2c-0.2,0.1,0.4,0.4,0,0.4L81,40.4
	c0.1-0.1-0.4-0.4-0.1-0.4c0.1-0.1,0.4-0.2,0.3-0.4l-0.1-0.1c0.1,0,0.3-0.1,0.4-0.3c0.1-0.2-0.1-0.4-0.3-0.4c-0.1,0-0.2,0.1-0.4,0.1
	c-0.1-0.4,0.4-0.7,0-1c0-0.2,0.3-0.1,0.4-0.3c0,0.1,0.1,0.3,0.3,0.4c0.1,0.1,0.3-0.1,0.4-0.3c0-0.1-0.1-0.2-0.1-0.3
	c0.1-0.1,0.2-0.2,0.4-0.2c0,0.1,0.1,0.2,0.1,0.3c-0.1,0-0.3,0.1-0.4,0.3c-0.1,0.2,0.1,0.3,0.2,0.4c0.2,0.1,0.4-0.1,0.4-0.3
	c0-0.1-0.1-0.2-0.1-0.3c0.1-0.1,0.4-0.2,0.4-0.4c0,0,0-0.1,0.1-0.1c0,0.1-0.2,0.4,0,0.5c0.1,0.1,0.2,0.2,0.4,0.1
	c0.1-0.1,0.3-0.3,0.2-0.4c0-0.1-0.1-0.1-0.1-0.1c0.4-0.1,0.7,0.1,1,0c0.1-0.1,0.1,0.1,0.2,0.2c0.1,0.1,0.2,0.2,0.4,0.1
	c0-0.1,0.1-0.1,0.1-0.1c0.1,0.1,0.1,0.2,0.2,0.3c-0.1,0-0.3,0.2-0.4,0.3c-0.1,0.2,0.1,0.4,0.3,0.4c0.1,0,0.3-0.1,0.4-0.2
	c0.1-0.2-0.1-0.3-0.1-0.4c0.1,0,0.3-0.1,0.4-0.3c0.1-0.1-0.1-0.2-0.1-0.3c0.4-0.1,0.7,0.2,1.1,0c0.1,0.1,0.3,0.4,0.5,0.2
	c0.1,0,0.1-0.3,0.4-0.2c0,0.1-0.2,0.2-0.1,0.4c0.1,0.1,0.2,0.4,0.4,0.2l0.1-0.1c0.1,0.1,0.1,0.2,0.2,0.3c-0.1,0.1-0.4,0.1-0.4,0.3
	c-0.1,0.2,0.1,0.3,0.2,0.4c0.1,0,0.4-0.1,0.4-0.2c0.1-0.1-0.1-0.3-0.1-0.4c0.1,0,0.3-0.1,0.4-0.3c0.1-0.1-0.1-0.3-0.2-0.4
	c-0.1-0.1-0.3,0-0.4,0.1l-0.1-0.3c0.4-0.1,0.6,0.2,1,0c0.1,0.1,0.3,0.4,0.4,0.2c0.1,0,0.1-0.1,0.3-0.1c0,0.1,0.1,0.3,0.2,0.4
	c0.1,0.1,0.2,0.1,0.3,0c0.1-0.1,0.2-0.2,0.2-0.4c0.5,0.1,1.3-0.2,1.4,0.5c-0.1-0.1-0.3-0.3-0.4-0.1l-0.1,0.1
	c-0.1-0.1-0.2-0.3-0.3-0.4c-0.2-0.1-0.4,0.1-0.4,0.2c-0.1,0.1,0,0.3,0.1,0.4c-0.1,0-0.4,0.1-0.4,0.4c-0.1,0.1,0.1,0.2,0.2,0.4
	c0.2,0.1,0.4-0.1,0.4-0.3c0.1-0.1-0.1-0.2-0.1-0.4c0.1,0,0.2-0.1,0.3-0.1c0,0.1,0.1,0.3,0.4,0.4c0.1,0.1,0.2-0.1,0.3-0.1
	c0,0.1,0.1,0.5-0.1,0.6c-0.1,0.2,0.1,0.3,0.1,0.4c-0.1,0.1-0.4,0.2-0.4,0.4c0,0.2,0.3,0.3,0.3,0.5c-0.1-0.1-0.3-0.1-0.4,0.1
	c-0.1,0.1-0.1,0.2-0.1,0.3c0.1,0.1,0.2,0.2,0.4,0.2H92c0.1,0.3-0.1,0.5-0.1,0.8c0.1,0.1,0.1,0.1,0.1,0.2c-0.1,0.1-0.2,0.1-0.3,0.2
	c0,0.1,0.1,0.1,0.1,0.1v0.5l-11.4,0c-0.1,0-0.2,0.1-0.2,0.2c0,1.9-0.7,3.6-2,5c-1.4,1.5-3.3,2.6-5.7,2.9c-0.3,0-0.3,0.2-0.3,0.4
	l0,16.6c0,0.1-0.4,0.2-0.4-0.4l-0.1-7.1c0-0.2-0.2-0.4-0.3-0.4l-12.3,0c-0.2-0.2-0.3-0.3-0.5-0.5h12.9c0.1,0,0.2-0.1,0.2-0.2V54
	c0-0.2-0.1-0.2-0.3-0.2l-16.4,0.1c-0.1-0.2-0.2-0.3-0.3-0.5c0,0,0-0.1,0.1-0.1c-0.3-0.1-0.2-0.3-0.4-0.5v-0.1h0.1
	c-0.1,0.2,0.1,0.3,0.3,0.4c0.1,0,0.2-0.1,0.4-0.1c0,0.1,0.1,0.2,0.2,0.3c0.1,0.1,0.2,0,0.4-0.1c0.1-0.1,0.1-0.2,0.1-0.3
	c-0.1-0.1-0.3-0.4-0.5-0.3l-0.1,0.1c0-0.1-0.1-0.2-0.2-0.4c-0.1,0-0.3,0-0.4,0.1c-0.1-0.1-0.1-0.3-0.3-0.4c0.1,0,0.3-0.1,0.4-0.3
	c0.1-0.2,0-0.3-0.1-0.4c-0.3-0.3-0.5,0.4-0.6-0.1l-0.1-0.1c0.1-0.1,0.3,0,0.4-0.2c0.1,0,0.1,0.1,0.1,0.2c0.1,0.1,0.3,0.2,0.4,0.1
	c0.1-0.1,0.2-0.2,0.1-0.4c-0.1-0.1-0.2-0.3-0.4-0.2l-0.1,0.1c0-0.2-0.1-0.3-0.2-0.4c-0.1-0.1-0.4-0.1-0.4,0.1
	c-0.1-0.1-0.1-0.3-0.3-0.4c0.1,0.1,0.3-0.1,0.4-0.2c0.1-0.2,0-0.4-0.2-0.5c-0.1-0.1-0.3,0-0.4,0.1L53,49.3c0.1,0.1,0.4-0.4,0.4,0
	c0.1,0.1,0.1,0.2,0.4,0.1c0.1-0.1,0.3-0.3,0.2-0.4l-0.1-0.1c0.1-0.1,0.3,0,0.4,0c0.1,0.1,0.2,0.2,0.4,0.1c0.1-0.1,0.1-0.1,0.3-0.1
	c-0.1,0.1,0.1,0.3,0.2,0.4c0.2,0.1,0.4-0.1,0.4-0.2l0.1-0.2l0.2,0.1c-0.1,0.1-0.3,0.2-0.1,0.4c0.1,0.1,0.1,0.2,0.3,0.3
	c0.1-0.1,0.2-0.2,0.4-0.3c0.1-0.2-0.1-0.3-0.1-0.4c0.1,0,0.3-0.1,0.4-0.1c0.1,0.1,0.3,0.3,0.5,0.2l0.1-0.1c0.1-0.1,0.1,0.1,0.1,0.1
	c0.1,0.1,0.2,0.3,0.4,0.2c0.1,0.1,0.2-0.1,0.3-0.2c0.1-0.1,0-0.1,0.1-0.2h0.2c-0.1,0.1-0.3,0.2-0.1,0.4c0.1,0.1,0.1,0.2,0.3,0.3
	c0.1-0.1,0.3-0.2,0.4-0.4c0-0.1-0.1-0.2-0.2-0.4c0.2,0,0.5-0.1,0.6,0.1c-0.1,0.1-0.3,0.2-0.4,0.4c0,0.2,0.2,0.3,0.4,0.4
	c0.1,0.1,0.3-0.1,0.4-0.2c0.1-0.2-0.1-0.3-0.1-0.4c0.1,0,0.3-0.1,0.4-0.3h0.1c-0.1,0.2,0.1,0.4,0.2,0.4c0.1,0.1,0.3,0.1,0.4-0.1
	c0.1,0.1,0.1,0.2,0.3,0.3c0.1,0.1,0.4-0.1,0.4-0.2c0.1-0.1-0.1-0.3-0.2-0.4c0.4,0,0.6,0,0.9,0.1c0.1,0.1,0.2-0.1,0.4-0.1
	c-0.1,0.1,0.4,0.4,0,0.4c-0.1,0.1-0.3,0.3-0.1,0.4c0.1,0.1,0.2,0.3,0.4,0.2c0.1-0.1,0.3-0.2,0.2-0.4c-0.1-0.1-0.1-0.1-0.1-0.1
	c0.1,0,0.3-0.1,0.4-0.3v-0.2c0.4,0,0.9-0.1,1.2,0.1c0.2,0.1,0.4-0.3,0.4,0c0.1,0.1,0.3,0.3,0.5,0.2c0.1-0.1,0.2-0.2,0.2-0.4h0.4
	c-0.1-0.1-0.3,0.1-0.4,0.2c0,0.1,0.1,0.3,0.1,0.4c-0.1,0.1-0.3,0.2-0.4,0.4c0,0.2,0.2,0.3,0.3,0.4c0.2,0.1,0.3-0.1,0.4-0.2
	c0.1-0.1-0.1-0.3-0.1-0.4c0.1-0.1,0.4-0.1,0.4-0.4c0-0.1-0.1-0.2-0.1-0.4c0.1-0.1,0.3,0.1,0.4,0.1c-0.1,0.1-0.3,0.3-0.2,0.6
	c0.1,0.1,0.3,0.2,0.5,0.1l0.1-0.1c0,0.1,0.1,0.2,0.2,0.3c0.2,0.2,0.5-0.3,0.6,0.1c0.2,0.4,0.7,0,0.9,0.4c0.3,0,0.4,0.1,0.6,0.2v0.1
	c-0.1,0-0.2,0-0.3,0.1c-0.1,0-0.1-0.1-0.1-0.2c-0.1-0.1-0.2-0.2-0.4-0.1c-0.2,0.1-0.3,0.3-0.2,0.5c0.1,0.1,0.3,0.2,0.4,0.1l0.1-0.1
	c0,0.1,0.1,0.3,0.2,0.4c0.2,0.1,0.4-0.1,0.5-0.2c0.1-0.1,0-0.2-0.1-0.3l-0.1-0.1c0.4-0.1,0.6,0.4,1.1,0.2c0.1,0.1,0.3,0.2,0.5,0.1
	c0,0,0.1-0.1,0.1-0.1c0.1,0.1,0.1,0.2,0.2,0.4c-0.1,0-0.3,0.1-0.4,0.2c0,0.2,0.1,0.4,0.2,0.5c0.3-0.1,0.2,0.2,0.3,0.3
	c-0.1,0.3,0.1,0.4,0.1,0.6c0.1,0.1,0.1,0.1,0.3,0.1l0.1-0.1c0-0.7,0-1.7,0-2.4c0-0.1-0.1-0.1-0.2-0.1c-1.8-0.2-3.1-0.5-5.3-2.3
	l-13.4,0.1c-0.1-0.2-0.1-0.4-0.2-0.6l12.9-0.1c0.1,0,0.1-0.1,0.1-0.1c-1.1-0.8-1.7-3.2-1.7-4.5l-0.1-11.7c0-0.1,0-0.4,0.3-0.4h7.3
	c0.1,0,0.2,0,0.2-0.1l-0.1-10.3c0-0.1-0.1-0.3-0.3-0.3c-3.1,0.1-6.7,0.4-10,1.1c-3.8,0.8-7.2,2-10,3.3l0-6.2c0,0,0-0.3,0.2-0.3
	c5.6-2.7,13.9-3.9,20.3-3.9C77.7,14,87.5,15.1,92.2,17.2"/>
<path class="st2" d="M71.1,30.5h-6.7c0.1-0.3,0.3-0.4,0.6-0.4c0.1,0,0.7-0.2,0.8-0.3c0.2-0.2-0.4-0.3-0.6-0.3c-0.4,0-0.7,0-1.1,0.2
	c-0.5,0.2-0.7,0.6-1,1c-0.1,0.1-0.2,0.2-0.3,0.2c-0.5,0-1.1,0.1-1.4,0.1c-0.1,0-0.1-0.1-0.1-0.2c0-0.3,0.4-0.8,0.7-1.2
	c0.2-0.2,0.4-0.3,0.7-0.5c0.1-0.1,0.2-0.2,0.1-0.3c-0.1-0.2-0.4-0.1-0.6,0c-0.3,0.1-0.7,0.3-0.9,0.5c-0.6,0.5-0.7,0.8-0.9,1.6
	c0,0.2,0,0.3-0.1,0.3c-0.5,0.1-0.9,0.3-1.5,0.4c-0.2,0-0.2-0.1-0.2-0.4c0-0.3,0.2-0.7,0.3-1c0.2-0.3,0.5-0.5,0.7-0.9
	c0-0.1,0.1-0.2,0-0.2c-0.4,0-0.9,0.1-1.1,0.4c-0.6,0.7-0.8,1.3-0.8,2.1c0,0.1,0.1,0.2-0.1,0.3c-0.1,0.1-0.7,0.3-1,0.5
	c-0.3,0.2-0.4,0.1-0.4-0.2c0-0.3,0-0.7,0.1-1c0.1-0.4,0.3-0.8,0.6-1c0.1-0.1,0-0.2-0.1-0.2c-1.3,0-1.4,1.9-1.4,2.8
	c0,0.1-0.1,0.2-0.2,0.3c-0.3,0.2-0.6,0.3-0.8,0.4c-0.1,0-0.1,0-0.3,0c-0.1-0.2-0.2-0.5-0.5-0.7c-0.2-0.1-0.5-0.1-0.6,0.1
	c-0.1,0.1-0.2,0.4-0.1,0.6c0.1,0.2,0.2,0.4,0.4,0.5c-0.1,0.1-0.3,0.2-0.4,0.3c-0.2,0.2-0.4,0.3-0.4,0.6c0,0.3,0.3,0.7,0.6,0.6
	c0.3-0.1,0.5-0.1,0.7-0.3c0.2,0,0.3,0.2,0.5,0.3c0.2,0.1,0.6,0.2,0.8,0c0.1-0.1,0.2-0.3,0.1-0.6c-0.1-0.3-0.4-0.4-0.2-0.6
	c1.1-0.7,2.8-1.4,4.5-1.9c1.5-0.4,2.9-0.7,4.1-0.6c0.2,0,0.2,0.1,0.2,0.2v3.4c-0.2,0.3-0.6,0.6-0.6,0.9c-0.6,0.1-1.2,0.1-1.7,0.2
	c-0.2,0-0.2,0-0.2-0.1c-0.1-0.2,0-0.3,0-0.5c0.1-0.4,0.2-0.7,0.4-1c0.3-0.4,0.6-0.6,1-0.9c0.1-0.1-0.2-0.1-0.3-0.1
	c-0.6,0.3-1.3,0.4-1.7,1.4c-0.2,0.5-0.1,0.9-0.2,1.4c0,0.1-0.1,0.1-0.2,0.1c-0.4,0.1-0.9,0.3-1.2,0.3c-0.2,0-0.2,0.1-0.2-0.1
	c-0.1-0.6-0.1-1.1,0.2-1.6c0.2-0.4,0.3-0.6,0.7-0.9c0.1,0,0.1-0.1-0.1-0.1c-0.2,0-0.5,0.1-0.6,0.1c-0.5,0.2-0.8,0.6-1,1.3
	c-0.1,0.6-0.1,1,0.1,1.5c0,0-0.1,0.1-0.2,0.1c-0.4,0.2-0.7,0.3-1.1,0.5c-0.1,0-0.1,0-0.2,0c0,0-0.1-0.1-0.1-0.1
	C56,37.6,56,37,56.1,36.5c0.1-0.4,0.2-0.6,0.4-0.9c0.1-0.1,0.2-0.2,0.1-0.3c-0.1,0-0.4,0-0.5,0.1c-0.3,0.2-0.5,0.4-0.6,0.7
	c-0.2,0.4-0.3,1.2-0.2,1.7c0.1,0.3,0.1,0.3,0.1,0.6c0,0.1,0,0.1-0.1,0.2c-0.1,0.1-0.3,0.2-0.5,0.3c-0.1,0.1-0.2,0.1-0.3-0.1
	c-0.3-0.3-0.7-0.6-1-0.4c-0.1,0.1-0.2,0-0.3,0.2c-0.1,0.2,0,0.5,0.1,0.7c0.1,0.2,0.3,0.4-0.1,0.6c-0.2,0.1-0.4,0.3-0.5,0.5
	c-0.1,0.1,0,0.4,0,0.5c0.1,0.2,0.5,0.3,0.8,0.2c0.2-0.1,0.4-0.3,0.6-0.5c0.3-0.2,0.5,0.3,0.8,0.4c0.2,0,0.3,0.1,0.5-0.1
	c0.2-0.1,0.3-0.3,0.2-0.6c-0.1-0.2-0.3-0.4-0.4-0.6c0-0.1,0-0.1,0.1-0.1c0.8-0.7,3.5-1.7,4.1-1.8c1-0.4,3-0.7,3.9-0.7v5.3H51.7
	c-0.4-5.8-0.4-11.6-0.4-17.4c2.9-1.5,6.2-2.6,9.2-3.2c4.1-0.9,7.9-1.2,10.7-1.2"/>
<path class="st0" d="M64.9,22.4c0.1,0,0.2,0.1,0.1,0.2c-1.1,0.6-1.8,1.5-1.9,2.3c0,0.1,0,0.2,0.1,0.2c0.7,0,1.3,0,2,0
	c0.2-0.4,0.5-0.8,0.8-1.1c0.6-0.5,1.5-0.6,2.2-0.3c0.1,0,0.2,0.2,0.1,0.2c-0.6,0-1.1-0.2-1.8,0.5c-0.1,0.2-0.3,0.4-0.3,0.6
	c0,0.1,0.1,0.1,0.1,0.1c0.8,0.2,1.7,0.8,1.9,1.3c0,0.1-0.3,0-0.5-0.1c-3-1-5.1-0.6-7.7,0c-1.7,0.4-4.3,1.4-5.2,2.1
	c0,0.1,0,0.1,0.1,0.2c0.1,0.2,0.3,0.4,0.3,0.7c0,0.2-0.2,0.4-0.4,0.4c-0.4,0.2-0.7-0.2-1-0.4c-0.1,0-0.2,0.1-0.4,0.2
	c-0.2,0.1-0.5,0.2-0.7,0.1c-0.3,0-0.3-0.4-0.4-0.6c-0.1-0.4,0.5-0.6,0.7-0.8c-0.1-0.3-0.3-0.6-0.1-0.9c0.2-0.2,0.3-0.3,0.6-0.3
	c0.4,0,0.6,0.4,0.8,0.6c0.2-0.1,0.7-0.4,1.1-0.6c-0.2-0.5-0.2-1.5,0-2c0.3-0.6,0.7-1.2,1.5-1.5c0.2-0.1,0.7-0.1,0.6,0.1
	c-0.2,0.2-0.9,0.9-1.1,1.3c-0.1,0.4-0.4,0.9-0.1,1.5c0,0.1,0.1,0.2,0.2,0.1c0.5-0.2,1.6-0.6,2.1-0.8c0.1,0,0.2,0,0.2-0.1
	c0.1-0.8,0.1-1.6,0.5-2.2c0.4-0.5,1-1,1.8-0.8c0.1,0,0.1,0.1,0,0.1c-0.7,0.4-1,0.8-1.2,1.4c-0.2,0.4-0.1,0.7-0.1,1.1
	c0.4-0.1,2.1-0.5,2.4-0.6c0-0.4,0.3-1,0.5-1.3C63,23,63.7,22.4,64.9,22.4"/>
<polyline class="st3" points="73.1,26.1 73.1,26.2 73.1,26.1 "/>
<path class="st3" d="M79.2,26.5c0,0.1,0.1,0.1,0.1,0.1c0.1-0.1,0.3-0.2,0.4-0.1c0.1,0.1,0.2,0.2,0.1,0.4c-0.1,0.1-0.2,0.3-0.4,0.2
	c-0.1-0.1-0.2-0.2-0.3-0.4c-0.1,0.1-0.3,0.2-0.4,0.1c-0.1-0.1-0.2-0.3-0.1-0.4C78.7,26.2,79.1,26.2,79.2,26.5"/>
<path class="st3" d="M81.5,26.5c0,0.1,0,0.3-0.1,0.4c-0.1,0.1-0.2,0.1-0.3,0.1c-0.1-0.1-0.2-0.3-0.1-0.4c0-0.1,0.1-0.1,0.2-0.2
	C81.3,26.2,81.5,26.4,81.5,26.5"/>
<path class="st3" d="M86.3,26.5c0.1,0.2-0.1,0.4-0.2,0.4c-0.1,0-0.1,0-0.1,0.1c0,0.1,0.1,0.1,0.1,0.4c0.1-0.1,0.2-0.3,0.4-0.2
	c0.1,0.1,0.3,0.3,0.1,0.5c-0.1,0.1-0.2,0.2-0.4,0.1c-0.1-0.1-0.2-0.2-0.3-0.4c-0.1,0.1-0.3,0.3-0.4,0.1c-0.1-0.1-0.2-0.2-0.1-0.4
	c0.1-0.1,0.2-0.2,0.4-0.2c-0.1-0.1-0.1-0.2-0.1-0.4c0-0.1,0.1-0.2,0.3-0.3C86.1,26.2,86.3,26.4,86.3,26.5"/>
<path class="st3" d="M82.2,26.7c0.1,0.1-0.1,0.4-0.2,0.4c-0.1,0.1-0.3-0.1-0.4-0.2c-0.1-0.1,0.1-0.3,0.2-0.4
	C82,26.5,82.2,26.5,82.2,26.7"/>
<path class="st3" d="M84.6,26.7c0.1,0.1-0.1,0.4-0.2,0.4c-0.2,0-0.4-0.1-0.4-0.2c-0.1-0.2,0.1-0.4,0.3-0.4
	C84.4,26.5,84.5,26.6,84.6,26.7"/>
<path class="st3" d="M87.1,26.7c0,0.1,0,0.1,0.1,0.2c0.1-0.1,0.2-0.3,0.4-0.1c0.1,0.1,0.2,0.2,0.2,0.4c-0.1,0.1-0.2,0.3-0.4,0.2
	c-0.1-0.1-0.2-0.2-0.2-0.4c-0.1,0.1-0.2,0.2-0.4,0.1c-0.1-0.1-0.3-0.2-0.1-0.4c0-0.1,0.1-0.2,0.2-0.2C86.8,26.5,87,26.5,87.1,26.7"
	/>
<path class="st3" d="M89.4,26.7c0,0.1-0.1,0.4-0.3,0.4c0,0-0.1,0-0.1,0.1c0.1,0.1,0.2,0.2,0.2,0.3c0.1-0.1,0.3-0.2,0.4-0.1
	c0.1,0.1,0.3,0.3,0.1,0.4c-0.1,0.1-0.3,0.2-0.4,0.1c-0.1-0.1-0.1-0.2-0.2-0.3c-0.1,0.1-0.3,0.2-0.4,0.1c-0.1-0.1-0.3-0.2-0.2-0.4
	c0.1-0.1,0.3-0.1,0.4-0.3c-0.1-0.1-0.2-0.2-0.1-0.4C88.9,26.4,89.3,26.5,89.4,26.7"/>
<path class="st3" d="M83.2,26.6c0,0.1,0.1,0.1,0.1,0.2L83.1,27c0-0.1-0.4-0.3-0.1-0.4C83.1,26.7,83.2,26.5,83.2,26.6"/>
<path class="st3" d="M75.1,26.8c0.1,0,0,0.1,0.1,0.1c0.1-0.1,0.2-0.2,0.4-0.1c0.1,0.1,0.2,0.1,0.2,0.3c0,0.1-0.1,0.2-0.1,0.3
	c-0.1,0.1-0.1,0-0.2,0.1c0.1,0.1,0.2,0.3,0.1,0.4c-0.1,0.1-0.2,0.3-0.4,0.1c-0.1-0.1-0.2-0.2-0.2-0.4c-0.1,0.1-0.2,0.2-0.4,0.1
	c-0.1,0-0.2-0.1-0.3-0.2c0-0.1,0.1-0.3,0.3-0.4c0.1,0,0.1,0,0.1-0.1c-0.1-0.1-0.2-0.2-0.1-0.4C74.6,26.5,75,26.5,75.1,26.8"/>
<path class="st3" d="M85.3,26.9c0.1,0.1,0,0.4-0.1,0.4c-0.2,0.1-0.4-0.1-0.4-0.2c-0.1-0.2,0.1-0.4,0.2-0.4
	C85.1,26.7,85.3,26.7,85.3,26.9"/>
<path class="st3" d="M90.1,26.9c0,0.1,0,0.2,0.1,0.1c0.1-0.1,0.2-0.1,0.4-0.1c0.1,0.1,0.3,0.3,0.2,0.4c-0.1,0.1-0.3,0.3-0.4,0.2
	c-0.1-0.1-0.2-0.2-0.3-0.4c-0.1,0.1-0.2,0.2-0.4,0.1c-0.1-0.1-0.3-0.3-0.1-0.4C89.6,26.6,90,26.7,90.1,26.9"/>
<path class="st3" d="M73.5,27c0,0.2-0.1,0.3-0.3,0.4c-0.1,0-0.3-0.1-0.4-0.3c0-0.1,0.1-0.3,0.2-0.4C73.2,26.7,73.4,26.9,73.5,27"/>
<path class="st3" d="M78.2,27c0.1,0.2-0.1,0.3-0.2,0.4h-0.1c0.1,0.1,0.2,0.2,0.2,0.4c0.1-0.1,0.2-0.2,0.4-0.1
	c0.1,0.1,0.3,0.2,0.2,0.4c-0.1,0.1-0.2,0.3-0.4,0.1c-0.2,0-0.1-0.6-0.4-0.1c-0.1,0-0.3-0.1-0.4-0.3c-0.1-0.1,0-0.3,0.1-0.4
	c0.1,0,0.1,0,0.2-0.1c-0.1-0.1-0.3-0.2-0.1-0.4c0-0.1,0.1-0.1,0.2-0.2C78,26.8,78.2,26.9,78.2,27"/>
<path class="st3" d="M88.4,27.1c0.1,0.1-0.1,0.4-0.2,0.4c-0.1,0.1-0.3-0.1-0.4-0.2c-0.1-0.2,0.1-0.4,0.2-0.4
	C88.2,26.8,88.3,27,88.4,27.1"/>
<path class="st3" d="M74.2,27.2c0,0.2-0.1,0.3-0.2,0.4c-0.2,0-0.3-0.1-0.4-0.2c-0.1-0.2,0.1-0.4,0.3-0.4C74,27,74.1,27.1,74.2,27.2"
	/>
<path class="st3" d="M76.6,27.2c0,0.1-0.1,0.3-0.2,0.4c-0.2,0.1-0.4-0.1-0.4-0.2c-0.1-0.1,0.1-0.3,0.2-0.4
	C76.4,27,76.4,27.1,76.6,27.2"/>
<path class="st3" d="M79,27.2c0,0.1-0.1,0.1,0,0.1c0.1-0.1,0.3-0.2,0.4-0.1c0.1,0.1,0.3,0.2,0.1,0.4c-0.1,0.1-0.2,0.2-0.4,0.1
	c-0.1,0-0.2-0.2-0.3-0.4c-0.1,0.1-0.2,0.2-0.4,0.1c-0.1-0.1-0.3-0.3-0.2-0.4C78.5,26.9,78.9,27,79,27.2"/>
<path class="st3" d="M81.3,27.2c0,0.1-0.1,0.3-0.2,0.4c0,0.1-0.1,0-0.1,0.1c0.1,0.1,0.2,0.1,0.1,0.4c-0.1,0.1-0.3,0.3-0.5,0.1
	c-0.1-0.1-0.2-0.3-0.1-0.4c0.1-0.1,0.2-0.1,0.4-0.2c-0.1-0.1-0.3-0.2-0.1-0.4C80.9,26.9,81.2,27,81.3,27.2"/>
<path class="st3" d="M75.3,27.4c-0.1,0.1-0.2,0.1-0.3,0.2c0.1-0.1-0.4-0.4-0.1-0.4c0.1-0.1,0.1-0.1,0.2-0.1
	C75.1,27.2,75.2,27.3,75.3,27.4"/>
<path class="st3" d="M91.5,27.3c0.1,0.2-0.1,0.4-0.2,0.4c-0.2,0-0.4-0.1-0.4-0.2c0-0.2,0.1-0.4,0.3-0.4
	C91.3,27.1,91.4,27.2,91.5,27.3"/>
<path class="st3" d="M77.3,27.5c0,0.1-0.1,0.3-0.2,0.4c-0.1,0.1-0.3,0-0.4-0.1c-0.1-0.1-0.1-0.2-0.1-0.3
	C76.8,27.1,77.2,27.2,77.3,27.5"/>
<path class="st3" d="M82.1,27.5c-0.1,0.1,0,0.1,0,0.1c0.1-0.1,0.3-0.2,0.4-0.1c0.1,0.1,0.2,0.3,0.1,0.4c-0.1,0.1-0.2,0.2-0.4,0.1
	c-0.1-0.1-0.1-0.2-0.2-0.4c-0.1,0.1-0.2,0.2-0.4,0.1c-0.1-0.1-0.2-0.1-0.2-0.2c-0.1-0.2,0.1-0.3,0.2-0.4
	C81.8,27.2,82,27.3,82.1,27.5"/>
<path class="st3" d="M84.4,27.5c0,0.2-0.1,0.4-0.2,0.4c-0.1,0-0.1,0.1-0.1,0.1c0.1,0.1,0.2,0.2,0.1,0.4c-0.1,0.1-0.3,0.3-0.4,0.2
	c-0.1-0.1-0.3-0.3-0.1-0.4c0.1-0.1,0.2-0.1,0.4-0.2c-0.1-0.1-0.3-0.2-0.1-0.4C83.9,27.1,84.3,27.2,84.4,27.5"/>
<path class="st3" d="M80.4,27.7c0,0.1-0.1,0.3-0.3,0.4c-0.1,0-0.3-0.1-0.4-0.3c0-0.1,0.1-0.3,0.2-0.4C80.1,27.4,80.3,27.5,80.4,27.7
	"/>
<path class="st3" d="M85.2,27.7c0,0.1-0.1,0.1,0,0.1c0.1-0.1,0.2-0.2,0.4-0.1c0.1,0.1,0.3,0.2,0.1,0.4c-0.1,0.1-0.2,0.2-0.4,0.1
	c-0.1-0.1-0.2-0.2-0.3-0.4C85,28,84.9,28.2,84.8,28c-0.1-0.1-0.3-0.2-0.2-0.4c0.1-0.1,0.1-0.2,0.2-0.2C85,27.4,85,27.5,85.2,27.7"/>
<path class="st3" d="M87.5,27.7c0,0.1-0.1,0.3-0.2,0.4c0,0.1-0.1,0-0.1,0.1c0.1,0.1,0.1,0.1,0.1,0.3c-0.1,0.1-0.1,0.2-0.3,0.2
	c-0.1,0.1-0.3-0.1-0.4-0.2c0-0.1,0.1-0.3,0.2-0.4c0.1,0,0.1,0,0.2-0.1c-0.1-0.1-0.3-0.2-0.1-0.4c0-0.1,0.1-0.2,0.2-0.2
	C87.3,27.4,87.4,27.5,87.5,27.7"/>
<path class="st3" d="M83.5,27.9c0,0.2-0.1,0.4-0.3,0.4c-0.1,0-0.3-0.1-0.4-0.2c-0.1-0.2,0.1-0.4,0.2-0.4
	C83.2,27.6,83.4,27.8,83.5,27.9"/>
<path class="st3" d="M88.2,27.9c0.1,0.2-0.1,0.4-0.2,0.4c-0.1,0-0.3-0.1-0.4-0.2c-0.1-0.2,0.1-0.4,0.2-0.4
	C88,27.6,88.2,27.8,88.2,27.9"/>
<path class="st3" d="M90.6,27.9c0,0.1-0.1,0.3-0.2,0.4c-0.1,0.1-0.2,0-0.1,0.1c0.1,0.1,0.2,0.2,0.1,0.4c-0.1,0.1-0.3,0.3-0.4,0.1
	c-0.1-0.1-0.2-0.2-0.2-0.4c0.1-0.1,0.2-0.3,0.4-0.3c-0.1-0.1-0.2-0.2-0.1-0.4C90.1,27.6,90.5,27.6,90.6,27.9"/>
<path class="st3" d="M74,28c0,0.1,0,0.1,0.1,0.1c0.1-0.1,0.2-0.2,0.4-0.1c0.1,0.1,0.3,0.3,0.2,0.4c-0.1,0.1-0.3,0.3-0.4,0.1
	c-0.1-0.1-0.2-0.2-0.2-0.3c-0.1,0.1-0.3,0.2-0.4,0.1c-0.1-0.1-0.2-0.3-0.2-0.4c0.1-0.1,0.1-0.1,0.3-0.2C73.8,27.7,73.8,27.9,74,28"
	/>
<path class="st3" d="M76.4,28c0,0.2-0.1,0.4-0.2,0.4c-0.1,0-0.2-0.1-0.2,0.1c0.1,0.1,0.3,0.2,0.1,0.4C76,29,75.9,29.1,75.7,29
	c-0.1-0.1-0.3-0.3-0.2-0.4c0.1-0.1,0.2-0.2,0.4-0.2c-0.1-0.1-0.2-0.3-0.1-0.4c0.1-0.1,0.1-0.1,0.2-0.2C76.1,27.7,76.2,27.9,76.4,28"
	/>
<path class="st3" d="M86.6,28.1c0,0.1-0.1,0.3-0.2,0.4c-0.2,0.1-0.3-0.1-0.4-0.1c-0.1-0.2,0.1-0.4,0.2-0.4
	C86.3,27.8,86.5,28,86.6,28.1"/>
<path class="st3" d="M89,28.1c-0.1,0.1,0,0.1,0,0.1c0.1-0.1,0.3-0.2,0.4-0.1c0.1,0.1,0.2,0.3,0.1,0.4c-0.1,0.1-0.2,0.3-0.4,0.1
	c-0.2-0.1-0.1-0.3-0.3-0.4c-0.1,0.1-0.2,0.2-0.4,0.1c-0.1-0.1-0.3-0.2-0.2-0.4c0.1-0.1,0.1-0.2,0.3-0.3C88.8,27.9,88.9,28,89,28.1"
	/>
<path class="st3" d="M91.3,28.1c0.1,0.1-0.1,0.3-0.2,0.4c-0.1,0.1-0.3-0.1-0.4-0.1c-0.1-0.2,0.1-0.4,0.1-0.4
	C91.1,27.8,91.2,28,91.3,28.1"/>
<path class="st3" d="M77.1,28.2v0.1c0.1-0.1,0.3-0.2,0.4-0.1c0.1,0.1,0.3,0.2,0.2,0.4c-0.1,0.1-0.3,0.3-0.4,0.1
	c-0.1-0.1-0.2-0.2-0.3-0.3c-0.1,0.1-0.2,0.2-0.4,0.1c-0.1-0.1-0.2-0.2-0.2-0.4C76.6,27.9,76.9,27.9,77.1,28.2"/>
<path class="st3" d="M79.4,28.2c0.1,0.2-0.1,0.3-0.3,0.4H79c0.1,0.1,0.3,0.3,0.1,0.4c-0.1,0.1-0.2,0.2-0.4,0.2
	c-0.1-0.1-0.3-0.3-0.2-0.4c0.1-0.1,0.2-0.2,0.4-0.3c-0.1-0.1-0.3-0.2-0.1-0.4C78.9,27.9,79.3,28,79.4,28.2"/>
<path class="st3" d="M81.7,28.3c0,0.1-0.1,0.3-0.2,0.4c-0.1,0-0.1,0-0.1,0.1c0.1,0.1,0.1,0.2,0.1,0.4c-0.1,0.1-0.2,0.3-0.4,0.2
	c-0.1-0.1-0.3-0.2-0.3-0.4c-0.1,0.1-0.2,0.3-0.4,0.2c-0.1-0.1-0.4-0.3-0.2-0.4c0.1-0.1,0.2-0.3,0.4-0.2c0.2,0.1,0.2,0.5,0.4,0.3
	l0.3-0.1c-0.1-0.1-0.3-0.2-0.1-0.4C81.2,27.9,81.7,28,81.7,28.3"/>
<path class="st3" d="M72.8,28.1c0,0.1-0.1,0-0.1,0.1V28C72.7,28.1,72.7,28,72.8,28.1"/>
<path class="st3" d="M75.4,28.4c0.1,0.2-0.1,0.4-0.2,0.4c-0.1,0-0.3-0.1-0.4-0.2c-0.1-0.1,0.1-0.4,0.2-0.4
	C75.1,28.1,75.3,28.3,75.4,28.4"/>
<path class="st3" d="M80.2,28.4c0.1,0.2-0.1,0.4-0.2,0.4c-0.2,0-0.4-0.1-0.4-0.2c-0.1-0.2,0.1-0.4,0.3-0.4
	C79.9,28.2,80.1,28.3,80.2,28.4"/>
<path class="st3" d="M82.5,28.4c0.1,0.2-0.1,0.3-0.1,0.4c-0.1,0.1-0.1,0-0.2,0.1c0.1,0.1,0.3,0.3,0.1,0.4c-0.1,0.1-0.2,0.2-0.4,0.1
	c-0.1-0.1-0.2-0.2-0.1-0.4c0.1-0.1,0.2-0.2,0.4-0.3c-0.1-0.1-0.2-0.2-0.1-0.4c0.1-0.1,0.1-0.2,0.3-0.2S82.4,28.3,82.5,28.4"/>
<path class="st3" d="M84.9,28.4c0,0.1,0.1,0.1,0.1,0.1c0.1-0.1,0.2-0.2,0.4-0.1c0.1,0.1,0.2,0.3,0.1,0.4C85.5,29,85.3,29,85.2,29
	c0.1,0.1,0.3,0.2,0.1,0.4c-0.1,0.1-0.2,0.3-0.4,0.1c-0.1-0.1-0.3-0.2-0.2-0.4c0.1-0.1,0.2-0.2,0.4-0.3c-0.1-0.1-0.1-0.3-0.3-0.3
	c-0.1,0.1-0.2,0.1-0.4,0.1c-0.1-0.1-0.2-0.2-0.1-0.4C84.5,28.1,84.8,28.2,84.9,28.4"/>
<path class="st3" d="M78.4,28.6c0.1,0.1,0,0.2-0.1,0.4C78.3,29,78.1,29,78,29c-0.1-0.1-0.2-0.3-0.1-0.4
	C77.9,28.3,78.4,28.4,78.4,28.6"/>
<path class="st3" d="M83.2,28.6c0,0.1-0.1,0.2-0.1,0.4C83,29,82.9,29,82.8,29c-0.1-0.1-0.3-0.3-0.2-0.4
	C82.7,28.3,83.1,28.4,83.2,28.6"/>
<path class="st3" d="M88,28.6c0,0.1,0.1,0.1,0.1,0.1c0.1-0.1,0.3-0.2,0.4-0.1c0.1,0.1,0.2,0.3,0.1,0.4c-0.1,0.1-0.2,0.2-0.4,0.2
	c0.1,0.1,0.3,0.2,0.1,0.4c-0.1,0.1-0.2,0.4-0.4,0.2c-0.1-0.1-0.2-0.2-0.1-0.4c0.1-0.1,0.2-0.2,0.4-0.3c-0.1-0.1-0.1-0.2-0.2-0.4
	c-0.1,0.1-0.2,0.3-0.4,0.2c-0.1-0.1-0.2-0.3-0.1-0.4c0.1-0.1,0.1-0.1,0.2-0.2C87.8,28.4,87.9,28.5,88,28.6"/>
<path class="st3" d="M84,28.8c0,0.1,0,0.1,0.1,0.1c0.1-0.1,0.2-0.2,0.4-0.1c0.1,0.1,0.3,0.3,0.2,0.4c-0.1,0.1-0.2,0.3-0.4,0.1
	C84,29.3,84,29.2,84,29.1c-0.1,0.1-0.3,0.2-0.4,0.1c-0.1-0.1-0.2-0.2-0.1-0.4C83.5,28.5,83.8,28.5,84,28.8"/>
<path class="st3" d="M86.3,28.8c0.1,0.1-0.1,0.3-0.2,0.4c-0.2,0.1-0.4-0.1-0.4-0.2c0-0.2,0.1-0.4,0.2-0.4
	C86.1,28.6,86.2,28.7,86.3,28.8"/>
<path class="st3" d="M91.1,28.8c0,0.1,0.1,0.1,0.1,0.1c0.1-0.1,0.2-0.2,0.4-0.1c0.1,0.1,0.3,0.2,0.2,0.4c-0.1,0.1-0.2,0.2-0.4,0.2
	c0.1,0.1,0.2,0.3,0.1,0.4c-0.1,0.1-0.2,0.2-0.4,0.1c-0.1-0.1-0.3-0.1-0.3-0.4c-0.1,0.1-0.2,0.2-0.4,0.2c-0.1-0.1-0.1-0.1-0.2-0.3
	c0-0.1,0-0.3,0.1-0.4c0.1,0,0.2,0,0.2-0.1c-0.2-0.1-0.2-0.3-0.1-0.4C90.6,28.5,91,28.5,91.1,28.8"/>
<path class="st3" d="M74.4,29c0,0.1-0.1,0.3-0.2,0.4c-0.1,0-0.1,0-0.1,0.1c0.1,0.1,0.2,0.2,0.1,0.4c-0.1,0.1-0.3,0.3-0.4,0.2
	c-0.1-0.1-0.3-0.2-0.2-0.4c0.1-0.1,0.2-0.2,0.4-0.2c-0.1-0.1-0.2-0.3-0.1-0.4C73.9,28.6,74.3,28.7,74.4,29"/>
<path class="st3" d="M76.9,29c0,0,0,0.1,0.1,0.1c0.1-0.1,0.2-0.2,0.4-0.1c0.1,0.1,0.3,0.2,0.2,0.4c0,0.3-0.6,0.2-0.2,0.4
	c0.1,0.2-0.1,0.4-0.3,0.4c-0.1,0.1-0.2-0.1-0.4-0.2c-0.1-0.1,0.1-0.3,0.2-0.4c0.1,0.1,0.1,0,0.1,0c-0.1-0.1-0.1-0.2-0.2-0.4
	c-0.1,0.1-0.2,0.2-0.4,0.1c-0.1-0.1-0.3-0.2-0.2-0.4C76.4,28.6,76.7,28.7,76.9,29"/>
<path class="st3" d="M87.1,29c0,0.1,0,0.1,0.1,0.1c0.1-0.1,0.3-0.2,0.4-0.1c0.1,0.1,0.2,0.1,0.2,0.3c0,0.1-0.1,0.3-0.3,0.4
	c-0.1,0-0.3-0.1-0.4-0.3c0.1,0,0-0.1,0-0.1c-0.1,0.1-0.3,0.2-0.4,0.1c-0.1-0.1-0.3-0.2-0.1-0.4C86.6,28.8,86.9,28.8,87.1,29"/>
<path class="st3" d="M89.4,29c0,0.1-0.1,0.4-0.3,0.4c-0.1,0-0.3-0.1-0.4-0.2c-0.1-0.2,0.1-0.4,0.3-0.4C89.2,28.8,89.3,28.9,89.4,29"
	/>
<path class="st3" d="M75.1,29.2c0.1,0.1-0.1,0.3-0.2,0.4c-0.1,0.1-0.1,0-0.3-0.1c-0.1-0.1-0.1-0.2-0.1-0.4
	C74.6,28.8,75.1,29,75.1,29.2"/>
<path class="st3" d="M79.9,29.1v0.2c0.1-0.1,0.3-0.3,0.4-0.1c0.1,0.1,0.2,0.2,0.2,0.4c-0.1,0.1-0.2,0.2-0.4,0.3
	c0.1,0.1,0.2,0.2,0.1,0.4c-0.1,0.1-0.3,0.3-0.4,0.2c-0.1-0.1-0.3-0.2-0.2-0.4c0.1-0.1,0.2-0.2,0.4-0.2c0-0.1-0.1-0.2-0.2-0.4
	c-0.1,0.1-0.2,0.3-0.4,0.1c-0.1-0.1-0.3-0.2-0.2-0.4C79.4,28.9,79.8,28.9,79.9,29.1"/>
<path class="st3" d="M90.1,29.3c0,0.1-0.1,0.3-0.2,0.4c-0.1,0.1-0.3-0.1-0.4-0.2c0-0.1,0.1-0.3,0.3-0.4C89.9,29,90.1,29.1,90.1,29.3
	"/>
<path class="st3" d="M91.2,29.4c-0.1,0-0.2,0.1-0.3,0.2c0-0.1-0.1-0.2-0.2-0.4c0.1,0,0.2-0.1,0.3-0.1C91.1,29.2,91.1,29.3,91.2,29.4
	"/>
<path class="st3" d="M75.9,29.4C75.9,29.4,75.9,29.5,75.9,29.4c0.1,0.1,0.3-0.1,0.4,0c0.1,0.1,0.3,0.2,0.1,0.4
	c-0.1,0.1-0.2,0.2-0.4,0.2c-0.1-0.1-0.2-0.2-0.3-0.4c-0.1,0.1-0.2,0.2-0.4,0.1c-0.1-0.1-0.3-0.2-0.2-0.4c0.1-0.1,0.1-0.1,0.3-0.2
	C75.7,29.1,75.8,29.3,75.9,29.4"/>
<path class="st3" d="M78.2,29.4c0.1,0.1-0.1,0.3-0.2,0.4c-0.1,0-0.3-0.1-0.4-0.2c0-0.1,0.1-0.3,0.3-0.4C78,29.1,78.2,29.3,78.2,29.4
	"/>
<path class="st3" d="M83,29.4L83,29.4c0.1,0.1,0.3-0.1,0.4,0c0.1,0.1,0.3,0.2,0.1,0.4c-0.1,0.1-0.2,0.2-0.4,0.2
	c-0.1-0.1-0.2-0.2-0.2-0.4c-0.1,0.1-0.2,0.1-0.4,0.2c0.1,0.1,0.2,0.2,0.1,0.4c-0.1,0.1-0.2,0.3-0.4,0.2c-0.1-0.1-0.2-0.3-0.2-0.4
	c0.1-0.1,0.3-0.1,0.4-0.3c-0.1-0.1-0.2-0.1-0.1-0.3c0.1-0.1,0.1-0.2,0.3-0.3C82.8,29.1,83,29.3,83,29.4"/>
<path class="st3" d="M79,29.6C79,29.6,78.9,29.7,79,29.6c0.1,0,0.3-0.1,0.4-0.1c0.1,0.1,0.3,0.3,0.1,0.4c-0.1,0.1-0.2,0.3-0.4,0.2
	c-0.1-0.1-0.1-0.2-0.2-0.4c-0.1,0.1-0.2,0.2-0.4,0.1c-0.1-0.1-0.3-0.2-0.2-0.4C78.5,29.3,78.9,29.3,79,29.6"/>
<path class="st3" d="M81.3,29.6c0,0.1-0.1,0.3-0.2,0.4c-0.1,0.1-0.3-0.1-0.4-0.2c0-0.2,0.1-0.3,0.3-0.4
	C81.1,29.3,81.2,29.5,81.3,29.6"/>
<path class="st3" d="M86.1,29.6c0,0.1-0.1,0.3-0.2,0.4c-0.1,0-0.2,0-0.1,0.1c0.1,0.1,0.1,0.3,0.1,0.4c-0.1,0.1-0.2,0.2-0.4,0.2
	c-0.1-0.1-0.2-0.1-0.2-0.3c0-0.1,0.1-0.3,0.2-0.4c0.1,0.1,0.1,0,0.1,0c-0.1-0.1-0.2-0.3-0.1-0.4C85.6,29.3,86,29.3,86.1,29.6"/>
<path class="st3" d="M82.1,29.8c0,0.1-0.1,0.3-0.3,0.4c-0.1,0.1-0.2-0.1-0.4-0.2c-0.1-0.1,0.1-0.3,0.2-0.4
	C81.8,29.5,82,29.7,82.1,29.8"/>
<path class="st3" d="M84.4,29.8c0.1,0.1-0.1,0.3-0.2,0.4c-0.2,0-0.4-0.1-0.4-0.2c0-0.2,0.1-0.4,0.2-0.4
	C84.2,29.5,84.3,29.7,84.4,29.8"/>
<path class="st3" d="M86.8,29.8c0,0.1,0,0.1,0.1,0.1c0.1-0.1,0.3-0.3,0.4-0.1c0.1,0.1,0.2,0.2,0.1,0.4c-0.1,0.1-0.2,0.3-0.4,0.2
	c-0.1-0.1-0.2-0.2-0.2-0.4c-0.1,0.1-0.3,0.2-0.4,0.1c-0.1-0.1-0.3-0.3-0.1-0.4c0-0.1,0.1-0.1,0.2-0.2C86.6,29.5,86.8,29.7,86.8,29.8
	"/>
<path class="st3" d="M89.2,29.8c0,0.1-0.1,0.3-0.3,0.4c0,0-0.1,0-0.1,0.1c0.1,0.1,0.1,0.2,0.1,0.4c-0.1,0.2-0.4,0.1-0.6,0.1
	c-0.1-0.1-0.1-0.3-0.1-0.4c0.1-0.1,0.3-0.2,0.4-0.2c-0.1-0.1-0.2-0.3-0.1-0.4c0.1-0.1,0.2-0.1,0.3-0.2C89,29.5,89.1,29.7,89.2,29.8"
	/>
<path class="st3" d="M74.9,29.9c0.1,0,0,0.1,0.1,0.1c0.1-0.1,0.3-0.3,0.4-0.1c0.1,0.1,0.2,0.3,0.1,0.4c-0.1,0.1-0.3,0.2-0.4,0.1
	c-0.1-0.1-0.1-0.2-0.2-0.4c-0.1,0.1-0.2,0.2-0.4,0.2c0.1,0.1,0.2,0.2,0.1,0.4c-0.1,0.1-0.4,0-0.6,0c-0.1-0.1,0-0.1,0.1-0.3
	c0.1-0.1,0.2-0.1,0.3-0.1c-0.1-0.1-0.3-0.3-0.1-0.4C74.5,29.6,74.8,29.6,74.9,29.9"/>
<path class="st3" d="M85.2,30c0,0.1-0.1,0.3-0.3,0.4c-0.1,0-0.3-0.1-0.4-0.2c-0.1-0.1,0.1-0.3,0.2-0.4C84.9,29.7,85,29.9,85.2,30"/>
<path class="st3" d="M89.9,30L89.9,30c0.1,0.1,0.3-0.1,0.4-0.1c0.1,0.1,0.1,0.1,0.2,0.3c0,0.1-0.1,0.3-0.2,0.4
	c-0.1,0-0.4-0.1-0.4-0.2c0-0.1,0.1-0.1-0.1-0.1c-0.1,0.1-0.2,0.2-0.4,0.1c-0.1-0.1-0.3-0.2-0.2-0.4c0.1-0.1,0.1-0.1,0.3-0.2
	C89.7,29.8,89.9,29.9,89.9,30"/>
<path class="st3" d="M78,30.1c0.1,0.1-0.1,0.4-0.2,0.4c-0.1,0-0.1,0.1-0.1,0.1c0,0.1,0.1,0.1,0.1,0.1c-0.1,0.1-0.4,0.1-0.6,0
	c0.1-0.1,0.2-0.1,0.4-0.2c-0.1-0.1-0.3-0.2-0.1-0.4c0-0.1,0.1-0.2,0.3-0.2S77.9,30,78,30.1"/>
<path class="st3" d="M88.2,30.2c0.1,0.2-0.1,0.4-0.2,0.4c-0.1,0.1-0.4-0.1-0.4-0.3c0-0.1,0.1-0.3,0.3-0.4C88,30,88.1,30,88.2,30.2"
	/>
<path class="st3" d="M74,30.3c0.1,0.2-0.1,0.3-0.2,0.4c-0.2,0-0.4-0.1-0.4-0.3c-0.1-0.1,0.1-0.1,0.1-0.3C73.6,30,73.8,30.1,74,30.3"
	/>
<path class="st3" d="M76.4,30.3c0,0.2-0.1,0.3-0.3,0.4c-0.1,0-0.3-0.1-0.4-0.3c-0.1-0.1,0.1-0.3,0.2-0.4
	C76.1,30,76.3,30.2,76.4,30.3"/>
<path class="st3" d="M78.8,30.3c-0.1,0.1,0,0.1,0,0.1c0.1-0.1,0.2-0.2,0.3-0.1c0.1,0,0.3,0.1,0.4,0.2c-0.1,0.1,0,0.1-0.1,0.2
	c-0.1-0.1-0.5,0.1-0.6-0.2c-0.1,0.1-0.2,0.3-0.4,0.1c-0.1-0.1-0.3-0.2-0.2-0.4c0-0.1,0.1-0.1,0.2-0.2C78.6,30.1,78.7,30.2,78.8,30.3
	"/>
<path class="st3" d="M81.1,30.3c0.1,0.2-0.1,0.3-0.2,0.4c-0.1,0-0.3-0.1-0.4-0.3c-0.1-0.1,0.1-0.3,0.1-0.4
	C80.9,30,81,30.2,81.1,30.3"/>
<path class="st3" d="M83.5,30.3c0,0.2-0.1,0.4-0.3,0.4c-0.1,0-0.3-0.1-0.4-0.3c-0.1-0.2,0.1-0.3,0.2-0.4
	C83.2,30,83.4,30.2,83.5,30.3"/>
<path class="st3" d="M91.3,30.4c0.1,0.2-0.1,0.3-0.1,0.4c-0.1-0.1-0.4,0.1-0.5-0.2c0-0.1,0.1-0.3,0.2-0.4
	C91.1,30.1,91.2,30.3,91.3,30.4"/>
<path class="st3" d="M86.6,30.6c0,0.1,0,0.2-0.1,0.2c-0.1-0.1-0.4,0.1-0.5-0.1c-0.1-0.2,0.1-0.3,0.2-0.4
	C86.3,30.3,86.5,30.4,86.6,30.6"/>
<path class="st3" d="M77.1,30.6c0,0.1,0,0.1-0.1,0.2c-0.2-0.1-0.5,0.1-0.6-0.1c0-0.1,0.1-0.2,0.2-0.3C76.9,30.3,77,30.4,77.1,30.6"
	/>
<path class="st3" d="M81.8,30.6c0,0.1,0.1,0.1,0.1,0.1c-0.2,0.1-0.4,0.1-0.6,0.1c-0.1-0.1-0.1-0.2-0.1-0.3
	C81.4,30.2,81.7,30.3,81.8,30.6"/>
<path class="st3" d="M84.2,30.6c0,0.1,0,0.2-0.1,0.2c-0.2,0-0.4,0-0.6-0.1c0-0.2,0.1-0.3,0.3-0.4C84,30.3,84.1,30.4,84.2,30.6"/>
<path class="st3" d="M80.1,30.7c-0.1,0.1-0.3,0-0.4,0.1l-0.1-0.1c0.1-0.1,0.2-0.3,0.4-0.1C80,30.6,80.1,30.6,80.1,30.7"/>
<path class="st3" d="M82.5,30.7c-0.1,0.1-0.4,0.1-0.6,0c0.1-0.1,0.3-0.3,0.4-0.1C82.4,30.6,82.4,30.6,82.5,30.7"/>
<path class="st3" d="M84.9,30.7c-0.1,0.1-0.4,0-0.5,0h-0.1c0.1-0.1,0.3-0.3,0.4-0.1C84.8,30.6,84.8,30.6,84.9,30.7"/>
<path class="st3" d="M87.2,30.7c-0.1,0.1-0.4,0.1-0.5,0c0.1-0.1,0.3-0.3,0.4-0.1C87.1,30.6,87.2,30.6,87.2,30.7"/>
<path class="st3" d="M89.6,30.7c-0.1,0.1-0.4,0.1-0.5,0c0.1-0.1,0.2-0.3,0.4-0.1C89.5,30.6,89.6,30.6,89.6,30.7"/>
<path class="st3" d="M72.9,30.7c-0.1,0.1-0.2,0-0.3,0.1l-0.1-0.1C72.6,30.6,72.8,30.6,72.9,30.7"/>
<path class="st3" d="M75.2,30.7c-0.1,0.1-0.1,0-0.3,0.1v-0.1C74.9,30.6,75.1,30.6,75.2,30.7"/>
<path class="st0" d="M79.5,31.3c0.1,0,0.3,0,0.3,0.2v11.8c0,1.5-0.7,2.9-1.8,3.9c-1.6,1.5-3.9,2.5-5.8,2.8c-4.2-0.4-7.9-3.1-7.9-7.5
	l0-10.9c0-0.2,0.2-0.3,0.3-0.3"/>
<path class="st1" d="M79.2,31.9v11.1c0,3.1-3.6,5.9-7.1,6.4c-3.9-0.6-6.8-2.3-7.3-6.9l0-10.6c0-0.1,0.1-0.2,0.1-0.2h14.2"/>
<path class="st1" d="M71.8,36.7c0.3,0.1,0.1,0.4,0.3,0.6c0.1,0.4-0.1,0.8,0,1.2c-0.1,0.1-0.1,0.4-0.4,0.3l-0.1-0.1
	c0-0.5,0.1-1.1-0.1-1.6c0.1-0.3-0.2-0.5-0.4-0.7l0.1-0.1C71.4,36.4,71.8,36.4,71.8,36.7"/>
<path class="st1" d="M81.6,37.2c-0.1,0.1-0.3,0.1-0.3,0.2c-0.1-0.1-0.1-0.2-0.1-0.3C81.3,37.1,81.5,37.1,81.6,37.2"/>
<path class="st4" d="M85.3,37.1"/>
<path class="st3" d="M84.3,37.4c0,0.1,0.1,0.1,0.1,0.1c0.1-0.1,0.2-0.2,0.4-0.1c0.1,0.1,0.3,0.2,0.2,0.4c-0.1,0.1-0.2,0.4-0.4,0.2
	c-0.1-0.1-0.1-0.2-0.2-0.4c-0.1,0.1-0.3,0.3-0.4,0.1c-0.1-0.1-0.2-0.2-0.1-0.4C83.8,37.2,84.2,37.2,84.3,37.4"/>
<path class="st3" d="M86.6,37.4c0.1,0.1,0,0.2-0.1,0.3c-0.1,0.1-0.2,0.1-0.3,0.1C86,37.7,86,37.6,86,37.4c0-0.1,0.1-0.2,0.2-0.2
	C86.4,37.2,86.6,37.3,86.6,37.4"/>
<path class="st3" d="M87.3,37.7c0,0.1,0.1,0.1,0.1,0.1c0.1-0.1,0.2-0.2,0.4-0.1c0.1,0.1,0.2,0.2,0.1,0.4c-0.1,0.1-0.1,0.2-0.2,0.3
	c-0.1,0-0.4-0.1-0.4-0.3c0-0.1-0.1-0.1-0.1-0.1C87.3,38,87.1,38.1,87,38c-0.2-0.1-0.3-0.2-0.2-0.4C86.9,37.4,87.3,37.4,87.3,37.7"/>
<path class="st3" d="M89.7,37.6c0.1,0.2-0.1,0.3-0.2,0.5c-0.2,0-0.3-0.2-0.4-0.3c-0.1-0.2,0.1-0.3,0.3-0.4
	C89.5,37.4,89.6,37.5,89.7,37.6"/>
<path class="st3" d="M90.5,37.9c0,0.2-0.1,0.3-0.2,0.4c-0.2,0.1-0.4-0.1-0.4-0.2c-0.1-0.1,0.1-0.3,0.2-0.4
	C90.3,37.6,90.4,37.7,90.5,37.9"/>
<path class="st3" d="M83.3,37.9c0,0.1,0,0.2,0.1,0.1c0.1-0.1,0.2-0.1,0.4-0.1c0.1,0.1,0.3,0.3,0.2,0.4c-0.1,0.1-0.2,0.3-0.4,0.2
	c-0.1-0.1-0.2-0.2-0.2-0.4c-0.1,0.1-0.2,0.1-0.4,0.2c0.1,0.1,0.2,0.2,0.1,0.4c-0.1,0.1-0.2,0.3-0.4,0.2c-0.1-0.1-0.2-0.3-0.1-0.4
	c0-0.2,0.6-0.2,0.1-0.4c0-0.2,0.1-0.4,0.3-0.4C83.1,37.7,83.2,37.8,83.3,37.9"/>
<path class="st3" d="M81.6,38.2c0.1,0.1,0,0.4-0.1,0.4c-0.2,0-0.4-0.1-0.4-0.2c-0.1-0.2,0.1-0.4,0.2-0.4
	C81.4,37.9,81.5,38,81.6,38.2"/>
<path class="st3" d="M86.4,38.2c0.1,0.1-0.1,0.4-0.2,0.4c0,0-0.1,0-0.1,0.1c0.1,0.1,0.2,0.2,0.1,0.4c-0.1,0.1-0.2,0.3-0.4,0.2
	c-0.1-0.1-0.2-0.3-0.1-0.4c0.1-0.1,0.2-0.1,0.4-0.3c-0.1-0.1-0.2-0.2-0.1-0.4C86,37.9,86.3,37.9,86.4,38.2"/>
<path class="st3" d="M82.4,38.4c0,0.1-0.1,0.3-0.2,0.4c-0.1,0-0.2,0-0.4-0.1c-0.1-0.1-0.1-0.2-0.1-0.3C81.9,38,82.3,38.2,82.4,38.4"
	/>
<path class="st3" d="M84.8,38.4c0,0.1-0.1,0.3-0.3,0.4c-0.1,0.1-0.1-0.1-0.3-0.1c-0.1-0.1-0.1-0.2-0.1-0.4
	C84.2,38,84.7,38.2,84.8,38.4"/>
<path class="st3" d="M87.2,38.4L87.2,38.4c0.1,0.1,0.2-0.1,0.4-0.1c0.1,0.1,0.3,0.3,0.2,0.4c-0.1,0.1-0.2,0.3-0.4,0.2
	c-0.1-0.1-0.2-0.2-0.2-0.4c-0.1,0-0.2,0.2-0.4,0.1c-0.1-0.1-0.2-0.1-0.2-0.3c-0.1-0.1,0.1-0.2,0.2-0.4C87,38.2,87.1,38.2,87.2,38.4"
	/>
<path class="st3" d="M89.5,38.4c0.1,0.1-0.1,0.2-0.2,0.4h-0.1c0,0.1,0.1,0.1,0.1,0.2c0.1,0.2-0.1,0.3-0.2,0.4
	c-0.1,0.1-0.4-0.1-0.4-0.2c0-0.2,0.1-0.3,0.4-0.4c0,0,0.1,0,0.1-0.1c-0.1-0.1-0.3-0.2-0.1-0.4C89,38,89.4,38.2,89.5,38.4"/>
<path class="st3" d="M91.9,38.4c0,0.1-0.1,0.3-0.2,0.4h-0.1c0.1,0.1,0.2,0.3,0.1,0.4c-0.1,0.1-0.3,0.3-0.4,0.1
	c-0.1-0.1-0.3-0.2-0.2-0.4c0.1-0.2,0.3-0.1,0.4-0.3c-0.1-0.1-0.1-0.2-0.1-0.4C91.3,38.1,91.8,38.1,91.9,38.4"/>
<path class="st3" d="M85.5,38.6c0,0.2-0.1,0.4-0.2,0.4c-0.2,0-0.4-0.1-0.4-0.3c0-0.1,0.1-0.3,0.2-0.4C85.2,38.4,85.4,38.5,85.5,38.6
	"/>
<path class="st3" d="M90.3,38.6c0,0.1-0.1,0.1,0,0.1c0.1-0.1,0.2-0.2,0.4-0.1c0.1,0.1,0.3,0.3,0.1,0.4c-0.1,0.1-0.2,0.2-0.4,0.2
	c-0.1-0.1-0.2-0.2-0.3-0.4C90.1,39,90,39.1,89.8,39c-0.1-0.1-0.2-0.3-0.1-0.5C89.8,38.3,90.1,38.4,90.3,38.6"/>
<path class="st3" d="M88.6,38.8c0,0.2-0.1,0.4-0.2,0.4c-0.1,0-0.4-0.1-0.4-0.2c-0.1-0.2,0.1-0.4,0.2-0.4
	C88.3,38.5,88.5,38.7,88.6,38.8"/>
<path class="st3" d="M83.8,39c0,0.1-0.1,0.3-0.2,0.4c0,0.1-0.1,0-0.1,0.1c0.1,0.1,0.2,0.3,0.1,0.4c-0.1,0.1-0.2,0.2-0.4,0.1
	c-0.1-0.1-0.2-0.2-0.1-0.4c0-0.1,0.1-0.2,0.2-0.3h0.1c0.1-0.1-0.2-0.2-0.1-0.4C83.3,38.6,83.7,38.7,83.8,39"/>
<path class="st3" d="M82.2,39.2c0,0,0,0.1,0.1,0.1c0.1-0.1,0.2-0.3,0.4-0.1c0.1,0.1,0.3,0.2,0.1,0.4c-0.1,0.2-0.2,0.3-0.4,0.2
	c-0.1-0.1-0.2-0.2-0.2-0.4c-0.1,0.1-0.3,0.3-0.4,0.1c-0.1-0.1-0.2-0.3-0.2-0.4C81.7,38.9,82,38.9,82.2,39.2"/>
<path class="st3" d="M84.5,39.1c0.1,0.2-0.1,0.4-0.2,0.4c0,0-0.1,0-0.1,0.1c0.1,0.1,0.3,0.2,0.1,0.4c-0.1,0.1-0.2,0.2-0.4,0.1
	c-0.1-0.1-0.3-0.2-0.2-0.4c0.1-0.1,0.2-0.2,0.4-0.2c-0.1-0.1-0.3-0.3-0.1-0.4C84,38.8,84.4,38.9,84.5,39.1"/>
<path class="st3" d="M86.8,39.2c0,0.1-0.1,0.3-0.2,0.4c-0.1,0.1-0.1,0-0.1,0.1c0.1,0.1,0.1,0.2,0.1,0.4c-0.1,0.1-0.2,0.3-0.4,0.2
	c-0.1-0.1-0.3-0.3-0.2-0.4c0.1-0.1,0.2-0.2,0.4-0.2c-0.1-0.1-0.3-0.2-0.1-0.4C86.4,38.8,86.8,38.9,86.8,39.2"/>
<path class="st3" d="M85.3,39.4c0,0.1,0,0.1,0.1,0.1c0.1-0.1,0.2-0.3,0.4-0.1c0.1,0.1,0.3,0.2,0.1,0.4c-0.1,0.1-0.2,0.2-0.4,0.1
	c-0.2-0.1-0.1-0.3-0.3-0.4c-0.1,0.1-0.2,0.2-0.4,0.1c-0.1-0.1-0.2-0.2-0.2-0.4c0.1-0.1,0.2-0.2,0.3-0.3C85,39.1,85.2,39.2,85.3,39.4
	"/>
<path class="st3" d="M87.6,39.4c0.1,0.1,0,0.3-0.1,0.4c-0.1,0.1-0.1,0-0.2,0.1c0.1,0.1,0.3,0.3,0.1,0.4c-0.1,0.1-0.2,0.2-0.4,0.1
	c-0.1-0.1-0.3-0.3-0.2-0.4c0.1-0.1,0.2-0.2,0.4-0.2c-0.1-0.1-0.2-0.2-0.1-0.4c0.1-0.1,0.1-0.2,0.3-0.3
	C87.4,39.1,87.5,39.2,87.6,39.4"/>
<path class="st3" d="M89.9,39.4c0,0.1-0.1,0.3-0.2,0.4c-0.1,0-0.1,0-0.1,0.1c0.1,0.1,0.2,0.3,0.1,0.4c-0.1,0.1-0.2,0.2-0.4,0.1
	c-0.1-0.1-0.2-0.2-0.2-0.4c-0.1,0.1-0.2,0.1-0.3,0.1c-0.1,0-0.3-0.1-0.4-0.2c0-0.2,0.1-0.3,0.3-0.4c0.1-0.1,0.3,0.1,0.4,0.3
	c0,0,0,0.1,0.1,0.1c0.1-0.1,0.2-0.2,0.4-0.2c-0.1-0.1-0.3-0.2-0.2-0.4c0.1-0.1,0.2-0.1,0.3-0.2C89.7,39.1,89.9,39.2,89.9,39.4"/>
<path class="st4" d="M81,39.3L81,39.3l-0.1-0.1C80.9,39.2,81,39.2,81,39.3"/>
<path class="st3" d="M88.3,39.5c0,0.2-0.1,0.4-0.3,0.4c-0.1,0-0.3-0.1-0.4-0.2c-0.1-0.1,0.1-0.2,0.1-0.3
	C87.9,39.2,88.2,39.4,88.3,39.5"/>
<path class="st3" d="M90.6,39.6c0.1,0.1-0.1,0.2-0.1,0.4c-0.1,0.1-0.2-0.1-0.2,0.1c0.1,0.1,0.2,0.2,0.1,0.4
	c-0.1,0.1-0.2,0.3-0.4,0.2c-0.1-0.1-0.3-0.3-0.2-0.4c0.1-0.1,0.2-0.2,0.4-0.2c-0.1-0.1-0.3-0.4-0.1-0.5
	C90.2,39.2,90.6,39.4,90.6,39.6"/>
<path class="st3" d="M91.4,39.8c0.1,0.1-0.1,0.3-0.2,0.4c-0.2,0.1-0.4-0.1-0.4-0.2c-0.1-0.2,0.1-0.3,0.2-0.4
	C91.2,39.5,91.3,39.7,91.4,39.8"/>
<path class="st3" d="M82.6,40.2c0,0.1-0.1,0.2-0.2,0.3c-0.2,0.1-0.4-0.1-0.4-0.2c0-0.1,0.1-0.3,0.2-0.4C82.4,39.8,82.5,40,82.6,40.2
	"/>
<path class="st3" d="M85,40.1c0,0,0,0.1,0.1,0.1c0.1-0.1,0.2-0.2,0.4-0.1c0.1,0.1,0.2,0.2,0.2,0.4c-0.1,0.1-0.3,0.4-0.4,0.2
	c-0.1-0.1-0.2-0.2-0.3-0.4c-0.1,0.1-0.1,0.2-0.4,0.1c-0.1-0.1-0.3-0.2-0.2-0.4c0.1-0.1,0.2-0.2,0.3-0.2C84.8,39.9,84.9,40,85,40.1"
	/>
<path class="st3" d="M83.3,40.3c0.1,0.2-0.1,0.3-0.2,0.4c-0.1,0-0.3-0.1-0.4-0.3c0-0.1,0.1-0.3,0.3-0.4C83.2,40,83.3,40.2,83.3,40.3
	"/>
<path class="st3" d="M88.1,40.3c0,0,0,0.1,0.1,0.1c0.1-0.1,0.2-0.2,0.4-0.1c0.1,0.1,0.3,0.2,0.2,0.4c-0.1,0.1-0.3,0.2-0.4,0.1
	c-0.3,0-0.2-0.6-0.5-0.1c-0.1,0-0.3-0.1-0.4-0.3c0-0.1,0.1-0.3,0.3-0.4C87.9,40,88.1,40.2,88.1,40.3"/>
<path class="st3" d="M84,40.5c0.1,0.1,0,0.2,0.1,0.2c0.1-0.1,0.1-0.2,0.3-0.1c0.1,0.1,0.4,0.2,0.2,0.4c-0.1,0.1-0.2,0.2-0.4,0.1
	C84.2,41,84,40.9,84,40.7c-0.1,0.1-0.2,0.3-0.4,0.1c-0.1-0.1-0.3-0.2-0.2-0.4C83.5,40.2,84,40.2,84,40.5"/>
<path class="st3" d="M86.4,40.5c0.1,0.2-0.1,0.4-0.2,0.4c-0.1,0.1-0.3-0.1-0.4-0.2c0-0.1,0.1-0.4,0.3-0.4
	C86.2,40.3,86.3,40.4,86.4,40.5"/>
<path class="st3" d="M91.2,40.5c0,0.1-0.1,0.2,0.1,0.2c0.1-0.1,0.3-0.3,0.4-0.1c0.1,0.1,0.2,0.3,0.1,0.4c-0.1,0.1-0.2,0.2-0.4,0.1
	c-0.1-0.1-0.2-0.2-0.3-0.4c-0.1,0.1-0.2,0.1-0.3,0.3c0.1,0.1,0.1,0.2,0.1,0.4c-0.1,0.1-0.2,0.2-0.4,0.1c-0.1-0.1-0.2-0.2-0.2-0.4
	c0.1-0.1,0.2-0.3,0.4-0.3c-0.1-0.1-0.2-0.2-0.1-0.4C90.7,40.2,91.1,40.2,91.2,40.5"/>
<path class="st3" d="M87.2,40.7v0.1c0.1-0.1,0.3-0.2,0.4-0.1c0.1,0.1,0.3,0.3,0.1,0.4c-0.1,0.1-0.3,0.2-0.4,0.1
	c-0.1-0.1-0.1-0.3-0.2-0.4c-0.1,0.1-0.3,0.2-0.4,0.1c-0.1-0.1-0.2-0.2-0.1-0.4c0.1-0.1,0.1-0.2,0.3-0.3C87,40.5,87.1,40.6,87.2,40.7
	"/>
<path class="st3" d="M89.5,40.7c0.1,0.2-0.1,0.3-0.2,0.4c-0.2,0.1-0.3-0.1-0.4-0.2c0-0.1,0.1-0.3,0.2-0.4
	C89.3,40.5,89.4,40.6,89.5,40.7"/>
<path class="st3" d="M82.4,40.9c0,0.1-0.1,0.3-0.2,0.4c-0.1,0-0.1,0-0.1,0.1c0.1,0.1,0.1,0.2,0.1,0.3c-0.2,0.1-0.5,0.1-0.6,0
	c0-0.1,0.1-0.3,0.2-0.4c0.1,0,0.1,0,0.1-0.1c-0.1-0.1-0.2-0.2-0.1-0.4C81.9,40.5,82.3,40.6,82.4,40.9"/>
<path class="st3" d="M90.3,41c0,0.1-0.1,0.3-0.3,0.4c-0.1,0-0.3-0.1-0.4-0.3c-0.1-0.1,0.1-0.3,0.2-0.4C90,40.7,90.1,40.8,90.3,41"/>
<path class="st3" d="M83.1,41c0,0.1,0,0.1,0.1,0.1c0.1-0.1,0.2-0.2,0.4-0.1c0.1,0.1,0.3,0.2,0.2,0.4c-0.1,0.1-0.2,0.3-0.4,0.2
	c-0.2-0.1-0.1-0.6-0.4-0.2c-0.1,0-0.1,0-0.1,0.1l0.1,0.1c-0.2,0.1-0.4,0.1-0.6,0c0.1-0.1,0.2-0.1,0.4-0.1c-0.1-0.1-0.3-0.3-0.1-0.4
	c0-0.1,0.1-0.1,0.2-0.2C83,40.8,83,41,83.1,41"/>
<path class="st3" d="M85.5,41c0,0.2-0.1,0.4-0.2,0.4c-0.1,0-0.1,0-0.1,0.1l0.1,0.1c-0.1,0.1-0.4,0.1-0.5,0c0.1-0.1,0.2-0.1,0.3-0.1
	c-0.1-0.1-0.2-0.3-0.1-0.4c0.1-0.1,0.2-0.1,0.3-0.2C85.3,40.8,85.4,41,85.5,41"/>
<path class="st3" d="M86.2,41.3c0.1,0.2-0.1,0.3-0.1,0.4c-0.2,0.1-0.4-0.1-0.4-0.2c-0.1-0.1,0-0.4,0.1-0.4
	C86,41,86.1,41.2,86.2,41.3"/>
<path class="st3" d="M88.6,41.3c0,0.2-0.1,0.4-0.3,0.4c-0.1,0-0.3-0.1-0.4-0.3c0-0.1,0.1-0.3,0.2-0.4C88.3,41,88.5,41.2,88.6,41.3"
	/>
<path class="st3" d="M84.5,41.5c0.1,0.1,0.1,0.2-0.1,0.2c-0.1-0.1-0.4,0.1-0.5-0.1c0-0.1,0.1-0.3,0.2-0.4
	C84.3,41.2,84.4,41.4,84.5,41.5"/>
<path class="st3" d="M87,41.5c0,0.1,0,0.2-0.1,0.2c-0.2,0-0.5,0.1-0.6-0.1c0-0.1,0.1-0.3,0.2-0.4C86.8,41.2,86.8,41.4,87,41.5"/>
<path class="st3" d="M89.3,41.5c0,0.1,0.1,0.2-0.1,0.2c-0.1,0-0.4,0.1-0.6-0.1c0-0.1,0.1-0.3,0.3-0.4C89.1,41.2,89.2,41.4,89.3,41.5
	"/>
<path class="st3" d="M91.6,41.5c0,0.3-0.4,0.1-0.6,0.1C91,41.6,91,41.5,91,41.5C91.1,41.2,91.6,41.3,91.6,41.5"/>
<path class="st3" d="M87.6,41.6c-0.1,0.1-0.4,0.1-0.5,0c0.1-0.1,0.2-0.2,0.4-0.1C87.5,41.6,87.6,41.5,87.6,41.6"/>
<path class="st3" d="M90,41.6c-0.1,0.1-0.4,0.1-0.5,0c0.1-0.1,0.2-0.2,0.4-0.1C89.9,41.5,90,41.5,90,41.6"/>
<path class="st2" d="M91.9,42.9c-0.7,6.7-3.2,11-5.9,14.5c-2.3,3-4.3,4.5-6.9,6.3c-1.9,1.3-3.9,2.5-6.2,3.5c-0.1,0-0.1,0-0.1-0.1
	l0-16.2c0.3-0.1,0.4,0,0.6,0.1c0.1,0.1,0.3,0.1,0.4,0c0.1-0.1,0.3-0.2,0.3-0.4c0.1,0,0.3,0.2,0.5,0.4c0.3,0.2,0.6,0.1,0.7-0.5
	c0-0.1-0.2-0.2,0-0.3c1.2-0.4,2.4-1.3,3.4-2.3c0.2-0.4,0.6-0.4,1-0.5c3.8-1.2,6.7-0.4,8.8,1.1c0.1,0.1,0.1,0.1,0.2,0.2
	c0.3,0.1,0.1-0.3,0.1-0.5c0-0.2-0.5-1.1-1-1.3c-0.2-0.1-0.2-0.1-0.1-0.3c0.1-0.3,0.5-0.4,0.9-0.5c0.2-0.1,0.4-0.2,0.7-0.3
	c0.1,0,0.2-0.1,0.1-0.1c-0.3-0.5-0.9-0.3-1.4-0.3c-0.5,0-0.9,0.5-1.2,0.9c0,0.1-0.3,0.1-0.3,0.1c-0.2,0-0.9-0.3-1.1-0.4
	c-0.1,0-0.1-0.2-0.1-0.2c0.3-0.6,0.9-1.2,1.6-1.5c0.1,0,0.1-0.1,0.1-0.1c-0.3-0.3-0.9-0.3-1.3-0.2c-0.7,0.2-1.2,0.8-1.5,1.5
	c-0.1,0.2-0.2,0.5-0.4,0.4c-0.4-0.1-0.6,0-1,0c-0.1,0-0.1,0.1-0.2,0c-0.1-0.1,0-0.4,0.1-0.6c0.1-0.2,0.2-0.4,0.3-0.6
	c0.2-0.3,0.4-0.5,0.7-0.6c0.1,0,0.2-0.2,0.1-0.2c-0.2-0.3-0.5-0.1-0.7-0.1c-0.8-0.1-1.5,0.7-1.8,1.4C81,45.4,81,45.6,81,46
	c-0.1,0.1-0.1,0.2-0.3,0.2c-0.2,0.1-0.5,0.1-0.7,0.2c-0.1,0-0.2,0.1-0.3,0.1c0.6-0.8,0.9-1.7,1.1-2.7c0.1-0.3,0-0.6,0.1-1
	c0-0.1,0-0.2,0.1-0.2h10.8C91.8,42.7,92,42.8,91.9,42.9"/>
<path class="st3" d="M60.7,48.8c-0.1,0-0.1,0.1-0.1,0.1v-0.1"/>
<path class="st3" d="M63.6,49.1L63.6,49.1c0.1,0.1,0.3-0.1,0.4-0.1c0.1,0.1,0.3,0.3,0.2,0.4c-0.1,0.1-0.3,0.3-0.4,0.2
	c-0.1-0.1-0.2-0.2-0.3-0.4c-0.1,0.1-0.3,0.3-0.4,0.1c-0.1-0.1-0.2-0.2-0.1-0.4C63.1,48.7,63.5,48.8,63.6,49.1"/>
<path class="st3" d="M53.4,48.8c0.1,0.1,0,0.1,0,0.1"/>
<path class="st3" d="M61.8,49.3c0.1,0.1-0.1,0.3-0.2,0.4c-0.2,0.1-0.3-0.1-0.4-0.2c0-0.2,0.1-0.4,0.2-0.4
	C61.6,48.9,61.8,49.2,61.8,49.3"/>
<path class="st3" d="M54.7,49.4c0,0.1-0.1,0.3-0.2,0.4c0,0-0.1,0-0.1,0.1c0.1,0.1,0.1,0.1,0.1,0.3c0,0.1-0.1,0.2-0.2,0.3
	c-0.2,0.1-0.3-0.1-0.4-0.2c-0.1-0.2,0.1-0.3,0.3-0.4c0,0,0.1-0.1,0.1-0.1c-0.1-0.1-0.3-0.2-0.1-0.4c0-0.1,0.1-0.1,0.2-0.2
	C54.5,49.2,54.7,49.2,54.7,49.4"/>
<path class="st3" d="M57.1,49.4c0,0.2-0.1,0.3-0.3,0.4l-0.1,0.1c0.1,0.1,0.2,0.2,0.1,0.4c-0.1,0.2-0.2,0.3-0.4,0.2
	c-0.2-0.1-0.3-0.4-0.1-0.5c0.1-0.1,0.2-0.1,0.3-0.1c-0.1-0.1-0.2-0.2-0.1-0.4c0.1-0.1,0.1-0.1,0.3-0.2C56.9,49.2,57,49.2,57.1,49.4"
	/>
<path class="st3" d="M64.9,49.5c0,0.1-0.1,0.3-0.2,0.4c-0.1,0-0.3-0.1-0.4-0.2c-0.1-0.1,0.1-0.4,0.2-0.4
	C64.7,49.2,64.9,49.4,64.9,49.5"/>
<path class="st0" d="M80.7,49.7c-0.4,0.4-0.8,1-0.8,1.7c0,0.3-0.2,0.7,0.1,0.7c0.3,0,0.6-0.1,0.9-0.1c0.2,0,0.3-0.1,0.4-0.2
	c0.1-0.3,0.2-0.7,0.4-1c0.4-0.8,1.1-1.2,1.8-1.1c0.2,0,0.2,0.2,0.1,0.2c-0.4,0.1-0.8,0.6-1,1c-0.1,0.3-0.3,0.5-0.3,0.7
	c0,0.1,0,0.3,0.1,0.3c0.4,0,0.8,0.1,1.3,0.1c0.2,0,0.3-0.1,0.3-0.2c0.1-0.2,0.4-0.6,0.7-0.8c0.3-0.2,0.6-0.3,0.9-0.1
	c0.1,0.1,0.4,0.2,0.4,0.3c0,0.1-0.5,0-0.7,0.1c-0.4,0.3-0.6,0.6-0.6,0.9c0,0.2,0.1,0.4,0.2,0.5c0.1,0.1,0.2,0.3,0.4,0.4
	c0.3,0.3,0.6,0.6,0.5,1c0,0.2-0.2,0-0.3-0.1c-0.5-0.4-1.2-0.8-1.8-1c-1.1-0.3-2.2-0.1-3.6,0c-1.8,0.2-3.1,0.6-4.4,1.6
	c-0.2,0.1,0.2,0.2,0.3,0.4c0.1,0.2,0.2,0.4,0.1,0.6c-0.1,0.3-0.5,0.4-0.7,0.3c-0.3-0.1-0.3-0.3-0.5-0.5c-0.1-0.1-0.2-0.1-0.2,0
	c-0.1,0.2-0.4,0.3-0.5,0.4c-0.3,0.1-0.5,0-0.7-0.3c-0.1-0.1-0.2-0.3-0.1-0.5c0.1-0.2,0.2-0.3,0.4-0.5c0.1-0.1,0.2-0.1,0.3-0.2
	c0.1-0.1-0.3-0.2-0.4-0.4c-0.2-0.3-0.1-0.6,0.2-0.8c0.2-0.1,0.4-0.2,0.6,0c0.1,0.1,0.4,0.3,0.5,0.5c0.1,0.1,0.2,0.3,0.4,0.1
	c0.4-0.2,0.6-0.4,1-0.5c0.1,0,0.2-0.2,0.2-0.3c0-0.3-0.2-0.7-0.1-1c0.2-0.9,0.4-1.3,1.2-1.6c0.2-0.1,0.4,0,0.2,0.1
	c-0.4,0.2-0.5,0.7-0.6,1.1c0,0.3,0,0.7,0.1,0.9c0.1,0.3,0.2,0.3,0.5,0.2c0.5-0.1,0.7-0.2,1.1-0.3c0.3-0.1,0.1-0.6,0.1-0.9
	c0.2-1,0.3-1.3,1.2-1.9c0.3-0.2,0.7-0.3,0.8-0.2C81.1,49.4,80.8,49.6,80.7,49.7"/>
<path class="st3" d="M55.5,49.6c0,0.1,0,0.1,0.1,0.1c0.1-0.1,0.2-0.2,0.4-0.1c0.1,0.1,0.2,0.2,0.1,0.4c-0.1,0.1-0.2,0.3-0.4,0.2
	c-0.2,0-0.1-0.6-0.4-0.2c-0.1,0-0.3-0.1-0.4-0.2c-0.1-0.1,0-0.3,0.2-0.4C55.2,49.3,55.4,49.4,55.5,49.6"/>
<path class="st3" d="M57.8,49.6c0,0.1-0.1,0.3-0.2,0.4c0,0-0.1,0-0.1,0.1c0.1,0.1,0.2,0.2,0.1,0.4c-0.1,0.1-0.2,0.3-0.4,0.2
	C57,50.5,57,50.4,57,50.2c0.1-0.1,0.1-0.2,0.3-0.3c0.1,0,0.1,0.1,0.1,0c-0.1-0.1-0.3-0.3-0.1-0.4C57.4,49.2,57.8,49.3,57.8,49.6"/>
<path class="st3" d="M60.2,49.6c0,0.2-0.1,0.4-0.3,0.4c-0.1,0.1-0.1,0-0.1,0.1c0,0.1,0.2,0.2,0.1,0.4c-0.1,0.1-0.2,0.2-0.4,0.1
	c-0.2-0.1-0.1-0.3-0.3-0.4c-0.1,0.1-0.2,0.2-0.4,0.1c-0.1-0.1-0.3-0.2-0.2-0.4c0.1-0.1,0.2-0.3,0.4-0.2c0.1,0.1,0.2,0.2,0.2,0.4
	c0.1-0.1,0.3-0.1,0.4-0.2c-0.1-0.1-0.2-0.3-0.1-0.4C59.7,49.2,60.1,49.3,60.2,49.6"/>
<path class="st3" d="M58.5,49.8c0.1,0.2-0.1,0.4-0.2,0.4c-0.2,0-0.3-0.1-0.4-0.3c0.1-0.1,0.1-0.2,0.3-0.3
	C58.3,49.5,58.5,49.7,58.5,49.8"/>
<path class="st3" d="M60.9,49.8c0,0.1-0.1,0.3-0.2,0.4c-0.1,0.1-0.2,0-0.1,0.1c0.1,0,0.1,0.1,0.1,0.3c-0.1,0.1-0.2,0.3-0.4,0.2
	c-0.1-0.1-0.3-0.3-0.1-0.4c0.1-0.1,0.2-0.2,0.3-0.2c0-0.1-0.2-0.2-0.1-0.4C60.4,49.4,60.8,49.5,60.9,49.8"/>
<path class="st3" d="M63.3,49.8c0,0.2-0.1,0.4-0.4,0.4l-0.1,0.1c0.1,0.1,0.2,0.2,0.1,0.4c-0.1,0.1-0.2,0.3-0.4,0.2
	c-0.1-0.1-0.3-0.2-0.3-0.4c-0.1,0.1-0.2,0.2-0.4,0.1c-0.1-0.1-0.3-0.2-0.2-0.4c0.1-0.1,0.3-0.3,0.4-0.1c0.1,0.1,0.2,0.2,0.2,0.4
	c0.1-0.1,0.2-0.2,0.4-0.2c-0.1-0.1-0.2-0.2-0.1-0.4C62.8,49.4,63.1,49.5,63.3,49.8"/>
<path class="st3" d="M61.6,50c0.1,0.1-0.1,0.3-0.2,0.4c-0.2,0.1-0.4-0.1-0.4-0.3c0.1-0.1,0.1-0.3,0.3-0.4
	C61.4,49.7,61.6,49.9,61.6,50"/>
<path class="st3" d="M64,50c0,0.1-0.1,0.3-0.2,0.4c0,0.1-0.1,0-0.1,0.1c0.1,0.1,0.3,0.3,0.1,0.4c-0.1,0.1-0.2,0.2-0.4,0.1
	c-0.1-0.1-0.3-0.3-0.2-0.4c0.1-0.1,0.3-0.2,0.4-0.2c-0.1-0.1-0.2-0.2-0.1-0.4c0.1-0.1,0.2-0.1,0.3-0.2C63.8,49.7,63.9,49.9,64,50"/>
<path class="st3" d="M66.4,50C66.4,50,66.4,50.1,66.4,50c0.1,0,0.3-0.1,0.4,0c0.1,0.1,0.3,0.2,0.1,0.4c-0.1,0.1-0.2,0.1-0.3,0.2
	c0.1,0.1,0.1,0.2,0.1,0.4c-0.1,0.1-0.3,0.4-0.4,0.2c-0.1-0.1-0.3-0.3-0.2-0.4c0.1-0.1,0.3-0.2,0.4-0.2c-0.1-0.1-0.1-0.3-0.2-0.4
	c-0.1,0.1-0.2,0.2-0.4,0.1c-0.1-0.1-0.3-0.2-0.2-0.4C65.9,49.7,66.3,49.7,66.4,50"/>
<path class="st3" d="M64.7,50.2c0.1,0.1-0.1,0.3-0.2,0.4c-0.1,0-0.3-0.1-0.4-0.2c-0.1-0.1,0-0.3,0.1-0.4
	C64.5,49.9,64.6,50,64.7,50.2"/>
<path class="st3" d="M55.2,50.3c0,0.1,0.1,0.1,0.1,0.1c0.1-0.1,0.2-0.2,0.4-0.1c0.1,0.1,0.3,0.2,0.2,0.4c-0.1,0.1-0.1,0.2-0.3,0.3
	c-0.1,0-0.2-0.1-0.3-0.2c0-0.1-0.1-0.1-0.1-0.1c-0.1,0-0.2,0.1-0.4,0.1c-0.1-0.1-0.3-0.3-0.2-0.4C54.8,50,55.1,50,55.2,50.3"/>
<path class="st3" d="M65.5,50.4c-0.1,0,0,0.1,0,0.1c0.1-0.1,0.2-0.3,0.4-0.1c0.1,0.1,0.2,0.2,0.1,0.4c-0.1,0.1-0.2,0.3-0.4,0.2
	c-0.1-0.1-0.2-0.2-0.3-0.4c-0.1,0.1-0.1,0.1-0.3,0.1c-0.1,0-0.2-0.1-0.3-0.2c-0.1-0.2,0.1-0.3,0.2-0.4
	C65.2,50.2,65.4,50.3,65.5,50.4"/>
<path class="st3" d="M67.8,50.4c0.1,0.1-0.1,0.3-0.2,0.4c-0.1,0.1-0.2,0-0.3-0.1c-0.1-0.1-0.1-0.2-0.1-0.3
	C67.4,50.1,67.7,50.2,67.8,50.4"/>
<path class="st3" d="M58.3,50.5c0.1,0.1,0,0.1,0.1,0.1c0-0.1,0.2-0.1,0.4-0.1c0.1,0.1,0.2,0.3,0.1,0.4c-0.1,0.1-0.2,0.3-0.4,0.3
	c-0.1-0.1-0.3-0.2-0.3-0.4c-0.1,0.1-0.2,0.3-0.4,0.1c-0.1-0.1-0.2-0.2-0.1-0.4C57.9,50.2,58.3,50.3,58.3,50.5"/>
<path class="st3" d="M56.7,50.8c0,0.1-0.1,0.2-0.2,0.4c-0.2,0-0.4-0.1-0.4-0.3c-0.1-0.1,0.1-0.3,0.2-0.4
	C56.5,50.4,56.6,50.7,56.7,50.8"/>
<path class="st3" d="M61.4,50.7c0,0.1,0,0.1,0.1,0.1c0.1-0.1,0.2-0.2,0.4-0.1c0.1,0.1,0.3,0.2,0.2,0.4c-0.1,0.1-0.2,0.3-0.4,0.1
	c-0.1-0.1-0.2-0.2-0.2-0.4c-0.1,0.1-0.3,0.2-0.4,0.1c-0.1-0.1-0.2-0.2-0.1-0.4C60.9,50.4,61.3,50.4,61.4,50.7"/>
<path class="st3" d="M57.4,50.9c0,0,0,0.1,0.1,0.1c0.1-0.1,0.3-0.2,0.4-0.1c0.1,0.1,0.3,0.2,0.2,0.4c-0.1,0.1-0.2,0.3-0.4,0.1
	c-0.1-0.1-0.2-0.2-0.2-0.3c-0.1,0.1-0.3,0.1-0.4,0.1c-0.1-0.1-0.3-0.2-0.1-0.4C57,50.7,57.3,50.7,57.4,50.9"/>
<path class="st3" d="M59.7,50.9c0.1,0.1,0,0.3-0.1,0.4c-0.2,0.1-0.4,0-0.4-0.2c-0.1-0.1,0.1-0.2,0.2-0.4
	C59.5,50.7,59.6,50.8,59.7,50.9"/>
<path class="st3" d="M64.5,50.9c0.1,0,0,0.1,0.1,0.1c0.1-0.1,0.1-0.2,0.3-0.1c0.1,0.1,0.3,0.2,0.2,0.4c-0.1,0.1-0.3,0.4-0.4,0.2
	c-0.1-0.1-0.1-0.3-0.3-0.3c0,0.1-0.2,0.1-0.3,0.2c0.1,0.1,0.2,0.2,0.1,0.4c-0.1,0.1-0.2,0.2-0.4,0.1c-0.1-0.1-0.3-0.2-0.2-0.4
	c0.1-0.1,0.2-0.2,0.4-0.3c-0.1-0.1-0.2-0.2-0.1-0.4c0.1,0,0.1-0.1,0.2-0.1C64.3,50.7,64.4,50.8,64.5,50.9"/>
<path class="st3" d="M60.4,51c0.1,0.1,0,0.3,0.1,0.3c0.1-0.1,0.2-0.2,0.4-0.1c0.1,0.1,0.3,0.2,0.2,0.4c-0.1,0.1-0.3,0.4-0.4,0.2
	c-0.1-0.1-0.2-0.2-0.3-0.4c-0.1,0.1-0.2,0.3-0.4,0.1c-0.1-0.1-0.3-0.2-0.1-0.4C60,50.9,60.3,50.9,60.4,51"/>
<path class="st3" d="M62.8,51.2c0.1,0.1,0,0.3-0.1,0.4c-0.2,0.1-0.4-0.1-0.4-0.2c-0.1-0.1,0.1-0.3,0.2-0.4
	C62.6,50.9,62.7,51,62.8,51.2"/>
<path class="st3" d="M67.6,51.2c0.1,0.1-0.1,0.3-0.2,0.4c0,0.1-0.1,0-0.1,0.1c0.1,0.1,0.2,0.2,0.1,0.4c-0.1,0.1-0.3,0.2-0.4,0.1
	c-0.1-0.1-0.3-0.2-0.1-0.4c0.1-0.1,0.2-0.2,0.3-0.2c-0.1-0.1-0.1-0.2-0.1-0.4C67.1,50.9,67.5,50.9,67.6,51.2"/>
<path class="st3" d="M70,51.2c0,0.1-0.1,0.3-0.2,0.4c-0.1,0.1-0.1,0.1-0.2,0.1c0.1,0.1,0.3,0.2,0.1,0.4c-0.1,0.1-0.2,0.2-0.4,0.1
	c-0.1-0.1-0.3-0.2-0.2-0.4c0.1-0.1,0.2-0.2,0.4-0.2c-0.1-0.1-0.1-0.1-0.1-0.3c0-0.1,0.1-0.3,0.2-0.3C69.7,50.9,69.9,51,70,51.2"/>
<path class="st3" d="M55.7,51.2c0.1,0.1-0.1,0.4-0.2,0.4c0,0.1-0.1-0.1-0.1,0.1c0.1,0.1,0.2,0.2,0.1,0.4c-0.1,0.1-0.3,0.3-0.4,0.1
	c-0.1-0.1-0.2-0.3-0.1-0.4c0.1-0.1,0.3-0.1,0.4-0.2c-0.1-0.1-0.2-0.2-0.1-0.4C55.2,50.9,55.5,51,55.7,51.2"/>
<path class="st3" d="M63.6,51.4c0.1,0.2-0.1,0.3-0.2,0.4c-0.2,0.1-0.4-0.1-0.4-0.2c0-0.1,0.1-0.3,0.2-0.4
	C63.4,51.1,63.5,51.2,63.6,51.4"/>
<path class="st3" d="M65.9,51.4c0,0.2-0.1,0.3-0.3,0.4c-0.1,0.1-0.3-0.1-0.4-0.2c-0.1-0.1,0.1-0.3,0.2-0.4
	C65.7,51.1,65.9,51.2,65.9,51.4"/>
<path class="st3" d="M68.4,51.4c0,0.1-0.1,0.1,0,0.1c0.1-0.1,0.2-0.3,0.4-0.1c0.1,0.1,0.3,0.2,0.2,0.4c-0.1,0.1-0.2,0.4-0.4,0.2
	c-0.1-0.1-0.2-0.2-0.2-0.4c-0.1,0.1-0.2,0.2-0.4,0.1c-0.1-0.1-0.2-0.1-0.2-0.2c0-0.1,0.1-0.3,0.2-0.4C68.1,51.1,68.3,51.2,68.4,51.4
	"/>
<path class="st3" d="M70.7,51.4c0.1,0.2-0.1,0.3-0.2,0.4c-0.1,0-0.1,0.1-0.1,0.1c0.1,0.1,0.2,0.2,0.1,0.4c-0.1,0.1-0.2,0.4-0.4,0.2
	c-0.1-0.1-0.3-0.2-0.1-0.4c0-0.3,0.6-0.2,0.1-0.5c0-0.1,0.1-0.3,0.2-0.4C70.5,51.1,70.6,51.3,70.7,51.4"/>
<path class="st3" d="M56.5,51.5L56.5,51.5c0.1,0.1,0.2-0.1,0.4-0.1c0.1,0.1,0.3,0.3,0.1,0.4c-0.1,0.1-0.2,0.3-0.4,0.2
	c-0.1-0.1-0.3-0.2-0.2-0.4c-0.1,0.1-0.3,0.1-0.4,0.1C56,52,56.2,52,56.2,52.1c0.1,0.2-0.1,0.3-0.2,0.4c-0.2,0.1-0.4-0.1-0.4-0.2
	c-0.1-0.2,0.1-0.4,0.2-0.4c0.1,0,0.1,0,0.1-0.1c-0.1-0.1-0.2-0.2-0.1-0.4C56,51.1,56.3,51.2,56.5,51.5"/>
<path class="st3" d="M58.8,51.5c0.1,0.1-0.1,0.3-0.2,0.4c0,0-0.1,0-0.1,0.1c0.1,0.1,0.2,0.2,0.1,0.4c-0.1,0.1-0.2,0.2-0.4,0.2
	c-0.1-0.1-0.2-0.2-0.3-0.3c0.1-0.1,0.1-0.3,0.3-0.4c0.1,0,0.1,0,0.1-0.1c-0.1-0.1-0.2-0.2-0.1-0.4C58.3,51.2,58.7,51.2,58.8,51.5"/>
<path class="st3" d="M66.7,51.6c0,0.2-0.1,0.4-0.3,0.4c-0.1,0-0.3-0.1-0.4-0.3c0-0.1,0.1-0.3,0.2-0.4C66.4,51.3,66.6,51.4,66.7,51.6
	"/>
<path class="st3" d="M59.6,51.7c0,0.2-0.1,0.4-0.3,0.4c0,0-0.1,0-0.1,0.1c0.1,0.1,0.1,0.1,0.1,0.4c-0.1,0.1-0.2,0.3-0.4,0.2
	c-0.1-0.1-0.3-0.2-0.2-0.4c0.1-0.1,0.2-0.2,0.4-0.2c-0.1-0.1-0.2-0.3-0.1-0.4c0.1-0.1,0.2-0.1,0.3-0.2
	C59.3,51.4,59.5,51.6,59.6,51.7"/>
<path class="st3" d="M61.8,51.7c0.1,0.1-0.1,0.3-0.2,0.4c-0.1,0-0.1,0-0.1,0.1c0.1,0.1,0.2,0.2,0.1,0.4c-0.1,0.1-0.2,0.3-0.4,0.1
	c-0.1-0.1-0.2-0.2-0.1-0.4c0.1-0.1,0.1-0.1,0.2-0.2h0.1c-0.1-0.1-0.3-0.3-0.1-0.4c0-0.1,0.1-0.1,0.2-0.2
	C61.6,51.4,61.8,51.5,61.8,51.7"/>
<path class="st3" d="M57.8,51.9c0,0.2-0.1,0.4-0.2,0.4c-0.2,0-0.3-0.1-0.4-0.2c-0.1-0.1,0.1-0.4,0.2-0.4
	C57.6,51.7,57.8,51.8,57.8,51.9"/>
<path class="st3" d="M60.3,51.9c0,0.1,0,0.1,0.1,0.1c0.1-0.1,0.2-0.2,0.4-0.1c0.1,0.1,0.3,0.3,0.2,0.4c-0.1,0.1-0.3,0.2-0.4,0.2
	c-0.1-0.1-0.1-0.1-0.2-0.3v-0.1c-0.1,0.1-0.3,0.2-0.4,0.1c-0.1-0.1-0.2-0.3-0.2-0.4c0.1-0.1,0.1-0.2,0.3-0.2
	C60.1,51.7,60.2,51.8,60.3,51.9"/>
<path class="st3" d="M62.6,51.9c0,0.2-0.1,0.4-0.3,0.4h-0.1c0.1,0.1,0.2,0.3,0.2,0.4C62.3,52.8,62.1,53,62,53
	c-0.1-0.1-0.3-0.3-0.2-0.4c0.1-0.1,0.2-0.2,0.4-0.3c-0.1-0.1-0.2-0.3-0.1-0.4C62.1,51.5,62.5,51.7,62.6,51.9"/>
<path class="st3" d="M64.9,51.9c0.1,0.1-0.1,0.3-0.2,0.4h-0.1c0,0.1,0.2,0.2,0.1,0.3c0,0.1-0.1,0.3-0.3,0.4c-0.1,0-0.3-0.1-0.4-0.3
	c0.1-0.1,0.1-0.3,0.3-0.4c0.1,0,0.1,0,0.1-0.1c-0.1-0.1-0.2-0.2-0.1-0.4C64.5,51.6,64.8,51.7,64.9,51.9"/>
<path class="st3" d="M68,52.2c0,0.1-0.1,0.3-0.2,0.4c-0.2,0.1-0.3-0.1-0.4-0.3c0-0.1,0.1-0.3,0.3-0.4C67.8,51.9,68,51.9,68,52.2"/>
<path class="st3" d="M63.4,52.1c0,0.1,0,0.1,0.1,0.1c0.1-0.1,0.2-0.2,0.4-0.1c0.1,0.1,0.3,0.3,0.2,0.4c-0.1,0.1-0.2,0.3-0.4,0.2
	c-0.1-0.1-0.2-0.2-0.2-0.4c-0.1,0.1-0.3,0.1-0.4,0.1c-0.1-0.1-0.2-0.2-0.2-0.3c0-0.1,0.1-0.3,0.2-0.4C63.1,51.9,63.2,51.9,63.4,52.1
	"/>
<path class="st3" d="M65.7,52.2c0,0.1-0.1,0.3-0.2,0.4c-0.1,0-0.2-0.1-0.3,0c0.1,0.1,0.2,0.1,0.3,0.3c-0.1,0.1-0.1,0.2-0.2,0.3
	c-0.2,0-0.4,0.1-0.6,0l0.2-0.1c-0.1-0.1-0.1-0.3,0-0.4c0.1-0.1,0.3-0.1,0.3-0.2c-0.1-0.1-0.2-0.3-0.1-0.4
	C65.2,51.7,65.7,51.9,65.7,52.2"/>
<path class="st3" d="M66.4,52.3v0.2c0.1-0.1,0.2-0.2,0.3-0.2c0.1,0.1,0.3,0.1,0.4,0.3c0,0.1-0.1,0.3-0.3,0.4c-0.2,0-0.4-0.2-0.4-0.4
	c-0.1,0.1-0.2,0.2-0.4,0.2c-0.1,0-0.2-0.1-0.3-0.3c0-0.1,0.1-0.3,0.3-0.4C66.2,52.1,66.4,52.2,66.4,52.3"/>
<path class="st3" d="M68.7,52.3c0.1,0.2-0.1,0.3-0.2,0.4c-0.2,0-0.4-0.1-0.4-0.3c-0.1-0.1,0.1-0.3,0.2-0.4
	C68.5,52,68.7,52.2,68.7,52.3"/>
<path class="st3" d="M71.1,52.3c0.1,0.2-0.1,0.4-0.2,0.4c-0.2,0.1-0.4-0.1-0.4-0.3c-0.1-0.1,0.1-0.3,0.3-0.4
	C70.9,52.1,71,52.2,71.1,52.3"/>
<path class="st3" d="M56.9,52.5c0.1,0.1-0.1,0.3-0.2,0.4c-0.1,0-0.1,0.1-0.1,0.1c0.1,0.1,0.1,0.2,0.1,0.4c-0.2,0.1-0.5,0.1-0.6,0
	C56,53,56.1,53,56.2,52.9c0.1,0,0.1-0.1,0.1-0.1c-0.1-0.1-0.2-0.2-0.1-0.4c0.1-0.1,0.2-0.3,0.3-0.3C56.7,52.2,56.8,52.3,56.9,52.5"
	/>
<path class="st3" d="M69.5,52.6c0,0.1-0.2,0.3-0.3,0.4c-0.1-0.1-0.3-0.1-0.4-0.3c0-0.1,0.1-0.3,0.3-0.4
	C69.3,52.4,69.5,52.5,69.5,52.6"/>
<path class="st3" d="M57.6,52.7c0,0.1-0.1,0.3-0.2,0.4C57.2,53,57,53,57,52.8c0-0.2,0.1-0.3,0.2-0.4C57.4,52.4,57.5,52.5,57.6,52.7"
	/>
<path class="st3" d="M60,52.7c0,0.1-0.1,0.3-0.3,0.4c0,0.1-0.2,0-0.1,0.1h0.1v0.1c-0.1,0-0.3,0-0.4-0.1c0.1-0.1,0.1-0.1,0.2-0.1
	c-0.1-0.1-0.3-0.3-0.1-0.4C59.5,52.3,59.8,52.5,60,52.7"/>
<path class="st3" d="M67.8,52.8c0,0.1-0.1,0.1-0.1,0.2c-0.1,0-0.4,0.1-0.4-0.1c-0.1-0.2,0.1-0.3,0.2-0.4
	C67.6,52.6,67.7,52.7,67.8,52.8"/>
<path class="st3" d="M70.2,52.7c0,0.1,0.1,0.2,0,0.3c-0.2,0-0.4,0-0.5-0.1c0-0.1,0.1-0.3,0.2-0.3C70,52.6,70.2,52.7,70.2,52.7"/>
<path class="st3" d="M58.1,52.9c0,0,0,0.1,0,0.1c0.1-0.1,0.1-0.3,0.2-0.1c0.1,0.1,0.1,0.1,0.1,0.3c-0.1,0.1-0.2,0.1-0.3,0.1
	c0-0.1,0-0.2,0-0.1c0,0.1-0.2,0.2-0.2,0.1c-0.1,0,0-0.2-0.1-0.3c0-0.1,0.1-0.2,0.1-0.4C58,52.6,58,52.7,58.1,52.9"/>
<path class="st3" d="M60.7,52.9c0,0.1-0.1,0.2-0.1,0.3c-0.1-0.1-0.5,0.2-0.5-0.1c0-0.2,0.1-0.3,0.2-0.4
	C60.5,52.6,60.6,52.7,60.7,52.9"/>
<path class="st3" d="M63,52.9c0.1,0.1-0.1,0.2-0.1,0.3c-0.1-0.1-0.4,0.1-0.4-0.2c0-0.1,0.1-0.3,0.2-0.3C62.8,52.7,63,52.7,63,52.9"
	/>
<path class="st3" d="M70.8,52.9c0.1,0.1,0,0.1-0.1,0.1c-0.1-0.1-0.2,0-0.3-0.1c0-0.1,0.1-0.1,0.1-0.1C70.6,52.8,70.7,52.8,70.8,52.9
	"/>
<path class="st3" d="M61.4,53.1c-0.1,0.1-0.4,0.1-0.6,0.1c0-0.1,0.1-0.3,0.2-0.3C61.2,52.9,61.4,53,61.4,53.1"/>
<path class="st3" d="M63.7,53C63.7,53.1,63.7,53.1,63.7,53c-0.1,0.1-0.4,0.1-0.5,0.1c0-0.1,0.1-0.1,0.1-0.2
	C63.5,52.8,63.6,52.9,63.7,53"/>
<path class="st3" d="M66.1,53c-0.1,0.1-0.2,0.1-0.4,0C65.8,52.9,65.9,52.9,66.1,53C66.1,53,66.2,53,66.1,53"/>
<path class="st3" d="M68.5,53c-0.1,0.1-0.3,0-0.4,0H68C68.1,52.9,68.3,52.9,68.5,53C68.4,53,68.5,53,68.5,53"/>
<line class="st3" x1="61.9" y1="53.1" x2="61.8" y2="53.1"/>
<path class="st3" d="M57.3,53.2c-0.1,0-0.1,0.1-0.3,0v-0.1C57.1,53.2,57.2,53.1,57.3,53.2"/>
<path class="st3" d="M55.3,53.3L55.3,53.3L55.3,53.3C55.2,53.2,55.2,53.3,55.3,53.3"/>
<path class="st0" d="M78.3,56.7c-0.1,0.1-0.5,0.6-0.6,1c-0.1,0.3,0,0.7,0.1,0.8c0.1,0.1,0.1,0.2,0.2,0.1c0.2-0.1,0.5-0.2,0.8-0.1
	c0.1,0,0.1-0.1,0.1-0.2c0.1-0.3,0.1-0.5,0.2-0.7c0.3-0.6,0.8-1,1.4-1.1c0.2-0.1,0.5-0.1,0.6,0c0.1,0.1-0.2,0.2-0.4,0.3
	c-0.4,0.2-0.8,0.6-1,1c-0.1,0.2-0.1,0.6,0.1,0.6c0.4,0.1,0.4,0.1,0.8,0.1c0.2,0,0.3-0.1,0.4-0.2c0.2-0.2,0.8-0.8,1.1-0.9
	c0.2-0.1,0.7-0.2,0.8,0c0.1,0.1-0.2,0.2-0.4,0.3c-0.2,0.1-1,1-0.8,1.2c0.1,0.2,0.9,0.7,0.8,1.1c0,0.2-0.2,0.1-0.3,0
	c-0.1-0.2-0.2-0.2-0.4-0.4c-0.8-0.5-2.2-0.6-3.5-0.2c-1.2,0.3-2.2,0.9-2.9,1.6c-0.1,0.1-0.1,0.2,0.1,0.2c0.1,0.1,0.3,0.2,0.4,0.3
	c0.1,0.2,0.3,0.3,0.1,0.6c-0.1,0.2-0.3,0.2-0.6,0.1c-0.2-0.1-0.3-0.3-0.5-0.4c-0.1-0.1-0.1,0-0.2,0.1c-0.3,0.2-0.4,0.5-0.7,0.5
	c-0.2,0-0.5-0.1-0.6-0.2c-0.2-0.4,0-0.6,0.3-0.8c0.1-0.1,0.2-0.1,0.2-0.1c0-0.1-0.1-0.1-0.1-0.1c-0.1-0.1-0.2-0.2-0.3-0.3
	c-0.2-0.3-0.3-0.5,0-0.7c0.2-0.1,0.4-0.1,0.5,0c0.1,0.1,0.2,0.2,0.3,0.3c0.1,0.1,0.1,0.1,0.2,0c0.2-0.1,0.5-0.3,0.6-0.5
	c0.1-0.1,0.1-0.2,0-0.3c-0.1-0.2-0.3-0.5-0.3-0.9c0-0.5,0.4-1,0.7-1.1c0.1,0,0.2,0,0.1,0.1c-0.2,0.2-0.1,0.5-0.1,0.8
	c0,0.3,0,0.4,0.2,0.7c0.1,0.2,0.2,0.1,0.4,0c0.2-0.1,0.4-0.2,0.5-0.3c0.1-0.1,0.2-0.1,0.2-0.2c-0.1-0.4-0.1-1,0.1-1.4
	c0.3-0.6,0.7-0.9,1.2-1.1C78.3,56.4,78.5,56.5,78.3,56.7"/>
<path class="st1" d="M63,60.5c0.1,0.1,0.4-0.4,0.4,0.1c0.1,0.1,0.2,0.1,0.4,0.1c0.2-0.1,0.1-0.4,0.4-0.4c0,0.1-0.1,0.3,0,0.4
	c0.1,0.1,0.3,0.2,0.4,0.1c0.2-0.1,0.4-0.3,0.2-0.4c0-0.1,0-0.3,0.1-0.3c0.2-0.1,0.5,0.2,0.7,0.3c0.2,0,0.3-0.1,0.3-0.1
	c-0.1,0.1,0.1,0.3,0.2,0.4h0.2l0.1-0.1c0.1,0.1,0.2,0.3,0.4,0.4c0.1,0.1,0.3-0.1,0.4-0.3c0.1-0.1-0.1-0.1-0.1-0.3
	c0.1,0,0.4-0.2,0.5-0.1c0,0.1-0.1,0.3-0.1,0.3c-0.1,0.1-0.2,0.3-0.2,0.4c0.1,0.1,0.3,0.3,0.4,0.2c0.1-0.1,0.3-0.2,0.2-0.4
	c0-0.1-0.3-0.1-0.1-0.2c0.2-0.1,0.3-0.2,0.4-0.1c0.1,0.1,0.2,0.3,0.3,0.4c0.2,0.1,0.3-0.1,0.4-0.2c0.1-0.1,0-0.1,0.1-0.1H69
	c0.2,0-0.1,0.3,0,0.4c0.1,0.1,0.2,0.2,0.4,0.1c0.1-0.1,0.3-0.3,0.2-0.4c0-0.1-0.1-0.1-0.1-0.1c0.1-0.1,0.4-0.1,0.5,0.1
	c0,0.1-0.3,0.1-0.4,0.3c-0.1,0.2,0.1,0.4,0.3,0.4c0.1,0,0.2-0.2,0.3-0.1c0.1,0.1,0.2,0.3,0.4,0.4c0.2,0.1,0.3-0.1,0.4-0.2
	c0.1-0.1,0-0.4-0.1-0.4h-0.1c-0.1,0,0.1-0.1,0.1-0.1c0.1-0.1,0.2-0.2,0.3-0.1c0.3,0,0.4,0.2,0.2,0.3c-0.1,0.1-0.2,0.2-0.4,0.3
	c0,0.1-0.1,0.2-0.1,0.3l0.4,0.2c-0.2,0-0.5,0.1-0.6,0.3c0,0.1,0.1,0.2,0.2,0.4h0.3c0.1,0.1,0,0.3,0.1,0.4c-0.1-0.1-0.2-0.3-0.4-0.4
	c-0.1,0-0.3,0.2-0.4,0.4c0,0.1,0.1,0.2,0.2,0.3c0.2,0.1,0.3,0,0.4-0.1l0.1,0.4c-0.1,0.1-0.4,0.3-0.3,0.5c0.1,0.1,0.3,0.1,0.3,0.3
	c-0.1,0-0.4,0-0.4,0.1c-0.1,0.1-0.1,0.2-0.1,0.3l0.1,0.1c-0.2,0.1-0.4,0.2-0.4,0.4c0,0.1,0.1,0.3,0.3,0.4c0.2,0.1,0.3-0.1,0.4-0.2
	c0-0.1-0.1-0.3-0.1-0.4c0-0.1,0.1-0.1,0.2-0.1c0.1,0.1,0.1,0.3,0,0.4c0,0.1-0.2,0.2-0.1,0.4c0,0.1,0.1,0.1,0.1,0.2
	c-0.1,0.1-0.2,0.1-0.3,0.1c0-0.1-0.1-0.3-0.3-0.4c-0.1-0.1-0.2,0.1-0.3,0.1c-0.1,0.1-0.1,0.2-0.1,0.4c0.1,0.1,0.2,0.3,0.4,0.1
	c0.1,0,0.1-0.1,0.1-0.1c0,0.1,0.2,0.3,0.4,0.4h0.1v0.1c-0.1,0-0.3-0.1-0.4,0c-0.1,0.1-0.2,0.3-0.1,0.4c0,0.1,0.1,0.1,0.1,0.1
	c-0.1,0.1-0.2-0.1-0.3-0.1c0-0.1,0.2-0.3,0.1-0.4c-0.1-0.1-0.3-0.4-0.5-0.2c-0.1,0-0.1,0-0.1,0.1h-0.1c0-0.1-0.1-0.2-0.2-0.3
	c-0.2-0.1-0.4,0-0.5,0.1v0.2c-0.1-0.1,0-0.3-0.1-0.4c-0.1-0.1-0.3-0.2-0.5-0.2c-0.1,0.1-0.1,0.1-0.2,0.3c0-0.1,0.1-0.4-0.1-0.5
	c0.1-0.1,0.4-0.2,0.3-0.4c-0.1-0.1-0.3-0.4-0.4-0.3c-0.1,0.1-0.2,0.2-0.3,0.4l0.1,0.3c-0.1-0.1-0.2,0.1-0.4,0.1
	c0-0.1-0.1-0.3-0.3-0.3c-0.1-0.1-0.4,0.1-0.4-0.1c-0.1-0.1-0.2-0.1-0.3-0.2c-0.1,0.1-0.2,0.1-0.3,0.1l-0.2-0.3
	c0.1-0.1,0.3-0.1,0.3-0.3c0.1-0.2-0.1-0.4-0.2-0.4c-0.1-0.1-0.3,0-0.4,0.1c-0.1,0,0-0.1-0.1-0.1c-0.1-0.1-0.3-0.2-0.4-0.2
	c-0.2,0.1-0.3,0.4-0.2,0.5h-0.2c0.1-0.1,0.2-0.4,0.1-0.5c-0.1-0.2-0.3-0.3-0.5-0.2c-0.1,0.1-0.2,0.1-0.2,0.3h-0.1
	c0.1-0.1,0.1-0.4,0-0.5c0.1-0.1,0.4-0.3,0.2-0.5c-0.1-0.1-0.2-0.3-0.4-0.2l-0.1,0.1c0-0.1-0.1-0.3-0.3-0.4c-0.1-0.1-0.3,0.1-0.4,0.2
	c-0.1,0.1,0.2,0.3-0.1,0.3c-0.1,0.1-0.1-0.1-0.2-0.1c0-0.1,0.2-0.2,0.3-0.4c0.1-0.2-0.4-0.4,0-0.4c0.1-0.1,0.2-0.2,0.1-0.4
	c-0.1-0.1-0.3-0.3-0.4-0.1c-0.1,0.1-0.3,0.2-0.2,0.4l0.1,0.2c-0.1-0.1-0.4,0.4-0.4,0c0-0.1-0.1-0.1-0.2-0.2c-0.1-0.1-0.2,0-0.4,0.1
	H62c-0.1-0.1-0.2-0.3-0.4-0.4c-0.1,0-0.3,0.1-0.4-0.1c0.1-0.1,0.1-0.1,0.2-0.3c0-0.1-0.1-0.3-0.2-0.4c-0.1,0-0.4-0.1-0.4,0.1
	c-0.1,0-0.1-0.2-0.4-0.3c0.2,0,0.3-0.2,0.4-0.2c0,0.1,0.1,0.2,0.2,0.4c0.2,0.1,0.3-0.2,0.4-0.3c-0.1-0.3,0.3,0,0.3,0
	C62.3,60.4,62.8,60.2,63,60.5"/>
<path class="st1" d="M60.3,60.4C60.4,60.5,60.3,60.5,60.3,60.4c-0.1,0.1-0.2,0-0.2-0.1C60.2,60.4,60.3,60.4,60.3,60.4"/>
<line class="st4" x1="66.5" y1="60.4" x2="66.5" y2="60.4"/>
<path class="st3" d="M62.4,60.6c-0.1,0,0,0.1,0,0.1c0.1-0.1,0.2-0.3,0.4-0.1c0.1,0.1,0.2,0.2,0.1,0.4c0,0.3-0.6,0.2-0.2,0.4
	c0.1,0.1,0,0.4-0.1,0.4c-0.2,0.1-0.4-0.1-0.4-0.2c0-0.1,0-0.1-0.1-0.1c-0.1,0.1-0.2,0.2-0.4,0.1c-0.1-0.1-0.3-0.3-0.2-0.4
	c0.1-0.1,0.3-0.1,0.4-0.3c-0.1-0.1-0.1-0.2-0.1-0.4C61.9,60.3,62.3,60.4,62.4,60.6"/>
<path class="st1" d="M70.6,60.6c-0.1,0-0.2,0.1-0.3,0.2c-0.1-0.1-0.1-0.2-0.2-0.3v-0.1c0.2,0.1,0.3-0.3,0.4,0"/>
<path class="st3" d="M65.5,60.8c0.1,0.1-0.1,0.2-0.1,0.4c-0.1,0.1-0.1,0.1-0.3,0.1c0.1,0.1,0.2,0.2,0.2,0.3c0.1-0.1,0.2-0.1,0.4-0.1
	c0.1,0.1,0.3,0.3,0.1,0.4c-0.1,0.1-0.2,0.3-0.4,0.2c-0.1-0.1-0.2-0.2-0.3-0.4c-0.1,0.1-0.3,0.2-0.4,0.1c-0.1-0.1-0.2-0.2-0.1-0.4
	c0.1-0.1,0.2-0.2,0.4-0.2c-0.1-0.1-0.2-0.3-0.1-0.4C65,60.6,65.4,60.6,65.5,60.8"/>
<path class="st3" d="M63.8,61c0.1,0.2-0.1,0.4-0.2,0.4c-0.2,0.1-0.4-0.1-0.4-0.2c-0.1-0.2,0.1-0.3,0.2-0.4
	C63.6,60.8,63.7,60.9,63.8,61"/>
<path class="st3" d="M66.2,61v0.2c0.1-0.1,0.3-0.3,0.4-0.1c0.1,0.1,0.2,0.2,0.2,0.4c-0.1,0.1-0.3,0.3-0.4,0.2
	c-0.1-0.1-0.2-0.2-0.3-0.4c-0.1,0.1-0.2,0.3-0.4,0.1c-0.1-0.1-0.3-0.3-0.1-0.4C65.7,60.8,66.1,60.8,66.2,61"/>
<path class="st3" d="M68.5,61c0.1,0.2-0.1,0.4-0.2,0.4c-0.1,0-0.1,0-0.1,0.1c0.1,0.1,0.3,0.2,0.1,0.4c-0.1,0.1-0.2,0.3-0.4,0.2
	c-0.1,0-0.1-0.1-0.2-0.3c0-0.1,0.1-0.2,0.1-0.3c0.1-0.1,0.1-0.1,0.2-0.1c-0.1-0.1-0.2-0.2-0.1-0.3c0-0.1,0.1-0.3,0.2-0.4
	C68.4,60.7,68.5,60.9,68.5,61"/>
<path class="st3" d="M62.6,61.1c-0.1,0.1-0.2,0.1-0.4,0.2c0.1-0.2-0.4-0.4,0-0.4c0.1-0.1,0.1-0.1,0.1-0.1
	C62.4,61,62.4,61.1,62.6,61.1"/>
<path class="st3" d="M64.5,61.2c0.1,0.1-0.1,0.4-0.2,0.4c-0.1,0-0.4-0.1-0.4-0.2c-0.1-0.2,0.1-0.4,0.2-0.4
	C64.3,61,64.4,61.1,64.5,61.2"/>
<path class="st3" d="M69.3,61.2c0,0.1,0,0.2,0.1,0.1c0.1-0.1,0.2-0.1,0.4-0.1c0.1,0.1,0.2,0.2,0.2,0.4c-0.1,0.1-0.3,0.3-0.4,0.2
	c-0.1-0.1-0.2-0.2-0.3-0.4c-0.1,0.1-0.2,0.2-0.4,0.1c-0.1-0.1-0.3-0.3-0.2-0.4C68.8,60.9,69.2,61,69.3,61.2"/>
<path class="st3" d="M67.6,61.4c0.1,0.1-0.1,0.4-0.2,0.4c-0.1,0.1-0.3-0.1-0.4-0.2c0-0.2,0.1-0.3,0.3-0.4
	C67.4,61.2,67.5,61.3,67.6,61.4"/>
<path class="st3" d="M70.7,61.7c0.1,0.1-0.1,0.3-0.2,0.4c-0.1,0-0.2,0-0.3-0.1c-0.1-0.1-0.1-0.2-0.1-0.4
	C70.2,61.4,70.6,61.4,70.7,61.7"/>
<path class="st3" d="M64.3,62c0,0.1,0,0.1,0.1,0.1c0.1-0.1,0.3-0.2,0.4-0.1c0.1,0.1,0.2,0.3,0.1,0.4c-0.1,0.1-0.2,0.2-0.4,0.1
	c-0.1-0.1-0.1-0.2-0.2-0.4c-0.1,0.1-0.2,0.2-0.4,0.1c-0.1-0.1-0.2-0.2-0.1-0.4c0.1-0.1,0.1-0.2,0.3-0.3C64.1,61.8,64.3,61.9,64.3,62
	"/>
<path class="st3" d="M66.7,62c0,0.1-0.1,0.4-0.2,0.4c-0.1,0-0.1,0.1-0.1,0.1c0.1,0.1,0.1,0.1,0.1,0.3c-0.1,0.1-0.1,0.3-0.3,0.3
	c-0.1,0.1-0.3-0.1-0.4-0.2c0-0.1,0.1-0.3,0.2-0.4c0.1,0,0.1-0.1,0.1-0.1c-0.1-0.1-0.2-0.2-0.1-0.4c0.1-0.1,0.2-0.2,0.3-0.3
	C66.4,61.8,66.6,61.9,66.7,62"/>
<path class="st3" d="M69,62c0,0.2-0.1,0.3-0.3,0.4c-0.1,0-0.1,0.1-0.1,0.1c0.1,0.1,0.2,0.3,0.1,0.4c-0.1,0.1-0.2,0.2-0.4,0.1
	c-0.1-0.1-0.1-0.2-0.2-0.4c-0.1,0.1-0.2,0.2-0.4,0.1c-0.1-0.1-0.2-0.1-0.2-0.2c0-0.2,0.1-0.3,0.2-0.4c0.1-0.1,0.3,0.1,0.4,0.2
	c0,0.1-0.1,0.1,0,0.1c0.1-0.1,0.3-0.1,0.4-0.3c-0.1-0.1-0.2-0.2-0.1-0.4c0.1-0.1,0.1-0.1,0.3-0.2C68.8,61.8,68.9,61.9,69,62"/>
<path class="st3" d="M67.4,62.2c0.1,0.1-0.1,0.3-0.2,0.4c-0.1,0-0.3-0.1-0.4-0.3c-0.1-0.1,0-0.3,0.1-0.4
	C67.2,61.9,67.3,62.1,67.4,62.2"/>
<path class="st3" d="M69.7,62.1c0.1,0.2-0.1,0.4-0.2,0.5c0,0-0.1-0.1-0.1,0c0,0.1,0.2,0.2,0.1,0.4c-0.1,0.1-0.2,0.4-0.4,0.2
	c-0.1-0.1-0.2-0.2-0.2-0.4c0.1-0.1,0.2-0.2,0.4-0.3c-0.1-0.1-0.2-0.3-0.1-0.4C69.3,61.9,69.6,61.9,69.7,62.1"/>
<path class="st3" d="M65.7,62.4c0,0.1-0.1,0.3-0.2,0.4c-0.1,0.1-0.2,0-0.4-0.1c-0.1-0.1-0.1-0.2-0.1-0.4
	C65.2,62.1,65.6,62.2,65.7,62.4"/>
<path class="st3" d="M70.5,62.4c0,0.1-0.1,0.3-0.2,0.4c-0.1,0.1-0.2,0-0.3-0.1c-0.1-0.1-0.2-0.2-0.1-0.4
	C70,62.1,70.4,62.2,70.5,62.4"/>
<path class="st3" d="M67.2,62.9c0,0.1,0.1,0.1,0.1,0.1c0.1-0.1,0.2-0.2,0.4-0.1c0.1,0.1,0.3,0.3,0.2,0.4c-0.1,0.1-0.2,0.3-0.4,0.2
	c-0.1-0.1-0.1-0.3-0.3-0.4c-0.1,0.1-0.1,0.1-0.3,0.1c-0.1-0.1-0.3-0.3-0.2-0.4c0.1-0.1,0.1-0.2,0.2-0.2
	C66.9,62.7,67.1,62.9,67.2,62.9"/>
<path class="st3" d="M65.5,63.2c0,0.1-0.1,0.3-0.1,0.4c-0.1,0.1-0.2,0.1-0.3,0.1c-0.1-0.1-0.3-0.2-0.2-0.4c0-0.1,0.1-0.2,0.2-0.3
	C65.3,62.9,65.4,63,65.5,63.2"/>
<path class="st3" d="M70.2,63.2c0,0.1,0,0.1,0.1,0.1c0.1-0.1,0.1-0.1,0.3-0.1c0.1,0,0.2,0.1,0.3,0.2c0.1,0.2-0.1,0.4-0.2,0.4
	c-0.2,0.1-0.3-0.1-0.4-0.2v-0.1c-0.1,0.1-0.3,0.2-0.4,0.1c-0.1-0.1-0.2-0.2-0.2-0.4c0.1-0.1,0.2-0.1,0.3-0.2
	C70,62.9,70.2,63,70.2,63.2"/>
<path class="st1" d="M64.1,63.3c-0.1,0-0.1,0.1-0.2,0.1l-0.1-0.3c0.1,0.1,0.1-0.1,0.3-0.1"/>
<path class="st3" d="M66.2,63.4v0.1c0.1-0.1,0.3-0.2,0.4-0.1c0.1,0.1,0.3,0.3,0.2,0.4c-0.1,0.1-0.3,0.3-0.4,0.1
	c-0.1-0.1-0.2-0.2-0.3-0.3c-0.1,0.1-0.2,0.1-0.4,0.1c-0.1-0.1-0.3-0.2-0.1-0.4c0-0.1,0.1-0.2,0.2-0.2C66,63.2,66.1,63.2,66.2,63.4"
	/>
<path class="st3" d="M68.5,63.4c0.1,0.1-0.1,0.3-0.2,0.4c-0.1,0.1-0.3-0.1-0.4-0.2c-0.1-0.2,0.1-0.4,0.2-0.4
	C68.3,63.1,68.5,63.2,68.5,63.4"/>
<path class="st3" d="M69.3,63.6c0,0.1,0,0.1,0.1,0.1c0.1-0.1,0.2-0.2,0.4-0.1c0.1,0.1,0.2,0.3,0.2,0.4c-0.1,0.1-0.3,0.2-0.4,0.2
	c-0.1-0.1-0.2-0.2-0.3-0.4c-0.1,0.1-0.2,0.3-0.4,0.1c-0.1-0.1-0.3-0.2-0.2-0.4c0.1-0.1,0.1-0.2,0.3-0.2S69.2,63.4,69.3,63.6"/>
<path class="st3" d="M67.6,63.9c0.1,0.1-0.1,0.4-0.2,0.4c0,0.1-0.1,0-0.1,0.1c0.1,0.1,0.2,0.3,0.1,0.4c-0.1,0.1-0.3,0.3-0.4,0.2
	c-0.1-0.1-0.3-0.3-0.1-0.4c0.1-0.1,0.3-0.1,0.3-0.3C67,64.2,66.9,64,67,63.9C67.2,63.6,67.5,63.7,67.6,63.9"/>
<path class="st3" d="M68.4,64.2c0,0.1-0.1,0.3-0.2,0.4c-0.1,0-0.2,0-0.2,0.1c0.1,0.1,0.2,0.3,0.1,0.4c-0.1,0.1-0.2,0.2-0.4,0.2
	c-0.1-0.1-0.3-0.2-0.2-0.4c0.1-0.1,0.2-0.2,0.4-0.2c-0.1-0.1-0.2-0.3-0.1-0.4C67.9,63.8,68.2,63.9,68.4,64.2"/>
<path class="st3" d="M70.7,64.1c0.1,0.1,0,0.4-0.1,0.4c-0.1,0-0.2,0-0.2,0.1c0.1,0.1,0.2,0.2,0.1,0.4c-0.1,0.1-0.2,0.3-0.4,0.2
	c-0.1-0.1-0.4-0.3-0.2-0.4c0.1-0.1,0.3-0.1,0.3-0.3c-0.1-0.1-0.1-0.2-0.1-0.4C70.2,63.9,70.5,63.9,70.7,64.1"/>
<path class="st3" d="M69.1,64.4c0.1,0.2,0.3-0.2,0.4,0c0.1,0.1,0.3,0.2,0.1,0.4c-0.1,0.1-0.2,0.3-0.4,0.2c-0.1-0.1-0.2-0.2-0.2-0.4
	c-0.1,0.1-0.3,0.2-0.4,0.1c-0.1-0.1-0.3-0.2-0.2-0.4c0.1-0.1,0.2-0.1,0.3-0.2C68.9,64.1,69,64.2,69.1,64.4"/>
<path class="st1" d="M66,64.4c-0.1,0.1,0.1,0.1,0.1,0.3c-0.2,0.1-0.4-0.1-0.5-0.1C65.7,64.6,65.9,64.4,66,64.4"/>
<path class="st3" d="M69.5,65.3c0,0.1-0.1,0.4-0.3,0.4c-0.1,0.1-0.3-0.1-0.4-0.2c0-0.1,0.1-0.3,0.2-0.4C69.2,65,69.4,65.2,69.5,65.3
	"/>
<path class="st3" d="M70.2,65.5c0.1,0.1-0.1,0.3-0.2,0.4c-0.1,0.1-0.3-0.1-0.4-0.2c-0.1-0.2,0.1-0.3,0.3-0.4
	C70,65.2,70.2,65.4,70.2,65.5"/>
<path class="st1" d="M69.5,66.5C69.5,66.5,69.5,66.5,69.5,66.5L69.5,66.5C69.4,66.4,69.5,66.5,69.5,66.5"/>
<path class="st1" d="M70,66.6L70,66.6C70,66.7,69.9,66.6,70,66.6C70,66.5,70,66.6,70,66.6"/>
<path class="st1" d="M71.4,67.1c-0.1,0.1-0.2,0.1-0.2,0C71.3,67.1,71.4,66.9,71.4,67.1"/>
<path class="st0" d="M73.5,33.7c-0.1,0.3-0.2,0.5-0.4,0.5c-0.3,0-0.5-0.3-0.5-0.8c0-0.5,0.2-0.8,0.5-0.8c0.1,0,0.1,0,0.2,0
	c0,0,0.1,0.1,0.1,0.2c0,0,0.1,0.1,0.1,0.1c0,0,0.1,0,0.1,0c0,0,0.1,0,0.1-0.1c0,0,0-0.1,0-0.2c0-0.1-0.1-0.3-0.3-0.4
	c-0.1-0.1-0.2-0.1-0.4-0.1c-0.5,0-0.8,0.4-0.8,1.1c0,0.7,0.3,1.2,0.8,1.2c0.5,0,0.7-0.3,0.8-1c0-0.1,0-0.1,0-0.2c0,0-0.1,0-0.2,0
	h-0.4c-0.1,0-0.1,0.1-0.1,0.2c0,0.1,0,0.1,0,0.1c0,0,0.1,0.1,0.1,0.1"/>
<path class="st0" d="M70,32.7h0.2v1.6c0,0.2,0.1,0.2,0.2,0.2c0.1,0,0.2-0.1,0.2-0.2v-1.6h0.2c0.1,0,0.2-0.1,0.2-0.2
	c0-0.1-0.1-0.2-0.2-0.2H70c-0.1,0-0.2,0.1-0.2,0.2C69.8,32.6,69.9,32.7,70,32.7"/>
<path class="st0" d="M71.3,32.7h0.2v1.6c0,0.2,0.1,0.2,0.2,0.2c0.1,0,0.2-0.1,0.2-0.2v-1.6h0.2c0.1,0,0.2-0.1,0.2-0.2
	c0-0.1-0.1-0.2-0.2-0.2h-0.8c-0.1,0-0.2,0.1-0.2,0.2C71.2,32.6,71.2,32.7,71.3,32.7"/>
<path class="st0" d="M77.7,32.7h0.2v1.6c0,0.2,0.1,0.2,0.2,0.2c0.1,0,0.2-0.1,0.2-0.2v-1.6h0.2c0.1,0,0.2-0.1,0.2-0.2
	c0-0.1-0.1-0.2-0.2-0.2h-0.8c-0.1,0-0.2,0.1-0.2,0.2C77.5,32.6,77.5,32.7,77.7,32.7"/>
<path class="st0" d="M68.3,32.5v1.2c0,0.5,0.2,0.8,0.7,0.8c0.5,0,0.7-0.3,0.7-0.8v-1.2c0-0.2-0.1-0.2-0.2-0.2
	c-0.1,0-0.2,0.1-0.2,0.2v1.2c0,0.3-0.1,0.5-0.4,0.5c-0.2,0-0.3-0.2-0.3-0.5v-1.2c0-0.2-0.1-0.2-0.2-0.2
	C68.3,32.3,68.3,32.4,68.3,32.5"/>
<path class="st0" d="M67,32.7h0.3v1.6c0,0.2,0.1,0.2,0.2,0.2c0.1,0,0.2-0.1,0.2-0.2v-1.6H68c0.1,0,0.2-0.1,0.2-0.2
	c0-0.1-0.1-0.2-0.2-0.2H67c-0.1,0-0.2,0.1-0.2,0.2C66.9,32.6,66.9,32.7,67,32.7"/>
<path class="st0" d="M66.8,32.7c-0.1-0.3-0.4-0.5-0.6-0.5c-0.2,0-0.3,0.1-0.4,0.2c-0.1,0.1-0.2,0.3-0.2,0.5c0,0.3,0.2,0.6,0.5,0.7
	c0.2,0,0.4,0.1,0.4,0.3c0,0.2-0.1,0.3-0.3,0.3c-0.2,0-0.3-0.1-0.4-0.3c0-0.1-0.2-0.1-0.2,0c0,0-0.1,0.1-0.1,0.2
	c0,0.3,0.4,0.6,0.7,0.6c0.4,0,0.7-0.3,0.7-0.7c0-0.4-0.3-0.6-0.6-0.6c-0.1,0-0.4-0.1-0.4-0.3c0-0.2,0.1-0.3,0.3-0.3
	c0.2,0,0.3,0.1,0.4,0.3c0,0,0.1,0.1,0.2,0C66.8,32.9,66.8,32.8,66.8,32.7"/>
<path class="st0" d="M76.2,32.7h0.4c0.2,0,0.3,0.1,0.3,0.3c0,0.2-0.1,0.3-0.3,0.3h-0.4 M76.2,34.3v-0.6l0,0l0.7,0.7
	c0.1,0.1,0.2,0.2,0.3,0.1c0,0,0.1-0.1,0-0.3l-0.5-0.6c0.4-0.1,0.6-0.4,0.6-0.7c0-0.4-0.4-0.6-0.7-0.6h-0.5c-0.1,0-0.1,0-0.2,0.1
	c0,0.1,0,0.1,0,0.3v1.6c0,0.2,0.1,0.2,0.2,0.2C76.2,34.5,76.2,34.4,76.2,34.3"/>
<path class="st0" d="M74.9,32.7l0.3,0.9h-0.5 M74.4,34.3l0.1-0.3h0.7l0.1,0.3c0,0.1,0.1,0.2,0.2,0.2c0.1,0,0.1,0,0.1-0.1
	c0,0,0-0.1,0-0.1c0,0,0-0.1,0-0.1l-0.5-1.7c0-0.1,0-0.1-0.1-0.2c0,0-0.1,0-0.2,0c-0.1,0-0.1,0-0.2,0c0,0,0,0,0,0.1c0,0,0,0.1,0,0.1
	l-0.5,1.7c0,0,0,0.1,0,0.1c0,0.1,0,0.1,0,0.1c0,0,0.1,0.1,0.1,0.1C74.3,34.5,74.4,34.5,74.4,34.3"/>
<path class="st0" d="M74.4,14.8l0,0.9c-1.2-0.1-2.3-0.1-3.5,0c-0.1,0-0.3,0.1-0.3,0.3c0,0,0,0.1,0,0.2c0,0.2,0.2,0.2,0.3,0.2
	c0.7-0.1,2.4,0,3.2,0.1c0.2,0,0.3,0.3,0.4,0.4c0.1,0.5,0.1,1,0,1.4c-0.1,0.2-0.3,0.5-0.6,0.5c-1.4,0-2.7,0-4.1,0.1v-0.9
	c1.1-0.1,2.4,0,3.6,0c0.1,0,0.2-0.1,0.2-0.2c0-0.1,0-0.1,0-0.2c0-0.2-0.1-0.3-0.2-0.3c-1-0.1-2.1-0.1-3.1,0c-0.3,0-0.6-0.3-0.6-0.6
	c0-0.4-0.1-0.8,0-1.2c0.1-0.4,0.3-0.7,0.5-0.7C71.7,14.7,73.1,14.7,74.4,14.8"/>
<path class="st0" d="M80.2,15.3l0,0.9c-1-0.2-2.9-0.3-3.5-0.3c-0.1,0-0.3,0-0.2,0.2l0,1.9c0,0.2,0.1,0.2,0.3,0.2
	c0.7,0,2.7,0.3,3.5,0.4l0,0.9c-0.7-0.2-3.5-0.5-4.4-0.5c-0.2,0-0.4-0.2-0.4-0.4v-3.1c0-0.3,0.3-0.7,0.6-0.7
	C76.8,14.9,79.4,15.1,80.2,15.3"/>
<path class="st0" d="M68.6,15.3c0.3,0.4,0.2,1.3,0.1,1.7c0,0.2-0.2,0.4-0.4,0.5c0.4,0.1,0.6,1.1,0.7,1.5c-0.3,0-0.7,0.1-1,0.1
	c-0.1-0.3-0.1-1-0.6-1.1c-0.2,0-1.6,0.1-2.5,0.2v1.2c-0.3,0.1-0.6,0.1-1,0.2l0-4.2c0.8-0.2,3.4-0.4,4-0.4C68.2,15,68.5,15,68.6,15.3
	"/>
<path class="st0" d="M81.9,15.5l0,1.5c0.5,0.1,2.4,0.5,2.8,0.6l0-1.6c0.3,0,0.7,0.1,0.9,0.2l0,4.3c-0.3-0.1-0.7-0.2-1-0.2l0-1.8
	c-0.6-0.2-2-0.5-2.8-0.6l0,1.8c-0.2,0-0.7-0.1-1-0.2l0-4.2C81.2,15.4,81.6,15.5,81.9,15.5"/>
<path class="st0" d="M63,16.3v2.6c0,0.3-0.2,0.8-0.6,0.9c-1.1,0.2-2.5,0.6-3.7,0.9c-0.2,0.1-0.7-0.2-0.7-0.6L58,17.5
	c0-0.4,0-0.9,0.5-1.1c1-0.3,2.6-0.6,3.7-0.8C62.5,15.6,63,15.8,63,16.3"/>
<path class="st1" d="M67.7,16.7c0,0.3-0.3,0.3-0.6,0.4c-0.7,0-1.5,0.1-2.2,0.2l0-1.2c0.5-0.2,2.1-0.3,2.4-0.2c0.2,0,0.4,0,0.4,0.3
	C67.7,16.3,67.8,16.4,67.7,16.7"/>
<path class="st0" d="M91.4,17.8l0,0.9c-1.3-0.5-3.1-0.9-3.8-1.1l0,0.7c1.4,0.3,3.3,0.9,3.8,1.2l0,0.9c-0.9-0.5-2.7-1-3.8-1.2l0,0.8
	c1.1,0.3,2.8,0.8,3.8,1.2l0,0.9c-1.1-0.5-4-1.3-4.9-1.5v-4.3C86.8,16.4,89.7,17.1,91.4,17.8"/>
<path class="st1" d="M62,17l0,1.7c0,0.2-0.2,0.2-0.3,0.3c-0.6,0.1-1.8,0.4-2.4,0.6c-0.2,0.1-0.2-0.2-0.3-0.3l0-1.6
	c0-0.3,0.2-0.5,0.4-0.6c0.6-0.2,1.5-0.3,2.1-0.4C61.8,16.7,62,16.8,62,17"/>
<path class="st0" d="M57.3,17.5l0,1.7c0,0.4-0.3,0.6-0.5,0.7c-0.9,0.3-2.4,0.8-3.6,1.3v1.1l-1.1,0.4l-0.1-0.1v-4.3
	c1.9-0.8,3.6-1.4,4.3-1.5C56.8,16.9,57.3,17.1,57.3,17.5"/>
<path class="st1" d="M56.2,18.9c-0.5,0.1-2.5,0.9-3,1.1l0-1.1c0.4-0.2,2.6-1.1,3-1c0.1,0,0.2,0.1,0.2,0.2l0,0.5
	C56.5,18.8,56.4,18.9,56.2,18.9"/>
<path class="st0" d="M69.6,35.9c-0.1,0-0.1,0.1,0,0.1c0,0.1,0.2,0.2,0.3,0.3c0,0,0.1,0.1,0.1,0.2c0,0-0.1,0-0.1,0
	c-0.2,0-0.4,0-0.5,0.1c-0.2,0.1-0.3,0.2-0.4,0.3c0,0-0.1,0-0.2,0.1c0,0-0.1,0.1-0.1,0.2c0,0.1-0.1,0.1-0.1,0.1c0,0-0.1,0-0.1,0
	c-0.1,0-0.1,0.1-0.2,0.1c0,0-0.1,0-0.1,0.1c0,0,0,0.1,0,0.1c0.1,0.1,0.1,0.1,0.2,0.1c0.1,0,0.2,0,0.3,0c0,0,0,0,0,0
	c0,0-0.1,0.1-0.1,0.1c0,0,0,0,0,0.1c0,0,0.1,0,0.1,0.1c0,0,0.1,0,0.1,0c0,0,0.1-0.1,0.1-0.1c0.1,0,0.1,0,0.2-0.1
	c0.1,0,0.1-0.1,0.2-0.1c0,0,0.1,0,0.1,0c0.1,0,0.1,0.1,0.2,0.1c0,0,0.1,0,0.1,0.1c0,0.1-0.1,0.1-0.1,0.2c0,0,0,0.1-0.1,0.2
	c0,0.1-0.1,0.1-0.1,0.2c0,0.1,0,0.1-0.1,0.1c-0.1,0.1-0.2,0.2-0.3,0.3c-0.2,0.2-0.3,0.4-0.5,0.6c-0.1,0.1-0.1,0.2-0.1,0.3
	c0,0.1-0.1,0.1-0.1,0.2c0,0.1-0.1,0.3-0.2,0.3c-0.1,0.1-0.1,0.1-0.2,0c-0.1,0-0.3-0.2-0.4-0.2c-0.1,0-0.1-0.1-0.1-0.2
	c0,0,0-0.1,0-0.2c0-0.1-0.1-0.2-0.2-0.3c-0.1,0-0.2,0-0.3,0c-0.1,0-0.2,0.1-0.2,0.2c0,0,0,0.1-0.1,0.2c-0.1,0.1-0.1,0.2-0.2,0.3
	c-0.1,0.1-0.1,0.2-0.2,0.3c-0.1,0.2-0.3,0.4-0.4,0.6c0,0,0,0.1,0,0.2c0,0-0.1,0-0.1,0.1c0,0.1,0,0.2-0.1,0.3c0,0.1-0.1,0.2-0.1,0.3
	c-0.1,0.2-0.2,0.3-0.3,0.4c0,0.1,0,0.2,0,0.3c0,0,0.1,0,0.2,0c0.1,0,0.2-0.1,0.2-0.1c0.1,0,0.1,0,0.2-0.1c0,0,0.1,0,0.1-0.1
	c0,0,0,0,0-0.1c0,0,0,0,0-0.1c0,0-0.1-0.1-0.1-0.1c0,0,0-0.1,0-0.1c0,0,0,0,0,0c0,0,0,0,0,0c0.1-0.1,0.1-0.3,0.2-0.4
	c0,0,0,0,0.1-0.1c0,0,0-0.1,0.1-0.1c0.1,0,0.1-0.1,0.1-0.1c0-0.1,0-0.1,0-0.2c0.1-0.3,0.3-0.6,0.5-0.8c0,0,0.1-0.1,0.1-0.1
	c0,0,0,0,0,0c0,0,0.1,0,0.1,0c0,0,0.1,0,0.1,0.1c0.1,0.2,0.3,0.4,0.4,0.7c0.1,0.1,0,0.3,0.1,0.4c0.1,0.1,0.2,0.1,0.3,0.2
	c0.1,0,0.2,0,0.3,0.1c0,0,0,0.1,0.1,0.1c0,0.1,0.1,0.2,0.1,0.3c0,0.1-0.1,0.1-0.2,0.1c-0.1,0-0.1,0-0.1,0c-0.2,0-0.3,0-0.5,0.1
	c-0.2,0-0.4,0-0.6,0.1c-0.1,0-0.1,0.1-0.1,0.2c0,0.1,0,0.2,0,0.3c0,0.1,0,0.2,0,0.3c0,0.2,0,1,0.1,1.5c0,0.1,0,0.2,0,0.2
	c0,0.1,0.2,0.2,0.2,0.2c0,0,0.1,0,0.1,0.1c0.1,0.1,0.1,0.3,0.2,0.3c0.1,0.1,0.2,0.1,0.2,0.1c0,0,0,0,0-0.1c0,0,0,0,0,0
	c0,0,0-0.1,0.1-0.1c0,0,0,0,0,0c0,0,0,0,0.1,0c0,0,0-0.1,0.1-0.1c0,0,0.1-0.1,0.1-0.1c0,0,0-0.1,0-0.1c0,0-0.1,0-0.1,0
	c0,0-0.1,0-0.1,0c-0.1,0-0.2,0-0.2,0c0-0.1-0.2-0.2-0.2-0.2c0,0-0.1-0.1-0.1-0.1c0-0.4-0.1-0.9-0.1-1c0,0,0-0.1,0-0.1
	c0-0.1,0-0.3,0-0.5c0-0.1,0.1-0.2,0.1-0.3c0,0,0,0,0,0c0.1,0,0.2-0.1,0.4,0c0.1,0,0.3,0.1,0.5,0.1c0.1,0,0.2,0,0.3,0.1
	c0.1,0,0.1,0,0.2,0.1c0.4,0,0.8-0.1,1-0.3c0,0,0,0,0.1,0c0.1,0.1,0.2,0.2,0.3,0.2c0.3,0.2,0.6,0.3,0.9,0.4c0.4,0.1,0.8,0,1.3,0
	c0.1,0,0.2,0,0.3,0.1c0,0,0,0,0,0.1c0,0.2-0.1,0.3-0.1,0.5c0,0.1,0.1,0.2,0.1,0.2c0,0.1,0.1,0.2,0.1,0.2c0.1,0.1,0.2,0.3,0.3,0.4
	c0,0.1,0,0.2-0.1,0.3c-0.1,0.2-0.3,0.4-0.4,0.5c0,0-0.1,0.1-0.1,0.1c0,0-0.1,0.1-0.1,0.1c-0.3,0.2-0.6,0.4-0.8,0.6
	c-0.1,0-0.1,0.1-0.2,0.1c-0.1,0.1-0.1,0.1-0.1,0.2c0,0,0,0.1-0.1,0.1c0,0.1-0.1,0.1-0.2,0.2c0,0,0,0.1,0,0.1c0,0-0.1,0.1-0.1,0.1
	c0,0,0,0.1,0,0.1c0.1,0,0.2,0,0.3-0.1c0.1,0,0.2-0.1,0.3-0.1c0,0,0,0,0.1-0.1c0-0.1,0-0.1,0-0.2c0,0,0-0.1,0-0.1
	c0,0,0.1-0.1,0.1-0.1c0.2-0.1,0.4-0.2,0.6-0.3c0,0,0.1-0.1,0.1-0.1c0.2-0.1,0.4-0.2,0.6-0.3c0.1-0.1,0.2-0.1,0.3-0.2
	c0,0,0.1-0.1,0.2-0.1c0.2-0.1,0.4-0.3,0.6-0.4c0,0,0-0.1,0-0.2c0-0.2,0-0.3,0-0.5c0-0.1,0.1-0.2,0.1-0.3c0,0,0.1-0.1,0.1,0
	c0.1,0.1,0.1,0.2,0.3,0.3c0.2,0.1,0.4,0.2,0.6,0.3c0,0,0.1,0,0.2,0c0,0,0.1,0.1,0.1,0.1c0,0.1,0,0.2,0,0.3c0,0.2-0.1,0.3-0.2,0.5
	c-0.1,0.1-0.1,0.3-0.2,0.4c-0.1,0.2-0.3,0.3-0.4,0.4c-0.1,0.1-0.2,0.3-0.4,0.4c0,0-0.1,0-0.1,0c0,0.1-0.1,0.1-0.1,0.2
	c0,0,0,0.1,0,0.1c-0.1,0.2-0.4,0.3-0.3,0.5c0,0,0,0.1,0,0.1l0.2,0c0.1,0,0.2-0.1,0.2-0.1c0.1,0,0.2,0,0.2,0c0,0,0,0,0-0.1
	c0-0.1,0-0.1,0-0.2c0-0.1,0-0.1,0-0.2c0-0.1,0.1-0.2,0.2-0.3c0.1-0.1,0.2-0.1,0.3-0.1c0.1-0.1,0.3-0.2,0.4-0.2c0.1,0,0.2,0,0.2-0.1
	c0-0.1,0-0.2,0-0.2c0.1-0.2,0.2-0.3,0.3-0.5c0-0.1,0.1-0.1,0.2-0.2c0.1-0.1,0.2-0.2,0.2-0.3c0,0,0-0.1,0-0.1c0,0,0.1-0.1,0.1-0.1
	c0-0.1,0-0.2,0-0.3c0,0-0.1,0-0.1,0c0,0-0.1-0.1-0.1-0.1c-0.2-0.3-0.3-0.5-0.4-0.8c0-0.2,0-0.4,0.1-0.6c0.1-0.1,0.2-0.2,0.3-0.3
	c0.1-0.1,0.2-0.2,0.3-0.4c0.1-0.2,0.1-0.4,0.2-0.5c0-0.1,0-0.3,0-0.4c0-0.1,0-0.1,0.1-0.1c0.1-0.1,0.1-0.2,0.2-0.2
	c0.1,0,0.2,0,0.3,0c0.2,0.1,0.3,0.1,0.5,0.2c0.1,0,0.2,0,0.3,0c0.1,0,0.2-0.1,0.3-0.2c0,0,0-0.1,0-0.1c-0.1,0-0.2,0-0.2,0
	c-0.1,0-0.1-0.1-0.2-0.1c0-0.1-0.1-0.1-0.1-0.2c0,0,0-0.1,0.1-0.1c0.1,0,0.2-0.2,0.3-0.3c0.1-0.1,0.1-0.2,0.1-0.4c0,0,0,0-0.1,0
	c-0.1,0.1-0.1,0.2-0.2,0.2c-0.1,0.1-0.2,0.1-0.3,0.1c-0.1,0-0.1,0-0.2-0.1c0,0-0.1-0.1-0.1-0.2c0-0.1,0.1-0.1,0.1-0.1
	c0.1,0,0.3,0,0.4-0.1c0.1-0.1,0.1-0.1,0.2-0.2c0,0,0-0.1,0-0.2c0,0,0,0,0,0c-0.1,0-0.1,0.1-0.2,0.1c-0.1,0-0.2,0-0.3,0
	c-0.1-0.1-0.2-0.2-0.3-0.3c0,0,0-0.1,0-0.1c0.1,0,0.2-0.1,0.3-0.3c0,0,0-0.1,0-0.1c0,0,0.1-0.1,0.1-0.1c0-0.1,0-0.1,0-0.3
	c0-0.1-0.1-0.1-0.1-0.2c0,0-0.1,0-0.1,0c0,0.1,0,0.2-0.1,0.3c-0.1,0.1-0.1,0.2-0.2,0.2c0,0-0.1,0.1-0.2,0.1c-0.1,0-0.2-0.1-0.2-0.2
	c0-0.1,0-0.2,0.1-0.3c0.1-0.2,0.2-0.4,0.4-0.6c0.1-0.1,0.2-0.2,0.3-0.4c0.1-0.1,0.1-0.3,0-0.3c-0.1,0-0.1,0.2-0.2,0.2
	c-0.3,0.2-0.6,0.2-0.8,0.4c-0.1,0.1-0.2,0.3-0.2,0.5c0,0.1,0,0.3-0.1,0.3c0,0-0.1,0.1-0.1,0c-0.1-0.1-0.2-0.2-0.2-0.3
	c0-0.1,0-0.2,0-0.3c0,0,0-0.1,0,0c-0.1,0.1-0.2,0.2-0.2,0.3c0,0.2,0,0.3,0,0.5c0.1,0.2,0.3,0.5,0.5,0.7c0.1,0.2,0.3,0.4,0.4,0.6
	c0.1,0.2,0.1,0.3,0.1,0.6c0,0.1-0.2,0.5-0.3,0.5c0,0-0.1,0-0.1,0c-0.2-0.1-0.3-0.3-0.5-0.4c-0.2-0.1-0.4-0.2-0.7-0.3
	c-0.3-0.1-0.6,0-0.9,0c-0.3,0-0.6,0.1-0.9,0c-0.3,0-0.5,0-0.8-0.1c-0.2-0.1-0.3-0.2-0.4-0.4c-0.1-0.2-0.1-0.4-0.1-0.6
	c0-0.2,0.1-0.3,0.1-0.5c0.1-0.1,0.2-0.2,0.3-0.3c0.1-0.1,0.3-0.1,0.5-0.1c0.1,0,0.2,0.1,0.2,0.1c0.1,0.1,0.1,0.1,0.2,0.2
	c0,0,0,0,0.1,0c0-0.2,0-0.4-0.1-0.6c-0.1-0.2-0.3-0.4-0.3-0.4c0,0,0.1,0,0.1,0c0.2,0,0.3,0,0.5,0.1c0.1,0.1,0.2,0.2,0.2,0.2
	c0,0,0,0,0,0c0-0.4-0.1-0.5-0.2-0.7c-0.1-0.1-0.2-0.2-0.3-0.3c-0.1,0,0.1-0.1,0.1-0.1c0.2,0,0.2,0,0.4,0.1c0.1,0,0.1,0.1,0.1,0.1
	c0,0,0.1,0.1,0.1,0.1c0,0,0,0,0-0.1c0-0.1,0-0.2-0.1-0.2c-0.2-0.2-0.4-0.4-0.6-0.6c0,0-0.1,0-0.1-0.1c-0.1-0.1-0.1-0.2-0.1-0.3
	c0,0-0.1-0.1-0.1-0.1c0-0.1,0-0.1,0-0.2c0.1-0.1,0.1-0.1,0.3-0.2c0.1,0,0.2,0,0.3-0.1c0,0,0.1,0,0.1,0c0,0,0-0.1,0-0.1
	c-0.1-0.1-0.3-0.1-0.4-0.1c-0.2,0-0.4,0-0.6,0c-0.2,0.1-0.3,0.1-0.5,0.1c-0.1,0-0.2,0-0.3-0.1c-0.1,0-0.1-0.1-0.1-0.2
	c0-0.1,0-0.3,0.1-0.4c0-0.1,0.1-0.1,0.2-0.2c0.1,0,0.1-0.1,0.1-0.1c0,0-0.1,0-0.1,0c-0.2,0.1-0.4,0.1-0.5,0.2
	c-0.1,0.1-0.2,0.3-0.3,0.4c0,0,0,0-0.1,0.1c0,0-0.1,0-0.1,0c-0.1,0.1-0.3,0.1-0.4,0.2c-0.1,0.1-0.2,0.2-0.4,0.2
	c-0.1,0-0.3,0.1-0.4,0.1c-0.1,0-0.2,0-0.3-0.1C69.7,35.9,69.7,35.9,69.6,35.9 M71.1,36.1C71.1,36.2,71.1,36.2,71.1,36.1
	c0,0.1,0.1,0.1,0.1,0.2c0,0,0.1,0.1,0.1,0.1c0,0,0.1,0.1,0.1,0.1c0,0.1,0.1,0.2,0.1,0.3c0,0.2,0.1,0.3,0.1,0.5c0,0.1,0,0.3,0,0.4
	c0,0.1,0,0.1,0,0.2c0,0.1,0,0.1,0,0.2c0,0.1,0,0.1,0,0.2c0,0.1,0,0.1,0,0.2c0,0.1,0,0.2,0.1,0.2c0.1,0,0.1,0,0.2,0
	c0.1-0.1,0.2-0.2,0.2-0.3c0-0.4,0.1-0.8,0-1.3c-0.1-0.3-0.1-0.6-0.4-0.8C71.5,36.1,71.3,36,71.1,36.1"/>
<polyline class="st0" points="142.6,80.1 142.6,78.3 123.8,78.3 123.8,88 142.6,88 142.6,86.2 125.9,86.2 125.9,84 142.6,84 
	142.6,82.2 125.9,82.2 125.9,80.1 "/>
<polyline class="st0" points="119.1,82.2 106.2,82.2 106.2,78.3 104.1,78.3 104.1,87.9 106.2,87.9 106.2,84.3 119.1,84.3 
	119.1,87.9 121.2,87.9 121.2,78.3 119.1,78.3 "/>
<path class="st0" d="M84,80.4v5.4C84,87,85,88,86.2,88l15.4,0v-2.1H86.5c-0.1,0-0.3-0.1-0.3-0.3v-4.9c0-0.2,0.2-0.3,0.3-0.3h15.1
	v-2.1H86.2C85,78.3,84,79.2,84,80.4"/>
<path class="st0" d="M79.3,82.2l-13.6,0v0c-0.2,0-0.4-0.1-0.4-0.3v-1.4c0-0.2,0.2-0.3,0.4-0.3h15.4v-1.8H65.4c-1.2,0-2.1,1-2.1,2.1
	v1.4c0,1.2,1,2.1,2.2,2.1L79,84c0.2,0,0.4,0.1,0.4,0.3v1.5c0,0.2-0.2,0.3-0.4,0.3H63.6V88l15.8,0c1.2,0,2.2-1,2.2-2.1v-1.5
	C81.5,83.2,80.5,82.2,79.3,82.2"/>
<path class="st0" d="M58.7,84.7c1.1,0,2.1-1,2.1-2.1l0-2.1c0-1.2-1-2.1-2.1-2.1l-16.1,0V88h2.1v-2.5h11.9c1.2,0,2.1,1,2.1,2.1v0.4
	h2.1v0C60.8,86.5,60,85.2,58.7,84.7 M58.7,82.9c0,0.2-0.1,0.4-0.3,0.4H44.7v-2.9h13.6c0.2,0,0.4,0.2,0.4,0.4V82.9z"/>
<path class="st0" d="M37.9,78.3H24.2c-1.2,0-2.2,1-2.2,2.1v5.4c0,1.2,1,2.1,2.2,2.1h13.6c1.2,0,2.1-1,2.1-2.1v-5.4
	C40,79.3,39,78.3,37.9,78.3 M37.9,85.5c0,0.2-0.2,0.4-0.3,0.4h-13c-0.1,0-0.3-0.1-0.3-0.3v-4.9c0-0.2,0.2-0.3,0.3-0.3h12.9
	c0.2,0,0.4,0.2,0.4,0.4V85.5z"/>
<path class="st0" d="M17.4,78.3l-16.1,0V88h2.1v-2.5h13.9c1.2,0,2.1-1,2.1-2.1v-2.8C19.6,79.2,18.6,78.3,17.4,78.3 M17.4,82.9
	c0,0.2-0.1,0.4-0.3,0.4H3.5v-2.9h13.6c0.2,0,0.4,0.2,0.4,0.4L17.4,82.9z"/>
</svg>
