<?xml version="1.0" encoding="utf-8"?>
<!-- Generator: Adobe Illustrator 24.1.1, SVG Export Plug-In . SVG Version: 6.00 Build 0)  -->
<svg version="1.1" id="Layer_1" xmlns="http://www.w3.org/2000/svg" xmlns:xlink="http://www.w3.org/1999/xlink" x="0px" y="0px"
	 viewBox="0 0 144 101" style="enable-background:new 0 0 144 101;" xml:space="preserve">
<style type="text/css">
	.st0{fill-rule:evenodd;clip-rule:evenodd;fill:#0060A9;}
</style>
<path class="st0" d="M2.2,50.5c0-15.4,31.2-27.9,69.8-27.9c38.5,0,69.8,12.5,69.8,27.9c0,15.4-31.2,27.9-69.8,27.9
	C33.5,78.4,2.2,65.9,2.2,50.5L2.2,50.5z M87.6,52.9c0-0.1-0.1-0.2-0.2-0.2c-1.9-0.3-3.9-0.5-6-0.7c-0.1,0-0.2-0.1-0.1-0.4
	c6.4-6.8,8.9-15.4,5.6-22.2c0-0.1,0.1-0.2,0.3-0.2c22.2,2.7,38.4,11.2,38.4,21.2c0,12.2-23.9,22.1-53.5,22.1s-53.5-9.9-53.5-22.1
	c0-10.6,18-19.4,42-21.6c0.1,0,0.2,0.1,0.2,0.3l-5.2,28.7c0,0.2-0.1,0.4-0.1,0.7c0,1.9,1.6,3.5,3.5,3.5l0.2,0
	c4.7-0.2,9.7-1.7,14.4-4.4c1.4-0.8,2.6-1.6,3.9-2.6c0.1-0.1,0.2-0.1,0.3,0c1.6,1,2.5,2.3,2.5,3.6c0,1.8-1.7,3.4-4.4,4.6
	c-3.2,1.4-7.8,2.3-13,2.3c-4.4,0-8.4-0.6-11.5-1.7c-0.1,0-0.2,0.1-0.3,0.2l-0.4,2.4c0,0.1,0.1,0.2,0.2,0.3
	c6.3,1.5,13.6,2.3,21.3,2.3c9.6,0,17.4-3.1,17.4-7c0-1.5-1.2-2.9-3.2-4c-1.8-0.9-2.9-2-2.6-2.7c0.3-0.8,2-0.9,4-0.4
	c0.1,0,0.2-0.1,0.3-0.3L87.6,52.9L87.6,52.9z M72,35.4c0,0.2,0,0.3,0,0.4c0.3,5.1-2.9,12-8.7,17.8c-1.2,1.2-2.4,2.3-3.7,3.2
	c0,0-0.1,0-0.2,0c-0.1,0-0.2-0.1-0.2-0.3l5.7-31.2c0-0.1-0.1-0.2-0.2-0.2C33.5,26.6,9.2,37.4,9.2,50.5c0,14.1,28.1,25.6,62.8,25.6
	s62.8-11.5,62.8-25.6c0-14.1-28.1-25.6-62.8-25.6c-1.1,0-2.2,0-3.3,0c-0.1,0-0.2,0.1-0.2,0.2l-0.7,3.6c0,0.1,0,0.2,0.1,0.2
	C70.3,30.1,72,32.5,72,35.4L72,35.4z"/>
</svg>
