<?xml version="1.0" encoding="utf-8"?>
<!-- Generator: Adobe Illustrator 24.0.2, SVG Export Plug-In . SVG Version: 6.00 Build 0)  -->
<svg version="1.1" id="Layer_1" xmlns="http://www.w3.org/2000/svg" xmlns:xlink="http://www.w3.org/1999/xlink" x="0px" y="0px"
	 viewBox="0 0 144 101" style="enable-background:new 0 0 144 101;" xml:space="preserve">
<style type="text/css">
	.st0{fill-rule:evenodd;clip-rule:evenodd;fill:#373435;}
</style>
<g id="Layer_1_1_">
</g>
<path class="st0" d="M72,7.5c39.1,0,70.8,19.3,70.8,43s-31.7,43-70.8,43S1.2,74.2,1.2,50.5S32.9,7.5,72,7.5z M71.5,57.6L44.3,85.9
	C52.5,89,62,90.7,72,90.7s19.5-1.8,27.7-4.9L72.5,57.6C72.1,57.2,71.9,57.2,71.5,57.6L71.5,57.6z M43.5,85.6l18.2-34.2
	c0.3-0.6-0.3-1.1-0.8-1.2l-45.4-9.5c-1.1,3.1-1.7,6.4-1.7,9.7C13.8,65.6,25.8,78.7,43.5,85.6z M15.7,40.3l49.1,0.1
	c1,0,1.4,0.1,1.6-1.1l5.5-29C44.9,10.3,22.2,23,15.7,40.3z M72.1,10.3l5.5,29c0.2,1.2,0.7,1.1,1.6,1.1l49.1-0.1
	C121.8,23,99.1,10.3,72.1,10.3z M128.5,40.8l-45.4,9.5c-0.5,0.1-1.1,0.7-0.8,1.2l18.2,34.2c17.7-6.9,29.7-20,29.7-35.1
	C130.2,47.1,129.6,43.9,128.5,40.8z"/>
</svg>
