<?xml version="1.0" encoding="utf-8"?>
<!-- Generator: Adobe Illustrator 24.0.2, SVG Export Plug-In . SVG Version: 6.00 Build 0)  -->
<svg version="1.1" id="Layer_1" xmlns="http://www.w3.org/2000/svg" xmlns:xlink="http://www.w3.org/1999/xlink" x="0px" y="0px"
	 viewBox="0 0 144 101" style="enable-background:new 0 0 144 101;" xml:space="preserve">
<style type="text/css">
	.st0{display:none;}
	.st1{fill-rule:evenodd;clip-rule:evenodd;fill:#385CAD;}
</style>
<g id="Layer_1_1_" class="st0">
</g>
<g>
	<polyline class="st1" points="15.1,71.9 42.5,71.9 42.5,80.2 34.7,80.2 34.7,100.3 23.2,100.3 23.2,80.2 15.1,80.2 15.1,71.9 	"/>
	<polyline class="st1" points="56.4,83.4 50.6,100.3 39.7,100.3 50.4,71.9 62.3,71.9 73.3,100.3 62.2,100.3 56.4,83.4 	"/>
	<polyline class="st1" points="70.7,71.9 98.1,71.9 98.1,80.2 90.2,80.2 90.2,100.3 78.8,100.3 78.8,80.2 70.7,80.2 70.7,71.9 	"/>
	<polyline class="st1" points="111.9,83.4 106.2,100.3 95.2,100.3 106,71.9 117.9,71.9 128.9,100.3 117.8,100.3 111.9,83.4 	"/>
	<path class="st1" d="M112.4,19.8c-1-2-2.4-3.9-4-5.7c-3.8-4.1-9.1-7.4-15.4-9.8C86.6,2,79.4,0.7,72,0.7c-7.3,0-14.6,1.2-20.9,3.6
		c-6.3,2.3-11.6,5.7-15.4,9.8c-1.7,1.8-3,3.7-4,5.7c8.2-2,22.2-4.6,35.2-4.9c1.3,0,2.1,0.4,2.7,1.1c0.7,0.9,0.6,4,0.6,5.4l-0.4,36.1
		c0.7,0,1.5,0,2.2,0c0.7,0,1.5,0,2.2,0l-0.4-36.2c0-1.4-0.1-4.5,0.6-5.4c0.6-0.7,1.4-1.1,2.7-1.1C90.2,15.2,104.2,17.9,112.4,19.8"
		/>
	<path class="st1" d="M114.1,24.5c-12-2.7-20-3.2-27.9-3.6c-6.9-0.4-7,2.1-6.3,6.8c0,0.3,0.1,0.6,0.2,1.1
		c2.3,13.7,5.2,25.4,5.7,27.4c16.8-3.8,28.9-14.5,28.9-26.9C114.7,27.6,114.5,26.1,114.1,24.5"/>
	<path class="st1" d="M64.1,27.7c0.7-4.7,0.6-7.1-6.3-6.8C50,21.3,42,21.8,30,24.5c-0.4,1.5-0.6,3.1-0.6,4.7
		c0,5.4,2.2,10.6,6.3,15.1c3.8,4.1,9.1,7.4,15.4,9.8c2.3,0.8,4.7,1.5,7.2,2.1c0.5-1.9,3.4-13.9,5.7-27.8
		C64.1,28.1,64.1,27.9,64.1,27.7"/>
</g>
</svg>
