<?xml version="1.0" encoding="utf-8"?>
<!-- Generator: Adobe Illustrator 24.1.1, SVG Export Plug-In . SVG Version: 6.00 Build 0)  -->
<svg version="1.1" id="Layer_1" xmlns="http://www.w3.org/2000/svg" xmlns:xlink="http://www.w3.org/1999/xlink" x="0px" y="0px"
	 viewBox="0 0 144 101" style="enable-background:new 0 0 144 101;" xml:space="preserve">
<style type="text/css">
	.st0{fill-rule:evenodd;clip-rule:evenodd;fill:#FFFFFF;}
	.st1{fill-rule:evenodd;clip-rule:evenodd;fill:#231F20;}
	.st2{fill-rule:evenodd;clip-rule:evenodd;fill:#F58220;}
</style>
<g>
	<path class="st0" d="M73.2,2c5.1,4,11.4,7.1,18.8,9.4c6.4,2,13.6,3.3,21.3,3.9l1.3,0.1V32h20.3v36.4h-12.5l-1.2,1.2l-3.1,2.7
		c-13.7,12.2-32.7,26.8-45.7,27.3h-0.1h-0.1c-9.9-0.3-26.7-10.2-46-27.1L23.4,70l-1.5-1.6H9.1V32h20.7V15.3l1.3-0.1
		C47.5,14.5,60,10.4,71.5,1.9l0.9-0.6L73.2,2L73.2,2z"/>
	<path class="st1" d="M72.4,3.1c11.2,8.7,26.4,12.4,40.9,13.5v11.8c-3.1-0.2-5.5,3.1-5.6,5l25.8,0V67h-24c0.6,3.1,4.7,4.5,7.7,4.3
		c-15.9,14.1-33.5,26.5-44.8,27c-10.3-0.3-27.8-11.6-45.1-26.8c7.2,0.1,7.8-4.5,7.8-4.5l-24.6,0V33.5h25.8c-0.1-2.5-2.4-4.7-5.1-5
		V16.6C46.5,15.9,59.8,12.2,72.4,3.1L72.4,3.1z"/>
	<path class="st2" d="M110.3,19.2c0,2.1,0,5,0,7.4c-2.8,0.6-5.7,4.4-5.7,6.9c-1.6,0-2.3,0-2.3,0c0.2-4.6,2.8-6.9,5.7-8.4
		c0-1.5,0-2.3,0-3.7c-12.3-0.3-26.6-5.6-35.5-11.6c-8.1,5.5-23.4,11.3-35.8,11.6c0,0.8,0,2.4,0,3.7c3.3,1.7,5.2,4.9,5.4,8.4
		c-1.3,0-1.8,0-2.4,0c-0.5-3.7-2.6-5.6-5.2-7.1c0-2.3,0-4.6,0-7.1c14.1-0.8,29.9-6.2,38-12.5C80.1,13.2,96.4,18.1,110.3,19.2
		L110.3,19.2z"/>
	<path class="st2" d="M96.9,25.3c0.3,0.4,0.5,2.3-0.5,2.3c-1.2-0.1-1.7-0.1-3.4-0.2l0-2.8C94.5,24.8,96.7,25.1,96.9,25.3L96.9,25.3z
		 M99.1,23.5c1.4,1.5,1,5.4-0.1,5.8c1.2,0.9,1,4.2,1,4.2h-2.7c0-3.2-0.6-3.3-2.2-3.3c-1.1,0-0.8,0-2.1,0v3.3h-2.7V21.2
		C94,22,98.4,22.7,99.1,23.5L99.1,23.5z M85.3,23.3c0,2.8,0,3.8,0,6.4c0,1.3-1.2,1.1-2,1.1c-1.2,0-2.3,0.2-2.3-1.9c0,0,0-4.1,0-6.5
		c0-1.4,0.9-1.2,2.2-0.8C84,21.8,85.3,21.8,85.3,23.3L85.3,23.3z M63.9,30.1c0,0.5-0.2,0.6-0.6,0.6c-0.7,0-2,0-2.9,0
		c-0.6,0-0.8-0.5-0.8-1c0-2-0.2-6.7,0.5-7.4c0.2-0.2,3.8-2.3,3.8-0.6C63.9,21.8,63.9,29.6,63.9,30.1L63.9,30.1z M52.3,33.5
		c0-1.6,0.1-4.2-0.3-4.6c-0.8,1.4-1.4,3.1-2.1,4.4c-0.7-1.3-1.3-2.8-2.2-3.9l-0.1,4.1l-2.8,0V23.2c1.5-0.3,2-0.4,2.8-0.5l2.2,4.8
		l2.3-5.7c0.8-0.2,0.7-0.2,2.9-0.7v12.4H52.3L52.3,33.5z M66.6,20.6c0,4.5,0,8.8,0,10.5c0,2.4-0.9,2.4-5,2.4c-3.4,0-4.5,0.1-4.6-3.3
		v-7.2c0.1-2.7,0.8-2.6,3.9-4.1C65.7,16.5,66.4,17.2,66.6,20.6L66.6,20.6z M88,22.1c0,1.6,0,8.7,0,8.7c0,2.7-1,2.7-4.7,2.7
		c-3.6,0-5.1,0-5.1-2.7c0,0,0-7.8,0-10.8c0-3.9,3.2-2.2,5.6-1.3C86,19.6,88,20,88,22.1L88,22.1z M77.8,16.1l0,3.1l-4-2v16.2h-3.1
		c0-5.3,0-16.2,0-16.2l-3.9,1.9l0-3.1c0,0,4.4-2.3,5.3-3C73.3,13.9,77.8,16.1,77.8,16.1L77.8,16.1z"/>
	<polygon class="st2" points="13.6,36.6 130.5,36.6 130.5,63.7 13.6,63.7 13.6,36.6 	"/>
	<polygon class="st1" points="16.2,38.9 128.2,38.9 128.2,61.6 16.2,61.6 16.2,38.9 	"/>
	<path class="st0" d="M116.5,44.9c0,1.6,0,11,0,11c0,1.8-1.7,3.4-3.5,3.3c-1.5,0-3.3-0.8-3.3-3.4c0-2.4,0-6.4,0-11
		c0-3.3,2.1-3.6,3.6-3.6C114.6,41.2,116.5,41.7,116.5,44.9L116.5,44.9z M108.7,44.3v3.3l-2.6,0c0-2.1,0-3.5-1-3.4
		c-0.9,0-0.7,1-0.7,1.8c0,2.2,1.2,2.7,2.3,3.5c1.6,1.2,2.1,1.9,2.1,5.2c0,2.4-0.8,4.3-3.5,4.3c-3.1,0-3.6-1.4-3.5-6.7
		c0.4,0,2,0,2.6,0c0,0.9,0,2.1,0,2.6c0,0.5-0.1,1.5,1,1.5c0.6,0,0.9-0.5,0.9-2c0-1.7-0.5-2.3-1.1-2.7c-1.1-0.9-3.3-1.7-3.3-4.4
		c0-2.4-0.4-6,3.5-6C107.7,41.3,108.7,42.6,108.7,44.3L108.7,44.3z M22.2,48.3H24v-6.5h2.6v17.1H24v-7.2c-0.7,0-1.1,0-1.8,0l0,7.1
		h-2.6V41.7h2.6V48.3L22.2,48.3z M33,41.8c0.7,5.5,1.3,11.1,1.9,17.1h-2.4c-0.2-1.5-0.4-3.1-0.5-4.1h-1.8l-0.5,4.1h-2.4
		c0.6-5.6,1.2-11.3,1.8-17.1H33L33,41.8z M39.9,41.7c2.5,0,2.8,2.9,2.8,4.7c0,0.8,0.1,2.4-1.3,3.7c0.8,0.8,1.3,1.4,1.3,3.2
		c0,1.8,0,3.3,0,5.5h-1.7c-0.3,0-1-0.2-1-0.7c0-1.1,0-3.4,0-4.7c0-1.1-0.6-1.2-1.2-1.2h-0.5v6.6h-2.8l0-17.1
		C36.7,41.7,37.1,41.7,39.9,41.7L39.9,41.7z M46.4,56c0.9,0,1.6,0,2.6,0v2.9h-5.3V41.8h2.7V56L46.4,56z M54.9,44.5h-2.6v4
		c1,0,1.7,0,2.6,0v3h-2.6V56c1,0,1.6,0,2.6,0v2.9h-5.3V41.8h5.3V44.5L54.9,44.5z M57.9,41.7c0.3,1.8,0.6,3.6,1.2,5.6
		c0.6-2,0.7-3.7,1.3-5.6h2.5c-0.7,3.6-1.6,6.7-2.6,10.1c0,2.7,0,4.2,0,6.9h-2.6c0-2.8,0-4.8,0-6.9c-0.9-3.4-1.8-6.7-2.5-10
		C56.4,41.7,57,41.7,57.9,41.7L57.9,41.7z M72.7,41.7c1.3,0,2.3,0.9,2.3,2.9c0,3.6,0,8,0,11.1c0,1.4-1,3-3.1,3c-0.9,0-2.2,0-3.7,0
		V41.8C70.3,41.7,71,41.7,72.7,41.7L72.7,41.7z M83.3,58.7h-2.4c-0.3-1.4-0.4-2.7-0.7-4.1c-0.7,0-1.3,0-1.8,0l-0.5,4.1h-2.4
		c0.5-5.7,1.5-11.5,2-17.1h3.7L83.3,58.7L83.3,58.7z M85.1,41.6c0.3,3.3,0.7,6.8,1,10.1c0,0,0.8-7.2,1.2-10.1h2.5l-2.4,17.1h-2.7
		l-2.3-17.1H85.1L85.1,41.6z M93,58.7h-2.6V41.6H93L93,58.7L93,58.7z M98.2,41.6c1.3,0,2.8,0.8,2.8,3V56c0,1.8-1.1,2.8-3.3,2.8
		c-1.2,0-2.6,0-3.5,0V41.6C95.2,41.6,96.7,41.6,98.2,41.6L98.2,41.6z M120.8,41.6c0.6,2.6,1.1,5.3,1.7,7.9l-0.1-7.9h2.6v17h-3
		c-0.6-3.2-1.1-6.2-1.8-9.4l0.1,9.4h-2.7v-17H120.8L120.8,41.6z M113.9,44.9c0,1,0,6.5,0,10.4c0,1.6-1.8,1.2-1.8-0.2
		c0-3.9,0-8,0-10.2C112.1,43.7,113.9,43.8,113.9,44.9L113.9,44.9z M72.4,45.2c0,0.7,0,7.9,0,10c0,0.5-0.3,0.8-0.6,0.8
		c-0.6,0-0.5,0-0.9,0l0-11.6C70.9,44.3,72.4,44,72.4,45.2L72.4,45.2z M98.5,45.2c0,2.9,0,9.9,0,9.9c0,0.8-0.2,0.8-1.7,0.8V44.3
		c0,0,0.4,0,0.8,0C98.1,44.3,98.5,44.7,98.5,45.2L98.5,45.2z M39.9,45.4c0,0.7,0,1.9,0,2.7c0,0.7-0.3,0.9-0.6,0.9h-1v-4.5
		C39.3,44.5,39.9,44.5,39.9,45.4L39.9,45.4z M79.8,51.4h-1.2l0.6-6.1C79.6,47,79.7,49.7,79.8,51.4L79.8,51.4z M31.6,51.4h-1l0.3-6.2
		C31.3,47.4,31.4,49.2,31.6,51.4L31.6,51.4z M62.4,49.3h4.7v2.1h-4.7V49.3L62.4,49.3z"/>
	<path class="st2" d="M41.1,67c0,2.8-1.2,4.8-3,6.3c11.4,10.2,26.8,18.9,34.4,19.4c7.7-0.5,22.7-9.8,34.1-19.5c-2.3-2-3-3.8-3-6.2
		c1.1,0,1.6,0,2.3,0c0.2,3,3.3,5.4,4.6,5.9C93.8,86.8,83.1,93.6,72.4,95c-11.2-1.6-22-8.3-38.3-22c2.3-1,4.6-3.4,4.5-6H41.1L41.1,67
		z"/>
	<path class="st2" d="M82.7,79.3c-0.7,0.3-1.1,0.4-2,0.6c0,0,0.8-6.9,1.1-6.9C82,72.9,82.7,79.3,82.7,79.3L82.7,79.3z M74.4,69.5
		c0.4,0,0.7,0.3,0.7,0.9c0,1.6,0,4.7,0,6.6c0,0.7-0.4,1-2,1.2v-8.7H74.4L74.4,69.5z M55.6,70.4c0,3.1,0,5.5,0,8.4
		c0,1.5-1,0.8-1.4,0.6c-0.3-0.2-1.2-0.5-1.2-1.6c0-2.1,0-5.7,0-7.5c0-0.7,0.8-0.8,1.1-0.8C55,69.5,55.6,69.3,55.6,70.4L55.6,70.4z
		 M49.2,67c0.4,0,0.6,0.2,0.6,0.6c0,0,0,1.3,0,1.6c0,0.4-0.3,0.4-0.3,0.4c-0.2,0-2.3,0-2.7,0c0,0.9,0,2.2,0,4.3
		c0,0.8,1.6,1.4,2.8,2.3c0,1.3,0,1.8,0,2.8c-1.8-1-5.3-3.4-5.3-4.4c0-1.7,0-4.3,0-6.1c0-0.8,0.9-1.6,1.6-1.6H49.2L49.2,67z M96.4,67
		c0.4,1.4,0.6,3.6,1.1,5l1.4-5c0.7,0,1.5,0,2.2,0c-0.7,2.1-1.9,4.7-2.6,6.1c0,1.2,0,3,0,3.8c-0.6,0.5-1.5,1.2-2.3,1.7
		c0-2.1,0-3.1,0-4.6c-0.8-2.3-1.6-4.7-2.4-7C94.4,67,95.7,67,96.4,67L96.4,67z M88.8,67c0.8,2.7,1.8,7.3,1.8,7.3h0.2V67h2.4
		c0,4.5,0,9,0,13.4c-0.8,0.6-1.5,1-2.2,1.4c-0.8-2.4-1.2-4.2-2.2-6.9l0.1,8.3l-2.5,1.5V67H88.8L88.8,67z M83.1,67
		c1.1,6.1,2.2,12,3,17.9c-0.5,0.4-1.3,0.8-2.3,1.2c-0.2-1.5-0.4-2.9-0.6-4.3c-1.1,0.2-1.9,0.5-2.9,0.8c-0.2,1.5-0.6,3.6-0.8,5.6
		c-0.6,0.3-1.2,0.5-2.9,1.1L80.3,67H83.1L83.1,67z M75.6,67c1.7,0,2.2,1.3,2.2,2.4l0,8.3c-0.1,2.6-1.2,2.7-4.7,3.1l0,9.3
		c-0.8,0.5-1.2,0.5-2.7-0.2V67C72.3,67,74.3,67,75.6,67L75.6,67z M61.1,67c0.7,0,0.8,0.9,0.8,0.9s1.7,6.1,2.3,8.2
		c1-3.4,1.7-6.1,2.4-9.2h2.5v22.6l-2.4-0.9l0-12.1l-0.3,0c-0.7,2.3-1.4,4.8-2.1,7c-0.7-2-1.9-5.7-2.7-8.3h-0.2c0,3.4,0,7.1,0,11
		c-1-0.3-1.4-0.6-2.3-1.2V67C59.8,67,60.6,67,61.1,67L61.1,67z M58,69.1c0,0,0,8.6,0,12.6c0,1.5-0.8,1.9-1.3,1.9
		c-0.8-0.1-1.3-0.5-3.1-1.7c-1.8-1.2-2.9-1.6-2.9-3.5c0-1.3,0-7.1,0-9.8c0-1.6,2.1-1.5,3.5-1.5C56.7,67,58,66.9,58,69.1L58,69.1z"/>
	<path class="st1" d="M116.9,68.5c0.2,0.2,0.3,0.4,0.3,0.6c0,0.2-0.1,0.5-0.3,0.6c-0.2,0.2-0.4,0.3-0.6,0.3c-0.2,0-0.5-0.1-0.6-0.3
		c-0.2-0.2-0.3-0.4-0.3-0.6c0-0.2,0.1-0.5,0.3-0.6c0.2-0.2,0.4-0.3,0.6-0.3C116.6,68.3,116.8,68.4,116.9,68.5L116.9,68.5z M117,68.4
		c-0.2-0.2-0.4-0.3-0.7-0.3c-0.3,0-0.5,0.1-0.7,0.3c-0.2,0.2-0.3,0.4-0.3,0.7c0,0.3,0.1,0.5,0.3,0.7c0.2,0.2,0.4,0.3,0.7,0.3
		c0.3,0,0.5-0.1,0.7-0.3c0.2-0.2,0.3-0.4,0.3-0.7C117.3,68.9,117.2,68.6,117,68.4L117,68.4z M116.5,69.1c0,0-0.1,0-0.2,0h-0.2v-0.4
		h0.2c0.1,0,0.2,0,0.2,0c0.1,0,0.1,0.1,0.1,0.2C116.6,69,116.5,69.1,116.5,69.1L116.5,69.1z M115.9,69.7h0.2v-0.4h0.2
		c0.1,0,0.2,0,0.2,0c0.1,0,0.1,0.1,0.1,0.3v0.1l0,0c0,0,0,0,0,0c0,0,0,0,0,0h0.2l0,0c0,0,0,0,0-0.1c0,0,0-0.1,0-0.1v-0.1
		c0-0.1,0-0.1-0.1-0.2c0-0.1-0.1-0.1-0.2-0.1c0.1,0,0.1,0,0.2-0.1c0.1,0,0.1-0.1,0.1-0.2c0-0.1-0.1-0.2-0.2-0.3c-0.1,0-0.2,0-0.3,0
		h-0.4V69.7L115.9,69.7z"/>
</g>
</svg>
