<?xml version="1.0" encoding="utf-8"?>
<!-- Generator: Adobe Illustrator 24.0.2, SVG Export Plug-In . SVG Version: 6.00 Build 0)  -->
<svg version="1.1" id="Layer_1" xmlns="http://www.w3.org/2000/svg" xmlns:xlink="http://www.w3.org/1999/xlink" x="0px" y="0px"
	 viewBox="0 0 144 101" style="enable-background:new 0 0 144 101;" xml:space="preserve">
<style type="text/css">
	.st0{display:none;}
	.st1{fill:#58595B;}
	.st2{fill:#595A5C;}
	.st3{fill:#5A5B5D;}
	.st4{fill:#5B5C5E;}
	.st5{fill:#5C5C5F;}
	.st6{fill:#5C5D60;}
	.st7{fill:#5D5E60;}
	.st8{fill:#5E5F61;}
	.st9{fill:#5F6062;}
	.st10{fill:#606163;}
	.st11{fill:#616264;}
	.st12{fill:#616365;}
	.st13{fill:#626366;}
	.st14{fill:#636467;}
	.st15{fill:#646567;}
	.st16{fill:#656668;}
	.st17{fill:#666769;}
	.st18{fill:#66686A;}
	.st19{fill:#67686B;}
	.st20{fill:#68696C;}
	.st21{fill:#696A6C;}
	.st22{fill:#6A6B6D;}
	.st23{fill:#6A6C6E;}
	.st24{fill:#6B6C6F;}
	.st25{fill:#6C6D70;}
	.st26{fill:#6D6E70;}
	.st27{fill:#6D6F71;}
	.st28{fill:#6E7072;}
	.st29{fill:#6F7073;}
	.st30{fill:#707174;}
	.st31{fill:#717275;}
	.st32{fill:#717375;}
	.st33{fill:#727476;}
	.st34{fill:#737477;}
	.st35{fill:#747578;}
	.st36{fill:#747678;}
	.st37{fill:#757779;}
	.st38{fill:#76777A;}
	.st39{fill:#77787B;}
	.st40{fill:#77797C;}
	.st41{fill:#787A7C;}
	.st42{fill:#797B7D;}
	.st43{fill:#7A7B7E;}
	.st44{fill:#7A7C7F;}
	.st45{fill:#7B7D7F;}
	.st46{fill:#7C7E80;}
	.st47{fill:#7D7E81;}
	.st48{fill:#7D7F82;}
	.st49{fill:#7E8082;}
	.st50{fill:#7F8183;}
	.st51{fill:#808184;}
	.st52{fill:#808285;}
	.st53{fill:#818385;}
	.st54{fill:#828486;}
	.st55{fill:#828487;}
	.st56{fill:#838588;}
	.st57{fill:#848688;}
	.st58{fill:#858789;}
	.st59{fill:#85878A;}
	.st60{fill:#86888B;}
	.st61{fill:#87898B;}
	.st62{fill:#888A8C;}
	.st63{fill:#888A8D;}
	.st64{fill:#898B8E;}
	.st65{fill:#8A8C8E;}
	.st66{fill:#8B8D8F;}
	.st67{fill:#8B8D90;}
	.st68{fill:#8C8E91;}
	.st69{fill:#8D8F92;}
	.st70{fill:#8E9092;}
	.st71{fill:#8E9093;}
	.st72{fill:#8F9194;}
	.st73{fill:#909295;}
	.st74{fill:#919395;}
	.st75{fill:#919396;}
	.st76{fill:#929497;}
	.st77{fill:#939598;}
	.st78{fill:#949698;}
	.st79{fill:#949699;}
	.st80{fill:#95979A;}
	.st81{fill:#96989B;}
	.st82{fill:#97999B;}
	.st83{fill:#979A9C;}
	.st84{fill:#989A9D;}
	.st85{fill:#999B9E;}
	.st86{fill:#9A9C9E;}
	.st87{fill:#9B9D9F;}
	.st88{fill:#9B9DA0;}
	.st89{fill:#9C9EA1;}
	.st90{fill:#9D9FA2;}
	.st91{fill:#9EA0A2;}
	.st92{fill:#9EA1A3;}
	.st93{fill:#9FA1A4;}
	.st94{fill:#A0A2A5;}
	.st95{fill:#A1A3A5;}
	.st96{fill:#A2A4A6;}
	.st97{fill:#A2A4A7;}
	.st98{fill:#A3A5A8;}
	.st99{fill:#A4A6A9;}
	.st100{fill:#A5A7A9;}
	.st101{fill:#A5A8AA;}
	.st102{fill:#A6A8AB;}
	.st103{fill:#A7A9AC;}
	.st104{fill:#A8AAAD;}
	.st105{fill:#A9ABAD;}
	.st106{fill:#A9ACAE;}
	.st107{fill:#AAACAF;}
	.st108{fill:#ABADB0;}
	.st109{fill:#ACAEB0;}
	.st110{fill:#ADAFB1;}
	.st111{fill:#AEB0B2;}
	.st112{fill:#AEB0B3;}
	.st113{fill:#AFB1B4;}
	.st114{fill:#B0B2B4;}
	.st115{fill:#B1B3B5;}
	.st116{fill:#B2B4B6;}
	.st117{fill:#B2B4B7;}
	.st118{fill:#B3B5B8;}
	.st119{fill:#B4B6B8;}
	.st120{fill:#B5B7B9;}
	.st121{fill:#B6B8BA;}
	.st122{fill:#B7B9BB;}
	.st123{fill:#B7B9BC;}
	.st124{fill:#B8BABC;}
	.st125{fill:#B9BBBD;}
	.st126{fill:#BABCBE;}
	.st127{fill:#BBBDBF;}
	.st128{fill:#BCBDC0;}
	.st129{fill:#BCBEC0;}
	.st130{fill:#BDBFC1;}
	.st131{fill:#BEC0C2;}
	.st132{fill:#BFC1C3;}
	.st133{fill:#C0C2C4;}
	.st134{fill:#C1C2C4;}
	.st135{fill:#C1C3C5;}
	.st136{fill:#C2C4C6;}
	.st137{fill:#C3C5C7;}
	.st138{fill:#C4C6C8;}
	.st139{fill:#C5C6C8;}
	.st140{fill:#C5C7C9;}
	.st141{fill:#C7C9CB;}
	.st142{fill:#C8CACC;}
	.st143{fill:#C9CBCC;}
	.st144{fill:#CACBCD;}
	.st145{fill:#CBCCCE;}
	.st146{fill:#CBCDCF;}
	.st147{fill:#CCCED0;}
	.st148{fill:#CDCFD0;}
	.st149{fill:#CECFD1;}
	.st150{fill:#CFD0D2;}
	.st151{fill:#D0D1D3;}
	.st152{fill:#D0D2D3;}
	.st153{fill:#D2D3D5;}
	.st154{fill:#D3D4D6;}
	.st155{fill:#D4D5D7;}
	.st156{fill:#D5D6D7;}
	.st157{fill:#D5D7D8;}
	.st158{fill:#D6D7D9;}
	.st159{fill:#D7D8DA;}
	.st160{fill:#D8D9DB;}
	.st161{fill:#D9DADB;}
	.st162{fill:#D9DBDC;}
	.st163{fill:#DADCDD;}
	.st164{fill:#DBDCDE;}
	.st165{fill:#DDDEDF;}
	.st166{fill:#DEDFE0;}
	.st167{fill:#DEE0E1;}
	.st168{fill:#DFE0E2;}
	.st169{fill:#E0E1E2;}
	.st170{fill:#E1E2E3;}
	.st171{fill:#E2E3E4;}
	.st172{fill:#E3E4E5;}
	.st173{fill:#E4E5E6;}
	.st174{fill:#E5E6E7;}
	.st175{fill:#E7E8E9;}
	.st176{clip-path:url(#XMLID_236_);fill:url(#XMLID_237_);}
	.st177{fill:#004E25;}
	.st178{fill:#F5F0CC;}
	.st179{clip-path:url(#XMLID_238_);fill:url(#XMLID_239_);}
	.st180{clip-path:url(#SVGID_2_);fill:url(#XMLID_240_);}
	.st181{clip-path:url(#XMLID_241_);fill:url(#XMLID_242_);}
	.st182{clip-path:url(#SVGID_4_);fill:url(#XMLID_243_);}
	.st183{clip-path:url(#XMLID_244_);fill:url(#XMLID_245_);}
	.st184{clip-path:url(#SVGID_6_);fill:url(#XMLID_246_);}
	.st185{clip-path:url(#SVGID_8_);fill:url(#XMLID_247_);}
	.st186{clip-path:url(#SVGID_10_);fill:url(#XMLID_248_);}
	.st187{clip-path:url(#XMLID_249_);fill:url(#XMLID_250_);}
	.st188{clip-path:url(#SVGID_12_);fill:url(#XMLID_251_);}
	.st189{clip-path:url(#SVGID_14_);fill:url(#XMLID_252_);}
</style>
<g id="Layer_1_1_" class="st0">
</g>
<g id="XMLID_1_">
	<path id="XMLID_234_" class="st1" d="M72,13.3c-38.7,0-70.1,16.5-70.1,36.8c0,20.3,31.4,36.8,70.1,36.8c38.7,0,70.1-16.5,70.1-36.8
		C142,29.8,110.7,13.3,72,13.3"/>
	<path id="XMLID_233_" class="st2" d="M72,13.3c-38.7,0-70.1,16.5-70.1,36.8c0,20.3,31.4,36.8,70.1,36.8c38.7,0,70.1-16.5,70.1-36.8
		C142,29.8,110.7,13.3,72,13.3"/>
	<path id="XMLID_232_" class="st3" d="M72,13.3c-38.7,0-70,16.5-70,36.8c0,20.3,31.4,36.8,70,36.8c38.7,0,70.1-16.5,70.1-36.8
		C142,29.8,110.6,13.3,72,13.3"/>
	<path id="XMLID_231_" class="st4" d="M72,13.3c-38.7,0-70,16.5-70,36.8c0,20.3,31.4,36.8,70,36.8s70-16.5,70-36.8
		C142,29.8,110.6,13.3,72,13.3"/>
	<path id="XMLID_230_" class="st5" d="M72,13.3c-38.7,0-70,16.5-70,36.8c0,20.3,31.4,36.8,70,36.8c38.7,0,70-16.5,70-36.8
		C142,29.8,110.6,13.3,72,13.3"/>
	<path id="XMLID_229_" class="st6" d="M72,13.3c-38.7,0-70,16.5-70,36.8c0,20.3,31.4,36.7,70,36.7c38.7,0,70-16.5,70-36.7
		C142,29.8,110.6,13.3,72,13.3"/>
	<path id="XMLID_228_" class="st7" d="M72,13.3c-38.7,0-70,16.5-70,36.7c0,20.3,31.3,36.7,70,36.7c38.7,0,70-16.5,70-36.7
		C142,29.8,110.6,13.3,72,13.3"/>
	<path id="XMLID_227_" class="st8" d="M72,13.4c-38.7,0-70,16.4-70,36.7c0,20.3,31.3,36.7,70,36.7s70-16.4,70-36.7
		C142,29.8,110.6,13.4,72,13.4"/>
	<path id="XMLID_226_" class="st9" d="M72,13.4c-38.7,0-70,16.4-70,36.7c0,20.3,31.3,36.7,70,36.7c38.7,0,70-16.4,70-36.7
		C142,29.8,110.6,13.4,72,13.4"/>
	<path id="XMLID_225_" class="st10" d="M72,13.4c-38.7,0-70,16.4-70,36.7c0,20.3,31.3,36.7,70,36.7c38.7,0,70-16.4,70-36.7
		C142,29.8,110.6,13.4,72,13.4"/>
	<path id="XMLID_224_" class="st11" d="M72,13.4c-38.7,0-70,16.4-70,36.7c0,20.3,31.3,36.7,70,36.7c38.7,0,70-16.4,70-36.7
		C142,29.8,110.6,13.4,72,13.4"/>
	<path id="XMLID_223_" class="st12" d="M72,13.4c-38.6,0-70,16.4-70,36.7c0,20.3,31.3,36.7,70,36.7c38.6,0,70-16.4,70-36.7
		C142,29.8,110.6,13.4,72,13.4"/>
	<path id="XMLID_222_" class="st13" d="M72,13.4c-38.6,0-70,16.4-70,36.7c0,20.3,31.3,36.7,70,36.7c38.6,0,70-16.4,70-36.7
		C141.9,29.8,110.6,13.4,72,13.4"/>
	<path id="XMLID_221_" class="st14" d="M72,13.4c-38.6,0-70,16.4-70,36.7c0,20.3,31.3,36.7,70,36.7c38.6,0,70-16.4,70-36.7
		C141.9,29.8,110.6,13.4,72,13.4"/>
	<path id="XMLID_220_" class="st15" d="M72,13.4c-38.6,0-70,16.4-70,36.7c0,20.3,31.3,36.7,70,36.7c38.6,0,70-16.4,70-36.7
		C141.9,29.8,110.6,13.4,72,13.4"/>
	<path id="XMLID_219_" class="st16" d="M72,13.4C33.3,13.4,2,29.8,2,50.1C2,70.3,33.3,86.8,72,86.8c38.6,0,70-16.4,70-36.7
		C141.9,29.8,110.6,13.4,72,13.4"/>
	<path id="XMLID_218_" class="st17" d="M72,13.4C33.3,13.4,2,29.8,2,50.1C2,70.3,33.3,86.8,72,86.8c38.6,0,69.9-16.4,69.9-36.7
		C141.9,29.8,110.6,13.4,72,13.4"/>
	<path id="XMLID_217_" class="st18" d="M72,13.4C33.4,13.4,2,29.8,2,50.1C2,70.3,33.4,86.8,72,86.8c38.6,0,69.9-16.4,69.9-36.7
		C141.9,29.8,110.6,13.4,72,13.4"/>
	<path id="XMLID_216_" class="st19" d="M72,13.4C33.4,13.4,2,29.8,2,50.1C2,70.3,33.4,86.7,72,86.7c38.6,0,69.9-16.4,69.9-36.7
		C141.9,29.8,110.6,13.4,72,13.4"/>
	<path id="XMLID_215_" class="st20" d="M72,13.4c-38.6,0-69.9,16.4-69.9,36.7c0,20.2,31.3,36.6,69.9,36.6s69.9-16.4,69.9-36.6
		C141.9,29.9,110.6,13.4,72,13.4"/>
	<path id="XMLID_214_" class="st21" d="M72,13.4c-38.6,0-69.9,16.4-69.9,36.6c0,20.2,31.3,36.6,69.9,36.6
		c38.6,0,69.9-16.4,69.9-36.6C141.9,29.9,110.6,13.4,72,13.4"/>
	<path id="XMLID_213_" class="st22" d="M72,13.5c-38.6,0-69.9,16.4-69.9,36.6c0,20.2,31.3,36.6,69.9,36.6
		c38.6,0,69.9-16.4,69.9-36.6C141.9,29.9,110.6,13.5,72,13.5"/>
	<path id="XMLID_212_" class="st23" d="M72,13.5c-38.6,0-69.9,16.4-69.9,36.6c0,20.2,31.3,36.6,69.9,36.6
		c38.6,0,69.9-16.4,69.9-36.6C141.9,29.9,110.6,13.5,72,13.5"/>
	<path id="XMLID_211_" class="st24" d="M72,13.5c-38.6,0-69.9,16.4-69.9,36.6c0,20.2,31.3,36.6,69.9,36.6
		c38.6,0,69.9-16.4,69.9-36.6C141.9,29.9,110.6,13.5,72,13.5"/>
	<path id="XMLID_210_" class="st25" d="M72,13.5c-38.6,0-69.9,16.4-69.9,36.6c0,20.2,31.3,36.6,69.9,36.6
		c38.6,0,69.9-16.4,69.9-36.6C141.9,29.9,110.6,13.5,72,13.5"/>
	<path id="XMLID_209_" class="st26" d="M72,13.5c-38.6,0-69.9,16.4-69.9,36.6c0,20.2,31.3,36.6,69.9,36.6
		c38.6,0,69.9-16.4,69.9-36.6C141.9,29.9,110.6,13.5,72,13.5"/>
	<path id="XMLID_208_" class="st27" d="M72,13.5c-38.6,0-69.9,16.4-69.9,36.6c0,20.2,31.3,36.6,69.9,36.6s69.9-16.4,69.9-36.6
		C141.9,29.9,110.6,13.5,72,13.5"/>
	<path id="XMLID_207_" class="st28" d="M72,13.5c-38.6,0-69.9,16.4-69.9,36.6c0,20.2,31.3,36.6,69.9,36.6
		c38.6,0,69.9-16.4,69.9-36.6C141.8,29.9,110.6,13.5,72,13.5"/>
	<path id="XMLID_206_" class="st29" d="M72,13.5c-38.6,0-69.8,16.4-69.8,36.6c0,20.2,31.3,36.6,69.8,36.6s69.9-16.4,69.9-36.6
		C141.8,29.9,110.6,13.5,72,13.5"/>
	<path id="XMLID_205_" class="st30" d="M72,13.5c-38.6,0-69.8,16.4-69.8,36.6c0,20.2,31.3,36.6,69.8,36.6
		c38.6,0,69.8-16.4,69.8-36.6C141.8,29.9,110.6,13.5,72,13.5"/>
	<path id="XMLID_204_" class="st31" d="M72,13.5c-38.6,0-69.8,16.4-69.8,36.6c0,20.2,31.3,36.6,69.8,36.6
		c38.6,0,69.8-16.4,69.8-36.6C141.8,29.9,110.6,13.5,72,13.5"/>
	<path id="XMLID_203_" class="st32" d="M72,13.5c-38.6,0-69.8,16.4-69.8,36.6c0,20.2,31.3,36.6,69.8,36.6
		c38.6,0,69.8-16.4,69.8-36.6C141.8,29.9,110.5,13.5,72,13.5"/>
	<path id="XMLID_202_" class="st33" d="M72,13.5c-38.6,0-69.8,16.4-69.8,36.6c0,20.2,31.3,36.6,69.8,36.6
		c38.6,0,69.8-16.4,69.8-36.6C141.8,29.9,110.5,13.5,72,13.5"/>
	<path id="XMLID_201_" class="st34" d="M72,13.5c-38.6,0-69.8,16.4-69.8,36.5c0,20.2,31.3,36.5,69.8,36.5
		c38.6,0,69.8-16.4,69.8-36.5C141.8,29.9,110.5,13.5,72,13.5"/>
	<path id="XMLID_200_" class="st35" d="M72,13.6c-38.5,0-69.8,16.4-69.8,36.5c0,20.2,31.3,36.5,69.8,36.5
		c38.6,0,69.8-16.4,69.8-36.5C141.8,29.9,110.5,13.6,72,13.6"/>
	<path id="XMLID_199_" class="st36" d="M72,13.6c-38.5,0-69.8,16.4-69.8,36.5c0,20.2,31.3,36.5,69.8,36.5
		c38.5,0,69.8-16.4,69.8-36.5C141.8,29.9,110.5,13.6,72,13.6"/>
	<path id="XMLID_198_" class="st37" d="M72,13.6c-38.5,0-69.8,16.4-69.8,36.5c0,20.2,31.2,36.5,69.8,36.5
		c38.5,0,69.8-16.4,69.8-36.5C141.8,29.9,110.5,13.6,72,13.6"/>
	<path id="XMLID_197_" class="st38" d="M72,13.6c-38.5,0-69.8,16.4-69.8,36.5c0,20.2,31.2,36.5,69.8,36.5
		c38.5,0,69.8-16.3,69.8-36.5C141.8,29.9,110.5,13.6,72,13.6"/>
	<path id="XMLID_196_" class="st39" d="M72,13.6c-38.5,0-69.8,16.3-69.8,36.5c0,20.2,31.2,36.5,69.8,36.5
		c38.5,0,69.8-16.3,69.8-36.5C141.8,29.9,110.5,13.6,72,13.6"/>
	<path id="XMLID_195_" class="st40" d="M72,13.6c-38.5,0-69.8,16.3-69.8,36.5c0,20.2,31.2,36.5,69.8,36.5s69.8-16.3,69.8-36.5
		C141.8,29.9,110.5,13.6,72,13.6"/>
	<path id="XMLID_194_" class="st41" d="M72,13.6c-38.5,0-69.8,16.3-69.8,36.5c0,20.2,31.2,36.5,69.8,36.5
		c38.5,0,69.8-16.3,69.8-36.5C141.8,29.9,110.5,13.6,72,13.6"/>
	<path id="XMLID_193_" class="st42" d="M72,13.6c-38.5,0-69.8,16.3-69.8,36.5c0,20.1,31.2,36.5,69.8,36.5
		c38.5,0,69.8-16.3,69.8-36.5C141.7,29.9,110.5,13.6,72,13.6"/>
	<path id="XMLID_192_" class="st43" d="M72,13.6c-38.5,0-69.7,16.3-69.7,36.5c0,20.1,31.2,36.5,69.7,36.5
		c38.5,0,69.8-16.3,69.8-36.5C141.7,29.9,110.5,13.6,72,13.6"/>
	<path id="XMLID_191_" class="st44" d="M72,13.6C33.5,13.6,2.3,30,2.3,50.1c0,20.1,31.2,36.5,69.7,36.5c38.5,0,69.7-16.3,69.7-36.5
		C141.7,30,110.5,13.6,72,13.6"/>
	<path id="XMLID_190_" class="st45" d="M72,13.6C33.5,13.6,2.3,30,2.3,50.1c0,20.1,31.2,36.5,69.7,36.5c38.5,0,69.7-16.3,69.7-36.5
		C141.7,30,110.5,13.6,72,13.6"/>
	<path id="XMLID_189_" class="st46" d="M72,13.6C33.5,13.6,2.3,30,2.3,50.1c0,20.1,31.2,36.5,69.7,36.5c38.5,0,69.7-16.3,69.7-36.5
		C141.7,30,110.5,13.6,72,13.6"/>
	<path id="XMLID_188_" class="st47" d="M72,13.6C33.5,13.6,2.3,30,2.3,50.1c0,20.1,31.2,36.5,69.7,36.5s69.7-16.3,69.7-36.5
		C141.7,30,110.5,13.6,72,13.6"/>
	<path id="XMLID_187_" class="st48" d="M72,13.7C33.5,13.7,2.3,30,2.3,50.1c0,20.1,31.2,36.4,69.7,36.4c38.5,0,69.7-16.3,69.7-36.4
		C141.7,30,110.5,13.7,72,13.7"/>
	<path id="XMLID_186_" class="st49" d="M72,13.7C33.5,13.7,2.3,30,2.3,50.1c0,20.1,31.2,36.4,69.7,36.4c38.5,0,69.7-16.3,69.7-36.4
		C141.7,30,110.5,13.7,72,13.7"/>
	<path id="XMLID_185_" class="st50" d="M72,13.7C33.5,13.7,2.3,30,2.3,50.1c0,20.1,31.2,36.4,69.7,36.4c38.5,0,69.7-16.3,69.7-36.4
		C141.7,30,110.5,13.7,72,13.7"/>
	<path id="XMLID_184_" class="st51" d="M72,13.7C33.5,13.7,2.3,30,2.3,50.1c0,20.1,31.2,36.4,69.7,36.4c38.5,0,69.7-16.3,69.7-36.4
		C141.7,30,110.5,13.7,72,13.7"/>
	<path id="XMLID_183_" class="st52" d="M72,13.7C33.5,13.7,2.3,30,2.3,50.1c0,20.1,31.2,36.4,69.7,36.4c38.5,0,69.7-16.3,69.7-36.4
		C141.7,30,110.5,13.7,72,13.7"/>
	<path id="XMLID_182_" class="st53" d="M72,13.7C33.5,13.7,2.3,30,2.3,50.1c0,20.1,31.2,36.4,69.7,36.4c38.5,0,69.7-16.3,69.7-36.4
		C141.7,30,110.5,13.7,72,13.7"/>
	<path id="XMLID_181_" class="st54" d="M72,13.7C33.5,13.7,2.3,30,2.3,50.1c0,20.1,31.2,36.4,69.7,36.4c38.5,0,69.7-16.3,69.7-36.4
		C141.7,30,110.5,13.7,72,13.7"/>
	<path id="XMLID_180_" class="st55" d="M72,13.7C33.5,13.7,2.4,30,2.4,50.1c0,20.1,31.2,36.4,69.7,36.4c38.5,0,69.7-16.3,69.7-36.4
		C141.7,30,110.5,13.7,72,13.7"/>
	<path id="XMLID_179_" class="st56" d="M72,13.7C33.5,13.7,2.4,30,2.4,50.1c0,20.1,31.2,36.4,69.6,36.4c38.5,0,69.6-16.3,69.6-36.4
		C141.7,30,110.5,13.7,72,13.7"/>
	<path id="XMLID_178_" class="st57" d="M72,13.7C33.5,13.7,2.4,30,2.4,50.1c0,20.1,31.2,36.4,69.6,36.4c38.5,0,69.6-16.3,69.6-36.4
		C141.6,30,110.5,13.7,72,13.7"/>
	<path id="XMLID_177_" class="st58" d="M72,13.7C33.6,13.7,2.4,30,2.4,50.1c0,20.1,31.2,36.4,69.6,36.4c38.5,0,69.6-16.3,69.6-36.4
		C141.6,30,110.5,13.7,72,13.7"/>
	<path id="XMLID_176_" class="st59" d="M72,13.7C33.6,13.7,2.4,30,2.4,50.1c0,20.1,31.2,36.4,69.6,36.4s69.6-16.3,69.6-36.4
		C141.6,30,110.5,13.7,72,13.7"/>
	<path id="XMLID_175_" class="st60" d="M72,13.7C33.6,13.7,2.4,30,2.4,50.1c0,20.1,31.2,36.4,69.6,36.4c38.4,0,69.6-16.3,69.6-36.4
		C141.6,30,110.5,13.7,72,13.7"/>
	<path id="XMLID_174_" class="st61" d="M72,13.7C33.6,13.7,2.4,30,2.4,50.1c0,20.1,31.2,36.4,69.6,36.4c38.4,0,69.6-16.3,69.6-36.4
		C141.6,30,110.4,13.7,72,13.7"/>
	<path id="XMLID_173_" class="st62" d="M72,13.8C33.6,13.8,2.4,30,2.4,50.1c0,20.1,31.2,36.3,69.6,36.3c38.4,0,69.6-16.3,69.6-36.3
		C141.6,30,110.4,13.8,72,13.8"/>
	<path id="XMLID_172_" class="st63" d="M72,13.8C33.6,13.8,2.4,30,2.4,50.1c0,20.1,31.2,36.3,69.6,36.3c38.4,0,69.6-16.3,69.6-36.3
		C141.6,30,110.4,13.8,72,13.8"/>
	<path id="XMLID_171_" class="st64" d="M72,13.8C33.6,13.8,2.4,30,2.4,50.1c0,20.1,31.2,36.3,69.6,36.3c38.4,0,69.6-16.3,69.6-36.3
		C141.6,30,110.4,13.8,72,13.8"/>
	<path id="XMLID_170_" class="st65" d="M72,13.8C33.6,13.8,2.4,30,2.4,50.1c0,20.1,31.2,36.3,69.6,36.3c38.4,0,69.6-16.3,69.6-36.3
		C141.6,30,110.4,13.8,72,13.8"/>
	<path id="XMLID_169_" class="st66" d="M72,13.8C33.6,13.8,2.4,30,2.4,50.1c0,20.1,31.1,36.3,69.6,36.3c38.4,0,69.6-16.3,69.6-36.3
		C141.6,30,110.4,13.8,72,13.8"/>
	<path id="XMLID_168_" class="st67" d="M72,13.8C33.6,13.8,2.5,30,2.5,50.1c0,20.1,31.1,36.3,69.6,36.3c38.4,0,69.6-16.3,69.6-36.3
		C141.6,30,110.4,13.8,72,13.8"/>
	<path id="XMLID_167_" class="st68" d="M72,13.8c-38.4,0-69.6,16.3-69.6,36.3c0,20,31.1,36.3,69.6,36.3c38.4,0,69.6-16.3,69.6-36.3
		C141.6,30.1,110.4,13.8,72,13.8"/>
	<path id="XMLID_166_" class="st69" d="M72,13.8c-38.4,0-69.5,16.2-69.5,36.3c0,20,31.1,36.3,69.5,36.3c38.4,0,69.6-16.3,69.6-36.3
		C141.6,30.1,110.4,13.8,72,13.8"/>
	<path id="XMLID_165_" class="st70" d="M72,13.8c-38.4,0-69.5,16.2-69.5,36.3c0,20,31.1,36.3,69.5,36.3c38.4,0,69.5-16.2,69.5-36.3
		C141.6,30.1,110.4,13.8,72,13.8"/>
	<path id="XMLID_164_" class="st71" d="M72,13.8c-38.4,0-69.5,16.2-69.5,36.3c0,20,31.1,36.3,69.5,36.3c38.4,0,69.5-16.2,69.5-36.3
		C141.5,30.1,110.4,13.8,72,13.8"/>
	<path id="XMLID_163_" class="st72" d="M72,13.8c-38.4,0-69.5,16.2-69.5,36.3c0,20,31.1,36.3,69.5,36.3c38.4,0,69.5-16.2,69.5-36.3
		C141.5,30.1,110.4,13.8,72,13.8"/>
	<path id="XMLID_162_" class="st73" d="M72,13.8c-38.4,0-69.5,16.2-69.5,36.3c0,20,31.1,36.3,69.5,36.3c38.4,0,69.5-16.2,69.5-36.3
		C141.5,30.1,110.4,13.8,72,13.8"/>
	<path id="XMLID_161_" class="st74" d="M72,13.8c-38.4,0-69.5,16.2-69.5,36.3c0,20,31.1,36.3,69.5,36.3c38.4,0,69.5-16.2,69.5-36.3
		C141.5,30.1,110.4,13.8,72,13.8"/>
	<path id="XMLID_160_" class="st75" d="M72,13.9c-38.4,0-69.5,16.2-69.5,36.3c0,20,31.1,36.3,69.5,36.3c38.4,0,69.5-16.2,69.5-36.3
		C141.5,30.1,110.4,13.9,72,13.9"/>
	<path id="XMLID_159_" class="st76" d="M72,13.9c-38.4,0-69.5,16.2-69.5,36.2c0,20,31.1,36.2,69.5,36.2c38.4,0,69.5-16.2,69.5-36.2
		C141.5,30.1,110.4,13.9,72,13.9"/>
	<path id="XMLID_158_" class="st77" d="M72,13.9c-38.4,0-69.5,16.2-69.5,36.2c0,20,31.1,36.2,69.5,36.2s69.5-16.2,69.5-36.2
		C141.5,30.1,110.4,13.9,72,13.9"/>
	<path id="XMLID_157_" class="st78" d="M72,13.9c-38.4,0-69.5,16.2-69.5,36.2c0,20,31.1,36.2,69.5,36.2c38.4,0,69.5-16.2,69.5-36.2
		C141.5,30.1,110.4,13.9,72,13.9"/>
	<path id="XMLID_156_" class="st79" d="M72,13.9c-38.4,0-69.5,16.2-69.5,36.2c0,20,31.1,36.2,69.5,36.2c38.4,0,69.5-16.2,69.5-36.2
		C141.5,30.1,110.4,13.9,72,13.9"/>
	<path id="XMLID_155_" class="st80" d="M72,13.9c-38.4,0-69.5,16.2-69.5,36.2c0,20,31.1,36.2,69.5,36.2c38.4,0,69.5-16.2,69.5-36.2
		C141.5,30.1,110.4,13.9,72,13.9"/>
	<path id="XMLID_154_" class="st81" d="M72,13.9c-38.4,0-69.5,16.2-69.5,36.2c0,20,31.1,36.2,69.5,36.2c38.4,0,69.5-16.2,69.5-36.2
		C141.5,30.1,110.4,13.9,72,13.9"/>
	<path id="XMLID_153_" class="st82" d="M72,13.9c-38.4,0-69.4,16.2-69.4,36.2c0,20,31.1,36.2,69.4,36.2c38.4,0,69.5-16.2,69.5-36.2
		C141.5,30.1,110.4,13.9,72,13.9"/>
	<path id="XMLID_152_" class="st83" d="M72,13.9c-38.3,0-69.4,16.2-69.4,36.2c0,20,31.1,36.2,69.4,36.2c38.3,0,69.4-16.2,69.4-36.2
		C141.5,30.1,110.4,13.9,72,13.9"/>
	<path id="XMLID_151_" class="st84" d="M72,13.9c-38.3,0-69.4,16.2-69.4,36.2c0,20,31.1,36.2,69.4,36.2c38.3,0,69.4-16.2,69.4-36.2
		C141.5,30.1,110.4,13.9,72,13.9"/>
	<path id="XMLID_150_" class="st85" d="M72,13.9c-38.3,0-69.4,16.2-69.4,36.2c0,20,31.1,36.2,69.4,36.2c38.3,0,69.4-16.2,69.4-36.2
		C141.5,30.1,110.4,13.9,72,13.9"/>
	<path id="XMLID_149_" class="st86" d="M72,13.9c-38.3,0-69.4,16.2-69.4,36.2c0,20,31.1,36.2,69.4,36.2c38.3,0,69.4-16.2,69.4-36.2
		C141.4,30.1,110.4,13.9,72,13.9"/>
	<path id="XMLID_148_" class="st87" d="M72,13.9c-38.3,0-69.4,16.2-69.4,36.2c0,20,31.1,36.2,69.4,36.2c38.3,0,69.4-16.2,69.4-36.2
		C141.4,30.1,110.4,13.9,72,13.9"/>
	<path id="XMLID_147_" class="st88" d="M72,14C33.7,14,2.6,30.1,2.6,50.1c0,20,31.1,36.2,69.4,36.2c38.3,0,69.4-16.2,69.4-36.2
		C141.4,30.1,110.4,14,72,14"/>
	<path id="XMLID_146_" class="st89" d="M72,14C33.7,14,2.6,30.1,2.6,50.1c0,20,31.1,36.2,69.4,36.2c38.3,0,69.4-16.2,69.4-36.2
		C141.4,30.1,110.4,14,72,14"/>
	<path id="XMLID_145_" class="st90" d="M72,14C33.7,14,2.6,30.1,2.6,50.1c0,20,31.1,36.1,69.4,36.1c38.3,0,69.4-16.2,69.4-36.1
		C141.4,30.1,110.3,14,72,14"/>
	<path id="XMLID_144_" class="st91" d="M72,14C33.7,14,2.7,30.2,2.7,50.1c0,20,31.1,36.1,69.4,36.1c38.3,0,69.4-16.2,69.4-36.1
		C141.4,30.2,110.3,14,72,14"/>
	<path id="XMLID_143_" class="st92" d="M72,14C33.7,14,2.7,30.2,2.7,50.1c0,20,31.1,36.1,69.4,36.1c38.3,0,69.4-16.2,69.4-36.1
		C141.4,30.2,110.3,14,72,14"/>
	<path id="XMLID_142_" class="st93" d="M72,14C33.7,14,2.7,30.2,2.7,50.1c0,19.9,31.1,36.1,69.4,36.1c38.3,0,69.4-16.2,69.4-36.1
		C141.4,30.2,110.3,14,72,14"/>
	<path id="XMLID_141_" class="st94" d="M72,14C33.7,14,2.7,30.2,2.7,50.1c0,19.9,31.1,36.1,69.4,36.1c38.3,0,69.4-16.2,69.4-36.1
		C141.4,30.2,110.3,14,72,14"/>
	<path id="XMLID_140_" class="st95" d="M72,14C33.7,14,2.7,30.2,2.7,50.1c0,19.9,31,36.1,69.3,36.1c38.3,0,69.4-16.2,69.4-36.1
		C141.4,30.2,110.3,14,72,14"/>
	<path id="XMLID_139_" class="st96" d="M72,14C33.7,14,2.7,30.2,2.7,50.1c0,19.9,31,36.1,69.3,36.1c38.3,0,69.3-16.2,69.3-36.1
		C141.4,30.2,110.3,14,72,14"/>
	<path id="XMLID_138_" class="st97" d="M72,14C33.7,14,2.7,30.2,2.7,50.1c0,19.9,31,36.1,69.3,36.1c38.3,0,69.3-16.2,69.3-36.1
		C141.4,30.2,110.3,14,72,14"/>
	<path id="XMLID_137_" class="st98" d="M72,14C33.8,14,2.7,30.2,2.7,50.1c0,19.9,31,36.1,69.3,36.1c38.3,0,69.3-16.2,69.3-36.1
		C141.4,30.2,110.3,14,72,14"/>
	<path id="XMLID_136_" class="st99" d="M72,14C33.8,14,2.7,30.2,2.7,50.1c0,19.9,31,36.1,69.3,36.1c38.3,0,69.3-16.2,69.3-36.1
		C141.4,30.2,110.3,14,72,14"/>
	<path id="XMLID_135_" class="st100" d="M72,14C33.8,14,2.7,30.2,2.7,50.1c0,19.9,31,36.1,69.3,36.1s69.3-16.2,69.3-36.1
		C141.4,30.2,110.3,14,72,14"/>
	<path id="XMLID_134_" class="st101" d="M72,14C33.8,14,2.7,30.2,2.7,50.1c0,19.9,31,36.1,69.3,36.1c38.3,0,69.3-16.1,69.3-36.1
		C141.3,30.2,110.3,14,72,14"/>
	<path id="XMLID_133_" class="st102" d="M72,14.1c-38.3,0-69.3,16.1-69.3,36.1c0,19.9,31,36.1,69.3,36.1c38.3,0,69.3-16.1,69.3-36.1
		C141.3,30.2,110.3,14.1,72,14.1"/>
	<path id="XMLID_132_" class="st103" d="M72,14.1c-38.3,0-69.3,16.1-69.3,36.1c0,19.9,31,36.1,69.3,36.1c38.3,0,69.3-16.1,69.3-36.1
		C141.3,30.2,110.3,14.1,72,14.1"/>
	<path id="XMLID_131_" class="st104" d="M72,14.1c-38.3,0-69.3,16.1-69.3,36c0,19.9,31,36,69.3,36c38.3,0,69.3-16.1,69.3-36
		C141.3,30.2,110.3,14.1,72,14.1"/>
	<path id="XMLID_130_" class="st105" d="M72,14.1c-38.3,0-69.3,16.1-69.3,36c0,19.9,31,36,69.3,36c38.3,0,69.3-16.1,69.3-36
		C141.3,30.2,110.3,14.1,72,14.1"/>
	<path id="XMLID_129_" class="st106" d="M72,14.1c-38.3,0-69.3,16.1-69.3,36c0,19.9,31,36,69.3,36c38.3,0,69.3-16.1,69.3-36
		C141.3,30.2,110.3,14.1,72,14.1"/>
	<path id="XMLID_128_" class="st107" d="M72,14.1c-38.2,0-69.3,16.1-69.3,36c0,19.9,31,36,69.3,36c38.2,0,69.3-16.1,69.3-36
		C141.3,30.2,110.3,14.1,72,14.1"/>
	<path id="XMLID_127_" class="st108" d="M72,14.1c-38.2,0-69.2,16.1-69.2,36c0,19.9,31,36,69.2,36c38.2,0,69.3-16.1,69.3-36
		C141.3,30.2,110.3,14.1,72,14.1"/>
	<path id="XMLID_126_" class="st109" d="M72,14.1c-38.2,0-69.2,16.1-69.2,36c0,19.9,31,36,69.2,36c38.2,0,69.2-16.1,69.2-36
		C141.3,30.2,110.3,14.1,72,14.1"/>
	<path id="XMLID_125_" class="st110" d="M72,14.1c-38.2,0-69.2,16.1-69.2,36c0,19.9,31,36,69.2,36c38.2,0,69.2-16.1,69.2-36
		C141.3,30.2,110.3,14.1,72,14.1"/>
	<path id="XMLID_124_" class="st111" d="M72,14.1c-38.2,0-69.2,16.1-69.2,36c0,19.9,31,36,69.2,36c38.2,0,69.2-16.1,69.2-36
		C141.3,30.2,110.3,14.1,72,14.1"/>
	<path id="XMLID_123_" class="st112" d="M72,14.1c-38.2,0-69.2,16.1-69.2,36c0,19.9,31,36,69.2,36c38.2,0,69.2-16.1,69.2-36
		C141.3,30.2,110.3,14.1,72,14.1"/>
	<path id="XMLID_122_" class="st113" d="M72,14.1c-38.2,0-69.2,16.1-69.2,36c0,19.9,31,36,69.2,36c38.2,0,69.2-16.1,69.2-36
		C141.3,30.2,110.3,14.1,72,14.1"/>
	<path id="XMLID_121_" class="st114" d="M72,14.1c-38.2,0-69.2,16.1-69.2,36c0,19.9,31,36,69.2,36c38.2,0,69.2-16.1,69.2-36
		C141.3,30.2,110.3,14.1,72,14.1"/>
	<path id="XMLID_120_" class="st115" d="M72,14.2c-38.2,0-69.2,16.1-69.2,36c0,19.9,31,36,69.2,36c38.2,0,69.2-16.1,69.2-36
		C141.2,30.3,110.3,14.2,72,14.2"/>
	<path id="XMLID_119_" class="st116" d="M72,14.2c-38.2,0-69.2,16.1-69.2,36c0,19.9,31,36,69.2,36s69.2-16.1,69.2-36
		C141.2,30.3,110.3,14.2,72,14.2"/>
	<path id="XMLID_118_" class="st117" d="M72,14.2c-38.2,0-69.2,16.1-69.2,36c0,19.9,31,36,69.2,36c38.2,0,69.2-16.1,69.2-36
		C141.2,30.3,110.3,14.2,72,14.2"/>
	<path id="XMLID_117_" class="st118" d="M72,14.2c-38.2,0-69.2,16.1-69.2,35.9c0,19.8,31,35.9,69.2,35.9c38.2,0,69.2-16.1,69.2-35.9
		C141.2,30.3,110.3,14.2,72,14.2"/>
	<path id="XMLID_116_" class="st119" d="M72,14.2c-38.2,0-69.2,16.1-69.2,35.9c0,19.8,31,35.9,69.2,35.9c38.2,0,69.2-16.1,69.2-35.9
		C141.2,30.3,110.2,14.2,72,14.2"/>
	<path id="XMLID_115_" class="st120" d="M72.1,14.2c-38.2,0-69.2,16.1-69.2,35.9c0,19.8,31,35.9,69.2,35.9
		c38.2,0,69.2-16.1,69.2-35.9C141.2,30.3,110.2,14.2,72.1,14.2"/>
	<path id="XMLID_114_" class="st121" d="M72.1,14.2c-38.2,0-69.1,16.1-69.1,35.9C2.9,70,33.9,86,72.1,86c38.2,0,69.2-16.1,69.2-35.9
		C141.2,30.3,110.2,14.2,72.1,14.2"/>
	<path id="XMLID_113_" class="st122" d="M72.1,14.2c-38.2,0-69.1,16.1-69.1,35.9C2.9,70,33.9,86,72.1,86s69.1-16.1,69.1-35.9
		C141.2,30.3,110.2,14.2,72.1,14.2"/>
	<path id="XMLID_112_" class="st123" d="M72.1,14.2c-38.2,0-69.1,16.1-69.1,35.9c0,19.8,31,35.9,69.1,35.9
		c38.2,0,69.1-16.1,69.1-35.9C141.2,30.3,110.2,14.2,72.1,14.2"/>
	<path id="XMLID_111_" class="st124" d="M72.1,14.2c-38.2,0-69.1,16.1-69.1,35.9c0,19.8,31,35.9,69.1,35.9
		c38.2,0,69.1-16.1,69.1-35.9C141.2,30.3,110.2,14.2,72.1,14.2"/>
	<path id="XMLID_110_" class="st125" d="M72.1,14.2c-38.2,0-69.1,16.1-69.1,35.9C2.9,69.9,33.9,86,72.1,86
		c38.2,0,69.1-16.1,69.1-35.9C141.2,30.3,110.2,14.2,72.1,14.2"/>
	<path id="XMLID_109_" class="st126" d="M72.1,14.2c-38.2,0-69.1,16.1-69.1,35.9C2.9,69.9,33.9,86,72.1,86
		c38.2,0,69.1-16.1,69.1-35.9C141.2,30.3,110.2,14.2,72.1,14.2"/>
	<path id="XMLID_108_" class="st127" d="M72.1,14.2C33.9,14.2,3,30.3,3,50.1C3,69.9,33.9,86,72.1,86c38.2,0,69.1-16.1,69.1-35.9
		C141.2,30.3,110.2,14.2,72.1,14.2"/>
	<path id="XMLID_107_" class="st128" d="M72.1,14.2C33.9,14.2,3,30.3,3,50.1C3,69.9,33.9,86,72.1,86c38.2,0,69.1-16.1,69.1-35.9
		C141.2,30.3,110.2,14.2,72.1,14.2"/>
	<path id="XMLID_106_" class="st129" d="M72.1,14.3C33.9,14.3,3,30.3,3,50.1C3,69.9,33.9,86,72.1,86c38.2,0,69.1-16.1,69.1-35.9
		C141.2,30.3,110.2,14.3,72.1,14.3"/>
	<path id="XMLID_105_" class="st130" d="M72.1,14.3C33.9,14.3,3,30.3,3,50.1C3,69.9,33.9,86,72.1,86c38.2,0,69.1-16.1,69.1-35.9
		C141.1,30.3,110.2,14.3,72.1,14.3"/>
	<path id="XMLID_104_" class="st131" d="M72.1,14.3C33.9,14.3,3,30.3,3,50.1C3,69.9,33.9,86,72.1,86c38.1,0,69.1-16.1,69.1-35.9
		C141.1,30.3,110.2,14.3,72.1,14.3"/>
	<path id="XMLID_103_" class="st132" d="M72.1,14.3C33.9,14.3,3,30.3,3,50.1C3,69.9,33.9,86,72.1,86c38.1,0,69.1-16.1,69.1-35.8
		C141.1,30.3,110.2,14.3,72.1,14.3"/>
	<path id="XMLID_102_" class="st133" d="M72.1,14.3C33.9,14.3,3,30.3,3,50.1C3,69.9,33.9,86,72.1,86c38.1,0,69.1-16,69.1-35.8
		C141.1,30.3,110.2,14.3,72.1,14.3"/>
	<path id="XMLID_101_" class="st134" d="M72.1,14.3c-38.1,0-69,16-69,35.8C3,69.9,33.9,86,72.1,86c38.1,0,69.1-16,69.1-35.8
		C141.1,30.3,110.2,14.3,72.1,14.3"/>
	<path id="XMLID_100_" class="st135" d="M72.1,14.3c-38.1,0-69,16-69,35.8c0,19.8,30.9,35.8,69,35.8c38.1,0,69-16,69-35.8
		C141.1,30.3,110.2,14.3,72.1,14.3"/>
	<path id="XMLID_99_" class="st136" d="M72.1,14.3c-38.1,0-69,16-69,35.8c0,19.8,30.9,35.8,69,35.8c38.1,0,69-16,69-35.8
		C141.1,30.3,110.2,14.3,72.1,14.3"/>
	<path id="XMLID_98_" class="st137" d="M72.1,14.3c-38.1,0-69,16-69,35.8c0,19.8,30.9,35.8,69,35.8c38.1,0,69-16,69-35.8
		C141.1,30.3,110.2,14.3,72.1,14.3"/>
	<path id="XMLID_97_" class="st138" d="M72.1,14.3c-38.1,0-69,16-69,35.8c0,19.8,30.9,35.8,69,35.8c38.1,0,69-16,69-35.8
		C141.1,30.4,110.2,14.3,72.1,14.3"/>
	<path id="XMLID_96_" class="st139" d="M72.1,14.3c-38.1,0-69,16-69,35.8c0,19.8,30.9,35.8,69,35.8c38.1,0,69-16,69-35.8
		C141.1,30.4,110.2,14.3,72.1,14.3"/>
	<path id="XMLID_95_" class="st140" d="M72.1,14.3c-38.1,0-69,16-69,35.8c0,19.8,30.9,35.8,69,35.8c38.1,0,69-16,69-35.8
		C141.1,30.4,110.2,14.3,72.1,14.3"/>
	<path id="XMLID_94_" class="st140" d="M72.1,14.3c-38.1,0-69,16-69,35.8c0,19.8,30.9,35.8,69,35.8c38.1,0,69-16,69-35.8
		C141.1,30.4,110.2,14.3,72.1,14.3"/>
	<path id="XMLID_93_" class="st141" d="M72.1,14.4c-38.1,0-69,16-69,35.8c0,19.8,30.9,35.8,69,35.8s69-16,69-35.8
		C141.1,30.4,110.2,14.4,72.1,14.4"/>
	<path id="XMLID_92_" class="st142" d="M72.1,14.4c-38.1,0-69,16-69,35.8c0,19.7,30.9,35.8,69,35.8c38.1,0,69-16,69-35.8
		C141.1,30.4,110.2,14.4,72.1,14.4"/>
	<path id="XMLID_91_" class="st143" d="M72.1,14.4c-38.1,0-69,16-69,35.8c0,19.7,30.9,35.8,69,35.8c38.1,0,69-16,69-35.8
		C141,30.4,110.2,14.4,72.1,14.4"/>
	<path id="XMLID_90_" class="st144" d="M72.1,14.4c-38.1,0-69,16-69,35.8c0,19.7,30.9,35.8,69,35.8c38.1,0,69-16,69-35.8
		C141,30.4,110.2,14.4,72.1,14.4"/>
	<path id="XMLID_89_" class="st145" d="M72.1,14.4c-38.1,0-69,16-69,35.7c0,19.7,30.9,35.7,69,35.7c38.1,0,69-16,69-35.7
		C141,30.4,110.2,14.4,72.1,14.4"/>
	<path id="XMLID_88_" class="st146" d="M72.1,14.4c-38.1,0-69,16-69,35.7c0,19.7,30.9,35.7,69,35.7c38.1,0,69-16,69-35.7
		C141,30.4,110.2,14.4,72.1,14.4"/>
	<path id="XMLID_87_" class="st147" d="M72.1,14.4c-38.1,0-68.9,16-68.9,35.7c0,19.7,30.9,35.7,68.9,35.7c38.1,0,69-16,69-35.7
		C141,30.4,110.1,14.4,72.1,14.4"/>
	<path id="XMLID_86_" class="st148" d="M72.1,14.4c-38.1,0-68.9,16-68.9,35.7c0,19.7,30.9,35.7,68.9,35.7c38.1,0,68.9-16,68.9-35.7
		C141,30.4,110.1,14.4,72.1,14.4"/>
	<path id="XMLID_85_" class="st149" d="M72.1,14.4c-38.1,0-68.9,16-68.9,35.7c0,19.7,30.9,35.7,68.9,35.7c38.1,0,68.9-16,68.9-35.7
		C141,30.4,110.1,14.4,72.1,14.4"/>
	<path id="XMLID_84_" class="st150" d="M72.1,14.4c-38.1,0-68.9,16-68.9,35.7c0,19.7,30.9,35.7,68.9,35.7c38.1,0,68.9-16,68.9-35.7
		C141,30.4,110.1,14.4,72.1,14.4"/>
	<path id="XMLID_83_" class="st150" d="M72.1,14.4c-38.1,0-68.9,16-68.9,35.7c0,19.7,30.9,35.7,68.9,35.7c38.1,0,68.9-16,68.9-35.7
		C141,30.4,110.1,14.4,72.1,14.4"/>
	<path id="XMLID_82_" class="st151" d="M72.1,14.4c-38.1,0-68.9,16-68.9,35.7c0,19.7,30.9,35.7,68.9,35.7c38.1,0,68.9-16,68.9-35.7
		C141,30.4,110.1,14.4,72.1,14.4"/>
	<path id="XMLID_81_" class="st152" d="M72.1,14.4c-38,0-68.9,16-68.9,35.7c0,19.7,30.8,35.7,68.9,35.7c38.1,0,68.9-16,68.9-35.7
		C141,30.4,110.1,14.4,72.1,14.4"/>
	<path id="XMLID_80_" class="st153" d="M72.1,14.5c-38,0-68.9,16-68.9,35.7c0,19.7,30.8,35.7,68.9,35.7s68.9-16,68.9-35.7
		C141,30.4,110.1,14.5,72.1,14.5"/>
	<path id="XMLID_79_" class="st154" d="M72.1,14.5c-38,0-68.9,16-68.9,35.7c0,19.7,30.8,35.7,68.9,35.7c38,0,68.9-16,68.9-35.7
		C141,30.4,110.1,14.5,72.1,14.5"/>
	<path id="XMLID_78_" class="st155" d="M72.1,14.5c-38,0-68.9,16-68.9,35.7c0,19.7,30.8,35.7,68.9,35.7c38,0,68.9-16,68.9-35.7
		C141,30.4,110.1,14.5,72.1,14.5"/>
	<path id="XMLID_77_" class="st156" d="M72.1,14.5c-38,0-68.9,16-68.9,35.7c0,19.7,30.8,35.7,68.9,35.7c38,0,68.9-16,68.9-35.7
		C141,30.4,110.1,14.5,72.1,14.5"/>
	<path id="XMLID_76_" class="st157" d="M72.1,14.5c-38,0-68.9,16-68.9,35.7c0,19.7,30.8,35.7,68.9,35.7c38,0,68.9-16,68.9-35.7
		C140.9,30.4,110.1,14.5,72.1,14.5"/>
	<path id="XMLID_75_" class="st158" d="M72.1,14.5c-38,0-68.9,16-68.9,35.6c0,19.7,30.8,35.6,68.9,35.6c38,0,68.9-16,68.9-35.6
		C140.9,30.4,110.1,14.5,72.1,14.5"/>
	<path id="XMLID_74_" class="st159" d="M72.1,14.5c-38,0-68.8,16-68.8,35.6c0,19.7,30.8,35.6,68.8,35.6c38,0,68.9-16,68.9-35.6
		C140.9,30.4,110.1,14.5,72.1,14.5"/>
	<path id="XMLID_73_" class="st160" d="M72.1,14.5c-38,0-68.8,15.9-68.8,35.6c0,19.7,30.8,35.6,68.8,35.6c38,0,68.8-16,68.8-35.6
		C140.9,30.5,110.1,14.5,72.1,14.5"/>
	<path id="XMLID_72_" class="st160" d="M72.1,14.5c-38,0-68.8,15.9-68.8,35.6c0,19.7,30.8,35.6,68.8,35.6c38,0,68.8-16,68.8-35.6
		C140.9,30.5,110.1,14.5,72.1,14.5"/>
	<path id="XMLID_71_" class="st161" d="M72.1,14.5c-38,0-68.8,15.9-68.8,35.6c0,19.7,30.8,35.6,68.8,35.6c38,0,68.8-15.9,68.8-35.6
		C140.9,30.5,110.1,14.5,72.1,14.5"/>
	<path id="XMLID_70_" class="st162" d="M72.1,14.5c-38,0-68.8,15.9-68.8,35.6c0,19.7,30.8,35.6,68.8,35.6c38,0,68.8-15.9,68.8-35.6
		C140.9,30.5,110.1,14.5,72.1,14.5"/>
	<path id="XMLID_69_" class="st163" d="M72.1,14.5c-38,0-68.8,15.9-68.8,35.6c0,19.7,30.8,35.6,68.8,35.6c38,0,68.8-15.9,68.8-35.6
		C140.9,30.5,110.1,14.5,72.1,14.5"/>
	<path id="XMLID_68_" class="st164" d="M72.1,14.5c-38,0-68.8,15.9-68.8,35.6c0,19.7,30.8,35.6,68.8,35.6c38,0,68.8-15.9,68.8-35.6
		C140.9,30.5,110.1,14.5,72.1,14.5"/>
	<path id="XMLID_67_" class="st165" d="M72.1,14.5c-38,0-68.8,15.9-68.8,35.6c0,19.7,30.8,35.6,68.8,35.6c38,0,68.8-15.9,68.8-35.6
		C140.9,30.5,110.1,14.5,72.1,14.5"/>
	<path id="XMLID_66_" class="st166" d="M72.1,14.6c-38,0-68.8,15.9-68.8,35.6c0,19.6,30.8,35.6,68.8,35.6c38,0,68.8-15.9,68.8-35.6
		C140.9,30.5,110.1,14.6,72.1,14.6"/>
	<path id="XMLID_65_" class="st167" d="M72.1,14.6c-38,0-68.8,15.9-68.8,35.6c0,19.6,30.8,35.6,68.8,35.6c38,0,68.8-15.9,68.8-35.6
		C140.9,30.5,110.1,14.6,72.1,14.6"/>
	<path id="XMLID_64_" class="st168" d="M72.1,14.6c-38,0-68.8,15.9-68.8,35.6c0,19.6,30.8,35.6,68.8,35.6c38,0,68.8-15.9,68.8-35.6
		C140.9,30.5,110.1,14.6,72.1,14.6"/>
	<path id="XMLID_63_" class="st169" d="M72.1,14.6c-38,0-68.8,15.9-68.8,35.6c0,19.6,30.8,35.6,68.8,35.6c38,0,68.8-15.9,68.8-35.6
		C140.9,30.5,110.1,14.6,72.1,14.6"/>
	<path id="XMLID_62_" class="st170" d="M72.1,14.6c-38,0-68.8,15.9-68.8,35.5c0,19.6,30.8,35.6,68.8,35.6c38,0,68.8-15.9,68.8-35.6
		C140.9,30.5,110.1,14.6,72.1,14.6"/>
	<path id="XMLID_61_" class="st170" d="M72.1,14.6c-38,0-68.7,15.9-68.7,35.5c0,19.6,30.8,35.5,68.7,35.5c38,0,68.8-15.9,68.8-35.5
		C140.8,30.5,110.1,14.6,72.1,14.6"/>
	<path id="XMLID_60_" class="st171" d="M72.1,14.6c-38,0-68.7,15.9-68.7,35.5c0,19.6,30.8,35.5,68.7,35.5c38,0,68.7-15.9,68.7-35.5
		C140.8,30.5,110.1,14.6,72.1,14.6"/>
	<path id="XMLID_59_" class="st172" d="M72.1,14.6c-38,0-68.7,15.9-68.7,35.5c0,19.6,30.8,35.5,68.7,35.5c38,0,68.7-15.9,68.7-35.5
		C140.8,30.5,110.1,14.6,72.1,14.6"/>
	<path id="XMLID_58_" class="st172" d="M72.1,14.6c-38,0-68.7,15.9-68.7,35.5c0,19.6,30.8,35.5,68.7,35.5c38,0,68.7-15.9,68.7-35.5
		C140.8,30.5,110,14.6,72.1,14.6"/>
	<path id="XMLID_57_" class="st173" d="M72.1,14.6c-37.9,0-68.7,15.9-68.7,35.5c0,19.6,30.8,35.5,68.7,35.5
		c38,0,68.7-15.9,68.7-35.5C140.8,30.5,110,14.6,72.1,14.6"/>
	<path id="XMLID_56_" class="st174" d="M72.1,14.6c-37.9,0-68.7,15.9-68.7,35.5c0,19.6,30.8,35.5,68.7,35.5
		c37.9,0,68.7-15.9,68.7-35.5C140.8,30.5,110,14.6,72.1,14.6"/>
	<path id="XMLID_55_" class="st175" d="M72.1,14.6c-37.9,0-68.7,15.9-68.7,35.5c0,19.6,30.8,35.5,68.7,35.5
		c37.9,0,68.7-15.9,68.7-35.5C140.8,30.5,110,14.6,72.1,14.6"/>
	<g>
		<g>
			<defs>
				<path id="XMLID_54_" d="M4.6,50.1C4.6,68.8,34.8,84,72,84c37.2,0,67.3-15.2,67.3-33.9c0-18.7-30.1-33.9-67.3-33.9
					C34.8,16.2,4.6,31.4,4.6,50.1"/>
			</defs>
			<clipPath id="XMLID_236_">
				<use xlink:href="#XMLID_54_"  style="overflow:visible;"/>
			</clipPath>
			
				<linearGradient id="XMLID_237_" gradientUnits="userSpaceOnUse" x1="-254.881" y1="346.0784" x2="-253.7218" y2="346.0784" gradientTransform="matrix(30.5259 65.463 -65.463 30.5259 30490.0664 6133.0591)">
				<stop  offset="0" style="stop-color:#008948"/>
				<stop  offset="0.3764" style="stop-color:#008948"/>
				<stop  offset="0.5955" style="stop-color:#004E25"/>
				<stop  offset="1" style="stop-color:#000000"/>
			</linearGradient>
			<polygon id="XMLID_53_" class="st176" points="115.2,-35.4 165.2,71.9 28.7,135.5 -21.3,28.3 			"/>
		</g>
	</g>
	<path class="st177" d="M72,81c-35,0-63.5-13.7-63.5-30.6c0-16.9,28.5-30.6,63.5-30.6c35,0,63.5,13.7,63.5,30.6
		C135.5,67.3,107,81,72,81z M72,20.7C37.4,20.7,9.3,34,9.3,50.4c0,16.4,28.1,29.7,62.6,29.7c34.5,0,62.7-13.3,62.7-29.7
		C134.6,34,106.5,20.7,72,20.7z"/>
	<path class="st178" d="M72,82.6C35.8,82.6,6.4,68,6.4,50.1c0-17.9,29.4-32.5,65.6-32.5c36.2,0,65.6,14.6,65.6,32.5
		C137.6,68,108.1,82.6,72,82.6z M72,19.3c-35.3,0-64,13.8-64,30.8C8,67.1,36.7,81,72,81c35.3,0,64-13.8,64-30.8
		C135.9,33.1,107.2,19.3,72,19.3z"/>
	<g>
		<g>
			<defs>
				<polygon id="XMLID_48_" points="101.2,36.8 99.9,40.7 106.8,40.7 99,43.5 98.5,45.1 110.5,40.9 111.8,36.8 				"/>
			</defs>
			<clipPath id="XMLID_238_">
				<use xlink:href="#XMLID_48_"  style="overflow:visible;"/>
			</clipPath>
			
				<linearGradient id="XMLID_239_" gradientUnits="userSpaceOnUse" x1="-253.1156" y1="345.7274" x2="-251.9564" y2="345.7274" gradientTransform="matrix(23.6597 50.7384 -50.7384 23.6597 23625.9785 4683.5391)">
				<stop  offset="0" style="stop-color:#004E25"/>
				<stop  offset="1" style="stop-color:#000000"/>
			</linearGradient>
			<polygon id="XMLID_47_" class="st179" points="109.4,31.7 115,43.6 100.8,50.2 95.3,38.3 			"/>
		</g>
	</g>
	<g>
		<g>
			<defs>
				<path id="SVGID_1_" d="M45.4,43.3C45.4,43.3,45.4,43.3,45.4,43.3L45.4,43.3z M39.3,30.2c0.7,0.4,0.1,1.8,0.1,1.8
					s-4.8,13.9-5.1,14.6c-0.3,0.7-0.6,0.8-0.6,0.8H44l1.4-4.1c-0.1,0.4-1.1,0.3-1.1,0.3H40c0,0,4-11.1,4.3-12
					c0.5-1.2,0.8-1.4,0.9-1.4H39.3z M45.2,30.2L45.2,30.2C45.2,30.2,45.2,30.2,45.2,30.2C45.2,30.2,45.2,30.2,45.2,30.2"/>
			</defs>
			<clipPath id="SVGID_2_">
				<use xlink:href="#SVGID_1_"  style="overflow:visible;"/>
			</clipPath>
			
				<linearGradient id="XMLID_240_" gradientUnits="userSpaceOnUse" x1="-256.7437" y1="346.4136" x2="-255.5845" y2="346.4136" gradientTransform="matrix(45.6193 97.8309 -97.8309 45.6193 45660.5625 9392.9854)">
				<stop  offset="0" style="stop-color:#004E25"/>
				<stop  offset="1" style="stop-color:#000000"/>
			</linearGradient>
			<polygon id="XMLID_43_" class="st180" points="43.3,25.7 52,44.3 35.8,51.9 27.1,33.3 			"/>
		</g>
	</g>
	<g>
		<g>
			<defs>
				<path id="XMLID_42_" d="M77.1,31.2c-0.2,0.4-2.8,7.9-2.8,7.9l-1-8.9h-5c0,0,0.3,0.4,0.1,0.9C68.2,31.5,63,46.4,63,46.4
					s-0.3,1-0.6,1h4.9c0,0-0.3-0.5-0.1-1.1c0.3-0.8,2.9-8.1,2.9-8.1l1.1,9.2h4.4L81.3,31c0,0,0.2-0.8,0.6-0.8l-4.7,0
					C77.2,30.2,77.3,30.8,77.1,31.2"/>
			</defs>
			<clipPath id="XMLID_241_">
				<use xlink:href="#XMLID_42_"  style="overflow:visible;"/>
			</clipPath>
			
				<linearGradient id="XMLID_242_" gradientUnits="userSpaceOnUse" x1="-256.2997" y1="346.3018" x2="-255.1405" y2="346.3018" gradientTransform="matrix(40.7155 87.3146 -87.3146 40.7155 40746.1367 8320.7383)">
				<stop  offset="0" style="stop-color:#004E25"/>
				<stop  offset="1" style="stop-color:#000000"/>
			</linearGradient>
			<polygon id="XMLID_41_" class="st181" points="78.4,22.8 88.4,44.3 65.9,54.8 55.8,33.3 			"/>
		</g>
	</g>
	<g>
		<g>
			<defs>
				<path id="SVGID_3_" d="M88.6,33.9h1.2c0,0,3.2-0.2,0.9,5.7c-1.4,3.6-3.5,3.8-4.6,3.8c-0.7,0-0.8,0-0.8,0L88.6,33.9z M90.1,30.2
					h-5.5c0,0,0.4,0.7-0.1,2.3c-0.5,1.6-4.8,13.5-4.8,13.5s-0.3,1.1-0.8,1.3l6.6,0c0,0,8.1,0.3,10.5-8.5c0,0,3.1-8.6-5.8-8.6
					C90.2,30.2,90.2,30.2,90.1,30.2"/>
			</defs>
			<clipPath id="SVGID_4_">
				<use xlink:href="#SVGID_3_"  style="overflow:visible;"/>
			</clipPath>
			
				<linearGradient id="XMLID_243_" gradientUnits="userSpaceOnUse" x1="-255.8234" y1="346.1806" x2="-254.6642" y2="346.1806" gradientTransform="matrix(36.6467 78.589 -78.589 36.6467 36663.6875 7443.646)">
				<stop  offset="0" style="stop-color:#004E25"/>
				<stop  offset="1" style="stop-color:#000000"/>
			</linearGradient>
			<polygon id="XMLID_38_" class="st182" points="95.6,22.5 105.9,44.6 82.6,55.5 72.2,33.4 			"/>
		</g>
	</g>
	<g>
		<g>
			<defs>
				<polygon id="XMLID_37_" points="27.6,57.1 26.3,61.2 36.9,61.2 38.2,57.4 31.3,57.4 39.1,54.6 39.7,53 				"/>
			</defs>
			<clipPath id="XMLID_244_">
				<use xlink:href="#XMLID_37_"  style="overflow:visible;"/>
			</clipPath>
			
				<linearGradient id="XMLID_245_" gradientUnits="userSpaceOnUse" x1="-253.0429" y1="345.905" x2="-251.8837" y2="345.905" gradientTransform="matrix(23.6606 50.7403 -50.7403 23.6606 23581.248 4733.2988)">
				<stop  offset="0" style="stop-color:#004E25"/>
				<stop  offset="1" style="stop-color:#000000"/>
			</linearGradient>
			<polygon id="XMLID_36_" class="st183" points="37.3,47.9 42.8,59.8 28.7,66.4 23.1,54.5 			"/>
		</g>
	</g>
	<g>
		<g>
			<defs>
				<path id="SVGID_5_" d="M49,55.1c0,0,0.6,0,1.1,0c2.5,0,1.6,2,1.6,2c-0.8,1.7-2.8,1.5-2.8,1.5h-1L49,55.1z M51.7,51.2h-6.9
					C45.3,51.7,45,53,45,53s-4.3,12.7-4.6,13.7c-0.3,1-0.9,1.7-0.9,1.7h5.4c-0.2,0-0.2-0.6-0.2-0.6l1.9-5.4c0,0,2.4,5,2.6,5.3
					c0.2,0.4,0.1,0.6,0.1,0.6h5.8c-0.6,0-1.1-1.1-1.1-1.1l-2.9-5.4c4,0,5.3-4.2,5.3-4.2C58.3,51.3,52.3,51.2,51.7,51.2
					C51.7,51.2,51.7,51.2,51.7,51.2"/>
			</defs>
			<clipPath id="SVGID_6_">
				<use xlink:href="#SVGID_5_"  style="overflow:visible;"/>
			</clipPath>
			
				<linearGradient id="XMLID_246_" gradientUnits="userSpaceOnUse" x1="-255.7803" y1="346.2595" x2="-254.6211" y2="346.2595" gradientTransform="matrix(36.7057 78.7157 -78.7157 36.7057 36699.9688 7497.8013)">
				<stop  offset="0" style="stop-color:#004E25"/>
				<stop  offset="1" style="stop-color:#000000"/>
			</linearGradient>
			<polygon id="XMLID_33_" class="st184" points="54.9,43.9 64.9,65.3 42.8,75.6 32.8,54.2 			"/>
		</g>
	</g>
	<g>
		<g>
			<defs>
				<path id="SVGID_7_" d="M104.9,68.4L104.9,68.4C104.9,68.4,104.9,68.4,104.9,68.4 M108.9,55.2h1.5c0,0,1.8,0,1.1,1.9
					c-0.6,1.7-2.7,1.5-2.7,1.5h-1.1L108.9,55.2z M111.7,51.2h-6.8c0.5,0.6,0.1,1.8,0.1,1.8s-4.4,12.8-4.8,13.8c-0.3,1-1,1.6-1,1.6
					l5.6,0c-0.4,0-0.1-1.1-0.1-1.1l1.7-4.9c0,0,2.3,5,2.5,5.3c0.2,0.4,0.1,0.6,0.1,0.6h6c-0.6,0-1.2-1.1-1.2-1.1l-2.9-5.4
					c4,0,5.3-4,5.3-4c1.9-6.4-3.5-6.6-4.5-6.6C111.7,51.2,111.7,51.2,111.7,51.2"/>
			</defs>
			<clipPath id="SVGID_8_">
				<use xlink:href="#SVGID_7_"  style="overflow:visible;"/>
			</clipPath>
			
				<linearGradient id="XMLID_247_" gradientUnits="userSpaceOnUse" x1="-255.8421" y1="346.1749" x2="-254.6829" y2="346.1749" gradientTransform="matrix(36.7273 78.762 -78.762 36.7273 36750.5625 7453.4927)">
				<stop  offset="0" style="stop-color:#004E25"/>
				<stop  offset="1" style="stop-color:#000000"/>
			</linearGradient>
			<polygon id="XMLID_29_" class="st185" points="114.9,43.9 124.8,65.4 102.6,75.7 92.7,54.3 			"/>
		</g>
	</g>
	<g>
		<g>
			<defs>
				<path id="SVGID_9_" d="M64,64.7c-2-0.4-1.7-3.7-1.4-5.2c0.7-3.3,2.5-4.9,3.8-4.8c0.4,0.1,2.8,0.1,1.5,5.5
					c-0.8,3.2-2.2,4.5-3.5,4.5C64.3,64.8,64.1,64.7,64,64.7 M57.5,60.1c-0.8,4.8,1.8,8.6,6.1,8.6c6,0,9.6-6.1,9.6-10.6
					c0-4.6-1.8-7.5-6-7.5C61.9,50.7,58.4,54.9,57.5,60.1"/>
			</defs>
			<clipPath id="SVGID_10_">
				<use xlink:href="#SVGID_9_"  style="overflow:visible;"/>
			</clipPath>
			
				<linearGradient id="XMLID_248_" gradientUnits="userSpaceOnUse" x1="-255.5329" y1="346.2145" x2="-254.3737" y2="346.2145" gradientTransform="matrix(34.8598 74.7572 -74.7572 34.8598 34854.3672 7092.7959)">
				<stop  offset="0" style="stop-color:#004E25"/>
				<stop  offset="1" style="stop-color:#000000"/>
			</linearGradient>
			<polygon id="XMLID_26_" class="st186" points="70.2,44.4 80.1,65.6 59.7,75.1 49.8,53.9 			"/>
		</g>
	</g>
	<g>
		<g>
			<defs>
				<path id="XMLID_25_" d="M74.6,51.2c0,0,0.4,0.2,0.4,1.3v14.9c0,0-0.1,0.8-0.4,1h4.5c0,0,0-0.4,0.4-0.9
					c0.4-0.6,9.7-13.5,9.7-13.5s2.1-2.7,2.7-2.7h-6.4c0,0,0.5,0.3,0.1,1c-0.4,0.6-6.1,9.5-6.1,9.5l0.1-8.9c0,0,0-1.4,0.5-1.6
					L74.6,51.2z"/>
			</defs>
			<clipPath id="XMLID_249_">
				<use xlink:href="#XMLID_25_"  style="overflow:visible;"/>
			</clipPath>
			
				<linearGradient id="XMLID_250_" gradientUnits="userSpaceOnUse" x1="-255.6531" y1="346.2001" x2="-254.4939" y2="346.2001" gradientTransform="matrix(35.5823 76.3065 -76.3065 35.5823 35589.8555 7233.3022)">
				<stop  offset="0" style="stop-color:#004E25"/>
				<stop  offset="1" style="stop-color:#000000"/>
			</linearGradient>
			<polygon id="XMLID_24_" class="st187" points="88.8,44.6 98.5,65.4 77.7,75.1 68,54.3 			"/>
		</g>
	</g>
	<g>
		<g>
			<defs>
				<path id="SVGID_11_" d="M99.8,57.6C99.8,57.6,99.8,57.5,99.8,57.6L99.8,57.6z M92.1,51.2c0,0,0.4,0.4-0.1,1.8
					c-0.5,1.4-4.9,13.8-4.9,13.8s-0.8,1.6-1,1.6h11.1l1.3-4.1c0,0-0.2,0.2-1.2,0.2h-4.7l1-2.8h3.7c0,0,0.8-0.1,0.9,0.2l1.5-4.4
					c0,0.1-0.2,0.4-1.1,0.4h-3.5l1.1-3.1h4.5c0,0,0.6-0.1,0.8,0.4l1.4-4.1L92.1,51.2L92.1,51.2z"/>
			</defs>
			<clipPath id="SVGID_12_">
				<use xlink:href="#SVGID_11_"  style="overflow:visible;"/>
			</clipPath>
			
				<linearGradient id="XMLID_251_" gradientUnits="userSpaceOnUse" x1="-256.7118" y1="346.3491" x2="-255.5526" y2="346.3491" gradientTransform="matrix(44.6754 95.8067 -95.8067 44.6754 44729.4297 9146.1104)">
				<stop  offset="0" style="stop-color:#004E25"/>
				<stop  offset="1" style="stop-color:#000000"/>
			</linearGradient>
			<polygon id="XMLID_21_" class="st188" points="99.9,44.8 109.5,65.4 89.2,74.8 79.6,54.3 			"/>
		</g>
	</g>
	<g>
		<g>
			<defs>
				<path id="SVGID_13_" d="M56.8,36.1l0,5h-3L56.8,36.1z M55.8,30.2c0,0,0.4,0.5-0.3,1.6c-0.7,1.1-9.7,15-9.7,15s-0.2,0.4-0.6,0.6
					h5.3c0,0,0-0.4,0.1-0.7c0.3-0.5,0.9-1.7,0.9-1.7h5.4l0,1.5c0,0,0,0.5-0.4,0.9h5.3c0,0-0.4-0.2-0.5-0.9l-0.7-15.1
					c0,0,0-1,0.4-1.2H55.8z"/>
			</defs>
			<clipPath id="SVGID_14_">
				<use xlink:href="#SVGID_13_"  style="overflow:visible;"/>
			</clipPath>
			
				<linearGradient id="XMLID_252_" gradientUnits="userSpaceOnUse" x1="-255.996" y1="346.2787" x2="-254.8368" y2="346.2787" gradientTransform="matrix(38.2316 81.988 -81.988 38.2316 38240.082 7807.3882)">
				<stop  offset="0" style="stop-color:#004E25"/>
				<stop  offset="1" style="stop-color:#000000"/>
			</linearGradient>
			<polygon id="XMLID_18_" class="st189" points="58.9,23.8 68.4,44.3 48.1,53.8 38.6,33.3 			"/>
		</g>
	</g>
	<polygon id="XMLID_17_" class="st178" points="110.8,35.7 100.2,35.7 99,39.6 105.8,39.6 98,42.4 97.5,44 109.5,39.9 	"/>
	<path id="XMLID_16_" class="st178" d="M44.4,42.2L43,46.3H32.7c0,0,0.2-0.1,0.6-0.8c0.3-0.7,5.1-14.6,5.1-14.6s0.7-1.5-0.1-1.8h6
		c0,0-0.3-0.1-0.9,1.4c-0.3,0.8-4.3,12-4.3,12h4.3C43.3,42.5,44.3,42.6,44.4,42.2"/>
	<path id="XMLID_15_" class="st178" d="M61.4,46.3h4.9c0,0-0.3-0.5-0.1-1.1c0.3-0.8,2.9-8.1,2.9-8.1l1.1,9.2h4.4l5.8-16.4
		c0,0,0.2-0.8,0.6-0.8l-4.7,0c0,0,0.1,0.6,0,1C76,30.6,73.3,38,73.3,38l-1-8.9h-5c0,0,0.3,0.4,0.1,0.9C67.2,30.5,62,45.3,62,45.3
		S61.7,46.3,61.4,46.3"/>
	<path class="st178" d="M89.2,29.2h-5.5c0,0,0.4,0.7-0.1,2.3C83,33.1,78.7,45,78.7,45s-0.3,1.1-0.8,1.3l6.6,0c0,0,8.1,0.3,10.5-8.5
		C95.1,37.8,98.3,29.1,89.2,29.2 M89.7,38.5c-1.4,3.6-3.5,3.8-4.6,3.8c-0.7,0-0.8,0-0.8,0l3.2-9.5h1.2C88.8,32.9,92,32.7,89.7,38.5"
		/>
	<polygon id="XMLID_12_" class="st178" points="25.3,60.2 35.9,60.2 37.2,56.3 30.3,56.3 38.1,53.5 38.7,51.9 26.6,56 	"/>
	<path class="st178" d="M55.4,56.6c2-6.7-4.7-6.5-4.7-6.5h-6.9c0.5,0.6,0.1,1.8,0.1,1.8s-4.3,12.7-4.6,13.7c-0.3,1-0.9,1.7-0.9,1.7
		h5.4c-0.2,0-0.2-0.6-0.2-0.6l1.9-5.4c0,0,2.4,5,2.6,5.3c0.2,0.3,0.1,0.6,0.1,0.6h5.8c-0.6,0-1.1-1.1-1.1-1.1l-2.9-5.4
		C54.1,60.8,55.4,56.6,55.4,56.6 M50.7,56c-0.8,1.7-2.8,1.5-2.8,1.5h-1L48,54c0,0,0.6,0,1.1,0C51.6,54,50.7,56,50.7,56"/>
	<path class="st178" d="M115.3,56.8c2.1-7-4.6-6.6-4.6-6.6h-6.8c0.5,0.6,0.1,1.8,0.1,1.8s-4.4,12.8-4.8,13.8c-0.3,1-1,1.6-1,1.6
		l5.7,0c-0.4,0-0.1-1.1-0.1-1.1l1.7-4.9c0,0,2.3,5,2.5,5.3c0.2,0.4,0.1,0.6,0.1,0.6h6c-0.6,0-1.2-1.1-1.2-1.1l-2.9-5.4
		C114.1,60.8,115.3,56.8,115.3,56.8 M110.5,56.1c-0.6,1.7-2.7,1.5-2.7,1.5h-1.1l1.1-3.4h1.5C109.4,54.1,111.3,54.1,110.5,56.1"/>
	<path class="st178" d="M66.2,49.6c-5.3,0-8.8,4.2-9.6,9.4c-0.8,4.8,1.8,8.6,6.1,8.6c6,0,9.6-6.1,9.6-10.6
		C72.2,52.5,70.4,49.6,66.2,49.6 M67,59.2c-0.9,3.6-2.5,4.7-4,4.4c-2-0.4-1.7-3.7-1.4-5.2c0.7-3.3,2.5-4.9,3.8-4.8
		C65.9,53.7,68.3,53.8,67,59.2"/>
	<path id="XMLID_5_" class="st178" d="M73.6,50.1c0,0,0.4,0.2,0.4,1.3v14.9c0,0-0.1,0.8-0.4,1h4.5c0,0,0-0.4,0.4-0.9
		c0.4-0.6,9.7-13.5,9.7-13.5s2.1-2.7,2.7-2.7h-6.4c0,0,0.5,0.3,0.1,1c-0.4,0.6-6.1,9.5-6.1,9.5l0.1-8.9c0,0,0-1.4,0.5-1.6L73.6,50.1
		"/>
	<path id="XMLID_4_" class="st178" d="M100.5,54.2l1.4-4.1H91.1c0,0,0.4,0.4-0.1,1.8c-0.5,1.4-4.9,13.8-4.9,13.8s-0.8,1.6-1,1.6
		h11.1l1.3-4.1c0,0-0.2,0.2-1.2,0.2h-4.7l1-2.8h3.7c0,0,0.8-0.1,0.9,0.2l1.5-4.4c0,0-0.1,0.4-1.1,0.4h-3.5l1.1-3.1h4.5
		C99.7,53.8,100.3,53.7,100.5,54.2"/>
	<path class="st178" d="M60.9,46.3c0,0-0.4-0.2-0.5-0.9l-0.7-15.1c0,0,0-1,0.4-1.2h-5.3c0,0,0.4,0.5-0.3,1.6c-0.7,1.1-9.7,15-9.7,15
		s-0.2,0.4-0.6,0.6h5.3c0,0,0-0.4,0.1-0.7c0.3-0.5,0.9-1.7,0.9-1.7h5.4l0,1.5c0,0,0,0.5-0.4,0.9H60.9z M52.8,40l3-5l0,5H52.8z"/>
</g>
</svg>
