<?xml version="1.0" encoding="utf-8"?>
<!-- Generator: Adobe Illustrator 24.0.2, SVG Export Plug-In . SVG Version: 6.00 Build 0)  -->
<svg version="1.1" id="Layer_1" xmlns="http://www.w3.org/2000/svg" xmlns:xlink="http://www.w3.org/1999/xlink" x="0px" y="0px"
	 viewBox="0 0 144 101" style="enable-background:new 0 0 144 101;" xml:space="preserve">
<style type="text/css">
	.st0{opacity:0.8;}
	.st1{opacity:0;}
	.st2{opacity:2.941176e-02;}
	.st3{opacity:5.882353e-02;}
	.st4{opacity:8.823530e-02;}
	.st5{opacity:0.1176;}
	.st6{opacity:0.1471;}
	.st7{opacity:0.1765;}
	.st8{opacity:0.2059;}
	.st9{opacity:0.2353;}
	.st10{opacity:0.2647;}
	.st11{opacity:0.2941;}
	.st12{opacity:0.3235;}
	.st13{opacity:0.3529;}
	.st14{opacity:0.3824;}
	.st15{opacity:0.4118;}
	.st16{opacity:0.4412;}
	.st17{opacity:0.4706;}
	.st18{opacity:0.5;}
	.st19{opacity:0.5294;}
	.st20{opacity:0.5588;}
	.st21{opacity:0.5882;}
	.st22{opacity:0.6176;}
	.st23{opacity:0.6471;}
	.st24{opacity:0.6765;}
	.st25{opacity:0.7059;}
	.st26{opacity:0.7353;}
	.st27{opacity:0.7647;}
	.st28{opacity:0.7941;}
	.st29{opacity:0.8235;}
	.st30{opacity:0.8529;}
	.st31{opacity:0.8824;}
	.st32{opacity:0.9118;}
	.st33{opacity:0.9412;}
	.st34{opacity:0.9706;}
	.st35{fill:#4D4D4D;}
	.st36{fill:url(#_170829840_1_);}
	.st37{fill:url(#XMLID_10_);}
	.st38{fill:url(#XMLID_11_);}
	.st39{fill:url(#XMLID_115_);}
	.st40{fill:url(#XMLID_116_);}
	.st41{fill:url(#_170831360_1_);}
	.st42{fill:#FFFFFF;}
</style>
<g id="Layer_1_1_">
</g>
<g id="XMLID_1_">
	<g id="XMLID_112_" class="st0">
		<g id="XMLID_6_" class="st1">
			<path id="XMLID_7_" d="M80.1,67.4c-0.9,0-1.7-0.3-2.4-0.9c0,0-4.5-4.3-4.6-4.4c0,0-0.4-0.4-0.8-0.4c-0.5,0-0.8,0.3-0.8,0.4
				c-0.1,0.1-4.6,4.3-4.6,4.3c-0.6,0.6-1.4,0.9-2.4,0.9c-0.7,0-1.2-0.3-1.2-0.3c-6.6-1.8-19.1-4.9-19.5-5.4h0
				c-3.5-1.1-4.1-2-4.7-3.4c0,0-0.4-1.1-1.5-1.4c-21.5-6.3-23.6-6.9-23.9-7l0.1,0c-1-0.3-1.3-0.5-1.5-1c-1-1.7-1.2-2.2-1.3-2.3l0,0
				c-0.4-0.7-1-0.9-1.2-0.9c-1.5-0.2-2-1-2.2-1.4l-1.1-1.9c-0.3-0.5-0.7-0.8-1.1-0.9l0,0l-0.1,0c-0.9-0.1-1.2-0.3-1.5-0.8
				c-0.7-1.2-1-1.6-1.1-1.8l0,0c-0.2-0.3-0.3-0.7-0.3-1c0-0.2,0.1-0.4,0.2-0.6l0-0.1l0,0c0.4-0.5,1-0.7,1.2-0.7h56.9
				c1.4,0,2.6,0.5,3.5,1.4c0.3,0.3,0.6,0.7,0.8,1.2c0.2,0.4,0.3,0.8,0.4,1.2c0,0.1,0.1,0.2,0.2,0.3l0.1,0.1l0.1,0
				c0.1,0,0.4,0.1,0.7,0.1h11.3c0.9,0,1.1-0.4,1.1-0.6c0.2-0.7,0.4-1.3,0.8-1.8c0.1-0.2,0.3-0.4,0.4-0.5c0.1-0.1,0.2-0.2,0.3-0.3
				c0.9-0.8,2-1.2,3.2-1.2h56.9c0.2,0,0.8,0.2,1.2,0.7l0,0.1l0,0.1c0.1,0.2,0.1,0.4,0.1,0.6c0,0.3-0.1,0.7-0.3,1l0,0
				c-0.1,0.1-0.3,0.5-1.1,1.9c-0.3,0.5-0.6,0.7-1.5,0.7l-0.1,0l0,0c-0.5,0.1-0.9,0.4-1.1,0.9l-1.1,1.9c-0.2,0.4-0.6,1.2-2.1,1.4
				c-0.5,0.1-1,0.4-1.3,0.9l0,0c-0.1,0.2-0.4,0.6-1.3,2.3c-0.3,0.5-0.6,0.8-1.6,1.1l0.1,0c-0.3,0.1-2.4,0.7-23.9,7
				c-1.1,0.3-1.5,1.3-1.5,1.4c-0.5,1.4-1.2,2.2-4.7,3.3h0c-0.3,0.6-12.9,3.6-19.5,5.4C81.3,67.2,80.8,67.4,80.1,67.4z"/>
		</g>
		<g class="st2">
			<path d="M80.1,67.3c-0.9,0-1.7-0.3-2.4-0.9c0,0-4.5-4.3-4.6-4.4c0,0-0.4-0.4-0.8-0.4c-0.5,0-0.8,0.3-0.8,0.4
				c-0.1,0.1-4.6,4.3-4.6,4.3c-0.6,0.6-1.4,0.9-2.4,0.9c-0.7,0-1.2-0.3-1.2-0.3c-6.6-2-19.1-4.9-19.5-5.4h0c-3.5-1.1-4.2-2-4.7-3.4
				c0,0-0.4-1.1-1.5-1.4c-21.5-6.4-23.6-6.9-23.9-7l0.1,0c-1-0.3-1.3-0.5-1.5-1c-0.9-1.7-1.2-2.2-1.3-2.3l0,0
				c-0.4-0.7-1-0.9-1.2-0.9c-1.5-0.2-2-1-2.2-1.4l-1.1-1.9c-0.3-0.5-0.7-0.8-1.1-0.9l0,0l-0.1,0c-0.9-0.1-1.2-0.3-1.5-0.8
				c-0.7-1.2-1-1.6-1.1-1.8l0,0c-0.2-0.3-0.3-0.7-0.3-1c0-0.2,0.1-0.4,0.2-0.6l0-0.1l0,0c0.4-0.5,1-0.7,1.2-0.7h56.9
				c1.4,0,2.6,0.5,3.5,1.4c0.3,0.3,0.6,0.7,0.8,1.2c0.2,0.4,0.4,0.8,0.4,1.2c0,0.1,0.1,0.2,0.2,0.3l0.1,0.1l0.1,0
				c0.1,0,0.4,0.1,0.7,0.1h11.3c0.9,0,1.1-0.4,1.1-0.6c0.2-0.7,0.4-1.3,0.8-1.8c0.1-0.2,0.3-0.4,0.4-0.5c0.1-0.1,0.2-0.2,0.3-0.3
				c0.9-0.8,2-1.2,3.2-1.2h56.9c0.2,0,0.8,0.2,1.2,0.7l0,0.1l0,0.1c0.1,0.2,0.1,0.4,0.1,0.6c0,0.3-0.1,0.7-0.3,1l0,0
				c-0.1,0.1-0.3,0.5-1.1,1.9c-0.3,0.5-0.6,0.7-1.5,0.7l-0.1,0l0,0c-0.5,0.1-0.9,0.4-1.1,0.9l-1.1,1.9c-0.2,0.4-0.6,1.2-2.1,1.4
				c-0.5,0.1-1,0.4-1.3,0.9l0,0c-0.1,0.2-0.4,0.6-1.3,2.3c-0.3,0.5-0.6,0.8-1.6,1.1l0.1,0c-0.3,0.1-2.5,0.7-23.9,7
				c-1.1,0.3-1.5,1.3-1.5,1.4c-0.5,1.4-1.2,2.2-4.7,3.3h0c-0.3,0.6-12.9,3.5-19.5,5.4C81.3,67.1,80.8,67.3,80.1,67.3z"/>
		</g>
		<g class="st3">
			<path d="M80.1,67.2c-0.9,0-1.7-0.3-2.4-0.9c0,0-4.5-4.3-4.6-4.4c0,0-0.4-0.4-0.8-0.4c-0.5,0-0.8,0.3-0.8,0.4
				c-0.1,0.1-4.6,4.3-4.6,4.3c-0.6,0.6-1.4,0.9-2.4,0.9c-0.7,0-1.2-0.3-1.2-0.3c-6.6-2-19.1-4.9-19.5-5.4h0c-3.5-1.1-4.2-2-4.7-3.4
				c0,0-0.4-1.1-1.5-1.4c-21.5-6.4-23.6-6.9-23.9-7l0.1,0c-1-0.3-1.3-0.5-1.5-1c-0.9-1.7-1.2-2.2-1.3-2.3l0,0
				c-0.4-0.7-1-0.9-1.2-0.9c-1.5-0.2-2-1-2.2-1.4l-1.1-1.9c-0.3-0.5-0.7-0.8-1.1-0.9l0,0l-0.1,0c-0.9-0.1-1.2-0.3-1.5-0.8
				c-0.7-1.2-1-1.6-1.1-1.8l0,0c-0.2-0.3-0.3-0.7-0.3-1c0-0.2,0.1-0.4,0.2-0.6l0-0.1l0,0c0.4-0.5,1-0.7,1.2-0.7h56.9
				c1.4,0,2.6,0.5,3.5,1.4c0.3,0.3,0.6,0.7,0.8,1.2c0.2,0.4,0.4,0.8,0.4,1.2c0,0.1,0.1,0.2,0.2,0.3l0.1,0.1l0.1,0
				c0.1,0,0.4,0.1,0.7,0.1h11.3c0.9,0,1.1-0.4,1.1-0.6c0.2-0.7,0.4-1.3,0.8-1.8c0.1-0.2,0.3-0.4,0.4-0.5c0.1-0.1,0.2-0.2,0.3-0.3
				c0.9-0.8,2-1.2,3.2-1.2h56.9c0.2,0,0.8,0.2,1.2,0.7l0,0.1l0,0.1c0.1,0.2,0.1,0.4,0.1,0.6c0,0.3-0.1,0.7-0.3,1l0,0
				c-0.1,0.1-0.3,0.5-1.1,1.9c-0.3,0.5-0.6,0.7-1.5,0.7l-0.1,0l0,0c-0.5,0.1-0.9,0.4-1.1,0.9l-1.1,1.9c-0.2,0.4-0.6,1.2-2.1,1.4
				c-0.5,0.1-1,0.4-1.3,0.9l0,0c-0.1,0.2-0.4,0.6-1.3,2.3c-0.3,0.5-0.6,0.8-1.6,1.1l0.1,0c-0.3,0.1-2.5,0.7-23.9,7
				c-1.1,0.3-1.5,1.3-1.5,1.4c-0.5,1.4-1.2,2.2-4.7,3.3h0c-0.3,0.6-12.9,3.5-19.5,5.4C81.3,67,80.8,67.2,80.1,67.2z"/>
		</g>
		<g class="st4">
			<path d="M80.1,67.1c-0.9,0-1.7-0.3-2.4-0.9c0,0-4.5-4.3-4.6-4.4c0,0-0.4-0.4-0.8-0.4c-0.5,0-0.8,0.3-0.8,0.4
				c-0.1,0.1-4.6,4.3-4.6,4.3c-0.6,0.6-1.4,0.9-2.4,0.9c-0.7,0-1.2-0.3-1.2-0.3c-6.6-2-19.1-4.9-19.5-5.4h0c-3.5-1.1-4.2-2-4.7-3.4
				c0,0-0.4-1.1-1.5-1.4c-21.5-6.4-23.6-6.9-23.9-7l0.1,0c-1-0.3-1.3-0.5-1.5-1c-0.9-1.7-1.2-2.2-1.3-2.3l0,0
				c-0.4-0.7-1-0.9-1.2-0.9c-1.5-0.2-2-1-2.2-1.4l-1.1-1.9c-0.3-0.5-0.7-0.8-1.1-0.9l0,0l-0.1,0c-0.9-0.1-1.2-0.3-1.5-0.8
				c-0.7-1.2-1-1.6-1.1-1.8l0,0c-0.2-0.3-0.3-0.7-0.3-1c0-0.2,0.1-0.4,0.2-0.6l0-0.1l0,0c0.4-0.5,1-0.7,1.2-0.7h56.9
				c1.4,0,2.6,0.5,3.5,1.4c0.3,0.3,0.6,0.7,0.8,1.2c0.2,0.4,0.4,0.8,0.4,1.2c0,0.1,0.1,0.2,0.2,0.3l0.1,0.1l0.1,0
				c0.1,0,0.4,0.1,0.7,0.1h11.3c0.9,0,1.1-0.4,1.1-0.6c0.2-0.7,0.4-1.3,0.8-1.8c0.1-0.2,0.3-0.4,0.4-0.5c0.1-0.1,0.2-0.2,0.3-0.3
				c0.9-0.8,2-1.2,3.2-1.2h56.9c0.2,0,0.8,0.2,1.2,0.7l0,0.1l0,0.1c0.1,0.2,0.1,0.4,0.1,0.6c0,0.3-0.1,0.7-0.3,1l0,0
				c-0.1,0.1-0.3,0.5-1.1,1.9c-0.3,0.5-0.6,0.7-1.5,0.7l-0.1,0l0,0c-0.5,0.1-0.9,0.4-1.1,0.9L137,44c-0.2,0.4-0.6,1.2-2.1,1.4
				c-0.5,0.1-1,0.4-1.3,0.9l0,0c-0.1,0.2-0.4,0.6-1.3,2.3c-0.3,0.5-0.6,0.8-1.6,1.1l0.1,0c-0.3,0.1-2.5,0.7-23.9,7
				c-1.1,0.3-1.5,1.3-1.5,1.4c-0.5,1.4-1.2,2.2-4.7,3.3h0c-0.3,0.6-12.9,3.5-19.5,5.4C81.3,66.9,80.8,67.1,80.1,67.1z"/>
		</g>
		<g class="st5">
			<path d="M80.1,67c-0.9,0-1.7-0.3-2.4-0.9c0,0-4.5-4.3-4.6-4.4c0,0-0.4-0.4-0.8-0.4c-0.5,0-0.8,0.3-0.8,0.4
				c-0.1,0.1-4.6,4.3-4.6,4.3c-0.6,0.6-1.4,0.9-2.4,0.9c-0.7,0-1.2-0.3-1.2-0.3c-6.6-2-19.1-4.9-19.5-5.4h0c-3.5-1.1-4.2-2-4.7-3.4
				c0,0-0.4-1.1-1.5-1.4c-21.5-6.4-23.6-6.9-23.9-7l0.1,0c-1-0.3-1.3-0.5-1.5-1c-0.9-1.7-1.2-2.2-1.3-2.3l0,0
				c-0.4-0.7-1-0.9-1.2-0.9c-1.5-0.2-2-1-2.2-1.4l-1.1-1.9c-0.3-0.5-0.7-0.8-1.1-0.9l0,0l-0.1,0c-0.9-0.1-1.2-0.3-1.5-0.8
				c-0.7-1.2-1-1.6-1.1-1.8l0,0c-0.2-0.3-0.3-0.7-0.3-1c0-0.2,0.1-0.4,0.2-0.6l0-0.1l0,0c0.4-0.5,1-0.7,1.2-0.7h56.9
				c1.4,0,2.6,0.5,3.5,1.4c0.3,0.3,0.6,0.7,0.8,1.2c0.2,0.4,0.4,0.8,0.4,1.2c0,0.1,0.1,0.2,0.2,0.3l0.1,0.1l0.1,0
				c0.1,0,0.4,0.1,0.7,0.1h11.3c0.9,0,1.1-0.4,1.1-0.6c0.2-0.7,0.4-1.3,0.8-1.8c0.1-0.2,0.3-0.4,0.4-0.5c0.1-0.1,0.2-0.2,0.3-0.3
				c0.9-0.8,2-1.2,3.2-1.2h56.9c0.2,0,0.8,0.2,1.2,0.7l0,0.1l0,0.1c0.1,0.2,0.1,0.4,0.1,0.6c0,0.3-0.1,0.7-0.3,1l0,0
				c-0.1,0.1-0.3,0.5-1.1,1.9c-0.3,0.5-0.6,0.7-1.5,0.7l-0.1,0l0,0c-0.5,0.1-0.9,0.4-1.1,0.9l-1.1,1.9c-0.2,0.4-0.6,1.2-2.1,1.4
				c-0.5,0.1-1,0.4-1.3,0.9l0,0c-0.1,0.2-0.4,0.6-1.3,2.3c-0.3,0.5-0.6,0.8-1.6,1.1l0.1,0c-0.3,0.1-2.5,0.7-23.9,7
				c-1.1,0.3-1.5,1.3-1.5,1.4c-0.5,1.4-1.2,2.2-4.7,3.3h0c-0.3,0.6-12.9,3.5-19.5,5.4C81.3,66.8,80.8,67,80.1,67z"/>
		</g>
		<g class="st6">
			<path d="M80.1,66.9c-0.9,0-1.7-0.3-2.4-0.9c0,0-4.5-4.3-4.6-4.4c0,0-0.4-0.4-0.8-0.4c-0.5,0-0.8,0.3-0.8,0.4
				c-0.1,0.1-4.6,4.3-4.6,4.3c-0.6,0.6-1.4,0.9-2.4,0.9c-0.7,0-1.2-0.3-1.2-0.3c-6.6-2-19.1-4.9-19.5-5.4h0c-3.5-1.1-4.2-2-4.7-3.4
				c0,0-0.4-1.1-1.5-1.4c-21.5-6.4-23.6-6.9-23.9-7l0.1,0c-1-0.3-1.3-0.5-1.5-1c-0.9-1.7-1.2-2.2-1.3-2.3l0,0
				c-0.4-0.7-1-0.9-1.2-0.9c-1.5-0.2-2-1-2.2-1.4L6.5,42c-0.3-0.5-0.7-0.8-1.1-0.9l0,0l-0.1,0c-0.9-0.1-1.2-0.3-1.5-0.8
				c-0.7-1.2-1-1.6-1.1-1.8l0,0c-0.2-0.3-0.3-0.7-0.3-1c0-0.2,0.1-0.4,0.2-0.6l0-0.1l0,0c0.4-0.5,1-0.7,1.2-0.7h56.9
				c1.4,0,2.6,0.5,3.5,1.4c0.3,0.3,0.6,0.7,0.8,1.2c0.2,0.4,0.4,0.8,0.4,1.2c0,0.1,0.1,0.2,0.2,0.3l0.1,0.1l0.1,0
				c0.1,0,0.4,0.1,0.7,0.1h11.3c0.9,0,1.1-0.4,1.1-0.6c0.2-0.7,0.4-1.3,0.8-1.8c0.1-0.2,0.3-0.4,0.4-0.5c0.1-0.1,0.2-0.2,0.3-0.3
				c0.9-0.8,2-1.2,3.2-1.2h56.9c0.2,0,0.8,0.2,1.2,0.7l0,0.1l0,0.1c0.1,0.2,0.1,0.4,0.1,0.6c0,0.3-0.1,0.7-0.3,1l0,0
				c-0.1,0.1-0.3,0.5-1.1,1.9c-0.3,0.5-0.6,0.7-1.5,0.7l-0.1,0l0,0c-0.5,0.1-0.9,0.4-1.1,0.9l-1.1,1.9c-0.2,0.4-0.6,1.2-2.1,1.4
				c-0.5,0.1-1,0.4-1.3,0.9l0,0c-0.1,0.2-0.4,0.6-1.3,2.3c-0.3,0.5-0.6,0.8-1.6,1.1l0.1,0c-0.3,0.1-2.5,0.7-23.9,7
				c-1.1,0.3-1.5,1.3-1.5,1.4c-0.5,1.4-1.2,2.2-4.7,3.3h0c-0.3,0.6-12.9,3.5-19.5,5.4C81.3,66.7,80.8,66.9,80.1,66.9z"/>
		</g>
		<g class="st7">
			<path d="M80.1,66.8c-0.9,0-1.7-0.3-2.4-0.9c0,0-4.5-4.3-4.6-4.4c0,0-0.4-0.4-0.8-0.4c-0.5,0-0.8,0.3-0.8,0.4
				c-0.1,0.1-4.6,4.3-4.6,4.3c-0.6,0.6-1.4,0.9-2.4,0.9c-0.7,0-1.2-0.3-1.2-0.3c-6.6-2-19.1-4.9-19.5-5.4h0c-3.5-1.1-4.2-2-4.7-3.4
				c0,0-0.4-1.1-1.5-1.4c-21.5-6.4-23.6-6.9-23.9-7l0.1,0c-1-0.3-1.3-0.5-1.5-1c-0.9-1.7-1.2-2.2-1.3-2.3l0,0
				c-0.4-0.7-1-0.9-1.2-0.9c-1.5-0.2-2-1-2.2-1.4l-1.1-1.9c-0.3-0.5-0.7-0.8-1.1-0.9l0,0l-0.1,0c-0.9-0.1-1.2-0.3-1.5-0.8
				c-0.7-1.2-1-1.6-1.1-1.8l0,0c-0.2-0.3-0.3-0.7-0.3-1c0-0.2,0.1-0.4,0.2-0.6l0-0.1l0,0c0.4-0.5,1-0.7,1.2-0.7h56.9
				c1.4,0,2.6,0.5,3.5,1.4c0.3,0.3,0.6,0.7,0.8,1.2c0.2,0.4,0.4,0.8,0.4,1.2c0,0.1,0.1,0.2,0.2,0.3l0.1,0.1l0.1,0
				c0.1,0,0.4,0.1,0.7,0.1h11.3c0.9,0,1.1-0.4,1.1-0.6c0.2-0.7,0.4-1.3,0.8-1.8c0.1-0.2,0.3-0.4,0.4-0.5c0.1-0.1,0.2-0.2,0.3-0.3
				c0.9-0.8,2-1.2,3.2-1.2h56.9c0.2,0,0.8,0.2,1.2,0.7l0,0.1l0,0.1c0.1,0.2,0.1,0.4,0.1,0.6c0,0.3-0.1,0.7-0.3,1l0,0
				c-0.1,0.1-0.3,0.5-1.1,1.9c-0.3,0.5-0.6,0.7-1.5,0.7l-0.1,0l0,0c-0.5,0.1-0.9,0.4-1.1,0.9l-1.1,1.9c-0.2,0.4-0.6,1.2-2.1,1.4
				c-0.5,0.1-1,0.4-1.3,0.9l0,0c-0.1,0.2-0.4,0.6-1.3,2.3c-0.3,0.5-0.6,0.8-1.6,1.1l0.1,0c-0.3,0.1-2.5,0.7-23.9,7
				c-1.1,0.3-1.5,1.3-1.5,1.4c-0.5,1.4-1.2,2.2-4.7,3.3h0c-0.3,0.6-12.9,3.5-19.5,5.4C81.3,66.6,80.8,66.8,80.1,66.8z"/>
		</g>
		<g class="st8">
			<path d="M80.1,66.7c-0.9,0-1.7-0.3-2.4-0.9c0,0-4.5-4.3-4.6-4.4c0,0-0.4-0.4-0.8-0.4c-0.5,0-0.8,0.3-0.8,0.4
				c-0.1,0.1-4.6,4.3-4.6,4.3c-0.6,0.6-1.4,0.9-2.4,0.9c-0.7,0-1.2-0.3-1.2-0.3c-6.6-2-19.1-4.9-19.5-5.4h0c-3.5-1.1-4.2-2-4.7-3.4
				c0,0-0.4-1.1-1.5-1.4c-21.5-6.4-23.6-6.9-23.9-7l0.1,0c-1-0.3-1.3-0.5-1.5-1c-0.9-1.7-1.2-2.2-1.3-2.3l0,0
				c-0.4-0.7-1-0.9-1.2-0.9c-1.5-0.2-2-1-2.2-1.4l-1.1-1.9c-0.3-0.5-0.7-0.8-1.1-0.9l0,0l-0.1,0c-0.9-0.1-1.2-0.3-1.5-0.8
				c-0.7-1.2-1-1.6-1.1-1.8l0,0c-0.2-0.3-0.3-0.7-0.3-1c0-0.2,0.1-0.4,0.2-0.6l0-0.1l0,0c0.4-0.5,1-0.7,1.2-0.7h56.9
				c1.4,0,2.6,0.5,3.5,1.4c0.3,0.3,0.6,0.7,0.8,1.2c0.2,0.4,0.4,0.8,0.4,1.2c0,0.1,0.1,0.2,0.2,0.3l0.1,0.1l0.1,0
				c0.1,0,0.4,0.1,0.7,0.1h11.3c0.9,0,1.1-0.4,1.1-0.6c0.2-0.7,0.4-1.3,0.8-1.8c0.1-0.2,0.3-0.4,0.4-0.5c0.1-0.1,0.2-0.2,0.3-0.3
				c0.9-0.8,2-1.2,3.2-1.2h56.9c0.2,0,0.8,0.2,1.2,0.7l0,0.1l0,0.1c0.1,0.2,0.1,0.4,0.1,0.6c0,0.3-0.1,0.7-0.3,1l0,0
				c-0.1,0.1-0.3,0.5-1.1,1.9c-0.3,0.5-0.6,0.7-1.5,0.7l-0.1,0l0,0c-0.5,0.1-0.9,0.4-1.1,0.9l-1.1,1.9c-0.2,0.4-0.6,1.2-2.1,1.4
				c-0.5,0.1-1,0.4-1.3,0.9l0,0c-0.1,0.2-0.4,0.6-1.3,2.3c-0.3,0.5-0.6,0.8-1.6,1.1l0.1,0c-0.3,0.1-2.5,0.7-23.9,7
				c-1.1,0.3-1.5,1.3-1.5,1.4c-0.5,1.4-1.2,2.2-4.7,3.3h0c-0.3,0.6-12.9,3.5-19.5,5.4C81.3,66.5,80.8,66.7,80.1,66.7z"/>
		</g>
		<g class="st9">
			<path d="M80.1,66.6c-0.9,0-1.7-0.3-2.4-0.9c0,0-4.5-4.3-4.6-4.4c0,0-0.4-0.4-0.8-0.4c-0.5,0-0.8,0.3-0.8,0.4
				c-0.1,0.1-4.6,4.3-4.6,4.3c-0.6,0.6-1.4,0.9-2.4,0.9c-0.7,0-1.2-0.3-1.2-0.3c-6.6-2-19.1-4.9-19.5-5.4h0c-3.5-1.1-4.2-2-4.7-3.4
				c0,0-0.4-1.1-1.5-1.4c-21.5-6.4-23.6-6.9-23.9-7l0.1,0c-1-0.3-1.3-0.5-1.5-1c-0.9-1.7-1.2-2.2-1.3-2.3l0,0
				c-0.4-0.7-1-0.9-1.2-0.9c-1.5-0.2-2-1-2.2-1.4l-1.1-1.9c-0.3-0.5-0.7-0.8-1.1-0.9l0,0l-0.1,0c-0.9-0.1-1.2-0.3-1.5-0.8
				c-0.7-1.2-1-1.6-1.1-1.8l0,0c-0.2-0.3-0.3-0.7-0.3-1c0-0.2,0.1-0.4,0.2-0.6l0-0.1l0,0c0.4-0.5,1-0.7,1.2-0.7h56.9
				c1.4,0,2.6,0.5,3.5,1.4c0.3,0.3,0.6,0.7,0.8,1.2c0.2,0.4,0.4,0.8,0.4,1.2c0,0.1,0.1,0.2,0.2,0.3l0.1,0.1l0.1,0
				c0.1,0,0.4,0.1,0.7,0.1h11.3c0.9,0,1.1-0.4,1.1-0.6c0.2-0.7,0.4-1.3,0.8-1.8c0.1-0.2,0.3-0.4,0.4-0.5c0.1-0.1,0.2-0.2,0.3-0.3
				c0.9-0.8,2-1.2,3.2-1.2h56.9c0.2,0,0.8,0.2,1.2,0.7l0,0.1l0,0.1c0.1,0.2,0.1,0.4,0.1,0.6c0,0.3-0.1,0.7-0.3,1l0,0
				c-0.1,0.1-0.3,0.5-1.1,1.9c-0.3,0.5-0.6,0.7-1.5,0.7l-0.1,0l0,0c-0.5,0.1-0.9,0.4-1.1,0.9l-1.1,1.9c-0.2,0.4-0.6,1.2-2.1,1.4
				c-0.5,0.1-1,0.4-1.3,0.9l0,0c-0.1,0.2-0.4,0.6-1.3,2.3c-0.3,0.5-0.6,0.8-1.6,1.1l0.1,0c-0.3,0.1-2.5,0.7-23.9,7
				c-1.1,0.3-1.5,1.3-1.5,1.4c-0.5,1.4-1.2,2.2-4.7,3.3h0c-0.3,0.6-12.9,3.5-19.5,5.4C81.3,66.4,80.8,66.6,80.1,66.6z"/>
		</g>
		<g class="st10">
			<path d="M80.1,66.5c-0.9,0-1.7-0.3-2.4-0.9c0,0-4.5-4.3-4.6-4.4c0,0-0.4-0.4-0.8-0.4c-0.5,0-0.8,0.3-0.8,0.4
				c-0.1,0.1-4.6,4.3-4.6,4.3c-0.6,0.6-1.4,0.9-2.4,0.9c-0.7,0-1.2-0.3-1.2-0.3c-6.6-2-19.1-4.9-19.5-5.4h0c-3.5-1.1-4.2-2-4.7-3.4
				c0,0-0.4-1.1-1.5-1.4c-21.5-6.4-23.6-6.9-23.9-7l0.1,0c-1-0.3-1.3-0.5-1.5-1c-0.9-1.7-1.2-2.2-1.3-2.3l0,0
				c-0.4-0.7-1-0.9-1.2-0.9c-1.5-0.2-2-1-2.2-1.4l-1.1-1.9c-0.3-0.5-0.7-0.8-1.1-0.9l0,0l-0.1,0c-0.9-0.1-1.2-0.3-1.5-0.8
				c-0.7-1.2-1-1.6-1.1-1.8l0,0c-0.2-0.3-0.3-0.7-0.3-1c0-0.2,0.1-0.4,0.2-0.6l0-0.1l0,0c0.4-0.5,1-0.7,1.2-0.7h56.9
				c1.4,0,2.6,0.5,3.5,1.4c0.3,0.3,0.6,0.7,0.8,1.2c0.2,0.4,0.4,0.8,0.4,1.2c0,0.1,0.1,0.2,0.2,0.3l0.1,0.1l0.1,0
				c0.1,0,0.4,0.1,0.7,0.1h11.3c0.9,0,1.1-0.4,1.1-0.6c0.2-0.7,0.4-1.3,0.8-1.8c0.1-0.2,0.3-0.4,0.4-0.5c0.1-0.1,0.2-0.2,0.3-0.3
				c0.9-0.8,2-1.2,3.2-1.2h56.9c0.2,0,0.8,0.2,1.2,0.7l0,0.1l0,0.1c0.1,0.2,0.1,0.4,0.1,0.6c0,0.3-0.1,0.7-0.3,1l0,0
				c-0.1,0.1-0.3,0.5-1.1,1.9c-0.3,0.5-0.6,0.7-1.5,0.7l-0.1,0l0,0c-0.5,0.1-0.9,0.4-1.1,0.9l-1.1,1.9c-0.2,0.4-0.6,1.2-2.1,1.4
				c-0.5,0.1-1,0.4-1.3,0.9l0,0c-0.1,0.2-0.4,0.6-1.3,2.3c-0.3,0.5-0.6,0.8-1.6,1.1l0.1,0c-0.3,0.1-2.5,0.7-23.9,7
				c-1.1,0.3-1.5,1.3-1.5,1.4c-0.5,1.4-1.2,2.2-4.7,3.3h0c-0.3,0.6-12.9,3.5-19.5,5.4C81.3,66.3,80.8,66.5,80.1,66.5z"/>
		</g>
		<g class="st11">
			<path d="M80.1,66.4c-0.9,0-1.7-0.3-2.4-0.9c0,0-4.5-4.3-4.6-4.4c0,0-0.4-0.4-0.8-0.4c-0.5,0-0.8,0.3-0.8,0.4
				c-0.1,0.1-4.6,4.3-4.6,4.3c-0.6,0.6-1.4,0.9-2.4,0.9c-0.7,0-1.2-0.3-1.2-0.3c-6.6-2-19.1-4.9-19.5-5.4h0c-3.5-1.1-4.2-2-4.7-3.4
				c0,0-0.4-1.1-1.5-1.4C16.2,49.6,14,49,13.8,49l0.1,0c-1-0.3-1.3-0.5-1.5-1c-0.9-1.7-1.2-2.2-1.3-2.3l0,0c-0.4-0.7-1-0.9-1.2-0.9
				c-1.5-0.2-2-1-2.2-1.4l-1.1-1.9c-0.3-0.5-0.7-0.8-1.1-0.9l0,0l-0.1,0c-0.9-0.1-1.2-0.3-1.5-0.8c-0.7-1.2-1-1.6-1.1-1.8l0,0
				c-0.2-0.3-0.3-0.7-0.3-1c0-0.2,0.1-0.4,0.2-0.6l0-0.1l0,0c0.4-0.5,1-0.7,1.2-0.7h56.9c1.4,0,2.6,0.5,3.5,1.4
				c0.3,0.3,0.6,0.7,0.8,1.2c0.2,0.4,0.4,0.8,0.4,1.2c0,0.1,0.1,0.2,0.2,0.3l0.1,0.1l0.1,0c0.1,0,0.4,0.1,0.7,0.1h11.3
				c0.9,0,1.1-0.4,1.1-0.6c0.2-0.7,0.4-1.3,0.8-1.8c0.1-0.2,0.3-0.4,0.4-0.5c0.1-0.1,0.2-0.2,0.3-0.3c0.9-0.8,2-1.2,3.2-1.2h56.9
				c0.2,0,0.8,0.2,1.2,0.7l0,0.1l0,0.1c0.1,0.2,0.1,0.4,0.1,0.6c0,0.3-0.1,0.7-0.3,1l0,0c-0.1,0.1-0.3,0.5-1.1,1.9
				c-0.3,0.5-0.6,0.7-1.5,0.7l-0.1,0l0,0c-0.5,0.1-0.9,0.4-1.1,0.9l-1.1,1.9c-0.2,0.4-0.6,1.2-2.1,1.4c-0.5,0.1-1,0.4-1.3,0.9l0,0
				c-0.1,0.2-0.4,0.6-1.3,2.3c-0.3,0.5-0.6,0.8-1.6,1.1l0.1,0c-0.3,0.1-2.5,0.7-23.9,7c-1.1,0.3-1.5,1.3-1.5,1.4
				c-0.5,1.4-1.2,2.2-4.7,3.3h0c-0.3,0.6-12.9,3.5-19.5,5.4C81.3,66.2,80.8,66.4,80.1,66.4z"/>
		</g>
		<g class="st12">
			<path d="M80.1,66.3c-0.9,0-1.7-0.3-2.4-0.9c0,0-4.5-4.3-4.6-4.4c0,0-0.4-0.4-0.8-0.4c-0.5,0-0.8,0.3-0.8,0.4
				c-0.1,0.1-4.6,4.3-4.6,4.3c-0.6,0.6-1.4,0.9-2.4,0.9c-0.7,0-1.2-0.3-1.2-0.3c-6.6-2-19.1-4.9-19.5-5.4h0c-3.5-1.1-4.2-2-4.7-3.4
				c0,0-0.4-1.1-1.5-1.4c-21.5-6.4-23.6-6.9-23.9-7l0.1,0c-1-0.3-1.3-0.5-1.5-1c-0.9-1.7-1.2-2.2-1.3-2.3l0,0
				c-0.4-0.7-1-0.9-1.2-0.9c-1.5-0.2-2-1-2.2-1.4l-1.1-1.9c-0.3-0.5-0.7-0.8-1.1-0.9l0,0l-0.1,0c-0.9-0.1-1.2-0.3-1.5-0.8
				c-0.7-1.2-1-1.6-1.1-1.8l0,0c-0.2-0.3-0.3-0.7-0.3-1c0-0.2,0.1-0.4,0.2-0.6l0-0.1l0,0c0.4-0.5,1-0.7,1.2-0.7h56.9
				c1.4,0,2.6,0.5,3.5,1.4c0.3,0.3,0.6,0.7,0.8,1.2c0.2,0.4,0.4,0.8,0.4,1.2c0,0.1,0.1,0.2,0.2,0.3l0.1,0.1l0.1,0
				c0.1,0,0.4,0.1,0.7,0.1h11.3c0.9,0,1.1-0.4,1.1-0.6c0.2-0.7,0.4-1.3,0.8-1.8c0.1-0.2,0.3-0.4,0.4-0.5c0.1-0.1,0.2-0.2,0.3-0.3
				c0.9-0.8,2-1.2,3.2-1.2h56.9c0.2,0,0.8,0.2,1.2,0.7l0,0.1l0,0.1c0.1,0.2,0.1,0.4,0.1,0.6c0,0.3-0.1,0.7-0.3,1l0,0
				c-0.1,0.1-0.3,0.5-1.1,1.9c-0.3,0.5-0.6,0.7-1.5,0.7l-0.1,0l0,0c-0.5,0.1-0.9,0.4-1.1,0.9l-1.1,1.9c-0.2,0.4-0.6,1.2-2.1,1.4
				c-0.5,0.1-1,0.4-1.3,0.9l0,0c-0.1,0.2-0.4,0.6-1.3,2.3c-0.3,0.5-0.6,0.8-1.6,1.1l0.1,0c-0.3,0.1-2.5,0.7-23.9,7
				c-1.1,0.3-1.5,1.3-1.5,1.4c-0.5,1.4-1.2,2.2-4.7,3.3h0c-0.3,0.6-12.9,3.5-19.5,5.4C81.3,66.1,80.8,66.3,80.1,66.3z"/>
		</g>
		<g class="st13">
			<path d="M80.1,66.2c-0.9,0-1.7-0.3-2.4-0.9c0,0-4.5-4.3-4.6-4.4c0,0-0.4-0.4-0.8-0.4c-0.5,0-0.8,0.3-0.8,0.4
				c-0.1,0.1-4.6,4.3-4.6,4.3c-0.6,0.6-1.4,0.9-2.4,0.9c-0.7,0-1.2-0.3-1.2-0.3c-6.6-2-19.1-4.9-19.5-5.4h0c-3.5-1.1-4.2-2-4.7-3.4
				c0,0-0.4-1.1-1.5-1.4c-21.5-6.4-23.6-6.9-23.9-7l0.1,0c-1-0.3-1.3-0.5-1.5-1c-0.9-1.7-1.2-2.2-1.3-2.3l0,0
				c-0.4-0.7-1-0.9-1.2-0.9c-1.5-0.2-2-1-2.2-1.4l-1.1-1.9c-0.3-0.5-0.7-0.8-1.1-0.9l0,0l-0.1,0c-0.9-0.1-1.2-0.3-1.5-0.8
				c-0.7-1.2-1-1.6-1.1-1.8l0,0c-0.2-0.3-0.3-0.7-0.3-1c0-0.2,0.1-0.4,0.2-0.6l0-0.1l0,0c0.4-0.5,1-0.7,1.2-0.7h56.9
				c1.4,0,2.6,0.5,3.5,1.4c0.3,0.3,0.6,0.7,0.8,1.2c0.2,0.4,0.4,0.8,0.4,1.2c0,0.1,0.1,0.2,0.2,0.3l0.1,0.1l0.1,0
				c0.1,0,0.4,0.1,0.7,0.1h11.3c0.9,0,1.1-0.4,1.1-0.6c0.2-0.7,0.4-1.3,0.8-1.8c0.1-0.2,0.3-0.4,0.4-0.5c0.1-0.1,0.2-0.2,0.3-0.3
				c0.9-0.8,2-1.2,3.2-1.2h56.9c0.2,0,0.8,0.2,1.2,0.7l0,0.1l0,0.1c0.1,0.2,0.1,0.4,0.1,0.6c0,0.3-0.1,0.7-0.3,1l0,0
				c-0.1,0.1-0.3,0.5-1.1,1.9c-0.3,0.5-0.6,0.7-1.5,0.7l-0.1,0l0,0c-0.5,0.1-0.9,0.4-1.1,0.9l-1.1,1.9c-0.2,0.4-0.6,1.2-2.1,1.4
				c-0.5,0.1-1,0.4-1.3,0.9l0,0c-0.1,0.2-0.4,0.6-1.3,2.3c-0.3,0.5-0.6,0.8-1.6,1.1l0.1,0c-0.3,0.1-2.5,0.7-23.9,7
				c-1.1,0.3-1.5,1.3-1.5,1.4c-0.5,1.4-1.2,2.2-4.7,3.3h0c-0.3,0.6-12.9,3.5-19.5,5.4C81.3,66,80.8,66.2,80.1,66.2z"/>
		</g>
		<g class="st14">
			<path d="M80.1,66.1c-0.9,0-1.7-0.3-2.4-0.9c0,0-4.5-4.3-4.6-4.4c0,0-0.4-0.4-0.8-0.4c-0.5,0-0.8,0.3-0.8,0.4
				c-0.1,0.1-4.6,4.3-4.6,4.3c-0.6,0.6-1.4,0.9-2.4,0.9c-0.7,0-1.2-0.3-1.2-0.3c-6.6-2-19.1-4.9-19.5-5.4h0c-3.5-1.1-4.2-2-4.7-3.4
				c0,0-0.4-1.1-1.5-1.4c-21.5-6.4-23.6-6.9-23.9-7l0.1,0c-1-0.3-1.3-0.5-1.5-1c-0.9-1.7-1.2-2.2-1.3-2.3l0,0
				c-0.4-0.7-1-0.9-1.2-0.9c-1.5-0.2-2-1-2.2-1.4l-1.1-1.9c-0.3-0.5-0.7-0.8-1.1-0.9l0,0l-0.1,0c-0.9-0.1-1.2-0.3-1.5-0.8
				c-0.7-1.2-1-1.6-1.1-1.8l0,0c-0.2-0.3-0.3-0.7-0.3-1c0-0.2,0.1-0.4,0.2-0.6l0-0.1l0,0c0.4-0.5,1-0.7,1.2-0.7h56.9
				c1.4,0,2.6,0.5,3.5,1.4c0.3,0.3,0.6,0.7,0.8,1.2c0.2,0.4,0.4,0.8,0.4,1.2c0,0.1,0.1,0.2,0.2,0.3l0.1,0.1l0.1,0
				c0.1,0,0.4,0.1,0.7,0.1h11.3c0.9,0,1.1-0.4,1.1-0.6c0.2-0.7,0.4-1.3,0.8-1.8c0.1-0.2,0.3-0.4,0.4-0.5c0.1-0.1,0.2-0.2,0.3-0.3
				c0.9-0.8,2-1.2,3.2-1.2h56.9c0.2,0,0.8,0.2,1.2,0.7l0,0.1l0,0.1c0.1,0.2,0.1,0.4,0.1,0.6c0,0.3-0.1,0.7-0.3,1l0,0
				c-0.1,0.1-0.3,0.5-1.1,1.9c-0.3,0.5-0.6,0.7-1.5,0.7l-0.1,0l0,0c-0.5,0.1-0.9,0.4-1.1,0.9l-1.1,1.9c-0.2,0.4-0.6,1.2-2.1,1.4
				c-0.5,0.1-1,0.4-1.3,0.9l0,0c-0.1,0.2-0.4,0.6-1.3,2.3c-0.3,0.5-0.6,0.8-1.6,1.1l0.1,0c-0.3,0.1-2.5,0.7-23.9,7
				c-1.1,0.3-1.5,1.3-1.5,1.4c-0.5,1.4-1.2,2.2-4.7,3.3h0c-0.3,0.6-12.9,3.5-19.5,5.4C81.3,65.9,80.8,66.1,80.1,66.1z"/>
		</g>
		<g class="st15">
			<path d="M80.1,66c-0.9,0-1.7-0.3-2.4-0.9c0,0-4.5-4.3-4.6-4.4c0,0-0.4-0.4-0.8-0.4c-0.5,0-0.8,0.3-0.8,0.4
				c-0.1,0.1-4.6,4.3-4.6,4.3c-0.6,0.6-1.4,0.9-2.4,0.9c-0.7,0-1.2-0.3-1.2-0.3c-6.6-2-19.1-4.9-19.5-5.4h0c-3.5-1.1-4.2-2-4.7-3.4
				c0,0-0.4-1.1-1.5-1.4c-21.5-6.4-23.6-6.9-23.9-7l0.1,0c-1-0.3-1.3-0.5-1.5-1c-0.9-1.7-1.2-2.2-1.3-2.3l0,0
				c-0.4-0.7-1-0.9-1.2-0.9c-1.5-0.2-2-1-2.2-1.4l-1.1-1.9c-0.3-0.5-0.7-0.8-1.1-0.9l0,0l-0.1,0c-0.9-0.1-1.2-0.3-1.5-0.8
				c-0.7-1.2-1-1.6-1.1-1.8l0,0c-0.2-0.3-0.3-0.7-0.3-1c0-0.2,0.1-0.4,0.2-0.6l0-0.1l0,0c0.4-0.5,1-0.7,1.2-0.7h56.9
				c1.4,0,2.6,0.5,3.5,1.4c0.3,0.3,0.6,0.7,0.8,1.2c0.2,0.4,0.4,0.8,0.4,1.2c0,0.1,0.1,0.2,0.2,0.3l0.1,0.1l0.1,0
				c0.1,0,0.4,0.1,0.7,0.1h11.3c0.9,0,1.1-0.4,1.1-0.6c0.2-0.7,0.4-1.3,0.8-1.8c0.1-0.2,0.3-0.4,0.4-0.5c0.1-0.1,0.2-0.2,0.3-0.3
				c0.9-0.8,2-1.2,3.2-1.2h56.9c0.2,0,0.8,0.2,1.2,0.7l0,0.1l0,0.1c0.1,0.2,0.1,0.4,0.1,0.6c0,0.3-0.1,0.7-0.3,1l0,0
				c-0.1,0.1-0.3,0.5-1.1,1.9c-0.3,0.5-0.6,0.7-1.5,0.7l-0.1,0l0,0c-0.5,0.1-0.9,0.4-1.1,0.9L137,43c-0.2,0.4-0.6,1.2-2.1,1.4
				c-0.5,0.1-1,0.4-1.3,0.9l0,0c-0.1,0.2-0.4,0.6-1.3,2.3c-0.3,0.5-0.6,0.8-1.6,1.1l0.1,0c-0.3,0.1-2.5,0.7-23.9,7
				c-1.1,0.3-1.5,1.3-1.5,1.4c-0.5,1.4-1.2,2.2-4.7,3.3h0c-0.3,0.6-12.9,3.5-19.5,5.4C81.3,65.8,80.8,66,80.1,66z"/>
		</g>
		<g class="st16">
			<path d="M80.1,65.9c-0.9,0-1.7-0.3-2.4-0.9c0,0-4.5-4.3-4.6-4.4c0,0-0.4-0.4-0.8-0.4c-0.5,0-0.8,0.3-0.8,0.4
				c-0.1,0.1-4.6,4.3-4.6,4.3c-0.6,0.6-1.4,0.9-2.4,0.9c-0.7,0-1.2-0.3-1.2-0.3c-6.6-2-19.1-4.9-19.5-5.4h0c-3.5-1.1-4.2-2-4.7-3.4
				c0,0-0.4-1.1-1.5-1.4c-21.5-6.4-23.6-6.9-23.9-7l0.1,0c-1-0.3-1.3-0.5-1.5-1c-0.9-1.7-1.2-2.2-1.3-2.3l0,0
				c-0.4-0.7-1-0.9-1.2-0.9c-1.5-0.2-2-1-2.2-1.4L6.5,41c-0.3-0.5-0.7-0.8-1.1-0.9l0,0l-0.1,0c-0.9-0.1-1.2-0.3-1.5-0.8
				c-0.7-1.2-1-1.6-1.1-1.8l0,0c-0.2-0.3-0.3-0.7-0.3-1c0-0.2,0.1-0.4,0.2-0.6l0-0.1l0,0c0.4-0.5,1-0.7,1.2-0.7h56.9
				c1.4,0,2.6,0.5,3.5,1.4c0.3,0.3,0.6,0.7,0.8,1.2c0.2,0.4,0.4,0.8,0.4,1.2c0,0.1,0.1,0.2,0.2,0.3l0.1,0.1l0.1,0
				c0.1,0,0.4,0.1,0.7,0.1h11.3c0.9,0,1.1-0.4,1.1-0.6c0.2-0.7,0.4-1.3,0.8-1.8c0.1-0.2,0.3-0.4,0.4-0.5c0.1-0.1,0.2-0.2,0.3-0.3
				c0.9-0.8,2-1.2,3.2-1.2h56.9c0.2,0,0.8,0.2,1.2,0.7l0,0.1l0,0.1c0.1,0.2,0.1,0.4,0.1,0.6c0,0.3-0.1,0.7-0.3,1l0,0
				c-0.1,0.1-0.3,0.5-1.1,1.9c-0.3,0.5-0.6,0.7-1.5,0.7l-0.1,0l0,0c-0.5,0.1-0.9,0.4-1.1,0.9l-1.1,1.9c-0.2,0.4-0.6,1.2-2.1,1.4
				c-0.5,0.1-1,0.4-1.3,0.9l0,0c-0.1,0.2-0.4,0.6-1.3,2.3c-0.3,0.5-0.6,0.8-1.6,1.1l0.1,0c-0.3,0.1-2.5,0.7-23.9,7
				c-1.1,0.3-1.5,1.3-1.5,1.4c-0.5,1.4-1.2,2.2-4.7,3.3h0c-0.3,0.6-12.9,3.5-19.5,5.4C81.3,65.7,80.8,65.9,80.1,65.9z"/>
		</g>
		<g class="st17">
			<path d="M80.1,65.8c-0.9,0-1.7-0.3-2.4-0.9c0,0-4.5-4.3-4.6-4.4c0,0-0.4-0.4-0.8-0.4c-0.5,0-0.8,0.3-0.8,0.4
				c-0.1,0.1-4.6,4.3-4.6,4.3c-0.6,0.6-1.4,0.9-2.4,0.9c-0.7,0-1.2-0.3-1.2-0.3c-6.6-2-19.1-4.9-19.5-5.4h0c-3.5-1.1-4.2-2-4.7-3.4
				c0,0-0.4-1.1-1.5-1.4c-21.5-6.4-23.6-6.9-23.9-7l0.1,0c-1-0.3-1.3-0.5-1.5-1c-0.9-1.7-1.2-2.2-1.3-2.3l0,0
				c-0.4-0.7-1-0.9-1.2-0.9c-1.5-0.2-2-1-2.2-1.4l-1.1-1.9c-0.3-0.5-0.7-0.8-1.1-0.9l0,0l-0.1,0c-0.9-0.1-1.2-0.3-1.5-0.8
				c-0.7-1.2-1-1.6-1.1-1.8l0,0c-0.2-0.3-0.3-0.7-0.3-1c0-0.2,0.1-0.4,0.2-0.6l0-0.1l0,0c0.4-0.5,1-0.7,1.2-0.7h56.9
				c1.4,0,2.6,0.5,3.5,1.4c0.3,0.3,0.6,0.7,0.8,1.2c0.2,0.4,0.4,0.8,0.4,1.2c0,0.1,0.1,0.2,0.2,0.3l0.1,0.1l0.1,0
				c0.1,0,0.4,0.1,0.7,0.1h11.3c0.9,0,1.1-0.4,1.1-0.6c0.2-0.7,0.4-1.3,0.8-1.8c0.1-0.2,0.3-0.4,0.4-0.5c0.1-0.1,0.2-0.2,0.3-0.3
				c0.9-0.8,2-1.2,3.2-1.2h56.9c0.2,0,0.8,0.2,1.2,0.7l0,0.1l0,0.1c0.1,0.2,0.1,0.4,0.1,0.6c0,0.3-0.1,0.7-0.3,1l0,0
				c-0.1,0.1-0.3,0.5-1.1,1.9c-0.3,0.5-0.6,0.7-1.5,0.7l-0.1,0l0,0c-0.5,0.1-0.9,0.4-1.1,0.9l-1.1,1.9c-0.2,0.4-0.6,1.2-2.1,1.4
				c-0.5,0.1-1,0.4-1.3,0.9l0,0c-0.1,0.2-0.4,0.6-1.3,2.3c-0.3,0.5-0.6,0.8-1.6,1.1l0.1,0c-0.3,0.1-2.5,0.7-23.9,7
				c-1.1,0.3-1.5,1.3-1.5,1.4c-0.5,1.4-1.2,2.2-4.7,3.3h0c-0.3,0.6-12.9,3.5-19.5,5.4C81.3,65.6,80.8,65.8,80.1,65.8z"/>
		</g>
		<g class="st18">
			<path d="M80.1,65.7c-0.9,0-1.7-0.3-2.4-0.9c0,0-4.5-4.3-4.6-4.4c0,0-0.4-0.4-0.8-0.4c-0.5,0-0.8,0.3-0.8,0.4
				c-0.1,0.1-4.6,4.3-4.6,4.3c-0.6,0.6-1.4,0.9-2.4,0.9c-0.7,0-1.2-0.3-1.2-0.3c-6.6-2-19.1-4.9-19.5-5.4h0c-3.5-1.1-4.2-2-4.7-3.4
				c0,0-0.4-1.1-1.5-1.4c-21.5-6.4-23.6-6.9-23.9-7l0.1,0c-1-0.3-1.3-0.5-1.5-1c-0.9-1.7-1.2-2.2-1.3-2.3l0,0
				c-0.4-0.7-1-0.9-1.2-0.9c-1.5-0.2-2-1-2.2-1.4l-1.1-1.9c-0.3-0.5-0.7-0.8-1.1-0.9l0,0l-0.1,0c-0.9-0.1-1.2-0.3-1.5-0.8
				c-0.7-1.2-1-1.6-1.1-1.8l0,0c-0.2-0.3-0.3-0.7-0.3-1c0-0.2,0.1-0.4,0.2-0.6l0-0.1l0,0c0.4-0.5,1-0.7,1.2-0.7h56.9
				c1.4,0,2.6,0.5,3.5,1.4c0.3,0.3,0.6,0.7,0.8,1.2c0.2,0.4,0.4,0.8,0.4,1.2c0,0.1,0.1,0.2,0.2,0.3l0.1,0.1l0.1,0
				c0.1,0,0.4,0.1,0.7,0.1h11.3c0.9,0,1.1-0.4,1.1-0.6c0.2-0.7,0.4-1.3,0.8-1.8c0.1-0.2,0.3-0.4,0.4-0.5c0.1-0.1,0.2-0.2,0.3-0.3
				c0.9-0.8,2-1.2,3.2-1.2h56.9c0.2,0,0.8,0.2,1.2,0.7l0,0.1l0,0.1c0.1,0.2,0.1,0.4,0.1,0.6c0,0.3-0.1,0.7-0.3,1l0,0
				c-0.1,0.1-0.3,0.5-1.1,1.9c-0.3,0.5-0.6,0.7-1.5,0.7l-0.1,0l0,0c-0.5,0.1-0.9,0.4-1.1,0.9l-1.1,1.9c-0.2,0.4-0.6,1.2-2.1,1.4
				c-0.5,0.1-1,0.4-1.3,0.9l0,0c-0.1,0.2-0.4,0.6-1.3,2.3c-0.3,0.5-0.6,0.8-1.6,1.1l0.1,0c-0.3,0.1-2.5,0.7-23.9,7
				c-1.1,0.3-1.5,1.3-1.5,1.4c-0.5,1.4-1.2,2.2-4.7,3.3h0c-0.3,0.6-12.9,3.5-19.5,5.4C81.3,65.5,80.8,65.7,80.1,65.7z"/>
		</g>
		<g class="st19">
			<path d="M80.1,65.6c-0.9,0-1.7-0.3-2.4-0.9c0,0-4.5-4.3-4.6-4.4c0,0-0.4-0.4-0.8-0.4c-0.5,0-0.8,0.3-0.8,0.4
				c-0.1,0.1-4.6,4.3-4.6,4.3c-0.6,0.6-1.4,0.9-2.4,0.9c-0.7,0-1.2-0.3-1.2-0.3c-6.6-2-19.1-4.9-19.5-5.4h0c-3.5-1.1-4.2-2-4.7-3.4
				c0,0-0.4-1.1-1.5-1.4c-21.5-6.4-23.6-6.9-23.9-7l0.1,0c-1-0.3-1.3-0.5-1.5-1c-0.9-1.7-1.2-2.2-1.3-2.3l0,0
				c-0.4-0.7-1-0.9-1.2-0.9c-1.5-0.2-2-1-2.2-1.4l-1.1-1.9c-0.3-0.5-0.7-0.8-1.1-0.9l0,0l-0.1,0c-0.9-0.1-1.2-0.3-1.5-0.8
				c-0.7-1.2-1-1.6-1.1-1.8l0,0c-0.2-0.3-0.3-0.7-0.3-1c0-0.2,0.1-0.4,0.2-0.6l0-0.1l0,0c0.4-0.5,1-0.7,1.2-0.7h56.9
				c1.4,0,2.6,0.5,3.5,1.4c0.3,0.3,0.6,0.7,0.8,1.2c0.2,0.4,0.4,0.8,0.4,1.2c0,0.1,0.1,0.2,0.2,0.3l0.1,0.1l0.1,0
				c0.1,0,0.4,0.1,0.7,0.1h11.3c0.9,0,1.1-0.4,1.1-0.6c0.2-0.7,0.4-1.3,0.8-1.8c0.1-0.2,0.3-0.4,0.4-0.5c0.1-0.1,0.2-0.2,0.3-0.3
				c0.9-0.8,2-1.2,3.2-1.2h56.9c0.2,0,0.8,0.2,1.2,0.7l0,0.1l0,0.1c0.1,0.2,0.1,0.4,0.1,0.6c0,0.3-0.1,0.7-0.3,1l0,0
				c-0.1,0.1-0.3,0.5-1.1,1.9c-0.3,0.5-0.6,0.7-1.5,0.7l-0.1,0l0,0c-0.5,0.1-0.9,0.4-1.1,0.9l-1.1,1.9c-0.2,0.4-0.6,1.2-2.1,1.4
				c-0.5,0.1-1,0.4-1.3,0.9l0,0c-0.1,0.2-0.4,0.6-1.3,2.3c-0.3,0.5-0.6,0.8-1.6,1.1l0.1,0c-0.3,0.1-2.5,0.7-23.9,7
				c-1.1,0.3-1.5,1.3-1.5,1.4c-0.5,1.4-1.2,2.2-4.7,3.3h0c-0.3,0.6-12.9,3.5-19.5,5.4C81.3,65.4,80.8,65.6,80.1,65.6z"/>
		</g>
		<g class="st20">
			<path d="M80.1,65.5c-0.9,0-1.7-0.3-2.4-0.9c0,0-4.5-4.3-4.6-4.4c0,0-0.4-0.4-0.8-0.4c-0.5,0-0.8,0.3-0.8,0.4
				c-0.1,0.1-4.6,4.3-4.6,4.3c-0.6,0.6-1.4,0.9-2.4,0.9c-0.7,0-1.2-0.3-1.2-0.3c-6.6-2-19.1-4.9-19.5-5.4h0c-3.5-1.1-4.2-2-4.7-3.4
				c0,0-0.4-1.1-1.5-1.4c-21.5-6.4-23.6-6.9-23.9-7l0.1,0c-1-0.3-1.3-0.5-1.5-1c-0.9-1.7-1.2-2.2-1.3-2.3l0,0
				c-0.4-0.7-1-0.9-1.2-0.9c-1.5-0.2-2-1-2.2-1.4l-1.1-1.9c-0.3-0.5-0.7-0.8-1.1-0.9l0,0l-0.1,0c-0.9-0.1-1.2-0.3-1.5-0.8
				c-0.7-1.2-1-1.6-1.1-1.8l0,0c-0.2-0.3-0.3-0.7-0.3-1c0-0.2,0.1-0.4,0.2-0.6l0-0.1l0,0c0.4-0.5,1-0.7,1.2-0.7h56.9
				c1.4,0,2.6,0.5,3.5,1.4c0.3,0.3,0.6,0.7,0.8,1.2c0.2,0.4,0.4,0.8,0.4,1.2c0,0.1,0.1,0.2,0.2,0.3l0.1,0.1l0.1,0
				c0.1,0,0.4,0.1,0.7,0.1h11.3c0.9,0,1.1-0.4,1.1-0.6c0.2-0.7,0.4-1.3,0.8-1.8c0.1-0.2,0.3-0.4,0.4-0.5c0.1-0.1,0.2-0.2,0.3-0.3
				c0.9-0.8,2-1.2,3.2-1.2h56.9c0.2,0,0.8,0.2,1.2,0.7l0,0.1l0,0.1c0.1,0.2,0.1,0.4,0.1,0.6c0,0.3-0.1,0.7-0.3,1l0,0
				c-0.1,0.1-0.3,0.5-1.1,1.9c-0.3,0.5-0.6,0.7-1.5,0.7l-0.1,0l0,0c-0.5,0.1-0.9,0.4-1.1,0.9l-1.1,1.9c-0.2,0.4-0.6,1.2-2.1,1.4
				c-0.5,0.1-1,0.4-1.3,0.9l0,0c-0.1,0.2-0.4,0.6-1.3,2.3c-0.3,0.5-0.6,0.8-1.6,1.1l0.1,0c-0.3,0.1-2.5,0.7-23.9,7
				c-1.1,0.3-1.5,1.3-1.5,1.4c-0.5,1.4-1.2,2.2-4.7,3.3h0c-0.3,0.6-12.9,3.5-19.5,5.4C81.3,65.3,80.8,65.5,80.1,65.5z"/>
		</g>
		<g class="st21">
			<path d="M80.1,65.4c-0.9,0-1.7-0.3-2.4-0.9c0,0-4.5-4.3-4.6-4.4c0,0-0.4-0.4-0.8-0.4c-0.5,0-0.8,0.3-0.8,0.4
				c-0.1,0.1-4.6,4.3-4.6,4.3c-0.6,0.6-1.4,0.9-2.4,0.9c-0.7,0-1.2-0.3-1.2-0.3c-6.6-2-19.1-4.9-19.5-5.4h0c-3.5-1.1-4.2-2-4.7-3.4
				c0,0-0.4-1.1-1.5-1.4C16.2,48.6,14,48,13.8,48l0.1,0c-1-0.3-1.3-0.5-1.5-1c-0.9-1.7-1.2-2.2-1.3-2.3l0,0c-0.4-0.7-1-0.9-1.2-0.9
				c-1.5-0.2-2-1-2.2-1.4l-1.1-1.9c-0.3-0.5-0.7-0.8-1.1-0.9l0,0l-0.1,0c-0.9-0.1-1.2-0.3-1.5-0.8c-0.7-1.2-1-1.6-1.1-1.8l0,0
				c-0.2-0.3-0.3-0.7-0.3-1c0-0.2,0.1-0.4,0.2-0.6l0-0.1l0,0c0.4-0.5,1-0.7,1.2-0.7h56.9c1.4,0,2.6,0.5,3.5,1.4
				c0.3,0.3,0.6,0.7,0.8,1.2c0.2,0.4,0.4,0.8,0.4,1.2c0,0.1,0.1,0.2,0.2,0.3l0.1,0.1l0.1,0c0.1,0,0.4,0.1,0.7,0.1h11.3
				c0.9,0,1.1-0.4,1.1-0.6c0.2-0.7,0.4-1.3,0.8-1.8c0.1-0.2,0.3-0.4,0.4-0.5c0.1-0.1,0.2-0.2,0.3-0.3c0.9-0.8,2-1.2,3.2-1.2h56.9
				c0.2,0,0.8,0.2,1.2,0.7l0,0.1l0,0.1c0.1,0.2,0.1,0.4,0.1,0.6c0,0.3-0.1,0.7-0.3,1l0,0c-0.1,0.1-0.3,0.5-1.1,1.9
				c-0.3,0.5-0.6,0.7-1.5,0.7l-0.1,0l0,0c-0.5,0.1-0.9,0.4-1.1,0.9l-1.1,1.9c-0.2,0.4-0.6,1.2-2.1,1.4c-0.5,0.1-1,0.4-1.3,0.9l0,0
				c-0.1,0.2-0.4,0.6-1.3,2.3c-0.3,0.5-0.6,0.8-1.6,1.1l0.1,0c-0.3,0.1-2.5,0.7-23.9,7c-1.1,0.3-1.5,1.3-1.5,1.4
				c-0.5,1.4-1.2,2.2-4.7,3.3h0c-0.3,0.6-12.9,3.5-19.5,5.4C81.3,65.2,80.8,65.4,80.1,65.4z"/>
		</g>
		<g class="st22">
			<path d="M80.1,65.4c-0.9,0-1.7-0.3-2.4-0.9c0,0-4.5-4.3-4.6-4.4c0,0-0.4-0.4-0.8-0.4c-0.5,0-0.8,0.3-0.8,0.4
				c-0.1,0.1-4.6,4.3-4.6,4.3c-0.6,0.6-1.4,0.9-2.4,0.9c-0.7,0-1.2-0.3-1.2-0.3c-6.6-2-19.1-4.9-19.5-5.4h0c-3.5-1.1-4.2-2-4.7-3.4
				c0,0-0.4-1.1-1.5-1.4c-21.5-6.4-23.6-6.9-23.9-7l0.1,0c-1-0.3-1.3-0.5-1.5-1c-0.9-1.7-1.2-2.2-1.3-2.3l0,0
				c-0.4-0.7-1-0.9-1.2-0.9c-1.5-0.2-2-1-2.2-1.4l-1.1-1.9c-0.3-0.5-0.7-0.8-1.1-0.9l0,0l-0.1,0c-0.9-0.1-1.2-0.3-1.5-0.8
				c-0.7-1.2-1-1.6-1.1-1.8l0,0c-0.2-0.3-0.3-0.7-0.3-1c0-0.2,0.1-0.4,0.2-0.6l0-0.1l0,0c0.4-0.5,1-0.7,1.2-0.7h56.9
				c1.4,0,2.6,0.5,3.5,1.4c0.3,0.3,0.6,0.7,0.8,1.2c0.2,0.4,0.4,0.8,0.4,1.2c0,0.1,0.1,0.2,0.2,0.3l0.1,0.1l0.1,0
				c0.1,0,0.4,0.1,0.7,0.1h11.3c0.9,0,1.1-0.4,1.1-0.6c0.2-0.7,0.4-1.3,0.8-1.8c0.1-0.2,0.3-0.4,0.4-0.5c0.1-0.1,0.2-0.2,0.3-0.3
				c0.9-0.8,2-1.2,3.2-1.2h56.9c0.2,0,0.8,0.2,1.2,0.7l0,0.1l0,0.1c0.1,0.2,0.1,0.4,0.1,0.6c0,0.3-0.1,0.7-0.3,1l0,0
				c-0.1,0.1-0.3,0.5-1.1,1.9c-0.3,0.5-0.6,0.7-1.5,0.7l-0.1,0l0,0c-0.5,0.1-0.9,0.4-1.1,0.9l-1.1,1.9c-0.2,0.4-0.6,1.2-2.1,1.4
				c-0.5,0.1-1,0.4-1.3,0.9l0,0c-0.1,0.2-0.4,0.6-1.3,2.3c-0.3,0.5-0.6,0.8-1.6,1.1l0.1,0c-0.3,0.1-2.5,0.7-23.9,7
				c-1.1,0.3-1.5,1.3-1.5,1.4c-0.5,1.4-1.2,2.2-4.7,3.3h0c-0.3,0.6-12.9,3.5-19.5,5.4C81.3,65.1,80.8,65.4,80.1,65.4z"/>
		</g>
		<g class="st23">
			<path d="M80.1,65.3c-0.9,0-1.7-0.3-2.4-0.9c0,0-4.5-4.3-4.6-4.4c0,0-0.4-0.4-0.8-0.4c-0.5,0-0.8,0.3-0.8,0.4
				c-0.1,0.1-4.6,4.3-4.6,4.3c-0.6,0.6-1.4,0.9-2.4,0.9c-0.7,0-1.2-0.3-1.2-0.3c-6.6-2-19.1-4.9-19.5-5.4h0c-3.5-1.1-4.2-2-4.7-3.4
				c0,0-0.4-1.1-1.5-1.4c-21.5-6.4-23.6-6.9-23.9-7l0.1,0c-1-0.3-1.3-0.5-1.5-1c-0.9-1.7-1.2-2.2-1.3-2.3l0,0
				c-0.4-0.7-1-0.9-1.2-0.9c-1.5-0.2-2-1-2.2-1.4l-1.1-1.9c-0.3-0.5-0.7-0.8-1.1-0.9l0,0l-0.1,0c-0.9-0.1-1.2-0.3-1.5-0.8
				c-0.7-1.2-1-1.6-1.1-1.8l0,0c-0.2-0.3-0.3-0.7-0.3-1c0-0.2,0.1-0.4,0.2-0.6l0-0.1l0,0c0.4-0.5,1-0.7,1.2-0.7h56.9
				c1.4,0,2.6,0.5,3.5,1.4c0.3,0.3,0.6,0.7,0.8,1.2c0.2,0.4,0.4,0.8,0.4,1.2c0,0.1,0.1,0.2,0.2,0.3l0.1,0.1l0.1,0
				c0.1,0,0.4,0.1,0.7,0.1h11.3c0.9,0,1.1-0.4,1.1-0.6c0.2-0.7,0.4-1.3,0.8-1.8c0.1-0.2,0.3-0.4,0.4-0.5c0.1-0.1,0.2-0.2,0.3-0.3
				c0.9-0.8,2-1.2,3.2-1.2h56.9c0.2,0,0.8,0.2,1.2,0.7l0,0.1l0,0.1c0.1,0.2,0.1,0.4,0.1,0.6c0,0.3-0.1,0.7-0.3,1l0,0
				c-0.1,0.1-0.3,0.5-1.1,1.9c-0.3,0.5-0.6,0.7-1.5,0.7l-0.1,0l0,0c-0.5,0.1-0.9,0.4-1.1,0.9l-1.1,1.9c-0.2,0.4-0.6,1.2-2.1,1.4
				c-0.5,0.1-1,0.4-1.3,0.9l0,0c-0.1,0.2-0.4,0.6-1.3,2.3c-0.3,0.5-0.6,0.8-1.6,1.1l0.1,0c-0.3,0.1-2.5,0.7-23.9,7
				c-1.1,0.3-1.5,1.3-1.5,1.4c-0.5,1.4-1.2,2.2-4.7,3.3h0c-0.3,0.6-12.9,3.5-19.5,5.4C81.3,65,80.8,65.3,80.1,65.3z"/>
		</g>
		<g class="st24">
			<path d="M80.1,65.2c-0.9,0-1.7-0.3-2.4-0.9c0,0-4.5-4.3-4.6-4.4c0,0-0.4-0.4-0.8-0.4c-0.5,0-0.8,0.3-0.8,0.4
				c-0.1,0.1-4.6,4.3-4.6,4.3c-0.6,0.6-1.4,0.9-2.4,0.9c-0.7,0-1.2-0.3-1.2-0.3c-6.6-2-19.1-4.9-19.5-5.4h0c-3.5-1.1-4.2-2-4.7-3.4
				c0,0-0.4-1.1-1.5-1.4c-21.5-6.4-23.6-6.9-23.9-7l0.1,0c-1-0.3-1.3-0.5-1.5-1c-0.9-1.7-1.2-2.2-1.3-2.3l0,0
				c-0.4-0.7-1-0.9-1.2-0.9c-1.5-0.2-2-1-2.2-1.4l-1.1-1.9c-0.3-0.5-0.7-0.8-1.1-0.9l0,0l-0.1,0c-0.9-0.1-1.2-0.3-1.5-0.8
				c-0.7-1.2-1-1.6-1.1-1.8l0,0c-0.2-0.3-0.3-0.7-0.3-1c0-0.2,0.1-0.4,0.2-0.6l0-0.1l0,0c0.4-0.5,1-0.7,1.2-0.7h56.9
				c1.4,0,2.6,0.5,3.5,1.4c0.3,0.3,0.6,0.7,0.8,1.2c0.2,0.4,0.4,0.8,0.4,1.2c0,0.1,0.1,0.2,0.2,0.3l0.1,0.1l0.1,0
				c0.1,0,0.4,0.1,0.7,0.1h11.3c0.9,0,1.1-0.4,1.1-0.6c0.2-0.7,0.4-1.3,0.8-1.8c0.1-0.2,0.3-0.4,0.4-0.5c0.1-0.1,0.2-0.2,0.3-0.3
				c0.9-0.8,2-1.2,3.2-1.2h56.9c0.2,0,0.8,0.2,1.2,0.7l0,0.1l0,0.1c0.1,0.2,0.1,0.4,0.1,0.6c0,0.3-0.1,0.7-0.3,1l0,0
				c-0.1,0.1-0.3,0.5-1.1,1.9c-0.3,0.5-0.6,0.7-1.5,0.7l-0.1,0l0,0c-0.5,0.1-0.9,0.4-1.1,0.9l-1.1,1.9c-0.2,0.4-0.6,1.2-2.1,1.4
				c-0.5,0.1-1,0.4-1.3,0.9l0,0c-0.1,0.2-0.4,0.6-1.3,2.3c-0.3,0.5-0.6,0.8-1.6,1.1l0.1,0c-0.3,0.1-2.5,0.7-23.9,7
				c-1.1,0.3-1.5,1.3-1.5,1.4c-0.5,1.4-1.2,2.2-4.7,3.3h0c-0.3,0.6-12.9,3.5-19.5,5.4C81.3,64.9,80.8,65.2,80.1,65.2z"/>
		</g>
		<g class="st25">
			<path d="M80.1,65.1c-0.9,0-1.7-0.3-2.4-0.9c0,0-4.5-4.3-4.6-4.4c0,0-0.4-0.4-0.8-0.4c-0.5,0-0.8,0.3-0.8,0.4
				c-0.1,0.1-4.6,4.3-4.6,4.3c-0.6,0.6-1.4,0.9-2.4,0.9c-0.7,0-1.2-0.3-1.2-0.3c-6.6-2-19.1-4.9-19.5-5.4h0c-3.5-1.1-4.2-2-4.7-3.4
				c0,0-0.4-1.1-1.5-1.4c-21.5-6.4-23.6-6.9-23.9-7l0.1,0c-1-0.3-1.3-0.5-1.5-1c-0.9-1.7-1.2-2.2-1.3-2.3l0,0
				c-0.4-0.7-1-0.9-1.2-0.9c-1.5-0.2-2-1-2.2-1.4l-1.1-1.9c-0.3-0.5-0.7-0.8-1.1-0.9l0,0l-0.1,0c-0.9-0.1-1.2-0.3-1.5-0.8
				c-0.7-1.2-1-1.6-1.1-1.8l0,0c-0.2-0.3-0.3-0.7-0.3-1c0-0.2,0.1-0.4,0.2-0.6l0-0.1l0,0c0.4-0.5,1-0.7,1.2-0.7h56.9
				c1.4,0,2.6,0.5,3.5,1.4c0.3,0.3,0.6,0.7,0.8,1.2c0.2,0.4,0.4,0.8,0.4,1.2c0,0.1,0.1,0.2,0.2,0.3l0.1,0.1l0.1,0
				c0.1,0,0.4,0.1,0.7,0.1h11.3c0.9,0,1.1-0.4,1.1-0.6c0.2-0.7,0.4-1.3,0.8-1.8c0.1-0.2,0.3-0.4,0.4-0.5c0.1-0.1,0.2-0.2,0.3-0.3
				c0.9-0.8,2-1.2,3.2-1.2h56.9c0.2,0,0.8,0.2,1.2,0.7l0,0.1l0,0.1c0.1,0.2,0.1,0.4,0.1,0.6c0,0.3-0.1,0.7-0.3,1l0,0
				c-0.1,0.1-0.3,0.5-1.1,1.9c-0.3,0.5-0.6,0.7-1.5,0.7l-0.1,0l0,0c-0.5,0.1-0.9,0.4-1.1,0.9L137,42c-0.2,0.4-0.6,1.2-2.1,1.4
				c-0.5,0.1-1,0.4-1.3,0.9l0,0c-0.1,0.2-0.4,0.6-1.3,2.3c-0.3,0.5-0.6,0.8-1.6,1.1l0.1,0c-0.3,0.1-2.5,0.7-23.9,7
				c-1.1,0.3-1.5,1.3-1.5,1.4c-0.5,1.4-1.2,2.2-4.7,3.3h0c-0.3,0.6-12.9,3.5-19.5,5.4C81.3,64.8,80.8,65.1,80.1,65.1z"/>
		</g>
		<g class="st26">
			<path d="M80.1,65c-0.9,0-1.7-0.3-2.4-0.9c0,0-4.5-4.3-4.6-4.4c0,0-0.4-0.4-0.8-0.4c-0.5,0-0.8,0.3-0.8,0.4
				c-0.1,0.1-4.6,4.3-4.6,4.3c-0.6,0.6-1.4,0.9-2.4,0.9c-0.7,0-1.2-0.3-1.2-0.3c-6.6-2-19.1-4.9-19.5-5.4h0c-3.5-1.1-4.2-2-4.7-3.4
				c0,0-0.4-1.1-1.5-1.4c-21.5-6.4-23.6-6.9-23.9-7l0.1,0c-1-0.3-1.3-0.5-1.5-1c-0.9-1.7-1.2-2.2-1.3-2.3l0,0
				c-0.4-0.7-1-0.9-1.2-0.9c-1.5-0.2-2-1-2.2-1.4L6.5,40c-0.3-0.5-0.7-0.8-1.1-0.9l0,0l-0.1,0c-0.9-0.1-1.2-0.3-1.5-0.8
				c-0.7-1.2-1-1.6-1.1-1.8l0,0c-0.2-0.3-0.3-0.7-0.3-1c0-0.2,0.1-0.4,0.2-0.6l0-0.1l0,0c0.4-0.5,1-0.7,1.2-0.7h56.9
				c1.4,0,2.6,0.5,3.5,1.4c0.3,0.3,0.6,0.7,0.8,1.2c0.2,0.4,0.4,0.8,0.4,1.2c0,0.1,0.1,0.2,0.2,0.3l0.1,0.1l0.1,0
				c0.1,0,0.4,0.1,0.7,0.1h11.3c0.9,0,1.1-0.4,1.1-0.6c0.2-0.7,0.4-1.3,0.8-1.8c0.1-0.2,0.3-0.4,0.4-0.5c0.1-0.1,0.2-0.2,0.3-0.3
				c0.9-0.8,2-1.2,3.2-1.2h56.9c0.2,0,0.8,0.2,1.2,0.7l0,0.1l0,0.1c0.1,0.2,0.1,0.4,0.1,0.6c0,0.3-0.1,0.7-0.3,1l0,0
				c-0.1,0.1-0.3,0.5-1.1,1.9c-0.3,0.5-0.6,0.7-1.5,0.7l-0.1,0l0,0c-0.5,0.1-0.9,0.4-1.1,0.9l-1.1,1.9c-0.2,0.4-0.6,1.2-2.1,1.4
				c-0.5,0.1-1,0.4-1.3,0.9l0,0c-0.1,0.2-0.4,0.6-1.3,2.3c-0.3,0.5-0.6,0.8-1.6,1.1l0.1,0c-0.3,0.1-2.5,0.7-23.9,7
				c-1.1,0.3-1.5,1.3-1.5,1.4c-0.5,1.4-1.2,2.2-4.7,3.3h0c-0.3,0.6-12.9,3.5-19.5,5.4C81.3,64.7,80.8,65,80.1,65z"/>
		</g>
		<g class="st27">
			<path d="M80.1,64.9c-0.9,0-1.7-0.3-2.4-0.9c0,0-4.5-4.3-4.6-4.4c0,0-0.4-0.4-0.8-0.4c-0.5,0-0.8,0.3-0.8,0.4
				c-0.1,0.1-4.6,4.3-4.6,4.3c-0.6,0.6-1.4,0.9-2.4,0.9c-0.7,0-1.2-0.3-1.2-0.3c-6.6-2-19.1-4.9-19.5-5.4h0c-3.5-1.1-4.2-2-4.7-3.4
				c0,0-0.4-1.1-1.5-1.4c-21.5-6.4-23.6-6.9-23.9-7l0.1,0c-1-0.3-1.3-0.5-1.5-1c-0.9-1.7-1.2-2.2-1.3-2.3l0,0
				c-0.4-0.7-1-0.9-1.2-0.9c-1.5-0.2-2-1-2.2-1.4l-1.1-1.9c-0.3-0.5-0.7-0.8-1.1-0.9l0,0l-0.1,0c-0.9-0.1-1.2-0.3-1.5-0.8
				c-0.7-1.2-1-1.6-1.1-1.8l0,0c-0.2-0.3-0.3-0.7-0.3-1c0-0.2,0.1-0.4,0.2-0.6l0-0.1l0,0c0.4-0.5,1-0.7,1.2-0.7h56.9
				c1.4,0,2.6,0.5,3.5,1.4c0.3,0.3,0.6,0.7,0.8,1.2c0.2,0.4,0.4,0.8,0.4,1.2c0,0.1,0.1,0.2,0.2,0.3l0.1,0.1l0.1,0
				c0.1,0,0.4,0.1,0.7,0.1h11.3c0.9,0,1.1-0.4,1.1-0.6c0.2-0.7,0.4-1.3,0.8-1.8c0.1-0.2,0.3-0.4,0.4-0.5c0.1-0.1,0.2-0.2,0.3-0.3
				c0.9-0.8,2-1.2,3.2-1.2h56.9c0.2,0,0.8,0.2,1.2,0.7l0,0.1l0,0.1c0.1,0.2,0.1,0.4,0.1,0.6c0,0.3-0.1,0.7-0.3,1l0,0
				c-0.1,0.1-0.3,0.5-1.1,1.9c-0.3,0.5-0.6,0.7-1.5,0.7l-0.1,0l0,0c-0.5,0.1-0.9,0.4-1.1,0.9l-1.1,1.9c-0.2,0.4-0.6,1.2-2.1,1.4
				c-0.5,0.1-1,0.4-1.3,0.9l0,0c-0.1,0.2-0.4,0.6-1.3,2.3c-0.3,0.5-0.6,0.8-1.6,1.1l0.1,0c-0.3,0.1-2.5,0.7-23.9,7
				c-1.1,0.3-1.5,1.3-1.5,1.4c-0.5,1.4-1.2,2.2-4.7,3.3h0c-0.3,0.6-12.9,3.5-19.5,5.4C81.3,64.6,80.8,64.9,80.1,64.9z"/>
		</g>
		<g class="st28">
			<path d="M80.1,64.8c-0.9,0-1.7-0.3-2.4-0.9c0,0-4.5-4.3-4.6-4.4c0,0-0.4-0.4-0.8-0.4c-0.5,0-0.8,0.3-0.8,0.4
				c-0.1,0.1-4.6,4.3-4.6,4.3c-0.6,0.6-1.4,0.9-2.4,0.9c-0.7,0-1.2-0.3-1.2-0.3c-6.6-2-19.1-4.9-19.5-5.4h0c-3.5-1.1-4.2-2-4.7-3.4
				c0,0-0.4-1.1-1.5-1.4c-21.5-6.4-23.6-6.9-23.9-7l0.1,0c-1-0.3-1.3-0.5-1.5-1c-0.9-1.7-1.2-2.2-1.3-2.3l0,0
				c-0.4-0.7-1-0.9-1.2-0.9c-1.5-0.2-2-1-2.2-1.4l-1.1-1.9c-0.3-0.5-0.7-0.8-1.1-0.9l0,0l-0.1,0c-0.9-0.1-1.2-0.3-1.5-0.8
				c-0.7-1.2-1-1.6-1.1-1.8l0,0c-0.2-0.3-0.3-0.7-0.3-1c0-0.2,0.1-0.4,0.2-0.6l0-0.1l0,0c0.4-0.5,1-0.7,1.2-0.7h56.9
				c1.4,0,2.6,0.5,3.5,1.4c0.3,0.3,0.6,0.7,0.8,1.2c0.2,0.4,0.4,0.8,0.4,1.2c0,0.1,0.1,0.2,0.2,0.3l0.1,0.1l0.1,0
				c0.1,0,0.4,0.1,0.7,0.1h11.3c0.9,0,1.1-0.4,1.1-0.6c0.2-0.7,0.4-1.3,0.8-1.8c0.1-0.2,0.3-0.4,0.4-0.5c0.1-0.1,0.2-0.2,0.3-0.3
				c0.9-0.8,2-1.2,3.2-1.2h56.9c0.2,0,0.8,0.2,1.2,0.7l0,0.1l0,0.1c0.1,0.2,0.1,0.4,0.1,0.6c0,0.3-0.1,0.7-0.3,1l0,0
				c-0.1,0.1-0.3,0.5-1.1,1.9c-0.3,0.5-0.6,0.7-1.5,0.7l-0.1,0l0,0c-0.5,0.1-0.9,0.4-1.1,0.9l-1.1,1.9c-0.2,0.4-0.6,1.2-2.1,1.4
				c-0.5,0.1-1,0.4-1.3,0.9l0,0c-0.1,0.2-0.4,0.6-1.3,2.3c-0.3,0.5-0.6,0.8-1.6,1.1l0.1,0c-0.3,0.1-2.5,0.7-23.9,7
				c-1.1,0.3-1.5,1.3-1.5,1.4c-0.5,1.4-1.2,2.2-4.7,3.3h0c-0.3,0.6-12.9,3.5-19.5,5.4C81.3,64.5,80.8,64.8,80.1,64.8z"/>
		</g>
		<g class="st29">
			<path d="M80.1,64.7c-0.9,0-1.7-0.3-2.4-0.9c0,0-4.5-4.3-4.6-4.4c0,0-0.4-0.4-0.8-0.4c-0.5,0-0.8,0.3-0.8,0.4
				c-0.1,0.1-4.6,4.3-4.6,4.3c-0.6,0.6-1.4,0.9-2.4,0.9c-0.7,0-1.2-0.3-1.2-0.3c-6.6-2-19.1-4.9-19.5-5.4h0c-3.5-1.1-4.2-2-4.7-3.4
				c0,0-0.4-1.1-1.5-1.4c-21.5-6.4-23.6-6.9-23.9-7l0.1,0c-1-0.3-1.3-0.5-1.5-1c-0.9-1.7-1.2-2.2-1.3-2.3l0,0
				c-0.4-0.7-1-0.9-1.2-0.9c-1.5-0.2-2-1-2.2-1.4l-1.1-1.9c-0.3-0.5-0.7-0.8-1.1-0.9l0,0l-0.1,0c-0.9-0.1-1.2-0.3-1.5-0.8
				c-0.7-1.2-1-1.6-1.1-1.8l0,0c-0.2-0.3-0.3-0.7-0.3-1c0-0.2,0.1-0.4,0.2-0.6l0-0.1l0,0c0.4-0.5,1-0.7,1.2-0.7h56.9
				c1.4,0,2.6,0.5,3.5,1.4c0.3,0.3,0.6,0.7,0.8,1.2c0.2,0.4,0.4,0.8,0.4,1.2c0,0.1,0.1,0.2,0.2,0.3l0.1,0.1l0.1,0
				c0.1,0,0.4,0.1,0.7,0.1h11.3c0.9,0,1.1-0.4,1.1-0.6c0.2-0.7,0.4-1.3,0.8-1.8c0.1-0.2,0.3-0.4,0.4-0.5c0.1-0.1,0.2-0.2,0.3-0.3
				c0.9-0.8,2-1.2,3.2-1.2h56.9c0.2,0,0.8,0.2,1.2,0.7l0,0.1l0,0.1c0.1,0.2,0.1,0.4,0.1,0.6c0,0.3-0.1,0.7-0.3,1l0,0
				c-0.1,0.1-0.3,0.5-1.1,1.9c-0.3,0.5-0.6,0.7-1.5,0.7l-0.1,0l0,0c-0.5,0.1-0.9,0.4-1.1,0.9l-1.1,1.9c-0.2,0.4-0.6,1.2-2.1,1.4
				c-0.5,0.1-1,0.4-1.3,0.9l0,0c-0.1,0.2-0.4,0.6-1.3,2.3c-0.3,0.5-0.6,0.8-1.6,1.1l0.1,0c-0.3,0.1-2.5,0.7-23.9,7
				c-1.1,0.3-1.5,1.3-1.5,1.4c-0.5,1.4-1.2,2.2-4.7,3.3h0c-0.3,0.6-12.9,3.5-19.5,5.4C81.3,64.4,80.8,64.7,80.1,64.7z"/>
		</g>
		<g class="st30">
			<path d="M80.1,64.6c-0.9,0-1.7-0.3-2.4-0.9c0,0-4.5-4.3-4.6-4.4c0,0-0.4-0.4-0.8-0.4c-0.5,0-0.8,0.3-0.8,0.4
				c-0.1,0.1-4.6,4.3-4.6,4.3c-0.6,0.6-1.4,0.9-2.4,0.9c-0.7,0-1.2-0.3-1.2-0.3c-6.6-2-19.1-4.9-19.5-5.4h0c-3.5-1.1-4.2-2-4.7-3.4
				c0,0-0.4-1.1-1.5-1.4c-21.5-6.4-23.6-6.9-23.9-7l0.1,0c-1-0.3-1.3-0.5-1.5-1c-0.9-1.7-1.2-2.2-1.3-2.3l0,0
				c-0.4-0.7-1-0.9-1.2-0.9c-1.5-0.2-2-1-2.2-1.4l-1.1-1.9c-0.3-0.5-0.7-0.8-1.1-0.9l0,0l-0.1,0c-0.9-0.1-1.2-0.3-1.5-0.8
				c-0.7-1.2-1-1.6-1.1-1.8l0,0c-0.2-0.3-0.3-0.7-0.3-1c0-0.2,0.1-0.4,0.2-0.6l0-0.1l0,0c0.4-0.5,1-0.7,1.2-0.7h56.9
				c1.4,0,2.6,0.5,3.5,1.4c0.3,0.3,0.6,0.7,0.8,1.2c0.2,0.4,0.4,0.8,0.4,1.2c0,0.1,0.1,0.2,0.2,0.3l0.1,0.1l0.1,0
				c0.1,0,0.4,0.1,0.7,0.1h11.3c0.9,0,1.1-0.4,1.1-0.6c0.2-0.7,0.4-1.3,0.8-1.8c0.1-0.2,0.3-0.4,0.4-0.5c0.1-0.1,0.2-0.2,0.3-0.3
				c0.9-0.8,2-1.2,3.2-1.2h56.9c0.2,0,0.8,0.2,1.2,0.7l0,0.1l0,0.1c0.1,0.2,0.1,0.4,0.1,0.6c0,0.3-0.1,0.7-0.3,1l0,0
				c-0.1,0.1-0.3,0.5-1.1,1.9c-0.3,0.5-0.6,0.7-1.5,0.7l-0.1,0l0,0c-0.5,0.1-0.9,0.4-1.1,0.9l-1.1,1.9c-0.2,0.4-0.6,1.2-2.1,1.4
				c-0.5,0.1-1,0.4-1.3,0.9l0,0c-0.1,0.2-0.4,0.6-1.3,2.3c-0.3,0.5-0.6,0.8-1.6,1.1l0.1,0c-0.3,0.1-2.5,0.7-23.9,7
				c-1.1,0.3-1.5,1.3-1.5,1.4c-0.5,1.4-1.2,2.2-4.7,3.3h0c-0.3,0.6-12.9,3.5-19.5,5.4C81.3,64.3,80.8,64.6,80.1,64.6z"/>
		</g>
		<g class="st31">
			<path d="M80.1,64.5c-0.9,0-1.7-0.3-2.4-0.9c0,0-4.5-4.3-4.6-4.4c0,0-0.4-0.4-0.8-0.4c-0.5,0-0.8,0.3-0.8,0.4
				c-0.1,0.1-4.6,4.3-4.6,4.3c-0.6,0.6-1.4,0.9-2.4,0.9c-0.7,0-1.2-0.3-1.2-0.3c-6.6-2-19.1-4.9-19.5-5.4h0c-3.5-1.1-4.2-2-4.7-3.4
				c0,0-0.4-1.1-1.5-1.4C16.2,47.6,14,47,13.8,47l0.1,0c-1-0.3-1.3-0.5-1.5-1c-0.9-1.7-1.2-2.2-1.3-2.3l0,0c-0.4-0.7-1-0.9-1.2-0.9
				c-1.5-0.2-2-1-2.2-1.4l-1.1-1.9c-0.3-0.5-0.7-0.8-1.1-0.9l0,0l-0.1,0c-0.9-0.1-1.2-0.3-1.5-0.8c-0.7-1.2-1-1.6-1.1-1.8l0,0
				c-0.2-0.3-0.3-0.7-0.3-1c0-0.2,0.1-0.4,0.2-0.6l0-0.1l0,0c0.4-0.5,1-0.7,1.2-0.7h56.9c1.4,0,2.6,0.5,3.5,1.4
				c0.3,0.3,0.6,0.7,0.8,1.2c0.2,0.4,0.4,0.8,0.4,1.2c0,0.1,0.1,0.2,0.2,0.3l0.1,0.1l0.1,0c0.1,0,0.4,0.1,0.7,0.1h11.3
				c0.9,0,1.1-0.4,1.1-0.6c0.2-0.7,0.4-1.3,0.8-1.8c0.1-0.2,0.3-0.4,0.4-0.5c0.1-0.1,0.2-0.2,0.3-0.3c0.9-0.8,2-1.2,3.2-1.2h56.9
				c0.2,0,0.8,0.2,1.2,0.7l0,0.1l0,0.1c0.1,0.2,0.1,0.4,0.1,0.6c0,0.3-0.1,0.7-0.3,1l0,0c-0.1,0.1-0.3,0.5-1.1,1.9
				c-0.3,0.5-0.6,0.7-1.5,0.7l-0.1,0l0,0c-0.5,0.1-0.9,0.4-1.1,0.9l-1.1,1.9c-0.2,0.4-0.6,1.2-2.1,1.4c-0.5,0.1-1,0.4-1.3,0.9l0,0
				c-0.1,0.2-0.4,0.6-1.3,2.3c-0.3,0.5-0.6,0.8-1.6,1.1l0.1,0c-0.3,0.1-2.5,0.7-23.9,7c-1.1,0.3-1.5,1.3-1.5,1.4
				c-0.5,1.4-1.2,2.2-4.7,3.3h0c-0.3,0.6-12.9,3.5-19.5,5.4C81.3,64.2,80.8,64.5,80.1,64.5z"/>
		</g>
		<g class="st32">
			<path d="M80.1,64.4c-0.9,0-1.7-0.3-2.4-0.9c0,0-4.5-4.3-4.6-4.4c0,0-0.4-0.4-0.8-0.4c-0.5,0-0.8,0.3-0.8,0.4
				c-0.1,0.1-4.6,4.3-4.6,4.3c-0.6,0.6-1.4,0.9-2.4,0.9c-0.7,0-1.2-0.3-1.2-0.3c-6.6-2-19.1-4.9-19.5-5.4h0c-3.5-1.1-4.2-2-4.7-3.4
				c0,0-0.4-1.1-1.5-1.4c-21.5-6.4-23.6-6.9-23.9-7l0.1,0c-1-0.3-1.3-0.5-1.5-1c-0.9-1.7-1.2-2.2-1.3-2.3l0,0
				c-0.4-0.7-1-0.9-1.2-0.9c-1.5-0.2-2-1-2.2-1.4l-1.1-1.9c-0.3-0.5-0.7-0.8-1.1-0.9l0,0l-0.1,0c-0.9-0.1-1.2-0.3-1.5-0.8
				c-0.7-1.2-1-1.6-1.1-1.8l0,0c-0.2-0.3-0.3-0.7-0.3-1c0-0.2,0.1-0.4,0.2-0.6l0-0.1l0,0c0.4-0.5,1-0.7,1.2-0.7h56.9
				c1.4,0,2.6,0.5,3.5,1.4c0.3,0.3,0.6,0.7,0.8,1.2c0.2,0.4,0.4,0.8,0.4,1.2c0,0.1,0.1,0.2,0.2,0.3l0.1,0.1l0.1,0
				c0.1,0,0.4,0.1,0.7,0.1h11.3c0.9,0,1.1-0.4,1.1-0.6c0.2-0.7,0.4-1.3,0.8-1.8c0.1-0.2,0.3-0.4,0.4-0.5c0.1-0.1,0.2-0.2,0.3-0.3
				c0.9-0.8,2-1.2,3.2-1.2h56.9c0.2,0,0.8,0.2,1.2,0.7l0,0.1l0,0.1c0.1,0.2,0.1,0.4,0.1,0.6c0,0.3-0.1,0.7-0.3,1l0,0
				c-0.1,0.1-0.3,0.5-1.1,1.9c-0.3,0.5-0.6,0.7-1.5,0.7l-0.1,0l0,0c-0.5,0.1-0.9,0.4-1.1,0.9l-1.1,1.9c-0.2,0.4-0.6,1.2-2.1,1.4
				c-0.5,0.1-1,0.4-1.3,0.9l0,0c-0.1,0.2-0.4,0.6-1.3,2.3c-0.3,0.5-0.6,0.8-1.6,1.1l0.1,0c-0.3,0.1-2.5,0.7-23.9,7
				c-1.1,0.3-1.5,1.3-1.5,1.4c-0.5,1.4-1.2,2.2-4.7,3.3h0c-0.3,0.6-12.9,3.5-19.5,5.4C81.3,64.1,80.8,64.4,80.1,64.4z"/>
		</g>
		<g class="st33">
			<path d="M80.1,64.3c-0.9,0-1.7-0.3-2.4-0.9c0,0-4.5-4.3-4.6-4.4c0,0-0.4-0.4-0.8-0.4c-0.5,0-0.8,0.3-0.8,0.4
				c-0.1,0.1-4.6,4.3-4.6,4.3c-0.6,0.6-1.4,0.9-2.4,0.9c-0.7,0-1.2-0.3-1.2-0.3c-6.6-2-19.1-4.9-19.5-5.4h0c-3.5-1.1-4.2-2-4.7-3.4
				c0,0-0.4-1.1-1.5-1.4c-21.5-6.4-23.6-6.9-23.9-7l0.1,0c-1-0.3-1.3-0.5-1.5-1c-0.9-1.7-1.2-2.2-1.3-2.3l0,0
				c-0.4-0.7-1-0.9-1.2-0.9c-1.5-0.2-2-1-2.2-1.4l-1.1-1.9c-0.3-0.5-0.7-0.8-1.1-0.9l0,0l-0.1,0c-0.9-0.1-1.2-0.3-1.5-0.8
				c-0.7-1.2-1-1.6-1.1-1.8l0,0c-0.2-0.3-0.3-0.7-0.3-1c0-0.2,0.1-0.4,0.2-0.6l0-0.1l0,0c0.4-0.5,1-0.7,1.2-0.7h56.9
				c1.4,0,2.6,0.5,3.5,1.4c0.3,0.3,0.6,0.7,0.8,1.2c0.2,0.4,0.4,0.8,0.4,1.2c0,0.1,0.1,0.2,0.2,0.3l0.1,0.1l0.1,0
				c0.1,0,0.4,0.1,0.7,0.1h11.3c0.9,0,1.1-0.4,1.1-0.6c0.2-0.7,0.4-1.3,0.8-1.8c0.1-0.2,0.3-0.4,0.4-0.5c0.1-0.1,0.2-0.2,0.3-0.3
				c0.9-0.8,2-1.2,3.2-1.2h56.9c0.2,0,0.8,0.2,1.2,0.7l0,0.1l0,0.1c0.1,0.2,0.1,0.4,0.1,0.6c0,0.3-0.1,0.7-0.3,1l0,0
				c-0.1,0.1-0.3,0.5-1.1,1.9c-0.3,0.5-0.6,0.7-1.5,0.7l-0.1,0l0,0c-0.5,0.1-0.9,0.4-1.1,0.9l-1.1,1.9c-0.2,0.4-0.6,1.2-2.1,1.4
				c-0.5,0.1-1,0.4-1.3,0.9l0,0c-0.1,0.2-0.4,0.6-1.3,2.3c-0.3,0.5-0.6,0.8-1.6,1.1l0.1,0c-0.3,0.1-2.5,0.7-23.9,7
				c-1.1,0.3-1.5,1.3-1.5,1.4c-0.5,1.4-1.2,2.2-4.7,3.3h0c-0.3,0.6-12.9,3.5-19.5,5.4C81.3,64,80.8,64.3,80.1,64.3z"/>
		</g>
		<g class="st34">
			<path d="M80.1,64.2c-0.9,0-1.7-0.3-2.4-0.9c0,0-4.5-4.3-4.6-4.4c0,0-0.4-0.4-0.8-0.4c-0.5,0-0.8,0.3-0.8,0.4
				c-0.1,0.1-4.6,4.3-4.6,4.3c-0.6,0.6-1.4,0.9-2.4,0.9c-0.7,0-1.2-0.3-1.2-0.3c-6.6-2-19.1-4.9-19.5-5.4h0c-3.5-1.1-4.2-2-4.7-3.4
				c0,0-0.4-1.1-1.5-1.4c-21.5-6.4-23.6-6.9-23.9-7l0.1,0c-1-0.3-1.3-0.5-1.5-1c-0.9-1.7-1.2-2.2-1.3-2.3l0,0
				c-0.4-0.7-1-0.9-1.2-0.9c-1.5-0.2-2-1-2.2-1.4l-1.1-1.9c-0.3-0.5-0.7-0.8-1.1-0.9l0,0l-0.1,0c-0.9-0.1-1.2-0.3-1.5-0.8
				c-0.7-1.2-1-1.6-1.1-1.8l0,0c-0.2-0.3-0.3-0.7-0.3-1c0-0.2,0.1-0.4,0.2-0.6l0-0.1l0,0c0.4-0.5,1-0.7,1.2-0.7h56.9
				c1.4,0,2.6,0.5,3.5,1.4c0.3,0.3,0.6,0.7,0.8,1.2c0.2,0.4,0.4,0.8,0.4,1.2c0,0.1,0.1,0.2,0.2,0.3l0.1,0.1l0.1,0
				c0.1,0,0.4,0.1,0.7,0.1h11.3c0.9,0,1.1-0.4,1.1-0.6c0.2-0.7,0.4-1.3,0.8-1.8c0.1-0.2,0.3-0.4,0.4-0.5c0.1-0.1,0.2-0.2,0.3-0.3
				c0.9-0.8,2-1.2,3.2-1.2h56.9c0.2,0,0.8,0.2,1.2,0.7l0,0.1l0,0.1c0.1,0.2,0.1,0.4,0.1,0.6c0,0.3-0.1,0.7-0.3,1l0,0
				c-0.1,0.1-0.3,0.5-1.1,1.9c-0.3,0.5-0.6,0.7-1.5,0.7l-0.1,0l0,0c-0.5,0.1-0.9,0.4-1.1,0.9l-1.1,1.9c-0.2,0.4-0.6,1.2-2.1,1.4
				c-0.5,0.1-1,0.4-1.3,0.9l0,0c-0.1,0.2-0.4,0.6-1.3,2.3c-0.3,0.5-0.6,0.8-1.6,1.1l0.1,0c-0.3,0.1-2.5,0.7-23.9,7
				c-1.1,0.3-1.5,1.3-1.5,1.4c-0.5,1.4-1.2,2.2-4.7,3.3h0c-0.3,0.6-12.9,3.5-19.5,5.4C81.3,63.9,80.8,64.2,80.1,64.2z"/>
		</g>
		<g id="XMLID_3_">
			<path id="XMLID_5_" d="M80.1,64.1c-0.9,0-1.7-0.3-2.4-0.9c0,0-4.5-4.3-4.6-4.4c0,0-0.4-0.4-0.8-0.4c-0.5,0-0.8,0.3-0.8,0.4
				c-0.1,0.1-4.6,4.3-4.6,4.3c-0.6,0.6-1.4,0.9-2.4,0.9c-0.7,0-1.2-0.3-1.2-0.3c-6.6-1.8-19.1-4.9-19.5-5.4h0
				c-3.5-1.1-4.1-2-4.7-3.4c0,0-0.4-1.1-1.5-1.4c-21.5-6.3-23.6-6.9-23.9-7l0.1,0c-1-0.3-1.3-0.5-1.5-1c-1-1.7-1.2-2.2-1.3-2.3l0,0
				c-0.4-0.7-1-0.9-1.2-0.9c-1.5-0.2-2-1-2.2-1.4l-1.1-1.9c-0.3-0.5-0.7-0.8-1.1-0.9l0,0l-0.1,0c-0.9-0.1-1.2-0.3-1.5-0.8
				c-0.7-1.2-1-1.6-1.1-1.8l0,0c-0.2-0.3-0.3-0.7-0.3-1c0-0.2,0.1-0.4,0.2-0.6l0-0.1l0,0c0.4-0.5,1-0.7,1.2-0.7h56.9
				c1.4,0,2.6,0.5,3.5,1.4c0.3,0.3,0.6,0.7,0.8,1.2c0.2,0.4,0.3,0.8,0.4,1.2c0,0.1,0.1,0.2,0.2,0.3l0.1,0.1l0.1,0
				c0.1,0,0.4,0.1,0.7,0.1h11.3c0.9,0,1.1-0.4,1.1-0.6c0.2-0.7,0.4-1.3,0.8-1.8c0.1-0.2,0.3-0.4,0.4-0.5c0.1-0.1,0.2-0.2,0.3-0.3
				c0.9-0.8,2-1.2,3.2-1.2h56.9c0.2,0,0.8,0.2,1.2,0.7l0,0.1l0,0.1c0.1,0.2,0.1,0.4,0.1,0.6c0,0.3-0.1,0.7-0.3,1l0,0
				c-0.1,0.1-0.3,0.5-1.1,1.9c-0.3,0.5-0.6,0.7-1.5,0.7l-0.1,0l0,0c-0.5,0.1-0.9,0.4-1.1,0.9L137,41c-0.2,0.4-0.6,1.2-2.1,1.4
				c-0.5,0.1-1,0.4-1.3,0.9l0,0c-0.1,0.2-0.4,0.6-1.3,2.3c-0.3,0.5-0.6,0.8-1.6,1.1l0.1,0c-0.3,0.1-2.4,0.7-23.9,7
				c-1.1,0.3-1.5,1.3-1.5,1.4c-0.5,1.4-1.2,2.2-4.7,3.3h0c-0.3,0.6-12.9,3.6-19.5,5.4C81.3,63.8,80.8,64.1,80.1,64.1z"/>
		</g>
	</g>
	<path id="_170829896" class="st35" d="M72.3,58.8c-0.3,0-0.4,0.2-0.4,0.2c0,0-4.6,4.4-4.6,4.4c-1.7,1.6-3.9,0.9-4.1,0.9
		c0,0-19.5-5.3-19.5-5.3c-3.7-1.1-4.5-2.3-5-3.8c0,0-0.3-0.9-1.1-1.2c0,0-23.8-7-23.8-7c-1-0.3-1.5-0.6-1.9-1.3c0,0-1.3-2.3-1.3-2.3
		c-0.3-0.6-0.8-0.6-0.8-0.6c-1.8-0.2-2.3-1.2-2.6-1.7l-1.1-1.9c-0.3-0.6-0.8-0.6-0.8-0.6c-1-0.1-1.5-0.3-1.9-1c0,0-1-1.7-1-1.7
		c-0.5-0.9-0.3-1.6-0.1-2c0.5-0.8,1.4-0.9,1.8-0.9h56.9c1.6,0,2.9,0.5,3.9,1.5c0.7,0.7,1.2,1.6,1.4,2.7c0,0,0.1,0.3,0.6,0.3h11.2
		c0.5,0,0.6-0.2,0.6-0.3c0.2-1.1,0.7-2,1.4-2.7c1-1,2.3-1.5,3.9-1.5h56.9c0.4,0,1.3,0.1,1.8,0.9c0.2,0.4,0.4,1.1-0.1,2
		c0,0-1,1.7-1,1.7c-0.4,0.7-0.9,1-1.9,1c0,0-0.5,0.1-0.8,0.6l-1.1,1.9c-0.2,0.4-0.8,1.4-2.6,1.7c0,0-0.6,0.1-0.8,0.6
		c0,0-1.3,2.3-1.3,2.3c-0.4,0.7-0.9,1-1.9,1.3c0,0-23.8,7-23.8,7c-0.8,0.2-1.1,1.2-1.1,1.2c-0.6,1.5-1.3,2.7-5,3.8
		c0,0-19.5,5.3-19.5,5.3c-0.2,0.1-2.5,0.8-4.1-0.9c0,0-4.6-4.3-4.6-4.4C72.8,59,72.6,58.8,72.3,58.8L72.3,58.8L72.3,58.8z"/>
	<radialGradient id="_170829840_1_" cx="72.3214" cy="48.6037" r="83.0608" gradientUnits="userSpaceOnUse">
		<stop  offset="0" style="stop-color:#DCD6DC"/>
		<stop  offset="0.2528" style="stop-color:#CEC8D1"/>
		<stop  offset="0.7301" style="stop-color:#A9A3B4"/>
		<stop  offset="1" style="stop-color:#918BA1"/>
	</radialGradient>
	<path id="_170829840" class="st36" d="M79.5,37.2c0.2-0.9,0.6-1.6,1.1-2.2c0.8-0.8,1.8-1.1,3.1-1.1c0,0,12.7,0,26.1,0
		c-0.9,0.7-1.4,1.5-1.4,1.6c-0.3,0.6-0.7,1.2-1.1,2h-28C79.5,37.4,79.5,37.2,79.5,37.2L79.5,37.2L79.5,37.2z M141.4,35.3
		c0,0-1,1.7-1,1.7c-0.2,0.3-0.3,0.5-1.1,0.5c0,0-31,0-31,0c0.3-0.6,0.6-1.1,0.9-1.6c0,0,1.1-2,3.1-2l28.4,0c0.3,0,0.7,0,0.9,0.4
		c0,0,0.1,0.1,0.1,0.3C141.7,34.8,141.6,35,141.4,35.3L141.4,35.3L141.4,35.3z M137.7,38.7l-1.1,1.9c-0.1,0.3-0.4,0.7-1.1,1
		c-0.6,0.2-1.8,0.1-2.2,0l-26.3-1.7c0.3-0.5,0.7-1,0.9-1.5h30C137.8,38.4,137.7,38.5,137.7,38.7L137.7,38.7L137.7,38.7z M133.2,42.8
		c0,0-1,1.8-1.3,2.2c-0.1,0.1-0.3,0.4-1.3,0.3l-25.2-3.4c0.3-0.5,0.7-0.9,1-1.3l26.8,1.8c0,0,0.2,0,0.3,0
		C133.4,42.5,133.3,42.7,133.2,42.8L133.2,42.8L133.2,42.8z M124.5,47.7c-0.9,0.3-2.8,0-3.5-0.2c0,0-11.9-2.4-17.3-3.6
		c0.4-0.4,0.7-0.9,1.1-1.3l25.3,3.4L124.5,47.7L124.5,47.7L124.5,47.7z M115.9,50.3c-1.2,0.3-2.8-0.2-2.8-0.2l0,0c0,0,0,0,0,0
		l-11.6-3.6c0.6-0.6,1.1-1.2,1.6-1.7l17.8,3.7c0,0,0.4,0.1,0.9,0.2L115.9,50.3L115.9,50.3L115.9,50.3z M106.8,52.9
		c-0.8,0.2-2-0.3-2.4-0.5c0,0-3.1-1.5-6.3-2.9c1-0.8,1.9-1.6,2.7-2.4l12,3.7c0,0,0.2,0.1,0.6,0.2L106.8,52.9L106.8,52.9z M105,54.7
		c-0.4,0.9-0.7,1.8-3.2,2.8c-1,0.3-2.2-0.6-2.2-0.6c0,0-2.8-2-5.9-4.2c1.3-0.8,2.5-1.6,3.7-2.6l6.7,3.1c0,0,0.7,0.4,1.6,0.5
		C105.2,54.2,105,54.7,105,54.7L105,54.7L105,54.7z M95.7,59.2l-0.9,0.3c-0.8,0.2-1.7-0.6-2-0.9c0,0-1.5-1.6-3.4-3.6
		c1.2-0.6,2.4-1.2,3.6-1.9l6.2,4.4c0,0,0.4,0.3,0.9,0.5C98.6,58.4,95.7,59.2,95.7,59.2L95.7,59.2z M87.5,61.5
		c-0.7,0.1-1.4-1-1.6-1.4L84,57c1.5-0.4,3-1,4.4-1.6l3.6,3.8c0,0,0.4,0.4,1,0.8L87.5,61.5L87.5,61.5L87.5,61.5z M81.4,63.1
		c-0.4,0.1-0.8,0.1-1.1-0.1c-0.7-0.4-0.9-1.4-0.9-1.4l-0.9-3.4c1.7-0.2,3.3-0.6,4.9-1l2,3.3c0.1,0.1,0.5,0.8,1.1,1.3L81.4,63.1
		L81.4,63.1L81.4,63.1z M77.4,61.9c0,0-2.6-2.5-3.5-3.4c1.3,0,2.5-0.1,3.7-0.3l1,3.5c0,0.1,0.2,0.9,0.8,1.5
		C78.5,63,78.3,62.8,77.4,61.9L77.4,61.9z M72.7,57.7V47.1h1.7l2.9,10.4C75.8,57.6,74.3,57.7,72.7,57.7z M67.3,57.5l2.9-10.4h1.7
		v10.7C70.4,57.7,68.8,57.6,67.3,57.5L67.3,57.5L67.3,57.5z M66.6,62.6c-0.4,0.4-0.8,0.6-1.2,0.7c0.5-0.6,0.7-1.4,0.8-1.5l1-3.5
		c1.2,0.1,2.5,0.2,3.7,0.3C69.8,59.5,66.6,62.6,66.6,62.6L66.6,62.6z M65.3,61.6c0,0-0.2,1-0.9,1.4c-0.3,0.2-0.7,0.2-1.1,0.1
		l-4.9-1.3c0.6-0.5,1-1.2,1.1-1.3c0,0,0.8-1.4,2-3.3c1.6,0.4,3.2,0.7,4.9,1L65.3,61.6L65.3,61.6L65.3,61.6z M57.1,61.5l-5.6-1.5
		c0.6-0.3,1-0.7,1-0.8c0,0,1.6-1.7,3.6-3.8c1.4,0.6,2.9,1.1,4.4,1.6l-1.9,3.1C58.5,60.5,57.8,61.6,57.1,61.5L57.1,61.5L57.1,61.5z
		 M49.9,59.5l-5.2-1.4c0.5-0.2,0.9-0.5,0.9-0.5c0,0,2.9-2.1,6.2-4.4c1.2,0.7,2.4,1.3,3.6,1.9l-3.4,3.6
		C51.6,58.9,50.7,59.7,49.9,59.5L49.9,59.5L49.9,59.5z M42.8,57.5c-2.5-0.9-2.8-1.9-3.2-2.7c0-0.1-0.2-0.6-0.6-1
		c0.8-0.2,1.5-0.5,1.6-0.5c0,0,3.3-1.6,6.6-3.1c1.2,0.9,2.4,1.8,3.7,2.6l-5.9,4.2C45.1,56.9,43.9,57.8,42.8,57.5z M37.8,52.9
		c-0.2-0.1-3-0.9-6.6-1.9c0.3-0.1,0.6-0.2,0.6-0.2c0,0,9.8-3,12-3.7c0.8,0.8,1.7,1.6,2.7,2.4l-6.3,2.9
		C39.8,52.7,38.6,53.2,37.8,52.9L37.8,52.9L37.8,52.9z M28.7,50.3c-1.9-0.6-4-1.2-5.9-1.7c0.5-0.1,0.9-0.1,0.9-0.2
		c0,0,12.6-2.6,17.8-3.7c0.5,0.6,1.1,1.2,1.6,1.7l-11.6,3.6C31.5,50.1,30,50.6,28.7,50.3L28.7,50.3L28.7,50.3z M20.1,47.7
		c-2.6-0.8-4.7-1.4-5.6-1.7l25.3-3.4c0.3,0.4,0.7,0.9,1.1,1.3l-17.3,3.6C22.9,47.7,21.1,48,20.1,47.7L20.1,47.7L20.1,47.7z M14,45.3
		c-1,0.1-1.3-0.2-1.3-0.3l-1.3-2.2c-0.1-0.2-0.2-0.3-0.3-0.4c0.2,0,27.1-1.8,27.1-1.8c0.3,0.4,0.6,0.9,1,1.3L14,45.3L14,45.3
		L14,45.3z M9.2,41.5c-0.7-0.2-1-0.7-1.1-1c-0.4-0.8-1-1.9-1.3-2.2h30c0.3,0.5,0.6,0.9,0.9,1.5l-26.3,1.7C11,41.6,9.8,41.7,9.2,41.5
		L9.2,41.5L9.2,41.5z M5.3,37.5c-0.7-0.1-0.9-0.1-1.1-0.5c0,0-0.9-1.6-1-1.7C3,35,3,34.8,3,34.6C3,34.3,3.3,34,4,34l28.4,0
		c1.9,0,3.1,2,3.1,2c0.2,0.5,0.5,1,0.9,1.6L5.3,37.5L5.3,37.5L5.3,37.5z M60.8,34c1.3,0,2.4,0.4,3.1,1.1c0.5,0.5,0.9,1.3,1.1,2.2
		c0,0,0,0.2,0.1,0.3h-28c-0.4-0.7-1.1-2-1.1-2c0-0.1-0.5-0.9-1.4-1.6C48.1,34,60.8,34,60.8,34L60.8,34L60.8,34z M101.3,39.4v-1.1
		h5.6c-0.3,0.4-0.6,0.9-0.9,1.4L101.3,39.4L101.3,39.4z M101.3,41.4v-1.1l4.1,0.3c-0.3,0.4-0.6,0.8-1,1.3L101.3,41.4L101.3,41.4z
		 M101.3,43.5v-1.3l2.5,0.3c-0.3,0.4-0.7,0.8-1.1,1.3C102.1,43.7,101.6,43.6,101.3,43.5L101.3,43.5z M101.3,44.4l0.8,0.2
		c-0.3,0.3-0.5,0.6-0.8,0.9V44.4z M92.9,47.1h6.8c-0.7,0.7-2.3,2-2.4,2.1C95.6,48.4,94,47.6,92.9,47.1L92.9,47.1z M85.8,47.1h5.1
		l5.6,2.6c-1.2,0.9-2.4,1.7-3.6,2.5C90.2,50.2,87.4,48.2,85.8,47.1L85.8,47.1L85.8,47.1z M81.7,47.1h2.7l7.8,5.6
		c-1.1,0.6-2.3,1.2-3.5,1.8C86.1,51.7,83.1,48.5,81.7,47.1L81.7,47.1z M78.2,47.1h2.3l7.3,7.7c-1.4,0.6-2.8,1.1-4.3,1.5L78.2,47.1
		L78.2,47.1L78.2,47.1z M77.3,47.1l5.5,9.4c-1.5,0.4-3.1,0.7-4.6,0.9l-2.8-10.3H77.3L77.3,47.1z M67.4,47.1h2l-2.8,10.3
		c-1.6-0.2-3.1-0.5-4.6-0.9C63.9,52.9,66.7,48.3,67.4,47.1L67.4,47.1z M64.1,47.1h2.3L61,56.2c-1.5-0.4-2.9-0.9-4.3-1.5
		C59.7,51.7,63.3,48,64.1,47.1L64.1,47.1L64.1,47.1z M60.2,47.1H63l-7,7.3c-1.2-0.5-2.3-1.1-3.5-1.8C55.8,50.2,59.3,47.7,60.2,47.1
		L60.2,47.1z M47.4,49.1c-0.1-0.1-1.7-1.4-2.4-2.1h6.8L47.4,49.1L47.4,49.1z M53.7,47.1h5.1l-7.1,5.1c-1.2-0.7-2.4-1.6-3.6-2.5
		C50.8,48.5,53.2,47.3,53.7,47.1L53.7,47.1L53.7,47.1z M43.3,44.4v1c-0.3-0.3-0.5-0.6-0.8-0.9C42.8,44.5,43.1,44.4,43.3,44.4z
		 M43.3,42.2v1.3l-1.4,0.3c-0.4-0.4-0.7-0.8-1.1-1.3L43.3,42.2L43.3,42.2z M43.3,40.3v1.1l-3.1,0.4c-0.3-0.4-0.7-0.9-1-1.3
		L43.3,40.3L43.3,40.3L43.3,40.3z M43.3,39.4l-4.6,0.3c-0.3-0.5-0.6-0.9-0.9-1.4h5.5L43.3,39.4L43.3,39.4L43.3,39.4z"/>
	<radialGradient id="XMLID_10_" cx="71.9492" cy="37.037" r="70.6919" gradientUnits="userSpaceOnUse">
		<stop  offset="0" style="stop-color:#FFFFFF"/>
		<stop  offset="0.3153" style="stop-color:#FCFBFC"/>
		<stop  offset="0.6236" style="stop-color:#F2EFF2"/>
		<stop  offset="0.9281" style="stop-color:#E1DCE1"/>
		<stop  offset="1" style="stop-color:#DCD6DC"/>
	</radialGradient>
	<path id="XMLID_201_" class="st37" d="M142.5,33.7c-0.5-0.8-1.4-1.2-1.8-1.2H83.8c-1.6,0-2.9,0.8-3.9,1.8c-0.7,0.7-1.2,1.5-1.4,2.6
		c0,0-0.1,0.2-0.6,0.2H66.7c-0.5,0-0.6,0-0.6,0c-0.2-1.1-0.7-2.2-1.4-2.9c-1-1-2.3-1.7-3.9-1.7H3.9c-0.4,0-1.3,0.4-1.8,1.2
		c-0.2,0.4-0.4,1.2,0.1,2.2c0,0,1,1.8,1,1.8c0.4,0.7,0.9,1,1.9,1.1c0,0,0.5,0.1,0.8,0.7l1.1,1.9c0.2,0.4,0.7,1.4,2.6,1.7
		c0,0,0.6,0.1,0.8,0.6c0,0,1.3,2.3,1.3,2.3c0.4,0.7,0.9,1,1.9,1.3c0,0,23.8,7,23.8,7c0.8,0.2,1.1,1.2,1.1,1.2c0.6,1.5,1.3,2.7,5,3.8
		c0,0,19.5,5.3,19.5,5.3c0.2,0.1,2.5,0.8,4.1-0.9c0,0,4.6-4.3,4.6-4.4c0,0,0.2-0.2,0.4-0.2c0.3,0,0.4,0.2,0.4,0.2
		c0,0,4.6,4.4,4.6,4.4c1.7,1.6,3.9,0.9,4.1,0.9c0,0,19.5-5.3,19.5-5.3c3.7-1.1,4.5-2.3,5-3.8c0,0,0.3-0.9,1.1-1.2c0,0,23.8-7,23.8-7
		c1-0.3,1.5-0.6,1.9-1.3c0,0,1.3-2.3,1.3-2.3c0.3-0.5,0.8-0.6,0.8-0.6c1.8-0.2,2.3-1.2,2.6-1.7l1.1-1.9c0.3-0.6,0.8-0.6,0.8-0.6
		c1-0.1,1.5-0.3,1.9-1c0,0,1-1.9,1-1.9C142.9,34.9,142.7,34.1,142.5,33.7z M67.4,47.3h2l-2.8,10.3c-1.6-0.2-3.1-0.5-4.6-0.9
		C63.9,53.2,66.7,48.4,67.4,47.3z M66.4,47.3L61,56.4c-1.5-0.4-2.9-0.9-4.3-1.5c2.9-3.1,6.5-7.3,7.3-7.7H66.4z M53.7,47.3h5.1
		l-7.1,5.1c-1.2-0.7-2.4-1.6-3.6-2.5C50.8,48.7,53.2,47.3,53.7,47.3z M47.4,49.4c-0.1-0.1-1.7-1.7-2.4-2.1h6.8L47.4,49.4z
		 M60.2,47.3H63l-7,7.3c-1.2-0.5-2.3-1.1-3.5-1.8C55.8,50.4,59.4,47.7,60.2,47.3z M60.8,33.6c1.3,0,2.4,0.7,3.1,1.4
		c0.5,0.5,0.9,1.4,1.1,2.3c0,0,0-0.3,0.1,0.4h-28c-0.4-1.1-1.1-2.3-1.1-2.3c0-0.1-0.5-0.8-1.4-1.9C48.1,33.6,60.8,33.6,60.8,33.6z
		 M41.9,44c-0.4-0.4-0.7-0.8-1-1.3l2.5-0.3v1.3L41.9,44z M43.4,44.6v1c-0.4-0.3-0.5-0.6-0.8-0.9C42.9,44.7,43,44.6,43.4,44.6z
		 M40.3,42c-0.3-0.4-0.6-0.9-0.9-1.3l4.1-0.3v1.1L40.3,42z M38.7,39.7c-0.3-0.5-0.7-0.8-1-1.6h5.7v1.5L38.7,39.7z M5.3,37.8
		c-0.7,0-0.9-0.2-1.1-0.5c0,0-0.9-1.6-1-1.7C3,35.2,3,34.7,3,34.6c0-0.4,0.3-1,1-1h28.4c1.9,0,3.1,2.3,3.1,2.3
		c0.3,0.5,0.5,1.1,0.9,1.9H5.3z M9.2,41.7c-0.7-0.2-1-0.9-1.1-1.1c-0.4-0.8-1-1.7-1.3-2.4h30c0.3,0.8,0.6,1.1,0.9,1.6l-26.3,1.8
		C11,41.7,9.8,41.9,9.2,41.7z M12.7,45.3L11.5,43c-0.1-0.2-0.2-0.3-0.3-0.4c0.2,0,27.1-1.8,27.1-1.8c0.3,0.4,0.6,0.9,1,1.3L14,45.5
		C13.1,45.7,12.8,45.3,12.7,45.3z M20.1,48c-2.6-0.8-4.7-1.4-5.6-1.7l25.4-3.4c0.3,0.4,0.7,0.9,1.1,1.3l-17.3,3.6
		C23,47.9,21.1,48.2,20.1,48z M28.7,50.5c-1.9-0.6-4-1.2-5.9-1.7c0.5-0.1,0.9-0.1,0.9-0.2c0,0,12.6-2.6,17.8-3.7
		c0.5,0.6,1.1,1.2,1.6,1.7l-11.6,3.6C31.5,50.3,30,50.8,28.7,50.5z M37.8,53.1c-0.3-0.1-3-0.9-6.6-1.9c0.3-0.1,0.6-0.2,0.6-0.2
		c0,0,9.8-3,12-3.7c0.8,0.8,1.7,1.6,2.7,2.4l-6.3,2.9C39.8,52.9,38.6,53.4,37.8,53.1z M42.8,57.7c-2.5-0.9-2.8-1.9-3.2-2.7
		c0-0.1-0.2-0.6-0.6-1c0.8-0.2,1.5-0.5,1.6-0.5c0,0,3.3-1.6,6.6-3.1c1.2,0.9,2.4,1.8,3.7,2.6l-5.9,4.2C45.1,57.1,43.9,58,42.8,57.7z
		 M49.9,59.7l-5.2-1.4c0.5-0.2,0.9-0.5,0.9-0.5c0,0,2.9-2.1,6.2-4.4c1.2,0.7,2.4,1.3,3.6,1.9l-3.4,3.6
		C51.6,59.1,50.7,59.9,49.9,59.7z M57.1,61.7l-5.6-1.5c0.6-0.3,1-0.7,1-0.8c0,0,1.6-1.7,3.6-3.8c1.4,0.6,2.9,1.1,4.4,1.6l-1.9,3.1
		C58.5,60.7,57.8,61.8,57.1,61.7z M64.4,63.2c-0.3,0.2-0.7,0.2-1.1,0.1L58.4,62c0.6-0.5,1-1.2,1.1-1.3c0,0,0.8-1.4,2-3.3
		c1.6,0.4,3.2,0.7,4.9,1l-0.9,3.4C65.3,61.8,65.1,62.8,64.4,63.2z M66.6,62.8c-0.4,0.4-0.8,0.6-1.2,0.7c0.5-0.6,0.7-1.4,0.8-1.5
		l1-3.5c1.2,0.1,2.5,0.2,3.7,0.3C69.8,59.7,66.6,62.8,66.6,62.8z M71.9,57.9c-1.9,0-3.1-0.1-4.6-0.3l2.9-10.4h1.7V57.9z M79.5,37.5
		c0.2-0.9,0.6-1.9,1.1-2.5c0.8-0.8,1.8-1.4,3.1-1.4c0,0,12.7,0,26.1,0c-0.9,1.1-1.4,1.8-1.4,1.9c-0.3,0.6-0.7,1.2-1.1,2.3h-28
		C79.5,37,79.5,37.5,79.5,37.5z M101.2,43.7v-1.3l2.6,0.3c-0.3,0.4-0.7,0.8-1.1,1.3C102.1,43.9,101.2,43.8,101.2,43.7z M102.1,44.7
		c-0.3,0.3-0.4,0.6-0.8,0.9v-1L102.1,44.7z M101.2,41.6v-1.1l4.1,0.3c-0.3,0.4-0.6,0.8-1,1.3L101.2,41.6z M101.2,39.6v-1.5h5.7
		c-0.3,0.8-0.6,1.1-1,1.6L101.2,39.6z M85.8,47.3h5.1l5.6,2.6c-1.2,0.9-2.4,1.7-3.6,2.5C90.2,50.4,87.4,48.4,85.8,47.3z M92.2,52.8
		c-1.1,0.6-2.3,1.2-3.5,1.8c-2.6-2.7-5.6-6.2-7-7.3h2.7L92.2,52.8z M92.9,47.3h6.8c-0.7,0.4-2.3,2-2.4,2.1
		C95.6,48.6,94,47.7,92.9,47.3z M80.5,47.3l7.3,7.7c-1.4,0.6-2.8,1.1-4.3,1.5l-5.4-9.1H80.5z M77.3,47.3l5.5,9.4
		c-1.5,0.4-3.1,0.7-4.7,0.9l-2.8-10.3H77.3z M72.7,57.9V47.3h1.7l2.9,10.4C75.8,57.8,74.6,57.9,72.7,57.9z M77.4,62.1
		c0,0-2.6-2.5-3.5-3.4c1.3,0,2.5-0.1,3.7-0.3l1,3.5c0,0.1,0.2,0.9,0.8,1.5C78.5,63.3,78.3,63,77.4,62.1z M81.4,63.4
		c-0.4,0.1-0.8,0.1-1.1-0.1c-0.7-0.4-0.9-1.4-0.9-1.4l-0.9-3.4c1.7-0.2,3.3-0.6,4.9-1l2,3.3c0.1,0.1,0.5,0.8,1.1,1.3L81.4,63.4z
		 M87.5,61.7c-0.6,0.1-1.4-1-1.6-1.4L84,57.2c1.5-0.4,3-1,4.4-1.6l3.6,3.8c0,0,0.4,0.4,1,0.8L87.5,61.7z M95.7,59.5l-0.9,0.3
		c-0.8,0.2-1.7-0.6-2-0.9c0,0-1.5-1.6-3.4-3.6c1.2-0.6,2.4-1.2,3.6-1.9l6.2,4.4c0,0,0.4,0.3,0.9,0.5C98.6,58.7,95.7,59.5,95.7,59.5z
		 M105,55c-0.3,0.9-0.7,1.8-3.2,2.8c-1,0.3-2.2-0.6-2.2-0.6c0,0-2.8-2-5.9-4.2c1.3-0.8,2.5-1.6,3.7-2.6l6.6,3.1c0,0,0.7,0.4,1.6,0.5
		C105.2,54.4,105,54.9,105,55z M106.8,53.1c-0.8,0.2-2-0.3-2.4-0.5c0,0-3.1-1.5-6.3-2.9c1-0.8,1.9-1.6,2.7-2.4l12,3.7
		c0,0,0.2,0.1,0.6,0.2L106.8,53.1z M115.9,50.5c-1.2,0.3-2.8-0.4-2.8-0.4l0-0.2h0l-11.6-3.4c0.6-0.6,1.1-1.1,1.6-1.7l17.8,3.7
		c0,0,0.4,0.1,0.9,0.2L115.9,50.5z M124.5,48c-0.9,0.3-2.8,0-3.5-0.2c0,0-11.9-2.4-17.3-3.6c0.4-0.4,0.7-0.9,1.1-1.3l25.3,3.4
		L124.5,48z M133.2,43.1c0,0-1,1.8-1.3,2.2c-0.1,0.1-0.4,0.4-1.3,0.3l-25.2-3.4c0.3-0.5,0.7-0.9,1-1.3l26.8,1.8c0,0,0.2,0,0.3,0
		C133.4,42.7,133.3,42.9,133.2,43.1z M137.7,38.7l-1.1,2c-0.2,0.3-0.4,0.8-1.1,1c-0.6,0.2-1.8,0.1-2.2,0l-26.3-1.9
		c0.3-0.5,0.7-0.9,0.9-1.6h30C137.8,38.2,137.7,38.6,137.7,38.7z M141.4,35.5c0,0-1,1.7-1,1.7c-0.2,0.3-0.3,0.5-1.1,0.5
		c0,0-31,0-31,0c0.3-0.6,0.6-1.4,0.9-1.9c0,0,1.1-2.3,3.1-2.3h28.4c0.3,0,0.7,0.3,0.9,0.7c0,0,0.1,0.3,0.1,0.5
		C141.7,34.9,141.6,35.2,141.4,35.5z"/>
	<linearGradient id="XMLID_11_" gradientUnits="userSpaceOnUse" x1="72.3217" y1="64.628" x2="72.3217" y2="32.4585">
		<stop  offset="0.1823" style="stop-color:#393033"/>
		<stop  offset="0.2121" style="stop-color:#615A5C"/>
		<stop  offset="0.2524" style="stop-color:#918C8D"/>
		<stop  offset="0.2923" style="stop-color:#B8B5B6"/>
		<stop  offset="0.331" style="stop-color:#D7D5D6"/>
		<stop  offset="0.3681" style="stop-color:#EDECED"/>
		<stop  offset="0.403" style="stop-color:#FAFAFA"/>
		<stop  offset="0.4335" style="stop-color:#FFFFFF"/>
		<stop  offset="1" style="stop-color:#FFFFFF"/>
	</linearGradient>
	<path id="XMLID_4_" class="st38" d="M142.5,33.7c-0.5-0.8-1.4-1.2-1.8-1.2H83.8c-1.6,0-2.9,0.8-3.9,1.8c-0.7,0.7-1.2,1.5-1.4,2.6
		c0,0-0.1,0.2-0.6,0.2H66.7c-0.5,0-0.6,0-0.6,0c-0.2-1.1-0.7-2.2-1.4-2.9c-1-1-2.3-1.7-3.9-1.7H3.9c-0.4,0-1.3,0.4-1.8,1.2
		c-0.2,0.4-0.4,1.2,0.1,2.2c0,0,1,1.8,1,1.8c0.4,0.7,0.9,1,1.9,1.1c0,0,0.5,0.1,0.8,0.7l1.1,1.9c0.2,0.4,0.7,1.4,2.6,1.7
		c0,0,0.6,0.1,0.8,0.6c0,0,1.3,2.3,1.3,2.3c0.4,0.7,0.9,1,1.9,1.3c0,0,23.8,7,23.8,7c0.8,0.2,1.1,1.2,1.1,1.2c0.6,1.5,1.3,2.7,5,3.8
		c0,0,19.5,5.3,19.5,5.3c0.2,0.1,2.5,0.8,4.1-0.9c0,0,4.6-4.3,4.6-4.4c0,0,0.2-0.2,0.4-0.2c0.3,0,0.4,0.2,0.4,0.2
		c0,0,4.6,4.4,4.6,4.4c1.7,1.6,3.9,0.9,4.1,0.9c0,0,19.5-5.3,19.5-5.3c3.7-1.1,4.5-2.3,5-3.8c0,0,0.3-0.9,1.1-1.2c0,0,23.8-7,23.8-7
		c1-0.3,1.5-0.6,1.9-1.3c0,0,1.3-2.3,1.3-2.3c0.3-0.5,0.8-0.6,0.8-0.6c1.8-0.2,2.3-1.2,2.6-1.7l1.1-1.9c0.3-0.6,0.8-0.6,0.8-0.6
		c1-0.1,1.5-0.3,1.9-1c0,0,1-1.9,1-1.9C142.9,34.9,142.7,34.1,142.5,33.7z M67.4,47.3h2l-2.8,10.3c-1.6-0.2-3.1-0.5-4.6-0.9
		C63.9,53.2,66.7,48.4,67.4,47.3z M66.4,47.3L61,56.4c-1.5-0.4-2.9-0.9-4.3-1.5c2.9-3.1,6.5-7.3,7.3-7.7H66.4z M53.7,47.3h5.1
		l-7.1,5.1c-1.2-0.7-2.4-1.6-3.6-2.5C50.8,48.7,53.2,47.3,53.7,47.3z M47.4,49.4c-0.1-0.1-1.7-1.7-2.4-2.1h6.8L47.4,49.4z
		 M60.2,47.3H63l-7,7.3c-1.2-0.5-2.3-1.1-3.5-1.8C55.8,50.4,59.4,47.7,60.2,47.3z M60.8,33.6c1.3,0,2.4,0.7,3.1,1.4
		c0.5,0.5,0.9,1.4,1.1,2.3c0,0,0-0.3,0.1,0.4h-28c-0.4-1.1-1.1-2.3-1.1-2.3c0-0.1-0.5-0.8-1.4-1.9C48.1,33.6,60.8,33.6,60.8,33.6z
		 M41.9,44c-0.4-0.4-0.7-0.8-1-1.3l2.5-0.3v1.3L41.9,44z M43.4,44.6v1c-0.4-0.3-0.5-0.6-0.8-0.9C42.9,44.7,43,44.6,43.4,44.6z
		 M40.3,42c-0.3-0.4-0.6-0.9-0.9-1.3l4.1-0.3v1.1L40.3,42z M38.7,39.7c-0.3-0.5-0.7-0.8-1-1.6h5.7v1.5L38.7,39.7z M5.3,37.8
		c-0.7,0-0.9-0.2-1.1-0.5c0,0-0.9-1.6-1-1.7C3,35.2,3,34.7,3,34.6c0-0.4,0.3-1,1-1h28.4c1.9,0,3.1,2.3,3.1,2.3
		c0.3,0.5,0.5,1.1,0.9,1.9H5.3z M9.2,41.7c-0.7-0.2-1-0.9-1.1-1.1c-0.4-0.8-1-1.7-1.3-2.4h30c0.3,0.8,0.6,1.1,0.9,1.6l-26.3,1.8
		C11,41.7,9.8,41.9,9.2,41.7z M12.7,45.3L11.5,43c-0.1-0.2-0.2-0.3-0.3-0.4c0.2,0,27.1-1.8,27.1-1.8c0.3,0.4,0.6,0.9,1,1.3L14,45.5
		C13.1,45.7,12.8,45.3,12.7,45.3z M20.1,48c-2.6-0.8-4.7-1.4-5.6-1.7l25.4-3.4c0.3,0.4,0.7,0.9,1.1,1.3l-17.3,3.6
		C23,47.9,21.1,48.2,20.1,48z M28.7,50.5c-1.9-0.6-4-1.2-5.9-1.7c0.5-0.1,0.9-0.1,0.9-0.2c0,0,12.6-2.6,17.8-3.7
		c0.5,0.6,1.1,1.2,1.6,1.7l-11.6,3.6C31.5,50.3,30,50.8,28.7,50.5z M37.8,53.1c-0.3-0.1-3-0.9-6.6-1.9c0.3-0.1,0.6-0.2,0.6-0.2
		c0,0,9.8-3,12-3.7c0.8,0.8,1.7,1.6,2.7,2.4l-6.3,2.9C39.8,52.9,38.6,53.4,37.8,53.1z M42.8,57.7c-2.5-0.9-2.8-1.9-3.2-2.7
		c0-0.1-0.2-0.6-0.6-1c0.8-0.2,1.5-0.5,1.6-0.5c0,0,3.3-1.6,6.6-3.1c1.2,0.9,2.4,1.8,3.7,2.6l-5.9,4.2C45.1,57.1,43.9,58,42.8,57.7z
		 M49.9,59.7l-5.2-1.4c0.5-0.2,0.9-0.5,0.9-0.5c0,0,2.9-2.1,6.2-4.4c1.2,0.7,2.4,1.3,3.6,1.9l-3.4,3.6
		C51.6,59.1,50.7,59.9,49.9,59.7z M57.1,61.7l-5.6-1.5c0.6-0.3,1-0.7,1-0.8c0,0,1.6-1.7,3.6-3.8c1.4,0.6,2.9,1.1,4.4,1.6l-1.9,3.1
		C58.5,60.7,57.8,61.8,57.1,61.7z M64.4,63.2c-0.3,0.2-0.7,0.2-1.1,0.1L58.4,62c0.6-0.5,1-1.2,1.1-1.3c0,0,0.8-1.4,2-3.3
		c1.6,0.4,3.2,0.7,4.9,1l-0.9,3.4C65.3,61.8,65.1,62.8,64.4,63.2z M66.6,62.8c-0.4,0.4-0.8,0.6-1.2,0.7c0.5-0.6,0.7-1.4,0.8-1.5
		l1-3.5c1.2,0.1,2.5,0.2,3.7,0.3C69.8,59.7,66.6,62.8,66.6,62.8z M71.9,57.9c-1.9,0-3.1-0.1-4.6-0.3l2.9-10.4h1.7V57.9z M79.5,37.5
		c0.2-0.9,0.6-1.9,1.1-2.5c0.8-0.8,1.8-1.4,3.1-1.4c0,0,12.7,0,26.1,0c-0.9,1.1-1.4,1.8-1.4,1.9c-0.3,0.6-0.7,1.2-1.1,2.3h-28
		C79.5,37,79.5,37.5,79.5,37.5z M101.2,43.7v-1.3l2.6,0.3c-0.3,0.4-0.7,0.8-1.1,1.3C102.1,43.9,101.2,43.8,101.2,43.7z M102.1,44.7
		c-0.3,0.3-0.4,0.6-0.8,0.9v-1L102.1,44.7z M101.2,41.6v-1.1l4.1,0.3c-0.3,0.4-0.6,0.8-1,1.3L101.2,41.6z M101.2,39.6v-1.5h5.7
		c-0.3,0.8-0.6,1.1-1,1.6L101.2,39.6z M85.8,47.3h5.1l5.6,2.6c-1.2,0.9-2.4,1.7-3.6,2.5C90.2,50.4,87.4,48.4,85.8,47.3z M92.2,52.8
		c-1.1,0.6-2.3,1.2-3.5,1.8c-2.6-2.7-5.6-6.2-7-7.3h2.7L92.2,52.8z M92.9,47.3h6.8c-0.7,0.4-2.3,2-2.4,2.1
		C95.6,48.6,94,47.7,92.9,47.3z M80.5,47.3l7.3,7.7c-1.4,0.6-2.8,1.1-4.3,1.5l-5.4-9.1H80.5z M77.3,47.3l5.5,9.4
		c-1.5,0.4-3.1,0.7-4.7,0.9l-2.8-10.3H77.3z M72.7,57.9V47.3h1.7l2.9,10.4C75.8,57.8,74.6,57.9,72.7,57.9z M77.4,62.1
		c0,0-2.6-2.5-3.5-3.4c1.3,0,2.5-0.1,3.7-0.3l1,3.5c0,0.1,0.2,0.9,0.8,1.5C78.5,63.3,78.3,63,77.4,62.1z M81.4,63.4
		c-0.4,0.1-0.8,0.1-1.1-0.1c-0.7-0.4-0.9-1.4-0.9-1.4l-0.9-3.4c1.7-0.2,3.3-0.6,4.9-1l2,3.3c0.1,0.1,0.5,0.8,1.1,1.3L81.4,63.4z
		 M87.5,61.7c-0.6,0.1-1.4-1-1.6-1.4L84,57.2c1.5-0.4,3-1,4.4-1.6l3.6,3.8c0,0,0.4,0.4,1,0.8L87.5,61.7z M95.7,59.5l-0.9,0.3
		c-0.8,0.2-1.7-0.6-2-0.9c0,0-1.5-1.6-3.4-3.6c1.2-0.6,2.4-1.2,3.6-1.9l6.2,4.4c0,0,0.4,0.3,0.9,0.5C98.6,58.7,95.7,59.5,95.7,59.5z
		 M105,55c-0.3,0.9-0.7,1.8-3.2,2.8c-1,0.3-2.2-0.6-2.2-0.6c0,0-2.8-2-5.9-4.2c1.3-0.8,2.5-1.6,3.7-2.6l6.6,3.1c0,0,0.7,0.4,1.6,0.5
		C105.2,54.4,105,54.9,105,55z M106.8,53.1c-0.8,0.2-2-0.3-2.4-0.5c0,0-3.1-1.5-6.3-2.9c1-0.8,1.9-1.6,2.7-2.4l12,3.7
		c0,0,0.2,0.1,0.6,0.2L106.8,53.1z M115.9,50.5c-1.2,0.3-2.8-0.4-2.8-0.4l0-0.2h0l-11.6-3.4c0.6-0.6,1.1-1.1,1.6-1.7l17.8,3.7
		c0,0,0.4,0.1,0.9,0.2L115.9,50.5z M124.5,48c-0.9,0.3-2.8,0-3.5-0.2c0,0-11.9-2.4-17.3-3.6c0.4-0.4,0.7-0.9,1.1-1.3l25.3,3.4
		L124.5,48z M133.2,43.1c0,0-1,1.8-1.3,2.2c-0.1,0.1-0.4,0.4-1.3,0.3l-25.2-3.4c0.3-0.5,0.7-0.9,1-1.3l26.8,1.8c0,0,0.2,0,0.3,0
		C133.4,42.7,133.3,42.9,133.2,43.1z M137.7,38.7l-1.1,2c-0.2,0.3-0.4,0.8-1.1,1c-0.6,0.2-1.8,0.1-2.2,0l-26.3-1.9
		c0.3-0.5,0.7-0.9,0.9-1.6h30C137.8,38.2,137.7,38.6,137.7,38.7z M141.4,35.5c0,0-1,1.7-1,1.7c-0.2,0.3-0.3,0.5-1.1,0.5
		c0,0-31,0-31,0c0.3-0.6,0.6-1.4,0.9-1.9c0,0,1.1-2.3,3.1-2.3h28.4c0.3,0,0.7,0.3,0.9,0.7c0,0,0.1,0.3,0.1,0.5
		C141.7,34.9,141.6,35.2,141.4,35.5z"/>
	<linearGradient id="XMLID_115_" gradientUnits="userSpaceOnUse" x1="52.7123" y1="79.2015" x2="72.183" y2="34.9668">
		<stop  offset="0.3488" style="stop-color:#393033"/>
		<stop  offset="0.3894" style="stop-color:#706A6C"/>
		<stop  offset="0.4675" style="stop-color:#D6D4D5"/>
		<stop  offset="0.5023" style="stop-color:#FFFFFF"/>
		<stop  offset="1" style="stop-color:#FFFFFF"/>
	</linearGradient>
	<path id="XMLID_283_" class="st39" d="M142.5,33.7c-0.5-0.8-1.4-1.2-1.8-1.2H83.8c-1.6,0-2.9,0.8-3.9,1.8c-0.7,0.7-1.2,1.5-1.4,2.6
		c0,0-0.1,0.2-0.6,0.2H66.7c-0.5,0-0.6,0-0.6,0c-0.2-1.1-0.7-2.2-1.4-2.9c-1-1-2.3-1.7-3.9-1.7H3.9c-0.4,0-1.3,0.4-1.8,1.2
		c-0.2,0.4-0.4,1.2,0.1,2.2c0,0,1,1.8,1,1.8c0.4,0.7,0.9,1,1.9,1.1c0,0,0.5,0.1,0.8,0.7l1.1,1.9c0.2,0.4,0.7,1.4,2.6,1.7
		c0,0,0.6,0.1,0.8,0.6c0,0,1.3,2.3,1.3,2.3c0.4,0.7,0.9,1,1.9,1.3c0,0,23.8,7,23.8,7c0.8,0.2,1.1,1.2,1.1,1.2c0.6,1.5,1.3,2.7,5,3.8
		c0,0,19.5,5.3,19.5,5.3c0.2,0.1,2.5,0.8,4.1-0.9c0,0,4.6-4.3,4.6-4.4c0,0,0.2-0.2,0.4-0.2c0.3,0,0.4,0.2,0.4,0.2
		c0,0,4.6,4.4,4.6,4.4c1.7,1.6,3.9,0.9,4.1,0.9c0,0,19.5-5.3,19.5-5.3c3.7-1.1,4.5-2.3,5-3.8c0,0,0.3-0.9,1.1-1.2c0,0,23.8-7,23.8-7
		c1-0.3,1.5-0.6,1.9-1.3c0,0,1.3-2.3,1.3-2.3c0.3-0.5,0.8-0.6,0.8-0.6c1.8-0.2,2.3-1.2,2.6-1.7l1.1-1.9c0.3-0.6,0.8-0.6,0.8-0.6
		c1-0.1,1.5-0.3,1.9-1c0,0,1-1.9,1-1.9C142.9,34.9,142.7,34.1,142.5,33.7z M67.4,47.3h2l-2.8,10.3c-1.6-0.2-3.1-0.5-4.6-0.9
		C63.9,53.2,66.7,48.4,67.4,47.3z M66.4,47.3L61,56.4c-1.5-0.4-2.9-0.9-4.3-1.5c2.9-3.1,6.5-7.3,7.3-7.7H66.4z M53.7,47.3h5.1
		l-7.1,5.1c-1.2-0.7-2.4-1.6-3.6-2.5C50.8,48.7,53.2,47.3,53.7,47.3z M47.4,49.4c-0.1-0.1-1.7-1.7-2.4-2.1h6.8L47.4,49.4z
		 M60.2,47.3H63l-7,7.3c-1.2-0.5-2.3-1.1-3.5-1.8C55.8,50.4,59.4,47.7,60.2,47.3z M60.8,33.6c1.3,0,2.4,0.7,3.1,1.4
		c0.5,0.5,0.9,1.4,1.1,2.3c0,0,0-0.3,0.1,0.4h-28c-0.4-1.1-1.1-2.3-1.1-2.3c0-0.1-0.5-0.8-1.4-1.9C48.1,33.6,60.8,33.6,60.8,33.6z
		 M41.9,44c-0.4-0.4-0.7-0.8-1-1.3l2.5-0.3v1.3L41.9,44z M43.4,44.6v1c-0.4-0.3-0.5-0.6-0.8-0.9C42.9,44.7,43,44.6,43.4,44.6z
		 M40.3,42c-0.3-0.4-0.6-0.9-0.9-1.3l4.1-0.3v1.1L40.3,42z M38.7,39.7c-0.3-0.5-0.7-0.8-1-1.6h5.7v1.5L38.7,39.7z M5.3,37.8
		c-0.7,0-0.9-0.2-1.1-0.5c0,0-0.9-1.6-1-1.7C3,35.2,3,34.7,3,34.6c0-0.4,0.3-1,1-1h28.4c1.9,0,3.1,2.3,3.1,2.3
		c0.3,0.5,0.5,1.1,0.9,1.9H5.3z M9.2,41.7c-0.7-0.2-1-0.9-1.1-1.1c-0.4-0.8-1-1.7-1.3-2.4h30c0.3,0.8,0.6,1.1,0.9,1.6l-26.3,1.8
		C11,41.7,9.8,41.9,9.2,41.7z M12.7,45.3L11.5,43c-0.1-0.2-0.2-0.3-0.3-0.4c0.2,0,27.1-1.8,27.1-1.8c0.3,0.4,0.6,0.9,1,1.3L14,45.5
		C13.1,45.7,12.8,45.3,12.7,45.3z M20.1,48c-2.6-0.8-4.7-1.4-5.6-1.7l25.4-3.4c0.3,0.4,0.7,0.9,1.1,1.3l-17.3,3.6
		C23,47.9,21.1,48.2,20.1,48z M28.7,50.5c-1.9-0.6-4-1.2-5.9-1.7c0.5-0.1,0.9-0.1,0.9-0.2c0,0,12.6-2.6,17.8-3.7
		c0.5,0.6,1.1,1.2,1.6,1.7l-11.6,3.6C31.5,50.3,30,50.8,28.7,50.5z M37.8,53.1c-0.3-0.1-3-0.9-6.6-1.9c0.3-0.1,0.6-0.2,0.6-0.2
		c0,0,9.8-3,12-3.7c0.8,0.8,1.7,1.6,2.7,2.4l-6.3,2.9C39.8,52.9,38.6,53.4,37.8,53.1z M42.8,57.7c-2.5-0.9-2.8-1.9-3.2-2.7
		c0-0.1-0.2-0.6-0.6-1c0.8-0.2,1.5-0.5,1.6-0.5c0,0,3.3-1.6,6.6-3.1c1.2,0.9,2.4,1.8,3.7,2.6l-5.9,4.2C45.1,57.1,43.9,58,42.8,57.7z
		 M49.9,59.7l-5.2-1.4c0.5-0.2,0.9-0.5,0.9-0.5c0,0,2.9-2.1,6.2-4.4c1.2,0.7,2.4,1.3,3.6,1.9l-3.4,3.6
		C51.6,59.1,50.7,59.9,49.9,59.7z M57.1,61.7l-5.6-1.5c0.6-0.3,1-0.7,1-0.8c0,0,1.6-1.7,3.6-3.8c1.4,0.6,2.9,1.1,4.4,1.6l-1.9,3.1
		C58.5,60.7,57.8,61.8,57.1,61.7z M64.4,63.2c-0.3,0.2-0.7,0.2-1.1,0.1L58.4,62c0.6-0.5,1-1.2,1.1-1.3c0,0,0.8-1.4,2-3.3
		c1.6,0.4,3.2,0.7,4.9,1l-0.9,3.4C65.3,61.8,65.1,62.8,64.4,63.2z M66.6,62.8c-0.4,0.4-0.8,0.6-1.2,0.7c0.5-0.6,0.7-1.4,0.8-1.5
		l1-3.5c1.2,0.1,2.5,0.2,3.7,0.3C69.8,59.7,66.6,62.8,66.6,62.8z M71.9,57.9c-1.9,0-3.1-0.1-4.6-0.3l2.9-10.4h1.7V57.9z M79.5,37.5
		c0.2-0.9,0.6-1.9,1.1-2.5c0.8-0.8,1.8-1.4,3.1-1.4c0,0,12.7,0,26.1,0c-0.9,1.1-1.4,1.8-1.4,1.9c-0.3,0.6-0.7,1.2-1.1,2.3h-28
		C79.5,37,79.5,37.5,79.5,37.5z M101.2,43.7v-1.3l2.6,0.3c-0.3,0.4-0.7,0.8-1.1,1.3C102.1,43.9,101.2,43.8,101.2,43.7z M102.1,44.7
		c-0.3,0.3-0.4,0.6-0.8,0.9v-1L102.1,44.7z M101.2,41.6v-1.1l4.1,0.3c-0.3,0.4-0.6,0.8-1,1.3L101.2,41.6z M101.2,39.6v-1.5h5.7
		c-0.3,0.8-0.6,1.1-1,1.6L101.2,39.6z M85.8,47.3h5.1l5.6,2.6c-1.2,0.9-2.4,1.7-3.6,2.5C90.2,50.4,87.4,48.4,85.8,47.3z M92.2,52.8
		c-1.1,0.6-2.3,1.2-3.5,1.8c-2.6-2.7-5.6-6.2-7-7.3h2.7L92.2,52.8z M92.9,47.3h6.8c-0.7,0.4-2.3,2-2.4,2.1
		C95.6,48.6,94,47.7,92.9,47.3z M80.5,47.3l7.3,7.7c-1.4,0.6-2.8,1.1-4.3,1.5l-5.4-9.1H80.5z M77.3,47.3l5.5,9.4
		c-1.5,0.4-3.1,0.7-4.7,0.9l-2.8-10.3H77.3z M72.7,57.9V47.3h1.7l2.9,10.4C75.8,57.8,74.6,57.9,72.7,57.9z M77.4,62.1
		c0,0-2.6-2.5-3.5-3.4c1.3,0,2.5-0.1,3.7-0.3l1,3.5c0,0.1,0.2,0.9,0.8,1.5C78.5,63.3,78.3,63,77.4,62.1z M81.4,63.4
		c-0.4,0.1-0.8,0.1-1.1-0.1c-0.7-0.4-0.9-1.4-0.9-1.4l-0.9-3.4c1.7-0.2,3.3-0.6,4.9-1l2,3.3c0.1,0.1,0.5,0.8,1.1,1.3L81.4,63.4z
		 M87.5,61.7c-0.6,0.1-1.4-1-1.6-1.4L84,57.2c1.5-0.4,3-1,4.4-1.6l3.6,3.8c0,0,0.4,0.4,1,0.8L87.5,61.7z M95.7,59.5l-0.9,0.3
		c-0.8,0.2-1.7-0.6-2-0.9c0,0-1.5-1.6-3.4-3.6c1.2-0.6,2.4-1.2,3.6-1.9l6.2,4.4c0,0,0.4,0.3,0.9,0.5C98.6,58.7,95.7,59.5,95.7,59.5z
		 M105,55c-0.3,0.9-0.7,1.8-3.2,2.8c-1,0.3-2.2-0.6-2.2-0.6c0,0-2.8-2-5.9-4.2c1.3-0.8,2.5-1.6,3.7-2.6l6.6,3.1c0,0,0.7,0.4,1.6,0.5
		C105.2,54.4,105,54.9,105,55z M106.8,53.1c-0.8,0.2-2-0.3-2.4-0.5c0,0-3.1-1.5-6.3-2.9c1-0.8,1.9-1.6,2.7-2.4l12,3.7
		c0,0,0.2,0.1,0.6,0.2L106.8,53.1z M115.9,50.5c-1.2,0.3-2.8-0.4-2.8-0.4l0-0.2h0l-11.6-3.4c0.6-0.6,1.1-1.1,1.6-1.7l17.8,3.7
		c0,0,0.4,0.1,0.9,0.2L115.9,50.5z M124.5,48c-0.9,0.3-2.8,0-3.5-0.2c0,0-11.9-2.4-17.3-3.6c0.4-0.4,0.7-0.9,1.1-1.3l25.3,3.4
		L124.5,48z M133.2,43.1c0,0-1,1.8-1.3,2.2c-0.1,0.1-0.4,0.4-1.3,0.3l-25.2-3.4c0.3-0.5,0.7-0.9,1-1.3l26.8,1.8c0,0,0.2,0,0.3,0
		C133.4,42.7,133.3,42.9,133.2,43.1z M137.7,38.7l-1.1,2c-0.2,0.3-0.4,0.8-1.1,1c-0.6,0.2-1.8,0.1-2.2,0l-26.3-1.9
		c0.3-0.5,0.7-0.9,0.9-1.6h30C137.8,38.2,137.7,38.6,137.7,38.7z M141.4,35.5c0,0-1,1.7-1,1.7c-0.2,0.3-0.3,0.5-1.1,0.5
		c0,0-31,0-31,0c0.3-0.6,0.6-1.4,0.9-1.9c0,0,1.1-2.3,3.1-2.3h28.4c0.3,0,0.7,0.3,0.9,0.7c0,0,0.1,0.3,0.1,0.5
		C141.7,34.9,141.6,35.2,141.4,35.5z"/>
	
		<linearGradient id="XMLID_116_" gradientUnits="userSpaceOnUse" x1="52.0784" y1="79.2059" x2="71.5491" y2="34.9711" gradientTransform="matrix(-1 0 0 1 144 0)">
		<stop  offset="0.3488" style="stop-color:#393033"/>
		<stop  offset="0.3894" style="stop-color:#706A6C"/>
		<stop  offset="0.4675" style="stop-color:#D6D4D5"/>
		<stop  offset="0.5023" style="stop-color:#FFFFFF"/>
		<stop  offset="1" style="stop-color:#FFFFFF"/>
	</linearGradient>
	<path id="XMLID_329_" class="st40" d="M2.3,35.9c0,0,1,1.8,1,1.8c0.4,0.7,0.9,1,1.9,1c0,0,0.5,0.1,0.8,0.6l1.1,1.9
		c0.2,0.4,0.7,1.4,2.6,1.7c0,0,0.6,0.1,0.8,0.6c0,0,1.3,2.3,1.3,2.3c0.4,0.7,0.9,1,1.9,1.3c0,0,23.8,7,23.8,7
		c0.8,0.2,1.1,1.2,1.1,1.2c0.6,1.5,1.3,2.7,5,3.8c0,0,19.5,5.3,19.5,5.3c0.2,0.1,2.5,0.8,4.1-0.9c0,0,4.6-4.3,4.6-4.4
		c0,0,0.2-0.2,0.4-0.2c0.3,0,0.4,0.2,0.4,0.2c0,0,4.6,4.4,4.6,4.4c1.7,1.6,3.9,0.9,4.1,0.9c0,0,19.5-5.3,19.5-5.3
		c3.7-1.1,4.5-2.3,5-3.8c0,0,0.3-0.9,1.1-1.2c0,0,23.8-7,23.8-7c1-0.3,1.5-0.6,1.9-1.3c0,0,1.3-2.3,1.3-2.3c0.3-0.5,0.8-0.6,0.8-0.6
		c1.8-0.2,2.3-1.2,2.6-1.7l1.1-1.9c0.3-0.6,0.8-0.6,0.8-0.6c1-0.1,1.5-0.3,1.9-1c0,0,1-1.8,1-1.8c0.5-0.9,0.3-1.8,0.1-2.2
		c-0.5-0.8-1.4-1.2-1.8-1.2H83.8c-1.6,0-2.9,0.7-3.9,1.7c-0.7,0.7-1.2,1.7-1.4,2.8c0,0-0.1,0.1-0.6,0.1H66.7c-0.5,0-0.6-0.1-0.6-0.1
		c-0.2-1.1-0.7-2-1.4-2.7c-1-1-2.3-1.7-3.9-1.7H3.9c-0.4,0-1.3,0.4-1.8,1.2C1.9,34.1,1.8,35,2.3,35.9z M82.8,56.6
		c-1.5,0.4-3.1,0.7-4.6,1l-2.8-10.3h2C78,48.4,80.7,53.1,82.8,56.6z M80.5,47.3c0.9,0.4,4.4,4.6,7.3,7.6c-1.4,0.6-2.8,1.1-4.3,1.5
		l-5.4-9.2H80.5z M96.5,49.9c-1.2,0.9-2.4,1.8-3.6,2.5l-7.1-5.1h5.1C91.4,47.3,93.9,48.7,96.5,49.9z M92.9,47.3h6.8
		c-0.7,0.4-2.3,2-2.4,2.1L92.9,47.3z M92.2,52.8c-1.1,0.6-2.3,1.3-3.5,1.8l-7-7.3h2.7C85.3,47.7,88.8,50.4,92.2,52.8z M109.9,33.6
		c-0.9,1.1-1.4,1.8-1.4,1.9c0,0-0.7,1.2-1.1,2.3h-28c0.1-0.8,0.1-0.4,0.1-0.4c0.2-0.9,0.6-1.8,1.1-2.4c0.8-0.8,1.8-1.4,3.1-1.4
		C83.8,33.6,96.5,33.6,109.9,33.6z M101.2,43.7v-1.3l2.6,0.3c-0.3,0.4-0.7,0.8-1.1,1.3L101.2,43.7z M102,44.7
		c-0.3,0.3-0.4,0.6-0.8,0.9v-1C101.6,44.6,101.7,44.7,102,44.7z M101.2,41.6v-1.1l4.1,0.3c-0.3,0.4-0.7,0.8-1,1.3L101.2,41.6z
		 M101.2,39.6v-1.5h5.7c-0.3,0.8-0.6,1.1-1,1.6L101.2,39.6z M108.4,37.8c0.3-0.8,0.6-1.4,0.9-1.9c0,0,1.1-2.3,3.1-2.3h28.4
		c0.7,0,1,0.6,1,1c0,0.2,0,0.6-0.2,0.9c-0.1,0.1-1,1.8-1,1.8c-0.2,0.4-0.4,0.6-1.1,0.6H108.4z M133.3,41.7l-26.3-1.9
		c0.3-0.5,0.7-0.9,0.9-1.6h30c-0.3,0.8-0.9,1.7-1.3,2.4c-0.1,0.3-0.4,0.9-1.1,1.1C134.9,41.9,133.7,41.7,133.3,41.7z M130.6,45.5
		l-25.2-3.4c0.3-0.5,0.7-0.9,1-1.3c0,0,27,1.8,27.1,1.8c-0.1,0.1-0.2,0.3-0.3,0.4l-1.3,2.2C131.9,45.3,131.6,45.7,130.6,45.5z
		 M121.1,47.8l-17.3-3.6c0.4-0.4,0.7-0.9,1.1-1.3l25.4,3.4c-0.9,0.3-3,0.9-5.6,1.7C123.5,48.2,121.7,47.9,121.1,47.8z M113.1,50.3
		l-11.6-3.6c0.6-0.6,1.1-1.2,1.6-1.7c5.2,1.1,17.8,3.7,17.8,3.7c0,0,0.4,0.1,0.9,0.2c-1.9,0.6-4,1.2-5.9,1.7
		C114.7,50.8,113.1,50.3,113.1,50.3z M104.4,52.7l-6.3-2.9c1-0.8,1.9-1.6,2.7-2.4c2.3,0.7,12,3.7,12,3.7c0,0,0.3,0.1,0.6,0.2
		c-3.6,1.1-6.3,1.9-6.6,1.9C106,53.4,104.8,52.9,104.4,52.7z M99.5,57.1l-5.9-4.2c1.3-0.8,2.5-1.6,3.7-2.6c3.3,1.6,6.6,3.1,6.6,3.1
		c0,0,0.7,0.4,1.6,0.5c-0.4,0.5-0.6,0.9-0.6,1c-0.3,0.9-0.7,1.8-3.2,2.7C100.8,58,99.6,57.1,99.5,57.1z M92.7,58.8l-3.4-3.6
		c1.2-0.6,2.4-1.2,3.6-1.9c3.2,2.3,6.2,4.4,6.2,4.4c0,0,0.4,0.3,0.9,0.5l-5.2,1.4C94,59.9,93,59.1,92.7,58.8z M85.9,60.3L84,57.2
		c1.5-0.4,3-1,4.4-1.6c2,2.1,3.6,3.8,3.6,3.8c0,0,0.4,0.4,1,0.8l-5.6,1.5C86.9,61.8,86.1,60.7,85.9,60.3z M79.3,61.8l-0.9-3.4
		c1.7-0.2,3.3-0.6,4.9-1c1.1,1.9,2,3.3,2,3.3c0.1,0.1,0.5,0.8,1.1,1.3l-4.9,1.3c-0.4,0.1-0.8,0.1-1.1-0.1
		C79.5,62.8,79.3,61.8,79.3,61.8z M73.8,58.7c1.3,0,2.5-0.1,3.7-0.3l1,3.5c0,0.1,0.2,0.9,0.8,1.5c-0.4-0.1-0.8-0.3-1.2-0.7
		C78.1,62.8,74.8,59.7,73.8,58.7z M72.7,47.3h1.7l2.9,10.4c-1.5,0.2-2.7,0.3-4.6,0.3V47.3z M65.2,37.8h-28c-0.5-1.1-0.8-1.7-1.1-2.3
		c0-0.1-0.5-0.8-1.4-1.9c13.4,0,26.1,0,26.1,0c1.3,0,2.4,0.7,3.1,1.4c0.5,0.5,0.9,1.6,1.1,2.4C65.1,37.4,65.1,37,65.2,37.8z
		 M41.9,44c-0.4-0.4-0.7-0.8-1-1.3l2.5-0.3v1.3C43.4,43.8,42.5,43.9,41.9,44z M43.4,44.6v1c-0.4-0.3-0.6-0.6-0.8-0.9L43.4,44.6z
		 M40.2,42c-0.3-0.4-0.6-0.9-0.9-1.3l4.1-0.3v1.1L40.2,42z M38.7,39.7c-0.3-0.5-0.7-0.8-1-1.6h5.7v1.5L38.7,39.7z M51.7,52.4
		c-1.2-0.7-2.4-1.5-3.6-2.4l5.6-2.7h5.1C57.3,48.4,54.4,50.4,51.7,52.4z M60.2,47.3H63c-1.4,1.1-4.5,4.6-7,7.3
		c-1.2-0.5-2.3-1.1-3.5-1.7L60.2,47.3z M47.4,49.4c-0.1,0-1.7-1.7-2.4-2.1h6.8C50.6,47.7,49,48.6,47.4,49.4z M66.4,47.3L61,56.4
		c-1.5-0.4-2.9-0.9-4.3-1.4l7.3-7.7H66.4z M69.4,47.3l-2.8,10.2c-1.6-0.2-3.1-0.5-4.7-0.9l5.5-9.4H69.4z M67.3,57.7l2.9-10.4h1.7
		v10.7C70,57.9,68.8,57.8,67.3,57.7z M65.4,63.5c0.5-0.6,0.7-1.4,0.8-1.5l1-3.5c1.2,0.1,2.5,0.2,3.7,0.3c-0.9,0.8-3.5,3.4-3.5,3.4
		C66.3,63,66.1,63.3,65.4,63.5z M58.4,62c0.6-0.5,1-1.2,1.1-1.3l2-3.3c1.6,0.4,3.2,0.7,4.9,1l-0.9,3.4c0,0.1-0.2,1-0.9,1.4
		c-0.3,0.2-0.7,0.2-1.1,0.1L58.4,62z M51.5,60.1c0.6-0.3,1-0.7,1-0.8l3.6-3.8c1.4,0.6,2.9,1.1,4.4,1.6l-1.9,3.2
		c-0.2,0.4-1,1.5-1.6,1.4L51.5,60.1z M44.7,58.3c0.5-0.2,0.9-0.5,0.9-0.5l6.2-4.4c1.2,0.7,2.4,1.3,3.6,1.9c-1.9,2-3.4,3.6-3.4,3.6
		c-0.3,0.3-1.3,1.1-2,0.9L49,59.5C49,59.5,46.1,58.7,44.7,58.3z M39.1,53.9c0.8-0.2,1.5-0.5,1.6-0.5l6.6-3.1
		c1.2,0.9,2.4,1.8,3.7,2.6c-3.1,2.2-5.9,4.2-5.9,4.2c0,0-1.2,0.9-2.2,0.6c-2.5-0.9-2.8-1.9-3.2-2.8C39.6,54.9,39.5,54.4,39.1,53.9z
		 M31.2,51.2c0.3-0.1,0.6-0.1,0.6-0.2l12-3.7c0.8,0.8,1.7,1.6,2.7,2.4c-3.2,1.5-6.3,2.9-6.3,2.9c-0.4,0.2-1.6,0.7-2.4,0.5L31.2,51.2
		z M22.8,48.7c0.5-0.1,0.9-0.2,0.9-0.2l17.8-3.7c0.5,0.6,1.1,1.1,1.6,1.7L31.6,50h0l0,0.2c0,0-1.6,0.7-2.8,0.4L22.8,48.7z
		 M14.5,46.3l25.3-3.4c0.3,0.4,0.7,0.9,1.1,1.3c-5.5,1.1-17.3,3.6-17.3,3.6c-0.6,0.1-2.5,0.4-3.5,0.2L14.5,46.3z M11.2,42.6
		c0.2,0,0.3,0,0.3,0l26.8-1.8c0.3,0.4,0.6,0.9,1,1.3L14,45.5c-1,0.1-1.3-0.2-1.3-0.3c-0.2-0.4-1.3-2.2-1.3-2.2
		C11.4,42.9,11.3,42.7,11.2,42.6z M6.8,38.2h30c0.3,0.8,0.6,1.1,0.9,1.6l-26.3,1.9c-0.4,0.1-1.6,0.1-2.2,0c-0.7-0.2-0.9-0.7-1.1-1
		l-1.1-2C6.9,38.6,6.8,38.2,6.8,38.2z M3,34.8c0-0.2,0.1-0.5,0.1-0.5c0.2-0.3,0.6-0.7,0.9-0.7h28.4c1.9,0,3,2.2,3.1,2.3
		c0.3,0.5,0.5,1.2,0.9,1.8c0,0-31,0-31,0c-0.8-0.1-0.9-0.2-1.1-0.5c0,0-1-1.7-1-1.7C3,35.2,3,34.9,3,34.8z"/>
	
		<radialGradient id="_170831360_1_" cx="-81.9924" cy="209.2627" r="15.7847" gradientTransform="matrix(2.628 0 0 -2.628 287.7947 592.4126)" gradientUnits="userSpaceOnUse">
		<stop  offset="0" style="stop-color:#756B75"/>
		<stop  offset="1" style="stop-color:#393033"/>
	</radialGradient>
	<path id="_170831360" class="st41" d="M44.1,46.4C44.1,46.4,44.1,46.4,44.1,46.4l0-7.9h56.4v7.9c0,0,0,0,0,0L44.1,46.4L44.1,46.4
		L44.1,46.4z"/>
	<g id="XMLID_2_">
		<path id="_171137640" class="st42" d="M47.9,39.8h-0.2l-2.4,5.4h0.7l0,0c0.2-0.7,0.4-1.3,0.7-1.9c0,0,0-0.1,0.1-0.1
			c0.1,0,1.8,0,1.9,0c0.3,0.6,0.5,1.2,0.8,2l0,0h0.9L47.9,39.8L47.9,39.8L47.9,39.8z M46.8,42.7c0-0.1,0.7-1.6,0.8-1.8
			c0.1,0.2,0.7,1.7,0.8,1.8C48.2,42.7,46.9,42.7,46.8,42.7L46.8,42.7L46.8,42.7z"/>
		<path id="_171199256" class="st42" d="M50.5,44.8L50.5,44.8c0.3,0.3,0.9,0.5,1.3,0.5c1.1,0,1.9-0.7,1.9-1.8c0-0.9-0.7-1.1-1.3-1.4
			c-0.6-0.2-1.1-0.4-1.1-1.1c0-0.5,0.4-0.8,0.9-0.8c0.4,0,0.7,0.2,0.9,0.6l0,0h0.1l0.2-0.7l0,0c-0.3-0.3-0.8-0.4-1.1-0.4
			c-1.1,0-1.7,0.6-1.7,1.5c0,0.9,0.7,1.2,1.3,1.4c0.6,0.2,1.1,0.4,1.1,1.1c0,0.6-0.4,1.1-1,1.1c-0.5,0-0.9-0.2-1.2-0.8l0,0h-0.1
			L50.5,44.8L50.5,44.8L50.5,44.8z"/>
		<path id="_171234112" class="st42" d="M57.9,39.9h-4v0.6l0.1,0c0.5,0,0.9-0.1,1.6-0.1c0,0.1,0,4.8,0,4.8h0.8c0,0,0-4.7,0-4.8
			c0.5,0,1.1,0,1.5,0.1l0.1,0L57.9,39.9L57.9,39.9L57.9,39.9z"/>
		<path id="_171242176" class="st42" d="M60.7,39.8c-1.7,0-2.9,1.1-2.9,2.8c0,1.6,1.1,2.7,2.8,2.7c1.8,0,2.9-1.1,2.9-2.8
			C63.6,40.6,62.1,39.8,60.7,39.8L60.7,39.8z M62.1,44.3c-0.4,0.4-0.8,0.6-1.4,0.6c-1.2,0-2-0.9-2-2.3c0-1.5,0.8-2.5,2.1-2.5
			c0.6,0,1.2,0.3,1.5,0.7c0.4,0.5,0.5,1,0.5,1.6c0,0,0,0.1,0,0.1C62.7,43.1,62.5,43.8,62.1,44.3L62.1,44.3L62.1,44.3z"/>
		<path id="_171242152" class="st42" d="M68.9,39.9h-0.5c0,0,0,3.8,0,3.9c0,0,0,0,0,0c0,0-3.6-3.9-3.6-3.9h-0.4v5.3h0.5
			c0,0,0-4,0-4.1c0,0,0,0,0,0c0,0,3.3,3.6,3.3,3.6l0.4,0.5h0h0.3L68.9,39.9L68.9,39.9L68.9,39.9L68.9,39.9z"/>
		<path id="_171249360" class="st42" d="M77.4,39.9h-0.2l-1.3,2.3c0,0-0.8,1.5-0.9,1.6c-0.8-1.3-1.5-2.7-2.1-3.9l0,0h-0.3l0,0
			c-0.1,0.8-0.5,4-0.7,5.2l0,0.1h0.6v0c0-0.7,0.1-1.9,0.3-3c0,0,0.1-0.5,0.1-0.7c0.1,0.2,1.1,2.1,1.5,2.8l0.4,0.9h0.1l0,0
			c0.4-1,1.1-2.2,1.9-3.7c0.1,0.9,0.3,2.7,0.4,3.8l0,0h0.8l0-0.1C77.9,43.8,77.7,42.1,77.4,39.9L77.4,39.9L77.4,39.9L77.4,39.9
			L77.4,39.9z"/>
		<path id="_171205240" class="st42" d="M81,39.8h-0.2l-2.4,5.4H79l0,0c0.2-0.7,0.4-1.3,0.7-1.9c0,0,0-0.1,0-0.1c0.1,0,1.8,0,1.9,0
			c0.3,0.6,0.5,1.3,0.8,2l0,0h0.9L81,39.8L81,39.8L81,39.8z M79.9,42.7c0-0.1,0.7-1.6,0.8-1.8c0.1,0.2,0.7,1.7,0.8,1.8
			C81.3,42.7,80.1,42.7,79.9,42.7z"/>
		<path id="_171209080" class="st42" d="M85.6,42.6c1-0.2,1.5-0.7,1.5-1.5c0-0.8-0.6-1.2-1.7-1.2h-1.7v5.3h0.8c0,0,0-2.4,0-2.5
			c0.1,0,0.2,0,0.2,0c0,0,0.6,0.7,0.6,0.7c0,0,0.9,1.2,0.9,1.2l0.5,0.7h0h1C87.7,45.2,85.7,42.7,85.6,42.6L85.6,42.6L85.6,42.6z
			 M84.5,42.3c0-0.1,0-1.9,0-2c0.3,0,0.8,0,1.1,0c0.5,0.1,0.8,0.4,0.8,0.9c0,0.5-0.3,0.9-0.9,1C85.1,42.3,84.7,42.3,84.5,42.3z"/>
		<path id="_171209056" class="st42" d="M91.6,39.9h-4v0.6l0.1,0c0.5,0,0.9-0.1,1.6-0.1c0,0.1,0,4.8,0,4.8H90c0,0,0-4.7,0-4.8
			c0.5,0,1.1,0,1.5,0.1l0.1,0L91.6,39.9L91.6,39.9L91.6,39.9L91.6,39.9z"/>
		<polygon id="_171221600" class="st42" points="92.2,45.2 93,45.2 93,39.9 92.2,39.9 		"/>
		<path id="_171224520" class="st42" d="M98.1,39.9c0,0,0,3.8,0,3.9c0,0,0,0,0,0c0,0-3.6-3.9-3.6-3.9h-0.4v5.3h0.5c0,0,0-4,0-4.1
			c0,0,0,0,0,0c0,0,3.3,3.6,3.3,3.6l0.4,0.5h0.3v-5.3H98.1L98.1,39.9z"/>
	</g>
</g>
</svg>
