<?xml version="1.0" encoding="utf-8"?>
<!-- Generator: Adobe Illustrator 24.0.2, SVG Export Plug-In . SVG Version: 6.00 Build 0)  -->
<svg version="1.1" id="Layer_1" xmlns="http://www.w3.org/2000/svg" xmlns:xlink="http://www.w3.org/1999/xlink" x="0px" y="0px"
	 viewBox="0 0 144 101" style="enable-background:new 0 0 144 101;" xml:space="preserve">
<style type="text/css">
	.st0{fill:#E6E7E8;}
	.st1{fill:#ACAFB2;}
	.st2{fill:#01336B;}
	.st3{fill:#8D9093;}
	.st4{fill:#5F6269;}
	.st5{fill:#101A4B;}
	.st6{fill:#FFFFFF;}
	.st7{fill:none;}
</style>
<g id="Layer_1_1_">
</g>
<g>
	<path class="st0" d="M69.7,99.3c-1-0.4-8.1-3.8-10-4.9c-13.3-7.2-22.1-15.9-29.3-28.8c-4.9-8.7-7.5-18-8.3-29.8
		c-0.2-2.6-0.1-11.4,0.2-14.5l0.1-1.3l1.9-1.5c7-5.4,15.4-10,22.8-12.5c4.2-1.4,9.3-2.6,14.4-3.3c3.8-0.5,12.9-0.6,16.6-0.1
		c8.8,1.1,15.6,3.1,23.1,6.8c5.6,2.8,11.6,6.6,16.1,10.3l0.6,0.5l0.2,3.5c0.2,4.3,0.1,12.5-0.3,15.7c-0.6,5.2-1.3,8.8-2.8,13.8
		c-1.3,4.3-2.1,6.3-3.9,10c-3.8,7.4-7.8,13.1-13.4,18.6C91.2,88.2,85,92.4,74.3,97.4C70.4,99.3,70.1,99.4,69.7,99.3L69.7,99.3z
		 M35.6,65.2c-0.2-0.3-0.9-1.6-1.5-2.9c-3.6-7.2-5.8-14.6-6.7-23c-0.3-2.9-0.5-11.9-0.3-14.7l0.1-1.9L26.8,22c-0.6-0.8-0.6-0.9,0-1
		c0.3-0.1,0.9-0.4,1.3-0.7c2.2-1.7,6.6-4.6,9-5.9c4.1-2.2,4.4-2.3,13.5-4.9c3.6-1,6.7-1.7,9-2.2c1.5-0.3,2.2-0.6,1.4-0.6
		c-0.2,0-0.5-0.1-0.6-0.2c-0.2-0.3,0.4-0.6,1.9-1.1c0.8-0.2,1.5-0.5,1.6-0.6c0.3-0.3-0.8-0.4-2.7-0.2c-9.9,0.9-20.7,5-30.2,11.4
		c-1.4,0.9-3.4,2.3-4.5,3l-2,1.3l0.7,0.6c0.6,0.6,0.7,0.7,0.6,1.2c-0.2,0.9-0.1,10.9,0.1,13.6c0.5,5.9,1.4,10.3,3.2,16.2
		c1.6,5.2,4.2,10.5,6.4,13.2C35.9,66,36.1,65.9,35.6,65.2L35.6,65.2z M108.6,61.3c2.3-4.5,3.3-7.3,4.3-11c0.5-1.9,0.8-4.7,0.6-4.4
		c-0.1,0.1-0.4,1.4-0.9,2.9c-1.6,6.2-2.8,9.6-5.1,14.1c-0.7,1.4-1.1,2.3-0.9,2.1C106.8,64.8,107.7,63.1,108.6,61.3L108.6,61.3z
		 M42.3,28.8c0-0.1,0.1-0.2,0.3-0.3c0.2-0.1,0.5-0.5,0.7-0.8c0.2-0.3,1-1.3,1.7-2.1c3.6-4,7-6.6,11.4-8.6c2-0.9,3.2-1.4,6-2.1
		c1.3-0.3,2.3-0.7,2.4-0.8c0.1-0.1,0.4-0.2,0.6-0.2c0.4,0,0.4,0-0.1-0.3c-0.5-0.3-0.7-0.3-2.4,0.1c-6.3,1.3-12.6,4.7-17,9.4
		c-1.7,1.7-3.6,4.2-4.1,5.3c-0.2,0.4-0.5,0.9-0.6,1.1c-0.2,0.2-0.2,0.3,0,0.3c0.1,0,0.2,0.1,0.2,0.3c0,0.2,0.2,0,0.5-0.4
		C42.1,29.3,42.3,28.9,42.3,28.8L42.3,28.8z"/>
	<path class="st1" d="M67.2,97.8c-6.4-3-10.4-5.2-14.2-7.8C43.1,83.4,35.6,75,29.8,63.9c-3.1-5.9-5.4-13.1-6.6-20.5
		c-0.8-5.1-1-8.2-0.9-15.3c0.1-3.5,0.2-6.7,0.2-7.1c0.1-0.7,0.2-0.8,1.7-2C32,12.8,42.1,7.6,51.1,5.1c6.5-1.8,12.3-2.6,19-2.6
		c6.2,0,11.5,0.7,17.8,2.2c9.8,2.5,20.5,8,29.7,15.5c0.5,0.4,0.6,13.3,0.2,18.2c-0.5,5.6-1.3,9.4-3,14.9c-1.9,6.4-4.2,11.2-8.5,17.6
		c-2.9,4.4-5.1,7-8.6,10.5c-5.8,5.8-11.7,9.9-20.3,14.2c-3.7,1.9-7,3.4-7.3,3.4C69.9,99.1,68.7,98.5,67.2,97.8L67.2,97.8z
		 M74.3,95.3c4.5-2.3,6.3-3.3,7.4-4.3l5.6-3l9.3-6.8L109,64.3l6.6-18.3l1.2-14.9l-0.7-9.9l-9.8-7.4L94.2,8
		c-3.4-1.5-10.7-3.4-16.6-4.2c-3-0.4-10.7-0.5-14.1-0.2c-7,0.7-13.5,2.3-18.8,4.5c-6.4,2.7-9.9,4.6-16.2,8.9
		c-4.4,2.9-4.6,3.1-4.7,3.7c-0.1,0.3-0.2,2.6-0.2,5c-0.4,14.2,2,26.3,7.2,36.8c8.2,15.8,22.1,28.7,39,34.7
		C70.4,97.2,71.5,96.7,74.3,95.3L74.3,95.3z"/>
	<path class="st2" d="M67,91.1c-9-4.7-14.3-8.4-19.5-13.6c-4.9-4.9-8.1-9.1-11.4-15.3c-5.8-10.5-8-22.1-7-36.7l0.1-1.6l1.6-1.2
		c7.5-5.7,15.4-9.7,23-11.6c5.8-1.5,9.8-2,16.1-2c5.8,0,8.9,0.3,14.4,1.6c6.9,1.5,14.4,4.9,21.1,9.3c2.8,1.8,5.4,3.8,5.5,4.2
		c0.1,0.2,0.2,3.5,0.2,7.3c0,6.3,0,7.1-0.4,9.7c-1.4,10.3-4.3,18-9.9,26.4C95.2,76,87.9,82.8,78.7,88c-1.8,1-8.1,4.4-8.5,4.5
		C70.1,92.6,68.7,92,67,91.1L67,91.1z"/>
	<path class="st0" d="M73.7,80.9c6.1-0.7,12-3,16.9-6.6c1.7-1.2,4.7-4.1,6.1-5.9c3.5-4.3,6-9.5,7.1-15.1c0.4-2.1,0.5-2.4,0.5-6.5
		c0-3.7,0-4.5-0.4-6.2c-1.9-10.2-8.1-18.7-17.1-23.9c-3.2-1.8-7.2-3.3-11.2-3.9c-2.6-0.5-7.8-0.6-10.3-0.2
		c-8.5,1.3-16,5.3-21.4,11.6c-7.7,8.9-10.3,20.7-7,32.1c2.6,9.2,9.4,17.2,18.2,21.4c3.2,1.5,7.5,2.8,11,3.2
		C68.1,81.1,71.9,81.1,73.7,80.9L73.7,80.9z M65,76.6c-10.4-1.8-19.5-9-23.2-18.6c-1.4-3.7-2-6.4-2.1-10.3c-0.1-3.2,0.1-5.5,0.8-8.2
		c3-11.7,12-20.4,23.6-22.6c2.6-0.5,2.8-0.5,3.1,0.3c0.7,1.7,1.4,5.2,2,10.8c0.3,0.5-0.1,4.4,1.1,3.9c0.2-0.1,0.3-0.5,0.4-1.5
		c0.7-7,1.8-12.9,2.6-13.7c0.2-0.2,0.5-0.2,2,0c6.2,1,11.9,3.9,16.5,8.5c2.4,2.4,3.9,4.5,5.4,7.3c2.6,5,3.7,9.8,3.5,15.2
		c-0.1,2.8-0.4,4.4-1.1,7c-2.9,10.7-11.8,19.1-22.7,21.5c-1.1,0.2-2.3,0.5-2.7,0.5l-0.8,0.1L73,76.2c-0.8-1.9-1.8-7.6-2.2-12.4
		c-0.1-1.2-0.2-2.3-0.3-2.5c-0.1-0.3-0.6-0.4-0.8-0.2c0,0.1-0.3,1.9-0.5,4c-0.7,6.3-1.7,11.2-2.3,11.6C66.6,76.9,66.6,76.9,65,76.6
		L65,76.6z"/>
	<path class="st3" d="M67.2,78.8c-0.1,0-1.2-0.1-2.3-0.2c-2-0.2-4.2-0.7-6.3-1.5c-1-0.4-2.5-1.2-2.4-1.3c0,0,0.7,0.2,1.4,0.5
		c3.2,1.3,4.5,1.5,7.8,1.6c2.4,0.1,3.3,0.2,3.8,0.4c0.5,0.2,0.6,0.3,0.4,0.4C69.5,78.8,67.8,78.9,67.2,78.8L67.2,78.8z M70.2,78.7
		c-0.2-0.1-0.2-1-0.2-5.8c0-3.1,0.2-6.4,0.2-7.2c0-1.8,0-4.3-0.2-4.3c0.2,0,0.4,0.1,0.4,0.5c0.1,1.9,0.2,10.3,0.8,13.8
		c0.4,2.1,0.9,2.2,3.2,2.4c2.9-0.1,4.5-0.5,7.6-1.6c1-0.4,1.9-0.7,1.9-0.6c0.1,0.1-1.5,1-3,1.5c-2.1,0.8-4.3,1.2-6.9,1.4
		C71.4,78.9,70.6,78.9,70.2,78.7L70.2,78.7z"/>
	<path class="st3" d="M70.1,31.7c0.3,0,0.4-2.9,0.2-4.4c-0.3-2.2-0.3-12.6-0.1-12.8c0.4-0.4,4.4,0.1,7.2,0.8c2.9,0.7,4.5,1.3,7,2.6
		c1.9,1,3.6,2.1,3.5,2.3c0,0-1.1-0.5-2.4-1.1c-3-1.5-4.6-2.1-7.6-2.7c-1.4-0.3-3.1-0.7-3.8-0.8c-1.7-0.4-2.1-0.4-2.6,0.1
		c-0.4,0.3-0.4,0.6-0.6,2.2c-0.1,1.4-0.1,2.2,0,3.2C70.9,23.5,71.5,25,70.1,31.7L70.1,31.7z"/>
	<path class="st4" d="M67,97.5c-6.2-2.9-9.8-4.9-13.5-7.3c-9-5.9-15.9-13.3-21.7-23.2c-5.4-9.2-8.3-18.9-9.1-30.5
		c-0.2-2.8-0.1-13.9,0.1-15.4c0.2-1.5,0.4-0.4,0.2,2.1c-0.9,15.1,1.8,29.7,7.5,40.3c5.3,10,11.8,17.5,20.4,23.8
		c3.4,2.5,9.4,6,15.8,9.3c2.7,1.4,3.4,1.7,3.8,1.6c0.3,0,1.5-0.5,2.7-1.1c4.6-2.1,8.5-4.3,10.1-5.6c0.4-0.4,2.3-1.8,4.2-3.1
		c1.9-1.4,4.3-3.2,5.4-4.1c9.5-7.9,17.2-19.5,20.7-31c2.2-7.2,3.4-15.7,3.4-24.5c0-3.7-0.2-7.7-0.4-8.2c-0.1-0.2,0-0.3,0.3-0.3
		c0.4,0,0.4,0.1,0.5,0.8c0.3,2,0.4,9.4,0.3,12.8c-0.3,7.5-1.1,12.5-3.1,19.1c-1.4,4.5-2.1,6.4-3.9,10c-4,8-9.5,15.3-15.1,20.4
		c-5.5,5-10.1,8-18.1,12c-3.1,1.5-7.3,3.6-7.4,3.6C70,98.9,68.7,98.3,67,97.5L67,97.5z M66.9,94.5c-4.5-2.3-10.4-6.1-12.3-7.9
		c-0.7-0.7-0.7-0.7,1.9,0.9c2.5,1.6,5.9,3.4,9.7,5.3l3.7,1.8l2.3-1.1c7.7-3.8,12.6-6.8,17.2-10.6c7.1-5.9,12.5-12.4,17-20.6
		c4.8-9,7.2-19,7.2-30.8c0-3.2-0.3-8.8-0.5-9.4c-0.2-0.6-7-5.3-10.6-7.4c-3.9-2.2-8.7-4.3-13.6-6.1c-1.4-0.5-2.6-1-2.7-1
		c-0.3-0.3,4.1,0.8,6.6,1.5c4.2,1.3,8.8,3.5,12.6,5.9c1.7,1.1,6.7,4.7,8.2,6c0.4,0.3,0.4,0.5,0.6,2.7c0.2,3,0.1,12.1-0.3,15.1
		c-0.7,5.8-2.2,12.6-4.2,17.8c-1,2.7-3.7,8.3-5.3,10.9c-1.3,2.1-4.5,6.8-6,8.6c-2.6,3.2-8.9,9.2-11.7,10.9c-2,1.3-10.6,5.7-14.1,7.3
		c-1.1,0.5-2.2,1-2.5,1.2c-0.3,0.2-0.5,0.4-0.6,0.3C69.5,95.9,68.3,95.3,66.9,94.5L66.9,94.5z M70.4,78.5c-0.2-0.1-0.2-0.8-0.2-4.2
		c0.1-4.5,0.3-6.2,0.4-2.2c0,3.2,0.2,5.2,0.5,5.5c0.3,0.3,0.5,0.9,0.2,0.9c-0.1,0-0.3,0-0.4,0.1C70.8,78.6,70.6,78.6,70.4,78.5
		L70.4,78.5z M67.3,78.3c-0.1-0.2,1.3-0.2,1.6,0c0.2,0.1,0,0.2-0.6,0.2C67.8,78.5,67.4,78.4,67.3,78.3L67.3,78.3z M46.2,25.5
		c0-0.3,1.9-2.2,3.2-3.4c2.9-2.4,6.9-4.7,10.2-5.8c3.3-1,9.3-2.2,9.3-1.7c0,0.1,0,0.2-0.1,0.2c-0.6,0-3.5,0.7-5.8,1.3
		c-4.3,1.2-8.6,3.4-12.5,6.3C48,24.3,46.2,25.6,46.2,25.5L46.2,25.5z M70.4,22.9c-0.2-1.3-0.3-7.3-0.2-7.8l0.1-0.5l1.8,0.1
		c2,0.1,4.4,0.5,6.7,1.1c1.4,0.4,3.6,1.3,3.6,1.5c0,0-0.4,0-0.8-0.2c-1.8-0.6-8.3-2.1-9.3-2.2c-0.9-0.1-1-0.1-1.1,0.2
		c-0.1,0.2-0.2,0.5-0.4,0.8c-0.2,0.4-0.3,1.3-0.4,4.1C70.5,22.4,70.4,23.4,70.4,22.9L70.4,22.9z M28,40.1c-0.3-2.7-0.5-4.8-0.6-8
		c-0.1-3.4,0.1-9,0.4-9.3c0.1-0.1,0.3,0,0.5,0.4c0.3,0.5,0.3,0.7,0.3,1.5c-0.6,5.7-0.7,10-0.4,14.2C28.3,40,28.4,43.3,28,40.1
		L28,40.1z M114,18.6c-1.7-1.2-3.2-2.3-3.2-2.4c0-0.3,0.4-0.1,1.6,0.7c1.1,0.7,3.4,2.7,3.2,2.7C115.5,19.6,114.8,19.1,114,18.6
		L114,18.6z"/>
	<path class="st3" d="M66.2,97.2c-9.4-4.5-14.9-7.9-20.6-13c-8.4-7.5-15.7-18.3-19.3-28.9c-3.1-9-4.3-18.5-3.8-29.8
		c0.1-3.1,0.3-5,0.4-5.2c0.3-0.4,2.9-2.5,5-4c5.3-3.7,11.6-7.1,17.5-9.2c14.6-5.4,30.5-5.9,45.5-1.4c8,2.4,18.1,7.7,24.7,13
		c0.8,0.7,1.6,1.3,1.8,1.3c0.4,0.2,0.6,2.5,0.6,10.1c0,7.1-0.1,8.9-1,14.1c-0.5,3.1-1,5.1-2.2,9c-1.9,6.3-4.4,11.4-8.5,17.7
		c-6.9,10.4-15,17.5-27.1,23.8c-3.7,1.9-8.4,4.1-8.9,4.1C69.8,98.9,68.1,98.1,66.2,97.2L66.2,97.2z M73.4,96.6
		c2.7-1.3,4.3-2.1,4.9-2.7c0.2-0.2,1.5-1.1,2.9-1.9c7.4-4.4,12.2-8.1,16.5-12.6c4.5-4.7,7.9-9.3,11.2-15.3
		c5.4-9.8,7.9-21.1,7.9-35.5c0-2.7,0-5.5-0.1-6.3c-0.1-1.4-0.2-1.4-0.7-1.8c-12.4-9.3-23-14.8-38.2-17C74.4,3,65.4,3,62.2,3.5
		C55.1,4.4,49,5.9,44.7,7.9c-7.9,3.6-10.1,4.8-15.4,8.4c-2,1.3-4.1,2.7-4.7,3l-1,0.6l-0.1,1.1c-0.2,2.7-0.3,10.5-0.1,13.5
		c0.9,14.3,4.3,24.8,11.5,35.7c2.5,3.7,4.9,6.7,8.3,10.1c6.2,6.2,11.7,9.9,22.8,15.5c3.6,1.8,4.1,2,4.7,1.9
		C70.9,97.7,72.2,97.2,73.4,96.6L73.4,96.6z M66.8,94.7c-4.9-2.6-9.5-5.5-13.3-8.5c-2.2-1.7-6-5.2-6-5.5c0-0.1,0.3,0.1,0.7,0.4
		c3.3,2.8,8,6.1,11.9,8.3c2.8,1.6,9.3,4.9,9.7,4.9c0.4,0,7.1-3.4,9.7-4.8c11.8-6.7,20.3-15.3,26.8-27.4c2.8-5.2,5-11.5,6-17.6
		c0.7-4.3,1.2-12.2,0.9-16.4c-0.2-4,0.8-5-2.5-7.5c-9.5-6.9-17.5-10.7-28.4-13.3c-1.6-0.4-3.1-0.8-3.3-0.8c-0.6-0.2,1-0.2,3.1,0.1
		c9.2,1.3,16.8,4.1,24.5,9.2c2.2,1.5,6.5,4.7,7.2,5.4l0.4,0.4l0,7.4c0,8.1-0.1,9.6-1.1,14.9c-1.6,8.6-4.3,16.2-8.3,22.9
		c-1.1,1.8-3.9,6-5.9,8.6c-2.4,3.2-8.5,9.3-11.7,11.5C86.2,87.9,77,92.5,73,94.3c-1.3,0.6-2.5,1.2-2.6,1.4
		C70.1,96.3,69.4,96.1,66.8,94.7L66.8,94.7z M28.5,37l0.1,2c0.3,6.6,2.3,14.5,5.3,20.9c1.6,3.4,3.9,7.3,6.7,11.1
		c0.7,1,1.7,2.3,2.2,3c0.5,0.7,2.3,2.7,4.1,4.5c1.8,1.8,3,3,2.7,2.8c-6.5-5.8-11.4-12-15-19.4c-3.8-7.7-5.7-13.9-6.7-22.6
		c-0.4-3.2-0.5-15.9-0.1-16.5c0.8-1.3,8.9-6.8,13-8.7c1.6-0.8,4.8-2,5.1-2c0.1,0-0.7,0.4-1.8,1c-3.8,1.8-6.9,3.7-11.1,6.7
		c-0.8,0.6-2.2,1.5-3,2c-0.8,0.5-1.5,1-1.5,1.1L28.5,37L28.5,37z M50.2,81.8C50,81.5,50,81.5,50.2,81.8c0.3,0.2,0.4,0.3,0.3,0.3
		C50.4,82,50.3,81.9,50.2,81.8L50.2,81.8z"/>
	<path class="st5" d="M66.7,90.8C55,84.7,47.6,78.7,41.2,70.2c-5.8-7.8-9.4-15.9-11.1-25.1c-0.9-4.6-1-6.6-1-13.6
		c0-3.6,0.1-6.7,0.1-7.1c0.1-0.5,0.4-0.8,2-2c5.6-4.1,9.8-6.5,15.2-8.8c7.6-3.3,17.8-5,26.4-4.5c13.6,0.8,24.1,4.7,35.9,13.4
		c2,1.5,2.1,1.6,2,1.9c-0.1,0.2-0.1,0.2-0.3,0c-0.1-0.1-0.5-0.5-0.9-0.8c-0.4-0.3-1.4-1-2.2-1.6c-0.8-0.6-1.7-1.2-2.1-1.5
		c-0.4-0.2-1.1-0.7-1.6-1c-1.2-0.8-2.3-1.4-6-3.2c-4.6-2.3-5.7-2.8-6.2-2.9c-0.3-0.1-1.2-0.4-2-0.7c-5.6-2-12.5-3.1-19.3-3.1
		c-8.2,0-15.8,1.5-22.9,4.4c-1.9,0.8-6.3,3-8.1,4.1c-3.3,2-8.2,5.4-8.8,6.1c-0.4,0.6-0.6,2.6-0.6,7.6c0,9.4,1.5,17.3,4.7,25
		C38,65.5,45.3,75.1,53,81.5c2.7,2.2,3,2.4,3.9,3c0.4,0.3,1.4,0.9,2.1,1.4c0.7,0.5,1.4,0.9,1.5,0.9c0.1,0,0.2,0.1,0.2,0.2
		c0,0.1,0.3,0.3,0.7,0.5c1.8,0.9,2.8,1.5,3.6,2c0.5,0.3,1.1,0.6,1.2,0.6c0.2,0,0.3,0.1,0.4,0.2c0.1,0.1,0.4,0.3,0.8,0.5
		c0.4,0.2,0.8,0.4,1,0.5c0.1,0.1,0.6,0.3,1.1,0.5c0.4,0.2,0.8,0.4,0.7,0.5c-0.1,0.1-0.1,0.2-0.2,0.2C70,92.5,68.5,91.7,66.7,90.8
		L66.7,90.8z M67.2,82c-0.2,0-1.3-0.2-2.3-0.4c-1-0.2-2.1-0.4-2.3-0.5c-0.2-0.1-0.7-0.2-0.9-0.2c-0.6,0-4.1-1.2-5.7-2
		c-0.2-0.1-0.6-0.3-1-0.5c-0.4-0.2-1.2-0.6-1.7-1c-0.6-0.4-1.1-0.6-1.2-0.6c-0.2,0-2.1-1.4-2.8-2.1c-0.4-0.3-0.8-0.6-0.8-0.6
		c-0.1,0-0.3-0.2-0.6-0.5c-2.3-2.2-3.4-3.3-3.3-3.4c0.1-0.1,0.6,0.4,1.3,1.1c9.1,8.9,22.9,12.1,35.1,8c7.4-2.5,13.3-7,17.7-13.6
		c6-9,7.4-19.6,4.1-29.8c-2.9-8.7-9.4-16.1-17.7-20.3c-0.6-0.3-1-0.5-0.9-0.6c0.3,0,4.4,2,4.5,2.2c0.1,0.1,0.2,0.2,0.4,0.2
		c0.1,0,0.5,0.2,0.9,0.5c0.3,0.3,0.8,0.6,1.1,0.7c1.4,0.7,6.1,5.2,7.8,7.5c5.3,7,7.6,15.1,6.9,24c-0.1,1.6-0.3,3.3-0.4,3.7
		c-0.1,0.4-0.3,1.1-0.4,1.6c-0.4,1.8-1.8,5.7-2.5,7.1c-2.1,3.9-3.4,5.8-5.6,8.1c-3.8,4.1-8.4,7.2-13.2,9.1
		c-4.8,1.8-7.1,2.2-12.3,2.3C69.3,82,67.4,82,67.2,82L67.2,82z M73,76.1c-0.9-2.2-2.3-10.4-2.3-13.9c0-1.2,0.3-1.4,0.8-0.6
		c0.3,0.5,0.7,2.5,0.7,3.7c0,0.4,0.1,1.1,0.2,1.5c0.1,0.4,0.3,2,0.5,3.5c0.4,2.8,1,5.5,1.4,5.9c0.2,0.2,0.2,0.3-0.1,0.4
		C73.5,76.8,73.3,76.7,73,76.1L73,76.1z M65.3,76.4c0-0.1,0.1-0.1,0.4-0.1c0.3,0,0.5,0.1,0.5,0.1C66.2,76.6,65.4,76.5,65.3,76.4
		L65.3,76.4z M64.4,76.2c0.1-0.1,0.2-0.1,0.3,0c0.1,0.1,0.1,0.1-0.1,0.1C64.4,76.3,64.3,76.3,64.4,76.2L64.4,76.2z M62.3,75.8
		c-2.2-0.6-3.7-1.1-5.6-2.1C41.4,66.4,35.2,48,43,32.9c4.2-8.2,11.8-14,20.8-15.8c2.2-0.4,3.2-0.4,3.3,0.1c0,0.3,0,0.4-0.2,0.3
		c-0.3-0.1-3.2,0.4-4.2,0.7c-0.4,0.1-1.2,0.4-1.9,0.6c-1.6,0.5-5.3,2.3-6.9,3.4c-6.6,4.4-11,11-12.7,19c-0.5,2.2-0.6,6.6-0.3,9.1
		c0.4,3.4,1.3,6.5,2.8,9.5c0.9,1.8,1.4,2.7,3.2,5.2c0.7,1,3.5,3.8,5,5.1c1,0.9,3.6,2.6,3.8,2.6c0.1,0,0.3,0.2,0.5,0.3
		c0.2,0.2,0.4,0.3,0.5,0.3c0.1,0,0.4,0.1,0.7,0.3c0.3,0.2,0.7,0.4,1,0.4c0.3,0.1,0.6,0.2,0.7,0.3c0.2,0.2,2.2,0.9,3.5,1.2
		c0.6,0.2,1.2,0.4,1.3,0.4C64.4,76.2,63.7,76.2,62.3,75.8L62.3,75.8z M76.5,56.6c-0.6-0.3-2.4-1.9-2.3-2c0.1-0.1,0.4,0.1,0.7,0.4
		c0.9,0.7,2,1,3.1,0.7c1.7-0.5,2.8-1.8,3.4-4.4c0.2-0.8,0.4-1.6,0.5-1.7c0.1-0.1,0.3,0,0.5,0.1c0.3,0.2,0.4,0.4,0.3,1.4
		c0,0.6-0.1,1.3-0.3,1.5c-0.1,0.2-0.2,0.6-0.2,0.8c0,0.2-0.1,0.5-0.3,0.5c-0.2,0.1-0.4,0.4-0.4,0.7c-0.1,0.6-1,1.4-2,1.8
		C78.9,56.8,77.2,56.8,76.5,56.6L76.5,56.6z M48.6,56.5c-2.8-0.1-3.6-0.1-3.8-0.3c-0.3-0.2-0.3-0.3,0-0.4c0.2-0.1,2.1-0.1,4.2-0.1
		c3.1,0,3.9-0.1,4.1-0.2c0.1-0.1,0.4-1.3,0.7-2.5c0.3-1.3,0.6-2.4,0.6-2.5c0.1-0.1,0.7-0.2,1.3-0.1l1.2,0.1l0.1,0.5
		c0,0.5,0,0.5-0.4,0.4c-0.8-0.1-1.1,0.2-1.4,1.4c-0.2,0.6-0.3,1.2-0.3,1.4c0,0.5-0.3,1.5-0.6,1.9C53.7,56.5,52.8,56.6,48.6,56.5
		L48.6,56.5z M57.7,56.5c-0.5-0.1-1-0.6-0.8-0.8c0.1-0.1,1.9-0.2,3.9-0.2c2.1,0,3.9-0.1,4-0.2c0.1-0.1,0.2-0.4,0.2-0.7
		c0-0.6,0-0.6-0.6-0.5l-0.6,0.1l0-6.3c0-4.1,0-6.2,0.1-6c0.1,0.2,0.4,1,0.7,2c0.5,1.5,0.6,1.8,0.4,2.6c-0.1,0.5-0.1,2.3-0.1,4.2
		l0.1,3.3l0.5,0.5c0.7,0.7,0.7,1.5,0.1,1.9c-0.4,0.3-0.9,0.3-4,0.3C59.6,56.6,57.9,56.6,57.7,56.5L57.7,56.5z M69.9,56.4
		c-0.4-0.2-0.4-0.5,0.1-0.5c0.2,0,0.5-0.1,0.5-0.2c0.1-0.1,0.3-13.7,0.3-17.2c0-0.2,0.2-0.3,0.6-0.3c0.6,0,0.6-0.1,0.7-0.6
		c0.1-0.6,0.1-0.6,0.5-0.4c0.2,0.1,0.6,0.8,0.6,1c0,0.1-0.3,0.5-0.6,0.9l-0.6,0.7l0.1,4.8c0.1,5.7,0.1,4.8,0,8.4
		c-0.1,2.8-0.1,2.9-0.5,3.2C71,56.6,70.3,56.7,69.9,56.4L69.9,56.4z M82.7,56.3c-0.3-0.2-0.5-0.4-0.5-0.5c0-0.1,1.3-0.2,3.8-0.2
		c4.1,0,4.2,0,4.1-0.9c0-0.3-0.2-0.4-0.5-0.4c-0.3,0-0.5-0.1-0.5-0.4c0-0.3,0.3-2,0.6-3.2c0.1-0.4,0.2-0.4,1.4-0.4h1.3V51
		c0,0.6,0,0.6-0.5,0.5c-0.7-0.1-1.2,0.3-1.4,1.5c-0.2,0.9-0.1,1,0.2,1.5c0.3,0.4,0.4,0.6,0.2,1.1c-0.2,1-0.5,1.1-4.4,1.1
		C83.6,56.6,83.2,56.6,82.7,56.3L82.7,56.3z M92.8,56.3l-0.6-0.4l0.4-0.1c0.2-0.1,1.4-0.1,2.6-0.1c2.4,0,2.4,0,2.4-1
		c0-0.5,0.2-0.5,0.7,0c0.5,0.6,0.4,0.9-0.1,1.4c-0.5,0.5-0.5,0.5-2.7,0.5C93.6,56.6,93.3,56.6,92.8,56.3L92.8,56.3z M47.9,54.1
		c0-0.1-0.1-3.7,0-7.9l0-7.7l0.6-0.1c0.5,0,0.7-0.1,0.8-0.5c0.1-0.2,0.2-0.4,0.3-0.3c0.3,0.2,0.2,0.8-0.3,1.4l-0.5,0.6l0,5.1
		c0,2.8,0.1,6,0.1,7.2c0.1,1.5,0.1,2.1-0.1,2.2C48.7,54.3,48,54.3,47.9,54.1L47.9,54.1z M60.7,54c-0.1-0.1-0.4-1.5-0.8-3.1
		c-0.3-1.6-1.1-4.9-1.6-7.5c-0.6-2.5-1.1-5-1.1-5.5c-0.1-0.9-0.1-0.9,0.2-0.7c0.2,0.1,0.4,0.4,0.5,0.7c0.2,0.6,1.3,4.8,1.7,6.8
		c0.7,3.2,1.8,7.8,2.2,8.7C62,53.7,62,53.9,62,54C61.8,54.2,60.8,54.2,60.7,54L60.7,54z M86,54.1c0-0.1-0.1-3.7,0-8l0-7.7l0.6,0
		c0.6,0,0.9-0.3,0.9-0.8c0-0.4,0.5-0.5,0.7-0.1c0.3,0.6,0.2,1.3-0.3,1.8l-0.5,0.5l0.1,7.2c0,7.1,0,7.2-0.3,7.3
		C86.4,54.3,86.1,54.3,86,54.1L86,54.1z M96.1,54c0-0.2-0.8-3.7-1.7-7.8c-1.7-7.6-2-9.4-1.6-9.4c0.3,0,0.8,0.7,1,1.2
		c0.2,0.6,0.8,3.2,1,4.6c0.1,0.5,0.3,1.5,0.5,2.2c0.2,0.7,0.4,1.8,0.5,2.3c0.1,0.6,0.3,1.5,0.5,2.1c0.3,1.1,0.6,2.8,0.9,3.9
		c0.1,0.3,0.2,0.7,0.3,0.9c0.1,0.3,0,0.3-0.6,0.3C96.4,54.3,96.2,54.2,96.1,54L96.1,54z M76.7,53.9c-0.5-0.2-1-0.9-1.3-1.7
		c-0.1-0.3-0.2-2.2-0.3-4.1c-0.1-3.6,0.1-6.7,0.5-8.2c0.4-1.5,1.5-2,2.6-1.5c0.6,0.3,1.2,1.1,1,1.3c-0.1,0.1-0.2,0-0.3-0.2
		c-0.2-0.4-1.1-0.4-1.5,0c-0.8,0.8-1.1,3.7-1,8.7c0.1,3.9,0.2,4.3,1,5c0.2,0.2,0.4,0.4,0.4,0.5C77.8,54.1,77.2,54.1,76.7,53.9
		L76.7,53.9z M89.9,48.7c0-0.5,1.1-5.7,1.2-5.7c0.1,0,0.2,0.9,0.4,1.9c0.4,2.5,0.4,2.3,0.1,2.8c-0.2,0.4-0.1,0.8,0.2,0.6
		c0.1-0.1,0.2,0,0.2,0.2c0,0.2-0.2,0.2-0.5,0.2c-0.3,0-0.7,0-1.1,0.1C90.1,48.9,89.9,48.9,89.9,48.7L89.9,48.7z M54.4,48.6
		c0-0.3,1.1-5.6,1.2-5.6c0.1,0,0.2,0.7,0.3,1.5c0.2,1.1,0.2,1.6,0,2.1c-0.1,0.3-0.2,0.9-0.2,1.4l0,0.8h-0.6
		C54.7,48.7,54.4,48.6,54.4,48.6L54.4,48.6z M67.4,42c-0.9-2.1-1.6-4.1-1.7-4.4L65.6,37l0.5,0.4c0.4,0.3,0.8,1,1.5,2.6
		c0.5,1.2,1.1,2.3,1.1,2.3c0.2,0.1,0.4,2.7,0.3,3.2C69,45.7,68.3,44.1,67.4,42L67.4,42z M80.8,43.3c-0.2-0.1-0.3-0.3-0.3-0.3
		c0,0,0.2-0.1,0.4-0.2c0.3-0.2,0.3-0.4,0.4-2.8c0-1.4,0.1-2.7,0.2-2.7c0.1-0.1,0.1,0.1,0.1,0.4c0,0.6,0.3,0.9,0.9,0.9
		c0.5,0,0.5,0,0.4,0.5c-0.1,0.3-0.2,1.2-0.2,2c-0.1,1.1-0.2,1.6-0.5,1.9C81.9,43.5,81.2,43.6,80.8,43.3L80.8,43.3z M61.7,38.9
		c-0.3-0.3-0.3-0.5,0.1-0.5c0.1,0,0.3,0.1,0.3,0.3C62,39.2,62,39.2,61.7,38.9L61.7,38.9z M68.6,38.9c-0.3-0.3-0.2-0.5,0.1-0.5
		c0.2,0,0.3,0.1,0.3,0.3C69.1,39.2,68.9,39.2,68.6,38.9L68.6,38.9z M79.2,37c-0.6-0.5-0.6-0.5,0.3-0.2c0.3,0.1,0.6,0.3,0.6,0.4
		C80,37.5,79.8,37.5,79.2,37L79.2,37z M70.4,32.6c-0.2-0.1-0.2-0.2,0-0.4c0.1-0.2,0.3-1.4,0.4-3c0.5-5.9,1.8-12.3,2.5-12.5
		c0.1,0,0.9,0,1.6,0.2c7.7,1.3,14,5.1,18.9,11.2c0.3,0.4,0.7,0.9,0.8,1.2l0.2,0.4l-0.3-0.4c-0.2-0.2-0.6-0.8-1.1-1.3
		c-0.4-0.5-0.9-1.1-1.1-1.3c-0.8-1-3.6-3.3-5.7-4.7c-4.1-2.7-11.7-5.2-12.5-4.2c-0.4,0.5-1,2.9-1.4,5.6c-0.4,3.1-0.5,3.8-0.7,5.8
		c-0.2,2.6-0.3,2.8-0.8,3.2C70.8,32.8,70.8,32.8,70.4,32.6L70.4,32.6z"/>
	<path class="st6" d="M70.5,47l0-8.7l0.6-0.1c0.6,0,0.6-0.1,0.7-0.6l0.1-0.5l-1.8-0.1c-2.3-0.1-2.3-0.1-2.3,0.6
		c0,0.5,0.1,0.5,0.6,0.6l0.6,0.1l0,3.9c0,2.2,0,3.9-0.1,3.8c-0.1,0-1-2.1-2-4.6l-1.8-4.5l-2.2,0l-2.2,0v0.5c0,0.5,0.1,0.5,0.6,0.6
		l0.6,0.1l0,7.9l0,7.9h-0.8h-0.8l-1.7-8.1c-2.1-9.8-2-9.3-2.3-9.4c-0.7-0.3-0.8,0-2.3,7c-1.5,7-2,8.4-2.9,9.5
		c-0.7,0.7-1.6,1.1-2.6,1.1h-0.9l0-8l0-8l0.6-0.1c0.5-0.1,0.6-0.1,0.6-0.6v-0.5h-2.6h-2.6l-0.1,0.5c-0.1,0.6,0.2,0.8,0.9,0.8l0.5,0
		v7.9v7.9h-0.4c-0.7,0-0.9,0.2-0.9,0.7c0,0.3,0.1,0.5,0.1,0.6c0.1,0,2.2,0,4.7,0l4.5-0.1l0.5-2.5l0.5-2.5l1.4,0c1.3,0,1.4,0,1.5,0.3
		c0.3,1.4,0.6,3.1,0.6,3.3c0,0.2-0.1,0.3-0.5,0.4c-0.5,0-0.5,0.1-0.5,0.6v0.5l4,0c3.5,0,4.1,0,4.2-0.2c0.3-0.5,0.1-0.9-0.6-1
		l-0.6-0.1l0-6.2c0-3.4,0-6.3,0.1-6.4c0.1-0.1,1.3,2.8,2.7,6.3c3.5,8.7,3.1,7.9,3.7,7.8l0.5-0.1L70.5,47L70.5,47z M54.2,48.7
		c0-0.4,1.3-6.1,1.4-6.1c0.1,0,1.3,5.9,1.2,6.1c0,0.1-0.6,0.1-1.3,0.1C54.8,48.9,54.2,48.8,54.2,48.7L54.2,48.7z M78.4,55.6
		c1.4-0.4,2.5-2,3.1-4.3c0.3-1.4,0.3-1.7-0.4-1.7c-0.6,0-0.6,0-1,1.6c-0.4,1.8-1,2.7-1.8,2.9c-1.1,0.4-2.1-0.1-2.7-1.3
		c-0.3-0.7-0.4-1.1-0.4-5.2c-0.1-6.2,0.3-8.5,1.5-9.1c1.6-0.8,2.9,0.3,3.4,2.9c0.2,1.1,0.3,1.3,0.8,1.2c0.3-0.1,0.3-0.3,0.4-2.7
		c0.1-1.4,0.1-2.7,0-2.8c-0.1-0.4-0.9-0.2-1.1,0.2L80,37.7l-0.8-0.5c-0.7-0.5-0.9-0.5-1.9-0.4c-0.9,0.1-1.2,0.2-1.8,0.6
		c-2,1.4-3.3,5-3.3,8.8c0,4.4,1.7,8.3,4.1,9.4C76.8,55.8,77.5,55.8,78.4,55.6L78.4,55.6z M97.4,55.4c0.4-0.5,0.1-0.8-0.6-0.9
		l-0.7-0.1l-1.9-8.8c-1-4.8-1.9-8.8-1.9-8.8c0,0-0.2,0-0.5,0c-0.6,0-0.5-0.3-1.6,4.9c-0.4,2-1.2,5.6-1.7,8.1l-1,4.5l-0.8,0.1
		l-0.8,0.1l0-8l0-8l0.6-0.1c0.5-0.1,0.6-0.1,0.6-0.6v-0.5h-2.6h-2.6v0.5c0,0.4,0.1,0.5,0.6,0.6l0.6,0.1v7.9v7.9l-0.6,0.1
		c-0.5,0.1-0.6,0.1-0.6,0.6l-0.1,0.6l4,0l4,0l0.1-0.5c0-0.4,0-0.5-0.5-0.6c-0.3-0.1-0.5-0.2-0.5-0.2c0-0.1,0.2-0.9,0.4-2l0.4-1.9
		l1.4,0c1.3,0,1.4,0,1.5,0.3c0.3,1.4,0.6,3.1,0.6,3.4c0,0.2-0.1,0.3-0.4,0.3c-0.2,0-0.5,0.1-0.6,0.3c-0.2,0.4-0.2,0.4,0.1,0.8
		C92.6,55.7,97,55.7,97.4,55.4L97.4,55.4z M89.8,48.5c0-0.2,0.3-1.6,0.6-3.1c0.3-1.5,0.6-2.7,0.7-2.7c0.1,0,0.4,1.3,0.7,2.9
		c0.3,1.6,0.6,3,0.6,3.1c0.1,0.2-0.3,0.2-1.3,0.2C89.8,48.9,89.7,48.9,89.8,48.5L89.8,48.5z"/>
	<path class="st3" d="M97.3,26.9c0.6,1.1,0.8,1.4,1.7,3.5c0.5,1.1,1,2.3,1.3,2.8c0.2,0.5,0.4,0.9,0.4,1c0,0,0.3,0.8,0.7,1.7
		c0.9,2.1,1.3,4,1.5,7.3c0.3,4.4-0.2,9.1-1.4,12.8c-0.5,1.6-1.8,4.5-1.9,4.4c0,0,0.3-1,0.7-2.1c1.5-4.2,2.1-7.4,2.1-11.5
		c0-4.3-0.5-7.6-1.6-11.1c-0.8-2.5-2.1-5-4.2-8.1C93.1,22,93.3,21.2,97.3,26.9L97.3,26.9z"/>
</g>
<polygon class="st7" points="20.8,1.1 119.1,1.1 119.1,99.4 20.8,99.4 20.8,1.1 "/>
</svg>
