<?xml version="1.0" encoding="utf-8"?>
<!-- Generator: Adobe Illustrator 24.1.1, SVG Export Plug-In . SVG Version: 6.00 Build 0)  -->
<svg version="1.1" id="Layer_1" xmlns="http://www.w3.org/2000/svg" xmlns:xlink="http://www.w3.org/1999/xlink" x="0px" y="0px"
	 viewBox="0 0 144 101" style="enable-background:new 0 0 144 101;" xml:space="preserve">
<style type="text/css">
	.st0{fill:url(#SVGID_1_);}
	.st1{fill:url(#SVGID_2_);}
	.st2{fill:url(#SVGID_3_);}
	.st3{fill:none;stroke:#231F20;stroke-width:0.25;}
	.st4{fill:url(#SVGID_4_);}
	.st5{fill:url(#SVGID_5_);}
	.st6{fill:url(#SVGID_6_);}
	.st7{fill:url(#SVGID_7_);}
	.st8{fill:url(#SVGID_8_);}
	.st9{fill:url(#SVGID_9_);}
	.st10{fill:url(#SVGID_10_);}
	.st11{fill:url(#SVGID_11_);}
	.st12{fill:url(#SVGID_12_);}
	.st13{fill:url(#SVGID_13_);}
	.st14{fill:#FFFFFF;stroke:#000000;stroke-width:0.25;}
	.st15{fill:url(#SVGID_14_);}
	.st16{fill:none;stroke:#E8E8E8;stroke-width:0.25;}
	.st17{fill:url(#SVGID_15_);}
	.st18{fill:url(#SVGID_16_);}
</style>
<g>
	<linearGradient id="SVGID_1_" gradientUnits="userSpaceOnUse" x1="51.1963" y1="52.6759" x2="40.5878" y2="46.0147">
		<stop  offset="0" style="stop-color:#E8E8E8"/>
		<stop  offset="1" style="stop-color:#495153"/>
	</linearGradient>
	<polygon class="st0" points="72,31 39.4,69.7 28.6,73.3 66.9,27.7 	"/>
	<linearGradient id="SVGID_2_" gradientUnits="userSpaceOnUse" x1="95.2919" y1="29.0691" x2="92.5782" y2="68.4184">
		<stop  offset="3.296700e-02" style="stop-color:#E8E8E8"/>
		<stop  offset="9.800366e-02" style="stop-color:#D6D7D7"/>
		<stop  offset="0.3003" style="stop-color:#A4A8A8"/>
		<stop  offset="0.4911" style="stop-color:#7D8283"/>
		<stop  offset="0.6651" style="stop-color:#606769"/>
		<stop  offset="0.8165" style="stop-color:#4F5759"/>
		<stop  offset="0.9286" style="stop-color:#495153"/>
	</linearGradient>
	<polygon class="st1" points="72,31 104.6,69.7 115.4,73.3 77.1,27.7 	"/>
	<linearGradient id="SVGID_3_" gradientUnits="userSpaceOnUse" x1="71.9912" y1="31.3396" x2="71.9912" y2="25.9947">
		<stop  offset="0" style="stop-color:#E8E8E8"/>
		<stop  offset="0.1238" style="stop-color:#C9CACB"/>
		<stop  offset="0.327" style="stop-color:#9B9FA0"/>
		<stop  offset="0.5222" style="stop-color:#787D7F"/>
		<stop  offset="0.7045" style="stop-color:#5E6567"/>
		<stop  offset="0.8689" style="stop-color:#4E5658"/>
		<stop  offset="1" style="stop-color:#495153"/>
	</linearGradient>
	<polygon class="st2" points="72,31 77.1,27.7 66.9,27.7 	"/>
	<path class="st3" d="M48.3,35.6"/>
	<path class="st3" d="M48.3,35.6"/>
	<linearGradient id="SVGID_4_" gradientUnits="userSpaceOnUse" x1="54.7979" y1="30.0546" x2="49.0004" y2="32.645">
		<stop  offset="0" style="stop-color:#FFFFFF"/>
		<stop  offset="1" style="stop-color:#495153"/>
	</linearGradient>
	<polygon class="st4" points="48.3,35.6 53.5,28.1 48.3,32.2 	"/>
	<linearGradient id="SVGID_5_" gradientUnits="userSpaceOnUse" x1="36.453" y1="54.1567" x2="10.4261" y2="10.7373">
		<stop  offset="0" style="stop-color:#495153"/>
		<stop  offset="0.3571" style="stop-color:#E8E8E8"/>
		<stop  offset="0.4243" style="stop-color:#DDDDDE"/>
		<stop  offset="0.5428" style="stop-color:#BFC1C2"/>
		<stop  offset="0.6986" style="stop-color:#8F9495"/>
		<stop  offset="0.884" style="stop-color:#4D5557"/>
		<stop  offset="0.8956" style="stop-color:#495153"/>
	</linearGradient>
	<path class="st5" d="M43.2,62.3l-7.7,2.8C-1.4,59.5,1.1,47.5,1.1,47.5C1,32.2,53.5,28.1,53.5,28.1l-5.2,4.1c0,0-42.8,6.2-41.6,15.3
		C8,56.6,43.2,62.3,43.2,62.3z"/>
	<linearGradient id="SVGID_6_" gradientUnits="userSpaceOnUse" x1="34.1259" y1="55.7602" x2="23.6827" y2="31.3371">
		<stop  offset="0" style="stop-color:#E8E8E8"/>
		<stop  offset="0.1238" style="stop-color:#C9CACB"/>
		<stop  offset="0.327" style="stop-color:#9B9FA0"/>
		<stop  offset="0.5222" style="stop-color:#787D7F"/>
		<stop  offset="0.7045" style="stop-color:#5E6567"/>
		<stop  offset="0.8689" style="stop-color:#4E5658"/>
		<stop  offset="1" style="stop-color:#495153"/>
	</linearGradient>
	<path class="st6" d="M48.3,32.2v3.4c0,0-35.9,2.7-35.9,11.7s28.5,11.3,28.5,11.3l2.3,3.6c0,0-36.5-4.4-36.5-14.8
		C6.7,37.1,48.3,32.2,48.3,32.2z"/>
	<linearGradient id="SVGID_7_" gradientUnits="userSpaceOnUse" x1="28.7545" y1="71.4173" x2="45.1185" y2="71.5821">
		<stop  offset="0" style="stop-color:#E8E8E8"/>
		<stop  offset="0.1238" style="stop-color:#C9CACB"/>
		<stop  offset="0.327" style="stop-color:#9B9FA0"/>
		<stop  offset="0.5222" style="stop-color:#787D7F"/>
		<stop  offset="0.7045" style="stop-color:#5E6567"/>
		<stop  offset="0.8689" style="stop-color:#4E5658"/>
		<stop  offset="1" style="stop-color:#495153"/>
	</linearGradient>
	<polygon class="st7" points="28.6,73.3 43.1,73.3 39.4,69.7 	"/>
	<linearGradient id="SVGID_8_" gradientUnits="userSpaceOnUse" x1="74.9108" y1="32.7411" x2="36.3423" y2="75.8328">
		<stop  offset="0" style="stop-color:#495153"/>
		<stop  offset="8.479544e-04" style="stop-color:#4A5254"/>
		<stop  offset="4.718383e-02" style="stop-color:#73787A"/>
		<stop  offset="9.437373e-02" style="stop-color:#959899"/>
		<stop  offset="0.1425" style="stop-color:#AFB1B2"/>
		<stop  offset="0.1916" style="stop-color:#C2C3C3"/>
		<stop  offset="0.2422" style="stop-color:#CDCECE"/>
		<stop  offset="0.2967" style="stop-color:#D1D1D1"/>
		<stop  offset="0.6344" style="stop-color:#888D8E"/>
		<stop  offset="0.878" style="stop-color:#5B6263"/>
		<stop  offset="1" style="stop-color:#495153"/>
	</linearGradient>
	<polygon class="st8" points="72,31 72,38.1 43.1,73.3 39.4,69.7 	"/>
	
		<linearGradient id="SVGID_9_" gradientUnits="userSpaceOnUse" x1="320.922" y1="32.7411" x2="282.3535" y2="75.8328" gradientTransform="matrix(-1 0 0 1 390 0)">
		<stop  offset="0" style="stop-color:#000000"/>
		<stop  offset="2.137811e-02" style="stop-color:#202020"/>
		<stop  offset="5.811568e-02" style="stop-color:#515151"/>
		<stop  offset="9.587074e-02" style="stop-color:#7A7A7A"/>
		<stop  offset="0.134" style="stop-color:#9D9D9D"/>
		<stop  offset="0.1728" style="stop-color:#B7B7B7"/>
		<stop  offset="0.2122" style="stop-color:#CACACA"/>
		<stop  offset="0.2529" style="stop-color:#D5D5D5"/>
		<stop  offset="0.2967" style="stop-color:#D9D9D9"/>
		<stop  offset="0.3282" style="stop-color:#D2D2D2"/>
		<stop  offset="0.6518" style="stop-color:#888D8E"/>
		<stop  offset="0.8838" style="stop-color:#5B6263"/>
		<stop  offset="1" style="stop-color:#495153"/>
	</linearGradient>
	<polygon class="st9" points="72,31 72,38.1 100.9,73.3 104.6,69.7 	"/>
	
		<linearGradient id="SVGID_10_" gradientUnits="userSpaceOnUse" x1="274.7635" y1="71.4173" x2="291.1289" y2="71.5821" gradientTransform="matrix(-1 0 0 1 390 0)">
		<stop  offset="0" style="stop-color:#E8E8E8"/>
		<stop  offset="8.516701e-03" style="stop-color:#E3E3E3"/>
		<stop  offset="8.655792e-02" style="stop-color:#BABDBD"/>
		<stop  offset="0.1694" style="stop-color:#979B9C"/>
		<stop  offset="0.2565" style="stop-color:#7B8082"/>
		<stop  offset="0.3494" style="stop-color:#656B6D"/>
		<stop  offset="0.4507" style="stop-color:#555C5E"/>
		<stop  offset="0.5668" style="stop-color:#4C5456"/>
		<stop  offset="0.7308" style="stop-color:#495153"/>
	</linearGradient>
	<polygon class="st10" points="115.4,73.3 100.9,73.3 104.6,69.7 	"/>
	
		<linearGradient id="SVGID_11_" gradientUnits="userSpaceOnUse" x1="328.1763" y1="30.0546" x2="322.3788" y2="32.645" gradientTransform="matrix(-1 0 0 1 417.3789 0)">
		<stop  offset="0" style="stop-color:#FFFFFF"/>
		<stop  offset="1" style="stop-color:#495153"/>
	</linearGradient>
	<polygon class="st11" points="95.7,35.6 90.5,28.1 95.7,32.2 	"/>
	
		<linearGradient id="SVGID_12_" gradientUnits="userSpaceOnUse" x1="309.8315" y1="54.1567" x2="283.8045" y2="10.7372" gradientTransform="matrix(-1 0 0 1 417.3789 0)">
		<stop  offset="0" style="stop-color:#495153"/>
		<stop  offset="0.3571" style="stop-color:#E8E8E8"/>
		<stop  offset="0.4243" style="stop-color:#DDDDDE"/>
		<stop  offset="0.5428" style="stop-color:#BFC1C2"/>
		<stop  offset="0.6986" style="stop-color:#8F9495"/>
		<stop  offset="0.884" style="stop-color:#4D5557"/>
		<stop  offset="0.8956" style="stop-color:#495153"/>
	</linearGradient>
	<path class="st12" d="M100.8,62.3l7.7,2.8c36.9-5.6,34.4-17.5,34.4-17.5c0.1-15.4-52.4-19.5-52.4-19.5l5.2,4.1
		c0,0,42.8,6.2,41.6,15.3C136,56.6,100.8,62.3,100.8,62.3z"/>
	
		<linearGradient id="SVGID_13_" gradientUnits="userSpaceOnUse" x1="307.5039" y1="55.7603" x2="297.0605" y2="31.3369" gradientTransform="matrix(-1 0 0 1 417.3789 0)">
		<stop  offset="0" style="stop-color:#E8E8E8"/>
		<stop  offset="9.820502e-02" style="stop-color:#C1C3C3"/>
		<stop  offset="0.2229" style="stop-color:#969A9B"/>
		<stop  offset="0.344" style="stop-color:#757A7C"/>
		<stop  offset="0.4588" style="stop-color:#5D6465"/>
		<stop  offset="0.5649" style="stop-color:#4E5658"/>
		<stop  offset="0.6538" style="stop-color:#495153"/>
	</linearGradient>
	<path class="st13" d="M95.7,32.2v3.4c0,0,35.9,2.7,35.9,11.7s-28.5,11.3-28.5,11.3l-2.3,3.6c0,0,36.5-4.4,36.5-14.8
		C137.3,37.1,95.7,32.2,95.7,32.2z"/>
	<path class="st14" d="M83.1,59.8"/>
	<linearGradient id="SVGID_14_" gradientUnits="userSpaceOnUse" x1="87.3584" y1="63.1356" x2="85.1367" y2="64.37">
		<stop  offset="0" style="stop-color:#E8E8E8"/>
		<stop  offset="6.743065e-02" style="stop-color:#D6D7D7"/>
		<stop  offset="0.2772" style="stop-color:#A4A8A8"/>
		<stop  offset="0.475" style="stop-color:#7D8283"/>
		<stop  offset="0.6554" style="stop-color:#606769"/>
		<stop  offset="0.8124" style="stop-color:#4F5759"/>
		<stop  offset="0.9286" style="stop-color:#495153"/>
	</linearGradient>
	<polygon class="st15" points="83.5,60.5 88.5,67.3 84.3,63.7 	"/>
	<path class="st16" d="M47.3,62.8"/>
	<linearGradient id="SVGID_15_" gradientUnits="userSpaceOnUse" x1="65.7549" y1="62.8851" x2="65.0147" y2="55.1127">
		<stop  offset="0" style="stop-color:#E8E8E8"/>
		<stop  offset="0.1238" style="stop-color:#C9CACB"/>
		<stop  offset="0.327" style="stop-color:#9B9FA0"/>
		<stop  offset="0.5222" style="stop-color:#787D7F"/>
		<stop  offset="0.7045" style="stop-color:#5E6567"/>
		<stop  offset="0.8689" style="stop-color:#4E5658"/>
		<stop  offset="1" style="stop-color:#495153"/>
	</linearGradient>
	<path class="st17" d="M47.3,62.8l6.6-2.7c0,0,24.7,1,29.6,0.4l0.7,3.2C84.3,63.7,73.9,65.6,47.3,62.8z"/>
	<linearGradient id="SVGID_16_" gradientUnits="userSpaceOnUse" x1="67.4911" y1="55.0536" x2="67.8611" y2="63.9343">
		<stop  offset="0" style="stop-color:#E8E8E8"/>
		<stop  offset="6.743065e-02" style="stop-color:#D6D7D7"/>
		<stop  offset="0.2772" style="stop-color:#A4A8A8"/>
		<stop  offset="0.475" style="stop-color:#7D8283"/>
		<stop  offset="0.6554" style="stop-color:#606769"/>
		<stop  offset="0.8124" style="stop-color:#4F5759"/>
		<stop  offset="0.9286" style="stop-color:#495153"/>
	</linearGradient>
	<path class="st18" d="M84.3,63.7l4.2,3.6c0,0-23.2,1.6-40-0.6l-1.2-3.9C47.3,62.8,70.1,64.9,84.3,63.7z"/>
</g>
</svg>
