<?xml version="1.0" encoding="utf-8"?>
<!-- Generator: Adobe Illustrator 24.0.2, SVG Export Plug-In . SVG Version: 6.00 Build 0)  -->
<svg version="1.1" id="Layer_1" xmlns="http://www.w3.org/2000/svg" xmlns:xlink="http://www.w3.org/1999/xlink" x="0px" y="0px"
	 viewBox="0 0 144 101" style="enable-background:new 0 0 144 101;" xml:space="preserve">
<style type="text/css">
	.st0{fill-rule:evenodd;clip-rule:evenodd;fill:#231F20;}
	.st1{fill-rule:evenodd;clip-rule:evenodd;fill:#FFFFFF;}
</style>
<g id="Layer_1_1_">
</g>
<g>
	<path class="st0" d="M1,32.7c0,0,1.1-1.2,1.4-1.6c0.3-0.3,0.5-0.6,0.7-0.8c0.2-0.2,0.4-0.3,0.6-0.2c0.2,0,2.3,0.2,2.8,0.3
		c0.6,0.1,3,0.2,4,0.2c1,0,3.5,0,4.1,0c0.5,0,4.6-0.2,5.5-0.3c0.9-0.1,6.1-0.1,7.3-0.2c1.3,0,7.1,0.2,8.5,0.3
		c1.4,0.1,5.4,0.3,6.7,0.2c1.3,0,7.5-0.3,8.8-0.3c1.2,0,5.1,0.2,6,0.4c0.9,0.1,1.9,0.5,1.9,0.5s1.7-0.7,2.5-0.9
		c0.8-0.3,3.1-0.9,4.8-1.2c1.7-0.3,3.5-0.5,5.3-0.5c1.8,0,4.4,0.2,6.1,0.6c1.8,0.4,3.8,1,4.6,1.3c0.8,0.3,2.4,1.1,2.4,1.1
		s1.2-0.4,2.2-0.6c1-0.2,2.6-0.5,3.5-0.5c0.9-0.1,1.6-0.1,2.7-0.1c1.1,0,3.7,0.3,4.4,0.4c0.7,0.1,2.4,0.3,4.2,0.3
		c1.2,0,5-0.2,6.2-0.2c1.1-0.1,7.8-0.4,9.2-0.4c1.4,0,7.4,0.3,8.6,0.4c1.2,0.1,3.8,0.2,4.5,0.2c0.8,0,3.4-0.1,4.8-0.3
		c1.3-0.1,4.2-0.4,4.7-0.4c0.5,0,0.8,0,0.9,0c0.1,0.1,0.9,0.9,1.3,1.3c0.3,0.4,0.7,0.9,0.8,1c0.1,0.2,0.2,0.2,0.2,0.3
		c0,0.1-0.3,0.5-0.4,0.6c-0.1,0.1-0.2,0.2-0.3,0.2c-0.1,0.1-1.3,0.7-1.7,0.8c-0.4,0.2-1.4,0.6-1.4,0.6s0.3,0.7,0.4,1
		c0.1,0.3,0.3,0.9,0.3,1.1c0,0.2,0,0.6,0,0.7c-0.1,0-0.6,0.4-0.9,0.5c-0.2,0.1-1.1,0.5-1.5,0.6c-0.4,0.1-1.1,0.3-1.1,0.3
		s0.1,0.5,0,0.9c0,0.3,0,0.7-0.1,1.1c-0.1,0.3-0.3,0.7-0.4,0.9c-0.1,0.2-0.5,0.4-0.7,0.5c-0.2,0.1-0.9,0.3-1.3,0.4
		c-0.4,0.1-0.9,0.2-1.1,0.2c-0.2,0-0.4,0-0.4,0s0,0.7-0.1,1c0,0.3-0.1,0.8-0.2,1c-0.1,0.2-0.3,0.6-0.5,0.8c-0.2,0.2-0.4,0.3-0.7,0.4
		c-0.4,0.1-0.8,0.2-1.3,0.2c-0.5,0.1-1.3,0.2-1.6,0.2c-0.3,0-0.6,0-0.6,0s-0.2,0.8-0.3,1.1c-0.1,0.3-0.4,0.8-0.6,1.1
		c-0.2,0.3-0.5,0.7-0.7,0.8c-0.2,0.2-0.4,0.3-0.6,0.4c-0.1,0-0.8,0.1-1.1,0.1c-0.3,0-1.2,0-1.7,0c-0.5,0-1-0.1-1.3-0.1
		c-0.3,0-0.5-0.1-0.5-0.1s-0.1,0.6-0.1,0.8c0,0.2-0.1,0.6-0.3,0.8c-0.1,0.3-0.3,0.5-0.4,0.6c-0.1,0.1-0.2,0.3-0.6,0.3
		c-0.4,0.1-0.8,0.1-1,0.1c-0.2,0-1.7,0.1-2.1,0.1c-0.4,0-1.2,0-1.4,0c-0.3,0-0.7,0-0.7,0S114,53,114,53.2c-0.1,0.3-0.3,0.7-0.4,0.9
		c-0.1,0.2-0.2,0.4-0.4,0.6c-0.2,0.2-0.3,0.3-0.6,0.3c-0.3,0-0.7,0.1-1.2,0.1c-0.4,0-1.3-0.1-1.7-0.1c-0.4-0.1-1.3-0.2-1.5-0.3
		c-0.2-0.1-0.5-0.2-0.5-0.2s-0.2,0.5-0.3,0.7c-0.1,0.2-0.4,0.6-0.6,0.8c-0.2,0.2-0.4,0.5-0.8,0.5c-0.4,0.1-0.8,0-1.1-0.1
		c-0.3-0.1-1.1-0.2-1.4-0.3c-0.3-0.1-1.1-0.3-1.3-0.4c-0.2-0.1-0.4-0.1-0.4-0.1s-0.2,0.4-0.4,0.6c-0.1,0.2-0.4,0.5-0.6,0.6
		c-0.2,0.2-0.5,0.4-0.7,0.4c-0.2,0-0.4,0-0.8-0.1c-0.3-0.1-0.8-0.2-1.1-0.3c-0.4-0.1-0.6-0.2-0.6-0.2s-0.4,1.1-0.5,1.4
		c-0.1,0.3-0.6,1.3-0.8,1.6c-0.2,0.3-1,1.6-1.2,2c-0.3,0.4-1.5,2-1.8,2.3c-0.3,0.3-0.7,0.7-1,1c-0.3,0.3-1.4,1.3-2,1.7
		c-0.6,0.5-1.7,1.3-2.5,1.8c-0.8,0.5-2.4,1.3-3,1.6c-0.7,0.3-1.4,0.6-1.4,0.6s-0.3,0.6-0.5,0.9c-0.2,0.4-0.5,0.9-0.5,1
		c-0.1,0.1-0.2,0.1-0.4,0.1c-0.2,0-0.9-0.3-1.2-0.4c-0.3-0.1-0.9-0.4-0.9-0.4s-0.4,0.6-0.5,0.8C79.4,73,79,73.6,79,73.7
		c-0.1,0.1-0.2,0-0.3,0c-0.1,0-0.9-0.5-1-0.6c-0.2-0.1-0.8-0.5-0.8-0.5s-0.4,0.5-0.6,0.7c-0.2,0.2-0.7,0.9-0.8,0.9
		c-0.1,0.1-0.1,0-0.3,0c-0.1-0.1-0.4-0.2-0.6-0.4c-0.3-0.2-0.7-0.5-0.9-0.6c-0.1-0.1-0.3-0.2-0.3-0.2s-0.5,0.5-0.7,0.7
		c-0.2,0.2-0.6,0.6-0.7,0.7c-0.1,0.1-0.2,0.2-0.2,0.2s-0.1,0.1-0.2,0c-0.1-0.1-0.6-0.5-0.9-0.8c-0.2-0.2-0.7-0.7-0.7-0.7
		s-0.6,0.5-0.8,0.6c-0.2,0.2-0.8,0.6-0.9,0.6c-0.1,0.1-0.2,0-0.3-0.1c-0.1-0.1-0.7-0.8-0.8-1c-0.1-0.1-0.5-0.6-0.5-0.6
		s-0.7,0.4-1.1,0.6c-0.3,0.2-0.8,0.5-0.8,0.5c-0.1,0-0.3,0-0.3-0.1c-0.1-0.1-0.5-0.7-0.6-0.9c-0.2-0.3-0.5-0.8-0.5-0.8
		s-0.7,0.3-0.9,0.4c-0.2,0.1-1,0.4-1.1,0.4c-0.1,0-0.3,0-0.4-0.1c-0.1-0.1-0.6-1.1-0.7-1.3c-0.1-0.2-0.3-0.6-0.3-0.6
		s-0.8-0.3-1.3-0.6c-0.6-0.3-1.8-0.9-2.3-1.2c-0.5-0.3-1.4-0.8-1.9-1.2c-0.5-0.4-1.7-1.2-2.2-1.6c-0.5-0.4-2-2-2.4-2.4
		c-0.4-0.4-1-1.1-1.5-1.8c-0.5-0.7-0.9-1.3-1.2-2c-0.4-0.7-0.6-1.2-1-2c-0.3-0.8-0.6-1.5-0.7-1.8c-0.1-0.3-0.1-0.4-0.1-0.4
		s-0.9,0.3-1.6,0.5c-0.6,0.2-1.4,0.4-2,0.3c-0.7,0-0.8-0.1-0.9-0.3c-0.2-0.1-0.4-0.4-0.6-0.7c-0.2-0.3-0.4-0.7-0.4-0.7
		s-1,0.3-1.4,0.3c-0.4,0.1-1.3,0.3-1.9,0.3c-0.6,0.1-1.2,0.1-1.5,0.1c-0.3,0-0.6-0.2-0.8-0.4c-0.3-0.3-0.4-0.4-0.6-0.6
		c-0.1-0.2-0.4-0.7-0.5-0.9c-0.1-0.1-0.1-0.3-0.1-0.3s-1.2,0-1.5,0c-0.3,0-1.9,0-2.2,0c-0.3,0-1.2-0.1-1.5-0.1
		c-0.4-0.1-0.6-0.1-0.9-0.6c-0.3-0.4-0.4-0.7-0.6-1c-0.1-0.4-0.2-0.8-0.2-0.8s-1,0-1.6-0.1c-0.5-0.1-1.7-0.2-2.3-0.3
		c-0.6-0.1-1.6-0.3-1.8-0.4c-0.3-0.1-0.4-0.3-0.6-0.5c-0.2-0.2-0.4-0.6-0.6-0.9c-0.2-0.3-0.6-0.9-0.7-1c0-0.1-0.1-0.2-0.1-0.2
		s-1.1-0.1-1.5-0.2c-0.5-0.1-1.1-0.2-1.5-0.2c-0.3-0.1-1.1-0.2-1.3-0.3c-0.2-0.1-0.3-0.2-0.5-0.5c-0.2-0.3-0.3-1-0.4-1.5
		c-0.1-0.6-0.2-1-0.2-1s-0.8-0.2-1.5-0.4c-0.7-0.2-0.9-0.2-1.3-0.4C9.8,43,9.3,42.8,9,42.6c-0.3-0.2-0.3-0.5-0.3-0.7
		c0-0.2-0.1-1-0.1-1.2c0-0.2,0-0.7,0-0.7s-1.7-0.8-2.1-1c-0.4-0.2-1.5-0.7-1.7-0.8c-0.2-0.1-0.2-0.3-0.2-0.5c0-0.2,0.2-0.9,0.2-1.2
		c0.1-0.3,0.2-0.9,0.2-1c0-0.1,0-0.1,0-0.1s-1.6-0.8-2-1c-0.4-0.2-1.5-0.8-1.7-0.9c-0.2-0.1-0.2-0.3-0.3-0.5C1.1,32.8,1,32.7,1,32.7
		"/>
	<path class="st1" d="M54.8,42.9c0.2-1.9,2.5-4,2.2-5.9c-0.3-1.5-2.1-2.8-4-3.1c-1.1-0.2-4.6-0.4-5.4-0.5c-0.9,0-3.5-0.1-4.3-0.1
		c-0.8,0-2.9,0-3.5,0c-0.6,0-1.4,0-2.4-0.2c-1-0.2-1.7-0.4-2.7-0.7c-1-0.3-1.8-0.5-2.6-0.7s-1.8-0.3-2.5-0.4c-0.7-0.1-2-0.2-3.1-0.2
		c-1,0-3.5,0-4.4,0c-0.8,0-3.3,0.1-4,0.1c-0.7,0-1.4,0-1.7,0c-0.3,0-0.2,0.2-0.4,0.2c-0.1,0-0.9,0-1.3,0c-0.4,0-0.8,0-0.9,0
		c-0.2,0-0.4,0-0.4,0s0,0.1,0.1,0.2c0.2,0,0.5,0.1,0.7,0.1c0.1,0,1.2,0.1,1.5,0.1c0.4,0,1,0,1.4,0.1c0.4,0,1.1,0,1.6,0
		c0.5,0,2.3,0,3,0c0.7,0,2,0,2.6,0c0.6,0,2.1,0.1,3.3,0.2c1.2,0.1,2.1,0.3,3.3,0.6c1.1,0.3,2.5,0.7,3.1,0.9c0.7,0.2,1.6,0.4,2,0.5
		c0.5,0.1,0.9,0.1,1,0.2c0.1,0.1,0.1,0.2,0.1,0.4c-0.1,0.2-0.1,0.2-0.2,0.3c-0.1,0.1-0.1,0.3-0.1,0.3h-0.4c0,0,0.1-0.1,0.1-0.2
		c0-0.1-0.2-0.2-0.5-0.3c-0.3-0.1-1.5-0.2-1.8-0.2c-0.3,0-1.5-0.2-2.2-0.1c-0.6,0-3.2,0-3.8,0c-0.6,0-3,0-3.6,0c-0.6,0-2.7,0-3.2,0
		c-0.6,0-1.9,0-2.4,0c-0.5,0-2.3,0-2.9,0c-0.6,0-2.8-0.1-3.2-0.1c-0.4,0-1.6,0-2.2,0c-0.6,0-2.6-0.1-3.1-0.1c-0.5,0-1.2,0-1.4-0.1
		c-0.2-0.1-1.4-0.7-1.8-0.9c-0.5-0.2-1.3-0.7-1.6-0.8c-0.2-0.1-0.5-0.3-0.5-0.3c-0.1,0-0.4,0.3-0.5,0.4c-0.1,0.1-0.3,0-0.3,0
		s1.1-1.2,1.3-1.5c0.2-0.3,0.5-0.6,0.6-0.7c0.1,0,0.6,0,0.9,0c0.3,0,2.2,0.2,2.5,0.2c0.4,0,2,0.1,2.4,0.1c0.4,0,2.4,0,3.1,0.1
		c0.7,0,2.8,0.1,3.4,0c0.6,0,2.4-0.2,2.9-0.2c0.5,0,2.2-0.2,3-0.2c0.8,0,2.4,0,2.9,0c0.5,0,2.6-0.1,3.3-0.1c0.7,0,2.7,0.1,3.4,0.1
		c0.7,0,3.6,0.2,4.3,0.2c0.8,0,4.5,0.2,5.4,0.2c0.8,0,2.1,0.1,2.7,0c0.7,0,3.8-0.2,4.8-0.2c1,0,3.5-0.1,4.5,0c1,0,3.5,0.3,4.3,0.4
		c0.8,0.1,1.6,0.3,1.9,0.3c0.2,0,0.6,0,0.7,0.2c0.1,0.1,0.3,0.4,0.5,0.5c0.3,0.2,0.6,0.2,0.7,0.4c0.1,0.2,0.1,0.5,0.2,0.6
		c0.1,0.1,0.4,0.6,0.4,0.9c0,0.3,0,0.9-0.2,1.2c-0.2,0.3-0.5,0.8-0.9,1.1c-0.4,0.4-0.9,0.8-1.4,1.2c-0.5,0.4-1.3,1.1-1.8,1.7
		c-0.4,0.6-0.7,1-0.8,1.6c-0.1,0.6,0,1-0.1,1.1c0,0.1-0.1,0.4-0.3,0.5c-0.1,0.2-0.8,0.9-1,1.2c-0.2,0.3-0.6,0.8-0.7,1
		c-0.1,0.1-0.2,0.3-0.2,0.3l-0.1-0.2c0,0,0.3-0.4,0.3-0.5C54.8,44,54.7,43.6,54.8,42.9"/>
	<path class="st1" d="M5.7,35.9l0.1-0.4c0,0,1,0,1.3,0c0.3,0,2.2,0.1,2.9,0.1c0.7,0,2.7,0.1,3.2,0c0.5,0,3.3,0,3.9,0
		c0.6,0,3.5,0,4.1,0c0.6,0,3.9,0,4.4,0c0.5,0,3.2,0,3.9,0c0.6,0,3.4,0,4,0c0.6,0,2.2,0,2.5,0c0.3,0,0.6,0,0.7-0.1
		c0.1,0,0.3-0.1,0.4-0.1c0.1,0.1,0.2,0.2,0.3,0.3c0.1,0.1,0.2,0.2,0.3,0.2c0.1,0.1,0.2,0.1,0.3,0.2c0.1,0.1,0.1,0.1,0.2,0.2
		c0.1,0.1,0.2,0.2,0.1,0.2c-0.1,0.1-0.3,0.3-0.4,0.5c-0.1,0.1-0.1,0.3-0.2,0.3c-0.1,0-0.4,0.1-0.4,0.1s0.2-0.1,0.2-0.3
		c0-0.1-0.2-0.4-0.7-0.4c-0.4,0-1.5,0.1-2,0.1c-0.5,0.1-3.7,0.3-4.3,0.4c-0.6,0.1-5,0.4-5.8,0.4c-0.8,0.1-4.3,0.3-5,0.3
		c-0.7,0.1-3.3,0.2-4.1,0.2c-0.8,0.1-2.7,0.1-3.4,0.2c-0.7,0-2.1,0.1-2.4,0c-0.3,0-0.6-0.2-0.8-0.3c-0.2-0.1-1.3-0.6-1.6-0.7
		c-0.3-0.1-0.9-0.4-1-0.5c-0.1-0.1-0.1-0.3-0.1-0.5c0-0.2,0-0.4-0.2-0.5C5.9,36,5.7,35.9,5.7,35.9"/>
	<path class="st1" d="M9.2,40.2v-0.3c0,0,0.5,0,0.7,0c0.3,0,1.3,0,1.9-0.1c0.7,0,3.3-0.1,4.1-0.2c0.8-0.1,4.6-0.3,5.3-0.3
		c0.7-0.1,5.6-0.4,6.3-0.4c0.7-0.1,4.7-0.4,5.4-0.4c0.6-0.1,2.8-0.3,3.5-0.3c0.8-0.1,0.9-0.2,1-0.2c0.1,0,0.2-0.1,0.3,0.1
		c0.1,0.1,0.4,0.4,0.5,0.5c0.2,0.1,0.6,0.4,0.6,0.6c0,0.2-0.1,0.3-0.2,0.5c-0.1,0.1-0.1,0.4-0.1,0.4l-0.5,0.1c0,0,0-0.1,0.1-0.2
		c0-0.1-0.1-0.3-0.3-0.3c-0.2-0.1-0.5-0.1-0.9-0.1c-0.3,0.1-1.9,0.3-2.5,0.4c-0.6,0.1-4.2,0.7-5.1,0.8c-0.9,0.1-4.3,0.7-5.1,0.8
		c-0.8,0.1-4,0.5-5.1,0.6c-1.1,0.1-2.4,0.2-3.2,0.3c-0.7,0-1.5,0.1-2.1,0.1c-0.5-0.1-1.7-0.4-2.3-0.6c-0.5-0.1-1.3-0.4-1.4-0.5
		c-0.1-0.1-0.2-0.3-0.2-0.4c0-0.2-0.3-0.5-0.4-0.6C9.5,40.4,9.2,40.2,9.2,40.2"/>
	<path class="st1" d="M13.7,43.8c0,0,0.2,0,0.4,0c0.2,0,0.4-0.1,0.7-0.1c0.3,0,1.1,0,1.5-0.1c0.4,0,1.7-0.1,2.2-0.2
		c0.4,0,2.6-0.3,3.2-0.3c0.7-0.1,4.5-0.6,5.1-0.7c0.6-0.1,3.8-0.6,4.6-0.7c0.9-0.2,3.7-0.7,4.5-0.8c0.7-0.1,1.6-0.3,2-0.4
		c0.3-0.1,0.6-0.2,0.7-0.2c0.2,0,0.4,0.2,0.6,0.3c0.2,0.1,0.6,0.2,0.8,0.3c0.2,0.1,0.4,0.2,0.4,0.2c0,0.1,0,0.4-0.1,0.5
		c-0.1,0.1-0.1,0.3-0.2,0.4c0,0.2,0,0.3,0,0.3l-0.5,0.2c0,0,0.1-0.2,0-0.3c-0.1-0.1-0.3-0.3-0.5-0.3c-0.1,0-0.3,0-0.5,0.1
		c-0.2,0.1-2.9,0.9-3.4,1L32,44c-0.4,0.1-3,0.8-3.7,0.9c-0.7,0.2-3.4,0.7-4.1,0.8c-0.7,0.1-3.2,0.4-3.8,0.5c-0.6,0-0.8,0.1-1.3,0
		c-0.5,0-1.5-0.2-2.1-0.2c-0.6-0.1-1.3-0.2-1.5-0.3c-0.2-0.1-0.5-0.1-0.6-0.4c-0.1-0.3-0.1-0.5-0.3-0.7c-0.2-0.2-0.4-0.4-0.5-0.4
		c-0.1-0.1-0.4-0.1-0.4-0.1C13.7,44,13.7,43.8,13.7,43.8"/>
	<path class="st1" d="M19.2,47.5c0,0,1.8-0.2,2.3-0.3c0.4-0.1,3.2-0.5,3.9-0.6c0.7-0.1,3.6-0.8,4.1-0.9c0.5-0.1,3.7-1,4.4-1.1
		c0.6-0.2,2.8-0.8,3.4-1c0.6-0.2,2.3-0.7,2.5-0.8c0.2-0.1,0.4-0.2,0.6-0.2c0.2,0,0.7,0.2,1,0.3c0.2,0.1,0.7,0.2,0.8,0.2
		c0.1,0.1,0.1,0.2,0.1,0.3c0,0.1,0,0.9,0,1c0,0.1,0.2,0.2,0.2,0.2l-0.5,0.2c-0.1,0-0.3,0.1-0.3,0.1s0.1-0.2,0-0.3
		c0-0.1-0.3-0.2-0.4-0.2c-0.1,0-0.2,0-0.4,0.1c-0.2,0.1-0.8,0.3-1,0.4c-0.3,0.1-1.9,0.8-2.4,0.9c-0.5,0.2-2.4,0.9-3.1,1.2
		c-0.6,0.2-3.5,1.2-4,1.4c-0.5,0.2-2.4,0.7-2.8,0.8c-0.4,0.1-0.7,0.2-1,0.2c-0.4,0-1.8-0.1-2.4-0.2c-0.6-0.1-2.2-0.3-2.5-0.4
		c-0.2-0.1-0.4-0.2-0.5-0.3c-0.1-0.2-0.2-0.3-0.5-0.4c-0.2-0.1-0.5-0.3-0.7-0.3c-0.2-0.1-0.3-0.1-0.4-0.2c-0.1-0.1-0.3-0.1-0.3-0.1
		C19.2,47.6,19.2,47.5,19.2,47.5"/>
	<path class="st1" d="M26.8,50.7c0,0,0.6-0.1,0.8-0.2c0.2-0.1,1.1-0.4,1.4-0.5c0.3-0.1,1.4-0.4,1.8-0.5c0.5-0.2,2.6-0.9,3-1
		c0.4-0.1,2.9-1.1,3.4-1.3c0.5-0.2,3.3-1.3,3.7-1.5c0.4-0.2,0.8-0.3,1-0.4c0.1-0.1,0.6-0.3,0.8-0.4c0.2-0.1,0.6-0.1,0.8-0.1
		c0.2,0,0.3,0,0.4,0.1c0.1,0.1,0.1,0.2,0.1,0.4c0,0.2,0,0.5,0.2,0.7c0.2,0.1,0.4,0.3,0.7,0.3c0.3,0.1,0.6,0.1,0.7,0.1
		c0.1,0,0.2,0,0.2,0s-0.6,0.3-0.7,0.4l-0.7,0.4c0,0-0.1-0.2-0.1-0.2c-0.1,0-0.3,0-0.6,0c-0.2,0-0.4,0.1-0.6,0.2
		c-0.2,0.1-2.1,1.2-2.5,1.4c-0.4,0.2-3.4,1.8-3.8,1.9c-0.4,0.2-2.3,1.1-2.6,1.3c-0.3,0.1-0.5,0.3-0.8,0.3c-0.3,0-1,0-1.6,0.1
		c-0.6,0-1.8,0-2.1,0c-0.4,0-0.9,0-1.2-0.1c-0.3-0.1-0.3-0.3-0.5-0.5c-0.2-0.2-0.5-0.4-0.7-0.4c-0.2-0.1-0.4-0.1-0.5,0
		C26.8,50.9,26.8,50.7,26.8,50.7"/>
	<path class="st1" d="M33.7,53.1c0,0,2.3-1.2,2.7-1.3c0.4-0.2,3.8-1.9,4.3-2.2c0.4-0.2,3-1.6,3.5-1.9c0.5-0.3,1.3-0.7,1.4-0.8
		c0.1-0.1,0.2-0.2,0.4-0.3c0.2-0.1,0.3-0.1,0.3-0.1s0.2,0.3,0.3,0.4c0.1,0.2,0.4,0.4,0.7,0.5c0.3,0,0.5,0.1,0.6,0
		c0.2,0,0.5-0.1,0.5-0.1s-0.8,0.8-1,0.9c-0.2,0.1-2,1.6-2.4,2c-0.4,0.3-1.7,1.4-2,1.6c-0.3,0.2-1.3,1-1.5,1.1
		c-0.2,0.1-0.8,0.3-1.1,0.4c-0.3,0.1-1.9,0.4-2.4,0.5c-0.6,0.1-1.7,0.3-2,0.3c-0.2,0-0.6,0-0.8-0.2c-0.2-0.2-0.3-0.5-0.6-0.7
		c-0.3-0.1-0.4-0.2-0.6-0.2C33.7,53.3,33.7,53.1,33.7,53.1"/>
	<path class="st1" d="M40.4,54.5c0,0,1.3-0.9,1.5-1.1c0.3-0.2,1.4-1.1,1.7-1.4c0.3-0.2,1.6-1.3,2-1.7c0.4-0.3,1.6-1.4,1.9-1.6
		c0.3-0.3,0.9-0.9,0.9-0.9s0,0.2,0.2,0.3c0.1,0.1,0.3,0.3,0.5,0.4c0.3,0.1,0.6,0.1,0.9,0.1c0.3,0,0.5,0,0.6,0s0.3,0.1,0.3,0.2
		c0,0.2,0,0.3,0,0.4c0,0.1,0,0.2,0,0.2l-1.9,2.1c-0.4,0.4-1.4,1.5-1.7,1.9c-0.3,0.3-1.2,1.3-1.3,1.3c-0.1,0.1-0.4,0-0.6-0.1
		c-0.2-0.1-0.4,0-0.7,0c-0.3,0.1-0.8,0.2-1.1,0.3c-0.3,0.1-1.1,0.3-1.3,0.3c-0.2,0-0.4,0-0.6-0.2c-0.1-0.1-0.4-0.5-0.6-0.5
		c-0.2-0.1-0.3-0.1-0.4-0.1C40.8,54.4,40.5,54.6,40.4,54.5"/>
	<path class="st1" d="M46.5,54.9c0,0,1.2-1.3,1.5-1.6c0.3-0.3,1.7-1.9,2.1-2.2c0.3-0.3,0.8-1,1-1.1c0.1-0.2,0.2-0.3,0.3-0.3
		c0.1,0,0.4,0,0.7-0.1c0.3-0.1,0.7-0.1,0.8-0.1c0.1,0,0.1,0.1,0.1,0.2c0,0.1,0,1,0,1.2c0,0.3,0,0.9-0.1,1.1
		c-0.1,0.2-0.7,1.5-0.9,1.9c-0.2,0.4-0.6,1.1-0.6,1.3c-0.1,0.2-0.1,0.2-0.2,0.2c-0.1,0.1-0.2-0.1-0.3-0.3c-0.2-0.3-0.5-0.2-0.7-0.2
		c-0.2,0.1-1.5,0.4-1.8,0.5c-0.2,0.1-0.6,0.2-0.9,0.1c-0.2,0-0.3-0.2-0.4-0.4c-0.1-0.2-0.2-0.3-0.4-0.3
		C46.6,54.9,46.5,54.9,46.5,54.9"/>
	<path class="st1" d="M52.5,54c0,0,0.3-0.7,0.4-0.9c0.1-0.1,0.2-0.3,0.2-0.3s0.1,0.4,0.2,0.5c0.1,0.2,0.2,0.4,0.3,0.6
		c0,0.1,0.3,0.9,0.4,1c0.1,0.1,0.1,0.3,0.1,0.4c0,0.1,0,0.2,0,0.3c0,0.1,0.1,0.2,0,0.2c-0.1,0-0.3,0.2-0.4,0.2c-0.1,0-0.2,0-0.3-0.1
		c-0.1-0.1-0.3-0.1-0.5-0.3c-0.2-0.2-0.2-0.3-0.2-0.4c0-0.2,0.1-0.8,0.1-0.9C52.6,54.2,52.5,54,52.5,54"/>
	<path class="st1" d="M46.3,56.4c0,0,0.4,0.5,0.6,0.5c0.2,0,0.3-0.1,0.4-0.1c0.1,0,0.3,0,0.4,0c0.1,0.1,0.2,0.2,0.2,0.4
		c0,0.2,0.1,0.5,0.2,0.7c0.1,0.3,0.6,1.3,1,1.8c0.3,0.5,1.2,1.7,1.6,2.2c0.4,0.5,1.6,1.8,1.9,2.1c0.3,0.3,2,1.6,2.5,2
		c0.6,0.4,2,1.3,2.8,1.7c0.8,0.4,1.9,0.9,2.2,1c0.3,0.1,0.5,0.1,0.5,0.2c0.1,0.1,0.1,0.2,0.1,0.2l-0.3,0.5l-0.3,0.4L60,70
		c0,0,0.2-0.1,0.1-0.3c-0.1-0.1-0.1-0.2-0.3-0.3c-0.2-0.1-1-0.5-1.4-0.6c-0.4-0.2-2-1-2.5-1.4c-0.6-0.4-2-1.3-2.6-1.9
		c-0.7-0.5-2.1-1.9-2.6-2.5c-0.5-0.5-1.5-1.8-1.8-2.3c-0.3-0.5-1.2-2-1.3-2.4c-0.2-0.4-0.3-0.7-0.5-0.8c-0.2-0.2-0.2-0.2-0.3-0.2
		c-0.1,0-0.3,0-0.3,0s-0.1-0.1-0.1-0.4C46.4,56.6,46.3,56.4,46.3,56.4"/>
	<path class="st1" d="M48.1,56.7c0,0,0.3,0,0.6-0.1c0.3-0.1,1-0.3,1.3-0.4c0.3-0.1,0.7-0.2,0.8-0.3c0.2,0,0.3-0.1,0.4-0.1
		c0.1,0,0.1,0.1,0.2,0.2c0.1,0.1,0.2,0.4,0.4,0.5c0.2,0.1,0.4,0.3,0.6,0.3c0.3,0,0.6-0.1,0.8-0.2c0.2-0.1,0.7-0.4,0.8-0.4
		c0.1-0.1,0.2-0.2,0.3-0.1c0.1,0.1,0.1,0.1,0.2,0.2c0.1,0,0.2,0.1,0.2,0.2c0,0.1,0.7,1,1,1.4c0.3,0.4,0.8,1,1.2,1.3
		c0.3,0.3,1.3,1.2,1.7,1.5c0.4,0.3,1.5,1.1,2.1,1.3c0.5,0.3,1.1,0.6,1.6,0.8c0.5,0.2,1,0.4,1.2,0.5c0.1,0.1,0.2,0.1,0.3,0.2
		c0.1,0.1,0.2,0.2,0.1,0.3c0,0.1-0.6,0.9-0.8,1.4c-0.2,0.4-0.7,1.1-0.8,1.4c-0.2,0.3-0.6,1-0.8,1.3c-0.1,0.2-0.5,0.8-0.5,0.9
		c0,0.1-0.1,0.1-0.1,0c0-0.1,0.1-0.2,0.1-0.4c0-0.2-0.1-0.5-0.2-0.6c-0.1-0.1-0.4-0.3-0.6-0.4c-0.2-0.1-1.1-0.5-1.5-0.7
		c-0.4-0.2-1.3-0.7-1.9-1.1c-0.6-0.4-1.4-0.9-1.9-1.3c-0.5-0.4-1.2-1-1.7-1.5c-0.4-0.4-1.2-1.3-1.6-1.9c-0.5-0.6-1.1-1.4-1.4-2
		c-0.3-0.6-0.7-1.3-0.8-1.4c-0.1-0.1-0.3-0.3-0.5-0.4C48.6,57,48.5,57,48.4,57c-0.1,0-0.3,0-0.3-0.1C48,56.8,48.1,56.7,48.1,56.7"/>
	<path class="st1" d="M37.8,34.5c0,0,1.9,0,2.4,0c0.6,0,2.2,0,2.3,0c0.2,0,0.4,0.1,0.5,0.1l0.2,0c0,0,0.1,0.2,0,0.2
		c-0.1,0.1-0.1,0.3-0.2,0.4c-0.1,0.1,0,0.3-0.1,0.3c-0.1,0-0.4,0.1-0.4,0.1s0.1-0.2,0-0.2c-0.1-0.1-0.3-0.1-0.5-0.1
		c-0.2,0-1.2,0.1-1.5,0.1c-0.3,0-1.2,0.1-1.3,0.2c-0.2,0-0.4,0-0.5-0.1c-0.1-0.1-0.6-0.2-0.7-0.3c-0.1-0.1-0.2-0.1-0.2-0.2l-0.2,0
		l0.1-0.2C37.7,34.7,37.8,34.5,37.8,34.5"/>
	<path class="st1" d="M38.3,37.2c0,0,0.2-0.3,0.2-0.3c0.1,0,0.5-0.2,0.7-0.2c0.2-0.1,1-0.3,1.4-0.3c0.4-0.1,1.1-0.2,1.5-0.3
		c0.3-0.1,0.7-0.2,0.8-0.2c0.1,0,0.3,0.1,0.4,0.1c0.1,0.1,0.3,0.2,0.4,0.3c0.1,0.1,0.2,0.2,0.2,0.3c0,0.1-0.1,0.1-0.1,0.2
		c-0.1,0.1,0,0.1-0.1,0.2c0,0.1,0,0.2,0,0.2s-0.3,0.1-0.4,0.1c-0.1,0-0.1,0-0.1,0s0.1-0.2,0-0.3c-0.1,0-0.3-0.2-0.5-0.2
		c-0.2,0-0.9,0.2-1.1,0.2c-0.2,0.1-1,0.3-1.3,0.4c-0.3,0.1-0.6,0.2-0.8,0.2c-0.2,0-0.5-0.1-0.7-0.2c-0.2-0.1-0.3-0.1-0.3-0.2
		C38.5,37.3,38.3,37.2,38.3,37.2"/>
	<path class="st1" d="M39.2,39.4c0,0,0-0.2,0.1-0.2c0.1-0.1,0.3-0.1,0.5-0.2c0.1-0.1,0.5-0.2,0.9-0.3c0.4-0.1,1.1-0.4,1.4-0.5
		c0.3-0.1,1-0.3,1.2-0.4c0.2-0.1,0.4-0.2,0.6-0.2c0.2,0,0.5,0.1,0.7,0.2c0.2,0.1,0.4,0.2,0.4,0.3c0,0.1,0,0.3-0.1,0.4
		c-0.1,0.1-0.1,0.2-0.1,0.3c0,0.1,0,0.2,0,0.2S44.5,39,44.4,39l-0.2,0c0,0,0-0.1-0.1-0.2c-0.1-0.1-0.3-0.2-0.5-0.2
		c-0.2,0.1-0.8,0.3-1.1,0.4c-0.3,0.1-1,0.4-1.2,0.5c-0.2,0.1-0.4,0.2-0.7,0.2c-0.3,0-0.5-0.1-0.7-0.2c-0.2-0.1-0.4-0.2-0.5-0.3
		C39.3,39.4,39.2,39.4,39.2,39.4"/>
	<path class="st1" d="M40.7,41.1l0.9-0.4c0.3-0.1,1.4-0.6,1.7-0.8c0.3-0.2,0.9-0.4,1-0.5c0.1-0.1,0.3-0.1,0.4-0.2
		c0.1,0,0.5,0.1,0.6,0.1c0.2,0,0.4,0.1,0.5,0.2c0.1,0.1,0.1,0.3,0.1,0.4c0,0.1-0.1,0.3-0.1,0.4c0,0.1,0,0.3,0,0.3l-0.3,0.1
		c-0.1,0.1-0.3,0.2-0.3,0.2s0-0.2-0.2-0.3c-0.1-0.1-0.3-0.2-0.5-0.1c-0.1,0-0.8,0.4-1,0.6c-0.2,0.2-0.9,0.5-1,0.6
		c-0.1,0.1-0.2,0.2-0.5,0.2c-0.3,0-0.4-0.1-0.6-0.1c-0.2-0.1-0.5-0.3-0.5-0.4c-0.1-0.1-0.4-0.1-0.4-0.2
		C40.7,41.1,40.7,41.1,40.7,41.1"/>
	<path class="st1" d="M42.3,43.2c0,0,0.9-0.6,1.2-0.8c0.4-0.2,1.3-0.7,1.6-0.9c0.4-0.2,0.7-0.4,0.9-0.5c0.2,0,0.6,0,0.9,0
		c0.2,0,0.4,0,0.4,0.1c0,0.1,0,0.2,0,0.3c0,0.1,0,0.4,0,0.4l-1.7,1.4c-0.3,0.2-1,0.8-1,0.8c0,0-0.3-0.2-0.5-0.3
		c-0.3-0.1-0.4-0.1-0.5-0.1c-0.1,0-0.3-0.1-0.5-0.2c-0.2-0.1-0.2-0.1-0.3-0.1c-0.1,0-0.4,0.1-0.4,0.1L42.3,43.2z"/>
	<path class="st1" d="M44.4,44.7c0,0,0.4-0.4,0.7-0.7c0.3-0.3,1.2-1,1.5-1.2c0.2-0.2,0.9-0.7,0.9-0.7c0.1-0.1,0.2-0.1,0.3-0.1
		c0.1,0,0.4-0.1,0.5-0.1c0.1,0,0.3,0,0.4,0.2c0,0.2,0.1,0.5,0.1,0.6c0,0.1,0,0.3,0,0.3c0,0.1,0.1,0.1,0.1,0.1s-0.1,0.1-0.3,0.3
		c-0.2,0.2-0.7,0.7-0.9,0.9c-0.2,0.2-0.7,0.7-0.9,0.9c-0.2,0.2-0.4,0.4-0.4,0.4s-0.1-0.3-0.2-0.4c-0.2-0.1-0.5-0.2-0.7-0.2
		c-0.2,0-0.5-0.2-0.6-0.3c-0.1,0-0.2,0-0.2,0S44.5,44.8,44.4,44.7"/>
	<path class="st1" d="M46.6,46l1.2-1.2c0.2-0.2,1-1,1.2-1.1c0.2-0.2,0.3-0.4,0.5-0.5c0.2-0.1,0.4-0.2,0.6-0.2c0.1,0,0.2,0.2,0.2,0.4
		c0.1,0.2,0.2,0.4,0.5,0.5c0.3,0.1,0.5,0.1,0.6,0.1c0.1,0,0.2,0,0.2,0s-0.3,0.3-0.4,0.4c-0.2,0.2-0.6,0.6-0.9,0.8
		c-0.3,0.2-0.9,0.9-1.1,1.1c-0.2,0.2-0.5,0.4-0.5,0.4s0-0.2-0.1-0.3c-0.2-0.2-0.4-0.2-0.7-0.1c-0.2,0-0.4-0.1-0.5-0.2
		c-0.1-0.1-0.2-0.2-0.3-0.2c-0.1,0-0.2,0.1-0.3,0.1C46.8,46,46.6,46,46.6,46"/>
	<path class="st1" d="M49,47.1c0,0,0.7-0.6,1-0.9c0.3-0.3,0.9-0.9,1.2-1.2c0.3-0.3,0.8-0.7,0.8-0.7s0.1,0.2,0.3,0.2
		c0.2,0,0.5,0.1,0.6,0.1c0.2,0,0.5,0,0.6-0.1c0.1-0.1,0.2-0.1,0.2-0.1s-0.1,0.2-0.3,0.4c-0.2,0.2-0.7,0.9-0.9,1.3
		c-0.3,0.4-0.9,1.3-1,1.5c-0.1,0.2-0.3,0.5-0.4,0.6c-0.1,0.1-0.2,0.2-0.2,0.2s0-0.2-0.1-0.5c-0.2-0.3-0.3-0.3-0.4-0.3
		c-0.1,0-0.2,0-0.4-0.1c-0.2-0.1-0.3-0.3-0.5-0.4c-0.1,0-0.1-0.1-0.2,0C49.1,47.2,49,47.1,49,47.1"/>
	<path class="st1" d="M53.9,44.7c0,0,0.1,0.1,0.2,0.2c0.1,0.1,0.2,0.2,0.2,0.3c0,0.1-0.4,0.8-0.5,1c-0.1,0.2-0.3,1.1-0.4,1.3
		c-0.1,0.3-0.2,0.6-0.2,0.8c-0.1,0.2-0.2,0.3-0.2,0.4l0,0.2c0,0-0.2,0.1-0.2,0.1l-0.2,0.1V49c0-0.1-0.1-0.2-0.2-0.4
		c-0.1-0.1-0.2-0.3-0.1-0.6c0.1-0.3,0.2-0.6,0.3-0.8c0.1-0.2,0.2-0.5,0.3-0.8c0.2-0.4,0.3-0.7,0.5-1c0.2-0.3,0.3-0.4,0.4-0.5
		C53.8,44.8,53.9,44.7,53.9,44.7"/>
	<path class="st1" d="M43.7,34.7c0,0,0.8,0,1.4-0.1c0.6,0,1.3,0,1.7,0.1c0.4,0.1,1,0.1,1.3,0.1c0.2,0,0.6,0,1.2,0
		c0.6,0,1.6,0.1,2.3,0.2c0.7,0.1,1.3,0.2,1.9,0.4c0.6,0.2,1.6,0.6,1.9,1c0.3,0.4,0.6,0.7,0.5,1.2c0,0.5-0.2,1-0.4,1.4
		c-0.2,0.3-0.6,1-0.6,1.1c-0.1,0.1-0.7,0.7-0.9,1c-0.2,0.3-1,1.1-1.3,1.5c-0.3,0.4-0.6,0.7-0.7,0.8c-0.1,0.1-0.2,0.3-0.2,0.3h-0.1
		c0,0,0.1-0.2,0.1-0.3c0-0.2-0.2-0.4-0.3-0.5c-0.1-0.1-0.2-0.1-0.3-0.1c-0.1,0-0.2,0.1-0.3,0.1c-0.1,0-0.1,0-0.1,0s0.4-0.4,0.5-0.6
		c0.2-0.2,0.6-0.6,0.8-0.7c0.2-0.2,0.3-0.2,0.4-0.2c0.1,0,0.3,0.1,0.5,0c0.2-0.1,0.5-0.4,0.5-0.6c0-0.2-0.1-0.4-0.2-0.6
		c-0.2-0.1-0.4-0.2-0.5-0.2c-0.1,0-0.3,0-0.5,0.1c-0.1,0.1-0.2,0.1-0.2,0.1s0-0.1,0-0.3c0-0.2-0.1-0.3-0.2-0.5
		c-0.1-0.1-0.3-0.3-0.5-0.3c-0.2,0-0.3,0-0.4,0c-0.1-0.1,0-0.2-0.1-0.4c-0.1-0.2-0.2-0.4-0.4-0.5C50.2,38.1,50,38,49.9,38
		c-0.1,0-0.1-0.1-0.1-0.2c0-0.2,0-0.5-0.1-0.6c-0.1-0.1-0.3-0.3-0.5-0.3c-0.1,0-0.2-0.1-0.2-0.1c0-0.1,0.1-0.2,0.1-0.4
		c0-0.2,0-0.4-0.2-0.5c-0.2-0.1-0.4-0.2-0.5-0.3c-0.1-0.1-0.2-0.3-0.3-0.3c0,0-0.2,0-0.3,0c-0.1,0-0.4,0.1-0.6,0.1
		c-0.2,0-0.3,0.1-0.4,0.1c-0.1,0-0.3-0.1-0.5-0.1c-0.2,0-0.6,0-0.8,0.1c-0.3,0-0.5,0.1-0.7,0.1c-0.2,0-0.4-0.1-0.5-0.2
		c-0.2-0.1-0.2-0.1-0.3-0.2C43.6,35,43.6,35,43.6,35s0-0.1,0-0.2C43.6,34.7,43.7,34.7,43.7,34.7"/>
	<path class="st1" d="M44.2,36.5c0,0,0.6-0.2,1-0.4c0.4-0.1,1.2-0.3,1.5-0.4c0.3-0.1,0.6-0.2,0.7-0.1c0.1,0,0.3,0,0.4,0l0.2,0
		c0,0,0.1,0.1,0,0.1c-0.1,0-0.1,0.1-0.2,0.2c-0.1,0.1-0.2,0.3-0.3,0.3c-0.1,0.1-0.4,0.1-0.8,0.2c-0.3,0.1-0.9,0.3-1.1,0.3
		c-0.2,0.1-0.2,0.1-0.5,0.1c-0.3-0.1-0.4-0.1-0.5-0.1c-0.1,0-0.1,0-0.2,0c-0.1,0-0.1,0-0.1,0v-0.1C44.2,36.6,44.2,36.5,44.2,36.5"/>
	<path class="st1" d="M45.2,38c0,0,0.5-0.3,1-0.5c0.5-0.2,1.4-0.5,1.6-0.6c0.2-0.1,0.4-0.1,0.5-0.1c0.1,0.1,0.2,0.1,0.2,0.2
		c0,0.1-0.2,0.3-0.3,0.4c-0.1,0.1-0.8,0.4-1,0.5c-0.2,0.1-0.8,0.4-0.9,0.4c-0.2,0-0.3,0-0.5-0.1c-0.2-0.1-0.2-0.1-0.3-0.1
		c-0.1,0-0.3,0-0.3,0s0-0.1,0-0.1C45.2,38,45.2,38,45.2,38"/>
	<path class="st1" d="M46.2,39.5c0,0,0.6-0.4,0.8-0.5c0.2-0.1,0.9-0.4,1.1-0.6c0.3-0.2,0.6-0.3,0.8-0.3c0.2,0,0.3,0.1,0.3,0.2
		c0,0.1,0,0.3-0.1,0.4c-0.1,0.1-0.1,0.2-0.3,0.5c-0.3,0.2-0.4,0.4-0.6,0.5c-0.2,0.1-0.4,0.3-0.5,0.3c-0.1,0-0.3-0.1-0.4-0.1
		c-0.1,0-0.4-0.1-0.5-0.2c-0.1,0-0.2-0.1-0.3-0.1c-0.1,0-0.4,0.1-0.4,0.1L46.2,39.5z"/>
	<path class="st1" d="M47.8,40.8c0,0,0.4-0.3,0.6-0.5c0.3-0.2,0.7-0.5,0.9-0.7c0.2-0.2,0.4-0.3,0.5-0.3c0.1,0,0.1,0,0.2,0.1
		c0.1,0.1,0.2,0.1,0.2,0.2c0,0.1,0,0.2,0,0.3c0,0.1,0.1,0.1,0.2,0.1c0,0.1,0,0.2,0,0.2s-0.5,0.4-0.7,0.6c-0.2,0.2-0.5,0.5-0.5,0.5
		c-0.1,0-0.3-0.1-0.5-0.2c-0.2-0.1-0.5-0.2-0.7-0.2C47.9,40.8,47.8,40.8,47.8,40.8"/>
	<path class="st1" d="M49.2,41.8c0,0,0.4-0.4,0.6-0.6c0.2-0.2,0.4-0.4,0.6-0.5c0.2-0.2,0.5-0.4,0.5-0.4s0.2,0,0.1,0.1
		c0,0.1,0.1,0.1,0.2,0.1c0.1,0,0.2,0,0.3,0c0.1,0,0.1,0.1,0.1,0.2c0,0.1,0,0.2,0.1,0.2c0,0,0.1,0,0.2,0c0,0,0,0.1,0,0.1
		s-0.6,0.6-0.8,0.8c-0.2,0.2-0.6,0.6-0.7,0.7c-0.1,0.1-0.1,0.1-0.1,0.1s-0.1-0.2-0.3-0.4c-0.2-0.2-0.3-0.2-0.5-0.3
		C49.4,41.8,49.2,41.8,49.2,41.8"/>
	<path class="st1" d="M52.5,43.2c0,0,0.3-0.4,0.6-0.7l0.7-0.8c0.1-0.1,0.2-0.3,0.2-0.3s-0.2,0.5-0.2,0.7c0,0.2-0.1,0.6-0.1,0.8
		c0,0.2-0.1,0.4-0.1,0.6c0,0.2,0,0.4,0,0.4s-0.1,0.1-0.2,0.1c-0.1,0.1-0.2,0.1-0.2,0.1s0-0.3-0.1-0.5c-0.1-0.2-0.2-0.2-0.3-0.3
		c-0.1-0.1-0.3-0.1-0.3-0.1L52.5,43.2z"/>
	<path class="st1" d="M59.9,31.3c0,0,0.6-0.2,0.9-0.4c0.4-0.2,2.2-0.8,2.8-0.9c0.7-0.2,2.3-0.6,3.3-0.7c1-0.2,3-0.4,4.9-0.4
		c1.6,0,3.1,0.1,3.9,0.2c0.8,0.1,2.4,0.4,3,0.5c0.6,0.2,1.7,0.4,2.3,0.6c0.6,0.2,1.6,0.5,1.9,0.7c0.4,0.2,0.6,0.2,0.7,0.3
		c0.1,0.1,0.1,0.2,0.3,0.2c0.2,0.1,0.5,0.2,0.5,0.2s-0.1,0.1-0.3,0.2c-0.2,0.1-0.3,0.2-0.5,0.2c-0.2,0.1-0.3,0.2-0.3,0.2
		s0-0.2-0.1-0.3c-0.1-0.1-0.5-0.3-1-0.5c-0.4-0.2-1.1-0.4-1.8-0.6c-0.7-0.2-1.9-0.5-2.7-0.7c-0.8-0.1-1.7-0.3-2.4-0.4
		c-0.8-0.1-2.6-0.2-3.5-0.2c-0.9,0-2.7,0.1-3.6,0.2c-0.9,0.1-2.3,0.3-3.2,0.5c-0.9,0.2-2,0.5-2.4,0.6c-0.4,0.2-1,0.4-1.2,0.4
		c-0.2,0-0.5,0-0.7,0c-0.1,0-0.2,0-0.3,0c-0.1,0-0.3,0.1-0.3,0.1C60.1,31.4,59.9,31.3,59.9,31.3"/>
	<path class="st1" d="M87.7,42.9c0,0-0.2-0.2-0.3-0.3c-0.1-0.1-0.2-0.7-0.3-1c-0.1-0.3-0.6-0.9-0.9-1.2c-0.3-0.3-0.8-0.8-1.9-1.5
		c-1-0.6-2-1.2-3.1-1.6c-1.1-0.4-1.9-0.7-3.2-1c-1.3-0.3-3-0.6-4.9-0.7c-1.9-0.1-3.5,0.1-4.6,0.2c-1.1,0.1-2.6,0.4-4,0.9
		c-1.4,0.5-1.8,0.6-2.2,0.9c-0.4,0.2-1.5,0.7-1.9,1c-0.4,0.3-1,0.7-1.4,0.9c-0.4,0.2-0.5,0.4-0.7,0.4c-0.3-0.1-0.4-0.4-0.4-0.4
		s0.3-0.3,0.6-0.6c0.3-0.3,0.9-0.8,1.3-1.2c0.4-0.3,1.2-1,1.3-1.1c0.1-0.1,0.5-0.5,0.5-0.5s0.1,0.2,0.3,0.2c0.2-0.1,0.5-0.3,0.7-0.6
		c0.2-0.3,0.5-1,0.4-1.6c-0.1-0.6-0.2-1-0.3-1.1c-0.2-0.1-0.4-0.3-0.6-0.3c-0.2,0-0.3,0-0.4,0c-0.1,0-0.2-0.2-0.2-0.2
		s0.5-0.2,0.7-0.3c0.2-0.1,1.2-0.4,1.8-0.6c0.6-0.2,1.3-0.3,2.1-0.5c0.8-0.2,2-0.4,3-0.4c1-0.1,2.2-0.2,2.9-0.2
		c0.7,0,2.4,0.1,3.1,0.2c0.7,0.1,2,0.3,2.8,0.4c0.8,0.2,2.3,0.5,3,0.8c0.7,0.2,1.4,0.5,1.5,0.6c0.1,0.1,0.2,0.2,0.3,0.2
		c0.1,0.1,0.2,0.1,0.2,0.1s-0.3,0.4-0.5,0.7c-0.6,1.1,0.1,2.5,1.2,3.3c1.3,1,3.8,2.5,4.2,4.8C87.7,42,87.7,42.9,87.7,42.9"/>
	<path class="st1" d="M88.6,41.7c-0.1-0.8-0.6-1.6-0.9-2.1c-0.4-0.5-0.6-1.1-1-1.7c-0.4-0.7-1.5-1.4-2.3-1.9
		c-0.6-0.4-1.3-1.2-1.3-1.9c0-0.3-0.2-0.8-0.6-0.6c0.1-0.2,0.2-0.3,0.4-0.5c0.4-0.3,1.1-0.7,1.7-1c0.6-0.2,2.2-0.6,2.8-0.8
		c0.6-0.1,2.4-0.4,3.1-0.5c0.7-0.1,2-0.1,2.6-0.1c0.7,0,1.9,0.1,2.9,0.2c1,0.1,2.3,0.3,3.2,0.4c0.9,0.1,2.4,0.1,3.1,0.1
		c0.7,0,1.9-0.1,2.6-0.1c0.7,0,3.1-0.1,3.9-0.1c0.8-0.1,3-0.2,3.8-0.2c0.8,0,3.3-0.1,4-0.1c0.7,0,3.8,0.1,4.6,0.2
		c0.8,0,2.7,0.2,3.4,0.2c0.7,0,1.7,0.1,2.3,0.1c0.6,0,2.4,0,2.8,0c0.4,0,1.7,0,2.5,0c0.7,0,2.7-0.2,3.4-0.2c0.7-0.1,2.6-0.3,3.1-0.3
		c0.6,0,1.2-0.1,1.4-0.1c0.3,0,0.5,0.2,0.6,0.3c0.1,0.1,0.4,0.5,0.7,0.7c0.3,0.3,0.5,0.6,0.5,0.7c0,0.1,0.2,0.3,0.2,0.4
		c0,0.1-0.1,0.2-0.2,0.3c-0.1,0.1-0.5,0.2-0.5,0.2s0-0.2-0.2-0.3c-0.1-0.1-0.4-0.1-0.6-0.1c-0.2,0.1-0.8,0.3-1.1,0.5
		c-0.3,0.2-0.9,0.4-1.2,0.4c-0.3,0-1.3,0.1-2,0.1c-0.7,0-2.7,0-3.6,0.1c-0.9,0-3.8,0.1-4.4,0.1c-0.6,0-3.3,0-4.2,0s-3.3,0.1-4,0
		c-0.8,0-4.2,0.1-5,0c-0.8,0-2.9,0-3.5,0c-0.6,0-1.4,0-2.1,0.1c-0.7,0.1-1.8,0.2-2.1,0.2c-0.3,0-0.7,0-0.9-0.1
		c-0.1-0.1-0.2-0.1-0.2-0.1c-0.1,0-0.3-0.1-0.3-0.1l-0.1-0.1c0,0,0.3-0.1,0.6-0.1c0.3-0.1,0.5-0.2,1-0.3c0.5-0.1,1.7-0.3,2.3-0.4
		c0.6-0.1,3.3-0.6,4.1-0.7c0.8-0.1,2.8-0.3,3.6-0.4c0.7-0.1,2.8-0.2,3.5-0.3c0.7,0,2.3-0.1,2.7-0.1c0.4,0,1.8,0,2.3,0.1
		c0.5,0,0.8,0,0.8,0l0.1-0.4c0,0-0.6,0-1.1-0.1c-0.5,0-1.7-0.1-2.2-0.1c-0.4,0-2,0-2.5,0c-0.6,0-1.4-0.1-2.1-0.1
		c-0.8,0-2.6,0-3.4,0.1c-0.7,0.1-2.9,0.3-3.5,0.3c-0.7,0.1-3,0.4-4,0.6c-1.1,0.2-2.7,0.5-3.5,0.7c-0.8,0.1-1.7,0.3-2.6,0.4
		c-0.9,0.1-2.7,0.1-3.3,0.1c-0.6,0-2.6-0.1-3.5,0c-1,0-2.6,0-3.5,0.1c-0.9,0.1-1.7,0.3-2.2,0.5c-0.5,0.2-1,0.3-1.3,0.6
		c-0.3,0.2-0.5,0.5-0.5,0.6c0,0.1,0,0.2,0,0.2l0.3,0.1c0,0-0.2,0.2-0.4,0.3c-0.1,0.1-0.3,0.4-0.3,0.6c-0.1,0.2-0.1,0.8-0.1,1.1
		c0,0.2,0,0.3,0,0.5c0.1,0.2,0.5,0.9,0.6,1.2c0.2,0.3,0.6,0.9,0.7,1.1c0.1,0.2,0.3,0.5,0.5,0.7c0.2,0.2,0.4,0.8,0.4,1
		c0,0.2,0,0.4,0,0.7V44c0,0.2,0,0.4-0.1,0.4c0,0.1-0.2,0.2-0.2,0.3c0,0.1-0.1,0.4-0.1,0.5c0,0.1-0.1,0.4-0.1,0.4s-0.2-0.3-0.2-0.4
		c0,0,0.1-0.3,0-0.7C89.3,44.2,88.7,43,88.6,41.7"/>
	<path class="st1" d="M88.2,36.3c0,0,0.2-0.3,0.6-0.5c0.4-0.2,1-0.5,1.3-0.6c0.4-0.1,1.7-0.4,2.3-0.5c0.6-0.1,2.2-0.1,2.8-0.1
		c0.5,0,1.6,0,1.9,0c0.3,0,0.8,0,1.2,0c0.4,0,1.1,0,1.3,0c0.2,0,0.6,0,0.8,0c0.1,0,0.3,0.1,0.4,0.2c0,0.1,0.1,0.2,0,0.3
		c-0.1,0.1-0.1,0.2-0.1,0.3v0.1c0,0-0.1,0-0.1,0.1c-0.1,0.1-0.4,0.2-0.4,0.2s0-0.1-0.1-0.2c-0.1-0.1-0.3-0.2-0.4-0.3
		c-0.1,0-0.7-0.1-0.9-0.1c-0.2,0-0.8,0-1,0c-0.2,0-0.3-0.1-0.4-0.1c-0.1,0-0.2,0-0.3,0.1c-0.1,0.1-0.1,0.1-0.2,0.1
		c-0.1,0-0.2,0-0.2,0c0,0-0.1,0.1,0,0.2c0.2,0.2,0.5,0.2,0.7,0.3c0.3,0,0.6,0.1,0.9,0.2c0.3,0.1,0.6,0.1,0.8,0.2
		c0.2,0.1,0.5,0.1,0.5,0.1c0.1,0,0.2,0.1,0.2,0.2c0,0.1,0,0.2-0.1,0.2c0,0.1,0,0.2,0,0.3c0,0.1,0,0.1-0.1,0.2
		c-0.1,0-0.3,0.1-0.4,0.2c-0.1,0-0.2,0-0.2,0s0-0.2,0-0.2c0,0-0.1-0.1-0.3-0.2c-0.2-0.1-0.7-0.2-0.9-0.2c-0.2-0.1-0.7-0.2-0.9-0.2
		c-0.3-0.1-0.5-0.1-0.5-0.1c-0.1,0.1-0.1,0.1-0.2,0.1c-0.1,0-0.1,0-0.2,0c-0.1,0.1-0.1,0.1-0.1,0.2c0.1,0.1,0.2,0.2,0.4,0.2
		c0.2,0.1,0.8,0.2,1,0.3c0.3,0.1,0.7,0.3,1,0.3c0.2,0.1,0.5,0.1,0.5,0.3c0.1,0.1,0,0.3-0.1,0.3C99,38.1,99,38.2,99,38.3
		c0,0.1-0.1,0.2-0.1,0.2s-0.2,0.2-0.3,0.2l-0.2,0.1c0,0,0.1-0.1,0-0.3c-0.1-0.2-0.3-0.3-0.5-0.4c-0.3-0.1-0.8-0.3-1-0.4
		c-0.2-0.1-0.9-0.3-1-0.4c-0.2-0.1-0.3-0.1-0.5-0.1c-0.1,0-0.2,0.1-0.2,0.2c0,0.1,0.2,0.1,0.2,0.2c0,0.1,0,0.2,0,0.2
		c0,0-0.1,0-0.1,0s0.3,0.2,0.6,0.3c0.2,0.1,0.8,0.4,1,0.5c0.2,0.1,0.6,0.3,0.7,0.4c0.1,0.1,0.3,0.2,0.3,0.3c0,0.1-0.1,0.3-0.1,0.4
		c0,0.1,0,0.1-0.1,0.2c-0.1,0-0.5,0.1-0.5,0.1s0-0.1,0-0.1c0-0.1-0.1-0.1-0.3-0.3c-0.2-0.1-0.9-0.5-1.1-0.6
		c-0.2-0.1-0.6-0.3-0.7-0.4c-0.1-0.1-0.4-0.3-0.4-0.4c-0.1-0.1-0.3-0.1-0.4,0c-0.1,0.1-0.1,0.3-0.1,0.4c0.1,0.1,0.2,0.2,0.2,0.2
		s-0.1,0.1-0.1,0.1c0,0.1,0.3,0.3,0.6,0.5c0.2,0.2,0.9,0.6,1,0.7c0.2,0.1,0.5,0.3,0.6,0.4c0.1,0.1,0.1,0.2,0.1,0.3
		c-0.1,0.1-0.1,0.2-0.1,0.2s0,0.1,0,0.2c0,0.1,0,0.1,0,0.1s-0.1,0.1-0.2,0.1c-0.1,0-0.3,0-0.3,0s0-0.1,0-0.2c0-0.1-0.1-0.2-0.2-0.3
		c-0.2-0.2-0.7-0.5-0.9-0.7c-0.2-0.2-0.7-0.5-0.8-0.6c-0.1-0.1-0.3-0.4-0.4-0.5c-0.1-0.1-0.3-0.2-0.4-0.1c-0.1,0.1-0.3,0.2-0.3,0.3
		c0,0.1,0,0.2,0,0.3c0.1,0.1,0.2,0.1,0.2,0.2c0,0-0.1,0.1-0.1,0.1c0,0.1,0.5,0.4,0.6,0.5c0.2,0.2,0.9,0.7,1,0.8
		c0.2,0.1,0.5,0.4,0.5,0.5c0,0.1,0,0.4,0,0.4c-0.1,0.1-0.2,0.1-0.3,0.1c-0.1,0-0.3,0-0.3,0s0.1-0.2,0-0.2c0-0.1-0.3-0.2-0.5-0.4
		c-0.2-0.2-0.8-0.7-1.1-0.9c-0.2-0.2-0.5-0.4-0.6-0.6c-0.1-0.2-0.2-0.4-0.4-0.4c-0.2,0-0.4,0-0.5,0.2c-0.1,0.2-0.1,0.3,0,0.4
		c0.1,0.1,0.3,0.2,0.2,0.2l-0.2,0.1c0,0,0.2,0.1,0.4,0.3c0.3,0.2,0.8,0.6,1,0.8c0.2,0.2,0.6,0.5,0.6,0.6c0.1,0.1,0.2,0.2,0.2,0.4
		c0,0.1,0,0.3-0.1,0.4c0,0.1,0,0.1-0.1,0.2c-0.1,0.1-0.3,0.1-0.4,0.1c-0.1,0-0.1,0-0.1,0s0.2-0.1,0.2-0.2c0-0.1-0.2-0.3-0.4-0.4
		c-0.1-0.1-0.8-0.7-1.1-0.9c-0.3-0.2-0.6-0.6-0.7-0.8c-0.1-0.2-0.1-0.5-0.2-0.7c-0.1-0.2-0.4-0.4-0.6-0.6c-0.1-0.2-0.6-0.9-0.8-1.3
		c-0.2-0.4-0.4-0.7-0.5-1.1c-0.1-0.4,0-0.6-0.1-0.7c-0.1-0.1-0.2-0.3-0.3-0.3C88.5,36.4,88.2,36.3,88.2,36.3"/>
	<path class="st1" d="M89.9,41.4c0,0,0.6,0.6,0.7,0.8c0.1,0.1,0.4,0.3,0.5,0.4c0.1,0.1,0.4,0.4,0.5,0.5c0.1,0.1,0.3,0.3,0.3,0.5
		c0,0.1-0.1,0.5-0.2,0.6c-0.1,0.1-0.2,0.2-0.3,0.2c-0.1,0-0.3,0-0.3,0s0.2-0.1,0.2-0.2c0-0.1,0-0.2-0.2-0.3
		c-0.2-0.2-0.2-0.2-0.4-0.5c-0.2-0.2-0.3-0.5-0.3-0.5l-0.1,0l-0.1,0c0,0,0-0.4-0.1-0.6C90.1,42,90,41.8,90,41.7
		C89.9,41.6,89.9,41.4,89.9,41.4"/>
	<path class="st1" d="M89.8,46c0,0,0.1-0.3,0.2-0.5c0-0.1,0.1-0.4,0.1-0.4l0-0.2c0,0,0.3,0.3,0.3,0.4c0.1,0.1,0.4,0.3,0.5,0.5
		c0.1,0.1,0.6,0.7,0.7,1c0.2,0.3,0.7,1,0.8,1.1c0.1,0.1,0.4,0.6,0.4,0.7c0,0.1,0,0.3-0.1,0.4c-0.1,0.1-0.1,0.3-0.2,0.3
		c-0.1,0-0.4,0-0.4,0s0.1-0.1,0.1-0.2c0-0.1-0.1-0.3-0.3-0.4c-0.2-0.1-0.5-0.3-0.6-0.4c-0.1-0.1-0.3-0.7-0.4-1
		c-0.1-0.3-0.4-0.7-0.5-1c-0.2-0.2-0.3-0.4-0.3-0.5c-0.1,0,0,0-0.1,0C89.9,46,89.8,46,89.8,46"/>
	<path class="st1" d="M90.3,44.4c0,0,0.4,0.1,0.6,0.1c0.2,0,0.4,0,0.4,0c0.1,0,0.1-0.2,0.4-0.2c0.2-0.1,0.4,0,0.6,0.1
		c0.2,0.2,1.2,1.2,1.4,1.3c0.2,0.1,0.8,0.8,1,1c0.2,0.2,0.5,0.5,0.6,0.6c0.1,0.1,0.1,0.2,0,0.3c-0.1,0.1-0.1,0.1-0.2,0.2
		c0,0.1-0.1,0.3-0.1,0.4c-0.1,0.1-0.1,0.1-0.3,0.1c-0.1,0-0.3,0-0.3,0s0.2-0.1,0.2-0.2c0-0.1-0.1-0.2-0.2-0.3
		c-0.1-0.1-0.3-0.2-0.5-0.3c-0.2-0.1-0.4-0.3-0.5-0.4c-0.2-0.2-0.5-0.6-0.7-0.8c-0.2-0.2-0.6-0.7-0.8-0.9c-0.2-0.2-0.4-0.4-0.6-0.4
		C91,45,91,44.9,90.9,44.9c-0.1,0-0.2,0.2-0.1,0.2c0,0-0.1-0.1-0.2-0.2C90.5,44.8,90.3,44.4,90.3,44.4"/>
	<path class="st1" d="M92.2,44c0,0,0-0.1,0-0.2c0-0.1,0-0.2,0.1-0.2c0.1,0,0.3,0.1,0.5,0.1c0.2,0,0.2,0,0.2,0s0.1-0.2,0.3-0.2
		c0.2,0,0.3,0,0.4,0c0.1,0,0.2,0,0.4,0.1c0.2,0.1,0.8,0.6,1.1,0.8c0.2,0.2,1.2,0.9,1.4,1.1c0.3,0.2,0.6,0.4,0.6,0.5
		c0.1,0.1,0.3,0.3,0.3,0.4c-0.1,0.1-0.2,0.2-0.2,0.4c0,0.1,0,0.3-0.1,0.4c0,0.1-0.2,0.1-0.2,0.1c-0.1,0-0.3,0-0.3,0s0.1-0.1,0.1-0.2
		c0-0.1,0-0.2-0.1-0.3c-0.1-0.1-0.3-0.2-0.5-0.3c-0.2-0.1-0.5-0.4-0.8-0.6c-0.3-0.2-1-0.8-1.1-1c-0.2-0.1-0.6-0.5-0.7-0.6
		c-0.1-0.1-0.5-0.1-0.6-0.1c-0.1,0-0.3-0.1-0.3-0.1s-0.1,0.1-0.1,0.1c-0.1,0-0.1,0-0.1,0s0,0-0.1-0.1C92.2,44,92.2,44,92.2,44"/>
	<path class="st1" d="M93.9,42.9l0-0.2c0,0,0.1-0.1,0.3-0.1c0.2,0,0.3,0,0.5-0.1c0.2-0.1,0.2-0.1,0.3-0.1c0.1-0.1,0.2-0.1,0.3-0.2
		c0.1-0.1,0.1-0.2,0.2-0.2c0.1,0,0.3,0,0.4,0c0.1,0,0.6,0.5,0.9,0.6c0.3,0.2,1.2,0.7,1.6,1c0.3,0.2,0.9,0.5,1,0.6
		c0.2,0.2,0.3,0.2,0.3,0.4c0,0.1-0.1,0.2-0.2,0.4c-0.1,0.1-0.1,0.2-0.1,0.3c0,0.1-0.1,0.2-0.1,0.2l-0.4,0.1c0,0,0.1-0.1,0.1-0.2
		c0-0.1-0.1-0.2-0.3-0.3c-0.2-0.1-0.4-0.1-0.6-0.2c-0.2-0.1-0.6-0.3-0.8-0.5c-0.2-0.2-0.7-0.6-1-0.7c-0.3-0.2-0.6-0.5-0.8-0.5
		C95.4,43.1,95,43,94.8,43c-0.2,0-0.4,0-0.5,0c0,0-0.1,0.2-0.2,0.1c-0.1-0.1-0.1-0.1-0.2-0.1C93.9,43,93.9,42.9,93.9,42.9"/>
	<path class="st1" d="M96.4,41.6c0,0,0.3,0,0.3-0.1c0.1-0.1,0-0.4,0.1-0.5c0-0.1,0-0.2,0.1-0.2c0.1,0,0.2,0.1,0.3,0.1
		c0.1,0,0.3,0,0.5,0.1c0.2,0.1,1.1,0.6,1.6,0.8c0.5,0.2,1.4,0.7,1.7,0.8c0.3,0.1,0.8,0.3,0.9,0.4c0.1,0.1,0.1,0.3,0,0.4
		c-0.1,0.1-0.1,0.2-0.1,0.3c0,0.1,0.1,0.2,0,0.3c-0.1,0.1-0.2,0.1-0.4,0.1c-0.1,0-0.2,0-0.2,0s0.1-0.1,0.1-0.2
		c0-0.1-0.1-0.3-0.3-0.3c-0.2-0.1-0.5-0.1-0.6-0.1c-0.2-0.1-0.4-0.1-0.7-0.3c-0.3-0.2-0.9-0.5-1.2-0.7c-0.3-0.2-0.9-0.5-1.1-0.6
		c-0.2-0.1-0.3-0.2-0.4-0.2c-0.1,0-0.2,0-0.3,0C96.6,41.6,96.4,41.6,96.4,41.6"/>
	<path class="st1" d="M98.1,39.9c0,0,0.1-0.2,0.1-0.3c0-0.2,0-0.3,0.1-0.3c0.1,0,0.2,0,0.3,0c0.1,0,0.3,0,0.4,0
		c0.1,0.1,0.5,0.2,0.8,0.3c0.2,0.1,1.4,0.5,1.8,0.6c0.4,0.1,1.1,0.4,1.4,0.5c0.3,0.1,0.5,0.1,0.6,0.2c0.1,0.1,0.2,0.2,0.2,0.4
		c0,0.2,0,0.3-0.1,0.4c-0.1,0.1-0.1,0.1-0.1,0.2c0,0.1,0.1,0.2,0,0.2c-0.1,0.1-0.1,0.1-0.3,0.1c-0.2,0-0.3,0.1-0.3,0.1
		s0.2-0.2,0-0.3c-0.1-0.1-0.2-0.2-0.5-0.3c-0.3-0.1-0.8-0.3-1.1-0.4c-0.2-0.1-1.2-0.5-1.5-0.6c-0.3-0.1-0.9-0.3-1.1-0.4
		c-0.2-0.1-0.3-0.2-0.3-0.2C98.3,39.9,98.1,39.9,98.1,39.9"/>
	<path class="st1" d="M99.4,38.2c0,0,0-0.5,0.1-0.5c0.1,0,0.3,0,0.4,0c0.1,0,0.3,0,0.6,0.1c0.2,0.1,1.5,0.4,2,0.5
		c0.5,0.1,1.2,0.3,1.6,0.3c0.4,0.1,0.7,0.1,0.8,0.2c0.1,0.2,0.1,0.5,0.1,0.6c0,0.2,0,0.5,0,0.6c0,0.1-0.2,0.1-0.4,0.2
		c-0.2,0.1-0.2,0.1-0.2,0.1s0.1-0.2,0-0.3c-0.1-0.1-0.5-0.3-0.8-0.4c-0.3-0.1-1-0.3-1.4-0.4c-0.4-0.1-1.1-0.4-1.3-0.4
		c-0.2-0.1-0.5-0.1-0.7-0.2c-0.2-0.1-0.3-0.3-0.4-0.3C99.6,38.3,99.4,38.2,99.4,38.2"/>
	<path class="st1" d="M100.3,36.4l0-0.2c0,0,0.2-0.2,0.3-0.2c0.1,0,0.2,0,0.5,0c0.3,0,1.3,0.2,1.8,0.2c0.4,0.1,1.6,0.2,1.9,0.3
		c0.3,0,0.8,0,1,0.1c0.3,0.1,0.2,0.3,0.3,0.5c0,0.2,0.1,0.4,0,0.5c0,0.1-0.2,0.2-0.3,0.3c-0.2,0.1-0.3,0.2-0.4,0.3
		c-0.1,0.1,0-0.2-0.1-0.3c-0.1-0.1-0.2-0.1-0.5-0.2c-0.3-0.1-0.7-0.1-0.9-0.2c-0.2-0.1-1.2-0.2-1.5-0.3c-0.4-0.1-0.8-0.1-1.1-0.2
		c-0.3-0.1-0.4-0.3-0.6-0.4C100.5,36.4,100.3,36.4,100.3,36.4"/>
	<path class="st1" d="M101,35.1c0,0-0.1-0.2-0.1-0.3c0,0,0-0.1,0-0.1s0.4,0,0.7,0c0.3-0.1,1.1-0.2,1.7-0.3c0.5-0.1,1.5-0.3,1.9-0.3
		c0.3-0.1,0.7-0.1,0.9-0.1c0.1,0.1,0.2,0.2,0.3,0.3c0,0.1,0.1,0.5,0.2,0.6c0,0.1,0.1,0.3,0.1,0.4c0,0.1-0.2,0.3-0.3,0.4
		c-0.1,0.1-0.4,0.4-0.4,0.4s0-0.2-0.1-0.4c-0.1-0.1-0.3-0.3-0.5-0.4c-0.2-0.1-1.2-0.1-1.5-0.1c-0.3,0-1.2,0-1.5,0
		c-0.4,0-0.7-0.1-0.9-0.2c-0.2-0.1-0.1,0-0.2-0.1C101.1,35,101,35.1,101,35.1"/>
	<path class="st1" d="M106.5,36.2c0,0,0.4-0.4,0.5-0.5c0.1-0.1,0.2-0.3,0.3-0.3c0.1,0,0.3,0,0.5,0c0.2-0.1,1.6-0.1,1.9-0.1
		c0.4,0,2.9,0,3.4,0c0.5,0,4.1-0.1,4.7,0c0.6,0,3.2,0,3.8,0c0.7,0,3.8,0,4.6,0c0.8,0,4.7-0.1,5.4-0.1c0.7,0,3.7-0.1,4.3-0.1
		c0.6,0,1.7,0,2,0c0.3,0,0.7-0.1,0.8,0c0.1,0,0.2,0.2,0.2,0.2c0,0.1,0.2,0.7,0.3,1c0.1,0.3,0.2,0.6,0.2,0.8c0,0.2,0.1,0.4,0,0.4
		c0,0-0.4,0.3-0.5,0.3c-0.1,0-0.2,0-0.2,0s0.1-0.1,0-0.2c-0.1-0.1-0.3-0.3-0.4-0.3c-0.1,0-0.3,0-0.6,0.1c-0.3,0.1-1,0.3-1.5,0.4
		c-0.4,0.1-0.6,0.2-1.4,0.2c-0.7,0-2.4,0-3.2,0c-0.7,0-2.9-0.1-3.9-0.1c-1-0.1-3.5-0.2-4.4-0.2c-0.9,0-3.6-0.2-4.2-0.2
		c-0.6,0-3.8-0.2-4.5-0.3c-0.7-0.1-4-0.3-4.5-0.3c-0.5-0.1-1.7-0.1-2-0.2c-0.4,0-0.8-0.1-1-0.1c-0.2-0.1-0.2-0.1-0.3-0.2
		C106.7,36.2,106.5,36.2,106.5,36.2"/>
	<path class="st1" d="M105.1,38.7c0,0,0.5-0.3,0.7-0.4c0.2-0.2,0.4-0.3,0.5-0.5c0.1-0.1,0.1-0.2,0.1-0.2s1.4,0,1.7,0.1
		c0.3,0,1.9,0.1,2.3,0.2c0.4,0,2.9,0.2,3.7,0.3c0.8,0.1,4.3,0.3,5,0.3c0.7,0,3.5,0.2,4.2,0.3c0.7,0,3.4,0.2,4.3,0.2
		c0.9,0,4,0.1,4.5,0.1c0.5,0,2.2,0,2.5,0c0.3,0,0.7-0.1,0.9-0.1c0.2,0,0.4,0,0.4,0.2c0,0.2,0,1.1-0.1,1.4c-0.1,0.3-0.3,0.8-0.4,0.9
		c-0.2,0.1-0.4,0.3-0.4,0.3s0.1-0.2,0-0.3c-0.1-0.1-0.3-0.3-0.4-0.3c-0.2,0-1.1,0.2-1.5,0.3c-0.4,0.1-1.2,0.1-1.7,0.1
		c-0.6,0-1.8-0.1-2.5-0.1c-0.6-0.1-2.4-0.2-3.3-0.3c-0.9-0.1-3.3-0.4-4.4-0.5c-1.1-0.1-3.4-0.4-4.1-0.5c-0.8-0.1-3.4-0.4-4-0.5
		c-0.7-0.1-2.5-0.3-3-0.4c-0.5-0.1-2.1-0.3-2.5-0.4c-0.5-0.1-0.7-0.1-0.9-0.1c-0.2,0-0.4,0-0.6,0c-0.3,0-0.2,0-0.3,0
		c-0.1,0-0.2,0-0.3,0C105.2,38.7,105.1,38.7,105.1,38.7"/>
	<path class="st1" d="M103.9,41c0,0,0.4-0.1,0.6-0.2c0.2-0.1,0.6-0.2,0.7-0.4c0.1-0.2,0.1-0.2,0.1-0.3c0-0.1,0-0.2,0-0.2
		s0.7,0,0.9,0.1c0.3,0,1.5,0.2,1.9,0.3c0.4,0.1,2.3,0.4,2.9,0.4c0.5,0.1,4.1,0.6,4.8,0.7c0.7,0.1,3.8,0.5,4.3,0.5
		c0.6,0.1,4,0.4,4.5,0.5c0.5,0.1,2.5,0.2,3.1,0.3c0.7,0.1,2.1,0.1,2.7,0.1c0.6,0,1.1,0,1.2,0c0.2,0.1,0.3,0.2,0.3,0.3
		c0,0.1-0.2,1.1-0.2,1.3c-0.1,0.2-0.2,0.6-0.3,0.7c-0.1,0.1-0.2,0.3-0.3,0.4c-0.2,0.1-0.2,0.1-0.2,0.1s0.1-0.2,0.1-0.3
		c-0.1-0.1-0.3-0.3-0.4-0.3c-0.1,0-0.6,0.1-1,0.1c-0.3,0.1-0.9,0.1-1.4,0.2c-0.4,0-0.9,0.1-1.2,0.1c-0.3,0-0.8-0.1-1.2-0.1
		c-0.4-0.1-2-0.3-2.6-0.4c-0.6-0.1-2.4-0.4-3.2-0.6c-0.8-0.1-3.5-0.7-4.1-0.8c-0.5-0.1-2.6-0.6-3.1-0.7c-0.5-0.1-2.8-0.6-3.3-0.8
		c-0.5-0.1-1.9-0.5-2.3-0.6c-0.4-0.1-1.2-0.3-1.4-0.3c-0.2,0-0.5-0.1-0.6-0.1c-0.2,0.1-0.6,0.2-0.7,0.2c-0.1,0-0.1,0.1-0.3,0
		C104,41.1,103.9,41,103.9,41"/>
	<path class="st1" d="M102.2,42.9c0,0,0.4,0,0.5-0.1c0.2,0,0.6-0.1,0.8-0.2c0.2-0.1,0.3-0.1,0.3-0.2c0-0.1,0-0.4,0-0.5
		c0-0.1,0.1-0.2,0.1-0.2s0.4,0.1,0.6,0.1c0.2,0,0.8,0.1,1,0.2c0.2,0.1,3,0.8,3.4,0.9c0.4,0.1,3.6,0.9,4.1,1c0.5,0.1,3.1,0.7,3.7,0.8
		c0.6,0.1,4.4,0.8,5,0.9c0.6,0.1,2.8,0.4,3.3,0.5c0.5,0.1,1.3,0.1,1.4,0.2c0.2,0,0.3,0.1,0.3,0.3c0,0.3-0.3,0.8-0.4,1
		c-0.1,0.2-0.3,0.7-0.5,0.9c-0.2,0.2-0.4,0.4-0.5,0.5c-0.1,0.1-0.2,0.1-0.2,0.1s0.1-0.2,0.1-0.3c0-0.1-0.2-0.3-0.4-0.3
		c-0.2,0-0.6,0-1,0c-0.4,0-1.5-0.1-2.6-0.2c-1-0.2-2.6-0.4-3.6-0.6c-1-0.2-2.5-0.6-3.6-0.9c-1.1-0.3-2.8-0.8-3.9-1.2
		c-1.1-0.4-2.5-0.8-3.1-1.1c-0.6-0.2-2.4-0.9-2.7-1c-0.3-0.1-0.5-0.2-0.7-0.2c-0.2,0-0.5,0-0.7,0c-0.2,0-0.5-0.1-0.6-0.1
		c-0.1,0-0.2-0.1-0.3-0.2C102.2,43,102.2,42.9,102.2,42.9"/>
	<path class="st1" d="M100.1,44.7c0,0,0.7-0.2,1-0.3c0.3-0.1,0.7-0.3,1-0.2c0.3,0,1,0.3,1.4,0.4c0.4,0.2,1.8,0.6,2.2,0.8
		c0.4,0.1,3.6,1.2,4.1,1.4c0.5,0.2,3.3,1,3.9,1.2c0.6,0.2,3.3,0.9,3.9,1c0.6,0.1,1.7,0.3,2,0.4c0.3,0.1,0.6,0.1,0.7,0.3
		c0,0.2,0,0.4-0.1,0.5c-0.1,0.1-0.2,0.5-0.3,0.8c-0.1,0.2-0.2,0.6-0.3,0.7c-0.1,0.1-0.4,0.2-0.4,0.2s0.2-0.1,0.1-0.3
		c0-0.2-0.1-0.2-0.2-0.3c-0.1-0.1-0.2-0.2-0.4-0.2c-0.2,0-0.6,0-1,0.1c-0.3,0-1.5,0-2,0c-0.5,0-0.9,0-1.3,0c-0.3,0-0.8-0.1-1.3-0.3
		c-0.5-0.2-1.9-0.6-2.4-0.9c-0.6-0.2-2.3-1-2.8-1.2c-0.5-0.2-2.2-1.1-2.8-1.4c-0.6-0.3-1.4-0.7-1.8-0.9c-0.4-0.2-1.4-0.8-1.7-0.9
		s-0.5-0.2-0.7-0.3c-0.2,0-0.5-0.2-0.6-0.2c-0.1,0-0.3-0.1-0.3-0.1L100.1,44.7z"/>
	<path class="st1" d="M97.9,46.2c0,0,0.7-0.2,0.9-0.2c0.2-0.1,0.6-0.2,0.7-0.1c0.2,0,0.7,0.3,1,0.5c0.3,0.2,1.7,0.9,2.1,1.1
		c0.4,0.2,2.3,1.2,2.7,1.4c0.4,0.2,1.8,0.9,2.2,1.1c0.5,0.2,2.2,1,2.6,1.2c0.4,0.2,1.1,0.4,1.5,0.6c0.4,0.1,0.9,0.3,1.2,0.4
		c0.2,0.1,0.7,0.2,0.7,0.3c0,0.1,0,0.3-0.1,0.4c-0.1,0.2-0.3,0.7-0.4,0.9c-0.1,0.2-0.2,0.5-0.4,0.6c-0.1,0.1-0.2,0.2-0.3,0.2
		c-0.1,0-0.1,0-0.1,0s0.2-0.2,0.2-0.3c0-0.1-0.1-0.3-0.2-0.4c-0.1-0.1-0.3-0.2-0.4-0.2c-0.1,0-0.5,0-0.9,0c-0.4,0-1-0.1-1.5-0.2
		c-0.5-0.1-0.8-0.2-1.2-0.3c-0.4-0.2-1.3-0.6-1.7-0.9c-0.5-0.3-1.9-1.2-2.4-1.5c-0.4-0.3-2.5-1.8-2.8-2c-0.3-0.2-1.1-0.8-1.4-1
		c-0.3-0.2-0.7-0.6-0.9-0.7c-0.2-0.1-0.7-0.3-0.9-0.3c-0.2-0.1-0.4-0.1-0.4-0.2C97.8,46.4,97.9,46.2,97.9,46.2"/>
	<path class="st1" d="M95.6,47.6c0,0,0.4,0,0.6,0c0.2,0,0.5-0.1,0.6-0.1c0.1,0,0.3,0,0.5,0.1c0.2,0.1,0.7,0.4,1,0.6
		c0.3,0.2,1.4,1.1,1.7,1.3c0.3,0.3,2,1.4,2.3,1.7c0.3,0.2,1.8,1.2,2.2,1.5c0.4,0.2,1.2,0.7,1.5,0.9c0.4,0.2,0.8,0.4,0.9,0.5
		c0.1,0.1,0.3,0.2,0.1,0.5c-0.1,0.3-0.4,0.8-0.5,0.9c-0.1,0.1-0.3,0.3-0.4,0.4c-0.1,0.1-0.2,0.1-0.2,0.1s0.2-0.2,0.1-0.3
		c0-0.1-0.1-0.3-0.3-0.4c-0.2-0.1-0.6-0.2-0.9-0.2c-0.3-0.1-1.4-0.3-1.9-0.5c-0.4-0.1-0.8-0.2-1.1-0.4c-0.3-0.2-1-0.9-1.3-1.2
		c-0.3-0.3-1.1-1-1.5-1.4c-0.4-0.4-1.3-1.2-1.6-1.5c-0.3-0.3-1.1-1-1.3-1.2c-0.1-0.2-0.5-0.5-0.6-0.6c-0.1-0.1-0.2-0.1-0.2-0.2
		c-0.1-0.1,0-0.3,0-0.3C95.6,47.6,95.6,47.6,95.6,47.6"/>
	<path class="st1" d="M93.1,49.2l0.1-0.3c0-0.1,0-0.2,0-0.2s0.4,0,0.6,0c0.3,0,0.4-0.1,0.7-0.1c0.2,0,0.4,0.1,0.5,0.3
		c0.1,0.2,0.5,0.6,0.7,0.9c0.3,0.2,1.5,1.4,1.9,1.7c0.4,0.4,1.6,1.5,2,1.8c0.4,0.4,1,0.9,1.1,1c0.2,0.2,0.5,0.5,0.6,0.6
		c0.1,0.1,0.1,0.3,0,0.5c-0.1,0.2-0.3,0.5-0.4,0.6c-0.1,0.1-0.4,0.3-0.4,0.3s0.1-0.2,0.1-0.3c0-0.1-0.3-0.3-0.4-0.4
		c-0.2-0.1-0.9-0.2-1.2-0.3c-0.3-0.1-1-0.4-1.2-0.5c-0.2-0.1-1-1.1-1.2-1.3c-0.2-0.2-0.9-1.1-1.1-1.4c-0.2-0.3-0.8-1.1-1.1-1.4
		c-0.3-0.4-0.7-1-0.9-1.1c-0.1-0.1-0.1-0.2-0.3-0.3C93.2,49.3,93.1,49.2,93.1,49.2"/>
	<path class="st1" d="M90.6,49.6c0,0,0.4,0.1,0.7,0.1c0.3,0,0.5,0,0.6,0c0.1,0,0.3,0,0.4,0.1c0.1,0.1,0.2,0.4,0.2,0.5
		c0.1,0.1,0.9,1.3,1,1.5c0.1,0.2,0.7,1,1,1.3c0.3,0.3,0.9,1.2,1.1,1.5c0.2,0.3,0.6,0.7,0.7,0.8c0.1,0.2,0.4,0.5,0.4,0.6
		c0,0.1-0.1,0.2-0.1,0.3c-0.1,0.1-0.2,0.2-0.3,0.3c-0.1,0.1-0.3,0.3-0.4,0.3c-0.1,0,0-0.1,0-0.2c0-0.1,0-0.2-0.2-0.3
		c-0.2-0.2-0.5-0.3-0.7-0.4c-0.2-0.1-0.7-0.2-1.1-0.4c-0.3-0.1-0.5-0.2-0.6-0.4c-0.2-0.2-0.5-0.8-0.7-1.1c-0.2-0.3-0.8-1.4-0.9-1.7
		c-0.1-0.3-0.2-0.5-0.2-0.6c0-0.2,0-0.8-0.1-1c-0.1-0.2-0.2-0.4-0.4-0.5c-0.1-0.1-0.2-0.1-0.2-0.1c-0.1,0-0.2-0.1-0.2-0.1
		s0-0.2,0-0.3C90.7,49.6,90.6,49.6,90.6,49.6"/>
	<path class="st1" d="M90.5,52.9c0,0,0.3,0.5,0.4,0.6c0.1,0.2,0.4,0.5,0.5,0.8c0.1,0.3,0.5,0.9,0.6,1.2c0.1,0.2,0.3,0.4,0.2,0.7
		c0,0.2-0.2,0.5-0.3,0.6c-0.1,0.1-0.1,0.2-0.2,0.3c-0.1,0.1-0.4,0.2-0.4,0.2s0.1-0.1,0.2-0.3c0-0.1-0.1-0.3-0.2-0.4
		c-0.1-0.1-0.2-0.3-0.4-0.3c-0.2-0.1-0.5-0.3-0.6-0.4c0-0.1-0.1-0.2,0-0.5c0.1-0.3,0.1-0.6,0.1-0.8c-0.1-0.2-0.1-0.3-0.1-0.4
		c0-0.1-0.1-0.1-0.1-0.1s0.1-0.5,0.2-0.6L90.5,52.9z"/>
	<path class="st1" d="M79.7,63.7c0,0,0.7-0.3,1-0.4c0.3-0.1,0.9-0.4,1.3-0.6c0.4-0.2,1.5-0.8,2-1.1c0.5-0.3,1.1-0.7,1.5-1.1
		c0.5-0.4,1.3-1.1,1.6-1.4c0.3-0.3,1.1-1.2,1.3-1.5c0.2-0.3,0.6-0.9,0.6-0.9l0.8,0.4c0.4,0.2,0.8,0.4,1,0.4c0.3,0,0.4,0.1,0.7,0.1
		c0.3,0,0.4-0.1,0.5-0.2c0.1-0.2,0.3-0.4,0.4-0.6c0.1-0.2,0.2-0.4,0.2-0.4s0.3,0.2,0.5,0.2l1,0.3c0.3,0.1,0.6,0.2,0.8,0.3
		c0.2,0.1,0.2,0.2,0.2,0.3c0,0.1-0.1,0.4-0.2,0.6c-0.1,0.2-0.5,1-0.6,1.3c-0.2,0.3-0.8,1.3-1.1,1.7c-0.3,0.4-1.3,1.7-1.7,2.1
		c-0.4,0.4-0.8,0.8-1.1,1c-0.3,0.1-0.7,0.2-1,0.4l-1.5,1c-0.4,0.3-1,0.6-1.4,0.8C86,66.5,85,67,84.6,67.1c-0.3,0.2-0.7,0.3-0.9,0.4
		c-0.2,0.1-0.4,0.2-0.5,0.2c-0.2,0-0.3-0.1-0.3-0.3c-0.1-0.1-0.6-1-0.7-1.3c-0.2-0.3-0.9-1.5-1-1.7c-0.1-0.2-0.2-0.3-0.5-0.5
		c-0.2-0.1-0.3-0.1-0.4-0.1c-0.1,0-0.2,0-0.3,0C79.8,63.8,79.7,63.7,79.7,63.7"/>
	<path class="st1" d="M77.4,64.3c0,0,0.6-0.1,0.8-0.2c0.3-0.1,0.6-0.2,0.8-0.2c0.2,0,0.3-0.1,0.4,0.1c0.1,0.1,0.2,0.3,0.2,0.4
		c0.1,0.1,0.6,1.1,0.8,1.5c0.2,0.3,0.7,1.3,0.9,1.6c0.2,0.3,0.7,1.2,0.9,1.4c0.1,0.2,0.3,0.5,0.4,0.6c0.1,0.2,0.3,0.5,0.3,0.7
		c0.1,0.2,0.1,0.3,0.1,0.4c-0.1,0.1-0.4,0.7-0.5,0.9c-0.1,0.2-0.4,0.7-0.4,0.7s0-0.5-0.1-0.7c-0.1-0.2-0.2-0.4-0.3-0.5
		c-0.2-0.1-0.5-0.2-0.6-0.3c-0.1-0.1-0.2-0.2-0.4-0.5c-0.2-0.3-0.6-1.4-0.7-1.7c-0.2-0.4-0.7-1.7-0.8-2.1c-0.2-0.4-0.5-1.2-0.6-1.3
		c-0.1-0.2-0.5-0.4-0.6-0.4c-0.1,0-0.3,0-0.3,0c0,0-0.2,0-0.2,0L77.4,64.3z"/>
	<path class="st1" d="M95.5,57.4c0,0,0.3,0,0.4,0c0.1-0.1,0.4-0.3,0.6-0.5c0.2-0.2,0.4-0.4,0.5-0.5c0.1-0.1,0.1-0.2,0.1-0.2
		s0.1,0,0.1,0.1S97,57,96.9,57.2c-0.1,0.2-0.3,0.7-0.4,1c-0.1,0.3-0.6,1.2-0.8,1.5c-0.2,0.3-0.9,1.5-1.2,1.9
		c-0.3,0.4-1.2,1.5-1.5,1.9c-0.3,0.3-1.4,1.4-1.7,1.7c-0.3,0.3-2.3,1.6-2.6,1.8c-0.4,0.2-1.6,1-1.9,1.1c-0.3,0.2-1.2,0.6-1.5,0.7
		c-0.3,0.2-1.1,0.5-1.3,0.6c-0.2,0-0.4,0-0.6,0c-0.2,0-0.3,0-0.3,0c-0.1,0-0.3,0-0.3,0l-0.1-0.2c0,0,0.7-0.3,1.1-0.5
		c0.4-0.2,2-0.9,2.4-1.2c0.5-0.3,1.4-0.8,1.9-1.1c0.5-0.3,1.6-1.2,2.1-1.5c0.4-0.4,1.6-1.6,1.8-1.8c0.2-0.3,1.2-1.2,1.4-1.4
		c0.2-0.2,0.6-0.6,0.9-1c0.3-0.4,0.9-1.5,1.1-1.8c0.1-0.3,0.3-0.5,0.3-0.7c0-0.1,0-0.3-0.1-0.3c0,0-0.3-0.1-0.3-0.1l0.1-0.3
		C95.5,57.4,95.5,57.4,95.5,57.4"/>
	<path class="st1" d="M75.2,64.7c0,0,0.2,0,0.4-0.1c0.2-0.1,0.7-0.3,0.9-0.3c0.2,0,0.5,0,0.6,0.1c0.1,0.1,0.1,0.3,0.2,0.5
		c0.1,0.3,0.7,1.8,0.8,2.2c0.1,0.4,0.8,2,0.9,2.3c0.1,0.3,0.4,1.1,0.5,1.2c0,0.2,0.2,0.6,0.2,0.7c0,0.1-0.3,0.5-0.4,0.7
		c-0.1,0.2-0.6,0.9-0.6,0.9s0-0.3,0-0.3c0.1-0.1,0.1-0.3,0.1-0.3c0-0.1-0.1-0.4-0.3-0.5c-0.2-0.1-0.4-0.2-0.6-0.4
		c-0.1-0.1-0.2-0.2-0.3-0.6c-0.1-0.4-0.4-1.6-0.5-2c-0.1-0.4-0.5-2-0.5-2.4c-0.1-0.3-0.2-0.8-0.3-0.9c-0.1-0.2-0.4-0.4-0.5-0.4
		c-0.1,0-0.2,0-0.3,0c0,0-0.1,0-0.1,0L75.2,64.7z"/>
	<path class="st1" d="M73.1,64.9c0,0,0.4,0,0.5-0.1c0.2,0,0.6-0.1,0.8-0.1c0.2,0,0.5,0.1,0.5,0.2c0,0.2,0.1,0.6,0.1,0.8
		c0,0.2,0.5,2.1,0.5,2.3c0.1,0.3,0.6,2.3,0.6,2.6c0.1,0.3,0.2,1,0.2,1.2c0,0.2,0,0.3,0,0.4c0,0.1-0.3,0.4-0.5,0.6
		c-0.2,0.2-0.7,0.8-0.7,0.8s-0.1-0.2,0-0.3c0.1-0.1,0.2-0.2,0.2-0.4c0-0.2-0.2-0.4-0.3-0.6c-0.1-0.1-0.4-0.3-0.6-0.4
		c-0.1-0.1-0.2-0.3-0.2-0.6c0-0.3-0.2-2.1-0.2-2.7c0-0.6-0.2-2.2-0.2-2.4c0-0.2-0.1-0.5-0.2-0.6c-0.2-0.2-0.3-0.2-0.4-0.3
		c-0.1,0-0.2,0-0.2,0L73.1,64.9z"/>
	<path class="st1" d="M70.9,64.9c0,0,0.4,0,0.5,0c0.1,0,0.5-0.1,0.8-0.1c0.3,0,0.6,0.1,0.6,0.2c0,0.2,0,0.6,0,0.9
		c0,0.3,0.1,1.9,0.1,2.1c0,0.3,0.1,2,0.2,2.4c0,0.4,0.1,1.2,0.1,1.4c0,0.2,0,0.4,0,0.4s-0.5,0.5-0.6,0.6c-0.2,0.1-0.7,0.6-0.7,0.6
		s0.1-0.2,0.2-0.3c0.1-0.1,0.2-0.3,0.1-0.4c-0.1-0.1-0.5-0.5-0.6-0.6c-0.1-0.1-0.3-0.3-0.3-0.5c0-0.2,0.1-1.6,0.1-2.2
		c0.1-0.6,0.1-1.9,0.2-2.4c0-0.5,0.1-1,0-1.2c-0.1-0.2-0.2-0.4-0.4-0.5c-0.1-0.1-0.3-0.1-0.3-0.1L70.9,64.9z"/>
	<path class="st1" d="M68.8,64.8c0,0,0.3,0,0.4,0c0.1,0,0.3,0,0.5,0c0.2,0,0.4,0,0.6,0.1c0.2,0.1,0.3,0.2,0.3,0.4
		c0,0.3-0.1,1.3-0.1,1.6c0,0.3-0.2,2.3-0.2,2.5c0,0.2-0.1,1.1-0.1,1.4c0,0.2-0.1,0.8-0.1,1c0,0.2-0.1,0.6-0.1,0.6c0,0,0,0.1,0,0.1
		s-0.4,0.3-0.5,0.4c-0.1,0.1-0.1-0.1-0.2-0.2c-0.1-0.1-0.2-0.1-0.4-0.2c-0.2-0.1-0.5-0.4-0.6-0.6c-0.1-0.2-0.2-0.4-0.1-0.7
		c0.1-0.3,0.4-1.5,0.5-1.9c0.1-0.4,0.4-1.6,0.5-2c0.1-0.4,0.3-1,0.3-1.3c0-0.2-0.1-0.4-0.2-0.5c-0.1-0.1-0.1-0.1-0.2-0.2
		c-0.1,0-0.2-0.1-0.2-0.1L68.8,64.8z"/>
	<path class="st1" d="M66.6,64.4c0,0,0.3,0,0.4,0c0.1,0,0.4,0,0.7,0c0.3,0.1,0.6,0.1,0.6,0.2c0,0.1,0.1,0.3,0,0.5
		c-0.1,0.3-0.5,2.2-0.6,2.6c-0.1,0.3-0.4,1.9-0.5,2.2c-0.1,0.3-0.3,1.2-0.3,1.4c-0.1,0.2-0.2,0.6-0.2,0.6c0,0-0.3,0.2-0.4,0.2
		c-0.1,0-0.2,0.1-0.2,0.1s0.1-0.2,0.1-0.3c0-0.1-0.2-0.2-0.3-0.2c-0.2,0-0.3,0.1-0.4,0.1c-0.1,0-0.3-0.1-0.5-0.5
		c-0.1-0.3-0.2-0.4-0.1-0.6c0.1-0.3,0.7-1.7,0.8-2.1c0.1-0.4,0.7-1.8,0.8-2.2c0.1-0.4,0.3-0.8,0.3-1c0-0.1-0.1-0.4-0.2-0.4
		C66.6,65,66.5,65,66.4,65c0,0-0.1,0-0.1,0L66.6,64.4z"/>
	<path class="st1" d="M64.4,63.9c0,0,0.2,0.1,0.4,0.1s0.4,0,0.7,0.1c0.2,0.1,0.6,0.3,0.6,0.4c0.1,0.1-0.1,0.4-0.2,0.7
		c-0.1,0.3-0.8,2.1-1,2.4c-0.2,0.4-0.8,2.1-0.9,2.3c-0.1,0.2-0.4,0.9-0.5,1.1c-0.1,0.2-0.2,0.4-0.2,0.4L63,71.4c0,0,0.1-0.2,0-0.2
		c-0.1-0.1-0.3-0.3-0.4-0.3c-0.1,0-0.3,0-0.4,0.1C62.2,71,62,71,61.9,70.9c-0.1-0.1-0.3-0.5-0.3-0.6c0-0.1-0.1-0.2,0-0.4
		c0.1-0.2,0.8-1.4,0.9-1.6c0.1-0.2,0.9-1.5,1.1-1.8c0.2-0.3,0.6-1,0.7-1.2c0.1-0.2,0.1-0.3,0.1-0.4c-0.1-0.1-0.1-0.2-0.1-0.2
		c-0.1,0-0.2-0.1-0.2-0.1L64.4,63.9z"/>
	<path class="st0" d="M72.2,59.4H72c-2.2,0-4.7-0.6-4.7-4.2c0-3.6,2.5-4.3,4.8-4.3c2.2,0,4.6,0.8,4.6,4.3
		C76.7,58.4,74.5,59.4,72.2,59.4"/>
	<path class="st1" d="M71.8,64.5c-10.6,0-18.5-6.5-18.5-13.9c0-7.4,8-13.9,18.5-13.9s18.5,6.5,18.5,13.9
		C90.3,58,82.3,64.5,71.8,64.5"/>
	<path class="st0" d="M71.7,41.7c2.6,0,4.3,1.1,4.3,3.9c0,3-1.8,3.9-4.3,3.9c-2.4,0-4.3-0.9-4.3-3.9C67.5,42.9,69.4,41.7,71.7,41.7"
		/>
	<path class="st0" d="M79,49.9c2.5-1.4,3.1-2.9,2.9-4.6c-0.3-3.1-4.6-5.3-10.2-5.2c-6.7,0.1-10.8,3.5-10.8,4.3
		c0,0.9,1.3,1.1,1.3,1.6l0,9.3c0,0.6-1.3,1.2-1.3,1.9c0,0.7,4.3,3.9,11.5,3.8c6.3,0,9.9-2.7,10-5.9C82.4,53.4,81.4,51.1,79,49.9
		L79,49.9z"/>
	<path class="st0" d="M71.8,37.4c10.7,0,17.9,6.7,17.9,13.3c0,6.6-7.3,13.3-17.9,13.3c-10.7,0-17.9-6.7-17.9-13.3
		C53.8,44,61.1,37.4,71.8,37.4"/>
	<path class="st1" d="M71.7,41.7c2.6,0,4.3,1.1,4.3,3.9c0,3-1.8,3.9-4.3,3.9c-2.4,0-4.3-0.9-4.3-3.9C67.5,42.9,69.4,41.7,71.7,41.7
		 M79,49.9c2.5-1.4,3.1-2.9,2.9-4.6c-0.3-3.1-4.6-5.3-10.2-5.2c-6.7,0.1-10.8,3.5-10.8,4.3c0,0.9,1.3,1.1,1.3,1.6l0,9.3
		c0,0.6-1.3,1.2-1.3,1.9c0,0.7,4.3,3.9,11.5,3.8c6.3,0,9.9-2.7,10-5.9C82.4,53.4,81.4,51.1,79,49.9L79,49.9z M72.2,59.4H72
		c-2.2,0-4.7-0.6-4.7-4.2c0-3.6,2.5-4.3,4.8-4.3c2.2,0,4.6,0.8,4.6,4.3C76.7,58.4,74.5,59.4,72.2,59.4"/>
</g>
</svg>
