<?xml version="1.0" encoding="utf-8"?>
<!-- Generator: Adobe Illustrator 25.3.1, SVG Export Plug-In . SVG Version: 6.00 Build 0)  -->
<svg version="1.1" id="Layer_1" xmlns="http://www.w3.org/2000/svg" xmlns:xlink="http://www.w3.org/1999/xlink" x="0px" y="0px"
	 viewBox="0 0 1457.8 246.2" style="enable-background:new 0 0 1457.8 246.2;" xml:space="preserve">
<style type="text/css">
	.st0{fill:#1589CA;}
	.st1{fill-rule:evenodd;clip-rule:evenodd;fill:#1488C9;}
</style>
<g>
	<g>
		<g>
			<g>
				<g>
					<g>
						<g>
							<g>
								<path class="st0" d="M836.4,141.2h46v16.3h-67.1V90.2h7.1c8.6,0.4,14,3,14,11.5L836.4,141.2L836.4,141.2z M705.3,115.2h8.9
									c6.8-6.2,13.6-12.3,20.4-18.5c5.3-4.4,12-6.7,18.9-6.5h16.4l-37.3,33.3l42.3,34.2h-17c-7.4,0.7-14.8-1.7-20.4-6.5l-23.2-19
									h-8.9v25.5h-21V90.2h21C705.3,90.2,705.3,115.2,705.3,115.2z M503.5,157.6h-21.1V90.2h10.4c6.2,0.3,10.9,5.5,10.7,11.6v13.1
									h43.2v-13.4c0.3-6.4,5.6-11.5,12.1-11.4h9.1v67.4h-21.2v-26.3h-43.2L503.5,157.6L503.5,157.6z M968.2,106.6h-54.4v10.2h54.4
									v14.2h-54.4v10.3h54.6v16.3h-75.7v-51c0.9-8.4,4.1-15,17.4-16.5h58.1L968.2,106.6L968.2,106.6z M1033.1,157.6H1012v-24.2
									l-38.1-43.2h16.5c5.8,0.2,11.3,2.7,15.3,6.9l16.8,19.9c5.8-6.5,11.6-13.1,17.4-19.7c4.4-4.7,10.6-7.3,17-7.1h14.3
									l-38.1,43.3L1033.1,157.6L1033.1,157.6z M1098.1,141.2h45.9v16.3h-67V90.2h7c8.6,0.4,14.1,3,14.1,11.5L1098.1,141.2
									L1098.1,141.2z M1351.8,157.6h-30.9l-41.4-49v49.1h-21.1V90.2h17.3c10.1,0.2,19.4,5.2,25.2,13.5l29.9,36V90.2h21
									L1351.8,157.6L1351.8,157.6z M1415.4,106.8h-33.1v34.4h35.8c3.5,0.3,6.9-0.7,9.8-2.7c2.2-2.2,3.4-5.3,3.1-8.4v-11.8
									c0.3-3.4-1.1-6.6-3.8-8.8C1423.7,107.4,1419.5,106.5,1415.4,106.8 M1421.8,90.1c8.1-0.6,16.1,1.3,23,5.5
									c5.1,4.2,7.8,10.6,7.2,17.2V136c0.5,6-1.6,12-5.7,16.4c-5.3,3.9-11.7,5.7-18.3,5.2h-66.8V90.2L1421.8,90.1L1421.8,90.1z
									 M443.2,142.8c2,0.2,3.9-0.3,5.6-1.3c1.2-1.1,1.8-2.7,1.6-4.3c0.2-1.7-0.6-3.3-1.9-4.3c-2.6-1.2-5.5-1.8-8.3-1.8l-33.1-0.7
									c-6,0.5-11.9-1.2-16.8-4.6c-3.4-4.4-5-9.9-4.4-15.5c-0.1-3.2,0.3-6.4,1.2-9.5c0.6-2.4,1.9-4.5,3.7-6.3c2.2-2,5-3.4,7.9-4
									c5.2-1,10.5-1.4,15.8-1.2h32.3c6.1-0.5,12.1,1,17.2,4.2c3.1,2.7,4.9,6.5,5.1,10.6h-51.6c-2.7-0.2-5.5,0.2-8,1.2
									c-1.4,0.9-2.1,2.5-1.9,4.1c-0.2,1.6,0.5,3.2,1.8,4.2c2,1.1,4.3,1.7,6.5,1.7l34.7,0.6c6-0.4,12,1.4,16.7,5.2
									c3.7,4.7,5.5,10.7,4.8,16.7c0.2,3.7-0.4,7.4-1.8,10.8c-1.3,2.7-3.4,5-6,6.6c-2.3,1.3-4.9,2.1-7.5,2.4
									c-4.6,0.6-9.3,0.8-13.9,0.7h-28.1c-7.9,0.7-15.9-0.6-23.2-3.7c-3.7-2.8-5.8-7.2-5.7-11.8
									C385.8,142.9,443.2,142.8,443.2,142.8z M303.8,157.6h-23l37.7-67.4h26.9l37,67.4h-23.2l-6.7-11.2h-42.1L303.8,157.6
									L303.8,157.6z M318.4,130.1h26.5l-13.4-23.8L318.4,130.1z M614,158.3c-5.9,0.1-11.8-0.2-17.7-1c-3.3-0.5-6.4-1.7-9.2-3.6
									c-2.6-1.9-4.6-4.6-5.7-7.6c-1.3-4-1.9-8.2-1.7-12.4v-18.4c-0.2-4.5,0.4-9.1,1.7-13.4c1.1-3.1,3.1-5.8,5.7-7.8
									c2.8-1.9,6-3.1,9.4-3.6c5.8-0.8,11.6-1.2,17.5-1.1h24.8c5.9-0.1,11.8,0.2,17.6,1.1c3.3,0.5,6.5,1.7,9.3,3.6
									c2.6,2,4.6,4.7,5.6,7.8c1.3,4.1,1.9,8.4,1.8,12.6v18.8c0.1,4.3-0.5,8.5-1.8,12.6c-1.1,3.1-3,5.8-5.6,7.8
									c-2.7,1.9-5.9,3.1-9.1,3.6c-5.9,0.8-11.8,1.2-17.7,1H614L614,158.3z M619.7,141.5h13.4c5.1,0.5,10.3-0.4,14.9-2.7
									c2.7-2.6,4.1-6.4,3.6-10.1v-9.6c0.4-3.8-0.9-7.5-3.6-10.1c-4.6-2.3-9.7-3.3-14.9-2.8h-13.5c-5.1-0.5-10.3,0.4-14.9,2.8
									c-2.7,2.8-4,6.6-3.6,10.5v9.4c-0.5,3.7,0.9,7.5,3.7,10C609.5,141.1,614.6,142.1,619.7,141.5 M1172.6,157.6h-23l37.8-67.4
									h26.8l37.1,67.4h-23.2l-6.7-11.2h-42.1L1172.6,157.6L1172.6,157.6z M1187.4,130.1h26.5l-13.4-23.8L1187.4,130.1
									L1187.4,130.1z M143.2,98.1c1.3-2.5,2.1-5.2,2.4-8h-36.3l-0.8,0.6l-1.1,3.5c-0.9,2.6,1.1,2.1,2,2.6c2.5,0.8,3.9,3.4,3.2,5.9
									l-11.4,35.7c-1.5,3.8-4.4,4.4-8.8,4.9c-0.7,2.4-1,3.2-1.8,5.2l0.8,0.7h65l7.9-25.6c-2.1-0.6-4.3-0.6-6.4-0.1
									c-1.7,2.6-2,6.5-4,10.1c-1.5,2.6-3.7,4.6-6.3,6c-6.3,2.6-10.6,1.5-20,1.6c-0.8,0-1.5-0.1-2.3-0.2c-1.4-0.2-1.4-0.7-1.2-1.6
									l11.6-37.3C136.9,98.9,140,98.3,143.2,98.1"/>
								<path class="st1" d="M124.2,9.1C188,9.8,239.1,61.9,238.6,125.7c-0.5,63.7-52.4,115.1-116.2,114.8
									c-63.7-0.2-115.3-52-115.3-115.7C7.7,60.6,60,8.8,124.2,9.1 M124.2,75c27.4,0.3,49.4,22.7,49.2,50.1
									c-0.2,27.4-22.5,49.5-49.9,49.4c-27.4-0.1-49.6-22.3-49.6-49.7C74.1,97.2,96.6,74.9,124.2,75 M127.2,25.7
									c-14,7-60.4,38.8-64.4,96.5C51.2,105.7,45,86,45.2,65.9l0.5-2.1C51.8,50.8,88.7,22.2,127.2,25.7 M25.3,121.1
									c6.9,14,38.7,60.5,96.2,64.5c-16.3,11.6-35.9,17.8-56,17.7l-2.2-0.4C50.4,196.7,21.8,159.7,25.3,121.1 M121.3,223.9
									c14-7.1,60.4-38.9,64.5-96.5c11.5,16.5,17.7,36.1,17.6,56.2l-0.5,2.1C196.6,198.8,159.7,227.4,121.3,223.9 M223.1,128.4
									c-7-14-38.8-60.5-96.2-64.6c16.4-11.6,36-17.7,56-17.6l2.1,0.5C198,52.9,226.6,89.9,223.1,128.4"/>
							</g>
						</g>
					</g>
				</g>
			</g>
		</g>
	</g>
</g>
</svg>
