<?xml version="1.0" encoding="utf-8"?>
<!-- Generator: Adobe Illustrator 24.0.2, SVG Export Plug-In . SVG Version: 6.00 Build 0)  -->
<svg version="1.1" id="Layer_1" xmlns="http://www.w3.org/2000/svg" xmlns:xlink="http://www.w3.org/1999/xlink" x="0px" y="0px"
	 viewBox="0 0 144 101" style="enable-background:new 0 0 144 101;" xml:space="preserve">
<style type="text/css">
	.st0{fill-rule:evenodd;clip-rule:evenodd;fill:#F3C02A;}
	.st1{fill-rule:evenodd;clip-rule:evenodd;fill:#005938;}
	.st2{fill-rule:evenodd;clip-rule:evenodd;fill:#D0D2D3;}
</style>
<g id="Layer_1_1_">
</g>
<g>
	<path class="st0" d="M72,2.8c26.3,0,47.7,21.4,47.7,47.7c0,26.3-21.4,47.7-47.7,47.7c-26.3,0-47.7-21.5-47.7-47.7
		C24.3,24.2,45.7,2.8,72,2.8L72,2.8z"/>
	<path class="st1" d="M59.2,21.1c0,0,4.9-6.6,12.4-6.7c7.5-0.2,11.7,4.6,11.7,4.6l25.6,28.7c0,0,5.2,5,3.3,10.6
		c-1.9,5.6-12.6,17.8-39.5,18.3C45.7,77.1,34.4,63,34.4,63s-5.5-7.3,0-13.7C39.8,42.9,59.2,21.1,59.2,21.1L59.2,21.1z"/>
	<path class="st2" d="M72.6,23.5c0,0-4.8-0.7-8.3,3c-3.5,3.7-3.2,8.6-3.2,8.6l3.2-4.5c0,0,0.4-0.3,0.2-0.9c-0.2-0.5-0.3-0.7-0.3-0.7
		v-0.9L77.8,28c0,0,3.7-0.1,3.7,3.6c0,3.8-2.6,4-2.6,4s4,0.8,4,5.2c0,4.4-4.7,5.6-4.7,5.6L68,46.4c0,0-0.9-0.7,0.1-1.1
		c1-0.3,1.4-0.5,1.4-1c0-0.5,0-0.5,0-0.5s-2.2-0.3-3.8-2.2c-1.5-1.9-1.2-5-1.2-5l-2-0.1l-1.3,1.9c0,0,0.6,4.8,3,7
		c2.4,2.1,4,4.2,9.5,3.9c5.6-0.2,9.7-3.1,9.7-3.1l1.1-0.9c0,0,0.4-0.8,1.2-0.3c0.8,0.4-0.8,2.1-0.8,2.1s-3.4,4.6-12,5.1
		c-8.6,0.5-14.6-8.5-14.2-8.9c0.3-0.4-1.3,1.6-0.4,2.1c0.9,0.5,0.5,1.3,0.5,1.3l-6.3,0.1c0,0-0.4,0.2-0.4-0.6c0-0.7,0.7-0.7,0.7-0.7
		s2.3-0.1,3-1.3c0.7-1.1,1.9-2.9,1.9-2.9s-0.7-3.8-0.5-5.4c0.1-1.6,1.3-10.1,7.9-13c6.6-2.8,13.2-0.5,13.2-0.5s1.2,0.7,2.1,0
		c0.9-0.7,1.2-1.3,1.9-0.1c0.6,1.3,1.9,3.4,1.9,3.4s0.6,1.9-2.1,0.3c-2.8-1.5-7.2-2.5-7.2-2.5H72.6L72.6,23.5z M67.2,36.6h2.3v4.6
		c0,0-1.3-0.3-1.8-1.4C67.1,38.8,67.2,36.6,67.2,36.6L67.2,36.6z M63.9,34.8l0.9,0.1c0,0,0.5-1.5,1.8-2.5c1.3-0.9,2.8-1.3,2.8-1.3
		s0.3-1.2-0.6-1.1C67.8,29.9,67,30,67,30s-0.5,0-0.9,0.7C65.8,31.5,63.9,34.8,63.9,34.8L63.9,34.8z M67.2,34.7h2.1v-2.4
		c0,0-0.9,0.1-1.5,1C67.2,34.2,67.2,34.7,67.2,34.7L67.2,34.7z M72.3,31.9v2.8h4.3c0,0,1.7-0.4,1.7-2.6c0-2.1-1.7-2.4-1.7-2.4h-4.3
		v1.1l2.4,0.1c0,0,0.7-0.7,1.4,0.1c0.7,0.9,0.8,1.3,0.8,1.3s0.1,1.5-1.3,0.2C74.1,31.3,72.3,31.9,72.3,31.9L72.3,31.9z M72.5,36.7
		l0.1,5.2c0,0,1.9,0.4,3.4-0.9c1.5-1.3,1.1-1.1,1.1-1.1s0.2-0.2,0.7,0.1c0.5,0.4-0.3,1.3-0.3,1.3s-0.5,0.8-1.9,1.5
		c-1.4,0.7-3,0.8-3,0.8l-0.1,0.7c0,0,0.9,0.5,2.4,0.5c1.4-0.1,1.8-0.2,1.8-0.2s2.8-0.8,2.8-4.2c0-3.3-3.3-4-3.3-4H72.5L72.5,36.7z"
		/>
	<path class="st2" d="M58,18.8c0,0,5.5-6.6,13.5-6.8c8-0.2,12.8,4.8,12.8,4.8L112,47.1c0,0,4.8,5.7,2.7,11.8
		c-2.1,6.1-13.2,19.8-42.1,20.3c-28.9,0.6-41.1-15-41.1-15S25.8,55,31.7,48C37.6,41.2,58,18.8,58,18.8L58,18.8z M59.3,21.3
		c0,0,4.8-6.5,12.2-6.6c7.4-0.2,11.5,4.6,11.5,4.6l25.4,28.4c0,0,5.2,4.9,3.2,10.5c-1.9,5.6-12.5,17.7-39.1,18.2
		c-26.7,0.5-37.9-13.5-37.9-13.5s-5.4-7.3,0-13.6C40.2,42.9,59.3,21.3,59.3,21.3L59.3,21.3z"/>
	<path class="st2" d="M49,61.1l-2.7,3.5l-11.9-8.5l0.5-0.6c0.2,0.1,0.5,0.3,0.7,0.5c0.3,0.1,0.5,0.3,0.7,0.3c0.3,0.1,0.5,0.1,0.7,0
		c0.1-0.1,0.3-0.2,0.5-0.4l5.3-8.1c0.1-0.2,0.2-0.3,0.3-0.5c0-0.2-0.1-0.4-0.3-0.7c-0.1-0.2-0.3-0.5-0.5-0.7
		c-0.3-0.3-0.5-0.4-0.6-0.5l0.4-0.7l7.1,5.1l-0.5,0.6c-0.2-0.1-0.4-0.2-0.7-0.4c-0.3-0.1-0.5-0.3-0.7-0.3c-0.3-0.1-0.5-0.1-0.7-0.1
		c-0.2,0.1-0.3,0.3-0.5,0.5l-5,7.5c-0.3,0.3-0.4,0.7-0.5,0.9c-0.1,0.3-0.1,0.5,0,0.7c0.1,0.2,0.3,0.4,0.5,0.7
		c0.3,0.2,0.6,0.5,1.1,0.9c0.5,0.3,0.9,0.7,1.5,0.9c0.5,0.3,0.9,0.4,1.2,0.3c0.5,0,1-0.2,1.7-0.5c0.7-0.3,1.2-0.5,1.7-0.8L49,61.1
		L49,61.1z"/>
	<path class="st2" d="M63.7,58.1c0.4,0.7,0.7,1.5,0.7,2.5c0.1,0.9-0.1,1.8-0.4,2.8c-0.3,0.9-0.8,1.7-1.4,2.5
		c-0.6,0.7-1.3,1.3-2.1,1.7c-0.9,0.5-1.7,0.7-2.8,0.9c-0.9,0.1-2,0-3.2-0.3c-0.9-0.3-1.8-0.7-2.5-1.2c-0.7-0.5-1.3-1.1-1.7-1.9
		c-0.5-0.7-0.7-1.5-0.8-2.4c-0.1-0.9,0.1-1.8,0.4-2.8c0.4-1,0.9-1.9,1.5-2.6c0.7-0.7,1.4-1.3,2.2-1.7c0.9-0.4,1.7-0.6,2.8-0.7
		c0.9-0.1,1.9,0.1,2.9,0.3c0.9,0.3,1.8,0.7,2.6,1.2C62.7,56.8,63.2,57.4,63.7,58.1L63.7,58.1z M58.1,66.3c0.5-0.5,0.9-1,1.3-1.7
		c0.3-0.6,0.7-1.3,1-2.2c0.2-0.7,0.4-1.4,0.6-2.1c0.1-0.7,0.1-1.4,0.1-2c-0.1-0.6-0.3-1.1-0.5-1.5c-0.3-0.4-0.8-0.7-1.5-0.9
		c-1.1-0.3-2.1,0-3,0.9c-0.9,0.8-1.7,2.1-2.4,4c-0.3,0.7-0.5,1.5-0.6,2.2c-0.1,0.7-0.1,1.4-0.1,1.9c0.1,0.6,0.3,1.1,0.6,1.5
		c0.3,0.4,0.7,0.7,1.3,0.8c0.6,0.2,1.2,0.2,1.7,0C57.2,67.1,57.7,66.7,58.1,66.3L58.1,66.3z"/>
	<path class="st2" d="M77.2,59.9h-0.7c-0.1-0.6-0.5-1.2-0.9-1.8c-0.4-0.7-0.7-1-1.1-1C74.4,57,74.2,57,73.9,57c-0.3,0-0.5,0-0.7,0
		h-0.4L73,67.5c0,0.2,0,0.4,0.1,0.5c0.1,0.2,0.3,0.3,0.5,0.4c0.1,0.1,0.3,0.1,0.6,0.2c0.3,0,0.5,0.1,0.7,0.1v0.7l-6.8,0.1v-0.7
		c0.1,0,0.4-0.1,0.7-0.1c0.3-0.1,0.5-0.1,0.6-0.1c0.2-0.1,0.4-0.3,0.5-0.4c0.1-0.2,0.1-0.4,0.1-0.6l-0.1-10.5h-0.4
		c-0.2,0-0.5,0-0.7,0c-0.3,0.1-0.5,0.1-0.7,0.1c-0.3,0.1-0.7,0.5-1.1,1.1c-0.3,0.7-0.6,1.3-0.8,1.9h-0.7l-0.1-3.8l11.8-0.2
		L77.2,59.9L77.2,59.9z"/>
	<path class="st2" d="M93.2,52.4c-0.2,0.1-0.5,0.2-0.7,0.4c-0.3,0.1-0.6,0.3-0.8,0.5c-0.2,0.2-0.3,0.5-0.3,0.9c0,0.4,0.1,1,0.3,1.7
		l1.3,4.6c0.3,1.4,0.1,2.6-0.6,3.7c-0.8,1.1-1.9,1.9-3.6,2.4c-1.9,0.5-3.5,0.5-4.7,0c-1.3-0.5-2.1-1.5-2.4-2.9l-1.7-6.4
		c-0.1-0.3-0.2-0.4-0.3-0.5c-0.1-0.1-0.3-0.2-0.6-0.3c-0.2,0-0.4,0-0.7,0c-0.2,0-0.4,0.1-0.6,0.1l-0.1-0.7l6.9-1.9l0.1,0.7
		c-0.1,0.1-0.3,0.1-0.5,0.2c-0.2,0.1-0.4,0.2-0.6,0.3c-0.2,0.1-0.3,0.3-0.4,0.5c0,0.2,0,0.4,0.1,0.6l1.6,6.3
		c0.3,1.2,0.9,2.1,1.6,2.4c0.7,0.4,1.6,0.5,2.8,0.1c1.1-0.3,1.8-0.8,2.3-1.6c0.5-0.8,0.5-1.8,0.2-3l-1.1-4.2
		c-0.2-0.7-0.4-1.3-0.6-1.6c-0.2-0.3-0.4-0.6-0.7-0.7C89.1,54,88.7,54,88.3,54c-0.5,0-0.7,0-0.9,0.1l-0.1-0.7l5.7-1.7L93.2,52.4
		L93.2,52.4z"/>
	<path class="st2" d="M103.8,59.9c-0.8,0.5-1.6,0.8-2.4,1c-0.8,0.3-1.5,0.4-2.1,0.5L99,62.3l-0.8,0.5l-2.3-4l0.8-0.5
		c0.4,0.3,0.9,0.6,1.3,0.8c0.5,0.3,1,0.5,1.6,0.6c0.5,0.1,1.1,0.2,1.7,0.1c0.6-0.1,1.2-0.3,1.8-0.6c0.9-0.5,1.4-1.1,1.7-1.7
		c0.3-0.6,0.3-1.1,0-1.7c-0.2-0.4-0.6-0.7-1.1-0.7c-0.5-0.1-1.3,0-2.2,0.2c-0.6,0.2-1.1,0.3-1.6,0.5c-0.5,0.1-1,0.3-1.5,0.3
		c-1,0.2-1.9,0.2-2.6-0.1c-0.7-0.3-1.3-0.8-1.7-1.5c-0.2-0.5-0.3-0.9-0.3-1.5c0.1-0.5,0.2-1,0.5-1.6c0.2-0.5,0.6-1.1,1.1-1.6
		c0.5-0.6,1.2-1.1,1.9-1.5c0.7-0.5,1.5-0.7,2.2-0.9c0.7-0.2,1.3-0.3,1.8-0.3l0.3-0.8l0.9-0.5l2.1,3.7l-0.8,0.5
		c-0.4-0.3-0.9-0.5-1.3-0.9c-0.5-0.3-0.9-0.5-1.3-0.6c-0.5-0.1-0.9-0.1-1.5-0.1c-0.5,0-1,0.2-1.5,0.5c-0.7,0.3-1.1,0.8-1.4,1.4
		c-0.2,0.5-0.2,1.1,0,1.5c0.3,0.4,0.6,0.7,1.1,0.7c0.5,0.1,1.2,0,2.1-0.2c0.5-0.1,1.1-0.3,1.6-0.5c0.5-0.1,1-0.3,1.5-0.3
		c1.1-0.2,1.9-0.2,2.7,0c0.7,0.3,1.3,0.8,1.7,1.5c0.3,0.5,0.3,1,0.3,1.6c-0.1,0.6-0.2,1.2-0.5,1.7c-0.3,0.6-0.8,1.2-1.3,1.7
		C105.4,58.9,104.7,59.4,103.8,59.9L103.8,59.9z"/>
	<path class="st2" d="M72,0.6c27.5,0,50,22.4,50,50c0,27.5-22.4,49.9-50,49.9S22,78,22,50.5C22,23,44.5,0.6,72,0.6L72,0.6z M72,3.1
		c26.1,0,47.4,21.3,47.4,47.4c0,26.1-21.3,47.3-47.4,47.3c-26.1,0-47.3-21.3-47.3-47.3C24.7,24.4,45.9,3.1,72,3.1L72,3.1z"/>
</g>
</svg>
