<?xml version="1.0" encoding="utf-8"?>
<!-- Generator: Adobe Illustrator 24.0.2, SVG Export Plug-In . SVG Version: 6.00 Build 0)  -->
<svg version="1.1" id="Layer_1" xmlns="http://www.w3.org/2000/svg" xmlns:xlink="http://www.w3.org/1999/xlink" x="0px" y="0px"
	 viewBox="0 0 144 101" style="enable-background:new 0 0 144 101;" xml:space="preserve">
<style type="text/css">
	.st0{fill-rule:evenodd;clip-rule:evenodd;fill:#FFFFFF;}
	.st1{fill-rule:evenodd;clip-rule:evenodd;fill:#DA2031;}
	.st2{fill-rule:evenodd;clip-rule:evenodd;fill:#231F20;}
	.st3{fill-rule:evenodd;clip-rule:evenodd;fill:#9A94C8;}
</style>
<g id="Layer_1_1_">
</g>
<g>
	<path class="st0" d="M1.5,50.5c0-19.8,31.5-35.8,70.5-35.8c39.1,0,70.5,16,70.5,35.8c0,19.8-31.5,35.8-70.5,35.8
		C32.9,86.3,1.5,70.3,1.5,50.5L1.5,50.5z"/>
	<path class="st1" d="M72,21.2c39.9,0,64,16.3,64,29.3c0,13-24.1,29.3-64,29.3c-39.9,0-64-16.3-64-29.3C8,37.5,32.1,21.2,72,21.2
		L72,21.2z"/>
	<path class="st2" d="M72,14.4c39,0,70.8,16,70.8,36.1c0,20.1-31.8,36.1-70.8,36.1c-39,0-70.8-16-70.8-36.1
		C1.2,30.4,33,14.4,72,14.4L72,14.4z M72,15C32.9,15,1.8,31,1.8,50.5C1.8,70,32.9,86,72,86c39.1,0,70.2-16,70.2-35.5
		C142.2,31,111.1,15,72,15L72,15z"/>
	<path class="st2" d="M136.3,50.5c0,13.3-24.5,29.6-64.3,29.6c-39.8,0-64.3-16.3-64.3-29.6c0-13.3,24.5-29.6,64.3-29.6
		C111.8,20.9,136.3,37.2,136.3,50.5L136.3,50.5z M135.7,50.5c0-12.7-23.8-29-63.7-29c-39.9,0-63.7,16.3-63.7,29
		c0,12.7,23.8,29,63.7,29C111.9,79.5,135.7,63.2,135.7,50.5L135.7,50.5z"/>
	<path class="st1" d="M73.6,17.9c0,0.9-0.7,1.6-1.6,1.6c-0.9,0-1.6-0.7-1.6-1.6c0-0.9,0.7-1.6,1.6-1.6C72.9,16.3,73.6,17,73.6,17.9
		L73.6,17.9z"/>
	<path class="st1" d="M68.3,18c0,0.9-0.7,1.7-1.6,1.7c-0.9,0-1.7-0.7-1.7-1.6c0-0.9,0.7-1.7,1.6-1.7C67.5,16.4,68.2,17.1,68.3,18
		L68.3,18z"/>
	<path class="st1" d="M62.9,18.2c0.1,0.9-0.6,1.7-1.5,1.7c-0.9,0.1-1.7-0.6-1.7-1.5c-0.1-0.9,0.6-1.7,1.5-1.7
		C62,16.7,62.8,17.3,62.9,18.2L62.9,18.2z"/>
	<path class="st1" d="M57.5,18.7c0.1,0.9-0.5,1.7-1.4,1.8c-0.9,0.1-1.7-0.5-1.8-1.4c-0.1-0.9,0.5-1.7,1.4-1.8
		C56.6,17.2,57.4,17.8,57.5,18.7L57.5,18.7z"/>
	<path class="st1" d="M52.2,19.4c0.1,0.9-0.5,1.7-1.4,1.9c-0.9,0.1-1.7-0.5-1.9-1.4c-0.1-0.9,0.5-1.7,1.4-1.9
		C51.2,17.9,52.1,18.5,52.2,19.4L52.2,19.4z"/>
	<path class="st1" d="M46.9,20.3c0.2,0.9-0.4,1.7-1.3,1.9c-0.9,0.2-1.7-0.4-1.9-1.3c-0.2-0.9,0.4-1.7,1.3-1.9
		C45.8,18.9,46.7,19.4,46.9,20.3L46.9,20.3z"/>
	<path class="st1" d="M41.6,21.5c0.2,0.9-0.3,1.8-1.2,2c-0.9,0.2-1.8-0.3-2-1.2c-0.2-0.9,0.3-1.8,1.2-2
		C40.5,20.1,41.4,20.6,41.6,21.5L41.6,21.5z"/>
	<path class="st1" d="M36.5,22.9c0.3,0.9-0.2,1.8-1,2.1c-0.9,0.3-1.8-0.2-2.1-1c-0.3-0.9,0.2-1.8,1-2.1C35.3,21.6,36.2,22,36.5,22.9
		L36.5,22.9z"/>
	<path class="st1" d="M31.4,24.7c0.3,0.8-0.1,1.8-0.9,2.1c-0.8,0.3-1.8-0.1-2.1-0.9C28,25,28.4,24,29.3,23.7
		C30.1,23.4,31.1,23.8,31.4,24.7L31.4,24.7z"/>
	<path class="st1" d="M26.4,26.7c0.4,0.8,0.1,1.8-0.7,2.2c-0.8,0.4-1.8,0.1-2.2-0.7c-0.4-0.8-0.1-1.8,0.7-2.2
		C25,25.5,26,25.9,26.4,26.7L26.4,26.7z"/>
	<path class="st1" d="M21.6,29.1c0.5,0.8,0.2,1.8-0.6,2.2c-0.8,0.5-1.8,0.2-2.2-0.6c-0.5-0.8-0.2-1.8,0.6-2.2
		C20.1,28.1,21.1,28.3,21.6,29.1L21.6,29.1z"/>
	<path class="st1" d="M17,32c0.5,0.7,0.4,1.7-0.4,2.3c-0.7,0.5-1.7,0.4-2.3-0.4c-0.5-0.7-0.4-1.7,0.4-2.3C15.5,31.1,16.5,31.2,17,32
		L17,32z"/>
	<path class="st1" d="M12.8,35.2c0.6,0.6,0.6,1.7,0,2.3c-0.6,0.6-1.7,0.6-2.3,0c-0.6-0.6-0.6-1.7,0-2.3
		C11.1,34.6,12.2,34.6,12.8,35.2L12.8,35.2z"/>
	<path class="st1" d="M9.1,39.2c0.7,0.5,0.9,1.5,0.4,2.3C9,42.2,8,42.3,7.2,41.8c-0.7-0.5-0.9-1.5-0.4-2.3
		C7.3,38.8,8.4,38.6,9.1,39.2L9.1,39.2z"/>
	<path class="st1" d="M6.2,43.7c0.9,0.3,1.3,1.2,1,2.1c-0.3,0.9-1.2,1.3-2.1,1c-0.9-0.3-1.3-1.2-1-2.1C4.4,43.9,5.4,43.4,6.2,43.7
		L6.2,43.7z"/>
	<path class="st1" d="M73.6,83.1c0,0.9-0.7,1.6-1.6,1.6c-0.9,0-1.6-0.7-1.6-1.6c0-0.9,0.7-1.6,1.6-1.6
		C72.9,81.4,73.6,82.2,73.6,83.1L73.6,83.1z"/>
	<path class="st1" d="M68.3,83c0,0.9-0.8,1.6-1.7,1.6c-0.9,0-1.6-0.8-1.6-1.7c0-0.9,0.8-1.6,1.7-1.6C67.6,81.4,68.3,82.1,68.3,83
		L68.3,83z"/>
	<path class="st1" d="M62.9,82.8c-0.1,0.9-0.8,1.6-1.7,1.5c-0.9-0.1-1.6-0.8-1.5-1.7c0.1-0.9,0.8-1.6,1.7-1.5
		C62.3,81.1,62.9,81.9,62.9,82.8L62.9,82.8z"/>
	<path class="st1" d="M57.5,82.3c-0.1,0.9-0.9,1.5-1.8,1.4c-0.9-0.1-1.5-0.9-1.4-1.8c0.1-0.9,0.9-1.5,1.8-1.4
		C57,80.6,57.6,81.4,57.5,82.3L57.5,82.3z"/>
	<path class="st1" d="M52.2,81.6c-0.1,0.9-1,1.5-1.9,1.4c-0.9-0.1-1.5-1-1.4-1.9c0.1-0.9,1-1.5,1.9-1.4
		C51.7,79.9,52.3,80.7,52.2,81.6L52.2,81.6z"/>
	<path class="st1" d="M46.9,80.7c-0.2,0.9-1.1,1.4-1.9,1.3c-0.9-0.2-1.4-1.1-1.3-1.9c0.2-0.9,1.1-1.4,1.9-1.3
		C46.5,79,47.1,79.8,46.9,80.7L46.9,80.7z"/>
	<path class="st1" d="M41.6,79.5c-0.2,0.9-1.1,1.4-2,1.2c-0.9-0.2-1.4-1.1-1.2-2c0.2-0.9,1.1-1.4,2-1.2
		C41.4,77.8,41.9,78.7,41.6,79.5L41.6,79.5z"/>
	<path class="st1" d="M36.5,78.1c-0.3,0.9-1.2,1.3-2.1,1c-0.9-0.3-1.3-1.2-1-2.1c0.3-0.9,1.2-1.3,2.1-1
		C36.3,76.3,36.7,77.2,36.5,78.1L36.5,78.1z"/>
	<path class="st1" d="M31.4,76.3c-0.3,0.8-1.3,1.3-2.1,0.9C28.4,77,28,76,28.3,75.2c0.3-0.8,1.3-1.3,2.1-0.9
		C31.3,74.6,31.7,75.5,31.4,76.3L31.4,76.3z"/>
	<path class="st1" d="M26.4,74.3c-0.4,0.8-1.4,1.1-2.2,0.7c-0.8-0.4-1.1-1.4-0.7-2.2c0.4-0.8,1.4-1.1,2.2-0.7
		C26.5,72.5,26.8,73.5,26.4,74.3L26.4,74.3z"/>
	<path class="st1" d="M21.6,71.9c-0.5,0.8-1.5,1-2.2,0.6c-0.8-0.5-1-1.5-0.6-2.2c0.5-0.8,1.5-1,2.2-0.6
		C21.8,70.1,22.1,71.1,21.6,71.9L21.6,71.9z"/>
	<path class="st1" d="M17,69c-0.5,0.7-1.5,0.9-2.3,0.4c-0.7-0.5-0.9-1.5-0.4-2.3c0.5-0.7,1.5-0.9,2.3-0.4C17.4,67.3,17.6,68.3,17,69
		L17,69z"/>
	<path class="st1" d="M12.8,65.8c-0.6,0.6-1.7,0.6-2.3,0c-0.6-0.6-0.6-1.7,0-2.3c0.6-0.6,1.7-0.6,2.3,0
		C13.4,64.1,13.4,65.1,12.8,65.8L12.8,65.8z"/>
	<path class="st1" d="M9.1,61.8c-0.7,0.5-1.8,0.3-2.3-0.4c-0.5-0.7-0.3-1.8,0.4-2.3C8,58.7,9,58.8,9.5,59.6
		C10,60.3,9.8,61.3,9.1,61.8L9.1,61.8z"/>
	<path class="st1" d="M6.2,57.3c-0.9,0.3-1.8-0.2-2.1-1c-0.3-0.8,0.2-1.8,1-2.1c0.8-0.3,1.8,0.2,2.1,1C7.5,56.1,7,57,6.2,57.3
		L6.2,57.3z"/>
	<path class="st1" d="M4.8,52.1c-0.9,0-1.7-0.7-1.7-1.6c0-0.9,0.7-1.7,1.6-1.7c0.9,0,1.7,0.7,1.7,1.6C6.4,51.3,5.7,52.1,4.8,52.1
		L4.8,52.1z"/>
	<path class="st1" d="M139.3,48.9c0.9,0,1.6,0.8,1.6,1.7c0,0.9-0.8,1.6-1.7,1.6c-0.9,0-1.6-0.8-1.6-1.7
		C137.7,49.5,138.4,48.8,139.3,48.9L139.3,48.9z"/>
	<path class="st1" d="M138.9,54.2c0.9,0.3,1.3,1.2,1,2.1c-0.3,0.9-1.2,1.3-2.1,1c-0.9-0.3-1.3-1.2-1-2.1
		C137.1,54.4,138,53.9,138.9,54.2L138.9,54.2z"/>
	<path class="st1" d="M136.8,59.2c0.7,0.5,0.9,1.5,0.4,2.3c-0.5,0.7-1.5,0.9-2.3,0.4c-0.7-0.5-0.9-1.5-0.4-2.3
		C135,58.8,136,58.7,136.8,59.2L136.8,59.2z"/>
	<path class="st1" d="M133.5,63.5c0.6,0.6,0.6,1.7,0,2.3c-0.6,0.6-1.7,0.6-2.3,0c-0.6-0.6-0.6-1.7,0-2.3
		C131.8,62.8,132.9,62.8,133.5,63.5L133.5,63.5z"/>
	<path class="st1" d="M129.6,67.1c0.5,0.7,0.4,1.7-0.4,2.3c-0.7,0.5-1.7,0.4-2.3-0.4c-0.5-0.7-0.4-1.7,0.4-2.3
		C128,66.2,129.1,66.4,129.6,67.1L129.6,67.1z"/>
	<path class="st1" d="M125.2,70.2c0.5,0.8,0.2,1.8-0.6,2.2c-0.8,0.5-1.8,0.2-2.2-0.6s-0.2-1.8,0.6-2.2
		C123.7,69.2,124.7,69.5,125.2,70.2L125.2,70.2z"/>
	<path class="st1" d="M120.5,72.9c0.4,0.8,0.1,1.8-0.7,2.2c-0.8,0.4-1.8,0.1-2.2-0.7c-0.4-0.8-0.1-1.8,0.7-2.2
		C119.2,71.7,120.1,72.1,120.5,72.9L120.5,72.9z"/>
	<path class="st1" d="M115.7,75.2c0.3,0.8-0.1,1.8-0.9,2.1c-0.8,0.3-1.8-0.1-2.1-0.9c-0.3-0.8,0.1-1.8,0.9-2.1
		C114.4,73.9,115.3,74.3,115.7,75.2L115.7,75.2z"/>
	<path class="st1" d="M110.6,77.1c0.3,0.9-0.2,1.8-1,2.1c-0.9,0.3-1.8-0.2-2.1-1c-0.3-0.9,0.2-1.8,1-2.1
		C109.4,75.8,110.4,76.2,110.6,77.1L110.6,77.1z"/>
	<path class="st1" d="M105.5,78.7c0.2,0.9-0.3,1.8-1.2,2c-0.9,0.2-1.8-0.3-2-1.2c-0.2-0.9,0.3-1.8,1.2-2
		C104.4,77.3,105.3,77.8,105.5,78.7L105.5,78.7z"/>
	<path class="st1" d="M100.3,80c0.2,0.9-0.4,1.7-1.3,1.9c-0.9,0.2-1.7-0.4-1.9-1.3c-0.2-0.9,0.4-1.7,1.3-1.9
		C99.2,78.6,100.1,79.2,100.3,80L100.3,80z"/>
	<path class="st1" d="M95,81.1c0.1,0.9-0.5,1.7-1.4,1.9c-0.9,0.1-1.7-0.5-1.9-1.4c-0.1-0.9,0.5-1.7,1.4-1.9
		C94.1,79.6,94.9,80.2,95,81.1L95,81.1z"/>
	<path class="st1" d="M89.7,81.9c0.1,0.9-0.5,1.7-1.4,1.8c-0.9,0.1-1.7-0.5-1.8-1.4c-0.1-0.9,0.5-1.7,1.4-1.8
		C88.8,80.4,89.6,81,89.7,81.9L89.7,81.9z"/>
	<path class="st1" d="M84.4,82.5c0.1,0.9-0.6,1.7-1.5,1.7c-0.9,0.1-1.7-0.6-1.7-1.5c-0.1-0.9,0.6-1.7,1.5-1.7
		C83.5,81,84.3,81.6,84.4,82.5L84.4,82.5z"/>
	<path class="st1" d="M79,82.9c0,0.9-0.7,1.7-1.6,1.7s-1.7-0.7-1.7-1.6c0-0.9,0.7-1.7,1.6-1.7C78.2,81.3,79,82,79,82.9L79,82.9z"/>
	<path class="st1" d="M70.4,17.9c0-0.9,0.7-1.6,1.6-1.6c0.9,0,1.6,0.7,1.6,1.6c0,0.9-0.7,1.6-1.6,1.6C71.1,19.6,70.4,18.8,70.4,17.9
		L70.4,17.9z"/>
	<path class="st1" d="M75.8,18c0-0.9,0.8-1.6,1.7-1.6c0.9,0,1.6,0.8,1.6,1.7c0,0.9-0.8,1.6-1.7,1.6C76.4,19.6,75.7,18.9,75.8,18
		L75.8,18z"/>
	<path class="st1" d="M81.1,18.2c0.1-0.9,0.8-1.6,1.7-1.5c0.9,0.1,1.6,0.8,1.5,1.7c-0.1,0.9-0.8,1.6-1.7,1.5
		C81.7,19.9,81.1,19.1,81.1,18.2L81.1,18.2z"/>
	<path class="st1" d="M86.5,18.7c0.1-0.9,0.9-1.5,1.8-1.4c0.9,0.1,1.5,0.9,1.4,1.8c-0.1,0.9-0.9,1.5-1.8,1.4
		C87,20.4,86.4,19.6,86.5,18.7L86.5,18.7z"/>
	<path class="st1" d="M91.8,19.4c0.1-0.9,1-1.5,1.9-1.4c0.9,0.1,1.5,1,1.4,1.9c-0.1,0.9-1,1.5-1.9,1.4
		C92.3,21.1,91.7,20.3,91.8,19.4L91.8,19.4z"/>
	<path class="st1" d="M97.1,20.3c0.2-0.9,1.1-1.4,1.9-1.3c0.9,0.2,1.4,1.1,1.3,1.9c-0.2,0.9-1.1,1.4-1.9,1.3
		C97.5,22,96.9,21.2,97.1,20.3L97.1,20.3z"/>
	<path class="st1" d="M102.4,21.5c0.2-0.9,1.1-1.4,2-1.2c0.9,0.2,1.4,1.1,1.2,2c-0.2,0.9-1.1,1.4-2,1.2
		C102.6,23.2,102.1,22.3,102.4,21.5L102.4,21.5z"/>
	<path class="st1" d="M107.5,22.9c0.3-0.9,1.2-1.3,2.1-1c0.9,0.3,1.3,1.2,1,2.1c-0.3,0.9-1.2,1.3-2.1,1
		C107.7,24.7,107.3,23.8,107.5,22.9L107.5,22.9z"/>
	<path class="st1" d="M112.6,24.7c0.3-0.8,1.3-1.3,2.1-0.9c0.8,0.3,1.3,1.3,0.9,2.1c-0.3,0.8-1.3,1.3-2.1,0.9
		C112.7,26.4,112.3,25.5,112.6,24.7L112.6,24.7z"/>
	<path class="st1" d="M117.6,26.7c0.4-0.8,1.4-1.1,2.2-0.7c0.8,0.4,1.1,1.4,0.7,2.2c-0.4,0.8-1.4,1.1-2.2,0.7
		C117.5,28.5,117.2,27.5,117.6,26.7L117.6,26.7z"/>
	<path class="st1" d="M122.4,29.1c0.5-0.8,1.5-1,2.2-0.6c0.8,0.5,1,1.5,0.6,2.2c-0.5,0.8-1.5,1-2.2,0.6
		C122.2,30.9,121.9,29.9,122.4,29.1L122.4,29.1z"/>
	<path class="st1" d="M127,32c0.5-0.7,1.5-0.9,2.3-0.4c0.7,0.5,0.9,1.5,0.4,2.3c-0.5,0.7-1.5,0.9-2.3,0.4
		C126.6,33.7,126.4,32.7,127,32L127,32z"/>
	<path class="st1" d="M131.2,35.2c0.6-0.6,1.7-0.6,2.3,0c0.6,0.6,0.6,1.7,0,2.3c-0.6,0.6-1.7,0.6-2.3,0
		C130.6,36.9,130.6,35.9,131.2,35.2L131.2,35.2z"/>
	<path class="st1" d="M134.9,39.2c0.7-0.5,1.8-0.3,2.3,0.4c0.5,0.7,0.3,1.8-0.4,2.3c-0.7,0.5-1.8,0.3-2.3-0.4
		C134,40.7,134.2,39.7,134.9,39.2L134.9,39.2z"/>
	<path class="st1" d="M137.8,43.7c0.9-0.3,1.8,0.2,2.1,1c0.3,0.9-0.2,1.8-1,2.1c-0.9,0.3-1.8-0.2-2.1-1
		C136.5,44.9,137,44,137.8,43.7L137.8,43.7z"/>
	<path class="st0" d="M19.8,61.8h7c2.9,0,5-3.1,5-5.7c0-2.5-1.2-3.9-2.5-4.7l-0.5-0.3l0.5-0.3c1.2-0.7,2-2.7,2-4.1
		c0-1.7-1-4.1-3.4-4.9l0.1-0.2c0.6,0.2,1.1,0.5,1.5,0.8c0.4,0.3,0.7,0.5,0.8,0.6c0.3,0.3,0.8,0.7,1.3,1.3c0.4,0.5,0.7,0.9,1,1.2
		c0.7,1,1,2.2,1,3.2c0,1.4-0.7,3.4-1.9,4.2L31.5,53l0.9,0.9c0.9,0.9,1.6,2.2,1.6,4.2c0,2.7-2.1,6-5.3,6h-7.5l-1.9-1.9L19.8,61.8
		L19.8,61.8z M25.5,59.2h-2.2v-6.8h2.5c1.1,0,2,1,2.3,2.3c-0.1,0-0.3-0.1-0.4-0.1h-2.2V59.2L25.5,59.2z M25.5,49.8
		c-0.1,0-0.2,0-0.3,0h-2v-5.7h2c1.2,0,2.2,0.8,2.5,2.3c-0.2,0-0.3-0.1-0.5-0.1h-1.7V49.8L25.5,49.8z"/>
	<path class="st0" d="M42.7,62.3c3.3,0,6.1-2.7,6.1-6V41.7l0.3-0.3l1.9,1.9v15c0,3.5-2.9,6.3-6.3,6.3c-1.5,0-3-0.6-4.5-1.8
		c-1.1-0.8-2.2-2.2-2.3-2.6c-0.1-0.1-0.3-0.6-0.6-1.1l0.1,0C38.3,61,40.4,62.3,42.7,62.3L42.7,62.3z M40.5,41.4l1.9,1.9l0,15
		c0,0.2,0,0.3,0.1,0.5c-1.3-0.1-2.3-1.2-2.3-2.4l0-14.6L40.5,41.4L40.5,41.4z"/>
	<path class="st0" d="M55.1,60.1c-0.1-0.1-0.3-0.6-0.6-1.2l0.1,0c1,2,3.1,3.5,5.5,3.5c4.1,0,6-2.4,6-6v-4.7l0.3-0.3l1.9,1.9v5.1
		c0,3.8-2,6.3-6.3,6.3c-1.6,0-3-0.6-4.6-1.8C56.3,62,55.2,60.5,55.1,60.1L55.1,60.1z M62.6,56.3l-1.9-1.9l0.3-0.3h2v2.2l0,0H62.6
		L62.6,56.3z M57.6,56.3v-9.2c0-1.5,1-2.7,2.5-2.8c1.6-0.1,2.8,0.9,3,2.4c-0.3-0.1-0.6-0.2-1-0.2c-1.3,0.1-2.3,1.2-2.3,2.6v9.2
		c0,0.2,0,0.5,0.1,0.7C58.5,58.8,57.6,57.6,57.6,56.3L57.6,56.3z M64.7,42.3c0.5,0.4,1.1,0.9,1.7,1.5c0.5,0.6,0.9,1.2,1.2,1.7
		c0.5,1,0.8,2.2,0.8,3.5v0.3h-3.6l-1.9-1.9l0.3-0.3h2.9v-0.1c0-2.8-1.1-4.9-3.5-5.7l0.1-0.3C63.5,41.5,64.1,41.9,64.7,42.3
		L64.7,42.3z"/>
	<path class="st0" d="M78,55h-2.7l2.2-9.7c0.1-0.6,0.6-0.6,0.7,0l0.9,4.6L78,55L78,55z M81.4,62.2l0.3-0.3h3.5l-4.6-20.2l0.3-0.3
		l1.9,1.9l5,20.8h-4.4L81.4,62.2L81.4,62.2z M76.8,60.2L76,64.1h-4.3l-1.9-1.9l0.5-0.4h3.6l0.9-3.9h6.1l0.4,2.2L76.8,60.2L76.8,60.2
		z"/>
	<path class="st0" d="M91,62.2l0.3-0.3h3.5V44.7h4.3v-3l0.3-0.3l1.9,1.9V47H97v17.1h-4.2L91,62.2L91,62.2z M88.6,47l-1.9-1.9
		l0.3-0.3h4.2V47H88.6L88.6,47z"/>
	<path class="st0" d="M104.3,47l-1.9-1.9l0.3-0.3h4.2V47H104.3L104.3,47z M115.1,41.4l1.9,1.9V47h-4.3v17.1h-4.2l-1.9-1.9l0.3-0.3
		h3.5V44.7h4.3v-3L115.1,41.4L115.1,41.4z"/>
	<polygon class="st0" points="122.7,41.4 124.6,43.2 124.6,64.1 120.4,64.1 118.5,62.2 118.9,61.8 122.4,61.8 122.4,41.7 
		122.7,41.4 	"/>
	<path class="st3" d="M31.7,46.7c0-1.1-0.4-2.5-1.3-3.6c0.3,0.3,0.7,0.7,1.1,1.1c0.4,0.5,0.7,0.9,1,1.2c0.7,1,1,2.2,1,3.2
		c0,1.4-0.7,3.4-1.9,4.2L31.5,53l0.9,0.9c0.9,0.9,1.6,2.2,1.6,4.2c0,2.7-2.1,6-5.3,6h-7.5l-1.8-1.8h7.3c3.2,0,5.4-3.4,5.4-6.1
		c0-2.6-1.2-4.2-2.6-5C30.9,50.3,31.7,48.2,31.7,46.7L31.7,46.7z M25.5,58.8h-1.8v-6h2.1c0.8,0,1.6,0.7,1.9,1.8h-2.2V58.8L25.5,58.8
		z M25.2,44.6c0.9,0,1.8,0.6,2,1.8l-0.1,0h-1.7v3c-0.1,0-0.2,0-0.3,0h-1.6v-4.9H25.2L25.2,44.6z"/>
	<path class="st3" d="M42.4,58.2L42.4,58.2c-1.1,0-1.8-0.9-1.8-1.9l0-14.9l1.8,1.8L42.4,58.2L42.4,58.2z M38.3,61
		c1.2,1.1,2.7,1.7,4.4,1.7c3.5,0,6.5-2.9,6.5-6.4V41.4l1.8,1.8v15c0,3.5-2.9,6.3-6.3,6.3c-1.5,0-3-0.6-4.5-1.8
		C39.4,62.3,38.7,61.6,38.3,61L38.3,61z"/>
	<path class="st3" d="M55.7,61c1.2,1.1,2.8,1.8,4.4,1.8c4.4,0,6.4-2.6,6.4-6.4v-5l1.8,1.8v5.1c0,3.8-2,6.3-6.3,6.3
		c-1.6,0-3-0.6-4.6-1.8C56.8,62.3,56.1,61.6,55.7,61L55.7,61z M60.7,54.5h1.9v1.8l0,0h-0.1L60.7,54.5L60.7,54.5z M60.1,44.7
		c1.3-0.1,2.3,0.7,2.5,1.9c-0.2,0-0.4-0.1-0.6,0c-1.3,0.1-2.3,1.2-2.3,2.6v9.2c0,0.1,0,0.2,0,0.3c-1.1-0.2-1.8-1.2-1.8-2.2v-9.2
		C58,45.9,58.8,44.8,60.1,44.7L60.1,44.7z M62.9,47.6h3.6v-0.5c0-1.9-0.5-3.5-1.5-4.6c0.4,0.4,0.9,0.8,1.4,1.3
		c0.5,0.6,0.9,1.2,1.2,1.7c0.5,1,0.8,2.2,0.8,3.5v0.3h-3.6L62.9,47.6L62.9,47.6z"/>
	<path class="st3" d="M78.1,54.6h-2.3l2-9l1.1,5.3L78.1,54.6L78.1,54.6z M81.5,62.2h4.3L81,41.5l1.8,1.8l5,20.8h-4.4L81.5,62.2
		L81.5,62.2z M69.8,62.2h4.3l0.9-3.9h5.5l0.4,1.8l-4,0L76,64.1h-4.3L69.8,62.2L69.8,62.2z"/>
	<path class="st3" d="M91,62.3h4.2V45.1h4.3v-3.7l1.8,1.8V47H97v17.1h-4.2L91,62.3L91,62.3z M86.8,45.1h4.1V47h-2.3L86.8,45.1
		L86.8,45.1z"/>
	<path class="st3" d="M102.4,45.1h4.1V47h-2.3L102.4,45.1L102.4,45.1z M106.7,62.3h4.2V45.1h4.3v-3.7l1.8,1.8V47h-4.3v17.1h-4.2
		L106.7,62.3L106.7,62.3z"/>
	<polygon class="st3" points="118.6,62.2 122.8,62.2 122.8,41.4 124.6,43.2 124.6,64.1 120.4,64.1 118.6,62.2 	"/>
	<path class="st2" d="M19.3,62.2l0.4-0.4h7.1c2.9,0,4.9-3.1,4.9-5.6c0-2.4-1.1-3.9-2.5-4.6l-0.7-0.4l0.6-0.4c1.2-0.7,1.9-2.7,1.9-4
		c0-1.7-1.1-4.1-3.4-4.9l0.1-0.4c1.3,0.4,2.1,1.2,2.4,1.4c0.3,0.3,0.8,0.7,1.3,1.3c0.4,0.5,0.7,0.9,1,1.2c0.7,1,1,2.3,1,3.2
		c0,1.4-0.7,3.4-2,4.3l0.8,0.8c1,0.9,1.7,2.3,1.7,4.2c0,2.7-2.2,6.1-5.4,6.1h-7.5L19.3,62.2L19.3,62.2z M25.5,54.8v4.6h-2.4v-6.9
		h2.6c1.2,0,2.1,1.1,2.5,2.5c-0.2-0.1-0.3-0.1-0.5-0.1H25.5L25.5,54.8z M25.5,46.5v3.4c-0.1,0-0.2,0-0.3,0h-2v-5.8h2
		c1.3,0,2.4,0.9,2.6,2.5c-0.2-0.1-0.4-0.1-0.6-0.1H25.5L25.5,46.5z"/>
	<path class="st2" d="M37.3,59c1,1.9,3.1,3.3,5.3,3.3c3.2,0,6-2.7,6-6V41.7l0.4-0.4l2,1.9v15.1c0,3.5-3,6.4-6.4,6.4
		c-1.5,0-3.1-0.6-4.6-1.8c-1.1-0.8-2.2-2.2-2.3-2.6c-0.1-0.1-0.3-0.6-0.6-1.2L37.3,59L37.3,59z M40.1,41.7l0.4-0.4l2,1.9l0,15.1
		c0,0.2,0,0.4,0.1,0.6c-1.5-0.1-2.5-1.2-2.5-2.5L40.1,41.7L40.1,41.7z"/>
	<path class="st2" d="M79.3,49.9l-1.2,5.2h-2.8l2.2-9.8c0.2-0.7,0.7-0.7,0.8,0L79.3,49.9L79.3,49.9z M83.2,64.1l-2-1.9l0.4-0.4h3.4
		l-4.6-20.1l0.3-0.4l2,1.9l5,21H83.2L83.2,64.1z M81.4,60.3h-4.4L76,64.1h-4.4l-2-1.9l0.6-0.4h3.5l0.9-3.9h6.3L81.4,60.3L81.4,60.3z
		"/>
	<path class="st2" d="M92.8,64.2l-2-1.9l0.4-0.4h3.4l0-17.1H99v-3l0.4-0.4l2,1.9V47h-4.3v17.1H92.8L92.8,64.2z M91.3,47h-2.8l-2-1.9
		l0.4-0.4h4.3V47L91.3,47z"/>
	<path class="st2" d="M107,47h-2.8l-2-1.9l0.4-0.4h4.3V47L107,47z M114.7,41.7l0.4-0.4l2,1.9V47h-4.3v17.1h-4.3l-2-1.9l0.4-0.4h3.4
		V44.7h4.3V41.7L114.7,41.7z"/>
	<polygon class="st2" points="122.3,41.7 122.7,41.2 124.7,43.2 124.7,64.1 120.4,64.1 118.4,62.2 118.9,61.8 122.3,61.8 
		122.3,41.7 	"/>
	<path class="st2" d="M57.4,62.9c-1.1-0.9-2.3-2.4-2.4-2.7c-0.1-0.1-0.4-0.6-0.7-1.3l0.3-0.1c1,2.1,3.1,3.5,5.5,3.5c4.1,0,6-2.4,6-6
		v-4.7l0.4-0.4l2,1.9v5.1c0,3.8-2,6.4-6.4,6.4C60.5,64.6,59,64,57.4,62.9L57.4,62.9z M63.2,56.4h-0.6l-2-1.9L61,54h2.2v2.3
		L63.2,56.4L63.2,56.4z M60,59.1c-1.5-0.2-2.5-1.4-2.5-2.8v-9.2c0-1.5,1.1-2.8,2.6-2.9c1.7-0.2,3,1,3.1,2.6
		c-0.3-0.1-0.7-0.3-1.1-0.2c-1.3,0.1-2.2,1.2-2.2,2.5v9.2C59.9,58.5,59.9,58.8,60,59.1L60,59.1z M62.6,41.1c0.9,0.3,1.6,0.7,2.2,1.1
		c0.5,0.4,1.1,0.9,1.7,1.6c0.5,0.6,0.9,1.2,1.2,1.7c0.5,1,0.8,2.2,0.8,3.6v0.4h-3.8l-2-1.9l0.4-0.4h2.9c0-2.8-1.1-4.8-3.5-5.6
		L62.6,41.1L62.6,41.1z"/>
	<path class="st0" d="M23.6,52.8v6.1h2.1c1.4,0,2.1-1.5,2.1-3c0-1.7-1-3-2.1-3H23.6L23.6,52.8z M23.6,44.5v5h1.6
		c1.4,0,2.1-0.9,2.1-2.5c0-1.7-1-2.5-2.1-2.5H23.6L23.6,44.5z M29.5,51.2c1.4,0.8,2.7,2.4,2.7,5c0,2.7-2.2,6.1-5.4,6.1h-7.5v-21h7
		c3.8,0,5.4,3.3,5.4,5.5C31.6,48.2,30.8,50.3,29.5,51.2L29.5,51.2z"/>
	<path class="st0" d="M44.8,56.3V41.2h4.3v15.1c0,3.5-3,6.4-6.4,6.4c-3.5,0-6.4-2.9-6.4-6.4V41.2h4.3l0,15.1c0,1.1,0.9,2.1,2.1,2.1
		C43.9,58.4,44.8,57.4,44.8,56.3L44.8,56.3z"/>
	<path class="st0" d="M62.7,56.3v-1.8h-2.2v-3.3l5.9,0v5.1c0,3.8-2,6.4-6.4,6.4c-3.5,0-6.5-2.9-6.5-6.4v-9.2c0-3.5,3-6.4,6.5-6.4
		c4.4,0,6.4,2.6,6.4,6.4v0.4h-3.7v-0.4c0-1.5-1.1-2.6-2.6-2.5c-1.3,0.1-2.2,1.2-2.2,2.5v9.2c0,1.1,0.9,2.2,2.2,2.3
		C61.7,58.8,62.7,57.8,62.7,56.3L62.7,56.3z"/>
	<path class="st0" d="M79.8,54.7l-1.9-9.3l-2.1,9.3H79.8L79.8,54.7z M69.6,62.2l5.4-21h5.9l4.8,21h-4.4l-0.8-3.9H75l-0.9,3.9H69.6
		L69.6,62.2z"/>
	<polygon class="st0" points="95.2,62.2 90.9,62.2 90.9,45.1 86.6,45.1 86.6,41.2 99.4,41.2 99.4,45.1 95.2,45.1 95.2,62.2 	"/>
	<polygon class="st0" points="110.8,62.2 106.6,62.2 106.6,45.1 102.3,45.1 102.3,41.2 115.1,41.2 115.1,45.1 110.8,45.1 
		110.8,62.2 	"/>
	<polygon class="st0" points="118.4,41.2 122.7,41.2 122.7,62.2 118.4,62.2 118.4,41.2 	"/>
	<path class="st3" d="M73.2,31.9v3.5h3.5c1.1,0,1.8-0.8,1.8-1.8c0-1-0.7-1.8-1.8-1.8H73.2L73.2,31.9z M73.2,26.5v3.1h3.5
		c1,0,1.6-0.7,1.6-1.6c0-0.9-0.6-1.6-1.6-1.6H73.2L73.2,26.5z M66.5,32v-2.5v-0.7h1.9v0.8h2.2v-3.1h-5.2v1.1h-1.9l0-1v-2h13.3
		c2,0,3.7,1.7,3.7,3.7c0,0.9-0.3,1.8-0.9,2.4l-0.1,0.1l0.1,0.1c0.7,0.7,1.1,1.7,1.1,2.7c0,2.1-1.7,3.9-3.9,3.9H63.4l0-2v-1h1.9v1.1
		h5.2v-3.5h-2.2v0.8h-1.9V32L66.5,32z"/>
	<path class="st2" d="M76.7,35.4c1,0,1.7-0.8,1.7-1.7c0-0.9-0.6-1.7-1.7-1.7h-3.4v3.4H76.7L76.7,35.4z M76.7,29.5
		c0.9,0,1.5-0.7,1.5-1.5c0-0.8-0.6-1.5-1.5-1.5h-3.4v3H76.7L76.7,29.5z M68.5,32v0.8h-2.1V32v-2.5v-0.8h2.1v0.8h2v-3h-5.1v1.1h-2.1
		l0-1.1v-2.1h13.3c2.1,0,3.8,1.7,3.8,3.8c0,1-0.4,1.8-0.9,2.5c0.7,0.7,1.1,1.7,1.1,2.8c0,2.2-1.8,4-4,4H63.3l0-2.1v-1.1h2.1v1.1h5.1
		V32H68.5L68.5,32z"/>
</g>
</svg>
