<?xml version="1.0" encoding="utf-8"?>
<!-- Generator: Adobe Illustrator 24.0.2, SVG Export Plug-In . SVG Version: 6.00 Build 0)  -->
<svg version="1.1" id="Layer_1" xmlns="http://www.w3.org/2000/svg" xmlns:xlink="http://www.w3.org/1999/xlink" x="0px" y="0px"
	 viewBox="0 0 144 101" style="enable-background:new 0 0 144 101;" xml:space="preserve">
<style type="text/css">
	.st0{fill:#231F20;}
</style>
<g id="Layer_1_1_">
</g>
<g>
	<path class="st0" d="M142.6,33.9H98.1c-5.5-8.6-15.2-14.4-26.2-14.4s-20.7,5.7-26.2,14.4H1.4l4.5,4.5h37.4
		c-0.7,1.6-1.2,3.3-1.6,5.1H11l4.5,4.5H41c-0.1,0.8-0.1,1.7-0.1,2.5c0,0.9,0,1.7,0.1,2.6H20.6l4.5,4.5h16.6c0.4,1.8,1,3.5,1.7,5.1
		H30.1l4.5,4.5h11.1c5.5,8.6,15.2,14.3,26.1,14.3S92.5,75.8,98,67.2h11.3l4.5-4.5h-13.4c0.7-1.6,1.2-3.3,1.7-5.1h16.8l4.5-4.5h-20.6
		c0.1-0.8,0.1-1.7,0.1-2.6c0-0.8,0-1.7-0.1-2.5h25.7l4.5-4.5h-30.9c-0.4-1.8-1-3.5-1.6-5.1h37.6L142.6,33.9z M72,77
		c-14.6,0-26.5-11.9-26.5-26.5S57.4,24.1,72,24.1s26.5,11.9,26.5,26.5S86.6,77,72,77z"/>
	<polygon class="st0" points="58.4,54.4 54.8,43.5 50.7,43.5 50.7,57.5 53.7,57.5 53.7,47.1 56.8,57.5 59.9,57.5 63.1,47.1 
		63.1,57.5 66,57.5 66,43.5 61.9,43.5 	"/>
	<polygon class="st0" points="84.3,53.8 78.7,43.5 75.4,43.5 75.4,57.5 78.2,57.5 78.2,47.7 83.8,57.6 87.1,57.5 87.1,43.5 
		84.3,43.5 	"/>
	<rect x="69.3" y="43.5" class="st0" width="2.8" height="14"/>
	<rect x="90.3" y="43.5" class="st0" width="2.8" height="14"/>
</g>
</svg>
