<?xml version="1.0" encoding="utf-8"?>
<!-- Generator: Adobe Illustrator 24.0.2, SVG Export Plug-In . SVG Version: 6.00 Build 0)  -->
<svg version="1.1" id="Layer_1" xmlns="http://www.w3.org/2000/svg" xmlns:xlink="http://www.w3.org/1999/xlink" x="0px" y="0px"
	 viewBox="0 0 144 101" style="enable-background:new 0 0 144 101;" xml:space="preserve">
<style type="text/css">
	.st0{fill-rule:evenodd;clip-rule:evenodd;fill:#F6B32A;}
	.st1{fill-rule:evenodd;clip-rule:evenodd;fill:#BABBBD;}
</style>
<g id="Layer_1_1_">
</g>
<path class="st0" d="M94.2,9.2c10.9,7.1,26.7,29.2,30.7,41.3c-4,12.4-19.9,34.1-30.7,41.3V9.2L94.2,9.2z"/>
<path class="st1" d="M70.9,25.1c5.6,0,13,2.2,18.6,6.2V6.4C83.9,3,77.1,0.8,68.7,0.8c-27.3,0-49.7,22.3-49.7,49.7
	c0,27.6,22.3,49.7,49.7,49.7c8.4,0,15.2-1.9,20.8-5.6V69.7c-5.6,4-13,6.5-18.6,6.5c-15.5,0-26.7-11.5-26.7-25.8S55.4,25.1,70.9,25.1
	L70.9,25.1z"/>
</svg>
