<?xml version="1.0" encoding="utf-8"?>
<!-- Generator: Adobe Illustrator 24.0.2, SVG Export Plug-In . SVG Version: 6.00 Build 0)  -->
<svg version="1.1" id="Layer_1" xmlns="http://www.w3.org/2000/svg" xmlns:xlink="http://www.w3.org/1999/xlink" x="0px" y="0px"
	 viewBox="0 0 144 101" style="enable-background:new 0 0 144 101;" xml:space="preserve">
<style type="text/css">
	.st0{fill:#231F20;}
</style>
<g id="Layer_1_1_">
</g>
<g>
	<polygon class="st0" points="27.7,84.3 18.4,99.8 22.9,99.8 24.3,97.5 33.8,97.5 32.1,94.5 26,94.5 29.6,87.8 30.2,87.9 36.8,99.8 
		41.1,99.8 32.5,84.3 	"/>
	<path class="st0" d="M41.7,88.9v6.3c0,2.5,2,4.6,4.6,4.6H59v-3H46.8c-0.8,0-1.3-0.6-1.3-1.3v-6.8c0-0.7,0.6-1.3,1.3-1.3l12.2,0v-3
		H46.3C43.7,84.3,41.7,86.4,41.7,88.9z"/>
	<path class="st0" d="M76.1,95.6c0,0.7-0.6,1.3-1.3,1.3h-2.2h-5.8c-0.7,0-1.3-0.6-1.3-1.3V84.3h-3.7v10.9c0,2.5,2.1,4.6,4.6,4.6h6.3
		h2.7c2.5,0,4.6-2,4.6-4.6V84.3h-3.7V95.6z"/>
	<path class="st0" d="M83.5,76.4c18.4-2.9,28.8-14.2,28.8-37.2c0-23-10.4-34.3-28.8-37.2c-3.4-0.5-7.1-0.8-11-0.8
		c-3.9,0-7.6,0.3-11,0.8C43.1,4.9,32.7,16.1,32.7,39.2c0,23,10.4,34.3,28.8,37.2c3.4,0.5,7.1,0.8,11,0.8
		C76.4,77.2,80.1,76.9,83.5,76.4z M83.5,4.8c13,2.8,23.7,11.7,23.7,34.3c0,17.2-6.2,26.5-14.8,31.1l-4.9-32.9l-3.9-11.1l-8-22.5
		C78.2,4,80.9,4.3,83.5,4.8z M71,3.8c0.5,0,1,0,1.5,0c0.5,0,1,0,1.5,0l0.4,27.4h-1.9h-1.9L71,3.8z M37.8,39.2
		c0-22.6,10.7-31.5,23.7-34.3c2.6-0.6,5.3-0.9,8-1l-8,22.5l-3.9,11.1l-4.9,32.9C44,65.6,37.8,56.4,37.8,39.2z M61.5,73.5
		c-2.8-0.6-5.5-1.5-8-2.7l8-16.6l8.7-18h2.3h2.3l8.7,18l8,16.6c-2.5,1.2-5.2,2.1-8,2.7c-3.5,0.8-7.3,1.1-11,1.1
		C68.8,74.6,65.1,74.2,61.5,73.5z"/>
	<polygon class="st0" points="114.7,87.9 121.3,99.8 125.6,99.8 116.9,84.3 112.2,84.3 102.9,99.8 107.3,99.8 108.7,97.5 
		118.3,97.5 116.5,94.5 110.4,94.5 114.1,87.8 	"/>
	<path class="st0" d="M97.9,84.3l-14.4,0h-0.7v15.5h0.7h3V87.3h10.4c0.6,0,1.1,0.5,1.1,1.1v2.2c0,0.6-0.5,1.1-1.1,1.1h-9l0.8,3
		l8.2,0c0.6,0,1.1,0.5,1.1,1.1v4h3.5V96c0-1.1-0.8-2.6-1.9-2.8c1.1-0.3,2.1-1.2,2.2-2.3v-2.7C101.7,86,100,84.3,97.9,84.3z"/>
</g>
</svg>
