<?xml version="1.0" encoding="utf-8"?>
<!-- Generator: Adobe Illustrator 24.0.2, SVG Export Plug-In . SVG Version: 6.00 Build 0)  -->
<svg version="1.1" id="Layer_1" xmlns="http://www.w3.org/2000/svg" xmlns:xlink="http://www.w3.org/1999/xlink" x="0px" y="0px"
	 viewBox="0 0 144 101" style="enable-background:new 0 0 144 101;" xml:space="preserve">
<style type="text/css">
	.st0{fill-rule:evenodd;clip-rule:evenodd;fill:#00923F;}
	.st1{fill:#00923F;}
</style>
<g id="Layer_1_1_">
</g>
<g id="Layer_x0020_1">
	<g>
		<polygon class="st0" points="0.8,11.6 43.6,11.6 43.6,59.5 0.8,59.5 		"/>
		<path class="st0" d="M86.2,12.6c19,0,38,0,57,0c0,7.5-13,21.8-30.8,22.9c17.4,2.8,30.8,15.8,30.8,23.9c-19,0-38,0-57,0
			c11.3-3.6,10.9-20-36-24.1h-6.6v-0.5v-0.5h6.5C97.1,30.3,94.2,14,86.2,12.6z"/>
		<path class="st1" d="M0.8,88.8V68.3h5.9v7.1l5.4-7.1h8l-6.4,7.4l7,13.1h-7.4l-4.1-8.3l-2.6,2.8v5.5C6.7,88.8,0.8,88.8,0.8,88.8z
			 M31.9,81.4c-0.5,0.4-1.5,0.6-2.8,0.7c-0.4,0-0.7,0.1-0.9,0.1c-0.8,0.1-1.3,0.2-1.6,0.5c-0.3,0.2-0.4,0.5-0.4,1
			c0,0.5,0.2,0.9,0.5,1.2c0.3,0.3,0.8,0.4,1.4,0.4c1.2,0,2.1-0.3,2.8-0.9c0.7-0.6,1-1.5,1-2.5c0-0.1,0-0.2,0-0.2
			C31.9,81.5,31.9,81.5,31.9,81.4L31.9,81.4z M31.9,86.6c-0.7,0.9-1.5,1.6-2.4,2c-0.9,0.4-2.1,0.6-3.5,0.6c-1.9,0-3.4-0.4-4.4-1.3
			c-1-0.9-1.5-2.2-1.5-3.9c0-0.6,0.1-1.1,0.2-1.6c0.1-0.5,0.3-0.9,0.5-1.3c0.4-0.7,0.9-1.2,1.6-1.5c0.7-0.3,2-0.6,3.8-0.7
			c0.6-0.1,1.4-0.1,2.4-0.2c2-0.1,3-0.5,3-1.1c0-0.4-0.2-0.8-0.6-1c-0.4-0.3-1-0.4-1.7-0.4c-0.9,0-1.6,0.1-2,0.4
			c-0.4,0.2-0.6,0.6-0.7,1.2h-5.5c0.1-1.9,0.8-3.3,2-4.1c1.2-0.8,3.3-1.3,6.1-1.3c1.5,0,2.9,0.1,3.9,0.4c1.1,0.3,1.9,0.7,2.4,1.3
			c0.6,0.6,1,1.4,1.3,2.2c0.2,0.9,0.4,2.1,0.4,3.7v6.1c0,0.6,0,1,0.1,1.4c0.1,0.3,0.2,0.6,0.4,0.8v0.3h-5.5c-0.1-0.3-0.2-0.7-0.2-1
			C32,87.4,31.9,87,31.9,86.6L31.9,86.6z M42.5,88.8l-4-15.9h5.7l1.4,6.8c0.1,0.4,0.2,0.9,0.3,1.5c0.1,0.6,0.2,1.2,0.3,1.9
			c0.1-0.5,0.3-1.4,0.7-2.7l0.1-0.2l2.1-7.3h4l2.2,7.2c0.1,0.3,0.2,0.6,0.3,1.1c0.1,0.4,0.2,0.9,0.4,1.5c0-0.3,0.1-0.7,0.2-1.1
			c0.1-0.4,0.2-1,0.4-1.9l1.5-6.8h5.7l-4.1,15.9h-6.1l-1.9-6.5c-0.1-0.3-0.2-0.7-0.3-1c-0.1-0.4-0.2-0.7-0.2-1.1
			c-0.1,0.4-0.1,0.8-0.2,1.1c-0.1,0.3-0.2,0.7-0.2,0.9l-2,6.6L42.5,88.8L42.5,88.8z M75.5,81.4c-0.5,0.4-1.5,0.6-2.8,0.7
			c-0.4,0-0.7,0.1-0.9,0.1c-0.8,0.1-1.3,0.2-1.6,0.5c-0.3,0.2-0.4,0.5-0.4,1c0,0.5,0.2,0.9,0.5,1.2c0.3,0.3,0.8,0.4,1.4,0.4
			c1.2,0,2.1-0.3,2.8-0.9c0.7-0.6,1-1.5,1-2.5c0-0.1,0-0.2,0-0.2C75.5,81.5,75.5,81.5,75.5,81.4L75.5,81.4z M75.5,86.6
			c-0.7,0.9-1.5,1.6-2.4,2c-0.9,0.4-2.1,0.6-3.5,0.6c-1.9,0-3.4-0.4-4.4-1.3c-1-0.9-1.5-2.2-1.5-3.9c0-0.6,0.1-1.1,0.2-1.6
			c0.1-0.5,0.3-0.9,0.5-1.3c0.4-0.7,0.9-1.2,1.6-1.5c0.7-0.3,2-0.6,3.8-0.7c0.6-0.1,1.4-0.1,2.4-0.2c2-0.1,3-0.5,3-1.1
			c0-0.4-0.2-0.8-0.6-1c-0.4-0.3-1-0.4-1.7-0.4c-0.9,0-1.6,0.1-2,0.4c-0.4,0.2-0.6,0.6-0.7,1.2h-5.5c0.1-1.9,0.8-3.3,2-4.1
			c1.2-0.8,3.3-1.3,6.1-1.3c1.5,0,2.9,0.1,3.9,0.4c1.1,0.3,1.9,0.7,2.4,1.3c0.6,0.6,1,1.4,1.3,2.2c0.2,0.9,0.4,2.1,0.4,3.7v6.1
			c0,0.6,0,1,0.1,1.4c0.1,0.3,0.2,0.6,0.4,0.8v0.3h-5.5c-0.1-0.3-0.2-0.7-0.2-1C75.5,87.4,75.5,87,75.5,86.6L75.5,86.6z M82.7,83.7
			l6.5,0c0,0.6,0.2,1,0.5,1.2c0.3,0.2,0.8,0.4,1.6,0.4c0.6,0,1.1-0.1,1.4-0.3c0.3-0.2,0.5-0.4,0.5-0.8c0-0.6-0.8-1-2.4-1.2
			c-0.3,0-0.6-0.1-0.7-0.1h0c-2.6-0.3-4.3-0.8-5.2-1.3c-0.5-0.3-0.9-0.8-1.2-1.5c-0.3-0.7-0.4-1.5-0.4-2.4c0-1.8,0.6-3.2,1.9-4
			c1.3-0.9,3.2-1.3,6-1.3c2.6,0,4.5,0.4,5.8,1.3c1.3,0.9,1.9,2.2,2,4h-6.1c0-0.5-0.2-0.9-0.6-1.2c-0.3-0.2-0.9-0.4-1.6-0.4
			c-0.6,0-1.1,0.1-1.4,0.3c-0.3,0.2-0.4,0.5-0.4,0.8c0,0.6,0.7,1,2.1,1.1c0.3,0,0.5,0.1,0.7,0.1l0.5,0.1c2.8,0.3,4.4,0.6,4.9,0.8
			c0.9,0.4,1.5,1,1.9,1.6c0.4,0.6,0.6,1.5,0.6,2.6c0,2-0.7,3.5-2,4.4c-1.3,0.9-3.5,1.4-6.5,1.4c-2.7,0-4.7-0.4-5.9-1.4
			C83.4,87.1,82.7,85.7,82.7,83.7L82.7,83.7z M112,81.4c-0.5,0.4-1.5,0.6-2.8,0.7c-0.4,0-0.7,0.1-0.9,0.1c-0.8,0.1-1.3,0.2-1.6,0.5
			c-0.3,0.2-0.4,0.5-0.4,1c0,0.5,0.2,0.9,0.5,1.2c0.3,0.3,0.8,0.4,1.4,0.4c1.2,0,2.1-0.3,2.8-0.9c0.7-0.6,1-1.5,1-2.5
			c0-0.1,0-0.2,0-0.2C112,81.5,112,81.5,112,81.4L112,81.4z M112,86.6c-0.7,0.9-1.5,1.6-2.4,2c-0.9,0.4-2.1,0.6-3.5,0.6
			c-1.9,0-3.4-0.4-4.4-1.3c-1-0.9-1.5-2.2-1.5-3.9c0-0.6,0.1-1.1,0.2-1.6c0.1-0.5,0.3-0.9,0.5-1.3c0.4-0.7,0.9-1.2,1.6-1.5
			c0.7-0.3,2-0.6,3.8-0.7c0.6-0.1,1.4-0.1,2.4-0.2c2-0.1,3-0.5,3-1.1c0-0.4-0.2-0.8-0.6-1c-0.4-0.3-1-0.4-1.7-0.4
			c-0.9,0-1.6,0.1-2,0.4c-0.4,0.2-0.6,0.6-0.7,1.2h-5.5c0.1-1.9,0.8-3.3,2-4.1c1.2-0.8,3.3-1.3,6.1-1.3c1.5,0,2.9,0.1,3.9,0.4
			c1.1,0.3,1.9,0.7,2.4,1.3c0.6,0.6,1,1.4,1.3,2.2c0.2,0.9,0.4,2.1,0.4,3.7v6.1c0,0.6,0,1,0.1,1.4c0.1,0.3,0.2,0.6,0.4,0.8v0.3h-5.5
			c-0.1-0.3-0.2-0.7-0.2-1C112.1,87.4,112,87,112,86.6L112,86.6z M120.1,88.8V68.2h5.3v9.8l3.8-5h7.1l-4.7,5.5l5.2,10.4h-6.3
			l-2.8-6.2l-2.3,2.6v3.6L120.1,88.8L120.1,88.8z M137.9,88.8V72.9h5.4v15.9H137.9z M137.9,71.6v-4h5.4v4H137.9z"/>
	</g>
</g>
</svg>
