<?xml version="1.0" encoding="utf-8"?>
<!-- Generator: Adobe Illustrator 24.0.2, SVG Export Plug-In . SVG Version: 6.00 Build 0)  -->
<svg version="1.1" id="Layer_1" xmlns="http://www.w3.org/2000/svg" xmlns:xlink="http://www.w3.org/1999/xlink" x="0px" y="0px"
	 viewBox="0 0 144 101" style="enable-background:new 0 0 144 101;" xml:space="preserve">
<style type="text/css">
	.st0{fill-rule:evenodd;clip-rule:evenodd;fill:#231F20;}
</style>
<g id="Layer_1_1_">
</g>
<path class="st0" d="M70.5,79.7c-1-1-2.8-1.5-4.5-1.5c-4.2,0-6.9,2.4-6.9,5.4c0,2.8,2.6,5.1,6.9,5.1c2.1,0,3.7-0.7,4.8-1.8l2.1,1.1
	c-0.5,0.5-2.8,2.3-7,2.3c-5.9,0-9.5-3.5-9.5-6.8c0-4.1,3.9-7,9.6-7c2.4,0,5,0.7,6.5,2L70.5,79.7L70.5,79.7z"/>
<path class="st0" d="M92.8,90.4c5.3,0,9-3,9-6.9s-3.7-6.9-9-6.9c-5.3,0-9,3-9,6.9S87.6,90.4,92.8,90.4L92.8,90.4z M92.8,88.7
	c-3.9,0-6.5-2.4-6.5-5.2c0-2.9,2.6-5.2,6.5-5.2c3.9,0,6.5,2.4,6.5,5.2C99.3,86.3,96.8,88.7,92.8,88.7L92.8,88.7z"/>
<polygon class="st0" points="1.3,76.9 3.2,76.9 3.2,88.4 9.7,88.4 9.7,90 1.3,90 1.3,76.9 "/>
<polygon class="st0" points="21.1,76.9 23,76.9 23,90 21.1,90 21.1,76.9 "/>
<polygon class="st0" points="32.7,76.9 35.9,76.9 45.8,87.7 45.8,87.7 45.8,76.9 48.3,76.9 48.3,90 45.2,90 35.2,79.2 35.1,79.2 
	35.1,90 32.7,90 32.7,76.9 "/>
<polygon class="st0" points="110.7,76.9 112.6,76.9 112.6,88.4 119.1,88.4 119.1,90 110.7,90 110.7,76.9 "/>
<polygon class="st0" points="130.5,76.9 133,76.9 140.7,87.7 140.8,87.7 140.8,76.9 142.7,76.9 142.7,90 140.2,90 132.4,79.2 
	132.4,79.2 132.4,90 130.5,90 130.5,76.9 "/>
<path class="st0" d="M66.9,64c-1.1-7.9-1.4-17.7-1.4-22.9c1.6,0.2,3.3,0.3,4.7,0.4c0,9.5,0.4,17.2,0.7,22.5H66.9h10.1h-4
	c0.3-5.3,0.7-13,0.7-22.5c1.4-0.1,3.1-0.2,4.7-0.4c0,5.1-0.3,15-1.4,22.9H66.9L66.9,64z M66.9,15.6h4c-0.3,5.3-0.7,13-0.7,22.5
	c-1.4,0.1-3.1,0.2-4.7,0.4C65.5,33.4,65.8,23.5,66.9,15.6L66.9,15.6z M77.1,15.6c1.1,7.9,1.4,17.7,1.4,22.9
	c-1.6-0.2-3.3-0.3-4.7-0.4c0-9.5-0.4-17.2-0.7-22.5H77.1L77.1,15.6z M80.7,38.8c0-8.1-0.5-17.2-1.8-25.6c0,0-2.7-0.3-6.1-0.4
	c-0.2-3.3-0.4-5.1-0.4-5.1h-0.9c0,0-0.2,1.8-0.4,5.1c-3.5,0-6.1,0.4-6.1,0.4c-1.3,8.4-1.7,17.5-1.8,25.6c-2.8,0.3-5.1,0.7-5.1,0.7
	v0.8c0,0,2.3,0.3,5.1,0.7c0,8.1,0.5,17.2,1.8,25.6c0,0,2.7,0.3,6.1,0.4c0.2,3.3,0.4,5.1,0.4,5.1h0.9c0,0,0.2-1.8,0.4-5.1
	c3.5,0,6.1-0.4,6.1-0.4c1.3-8.4,1.7-17.5,1.8-25.6c2.8-0.3,5.1-0.7,5.1-0.7v-0.8C85.9,39.4,83.6,39.1,80.7,38.8L80.7,38.8z"/>
</svg>
