<?xml version="1.0" encoding="utf-8"?>
<!-- Generator: Adobe Illustrator 24.0.2, SVG Export Plug-In . SVG Version: 6.00 Build 0)  -->
<svg version="1.1" id="Layer_1" xmlns="http://www.w3.org/2000/svg" xmlns:xlink="http://www.w3.org/1999/xlink" x="0px" y="0px"
	 viewBox="0 0 144 101" style="enable-background:new 0 0 144 101;" xml:space="preserve">
<style type="text/css">
	.st0{fill-rule:evenodd;clip-rule:evenodd;fill:#EC1C24;}
</style>
<g id="Layer_1_1_">
</g>
<path class="st0" d="M72.3,6.4C33.2,6.4,1.4,26,1.4,50.2c0,24,31.8,43.6,70.9,43.6c39.3,0,70.9-19.6,70.9-43.6
	C143.2,26,111.7,6.4,72.3,6.4 M72.3,14.8c36.6,0,66.2,15.8,66.2,35.4c0,19.5-29.6,35.3-66.2,35.3C36,85.5,6.4,69.7,6.4,50.2
	C6.4,30.6,36,14.8,72.3,14.8z"/>
<polyline class="st0" points="118.1,33.9 93.1,33.9 93.1,66.4 101.9,66.4 101.9,42 111.7,42 114.2,45 114.2,58.3 103.8,58.3 
	103.8,66.4 123,66.4 123,39.7 118.1,33.9 "/>
<polyline class="st0" points="78.5,45.4 69.1,45.4 69.1,66.4 78.8,66.4 78.8,53.2 86.2,53.2 89.7,49.9 89.7,33.9 80,33.9 80,44.1 
	78.5,45.4 "/>
<polyline class="st0" points="65.8,33.9 55.9,33.9 55.9,49.9 59.5,53.2 67.2,53.2 67.2,45.4 65.8,44.1 65.8,33.9 "/>
<path class="st0" d="M52.5,39l-4.3-5.1H21.7v32.5H30l0-13.7h14.2l0,5.8H31.9v7.9h15.9l4.8-3.3V52.2l-2.2-2.1l2.2-1.9V39 M44.2,47.6
	l-14.2,0v-5.8l14.2,0V47.6z"/>
</svg>
