<?xml version="1.0" encoding="utf-8"?>
<!-- Generator: Adobe Illustrator 24.0.2, SVG Export Plug-In . SVG Version: 6.00 Build 0)  -->
<svg version="1.1" id="Layer_1" xmlns="http://www.w3.org/2000/svg" xmlns:xlink="http://www.w3.org/1999/xlink" x="0px" y="0px"
	 viewBox="0 0 144 101" style="enable-background:new 0 0 144 101;" xml:space="preserve">
<style type="text/css">
	.st0{fill-rule:evenodd;clip-rule:evenodd;fill:#231F20;}
	.st1{fill-rule:evenodd;clip-rule:evenodd;fill:#FFFFFF;}
</style>
<g id="Layer_1_1_">
</g>
<g>
	<path class="st0" d="M48.5,74.1C48.5,74.1,48.5,74.1,48.5,74.1C48.5,74.1,48.5,74.1,48.5,74.1L48.5,74.1z"/>
	<polygon class="st0" points="13.6,37.5 13.6,37.5 13.6,37.5 	"/>
	<polygon class="st0" points="71.4,36.6 71.4,36.6 71.4,36.6 	"/>
	<path class="st0" d="M13.6,37.5C13.6,37.5,13.6,37.5,13.6,37.5C13.6,37.5,13.6,37.5,13.6,37.5L13.6,37.5z"/>
	<path class="st0" d="M13.6,37.5C13.6,37.5,13.6,37.5,13.6,37.5L13.6,37.5z"/>
	<path class="st0" d="M53.8,76.9c0,0,0.2-0.4,0.8-0.4h1.6c0.2,0,0.9,0.2,1.6-0.4c0,0,0,0,0.1-0.1c1.2-0.9,2.4-1.2,3.3-0.8
		c0,0,1.4,0.2,2.8,1.4c0,0,0.6,0.4,1.5,0.4c0.1,0,1,0.1,1.7,0.2c0,0,0.3,0,0.4-0.2c0.1-0.1,2.5-2.8,3-3.7c0.2-0.1,0.4-0.3,0.4-0.5
		c0-0.2,0-0.4-0.6-0.6c-0.1,0-2.3-0.8-4.4-0.9c-0.1,0-0.1-0.2,0-0.2c0,0,0.1-0.1,0.2-0.1c1.9-1.1,3.2-1.7,3.9-1.8c0,0,0.1,0,0.1,0
		c0.1,0,0.3,0,0.7,0.1l0.2,0c0.1,0,0.2,0.1,0.4,0.1c1.1,0.3,3.5,0.9,5.4,1c0.3,0.2,1.2,0.4,1.8,0.2c0,0,0.9-0.2,1.1-1.1
		c0,0,0.5-1.6,2.2-4.1c0,0,0.1-0.1,0.2-0.2c1.7-2.2,3.5-3.7,5.2-4.3c0.4-0.1,3-1.1,4-1.8c0,0,0,0,0,0c1-0.7,4.4-3.4,8.2-9.9
		c0-0.1,1-2.5,4.1-2.4c0,0,6-0.1,6.3-0.1c0.3,0.1,3.1,0.6,4.4-1.9c0,0,1.7-3.9,3.8-3.6c0.3,0,1.5,0.2,5.5,1.3c0,0,9.6,2,14.2-1.6
		c1.2-0.6,5.2-3.2,4.3-9.1c-0.1-0.6-0.4-1-0.8-1.2c-0.5-0.2-1.2-0.1-2,0.3c-0.1,0-0.3,0.1-0.5,0.2c-1.5,0.5-6.1,2-8.1,1.9
		c-0.1,0-0.2,0-0.3,0c-2.8-0.1-6.3-0.8-10.3-1.9c0,0-0.2-0.1-0.3-0.1c-4.8-1.5-8.7-1.3-11.2,0.6c-2.1,1.6-3.3,4.3-3.4,8
		c-0.3,0.2-1.5,0.4-4.5-0.8c-0.2-0.1-0.6-0.4-1.8-1.1c-1.5-0.9-3.5-2.1-4.8-3L94,34.6c-2-1.5-8.9-5.8-20-4.1v0
		c-0.2,0-0.5,0.1-1.2,0.2c-1.3,0.2-3.5,0.6-5.4,0.8c-0.1,0-0.3,0-0.8,0.1c-1.4,0.1-4.5,0.4-8.1,0.3c-0.1,0-0.2,0-0.4,0
		c-0.8,0-2.9,0.1-4.2-0.9c0,0-0.1-0.1-0.1-0.1c-0.1-0.1-0.3-0.3-0.3-0.5c0-0.2,0.2-0.3,0.4-0.4l0,0c0.2-0.1,0.5-0.5,0.5-0.8
		c0-0.4-0.2-0.8-1.4-0.9c-0.4-0.1-1.8-0.1-3.3,0.5c-0.2-0.1-0.3-0.2-0.4-0.3c-0.1-0.2,0-0.5,0.2-0.9c0.4-0.3,1-1.1,1.1-1.2
		c0.4-0.5,0.6-1.2,0.4-1.6c-0.3-0.5-1.1-1-3.9-0.8c0,0-3.9,0.3-9.3,2.4c0,0-0.8,0.3-1,0.1c-0.1,0-0.1-0.1-0.1-0.2
		c0.1-0.3,0.1-0.6-0.1-0.9c-0.5-0.6-1.9-0.6-4.3,0l0,0c-0.2,0.1-0.9,0.3-3.2,1.3c-0.2,0.1-0.3,0.1-0.3,0.1c0,0-0.1-0.4-0.1-0.4
		c-0.1-0.5-0.3-0.8-0.6-1c-0.5-0.3-1-0.2-1-0.2c-1.7,0.5-3.5,1.4-4.7,2.1c-0.7,0.4-1.3,0.8-1.6,1c-0.4,0.3-0.6,0.4-0.7,0.5l0,0
		c-0.1,0.1-0.2,0.1-0.3,0.1c-0.5-0.1-1.1-1.1-1.2-1.4c-0.5-1.5-1.7-1.4-2-1.4c-2.8,1.3-2.7,5.1-2.5,6.2c0,0,0,0,0,0
		c0,0.3,0,0.4,0,0.5c-0.6,0.3-5.6,2.9-5.9,5.6c0,0,0,0.1,0,0.1c0,0.1,0,1.2-0.9,2.9c-0.5,0.7-5.5,8.5-5.5,8.5
		c-0.8,1.3-0.9,2.4-0.2,3.3c0.1,0.2,0.6,1.2,0.6,1.9c0,0,0,0.1,0,0.1c0.2,0.8,0.9,1.3,1.4,1.6c0.1,0.1,0.4,0.2,1,0.3
		c0,0,0.9,0.1,1.5,0.3l0.1,0c0.4,0.1,2.3-0.6,2.4-0.6c0.9-0.4,1.3-1,1.3-1.5l0-0.1c0.2-0.6,2.1-4,4.3-5.5l0.4-0.3
		c0.7-0.4,2.1-1.3,3.4-2c0.2-0.1,4.5-2.5,5.8-4.7c0,0,0,0,0-0.1c0,0,0.6,0.3,0.6,0.3c0.8,0.2,9,4,10,8.7l0.1,0.4
		c0,0.5,0,1.5-0.4,3.2c-0.3,1.4-1,5-1.2,5.4c0,0.1-0.6,1.6-0.4,2.8l0,0c0,0,0,0,0,0.1c0.3,1.2,0.7,2.9,1.3,3.7c0,0,0.2,0.7,1.4,0.6
		l0.1,0c0,0,0.1,0,0.1,0c0.2,0,0.5,0,0.8-0.1c0.3-0.1,3.5-0.6,4.4-0.7c0,0,0,0,0.1,0c1-0.1,4.5-0.4,6.6,0.3c0.1,0.1,0.2,0.1,0.3,0.2
		c0.4,0.2,1.3,0.7,1.5,1.6l0-0.1c0,0.2,0.6,1.1,1.8,1.2c0.1,0,0.5,0.2,1.4,0.5c0.1,0,0.3,0.1,0.3,0.2c0.1,0.1,0,0.3-0.1,0.5
		c0,0-0.1,0.1-0.1,0.1c-0.9,1-2.2,1.5-4,1.6l-0.1,0c-0.2,0-0.5,0-0.8,0.5c-0.6,0.6-2,1.9-1.9,3c0,0.3,0.2,0.6,0.6,0.8
		c0.2,0.1,6.1,0.1,7.3-0.1C53.8,77.1,53.8,76.9,53.8,76.9L53.8,76.9z"/>
	<path class="st1" d="M137.6,40.6c-4.8,3.7-13.9,1.5-13.9,1.5c-2.1-0.6-4.7-1.3-5.5-1.3c-2.5-0.4-4,3.4-4.1,3.6
		c-1.1,2.5-3.9,1.8-4,1.8l-6.3,0.1c-3.2-0.1-4.4,2.5-4.5,2.7c-3.8,6.6-7.4,9.3-8.1,9.7c0,0,0,0,0,0c-1.1,0.7-3.6,1.6-3.9,1.7
		c-1.8,0.7-3.7,2.2-5.5,4.5c0,0,0,0,0,0l-0.2,0.2c-1.8,2.5-2.3,4.1-2.3,4.2c-0.2,0.6-0.8,0.8-0.8,0.8c-0.5,0.2-1.3-0.1-1.4-0.2
		L77,70c-1.8-0.1-4.3-0.7-5.3-1c-0.3-0.1-0.4-0.1-0.5-0.1c-0.5-0.2-0.8-0.2-0.9-0.2c0,0-0.1,0-0.1,0c-1.1,0.1-3.4,1.4-4.1,1.9
		c-0.1,0-0.2,0.1-0.2,0.1c-0.3,0.2-0.6,0.4-0.5,0.7c0,0.3,0.7,0.4,0.7,0.4c2,0.1,4.3,0.9,4.3,0.9c0.2,0.1,0.1,0.2,0.1,0.2h-0.1
		L70.3,73c-0.4,0.7-2.6,3.3-3,3.7l-0.1,0c-1.6-0.2-1.6-0.2-1.6-0.2c-0.8-0.1-1.2-0.3-1.2-0.4c-1.4-1.1-2.7-1.4-2.9-1.4
		c-1.1-0.4-2.4-0.1-3.7,0.9c0,0-0.7,0.6-1.3,0.4l-1.7,0c-0.6,0-1,0.4-1.2,0.6c-1.6,0.2-6.4,0.2-6.9,0.1c-0.2-0.1-0.3-0.2-0.3-0.4
		c-0.1-0.7,0.9-1.8,1.7-2.6l0,0c0,0,0-0.1,0-0.1c0.2-0.3,0.3-0.4,0.4-0.4c0,0,0.1,0,0.1,0c1.9-0.1,3.3-0.7,4.3-1.7l0,0l0.1-0.2
		c0.2-0.3,0.3-0.6,0.2-0.9c-0.1-0.4-0.6-0.5-0.6-0.5c-0.9-0.3-1.4-0.5-1.4-0.5l0,0l0,0c-1.1-0.1-1.4-0.8-1.4-0.9l0,0
		c-0.3-1-1.3-1.6-1.8-1.9c0,0-0.1-0.1-0.1-0.1v-0.1l-0.1-0.1c-2.2-0.8-5.8-0.5-6.8-0.4c0,0,0,0,0,0c-0.6,0.1-2.1,0.3-2.6,0.4
		c-1.2,0.2-1.7,0.3-2,0.4c-0.2,0.1-0.5,0.1-0.7,0.1c-0.1,0-0.1,0-0.2,0c-0.8,0-1-0.3-1-0.3c-0.4-0.6-0.9-1.9-1.2-3.7
		c0,0,0-0.1,0-0.1l0,0c-0.2-1.1,0.4-2.5,0.4-2.5c0.2-0.6,1.1-5.3,1.2-5.5c0.3-1.6,0.5-3.3,0.3-3.8c-0.9-4.3-7.2-7.6-9.1-8.5
		c-0.8-0.4-2.1-1.1-2.4-0.7c0,0-0.1,0.1-0.1,0.1c-1.3,2.1-5.6,4.5-5.7,4.6c-2.7,1.6-3.5,2.1-3.8,2.3c-1.3,0.9-2.5,2.4-3.2,3.5
		c0,0-1.2,1.8-1.3,2.4c-0.1,0.5-0.5,0.9-1.1,1.1c0,0-1.7,0.6-2,0.6c-0.7-0.3-1.6-0.4-1.6-0.4c-0.3,0-0.6-0.1-0.8-0.1l-0.1,0
		c-0.5-0.3-1.1-0.7-1.3-1.3c0,0,0-0.1,0-0.1c-0.1-0.6-0.4-1.8-0.7-2.1c-0.8-1.1,0-2.3,0.3-2.7c0-0.1,0.1-0.1,0.1-0.2
		c0.6-1,5.3-8.1,5.4-8.3c0.7-1.5,1-2.8,0.9-3.2c0.4-2.5,5.7-5.2,5.7-5.2l0.1-0.1c0,0,0.2-0.3,0.1-0.9c-0.1-1.1-0.3-4.6,2.2-5.7
		c0.3,0,1.1,0,1.5,1.1c0.1,0.4,0.7,1.2,1.2,1.5c0.4,0.2,0.7,0.2,1-0.1c0.3-0.3,3.8-2.7,6.8-3.5c0,0,0.3-0.1,0.6,0.1
		c0.2,0.2,0.4,0.4,0.4,0.8c0,0.1,0,0.4,0.1,0.5c0.1,0.2,0.4,0.3,0.9,0.1c1.1-0.5,2.9-1.2,3.1-1.3c2.9-0.8,3.6-0.4,3.8-0.2
		c0.2,0.2,0,0.5,0,0.5l0,0.1c0,0.5,0.4,0.8,0.9,0.8c0,0,0.6,0,0.9-0.2v0c5.2-2,9.2-2.3,9.2-2.4c2.5-0.2,3.1,0.3,3.3,0.5
		c0.1,0.1,0.1,0.3,0.1,0.3c0.2,0.5-1.1,1.8-1.4,2c0,0-0.6,1.1-0.3,1.5c0.1,0.2,0.3,0.5,0.7,0.6c0,0,0.3,0,0.3,0
		c1.3-0.5,2.4-0.6,2.8-0.5l0.2,0c0.9,0,1,0.3,1,0.3c0,0.1-0.1,0.3-0.2,0.4l-0.1,0c-0.4,0.2-0.6,0.5-0.7,0.7
		c-0.1,0.4,0.2,0.7,0.4,0.9c0,0,0.1,0.2,0.1,0.2c1.4,1.1,3.7,1,4.5,1c0.1,0,0.3,0,0.3,0c3.6,0.2,6.9-0.1,8.2-0.3
		c0.3,0,0.8-0.1,0.8-0.1c2-0.2,4.2-0.5,5.5-0.8C73,31.2,74,31,74,31c11.1-1.7,18,2.7,19.8,4.1c0,0,0.1,0.1,0.1,0.1l0,0
		c1.3,0.9,3.4,2,4.8,3c0.9,0.6,1.8,1.1,1.8,1.1c3.6,1.3,4.6,1.1,4.9,0.9c0,0,0.2,0,0.3-0.3c0.1-3.7,1.1-6.3,3.2-7.8
		c2.4-1.8,6.2-1.9,10.8-0.5c0.1,0,0.2,0.1,0.3,0.1l0,0c4,1.2,7.5,1.8,10.4,1.9c0.1,0,0.3,0,0.3,0c2.1,0.1,6.6-1.4,8.3-1.9
		c0.3-0.1,0.6-0.2,0.6-0.2c0.7-0.4,1.2-0.5,1.6-0.3c0.3,0.1,0.5,0.4,0.6,0.8C142.6,37.6,138.8,40,137.6,40.6L137.6,40.6z"/>
	<path class="st0" d="M18.1,27.5C18.1,27.5,18.1,27.5,18.1,27.5L18.1,27.5z"/>
	<path class="st0" d="M14.4,32.1C14.4,32.1,14.4,32,14.4,32.1L14.4,32.1z"/>
	<path class="st0" d="M137.6,40.6C137.6,40.6,137.6,40.6,137.6,40.6L137.6,40.6z"/>
	<polygon class="st0" points="28.2,26.3 28.2,26.3 28.2,26.3 28.2,26.3 	"/>
	<path class="st0" d="M118.2,40.8C118.2,40.8,118.2,40.8,118.2,40.8C118.2,40.8,118.2,40.8,118.2,40.8L118.2,40.8L118.2,40.8z"/>
	<path class="st0" d="M44,61.1c0,0-0.6-0.7-1-1.1c-0.5-0.5-1.1-1.2-1.5-1.6c-0.2-0.2-0.8-0.4-1.4,0.1c-0.1,0-1.3,1.2-1.6,2.5l0,0v0
		c0,0,0,0,0,0c0,0.2-0.2,0.6,0.1,1c0.2,0.3,0.4,0.5,0.9,0.6l0,0l0,0c0.1,0,1.5,0.3,2.3,0.2c0.4,0.1,1.6,0,2.2-0.5
		C44,62.1,44.3,61.7,44,61.1L44,61.1z"/>
	<polygon class="st0" points="41.6,62.7 41.6,62.7 41.7,62.7 41.6,62.7 	"/>
	<path class="st1" d="M43.6,61.8c-0.3,0.4-2.2,0.4-2.2,0.4c0,0-1.9-0.1-2-0.1c-0.3-0.1-0.5-0.2-0.6-0.4c-0.1-0.2,0-0.5,0-0.6
		c0,0,0-0.1,0-0.1l0,0c0.3-1.1,1.5-2.2,1.5-2.2c0.4-0.4,0.8-0.1,0.8-0.1c0.4,0.4,1,1,1.5,1.6c0.6,0.6,0.8,0.8,0.9,1
		C43.8,61.6,43.7,61.8,43.6,61.8L43.6,61.8z"/>
	<path class="st0" d="M72.1,53.8c0,0-0.2-1.1-0.9-1.4c-0.3-0.2-0.6-0.2-0.9-0.1l-0.2,0.1c0,0-8.3,3.5-12.8,3.7c0,0-2.2,0.2-3.1,0.2
		c-0.1,0-0.7-0.1-1.1,0.3c-0.3,0.2-0.4,0.6-0.3,1c0,0.5-0.1,3,0.9,3.4c0,0,0.8,0.2,1.3-0.7c0.6-1.1,1.2-1.3,1.4-1.3l4.9,0
		c0.1,0,0.3,0,0.3,0.1c0,0,0.1,0.3-0.5,1l0,0c0,0-0.1,0.1-0.1,0.1c-0.6,1.1-1.2,1.6-1.6,1.8c-0.2,0-1.2,0.3-1.6,1.1
		c0,0,0,0.1-0.1,0.1c-0.5,0.8-0.8,1.1-0.9,1.1c-0.1,0-0.4,0.2-0.9,0.5c-0.1,0-0.4,0.1-0.5,0.3c-0.1,0.3,0.2,0.6,0.4,0.8L56,66l0,0
		c0,0,0,0,0,0c0.3,0.2,1,0.7,1.7,0.4l0.1,0l0,0c0.1-0.1,0.5-0.3,0.9-0.5c0.9-0.5,2.1-1.2,3-1.8l0,0l0,0c0.1,0,0.9-0.6,2.4-0.6
		c0.2,0,2.3,0.2,4.2-0.8l0,0c0.3-0.1,0.9-0.7,1.2-1C70.6,60.5,72.4,57.9,72.1,53.8L72.1,53.8z"/>
	<path class="st1" d="M61.6,60.5C61.6,60.5,61.6,60.5,61.6,60.5L61.6,60.5z"/>
	<path class="st1" d="M71.6,53.9c-0.1-0.2-0.3-0.9-0.6-1.1c-0.1-0.1-0.3-0.1-0.5,0c-0.2,0.1-0.5,0.2-1.3,0.6
		c-0.7,0.3-1.9,0.8-3.3,1.2c-2.4,0.8-5.8,1.8-8.4,2c-0.2,0-0.7,0.1-1.6,0.1l-1.6,0.1l-0.1,0c0,0-0.4,0-0.8,0.2
		c-0.3,0.2-0.2,0.7-0.2,0.7c0,1.1,0.1,2.7,0.6,3c0,0,0.3,0.1,0.6-0.4c0,0,0,0,0-0.1c0.6-1,1.2-1.5,1.8-1.5c0,0,4.9,0,4.9,0
		c0.1,0,0.5,0,0.7,0.4c0.2,0.3,0,0.8-0.5,1.5c-0.7,1.3-1.4,1.8-1.9,2c0,0-1.1,0.3-1.4,0.9c0,0-0.1,0.1-0.1,0.1
		c-0.4,0.6-0.8,1.2-1.1,1.3L57,64.9c0,0-0.5,0.2-0.8,0.4l-0.1,0c0,0,0,0.1,0.1,0.2c0.1,0,0.1,0.1,0.2,0.1c0.3,0.2,0.7,0.6,1.2,0.3
		c0.1-0.1,0.3-0.2,1-0.6c0.8-0.5,2.1-1.2,3-1.8c0.2-0.2,1.2-0.7,2.7-0.7c0,0,0,0,0,0l0,0c0,0,2.1,0.2,3.9-0.7l0,0
		C68.3,62.2,72,59.6,71.6,53.9L71.6,53.9z"/>
	<path class="st0" d="M15.5,33.3l-0.3-0.5l0.1-1.2c0,0,0.3-0.6,0.5,0.1c0.1,0,0.3,1,0,1.6c0,0-0.2-0.1-0.3,0.4
		c0-0.1,0.2,0.2-0.3,0.5c0,0-2.2,0.9-3.5,2.1c0,0-0.5,0.3-0.8,0.4c0,0-0.5,0.2-0.7,1c0,0-0.2,0.1-0.2,0.1l0.1,0.2
		c0,0,0.3,0.3,0.1,0.8c0,0-0.5,1.4-1,1.8c-0.1,0-0.5,0.1-0.3-0.7c0,0,0.4-1.3,0.4-1.3s0-0.7,0.5-0.9c0,0,0.2,0.2,0.1-0.5
		c0,0,0.1-0.6,0.8-1.3c0,0,2.6-1.8,3.7-2.3c0,0,0.6-0.3,0.9-0.2C15.2,33.5,15.5,33.3,15.5,33.3L15.5,33.3z"/>
	<path class="st0" d="M16.4,27.3c0,0,0.5-0.6,0.7,0.2c0-0.1,0.4,1.1,0.8,1.7c0,0.1-0.2,0.2,0.2,0.5c0,0,0.8,0.3,0.3,1
		c0,0-0.5,1.1-0.4,1.7l1.4-0.3c0,0,0.8-0.2,0.2,0.5c0,0-0.3,0.6-1.3,0.6c0,0-0.3,0-0.6,0.2c0,0-0.6,0.2-0.6-0.4c0,0-0.2-1.6,0.2-2.2
		c-0.1,0,0.3-0.1,0-0.5c0,0-0.6-1.1-0.8-0.9c0.1,0.1-0.4,0.4-0.3,0.7c0,0,0.5,0.3-0.2,0.3c0,0-0.9-0.5-0.7-1.8c0,0,0.3-0.5,0.5-0.5
		C15.9,28.3,15.7,27.5,16.4,27.3L16.4,27.3z"/>
	<path class="st0" d="M20.3,32.1c0,0-1,0.9,0.2,0.7c0,0-0.1-0.2,0.2-0.5C20.7,32.3,21.4,31.6,20.3,32.1L20.3,32.1z"/>
	<path class="st0" d="M27.2,26.6c0,0,0.4-0.8-0.8-0.3c0-0.1-4.3,2.3-5.2,3.6c0,0-0.4,0.4,0.6,0.3c0,0,0.9-0.4,1.7-0.7
		c0,0,0.7-0.3,1.1-0.3c-0.1,0,0.4,0.2,0.8-0.3C25.4,28.8,27.2,26.6,27.2,26.6L27.2,26.6z"/>
	<path class="st0" d="M6.4,44.4c0,0-2.1,3.7-3.1,5c0,0-0.2,0.3-0.2,0.3l-0.2,0.5l0.3,0.3l0.4-0.7c0,0,0-0.3,0.5-0.7
		c0,0,0.5-0.6,0.5-0.6s0.9-1.1,1.4-2.3c0,0,0.4-0.5,0.4-0.5s0.8-1.1,0.9-1.3c0,0,0.2-0.3,0.2-0.8c0,0-0.2-0.5-0.3-0.2
		c0,0-0.3,0.4-0.3,0.4L6.4,44.4L6.4,44.4z"/>
	<path class="st0" d="M36.6,55c0,0-0.7-1.5-1-0.8c0,0-0.3,1.9-0.7,3.7c0,0-0.1,0.6-0.1,0.6s-0.1,1.6-0.5,2.4c0,0.1-0.3,0.8-0.3,0.8
		s-0.2,0-0.2,0.7c0,0,0,1,0.5,1.8c0,0,0.3,0.2,0.4,1c0,0,0.2,0.9,1.1,0.9c0,0,1.3,0.1,1.4-0.2c0,0,1.2-0.2,1.2-0.2s1.8-0.1,2.8-0.3
		c0-0.1,2.5-0.3,4,0c0,0.1,0.7,0,0.7,0s0.8,0.3,1,0.1c0.1-0.1,0.5-0.1,0.3-0.5c0.1,0-0.3-0.4-0.4-0.5c0-0.1-0.4-1.1-0.8-1.4
		c0,0-0.3-0.7-0.9-0.5c0,0-0.3-0.1-0.7,0.2c0,0-0.5,0.5-0.9,0.3c0,0-0.3-0.1-0.3-0.1h-3.5c0,0-0.4,0.3-0.9-0.1c0,0-1.2-0.6-1-2
		c0,0,0.2-0.8,0.2-0.8s0,0.1,0.2-0.3c0,0,0.1-0.2,0.3-0.5c0,0.1-0.1-0.2,0.2-0.3c0,0,0.2,0,0.3-0.3c0,0,0.2-0.3,0.2-0.3
		s-0.1-0.2,0.1-0.3c0.1,0,0.5-0.5,0-1c0,0-0.4-0.4-0.4-0.4s0,0-0.5-0.4C38.3,56.8,37.3,56.2,36.6,55L36.6,55z"/>
	<path class="st0" d="M64.6,71.7L64,71.7c0,0-0.3-0.2-0.5,0.2c0,0-0.1,0.2-0.4,0.3c0-0.1-0.4,0.2-0.4,0.2s-0.3,0.2-0.5,0.4
		c0,0-0.3,0-0.3,0s-0.4,0.2-0.8,0.7c0,0,0.2,0.1-0.2,0.3c0,0-0.4,0.4,0.1,0.5c0,0,0.5,0,1.3,0.3c0,0,0.2,0,0.2,0s0.1,0,0.5,0.2
		c0,0,0.3,0.2,0.3,0.2l0.3,0.1l0.5,0.5c0,0,0.9,0.7,2,0.4c0,0,0.5-0.4,1-0.1c0,0,0.2-0.2,0.2-0.2s0.7-0.4,1-0.9l0.1-0.3l0.3-0.1
		c0,0,0-0.1,0.2-0.4c0,0,0.3,0,0.4-0.4c0,0,0.3-0.4-0.2-0.7c0,0-0.5-0.4-1-0.4c0,0-0.4,0.2-0.4,0.2l0.3,0.3c0.2,0,0.8,0.3,0.4,0.7
		c0,0-0.4,0.2-0.5,0.7c0,0.1,0,0,0,0l-0.3,0.2l0,0.3h-1.9c0,0-0.6,0-0.3-0.5c0,0,0.4-1-0.1-0.7c0,0-0.6,0.5-0.8,0.3
		c0,0-0.3-0.3-1-0.6c0,0-0.4,0,0-0.3c0,0,0.4-0.5,0.4-0.5l0.3-0.2l0.4-0.1c0,0,0.4,0.1,0.4-0.1C64.9,72.1,65,71.8,64.6,71.7
		L64.6,71.7z"/>
	<path class="st0" d="M67.5,72.4c0,0,0.3,0.3-0.1,0.5L67,72.9c0,0-0.8-0.2-0.2-0.6c0,0,0.3,0,0.3,0L67.5,72.4L67.5,72.4z"/>
	<path class="st0" d="M51.3,73.9c0,0,0.6,0,0.2,0.4c0,0-0.4,0.3-0.5,0C50.9,74.3,50.6,74.1,51.3,73.9L51.3,73.9z"/>
	<path class="st0" d="M66.2,64.7c0,0,1.2-0.5,0-0.7c0,0-0.3,0-0.9-0.2c0,0-0.8,0-1.2,0c0,0,0,0.1-0.6,0.1c0,0-0.9,0-1.4,0.6
		l-0.9,0.2l-0.7,0.3c0,0-0.2,0.1-0.8,0.6c0,0-0.6,0.6-1.3,0.9c0,0-0.6,0.3-0.6,0.3s-0.3,0,0,0.5c0,0,0.2,0.8,0.9,0.5
		c0,0,0.6-0.4,0.6-0.4s0.8-0.7,2.4-1.2c0,0,0.8-0.2,0.8-0.2s-0.1,0.2,0.4-0.1c0,0,0.9-0.4,0.9-0.4L66.2,64.7L66.2,64.7z"/>
	<path class="st0" d="M55.8,60.1c0,0-0.2,1.4-1.9,1.6c0,0-0.3,0.1,0,0.6c0,0.1,0.3,0.6,0.2,1c0,0-0.3,0.4,0.3,1c0,0,0.2,0.2,0.3,0.4
		c0,0,0.1,0.2,0.5,0.1c0,0,0-0.1,0.5-0.3c0,0,0.1-0.2,0.6-0.2c-0.1,0,0.2,0.2,0.6-0.7c0,0,0.4-0.9,1.2-1.4c0,0,0.1,0,0.7-0.2
		c0,0,1.1-0.4,1.6-1.4c0-0.1,0.9-1,0.2-1.2c0,0-0.4-0.1-1.3,0c0,0-1.9,0-1.9,0S56.2,59.1,55.8,60.1L55.8,60.1z"/>
	<path class="st0" d="M82.6,62.2c0,0,1.9-0.7,0.5,0.4c0,0-2.3,1.2-3.7,4.5c0,0-0.5,1.5-1.2,2.3c0,0-0.3,0.1-1,0c0,0-1.6-0.1-2.4-0.3
		c0,0-1.9-0.4-2.9-0.5c0,0-1.9,0-0.8-0.5c0,0,1.7-0.2,3.7-0.3c0,0,1.2,0,1.7-0.9C76.6,67,80,63,82.6,62.2L82.6,62.2z"/>
	<path class="st1" d="M37.3,57c0,0,1.7,0.9,1.4,1.3c0,0-0.1,0.1-0.3,0.7c0,0,0.1,0.2-0.2,0.5c0,0-0.2,0-0.3,0.5
		c-0.1,0-0.2,0.1-0.2,0.5c0,0-0.3,0-0.4,0.3c0,0-0.9,0.3-1-0.5c0,0,0.1-0.2,0-0.6c0,0-0.3,0.2,0-0.6c0,0,0.1-0.9,0.1-0.9l0.2-0.2
		l0.2-0.5C36.6,57.3,36.7,56.2,37.3,57L37.3,57z"/>
	<path class="st1" d="M35.5,62.4c0,0,0.2,0,0.8,0.2c0,0,0-0.3,0.6,0.2c0.1,0,0.4,0.3,0.4,0.3s0,0,0.2,0.3c0,0,0.2-0.1,0.2,0.4
		c0,0,0,0.4,0,0.4l-0.2,0.2l-0.2,0.4l-0.2,0c0,0-0.7,0.4-1.2,0l-0.3-0.2l-0.2-0.1c0,0,0-0.1-0.2-0.3c0,0-0.5-0.7,0-0.8
		c0,0,0.2-0.1,0.2-0.4c0.1,0.1,0.2-0.3-0.1-0.2C35.3,62.7,35.2,62.3,35.5,62.4L35.5,62.4z"/>
	<path class="st1" d="M56.5,60.5c0,0,0.1-0.5,1-0.3c0,0,0.4-0.1,0.9,0.1c0.1,0,0.6-0.1,0.6,0.4c0-0.1,0.2,0.5-0.5,0.5
		c0,0-0.1,0.3-0.8,0.3c0,0-0.2-0.2-0.3,0.2c0,0-0.2,0.3-0.2,0.3s0.1-0.2-0.4-0.4c0-0.1-0.5,0.1-0.3-0.5
		C56.3,61.1,56.2,60.7,56.5,60.5L56.5,60.5z"/>
	<path class="st1" d="M55.2,62.3c0,0,0.5-0.4,0.6,0c0,0,0.2,0,0.2,0s0,0.1,0,0.5c0,0,0.2,0.4,0.3,0.5c0,0,0.1,0.1-0.3,0.3
		c0,0-0.4,0.4-0.4,0.4s-0.1,0.2-0.5-0.2c0,0-0.3-0.1-0.3-0.5c0,0,0.2-0.1-0.1-0.4C54.8,62.9,54,62.7,55.2,62.3L55.2,62.3z"/>
	<path class="st1" d="M78.6,67.7L78.6,67.7c0,0-0.1-0.4-0.3-0.5c-0.1,0-0.2,0-0.4,0.2c0,0-0.5,0.5-1,0.7l0,0c0,0,0,0,0,0
		c-0.2,0.1-0.3,0.1-0.4,0.3c0,0.1,0.1,0.3,0.3,0.5c0,0,0.1,0,0.1,0c0.1,0,0.3,0.1,0.6,0.1c0,0,0,0,0.1,0c0.1,0,0.3,0,0.5-0.3
		C78.2,68.6,78.6,68.4,78.6,67.7L78.6,67.7z"/>
	<path class="st0" d="M27.7,29c0,0-1,0.3-0.3,1c0,0,0,0.1,0.7,0c0,0,2.8-0.4,4.3-0.2c-0.1,0,5.3,0.1,9.3,1c0.1,0.1,1.8,0.3,2.4,0.4
		c0.1,0,0.8-0.1,0.5-0.9c0,0-0.1-0.2-0.6-0.3c0,0-0.5,0.1-0.2-0.4c0,0.1,0.3-0.5-0.3-0.6c0-0.1-0.8-0.2-1.4,0c0,0-0.7,0.2,0-0.4
		c0,0,1.3-0.5,2.9-0.5c0,0,0.5,0.1,0.5-0.3c0,0.1,0.2-0.3,0.2-0.3s0,0,0.5-0.2c0,0,0.9-0.2,1.4-0.6c0,0,0.7-0.4,1.3-1.1
		c0,0,0.8-0.3,0.2-0.5c0,0-2.4-1.3-11.6,3c0,0-2,1-2.7,1c0,0-2.1-0.2-2.1-0.2s-1,0.1-0.2-0.5c0,0,1.4-1.1,2.4-1.6
		c0.1,0,1.1-0.5,0.6-0.9c0,0-0.1-0.1-0.8,0C34.7,26,30.6,27,27.7,29L27.7,29z"/>
	<path class="st0" d="M46.4,27.8c0,0,0.8-0.7,0.6,0.4c0,0-0.2,0.2-0.2,0.2s-0.1,1-0.7,1c0,0-1.1-0.2-0.7-1
		C45.5,28.4,45.9,28,46.4,27.8L46.4,27.8z"/>
	<path class="st0" d="M140.7,33c0,0-0.1-1.2-2.7,0.1c0.2-0.1-4.7,2.3-13.2,0.5c-0.2-0.1-4.2-0.8-8.4-1.9c0,0-2-0.1-2-0.1
		c-3.3,0.1-4.9,1.5-5.1,1.8c-2.2,1.8-2.1,6.7-2.1,6.7c0.2,2.1-2.2,1.5-2.2,1.5s-2.6-0.7-2.6-0.6c-4.6-0.9-10.2-5-10.2-5
		c-4.6-2.7-8.3-3.4-9.8-3.6c-3.2-0.2-7.7,0.8-7.7,0.8c-4.1,1-8.6,1.2-8.6,1.3C63.9,34.8,56,34.5,56,34.5c-2.9-0.2-6.6-1-6.6-1
		c-0.6,0.1-0.7-0.7-0.7-0.7l0-0.3c0,0-0.1-0.3-0.1-0.3c-0.1-0.4,0.7-0.7,0.7-0.7c0.1-0.3,0.4-0.2,0.3-0.2c0.9-0.3,2-0.6,2-0.5
		c0.5-0.2,0.6-0.3,0.6-0.4c0-0.4,0.3-0.7,0.2-0.6c0.3-0.8-0.4-0.5-0.5-0.5c-1.4,0-3.5,0.9-3.5,0.9c-0.5-0.1-0.7,0.2-0.7,0.3
		c-0.3,0.2-1,0.5-1,0.5l-0.3,0.2c0,0,0,0.4,0,0.4c-0.2,0.4,0.7,1,0.7,1c0.5,0.7-0.4,0.6-0.3,0.6c-0.6,0-0.4,0.2-0.4,0.2h-0.9
		c0,0-0.7-0.2-0.7-0.2C42,31.8,33.3,31,33.3,31c-0.8-0.1-3.5-0.1-3.5-0.2c-1,0-1.1,0.2-1.2,0.2c-0.8,0.2-1.5,0.1-1.5,0.1l-0.6,0.1
		c0,0-3.5,0-3.6,0c-0.4,0-0.3,0.2-0.3,0.2c-0.2,0.3-0.7,0.4-0.7,0.4L21.7,32c0,0,0,0.6,0,0.6c0.5,0.4,1.2,2.8,1.2,2.8
		c0.3,1.4,0,2.9,0,2.9c-0.2,0.6-1.5,1.5-1.5,1.5c-0.3,0-1.2,0.3-1.2,0.3c-0.5,0-0.4-0.2-0.5-0.2c-0.3-0.3-0.9-0.2-0.9-0.2
		c0-0.3-0.7-0.2-0.7-0.2s-0.7-0.4-0.8-0.4c-0.1-0.3-0.5-0.4-0.5-0.4c-0.4-0.2-0.4-0.4-0.4-0.4s-0.3-0.7-0.7-0.4c0,0-0.3,0.5-0.9-0.2
		c0-0.1-0.2-0.1-1.2-0.1c0,0,0.3,0.3-0.7,0c0,0-1.1-0.2-1.8,1.3c0,0,0.2,0.8-0.5,0.8c0,0-0.7,0-0.2,1c0,0,0.5,0.5,0.2,0.8
		c0,0-1.9,3.3-2.4,3.9c0,0.1-0.7,1.2-0.7,1.2s-0.5,0.5-0.6,0.9c0,0-0.1,0.3-0.3,0.6c0,0-1.5,1.7-1.3,2.1c0,0-0.7,0.3-0.5,0.7
		c0,0-1,0-1.7,0.5c0,0-1.2,0.5-0.3,1c0,0,0.5,0.4,0.5,0c0-0.1,0.2-0.4,0.6,0.5c0,0,0.1,0.4-0.1,0.5c0,0-0.2,0.2,0.1,0.7
		c0,0,0.2,0.3,0.1,0.8c0,0.1,0,0.5,0.6,0.7c0.2,0,0.3-0.2,0.9-0.1c0,0,0.6,0.2,0.9,0.1c0,0,0.6-0.8,0.8-0.2c0.1,0,0,0.2,0.5,0.1
		c0,0,1-0.2,1-0.2S9,55.3,9,53.9c0,0,0.3-0.8,0.4-1.2c0,0,0.2-0.2,0.2-0.4c0.1-0.1,0.2-0.3,1-1c0,0,1.3-1.4,2.4-2.5
		c0,0,1.9-1.4,3.5-2.3c0,0,2.7-1.2,3.2-1.8c0,0,0.8-0.2,1.7-1.4c0,0.1,2-1.8,2.2-3.8c0,0,0.3-1.2,0.4,0.2c0,0,0,0.3,0,1l0.2,0.2
		c0,0,5,2.8,7.1,4.3c0,0,3.6,2.2,3.9,2.9c0,0,0.5,1.1,0,2.8c0,0.1-0.1,0.4,0.3,0.9c0,0,0.1,0.4,0.1,0.4s0.7,1.7,2.5,3.5
		c0,0,0.2,0.3,1,0.8c0,0,0.7,0.4,0.7,0.4l0.7,0.2c0,0,0.3,0,0.9,0.5c0.1,0.1,3,2.3,4.1,4.4c0.1,0.1,0.2,0.2,0.2,0.2s0.1,0.7,0.6,0.9
		c0,0,0.7,0.3,0.7,0.3s0.3,0.7,1,1.2c0,0-0.1,0.9,0.5,1.6c0,0.1,0.8,1.1,1.5,1.6c0.1,0,0,0,0.5,0.5c0.1,0.1,0.2,0.4,1.2,0.4
		c0,0,0.8-0.2,1.6,0.7c0,0,0.3,0.3,0.3,0.3l0.7,0.4c0,0,0.2,0.2,0.5-0.1c0,0,0.2-0.4,0.6-0.5c0.1,0,0.5-0.1,0.2-0.5c0,0-0.9-1-0.9-1
		s0.4,0-0.1-0.3c0,0-0.5-0.1-0.8-0.7c0-0.1-0.1-0.3-1-0.1c0,0-0.5,0.1-1.4-0.7c-0.1,0,0.1-0.1-1.1-0.5c0,0-0.6-0.6-0.6-0.6
		s-0.2,0.2-0.4-0.6c0,0-1-2.1-1.6-3.1c0,0.1-2.9-4.1-4.7-5.6c-0.1-0.1-2.2-2.8-3.1-2.1c0.1,0-0.5,1.5-2-2.4c0.1,0,1.3,1.6,1.1,0.3
		c0.1-0.1-0.5-1.2,0.4-2.2c0.1,0,0.9-2,1.3-0.9c0.1,0.1,0.5,0.1,0.5,0.1l1.3-1.6c0,0-0.6-0.4-0.7-1.6c0,0,0.1-1-0.9-0.8
		c0-0.1-0.2,0.4-1.3-1c-0.1,0-2.6-2.3-6.2-4.1c-0.1,0.1-1.9-1.1-5.4-1.9c-0.2-0.2-2.4-1.2-2.4-1.2s-2.1-1,0.1,0.6
		c-0.2-0.1,4.6,3.3,8.5,5.5c0,0,1.9,1.6,1.9,1.6s0.6,0.4,0.7,0.5c0.9,0.9,1.5,0.9,1.4,0.9c0.7,0.2,0.8,0.7,0.8,0.6
		c0.3,0.7-0.1,0.8-0.2,0.9c-0.2,0.1-0.3,0.3-0.3,0.3s-0.3,0.2-0.3,0.2c-1,0.5-0.6,2.1-0.6,2.2c-0.2,1.1-0.8-1.4-0.9-1.3
		c-0.3-0.6-0.1-1.3-0.2-1.4c-0.1-0.8-0.3-1.3-0.4-1.2c-1.2-0.9-2.4-1.7-2.4-1.6c-0.3-0.4-5.8-3.7-5.8-3.6c-1-0.5-1.2-0.9-1.2-1
		c-0.4-0.5-0.7-0.6-0.7-0.6c-0.7-0.2-0.8-0.5-0.8-0.5c-0.1-0.4-0.8-0.9-0.8-0.9s-0.3-0.3-0.3-0.3c0-2-0.8-3.8-0.8-3.7
		c-0.3-0.6-0.1-0.7-0.1-0.8c0.2-0.5,0.7-0.5,0.7-0.5c0.6,0.1,1.1-0.2,1.1-0.2s0.5,0,0.5,0c0.7-0.1,1.2-0.2,1.2-0.2
		c1-0.4,2.1,0,2.2,0c0.8,0.3,1.7,0.3,1.7,0.3s1.7,0,1.8,0c2.6,0.2,7.3,1,7.2,1c3.1,0.2,5,1.9,5,1.9c0.7,0.6,1,0.5,1,0.5
		s0.8,0.1,0.9,0.1c2.4-0.2,2.8,0.6,2.9,0.7c0.1,0.6,0.5,0.7,0.5,0.7c0.5,0.3,1.4-0.3,1.4-0.4c0.9-0.6,2.5-0.2,2.5-0.2
		c1,0.1,4.9,0.3,4.8,0.3c4.2,0,7.2-0.3,7.3-0.3c1-0.2,4.2,0.3,4.2,0.3c1,0.3,1,0,1.1,0c0.1-0.2,0.6-0.1,0.6-0.1
		c0.1-0.3,0.8-0.4,0.7-0.4c3.8-3,7.2-3.5,7.2-3.5c1.9-0.5,3.6,0,3.6,0c4.3,0.9,8.3,3.6,8.4,3.6c7.1,5.3,12.2,6,12.2,6
		c3.9,0.8,4.1-1.6,4.2-1.6c0.3-3.5,1.5-5.8,2.2-6.8c1.3-2.1,4.4-1.7,4.4-1.7c0.4,0,0.8,0.1,1.1,0.1c0.1-0.1,5.8,1.7,11.5,2.4
		c0.1,0,6.7,1.2,11.1-0.3c-0.1,0.1,3.6-1.9,0.6,2.6c-0.1,0-2.9,3.6-8.1,3.5c0.1-0.1-5.1,0.4-11.2-1.7c0,0-1-0.5-2.2-0.5
		c-2.9-0.5-4,4.2-4.1,4.3c-1.2,2.2-3,1.8-3.1,1.8c-3.7-0.2-8.1-0.2-8.1-0.1c-2.6,0.2-2.6,0.9-2.6,0.9c-0.5,0.9-2.6,0.8-2.6,0.8
		c-3.5,0-4.6,5.4-4.6,5.4c-0.2,0.7-1,1.7-1.1,1.7c-0.4,0.6-0.9,1-0.9,1c-0.6,0.4-0.9,1-0.9,1l-0.4,0.3c0,0-0.5,0.3-0.6,0.3
		c-0.8,0.5-0.3-0.2-0.3-0.2c0.3-0.6,0.2-1,0.2-1c-0.6-0.7-1.2,0.7-1.2,0.6c-0.3,0.4-0.9,0.7-0.9,0.8c-1.1,0.5-1.9,1.4-1.9,1.4
		S83,58,83,58c-1.6,1-2.3,1.2-2.4,1.2c-1.5,0.9-1.2,1.7-1.2,1.7c0,0.4-0.4,0.6-0.4,0.7C78.9,62,77,64.1,77,64.1
		c-0.4,0.3-0.7,0.7-0.7,0.6c-0.2,0.7-1.6,0.7-1.6,0.7c-0.5,0-1.1,0-1.1,0.1c-1.2,0.1-1.9-0.1-1.9-0.1C70.3,65,71,64.3,71,64.2
		c0.6-0.8,2.5-3,2.5-3c0.9-0.9,2-1.9,2-1.9c0.6-0.6,0.3-1.7,0.3-1.6c-0.2-0.8-0.2-1.6-0.2-1.6c-0.2-2.9,0.7-5.7,0.7-5.7s0-0.1,0,0
		c0.5-2.1,0.9-2.7,0.9-2.6c0.4-1.9-2,0.3-2,0.2c-0.7,0.7-1.3,0.2-1.3,0.3c-0.7-0.5-2.3-0.5-2.4-0.5c-1.5-0.1-3,1.8-3.1,1.8
		c-0.4,0.7-0.9,0.7-1,0.8c-0.8,0.2-0.8,0.5-0.8,0.5c-0.3,0.3-0.9,0.4-1,0.4c-1.1-0.1-2,0.3-2,0.3c-0.6,0-0.9,0.2-1,0.2
		c-1.5,0.5-4.7,0.5-4.7,0.5c-0.8,0-0.8,0.1-0.8,0.2c-0.9,0.3-2.9-0.3-2.9-0.3C53.7,52,53,51.6,53,51.6c-0.4-0.3-1-0.3-1-0.3
		c-1.5,0.1-0.9,1.6-0.9,1.6c0.2,0.7-0.7,1.2-0.7,1.2c-1.2,0.8-1,1.4-1,1.4c0,1-0.1,0.8-0.2,0.9c-0.3,0.4,0,0.7,0.1,0.6
		c0.1,0.3,0.2,0.5,0.2,0.5c0,0.4,0.5,0.9,0.6,0.9c0.2,0.3,0.2,0.4,0.2,0.4c0.2,0.3,0.4,0.9,0.4,0.9s0.2,0.7,0.3,0.7
		c0.5,0.6,0.3,0.8,0.3,0.8s0.6,1.6,0.6,2.9c0,0-0.1,0.3,0.3,0.8c0,0,0.4,0.4,0.4,0.4s0.5,0.1,1.1,0.6c0,0,0.2,0,0.4,0.3
		c0.1,0,0.7,0.5,0.7,0.5s0.1,0.2,0.5,0.3c0,0,1.2,0.3,0.3-0.3c0,0-0.8-1.1-1.9-1.7c-0.1,0-0.2-0.6-0.2-0.6s0-1.8-0.8-2.8
		c0-0.1-0.7-1.7-1-3c0,0,0.1-0.5-0.4-0.7c0,0-0.8-0.2-0.5-0.8c0,0-0.2-0.2,0.1-0.5c0.1,0,0.2-0.5,0.2-1c0,0-0.1-0.5,0.2-0.5
		c0,0.1,0.2,0.3,0.1-0.5c0,0-0.3-0.3,0.2-0.3c0.1,0,0.3,0,0.4-0.1c0.1,0,0.6,0.1,0.6,0.1s0.3,0,0.2,0.5c0,0.1-0.3,0.4,0,0.7
		c0,0,0.1,0.2,0.4,0.1c0,0,0.5-0.4,1-0.7c0,0,1.2-0.5,2,0c0,0-0.3,0.2,0.8,0.1c0,0,1.5,0,2.5-0.4c0,0,3.8-0.9,5.1-1.4
		c0,0,0.4-0.2,1.1-0.1c0,0,0.4-0.1,0.4-0.1s0.3-0.3,1.4-0.3c0.1,0,0.4-0.1,0.4-0.1l0.3,0l0.4-0.2c0,0,0.5-0.2,1-0.2
		c0,0,0.2,0,0.5-0.2c0.1,0,0-0.1,0.3-0.2c0,0,0.3,0.1,0.3-0.4c0-0.1-0.4-1.2,0.5-1.6c0,0,0.4-0.2,0.4-0.2l0.3,0c0,0,1.7,0.1,1.6,0.4
		c0,0,0.2,0.2,0,0.8l0.1,0.5c0,0,0.3,1.3-0.1,2.2c0,0,0,0.5-0.3,1c0,0.1,0,0.4,0,0.4l0,0.3c0,0,0.2,0.1,0.1,0.7l-0.1,0.4
		c0,0-0.1,0.9-0.5,1.5c0,0-0.2,0.5-0.2,1.1l-0.1,0.3l-1,1.4L71.4,61l-0.4,0.4l-0.1,0.3c0,0-0.6,0.2-0.6,0.8c0,0,0,0.2-0.5,0.3
		c0,0-1,0.4-1.9,1.2c0,0-0.6,0.9-1.4,1.2c0,0-0.6,0.3-0.6,0.3s-1.6,0.7-2.8,1.2c0,0-0.5,0.4-1.1,0.7c0,0-0.2,0-0.8,0.4
		c-0.1,0-0.5,0.2-0.7,0.5l-0.6,0.2l-0.5,0.3L58.8,69c0,0-0.7,0.5-1.2,0.9c0,0-2.1,0.6-3.9,2.3c0,0.1-1,1.1-1.7,1.5
		c0,0-0.9,0.4-0.1,0.7c0,0,0.1-0.2,0.3,0.1c0,0,0.1,0.2,0.3,0.1c0,0,0.8,0,0.1,0.3c0,0-0.2,0-0.5,0.5c0,0-0.2,0.4-1.1,0.2
		c0,0-0.2-0.2-0.9-0.1c0,0-1.4,0-1.4,0s-0.4,0.1-0.2-0.3c0,0,0-0.5,0.7-0.6c0,0,0.8,0,0.9-0.2c0,0,0.3-0.4-0.5-0.3c0,0-0.6,0-1,0.2
		c0,0-0.1,0.1-0.3,0.3c-0.1,0-0.6,0.7-0.6,0.7l-0.2,0.2l-0.2,0.1c0,0-0.6,0.9-0.1,0.9c0.1,0,1.4,0,1.4,0s1.6-0.4,2.1-0.1
		c0.1,0,0.5,0,0.9,0.1c0,0,0.2,0,0.7-0.2c0,0,0.9-0.5,2.1-0.7c0,0,2.1-0.1,2.1-0.1s0.3,0,0.6-0.4c0,0,1.5-1.4,2.9-1.7
		c0,0,0.4,0,1-0.7l0.1-0.3l0.8-0.5c0,0,0,0.3,0.5-0.2c0,0,0.7-0.6,0.7-0.6s0.6-0.7,1.4-1c0,0,2-0.7,3.1-1.7l0.4-0.2l3.2-0.7
		c0,0,1.5-0.2,2-0.3c0,0,1,0,1,0l0.3,0l0.4-0.2l0.9-0.1l0.2-0.2c0,0,2.8-3.1,6.4-5.1c0,0,0.2,0,0.7-0.3c0,0,5-2,6.9-2.9
		c0,0,3.6-1.7,5.9-5.7c0.1,0,3.3-6.4,5.5-6.8c0.2,0,2.4-0.7,7.3-0.4c-0.1,0,3.8,0.2,5-2.8c0,0.1,1.4-3.5,4.2-2.9
		c0.2,0.1,8.2,2.3,12.2,2.2c0.2,0.1,6.6,0.1,10.1-4.7C139.9,37.2,141.3,35.1,140.7,33L140.7,33z"/>
	<path class="st1" d="M5.5,50.9c0,0,1-0.4,0.5,0.3c0,0,0,0,0,0s-0.5,1-0.5,0.3C5.4,51.5,5.2,51.1,5.5,50.9L5.5,50.9z"/>
	<path class="st1" d="M15.7,41.8c0.3-0.5,0.1-1.2,0.1-1.2l-0.1-0.3c0,0-0.3-0.2-0.3-0.2c-0.4-0.4-0.7,0-0.7,0s0,0,0,0
		c-0.6,0.5-1.4,0.5-1.4,0.5l-0.4,0.2c0,0-0.2,0.4-0.2,0.5c-0.2,0.3-0.6,0.7-0.6,0.7s-0.2,0.5-0.2,0.5c-0.2,0.2-0.5,0.7-0.5,0.7
		l-0.2,0.3c0,0-0.1,0.3-0.2,0.3c-0.3,0.2-0.5,0.8-0.5,0.8s0.1,0.2-0.8,1C9.6,45.4,9,46,9,46l-0.4,0.5L8.2,47l-0.4,0.6
		c0,0-0.9,1.1-1,1.4c0,0-0.2,0.2-0.2,0.2l-0.3,0.4L6,50.1l-0.3,0.3c0,0,0.2,0.1,0.8-0.2c0,0,0.2-0.1,0.2-0.1s0.4-0.4,0.5-1
		c0,0,0.3-0.3,0.3-0.3l0.3-0.2c0,0,1.9-1.9,2.2-2.4c0,0,0.3-0.2,0.3-0.5c0,0-0.2-0.5,0.3-0.6c0,0,1.7-0.8,1.7-0.8
		C14.9,43.9,15.7,41.8,15.7,41.8L15.7,41.8z"/>
	<path class="st1" d="M20.8,41.4c0,0-1.2,0.8-1.8,1.8c0,0-1,1.2,0.2,0.7c0,0,0.1-0.1,0.6-0.2c0,0,0.2,0.1,0.7-0.6c0,0,0.6-1,0.6-1
		S22.3,40.6,20.8,41.4L20.8,41.4z"/>
	<path class="st1" d="M12.7,45.2c0,0,1.7,0.1,0.1,0.8c0-0.1-0.3,0.1-0.6,0.3c0,0-0.4,0.3-0.4,0.3S11.6,46.4,11,47
		c0,0-1.2,1.4-1.9,1.4c0,0-0.9,0.2,0-0.4c0,0,1.8-1.2,2-2.2C11.1,45.9,12.1,45.1,12.7,45.2L12.7,45.2z"/>
	<path class="st1" d="M67,66.9c0,0,0.3,0.2-0.9,0.7c0,0-0.2-0.2-0.5,0.2c-0.1,0-0.1-0.2-0.6,0.3c0,0-0.5,0.7-1.3,0.8
		c0,0-1.2,0.2-1.7,0.7c0,0-0.5,0.5-1.2,1.1c0,0-1,0.6-1.6,0.6c0,0-0.1,0.3-0.5,0.5c0,0,0.2,0.2-0.4,0.5c0,0-1,1.3-3.8,1l-0.3,0.1
		l-0.1-0.5c0,0-0.1-0.1,0.5-0.4c0,0,0.4-0.5,0.9-0.7c0,0,1-0.7,1-0.7s0.1-0.1,0.6-0.2c0.1,0,0.5-0.2,1-0.5c0,0-0.2-0.2,0.9-0.5
		c0,0,0.3-0.2,0.3-0.2s1.8-1,2.1-1.3c0,0,0.3-0.1,0.3-0.1l0.3-0.3c0,0,0.3,0,0.8-0.4c0,0,0.1-0.2,0.5-0.3c0,0,1.7-0.6,1.7-0.6
		s0-0.2,0.4-0.2C65.5,66.4,67.1,66.1,67,66.9L67,66.9z"/>
	<path class="st1" d="M67.9,66.1c0,0,0.8-0.1,0.6,0.5c0,0-0.2,0.1-0.2,0.1S67.4,67,67.9,66.1L67.9,66.1z"/>
</g>
</svg>
