<?xml version="1.0" encoding="utf-8"?>
<!-- Generator: Adobe Illustrator 24.0.2, SVG Export Plug-In . SVG Version: 6.00 Build 0)  -->
<svg version="1.1" id="Layer_1" xmlns="http://www.w3.org/2000/svg" xmlns:xlink="http://www.w3.org/1999/xlink" x="0px" y="0px"
	 viewBox="0 0 144 101" style="enable-background:new 0 0 144 101;" xml:space="preserve">
<style type="text/css">
	.st0{fill:#FFFFFF;}
	.st1{fill:#131313;}
	.st2{fill:#181819;}
	.st3{fill:#222122;}
	.st4{fill:#282728;}
	.st5{fill:#2B2A2B;}
	.st6{fill:#2C2B2C;}
	.st7{fill:#2B2A2A;}
	.st8{fill:#2A2929;}
	.st9{fill:#272827;}
	.st10{fill:#242625;}
	.st11{fill:#242624;}
	.st12{fill:#212422;}
	.st13{fill:#202522;}
	.st14{fill:#222524;}
	.st15{fill:#232724;}
	.st16{fill:#232725;}
	.st17{fill:#242825;}
	.st18{fill:#252926;}
	.st19{fill:#282B28;}
	.st20{fill:#2A2C28;}
	.st21{fill:#2B2D29;}
	.st22{fill:#2C2E2A;}
	.st23{fill:#2D2E2A;}
	.st24{fill:#2E2F2B;}
	.st25{fill:#2F312B;}
	.st26{fill:#30302D;}
	.st27{fill:#32322D;}
	.st28{fill:#33332E;}
	.st29{fill:#343230;}
	.st30{fill:#35352F;}
	.st31{fill:#363631;}
	.st32{fill:#373731;}
	.st33{fill:#393732;}
	.st34{fill:#3A3934;}
	.st35{fill:#3B3A34;}
	.st36{fill:#3C3935;}
	.st37{fill:#3D3B35;}
	.st38{fill:#3E3C36;}
	.st39{fill:#403C37;}
	.st40{fill:#423D38;}
	.st41{fill:#433E39;}
	.st42{fill:#433F38;}
	.st43{fill:#443F3A;}
	.st44{fill:#46403A;}
	.st45{fill:#47423B;}
	.st46{fill:#48433C;}
	.st47{fill:#49433C;}
	.st48{fill:#4A443E;}
	.st49{fill:#4D453F;}
	.st50{fill:#4E473F;}
	.st51{fill:#4E463F;}
	.st52{fill:#4F473F;}
	.st53{fill:#514840;}
	.st54{fill:#524940;}
	.st55{fill:#524841;}
	.st56{fill:#534A41;}
	.st57{fill:#564A42;}
	.st58{fill:#584A42;}
	.st59{fill:#594B43;}
	.st60{fill:#5A4C43;}
	.st61{fill:#5B4E44;}
	.st62{fill:#5B4D44;}
	.st63{fill:#5D4F44;}
	.st64{fill:#5E4E44;}
	.st65{fill:#5E4F45;}
	.st66{fill:#5F4F45;}
	.st67{fill:#615145;}
	.st68{fill:#625045;}
	.st69{fill:#635246;}
	.st70{fill:#635146;}
	.st71{fill:#655347;}
	.st72{fill:#665248;}
	.st73{fill:#685448;}
	.st74{fill:#695447;}
	.st75{fill:#6A5447;}
	.st76{fill:#6C5548;}
	.st77{fill:#6D5548;}
	.st78{fill:#705649;}
	.st79{fill:#705648;}
	.st80{fill:#715749;}
	.st81{fill:#735649;}
	.st82{fill:#74584A;}
	.st83{fill:#745749;}
	.st84{fill:#765749;}
	.st85{fill:#775A4A;}
	.st86{fill:#785849;}
	.st87{fill:#78594A;}
	.st88{fill:#7B5A4B;}
	.st89{fill:#7D5A4B;}
	.st90{fill:#7D5A4A;}
	.st91{fill:#805C4B;}
	.st92{fill:#815B4A;}
	.st93{fill:#825C4B;}
	.st94{fill:#845D4B;}
	.st95{fill:#855C4A;}
	.st96{fill:#865D4A;}
	.st97{fill:#865C4A;}
	.st98{fill:#895D4B;}
	.st99{fill:#895E4A;}
	.st100{fill:#895D4A;}
	.st101{fill:#8A5E4A;}
	.st102{fill:#8C5F4A;}
	.st103{fill:#8C5D48;}
	.st104{fill:#8D5E49;}
	.st105{fill:#8F5E49;}
	.st106{fill:#8F5D48;}
	.st107{fill:#905E49;}
	.st108{fill:#935F4A;}
	.st109{fill:#935D49;}
	.st110{fill:#945E47;}
	.st111{fill:#955E47;}
	.st112{fill:#975E47;}
	.st113{fill:#985F48;}
	.st114{fill:#985F47;}
	.st115{fill:#9A5E47;}
	.st116{fill:#9B5E47;}
	.st117{fill:#9C5D47;}
	.st118{fill:#9C5D46;}
	.st119{fill:#9E5E46;}
	.st120{fill:#9E5D46;}
	.st121{fill:#9F5D45;}
	.st122{fill:#A15E45;}
	.st123{fill:#A05C45;}
	.st124{fill:#A35D44;}
	.st125{fill:#A55C43;}
	.st126{fill:#A65C43;}
	.st127{fill:#A85B43;}
	.st128{fill:#A95C41;}
	.st129{fill:#A95A40;}
	.st130{fill:#AA5A40;}
	.st131{fill:#AC5B41;}
	.st132{fill:#AD5A40;}
	.st133{fill:#AF5A3F;}
	.st134{fill:#AE583F;}
	.st135{fill:#AE583E;}
	.st136{fill:#B15A3E;}
	.st137{fill:#B1573E;}
	.st138{fill:#B1573C;}
	.st139{fill:#B3583D;}
	.st140{fill:#B4563C;}
	.st141{fill:#B4563B;}
	.st142{fill:#B5553B;}
	.st143{fill:#B7553B;}
	.st144{fill:#B8563C;}
	.st145{fill:#B8543A;}
	.st146{fill:#BA543A;}
	.st147{fill:#B95239;}
	.st148{fill:#BB533A;}
	.st149{fill:#BB5339;}
	.st150{fill:#BB5138;}
	.st151{fill:#BE5139;}
	.st152{fill:#BE5137;}
	.st153{fill:#BD4F37;}
	.st154{fill:#BF5037;}
	.st155{fill:#BF4E37;}
	.st156{fill:#C04E36;}
	.st157{fill:#C24C35;}
	.st158{fill:#C24C34;}
	.st159{fill:#C34C35;}
	.st160{fill:#C34A34;}
	.st161{fill:#C54A34;}
	.st162{fill:#C54A33;}
	.st163{fill:#C44833;}
	.st164{fill:#C64832;}
	.st165{fill:#C74631;}
	.st166{fill:#C94631;}
	.st167{fill:#C94630;}
	.st168{fill:#C84430;}
	.st169{fill:#CA442E;}
	.st170{fill:#CB422E;}
	.st171{fill:#CD422E;}
	.st172{fill:#CD422D;}
	.st173{fill:#CD3F2D;}
	.st174{fill:#CE3F2B;}
	.st175{fill:#D0402C;}
	.st176{fill:#D0402A;}
	.st177{fill:#D13D2A;}
	.st178{fill:#D23A29;}
	.st179{fill:#D23A27;}
	.st180{fill:#D33827;}
	.st181{fill:#D53826;}
	.st182{fill:#D43526;}
	.st183{fill:#D63526;}
	.st184{fill:#D73526;}
	.st185{fill:#D73224;}
	.st186{fill:#D93224;}
	.st187{fill:#DA2F24;}
	.st188{fill:#DB2B24;}
	.st189{fill:#DD2B24;}
	.st190{fill:#DE2B24;}
	.st191{fill:#DE2725;}
	.st192{fill:#DF2625;}
	.st193{fill:#DF2225;}
	.st194{fill:#E12124;}
	.st195{fill:#E12126;}
	.st196{fill:#E01C25;}
	.st197{fill:#E21C25;}
</style>
<g id="Layer_1_1_">
</g>
<g>
	<path class="st0" d="M140.4,44.7c1.5-2.6-1-3.3-4.4-3.4C138.9,41.5,140.8,42.9,140.4,44.7"/>
	<path d="M113.2,49.2c19.2-12.2,45.1-12.6,14.9,7.2C138,43.7,119,46.8,113.2,49.2"/>
	<path class="st1" d="M128.1,56.3c9.9-12.6-9.1-9.5-14.9-7.2C132.4,37,158.3,36.6,128.1,56.3"/>
	<path class="st2" d="M128.1,56.3c9.9-12.6-9.1-9.5-14.8-7.2C132.4,37,158.2,36.6,128.1,56.3"/>
	<path class="st3" d="M128.1,56.3c9.9-12.6-9.1-9.5-14.8-7.2C132.4,37,158.2,36.6,128.1,56.3"/>
	<path class="st4" d="M128.1,56.3c9.8-12.6-9.1-9.5-14.8-7.2C132.4,37,158.1,36.6,128.1,56.3"/>
	<path class="st5" d="M128.1,56.3c9.8-12.6-9.1-9.5-14.8-7.2C132.4,37,158.1,36.6,128.1,56.3"/>
	<path class="st6" d="M128.1,56.3c9.8-12.6-9.1-9.5-14.8-7.2C132.4,37,158,36.7,128.1,56.3"/>
	<path class="st7" d="M128.1,56.3c9.8-12.6-9.1-9.5-14.8-7.1C132.4,37,158,36.7,128.1,56.3"/>
	<path class="st7" d="M128.2,56.3c9.8-12.6-9.2-9.5-14.8-7.2C132.4,37,157.9,36.7,128.2,56.3"/>
	<path class="st8" d="M128.2,56.3c9.8-12.6-9.2-9.5-14.8-7.2C132.4,37.1,157.8,36.7,128.2,56.3"/>
	<path class="st9" d="M128.2,56.3c9.8-12.6-9.2-9.5-14.8-7.1C132.4,37.1,157.8,36.7,128.2,56.3"/>
	<path class="st10" d="M128.2,56.3c9.8-12.6-9.2-9.5-14.8-7.1C132.3,37.1,157.7,36.8,128.2,56.3"/>
	<path class="st11" d="M128.2,56.2c9.8-12.6-9.2-9.4-14.8-7.1C132.3,37.1,157.7,36.8,128.2,56.2"/>
	<path class="st12" d="M128.2,56.2c9.8-12.6-9.2-9.4-14.8-7.1C132.3,37.1,157.6,36.8,128.2,56.2"/>
	<path class="st13" d="M128.2,56.2c9.8-12.6-9.2-9.4-14.8-7.1C132.3,37.1,157.6,36.8,128.2,56.2"/>
	<path class="st14" d="M128.2,56.2c9.8-12.6-9.2-9.4-14.8-7.1C132.3,37.1,157.5,36.9,128.2,56.2"/>
	<path class="st15" d="M128.2,56.2c9.7-12.5-9.2-9.4-14.8-7.1C132.3,37.1,157.5,36.9,128.2,56.2"/>
	<path class="st16" d="M128.2,56.2c9.7-12.5-9.2-9.4-14.8-7.1C132.3,37.2,157.4,36.9,128.2,56.2"/>
	<path class="st17" d="M128.2,56.2c9.7-12.5-9.2-9.4-14.8-7.1C132.3,37.2,157.4,36.9,128.2,56.2"/>
	<path class="st18" d="M128.2,56.2c9.7-12.5-9.2-9.4-14.8-7.1C132.3,37.2,157.3,36.9,128.2,56.2"/>
	<path class="st18" d="M128.2,56.2c9.7-12.5-9.3-9.4-14.8-7.1C132.3,37.2,157.3,37,128.2,56.2"/>
	<path class="st19" d="M128.2,56.2c9.7-12.5-9.3-9.4-14.8-7.1C132.3,37.2,157.2,37,128.2,56.2"/>
	<path class="st20" d="M128.3,56.2c9.7-12.5-9.3-9.4-14.8-7.1C132.2,37.2,157.2,37,128.3,56.2"/>
	<path class="st21" d="M128.3,56.2c9.7-12.5-9.3-9.4-14.8-7.1C132.2,37.2,157.1,37,128.3,56.2"/>
	<path class="st21" d="M128.3,56.2c9.7-12.5-9.3-9.4-14.8-7.1C132.2,37.2,157.1,37,128.3,56.2"/>
	<path class="st22" d="M128.3,56.2c9.7-12.5-9.3-9.4-14.8-7.1C132.2,37.3,157,37.1,128.3,56.2"/>
	<path class="st23" d="M128.3,56.2c9.7-12.5-9.3-9.4-14.8-7.1C132.2,37.3,157,37.1,128.3,56.2"/>
	<path class="st24" d="M128.3,56.1c9.7-12.5-9.3-9.4-14.8-7.1C132.2,37.3,156.9,37.1,128.3,56.1"/>
	<path class="st25" d="M128.3,56.1c9.6-12.5-9.3-9.4-14.8-7.1C132.2,37.3,156.9,37.1,128.3,56.1"/>
	<path class="st26" d="M128.3,56.1c9.6-12.5-9.3-9.3-14.8-7.1C132.2,37.3,156.8,37.1,128.3,56.1"/>
	<path class="st27" d="M128.3,56.1c9.6-12.5-9.3-9.3-14.8-7.1C132.2,37.3,156.8,37.2,128.3,56.1"/>
	<path class="st28" d="M128.3,56.1c9.6-12.5-9.3-9.3-14.7-7.1C132.2,37.3,156.7,37.2,128.3,56.1"/>
	<path class="st29" d="M128.3,56.1c9.6-12.5-9.4-9.3-14.7-7.1C132.2,37.3,156.7,37.2,128.3,56.1"/>
	<path class="st30" d="M128.3,56.1c9.6-12.5-9.4-9.3-14.7-7.1C132.1,37.4,156.6,37.2,128.3,56.1"/>
	<path class="st31" d="M128.3,56.1c9.6-12.5-9.4-9.3-14.7-7.1C132.1,37.4,156.6,37.3,128.3,56.1"/>
	<path class="st32" d="M128.3,56.1c9.6-12.5-9.4-9.3-14.7-7.1C132.1,37.4,156.5,37.3,128.3,56.1"/>
	<path class="st33" d="M128.3,56.1c9.6-12.5-9.4-9.3-14.7-7.1C132.1,37.4,156.5,37.3,128.3,56.1"/>
	<path class="st34" d="M128.3,56.1c9.6-12.5-9.4-9.3-14.7-7.1C132.1,37.4,156.4,37.3,128.3,56.1"/>
	<path class="st35" d="M128.4,56.1c9.6-12.5-9.4-9.3-14.7-7.1C132.1,37.4,156.4,37.3,128.4,56.1"/>
	<path class="st36" d="M128.4,56.1c9.6-12.5-9.4-9.3-14.7-7.1C132.1,37.4,156.3,37.4,128.4,56.1"/>
	<path class="st37" d="M128.4,56.1c9.5-12.5-9.4-9.3-14.7-7.1C132.1,37.4,156.3,37.4,128.4,56.1"/>
	<path class="st38" d="M128.4,56c9.5-12.5-9.4-9.3-14.7-7.1C132.1,37.5,156.2,37.4,128.4,56"/>
	<path class="st39" d="M128.4,56c9.5-12.5-9.4-9.3-14.7-7.1C132.1,37.5,156.1,37.4,128.4,56"/>
	<path class="st40" d="M128.4,56c9.5-12.5-9.5-9.3-14.7-7.1C132.1,37.5,156.1,37.4,128.4,56"/>
	<path class="st41" d="M128.4,56c9.5-12.5-9.5-9.3-14.7-7.1C132.1,37.5,156,37.5,128.4,56"/>
	<path class="st42" d="M128.4,56c9.5-12.5-9.5-9.2-14.7-7.1C132,37.5,156,37.5,128.4,56"/>
	<path class="st43" d="M128.4,56c9.5-12.5-9.5-9.2-14.7-7.1C132,37.5,155.9,37.5,128.4,56"/>
	<path class="st44" d="M128.4,56c9.5-12.5-9.5-9.2-14.7-7.1C132,37.5,155.9,37.5,128.4,56"/>
	<path class="st45" d="M128.4,56c9.5-12.5-9.5-9.2-14.7-7.1C132,37.5,155.8,37.6,128.4,56"/>
	<path class="st46" d="M128.4,56c9.5-12.4-9.5-9.2-14.7-7C132,37.6,155.8,37.6,128.4,56"/>
	<path class="st47" d="M128.4,56c9.5-12.4-9.5-9.2-14.7-7C132,37.6,155.7,37.6,128.4,56"/>
	<path class="st48" d="M128.4,56c9.5-12.4-9.5-9.2-14.7-7C132,37.6,155.7,37.6,128.4,56"/>
	<path class="st48" d="M128.4,56c9.5-12.4-9.5-9.2-14.7-7C132,37.6,155.6,37.6,128.4,56"/>
	<path class="st49" d="M128.5,56c9.4-12.4-9.5-9.2-14.7-7C132,37.6,155.6,37.7,128.5,56"/>
	<path class="st50" d="M128.5,56c9.4-12.4-9.5-9.2-14.7-7C132,37.6,155.5,37.7,128.5,56"/>
	<path class="st51" d="M128.5,56c9.4-12.4-9.6-9.2-14.7-7C132,37.6,155.5,37.7,128.5,56"/>
	<path class="st52" d="M128.5,55.9c9.4-12.4-9.6-9.2-14.7-7C131.9,37.6,155.4,37.7,128.5,55.9"/>
	<path class="st53" d="M128.5,55.9c9.4-12.4-9.6-9.2-14.7-7C131.9,37.7,155.4,37.7,128.5,55.9"/>
	<path class="st54" d="M128.5,55.9c9.4-12.4-9.6-9.2-14.7-7C131.9,37.7,155.3,37.8,128.5,55.9"/>
	<path class="st55" d="M128.5,55.9c9.4-12.4-9.6-9.2-14.7-7C131.9,37.7,155.3,37.8,128.5,55.9"/>
	<path class="st56" d="M128.5,55.9c9.4-12.4-9.6-9.2-14.6-7C131.9,37.7,155.2,37.8,128.5,55.9"/>
	<path class="st57" d="M128.5,55.9c9.4-12.4-9.6-9.1-14.6-7C131.9,37.7,155.2,37.8,128.5,55.9"/>
	<path class="st57" d="M128.5,55.9c9.4-12.4-9.6-9.1-14.6-7C131.9,37.7,155.1,37.8,128.5,55.9"/>
	<path class="st58" d="M128.5,55.9c9.4-12.4-9.6-9.1-14.6-7C131.9,37.7,155.1,37.9,128.5,55.9"/>
	<path class="st59" d="M128.5,55.9c9.4-12.4-9.6-9.1-14.6-7C131.9,37.8,155,37.9,128.5,55.9"/>
	<path class="st60" d="M128.5,55.9c9.3-12.4-9.6-9.1-14.6-7C131.9,37.8,155,37.9,128.5,55.9"/>
	<path class="st61" d="M128.5,55.9c9.3-12.4-9.7-9.1-14.6-7C131.9,37.8,154.9,37.9,128.5,55.9"/>
	<path class="st62" d="M128.5,55.9c9.3-12.4-9.7-9.1-14.6-7C131.9,37.8,154.9,38,128.5,55.9"/>
	<path class="st63" d="M128.6,55.9c9.3-12.4-9.7-9.1-14.6-7C131.8,37.8,154.8,38,128.6,55.9"/>
	<path class="st64" d="M128.6,55.9c9.3-12.4-9.7-9.1-14.6-7C131.8,37.8,154.8,38,128.6,55.9"/>
	<path class="st65" d="M128.6,55.9c9.3-12.4-9.7-9.1-14.6-7C131.8,37.8,154.7,38,128.6,55.9"/>
	<path class="st66" d="M128.6,55.8c9.3-12.4-9.7-9.1-14.6-7C131.8,37.8,154.7,38,128.6,55.8"/>
	<path class="st67" d="M128.6,55.8c9.3-12.4-9.7-9.1-14.6-7C131.8,37.9,154.6,38.1,128.6,55.8"/>
	<path class="st68" d="M128.6,55.8c9.3-12.4-9.7-9.1-14.6-7C131.8,37.9,154.5,38.1,128.6,55.8"/>
	<path class="st69" d="M128.6,55.8c9.3-12.4-9.7-9.1-14.6-7C131.8,37.9,154.5,38.1,128.6,55.8"/>
	<path class="st70" d="M128.6,55.8c9.3-12.4-9.7-9.1-14.6-7C131.8,37.9,154.4,38.1,128.6,55.8"/>
	<path class="st71" d="M128.6,55.8c9.3-12.4-9.7-9.1-14.6-7C131.8,37.9,154.4,38.1,128.6,55.8"/>
	<path class="st72" d="M128.6,55.8c9.3-12.4-9.7-9.1-14.6-7C131.8,37.9,154.3,38.2,128.6,55.8"/>
	<path class="st72" d="M128.6,55.8c9.2-12.4-9.8-9-14.6-7C131.8,37.9,154.3,38.2,128.6,55.8"/>
	<path class="st73" d="M128.6,55.8c9.2-12.4-9.8-9-14.6-7C131.7,37.9,154.2,38.2,128.6,55.8"/>
	<path class="st74" d="M128.6,55.8c9.2-12.4-9.8-9-14.6-7C131.7,37.9,154.2,38.2,128.6,55.8"/>
	<path class="st75" d="M128.6,55.8c9.2-12.4-9.8-9-14.6-7C131.7,38,154.1,38.2,128.6,55.8"/>
	<path class="st75" d="M128.7,55.8c9.2-12.3-9.8-9-14.6-7C131.7,38,154.1,38.3,128.7,55.8"/>
	<path class="st76" d="M128.7,55.8c9.2-12.3-9.8-9-14.6-7C131.7,38,154,38.3,128.7,55.8"/>
	<path class="st77" d="M128.7,55.8c9.2-12.3-9.8-9-14.6-7C131.7,38,154,38.3,128.7,55.8"/>
	<path class="st77" d="M128.7,55.8c9.2-12.3-9.8-9-14.6-7C131.7,38,153.9,38.3,128.7,55.8"/>
	<path class="st78" d="M128.7,55.7c9.2-12.3-9.8-9-14.6-7C131.7,38,153.9,38.4,128.7,55.7"/>
	<path class="st78" d="M128.7,55.7c9.2-12.3-9.8-9-14.6-7C131.7,38,153.8,38.4,128.7,55.7"/>
	<path class="st79" d="M128.7,55.7c9.2-12.3-9.8-9-14.6-7C131.7,38.1,153.8,38.4,128.7,55.7"/>
	<path class="st80" d="M128.7,55.7c9.2-12.3-9.8-9-14.6-6.9C131.7,38.1,153.7,38.4,128.7,55.7"/>
	<path class="st81" d="M128.7,55.7c9.1-12.3-9.9-9-14.5-6.9C131.6,38.1,153.7,38.4,128.7,55.7"/>
	<path class="st82" d="M128.7,55.7c9.1-12.3-9.9-9-14.5-6.9C131.6,38.1,153.6,38.5,128.7,55.7"/>
	<path class="st83" d="M128.7,55.7c9.1-12.3-9.9-9-14.5-6.9C131.6,38.1,153.6,38.5,128.7,55.7"/>
	<path class="st84" d="M128.7,55.7c9.1-12.3-9.9-8.9-14.5-6.9C131.6,38.1,153.5,38.5,128.7,55.7"/>
	<path class="st85" d="M128.7,55.7c9.1-12.3-9.9-8.9-14.5-6.9C131.6,38.1,153.5,38.5,128.7,55.7"/>
	<path class="st86" d="M128.7,55.7c9.1-12.3-9.9-8.9-14.5-6.9C131.6,38.1,153.4,38.5,128.7,55.7"/>
	<path class="st86" d="M128.7,55.7c9.1-12.3-9.9-8.9-14.5-6.9C131.6,38.2,153.4,38.6,128.7,55.7"/>
	<path class="st87" d="M128.8,55.7c9.1-12.3-9.9-8.9-14.5-6.9C131.6,38.2,153.3,38.6,128.8,55.7"/>
	<path class="st88" d="M128.8,55.7c9.1-12.3-9.9-8.9-14.5-6.9C131.6,38.2,153.3,38.6,128.8,55.7"/>
	<path class="st88" d="M128.8,55.7c9.1-12.3-9.9-8.9-14.5-6.9C131.6,38.2,153.2,38.6,128.8,55.7"/>
	<path class="st89" d="M128.8,55.7c9.1-12.3-9.9-8.9-14.5-6.9C131.6,38.2,153.2,38.6,128.8,55.7"/>
	<path class="st89" d="M128.8,55.6c9.1-12.3-10-8.9-14.5-6.9C131.5,38.2,153.1,38.7,128.8,55.6"/>
	<path class="st90" d="M128.8,55.6c9-12.3-10-8.9-14.5-6.9C131.5,38.2,153.1,38.7,128.8,55.6"/>
	<path class="st91" d="M128.8,55.6c9-12.3-10-8.9-14.5-6.9C131.5,38.2,153,38.7,128.8,55.6"/>
	<path class="st91" d="M128.8,55.6c9-12.3-10-8.9-14.5-6.9C131.5,38.3,153,38.7,128.8,55.6"/>
	<path class="st91" d="M128.8,55.6c9-12.3-10-8.9-14.5-6.9C131.5,38.3,152.9,38.8,128.8,55.6"/>
	<path class="st92" d="M128.8,55.6c9-12.3-10-8.9-14.5-6.9C131.5,38.3,152.8,38.8,128.8,55.6"/>
	<path class="st92" d="M128.8,55.6c9-12.3-10-8.9-14.5-6.9C131.5,38.3,152.8,38.8,128.8,55.6"/>
	<path class="st92" d="M128.8,55.6c9-12.3-10-8.9-14.5-6.9C131.5,38.3,152.7,38.8,128.8,55.6"/>
	<path class="st93" d="M128.8,55.6c9-12.3-10-8.8-14.5-6.9C131.5,38.3,152.7,38.8,128.8,55.6"/>
	<path class="st94" d="M128.8,55.6c9-12.3-10-8.8-14.5-6.9C131.5,38.3,152.6,38.9,128.8,55.6"/>
	<path class="st95" d="M128.8,55.6c9-12.3-10-8.8-14.5-6.9C131.5,38.3,152.6,38.9,128.8,55.6"/>
	<path class="st95" d="M128.9,55.6c9-12.2-10-8.8-14.5-6.9C131.4,38.4,152.5,38.9,128.9,55.6"/>
	<path class="st96" d="M128.9,55.6c9-12.2-10.1-8.8-14.5-6.9C131.4,38.4,152.5,38.9,128.9,55.6"/>
	<path class="st97" d="M128.9,55.6c9-12.2-10.1-8.8-14.5-6.9C131.4,38.4,152.4,38.9,128.9,55.6"/>
	<path class="st98" d="M128.9,55.5c8.9-12.2-10.1-8.8-14.5-6.9C131.4,38.4,152.4,39,128.9,55.5"/>
	<path class="st99" d="M128.9,55.5c8.9-12.2-10.1-8.8-14.5-6.9C131.4,38.4,152.3,39,128.9,55.5"/>
	<path class="st100" d="M128.9,55.5c8.9-12.2-10.1-8.8-14.5-6.9C131.4,38.4,152.3,39,128.9,55.5"/>
	<path class="st101" d="M128.9,55.5c8.9-12.2-10.1-8.8-14.5-6.9C131.4,38.4,152.2,39,128.9,55.5"/>
	<path class="st101" d="M128.9,55.5c8.9-12.2-10.1-8.8-14.5-6.9C131.4,38.4,152.2,39,128.9,55.5"/>
	<path class="st102" d="M128.9,55.5c8.9-12.2-10.1-8.8-14.4-6.9C131.4,38.5,152.1,39.1,128.9,55.5"/>
	<path class="st103" d="M128.9,55.5c8.9-12.2-10.1-8.8-14.4-6.9C131.4,38.5,152.1,39.1,128.9,55.5"/>
	<path class="st104" d="M128.9,55.5c8.9-12.2-10.1-8.8-14.4-6.9C131.4,38.5,152,39.1,128.9,55.5"/>
	<path class="st105" d="M128.9,55.5c8.9-12.2-10.1-8.8-14.4-6.9C131.4,38.5,152,39.1,128.9,55.5"/>
	<path class="st106" d="M128.9,55.5c8.9-12.2-10.2-8.8-14.4-6.9C131.3,38.5,151.9,39.2,128.9,55.5"/>
	<path class="st107" d="M128.9,55.5c8.9-12.2-10.2-8.7-14.4-6.9C131.3,38.5,151.9,39.2,128.9,55.5"/>
	<path class="st107" d="M129,55.5c8.9-12.2-10.2-8.7-14.4-6.9C131.3,38.5,151.8,39.2,129,55.5"/>
	<path class="st108" d="M129,55.5c8.8-12.2-10.2-8.7-14.4-6.8C131.3,38.5,151.8,39.2,129,55.5"/>
	<path class="st108" d="M129,55.5c8.8-12.2-10.2-8.7-14.4-6.8C131.3,38.6,151.7,39.2,129,55.5"/>
	<path class="st109" d="M129,55.5c8.8-12.2-10.2-8.7-14.4-6.8C131.3,38.6,151.7,39.3,129,55.5"/>
	<path class="st110" d="M129,55.5c8.8-12.2-10.2-8.7-14.4-6.8C131.3,38.6,151.6,39.3,129,55.5"/>
	<path class="st110" d="M129,55.4c8.8-12.2-10.2-8.7-14.4-6.8C131.3,38.6,151.6,39.3,129,55.4"/>
	<path class="st111" d="M129,55.4c8.8-12.2-10.2-8.7-14.4-6.8C131.3,38.6,151.5,39.3,129,55.4"/>
	<path class="st111" d="M129,55.4c8.8-12.2-10.2-8.7-14.4-6.8C131.3,38.6,151.5,39.3,129,55.4"/>
	<path class="st112" d="M129,55.4c8.8-12.2-10.2-8.7-14.4-6.8C131.3,38.6,151.4,39.4,129,55.4"/>
	<path class="st113" d="M129,55.4c8.8-12.2-10.2-8.7-14.4-6.8C131.2,38.6,151.4,39.4,129,55.4"/>
	<path class="st114" d="M129,55.4c8.8-12.2-10.3-8.7-14.4-6.8C131.2,38.7,151.3,39.4,129,55.4"/>
	<path class="st115" d="M129,55.4c8.8-12.2-10.3-8.7-14.4-6.8C131.2,38.7,151.3,39.4,129,55.4"/>
	<path class="st116" d="M129,55.4c8.8-12.2-10.3-8.7-14.4-6.8C131.2,38.7,151.2,39.5,129,55.4"/>
	<path class="st116" d="M129,55.4c8.8-12.2-10.3-8.7-14.4-6.8C131.2,38.7,151.1,39.5,129,55.4"/>
	<path class="st117" d="M129,55.4c8.7-12.2-10.3-8.7-14.4-6.8C131.2,38.7,151.1,39.5,129,55.4"/>
	<path class="st118" d="M129.1,55.4c8.7-12.2-10.3-8.6-14.4-6.8C131.2,38.7,151,39.5,129.1,55.4"/>
	<path class="st119" d="M129.1,55.4c8.7-12.1-10.3-8.6-14.4-6.8C131.2,38.7,151,39.5,129.1,55.4"/>
	<path class="st120" d="M129.1,55.4c8.7-12.1-10.3-8.6-14.4-6.8C131.2,38.7,150.9,39.6,129.1,55.4"/>
	<path class="st121" d="M129.1,55.4c8.7-12.1-10.3-8.6-14.4-6.8C131.2,38.8,150.9,39.6,129.1,55.4"/>
	<path class="st121" d="M129.1,55.3c8.7-12.1-10.3-8.6-14.4-6.8C131.2,38.8,150.8,39.6,129.1,55.3"/>
	<path class="st122" d="M129.1,55.3c8.7-12.1-10.3-8.6-14.4-6.8C131.1,38.8,150.8,39.6,129.1,55.3"/>
	<path class="st123" d="M129.1,55.3c8.7-12.1-10.3-8.6-14.4-6.8C131.1,38.8,150.7,39.6,129.1,55.3"/>
	<path class="st124" d="M129.1,55.3c8.7-12.1-10.4-8.6-14.4-6.8C131.1,38.8,150.7,39.7,129.1,55.3"/>
	<path class="st124" d="M129.1,55.3c8.7-12.1-10.4-8.6-14.4-6.8C131.1,38.8,150.6,39.7,129.1,55.3"/>
	<path class="st124" d="M129.1,55.3c8.7-12.1-10.4-8.6-14.3-6.8C131.1,38.8,150.6,39.7,129.1,55.3"/>
	<path class="st125" d="M129.1,55.3c8.7-12.1-10.4-8.6-14.3-6.8C131.1,38.8,150.5,39.7,129.1,55.3"/>
	<path class="st125" d="M129.1,55.3c8.6-12.1-10.4-8.6-14.3-6.8C131.1,38.9,150.5,39.8,129.1,55.3"/>
	<path class="st125" d="M129.1,55.3c8.6-12.1-10.4-8.6-14.3-6.8C131.1,38.9,150.4,39.8,129.1,55.3"/>
	<path class="st126" d="M129.1,55.3c8.6-12.1-10.4-8.6-14.3-6.8C131.1,38.9,150.4,39.8,129.1,55.3"/>
	<path class="st127" d="M129.1,55.3c8.6-12.1-10.4-8.6-14.3-6.8C131.1,38.9,150.3,39.8,129.1,55.3"/>
	<path class="st127" d="M129.2,55.3c8.6-12.1-10.4-8.6-14.3-6.8C131.1,38.9,150.3,39.8,129.2,55.3"/>
	<path class="st127" d="M129.2,55.3c8.6-12.1-10.4-8.6-14.3-6.8C131,38.9,150.2,39.9,129.2,55.3"/>
	<path class="st128" d="M129.2,55.3c8.6-12.1-10.4-8.5-14.3-6.8C131,38.9,150.2,39.9,129.2,55.3"/>
	<path class="st129" d="M129.2,55.3c8.6-12.1-10.5-8.5-14.3-6.8C131,38.9,150.1,39.9,129.2,55.3"/>
	<path class="st130" d="M129.2,55.2c8.6-12.1-10.5-8.5-14.3-6.8C131,39,150.1,39.9,129.2,55.2"/>
	<path class="st130" d="M129.2,55.2c8.6-12.1-10.5-8.5-14.3-6.8C131,39,150,39.9,129.2,55.2"/>
	<path class="st131" d="M129.2,55.2c8.6-12.1-10.5-8.5-14.3-6.8C131,39,150,40,129.2,55.2"/>
	<path class="st131" d="M129.2,55.2c8.6-12.1-10.5-8.5-14.3-6.8C131,39,149.9,40,129.2,55.2"/>
	<path class="st132" d="M129.2,55.2c8.6-12.1-10.5-8.5-14.3-6.8C131,39,149.9,40,129.2,55.2"/>
	<path class="st133" d="M129.2,55.2c8.5-12.1-10.5-8.5-14.3-6.8C131,39,149.8,40,129.2,55.2"/>
	<path class="st134" d="M129.2,55.2c8.5-12.1-10.5-8.5-14.3-6.7C131,39,149.8,40,129.2,55.2"/>
	<path class="st134" d="M129.2,55.2c8.5-12.1-10.5-8.5-14.3-6.7C131,39,149.7,40.1,129.2,55.2"/>
	<path class="st135" d="M129.2,55.2c8.5-12.1-10.5-8.5-14.3-6.7C131,39.1,149.7,40.1,129.2,55.2"/>
	<path class="st136" d="M129.2,55.2c8.5-12.1-10.5-8.5-14.3-6.7C130.9,39.1,149.6,40.1,129.2,55.2"/>
	<path class="st137" d="M129.2,55.2c8.5-12.1-10.5-8.5-14.3-6.7C130.9,39.1,149.5,40.1,129.2,55.2"/>
	<path class="st138" d="M129.3,55.2c8.5-12.1-10.6-8.5-14.3-6.7C130.9,39.1,149.5,40.2,129.3,55.2"/>
	<path class="st139" d="M129.3,55.2c8.5-12.1-10.6-8.5-14.3-6.7C130.9,39.1,149.4,40.2,129.3,55.2"/>
	<path class="st140" d="M129.3,55.2c8.5-12.1-10.6-8.4-14.3-6.7C130.9,39.1,149.4,40.2,129.3,55.2"/>
	<path class="st141" d="M129.3,55.2c8.5-12.1-10.6-8.4-14.3-6.7C130.9,39.1,149.3,40.2,129.3,55.2"/>
	<path class="st141" d="M129.3,55.1c8.5-12-10.6-8.4-14.3-6.7C130.9,39.1,149.3,40.2,129.3,55.1"/>
	<path class="st142" d="M129.3,55.1c8.5-12-10.6-8.4-14.3-6.7C130.9,39.2,149.2,40.3,129.3,55.1"/>
	<path class="st142" d="M129.3,55.1c8.4-12-10.6-8.4-14.3-6.7C130.9,39.2,149.2,40.3,129.3,55.1"/>
	<path class="st143" d="M129.3,55.1c8.4-12-10.6-8.4-14.3-6.7C130.9,39.2,149.1,40.3,129.3,55.1"/>
	<path class="st144" d="M129.3,55.1c8.4-12-10.6-8.4-14.3-6.7C130.9,39.2,149.1,40.3,129.3,55.1"/>
	<path class="st145" d="M129.3,55.1c8.4-12-10.6-8.4-14.3-6.7C130.8,39.2,149,40.3,129.3,55.1"/>
	<path class="st145" d="M129.3,55.1c8.4-12-10.6-8.4-14.2-6.7C130.8,39.2,149,40.4,129.3,55.1"/>
	<path class="st146" d="M129.3,55.1c8.4-12-10.6-8.4-14.2-6.7C130.8,39.2,148.9,40.4,129.3,55.1"/>
	<path class="st147" d="M129.3,55.1c8.4-12-10.7-8.4-14.2-6.7C130.8,39.2,148.9,40.4,129.3,55.1"/>
	<path class="st148" d="M129.3,55.1c8.4-12-10.7-8.4-14.2-6.7C130.8,39.3,148.8,40.4,129.3,55.1"/>
	<path class="st149" d="M129.3,55.1c8.4-12-10.7-8.4-14.2-6.7C130.8,39.3,148.8,40.4,129.3,55.1"/>
	<path class="st150" d="M129.4,55.1c8.4-12-10.7-8.4-14.2-6.7C130.8,39.3,148.7,40.5,129.4,55.1"/>
	<path class="st151" d="M129.4,55.1c8.4-12-10.7-8.4-14.2-6.7C130.8,39.3,148.7,40.5,129.4,55.1"/>
	<path class="st152" d="M129.4,55.1c8.4-12-10.7-8.4-14.2-6.7C130.8,39.3,148.6,40.5,129.4,55.1"/>
	<path class="st153" d="M129.4,55c8.4-12-10.7-8.3-14.2-6.7C130.8,39.3,148.6,40.5,129.4,55"/>
	<path class="st154" d="M129.4,55c8.3-12-10.7-8.3-14.2-6.7C130.8,39.3,148.5,40.6,129.4,55"/>
	<path class="st154" d="M129.4,55c8.3-12-10.7-8.3-14.2-6.7C130.7,39.3,148.5,40.6,129.4,55"/>
	<path class="st155" d="M129.4,55c8.3-12-10.7-8.3-14.2-6.7C130.7,39.4,148.4,40.6,129.4,55"/>
	<path class="st156" d="M129.4,55c8.3-12-10.7-8.3-14.2-6.7C130.7,39.4,148.4,40.6,129.4,55"/>
	<path class="st157" d="M129.4,55c8.3-12-10.8-8.3-14.2-6.7C130.7,39.4,148.3,40.6,129.4,55"/>
	<path class="st158" d="M129.4,55c8.3-12-10.8-8.3-14.2-6.7C130.7,39.4,148.3,40.7,129.4,55"/>
	<path class="st157" d="M129.4,55c8.3-12-10.8-8.3-14.2-6.7C130.7,39.4,148.2,40.7,129.4,55"/>
	<path class="st159" d="M129.4,55c8.3-12-10.8-8.3-14.2-6.7C130.7,39.4,148.2,40.7,129.4,55"/>
	<path class="st160" d="M129.4,55c8.3-12-10.8-8.3-14.2-6.7C130.7,39.4,148.1,40.7,129.4,55"/>
	<path class="st161" d="M129.4,55c8.3-12-10.8-8.3-14.2-6.7C130.7,39.4,148.1,40.7,129.4,55"/>
	<path class="st162" d="M129.4,55c8.3-12-10.8-8.3-14.2-6.7C130.7,39.5,148,40.8,129.4,55"/>
	<path class="st163" d="M129.5,55c8.3-12-10.8-8.3-14.2-6.7C130.7,39.5,148,40.8,129.5,55"/>
	<path class="st164" d="M129.5,55c8.2-12-10.8-8.3-14.2-6.7C130.7,39.5,147.9,40.8,129.5,55"/>
	<path class="st164" d="M129.5,55c8.2-12-10.8-8.3-14.2-6.7C130.6,39.5,147.9,40.8,129.5,55"/>
	<path class="st165" d="M129.5,55c8.2-12-10.8-8.3-14.2-6.7C130.6,39.5,147.8,40.8,129.5,55"/>
	<path class="st165" d="M129.5,54.9c8.2-12-10.8-8.3-14.2-6.7C130.6,39.5,147.7,40.9,129.5,54.9"/>
	<path class="st166" d="M129.5,54.9c8.2-12-10.9-8.2-14.2-6.7C130.6,39.5,147.7,40.9,129.5,54.9"/>
	<path class="st167" d="M129.5,54.9c8.2-12-10.9-8.2-14.2-6.7C130.6,39.5,147.6,40.9,129.5,54.9"/>
	<path class="st168" d="M129.5,54.9c8.2-12-10.9-8.2-14.2-6.7C130.6,39.6,147.6,40.9,129.5,54.9"/>
	<path class="st169" d="M129.5,54.9c8.2-11.9-10.9-8.2-14.1-6.7C130.6,39.6,147.5,40.9,129.5,54.9"/>
	<path class="st169" d="M129.5,54.9c8.2-11.9-10.9-8.2-14.1-6.6C130.6,39.6,147.5,41,129.5,54.9"/>
	<path class="st169" d="M129.5,54.9c8.2-11.9-10.9-8.2-14.1-6.6C130.6,39.6,147.4,41,129.5,54.9"/>
	<path class="st170" d="M129.5,54.9c8.2-11.9-10.9-8.2-14.1-6.6C130.6,39.6,147.4,41,129.5,54.9"/>
	<path class="st171" d="M129.5,54.9c8.2-11.9-10.9-8.2-14.1-6.6C130.6,39.6,147.3,41,129.5,54.9"/>
	<path class="st172" d="M129.5,54.9c8.1-11.9-10.9-8.2-14.1-6.6C130.5,39.6,147.3,41.1,129.5,54.9"/>
	<path class="st173" d="M129.5,54.9c8.1-11.9-10.9-8.2-14.1-6.6C130.5,39.6,147.2,41.1,129.5,54.9"/>
	<path class="st174" d="M129.6,54.9c8.1-11.9-10.9-8.2-14.1-6.6C130.5,39.7,147.2,41.1,129.6,54.9"/>
	<path class="st174" d="M129.6,54.9c8.1-11.9-11-8.2-14.1-6.6C130.5,39.7,147.1,41.1,129.6,54.9"/>
	<path class="st175" d="M129.6,54.9c8.1-11.9-11-8.2-14.1-6.6C130.5,39.7,147.1,41.1,129.6,54.9"/>
	<path class="st176" d="M129.6,54.8c8.1-11.9-11-8.2-14.1-6.6C130.5,39.7,147,41.2,129.6,54.8"/>
	<path class="st177" d="M129.6,54.8c8.1-11.9-11-8.2-14.1-6.6C130.5,39.7,147,41.2,129.6,54.8"/>
	<path class="st177" d="M129.6,54.8c8.1-11.9-11-8.2-14.1-6.6C130.5,39.7,146.9,41.2,129.6,54.8"/>
	<path class="st177" d="M129.6,54.8c8.1-11.9-11-8.1-14.1-6.6C130.5,39.7,146.9,41.2,129.6,54.8"/>
	<path class="st178" d="M129.6,54.8c8.1-11.9-11-8.1-14.1-6.6C130.5,39.7,146.8,41.3,129.6,54.8"/>
	<path class="st178" d="M129.6,54.8c8.1-11.9-11-8.1-14.1-6.6C130.5,39.8,146.8,41.3,129.6,54.8"/>
	<path class="st179" d="M129.6,54.8c8.1-11.9-11-8.1-14.1-6.6C130.4,39.8,146.7,41.3,129.6,54.8"/>
	<path class="st180" d="M129.6,54.8c8.1-11.9-11-8.1-14.1-6.6C130.4,39.8,146.7,41.3,129.6,54.8"/>
	<path class="st180" d="M129.6,54.8c8-11.9-11-8.1-14.1-6.6C130.4,39.8,146.6,41.3,129.6,54.8"/>
	<path class="st181" d="M129.6,54.8c8-11.9-11-8.1-14.1-6.6C130.4,39.8,146.6,41.4,129.6,54.8"/>
	<path class="st181" d="M129.6,54.8c8-11.9-11.1-8.1-14.1-6.6C130.4,39.8,146.5,41.4,129.6,54.8"/>
	<path class="st182" d="M129.6,54.8c8-11.9-11.1-8.1-14.1-6.6C130.4,39.8,146.5,41.4,129.6,54.8"/>
	<path class="st183" d="M129.7,54.8c8-11.9-11.1-8.1-14.1-6.6C130.4,39.9,146.4,41.4,129.7,54.8"/>
	<path class="st184" d="M129.7,54.8c8-11.9-11.1-8.1-14.1-6.6C130.4,39.9,146.4,41.4,129.7,54.8"/>
	<path class="st184" d="M129.7,54.8c8-11.9-11.1-8.1-14.1-6.6C130.4,39.9,146.3,41.5,129.7,54.8"/>
	<path class="st185" d="M129.7,54.7c8-11.9-11.1-8.1-14.1-6.6C130.4,39.9,146.2,41.5,129.7,54.7"/>
	<path class="st186" d="M129.7,54.7c8-11.9-11.1-8.1-14.1-6.6C130.4,39.9,146.2,41.5,129.7,54.7"/>
	<path class="st186" d="M129.7,54.7c8-11.9-11.1-8.1-14.1-6.6C130.3,39.9,146.1,41.5,129.7,54.7"/>
	<path class="st186" d="M129.7,54.7c8-11.9-11.1-8-14.1-6.6C130.3,39.9,146.1,41.5,129.7,54.7"/>
	<path class="st186" d="M129.7,54.7c8-11.9-11.1-8-14.1-6.6C130.3,39.9,146,41.6,129.7,54.7"/>
	<path class="st187" d="M129.7,54.7c7.9-11.8-11.1-8-14-6.6C130.3,40,146,41.6,129.7,54.7"/>
	<path class="st187" d="M129.7,54.7c7.9-11.8-11.2-8-14-6.6C130.3,40,145.9,41.6,129.7,54.7"/>
	<path class="st187" d="M129.7,54.7c7.9-11.8-11.2-8-14-6.6C130.3,40,145.9,41.6,129.7,54.7"/>
	<path class="st188" d="M129.7,54.7c7.9-11.8-11.2-8-14-6.6C130.3,40,145.8,41.6,129.7,54.7"/>
	<path class="st188" d="M129.7,54.7c7.9-11.8-11.2-8-14-6.6C130.3,40,145.8,41.7,129.7,54.7"/>
	<path class="st189" d="M129.7,54.7c7.9-11.8-11.2-8-14-6.6C130.3,40,145.7,41.7,129.7,54.7"/>
	<path class="st190" d="M129.8,54.7c7.9-11.8-11.2-8-14-6.6C130.3,40,145.7,41.7,129.8,54.7"/>
	<path class="st190" d="M129.8,54.7c7.9-11.8-11.2-8-14-6.6C130.3,40,145.6,41.7,129.8,54.7"/>
	<path class="st191" d="M129.8,54.7c7.9-11.8-11.2-8-14-6.5C130.3,40.1,145.6,41.7,129.8,54.7"/>
	<path class="st192" d="M129.8,54.7c7.9-11.8-11.2-8-14-6.6C130.2,40.1,145.5,41.8,129.8,54.7"/>
	<path class="st193" d="M129.8,54.6c7.9-11.8-11.2-8-14-6.5C130.2,40.1,145.5,41.8,129.8,54.6"/>
	<path class="st194" d="M129.8,54.6c7.9-11.8-11.2-8-14-6.5C130.2,40.1,145.4,41.8,129.8,54.6"/>
	<path class="st194" d="M129.8,54.6c7.8-11.8-11.2-8-14-6.5C130.2,40.1,145.4,41.8,129.8,54.6"/>
	<path class="st195" d="M129.8,54.6c7.8-11.8-11.3-8-14-6.5C130.2,40.1,145.3,41.9,129.8,54.6"/>
	<path class="st196" d="M129.8,54.6c7.8-11.8-11.3-7.9-14-6.5C130.2,40.1,145.3,41.9,129.8,54.6"/>
	<path class="st196" d="M129.8,54.6c7.8-11.8-11.3-7.9-14-6.5C130.2,40.1,145.2,41.9,129.8,54.6"/>
	<path class="st197" d="M115.8,48.1c14.4-7.9,29.3-6.2,14,6.5C137.6,42.8,118.5,46.7,115.8,48.1"/>
	<path class="st0" d="M140.7,44.6c1.5-2.6-1-3.4-4.4-3.4C139.1,41.4,141.1,42.8,140.7,44.6"/>
	<path d="M73.8,57.8h-3.2c-0.6,0-0.9-0.2-0.9-0.6c0-0.4,0.2-0.7,0.9-0.7h4.1v0.4C74.7,57.4,74.5,57.8,73.8,57.8 M80.7,56.9v-2.2
		c0-2.5-1.6-3.8-5.1-3.8H64.9v2.9h8.6c0.9,0,1.2,0.3,1.2,0.9v0.1h-6.9c-2.9,0-3.9,1.2-3.9,2.8v0.4c0,0.7,0.2,1.3,0.6,1.7
		c0.8,0.8,2.5,1,4.6,1h6C79.1,60.7,80.7,59.8,80.7,56.9"/>
	<path d="M99.2,53.6h3.3c0.6,0,0.9,0.2,0.9,0.6c0,0.4-0.2,0.7-0.9,0.7h-4.2v-0.4C98.3,54,98.5,53.6,99.2,53.6 M92.3,55v1.7
		c0,2.5,1.6,3.8,5.1,3.8h11v-2.9h-8.9c-0.9,0-1.2-0.3-1.2-0.9v-0.1h6.9c2.4,0,3.9-0.8,3.9-2.7v-0.4c0-1.6-0.9-2.9-5.1-2.9h-6.1
		C93.9,50.8,92.3,52.1,92.3,55"/>
	<path d="M91.7,51H84c-1.2,0-2,0.7-2,1.7v7.9h6V54h3.7V51z"/>
	<polygon points="58.5,49.2 52.5,49.2 52.5,60.6 63.1,60.6 63.1,57.6 58.5,57.6 	"/>
	<path d="M51,54h-7.9c-0.8,0-1.5,0.5-1.5,1.8c0,1.5,0.8,1.9,1.5,1.9h7.9v2.9h-9.7c-4.1,0-5.8-1.3-5.8-4.4v-0.7
		c0-2.7,1.6-4.4,5.6-4.4H51V54z"/>
	<path d="M22.1,60.6l6.3-5.8l0,5.8h6V49.2h-3.5c-1.4,0-2.5,0.6-3.4,1.5c-1.1,1-5.1,4.4-5.1,4.4v-5.8h-3.5c-2,0-3,0.7-4.1,1.6
		C14,51.4,2.2,60.6,2.2,60.6h7.1l7-5.8v5.8H22.1z"/>
	<path d="M110.2,60.6v-9.6h9.5c4.8,0,6.5,1,6.5,4.3v5.3h-6v-4.3c0-1.1-0.6-2.2-2.4-2.2h-1.6v6.5H110.2z"/>
</g>
</svg>
