<?xml version="1.0" encoding="utf-8"?>
<!-- Generator: Adobe Illustrator 24.0.2, SVG Export Plug-In . SVG Version: 6.00 Build 0)  -->
<svg version="1.1" id="Layer_1" xmlns="http://www.w3.org/2000/svg" xmlns:xlink="http://www.w3.org/1999/xlink" x="0px" y="0px"
	 viewBox="0 0 144 101" style="enable-background:new 0 0 144 101;" xml:space="preserve">
<style type="text/css">
	.st0{enable-background:new    ;}
	.st1{fill:#FFFFFF;}
	.st2{fill:none;stroke:#000000;stroke-width:0.5;}
	.st3{fill:#FFFFFF;enable-background:new    ;}
	.st4{fill:#030303;enable-background:new    ;}
	.st5{fill:none;stroke:#000000;stroke-width:3;stroke-miterlimit:10;}
	.st6{fill:none;stroke:#000000;stroke-miterlimit:10;}
	.st7{fill:#1F1F1F;}
	.st8{opacity:0.2;fill:none;stroke:#1F1F1F;stroke-width:9;stroke-miterlimit:10;}
	.st9{fill:none;stroke:#FFFFFF;stroke-miterlimit:10;}
	.st10{fill:#E9E9E9;}
	.st11{fill:none;stroke:#636363;stroke-width:4;stroke-miterlimit:10;}
	.st12{fill:#5F5F5F;}
</style>
<g id="Layer_1_1_">
</g>
<g class="st0">
	<path class="st1" d="M1.6,35.1c3.6,0.9,10.2,2.1,19.9,2.3c10.7,0.2,17.9-0.7,23.3-1.4c3.1-0.4,5.6-0.8,7.9-0.7
		c1.6,0,2.9,0.5,4.1,1.3c-1,1.1-2,2.4-2.7,3.7c-2.1-0.3-4.5-0.1-7.5,0.3c-0.7,0.1-1.4,0.2-2.1,0.2C42,41,39.2,41.3,36,41.6
		c-3.2,0.2-6.9,0.4-11,0.2c-6.1-0.2-10.8-0.9-14.4-1.9c-2.7-0.7-4.8-1.6-6.5-2.4c-1.2-0.6-2.2-1.3-2.9-1.8C1,35.6,1,35.5,0.9,35.3
		C1,35.2,1.4,35.1,1.6,35.1z"/>
</g>
<g class="st0">
	<path class="st1" d="M43.1,59.3c-0.5-0.3-0.9-0.5-1.3-0.8c1.6,0.1,3.4,0.1,5.3,0c2.2-0.1,4.3-0.3,6.1-0.6c0.6,1.4,1.4,2.8,2.3,4.1
		C49.4,62,45.5,60.6,43.1,59.3z"/>
</g>
<g class="st0">
	<path class="st1" d="M51.1,56.9c-1.3,0.2-2.7,0.3-4.1,0.4c-2.3,0.1-4.3,0.1-6.2-0.1c-0.4,0-0.5-0.1-0.9-0.1c-0.4,0-0.7-0.1-1.1-0.1
		c-0.3-0.1-0.7-0.1-1-0.2c-3.3-0.6-5.7-1.6-7.2-2.5c-0.9-0.5-1.6-1-2.1-1.5c2.5,0.4,5.3,0.7,8.6,0.7c3.9,0,7.3-0.3,10.3-0.7
		c1.5-0.2,3-0.3,4.3-0.6c0.2,1.5,0.6,3,1.1,4.5C52.1,56.8,51.6,56.9,51.1,56.9z"/>
</g>
<g class="st0">
	<path class="st1" d="M51.5,50.7c-1.3,0.3-2.8,0.5-4.4,0.8c-2.9,0.4-6.2,0.7-10,0.7c-5,0-8.8-0.6-11.8-1.4c-2.9-0.8-5-1.7-6.4-2.6
		c-1.2-0.8-2.1-1.5-2.8-2.1c3.5,1,8,1.9,13.9,2.2c8.2,0.4,14.3-0.4,18.9-1.1c1-0.1,2-0.3,2.8-0.4c-0.1,0.9-0.2,1.9-0.2,2.8
		C51.4,50,51.4,50.4,51.5,50.7z"/>
</g>
<g class="st0">
	<path class="st1" d="M48.6,45.9C44.1,46.6,38.1,47.4,30,47c-1.8-0.1-3.5-0.2-5-0.4c-5.3-0.6-9.1-1.7-11.9-2.9
		c-1.3-0.6-2.4-1.1-3.3-1.6c-1.3-0.8-2.2-1.5-2.9-2.1c4,1.5,9.7,2.7,18,3c8.4,0.3,14.9-0.5,19.8-1c3.6-0.4,6.4-0.7,8.7-0.5
		c-0.6,1.3-1.1,2.6-1.4,4C50.9,45.6,49.8,45.7,48.6,45.9z"/>
</g>
<path d="M8.3,40.8c0.5,0.4,1.1,0.8,1.7,1.1c1,0.6,2.1,1.1,3.3,1.6c3.3,1.3,7.2,2.3,11.8,2.8c1.6,0.2,3.3,0.3,5,0.4
	c8,0.4,14-0.5,18.5-1.1c1.2-0.2,2.2-0.3,3.1-0.4c0.3-1.2,0.7-2.3,1.2-3.5l1-0.5l-0.2,0.4c-0.6,1.3-1.1,2.6-1.4,4l-0.1,0.2l-0.2,0
	c-1,0.1-2,0.3-3.3,0.5c-4.5,0.7-10.5,1.5-18.6,1.1c-1.7-0.1-3.4-0.2-5-0.4c-4.7-0.6-8.7-1.5-12-2.9c-1.2-0.5-2.4-1.1-3.4-1.7
	c-1.1-0.7-2.4-1.7-2.9-2.2c-0.5-0.5-0.6-0.6-1-1C5.7,39.2,8.3,40.8,8.3,40.8z"/>
<path d="M52,46.8c-0.1,0.9-0.2,1.9-0.2,2.8l0,1.4l-0.3,0.1c-1.6,0.3-3,0.6-4.4,0.8c-3.4,0.5-6.7,0.7-10.1,0.7
	c-4.5,0-8.5-0.5-11.9-1.4c-2.5-0.7-4.7-1.6-6.5-2.7c-1.1-0.7-2-1.4-2.8-2.2c0,0-0.7-0.7-0.8-0.9l2.1,1.3c0.5,0.4,1.1,0.9,1.8,1.3
	c1.7,1.1,3.9,1.9,6.4,2.6c3.3,0.9,7.3,1.3,11.7,1.4c3.3,0,6.6-0.2,10-0.7c1.3-0.2,2.6-0.4,4.1-0.7c0-0.3,0-0.9,0-0.9
	c0-0.8,0.1-1.6,0.2-2.4c0,0,0.9-0.8,0.9-0.8L52,46.8z"/>
<path d="M29.5,53.2c0.4,0.3,0.7,0.5,1.1,0.7c1.9,1.1,4.3,2,7.1,2.5c0,0,1,0.2,1,0.2l1.1,0.1c0,0,0.5,0.1,0.5,0.1l0.4,0
	c1.9,0.2,4,0.2,6.1,0.1c1.4-0.1,2.7-0.2,4.1-0.4l1.2-0.2l1,0.5L52.8,57l-1.6,0.2c-1.4,0.2-2.8,0.3-4.2,0.4c-2.2,0.1-4.3,0.1-6.2-0.1
	c0,0-0.9-0.1-0.9-0.1c0,0-1.1-0.1-1.1-0.1l-1-0.2c-2.9-0.5-5.3-1.4-7.4-2.6c-0.8-0.5-1.5-1-2.1-1.5c0,0,0,0-0.8-0.8L29.5,53.2z"/>
<path d="M43,59c0.1,0,0.1,0.1,0.2,0.1c2.1,1.1,5.9,2.5,11.6,2.7l1.3,0.7l-0.6,0c-6.2-0.1-10.3-1.6-12.6-2.8
	c-0.5-0.2-0.9-0.5-1.4-0.8l-1-0.7L43,59z"/>
<g>
	<path d="M53.5,57.9l-0.1-0.3l-0.3,0c-2,0.3-4,0.5-6.1,0.6c-1.8,0.1-4.3,0-5.3,0c-1-0.1-1.2-0.1-1.2-0.1s2.5,0.8,2.5,0.8
		c1.3,0.1,2.6,0,4.1,0c2-0.1,3.9-0.3,5.9-0.6c0.5,1.1,1.1,2.3,1.8,3.4l1.3,0.7l-0.4-0.5C54.9,60.6,54.1,59.3,53.5,57.9z"/>
	<path d="M51.3,52.6c0.2,1.4,0.5,2.8,1,4.2l0.8,0.2L53,56.6c-0.5-1.4-0.9-2.9-1.1-4.4l0-0.4l-0.4,0.1c-1.4,0.2-2.8,0.4-4.3,0.6
		c-3.5,0.5-6.8,0.7-10.2,0.7c-3.1,0-6.7-0.3-8.6-0.7c-0.4-0.1-1.1-0.2-1.1-0.2s2.2,1,2.2,1c2.6,0.4,4.4,0.5,7.5,0.5
		c3.4,0,6.8-0.2,10.3-0.7C48.7,53,50,52.8,51.3,52.6z"/>
	<path d="M48.9,47.5l2.5-0.3l0.7-0.7l-0.5,0.1l-2.8,0.4C44.2,47.5,38.1,48.4,30,48c-5.3-0.3-9.9-1-13.9-2.2c0,0-0.6-0.2-1.1-0.4
		c0,0,1.7,1.2,2.1,1.3c3.7,1,8,1.6,12.8,1.9C38.2,49,44.3,48.1,48.9,47.5z"/>
	<path d="M44.7,42.3c3.4-0.4,6.2-0.7,8.4-0.5c0.1,0,0.8-0.6,0.8-0.6l-0.5-0.1c-2.4-0.2-5.2,0.1-8.8,0.5c-4.8,0.6-11.3,1.3-19.7,1
		c-7.2-0.2-13.2-1.2-17.9-2.9c0,0-1-0.4-1.3-0.6l2.6,1.6c4.5,1.4,10,2.3,16.6,2.5C33.3,43.6,39.8,42.8,44.7,42.3z"/>
	<polygon points="0.6,34.7 0.6,34.7 0.6,34.7 	"/>
	<path d="M56.2,36.6c0,0,0.1,0.1,0.1,0.1c0.1,0,0.9-0.2,0.9-0.2L56.2,36.6C56.2,36.6,56.2,36.6,56.2,36.6z"/>
</g>
<path d="M1.7,35.8c-0.1,0-0.1-0.2-0.1-0.2l-0.9-0.5c0,0,0,0.1,0,0.1c0,0.1,0,0.1,0,0.2c0,0.2,0.1,0.3,0.2,0.4c0,0,0.1,0.1,0.1,0.1
	c0.8,0.6,1.8,1.3,2.9,1.8c1.9,1,4,1.8,6.5,2.4c4,1.1,8.9,1.7,14.5,1.9c3.7,0.1,7.3,0,11.1-0.2c3.3-0.2,6-0.6,8.5-0.8l2.1-0.2
	c3-0.3,5.4-0.5,7.4-0.2l0.3,0l0.1-0.2c0.7-1.3,1.6-2.5,2.7-3.6l0.2-0.2c0,0-0.8,0.2-0.9,0.2c0,0-0.1-0.1-0.1-0.1
	c-0.9,1-1.7,2.1-2.4,3.3c-2-0.2-4.3-0.1-7.3,0.3c0,0-2.1,0.2-2.1,0.2c-2.5,0.3-5.2,0.6-8.5,0.9c-3.8,0.3-7.3,0.3-11,0.2
	c-5.5-0.2-10.3-0.8-14.3-1.8C8.2,39,6,38.2,4.2,37.3C3.3,36.8,2.5,36.4,1.7,35.8L1.7,35.8z"/>
<path d="M56.9,36.3c-1.3-0.9-2.8-1.3-4.3-1.3c-2.3,0-4.8,0.3-7.9,0.7c-5.4,0.7-12.6,1.7-23.2,1.5C12,36.9,5.5,35.8,1.6,34.8
	c-0.1,0-0.1,0-0.2-0.1c0,0,0,0-0.1,0c-0.2,0-0.4,0.1-0.6,0.3c0,0,0.9,0.4,0.9,0.4c0-0.1,0.2-0.1,0.2-0.1l0,0c0,0,0.1,0,0.1,0
	c3.9,0.9,10.3,2,19.5,2.2c10.7,0.3,17.9-0.7,23.4-1.4c3.1-0.4,5.6-0.7,7.8-0.7c1.2,0,2.4,0.4,3.5,1c0,0,0,0,0,0l1-0.1L56.9,36.3z"/>
<g class="st0">
	<path class="st1" d="M142.7,35.1c-3.6,0.9-10.2,2.1-19.9,2.3c-10.7,0.2-17.9-0.7-23.3-1.4c-3.1-0.4-5.6-0.8-7.9-0.7
		c-1.6,0-2.9,0.5-4.1,1.3c1,1.1,2,2.4,2.7,3.7c2.1-0.3,4.5-0.1,7.5,0.3c0.7,0.1,1.4,0.2,2.1,0.2c2.4,0.3,5.2,0.6,8.5,0.9
		c3.2,0.2,6.9,0.4,11,0.2c6.1-0.2,10.8-0.9,14.4-1.9c2.7-0.7,4.8-1.6,6.5-2.4c1.2-0.6,2.2-1.3,2.9-1.8c0.2-0.1,0.2-0.2,0.2-0.4
		C143.4,35.2,142.9,35.1,142.7,35.1z"/>
</g>
<g class="st0">
	<path class="st1" d="M101.2,59.3c0.5-0.3,0.9-0.5,1.3-0.8c-1.6,0.1-3.4,0.1-5.3,0C95,58.5,93,58.3,91.1,58
		c-0.6,1.4-1.4,2.8-2.3,4.1C94.9,62,98.8,60.6,101.2,59.3z"/>
</g>
<g class="st0">
	<path class="st1" d="M93.3,56.9c1.3,0.2,2.7,0.3,4.1,0.4c2.3,0.1,4.3,0.1,6.2-0.1c0.4,0,0.5-0.1,0.9-0.1c0.4,0,0.7-0.1,1.1-0.1
		c0.3-0.1,0.7-0.1,1-0.2c3.3-0.6,5.7-1.6,7.2-2.5c0.9-0.5,1.6-1,2.1-1.5c-2.5,0.4-5.3,0.7-8.6,0.7c-3.9,0-7.3-0.3-10.3-0.7
		c-1.5-0.2-3-0.3-4.3-0.6c-0.2,1.5-0.6,3-1.1,4.5C92.2,56.8,92.7,56.9,93.3,56.9z"/>
</g>
<g class="st0">
	<path class="st1" d="M92.9,50.7c1.3,0.3,2.8,0.5,4.4,0.8c2.9,0.4,6.2,0.7,10,0.7c5,0,8.8-0.6,11.8-1.4c2.9-0.8,5-1.7,6.4-2.6
		c1.2-0.8,2.1-1.5,2.8-2.1c-3.5,1-8,1.9-13.9,2.2c-8.2,0.4-14.3-0.4-18.9-1.1c-1-0.1-2-0.3-2.8-0.4c0.1,0.9,0.2,1.9,0.2,2.8
		C92.9,50,92.9,50.4,92.9,50.7z"/>
</g>
<g class="st0">
	<path class="st1" d="M95.7,45.9c4.5,0.7,10.5,1.5,18.6,1.1c1.8-0.1,3.5-0.2,5-0.4c5.3-0.6,9.1-1.7,11.9-2.9
		c1.3-0.6,2.4-1.1,3.3-1.6c1.3-0.8,2.2-1.5,2.9-2.1c-4,1.5-9.7,2.7-18,3c-8.4,0.3-14.9-0.5-19.8-1c-3.6-0.4-6.4-0.7-8.7-0.5
		c0.6,1.3,1.1,2.6,1.4,4C93.4,45.6,94.5,45.7,95.7,45.9z"/>
</g>
<path d="M136,40.8c-0.5,0.4-1.1,0.8-1.7,1.1c-1,0.6-2.1,1.1-3.3,1.6c-3.3,1.3-7.2,2.3-11.8,2.8c-1.6,0.2-3.3,0.3-5,0.4
	c-8,0.4-14-0.5-18.5-1.1c-1.2-0.2-2.2-0.3-3.1-0.4c-0.3-1.2-0.7-2.3-1.2-3.5l-1-0.5l0.2,0.4c0.6,1.3,1.1,2.6,1.4,4l0.1,0.2l0.2,0
	c1,0.1,2,0.3,3.3,0.5c4.5,0.7,10.5,1.5,18.6,1.1c1.7-0.1,3.4-0.2,5-0.4c4.7-0.6,8.7-1.5,12-2.9c1.2-0.5,2.4-1.1,3.4-1.7
	c1.1-0.7,2.4-1.7,2.9-2.2c0.5-0.5,0.6-0.6,1-1C138.6,39.2,136.1,40.8,136,40.8z"/>
<path d="M92.3,46.8c0.1,0.9,0.2,1.9,0.2,2.8l0,1.4l0.3,0.1c1.6,0.3,3,0.6,4.4,0.8c3.4,0.5,6.7,0.7,10.1,0.7c4.5,0,8.5-0.5,11.9-1.4
	c2.5-0.7,4.7-1.6,6.5-2.7c1.1-0.7,2-1.4,2.8-2.2c0,0,0.7-0.7,0.8-0.9l-2.1,1.3c-0.5,0.4-1.1,0.9-1.8,1.3c-1.7,1.1-3.9,1.9-6.4,2.6
	c-3.3,0.9-7.3,1.3-11.7,1.4c-3.3,0-6.6-0.2-10-0.7c-1.3-0.2-2.6-0.4-4.1-0.7c0-0.3,0-0.9,0-0.9c0-0.8-0.1-1.6-0.2-2.4
	c0,0-0.9-0.8-0.9-0.8L92.3,46.8z"/>
<path d="M114.8,53.2c-0.4,0.3-0.7,0.5-1.1,0.7c-1.9,1.1-4.3,2-7.1,2.5c0,0-1,0.2-1,0.2l-1.1,0.1c0,0-0.5,0.1-0.5,0.1l-0.4,0
	c-1.9,0.2-4,0.2-6.1,0.1c-1.4-0.1-2.7-0.2-4.1-0.4l-1.2-0.2l-1,0.5l0.4,0.1l1.6,0.2c1.4,0.2,2.8,0.3,4.2,0.4
	c2.2,0.1,4.3,0.1,6.2-0.1c0,0,0.9-0.1,0.9-0.1c0,0,1.1-0.1,1.1-0.1l1-0.2c2.9-0.5,5.3-1.4,7.4-2.6c0.8-0.5,1.5-1,2.1-1.5
	c0,0,0,0,0.8-0.8L114.8,53.2z"/>
<path d="M101.3,59c-0.1,0-0.1,0.1-0.2,0.1c-2.1,1.1-5.9,2.5-11.6,2.7l-1.3,0.7l0.6,0c6.2-0.1,10.3-1.6,12.6-2.8
	c0.5-0.2,0.9-0.5,1.4-0.8l1-0.7L101.3,59z"/>
<g>
	<path d="M90.8,57.9l0.1-0.3l0.3,0c2,0.3,4,0.5,6.1,0.6c1.8,0.1,4.3,0,5.3,0c1-0.1,1.2-0.1,1.2-0.1s-2.5,0.8-2.5,0.8
		c-1.3,0.1-2.6,0-4.1,0c-2-0.1-3.9-0.3-5.9-0.6c-0.5,1.1-1.1,2.3-1.8,3.4l-1.3,0.7l0.4-0.5C89.4,60.6,90.2,59.3,90.8,57.9z"/>
	<path d="M93,52.6c-0.2,1.4-0.5,2.8-1,4.2L91.2,57l0.1-0.4c0.5-1.4,0.9-2.9,1.1-4.4l0-0.4l0.4,0.1c1.4,0.2,2.8,0.4,4.3,0.6
		c3.5,0.5,6.8,0.7,10.2,0.7c3.1,0,6.7-0.3,8.6-0.7c0.4-0.1,1.1-0.2,1.1-0.2s-2.2,1-2.2,1c-2.6,0.4-4.4,0.5-7.5,0.5
		c-3.4,0-6.8-0.2-10.3-0.7C95.6,53,94.3,52.8,93,52.6z"/>
	<path d="M95.4,47.5l-2.5-0.3l-0.7-0.7l0.5,0.1l2.8,0.4c4.6,0.7,10.6,1.5,18.8,1.1c5.3-0.3,9.9-1,13.9-2.2c0,0,0.6-0.2,1.1-0.4
		c0,0-1.7,1.2-2.1,1.3c-3.7,1-8,1.6-12.8,1.9C106.1,49,100,48.1,95.4,47.5z"/>
	<path d="M99.6,42.3c-3.4-0.4-6.2-0.7-8.4-0.5c-0.1,0-0.8-0.6-0.8-0.6l0.5-0.1c2.4-0.2,5.2,0.1,8.8,0.5c4.8,0.6,11.3,1.3,19.7,1
		c7.2-0.2,13.2-1.2,17.9-2.9c0,0,1-0.4,1.3-0.6l-2.6,1.6c-4.5,1.4-10,2.3-16.6,2.5C111,43.6,104.5,42.8,99.6,42.3z"/>
	<polygon points="143.7,34.7 143.7,34.7 143.7,34.7 	"/>
	<path d="M88.1,36.6c0,0-0.1,0.1-0.1,0.1c-0.1,0-0.9-0.2-0.9-0.2L88.1,36.6C88.1,36.6,88.1,36.6,88.1,36.6z"/>
</g>
<path d="M142.6,35.8c0.1,0,0.1-0.2,0.1-0.2l0.9-0.5c0,0,0,0.1,0,0.1c0,0.1,0,0.1,0,0.2c0,0.2-0.1,0.3-0.2,0.4c0,0-0.1,0.1-0.1,0.1
	c-0.8,0.6-1.8,1.3-2.9,1.8c-1.9,1-4,1.8-6.5,2.4c-4,1.1-8.9,1.7-14.5,1.9c-3.7,0.1-7.3,0-11.1-0.2c-3.3-0.2-6-0.6-8.5-0.8l-2.1-0.2
	c-3-0.3-5.4-0.5-7.4-0.2l-0.3,0L90,40.4c-0.7-1.3-1.6-2.5-2.7-3.6l-0.2-0.2c0,0,0.8,0.2,0.9,0.2c0,0,0.1-0.1,0.1-0.1
	c0.9,1,1.7,2.1,2.4,3.3c2-0.2,4.3-0.1,7.3,0.3c0,0,2.1,0.2,2.1,0.2c2.5,0.3,5.2,0.6,8.5,0.9c3.8,0.3,7.3,0.3,11,0.2
	c5.5-0.2,10.3-0.8,14.3-1.8c2.4-0.6,4.6-1.4,6.4-2.4C141,36.8,141.8,36.4,142.6,35.8L142.6,35.8z"/>
<path d="M87.4,36.3c1.3-0.9,2.8-1.3,4.3-1.3c2.3,0,4.8,0.3,7.9,0.7c5.4,0.7,12.6,1.7,23.2,1.5c9.5-0.2,16.1-1.3,19.9-2.3
	c0.1,0,0.1,0,0.2-0.1c0,0,0,0,0.1,0c0.2,0,0.4,0.1,0.6,0.3c0,0-0.9,0.4-0.9,0.4c0-0.1-0.2-0.1-0.2-0.1l0,0c0,0-0.1,0-0.1,0
	c-3.9,0.9-10.3,2-19.5,2.2c-10.7,0.3-17.9-0.7-23.4-1.4c-3.1-0.4-5.6-0.7-7.8-0.7c-1.2,0-2.4,0.4-3.5,1c0,0,0,0,0,0l-1-0.1
	L87.4,36.3z"/>
<path d="M91.6,50c0,10.8-8.8,19.6-19.6,19.6c-10.8,0-19.6-8.8-19.6-19.6c0-10.8,8.8-19.6,19.6-19.6C82.9,30.4,91.6,39.2,91.6,50z"/>
<path class="st2" d="M53.3,49.9c0,10.3,8.4,18.7,18.7,18.7c10.3,0,18.7-8.4,18.7-18.7c0-10.3-8.4-18.7-18.7-18.7
	C61.7,31.2,53.3,39.6,53.3,49.9z M53.5,49.9c0-10.1,8.4-18.5,18.5-18.5c10.1,0,18.5,8.4,18.5,18.5c0,10.1-8.4,18.5-18.5,18.5
	C61.9,68.4,53.5,60,53.5,49.9z"/>
<path d="M54,49.9c0,9.9,8.1,18,18.1,18c10,0,18.1-8.1,18.1-18C90.1,40,82,31.8,72,31.8C62.1,31.8,54,40,54,49.9z M54.1,49.9
	c0-9.7,8.1-17.6,17.8-17.6c9.8,0,17.9,7.8,17.9,17.6c0,9.7-8.1,17.2-17.9,17.2C62.2,67.2,54.1,59.7,54.1,49.9z"/>
<path class="st3" d="M54.2,49.9c0-9.7,8.1-17.6,17.8-17.6c9.8,0,17.9,7.8,17.9,17.6c0,9.7-8.1,17.2-17.9,17.2
	C62.3,67.2,54.2,59.7,54.2,49.9z"/>
<path d="M68,65.7c-3.4-0.9-8.1-3.2-10.9-9h-0.2c0,0,2.7,7.6,11.9,9.4L68,65.7z"/>
<path d="M74.7,66.1c3.4-0.7,9.1-2.9,12.1-9.5h-0.2c0,0-2.7,6.8-10.9,9L74.7,66.1z"/>
<path d="M58.5,56.6h-0.2c0,0,3.5,8.3,13.7,8.4c0,0,8.7,0.4,13.3-8.4h-0.2c0,0-3.8,8.2-13.1,8.2C72.1,64.8,62.9,65.3,58.5,56.6z"/>
<path d="M59.7,56.6h-0.2c0,0,3.7,7.5,12.4,6.9c0,0,7,1.3,12.1-6.9h-0.2c0,0-3.9,7.4-11.9,6.7C71.9,63.3,64,64.3,59.7,56.6z"/>
<path d="M61,56.6h-0.2c0,0,2.6,5.9,11.2,5.6c0,0,7.2,0.7,10.8-5.5h-0.2c0,0-2.7,5.7-10.6,5.3C72,61.9,64.7,62.9,61,56.6z"/>
<path d="M62.4,56.6h-0.2c0,0,1.9,3.9,9.9,4.4c0,0,7.2-0.5,9.4-4.4h-0.2c0,0-2,3.8-9.2,4.2C72,60.9,65,60.7,62.4,56.6z"/>
<path d="M82.5,37.4c-2.3-2-5.7-3.8-10.5-4c0,0-6.3-0.4-11.4,4.5l0.5-0.2c2.4-2.1,5.9-4.1,11-4.1c0,0,5.1-0.1,9.7,3.4L82.5,37.4z"/>
<path d="M75.3,35.1c-0.3-0.1-0.7-0.1-1.1-0.2c-0.8-0.1-1.8-0.2-2.6-0.2c0,0-1,0-2.6,0.2c-0.2,0-0.4,0.1-0.6,0.1l0.4,0
	c0.3-0.1,0.7-0.1,1-0.2c0.6-0.1,1.1-0.1,1.7-0.1c0,0,0.7,0,1.7,0.1c0.4,0,0.9,0.1,1.4,0.2L75.3,35.1z"/>
<path d="M74.6,35.9c-0.9-0.1-2-0.2-3-0.3c0,0-1.1-0.1-2.7,0.3l0.3,0.1c0.7-0.1,1.5-0.2,2.3-0.2c0,0,1.1-0.1,2.6,0.2L74.6,35.9z"/>
<path class="st1" d="M75.4,36"/>
<path class="st4" d="M72.1,65.9c-2.2,0-4.3-0.9-5.8-2.4c-1.6-1.6-2.4-3.6-2.4-5.8c0-0.7,0.1-1,0.2-1.6l-17.7,0v-1.9L71,51.8
	l-2.6,3.5c-0.5,0.7-0.7,1.6-0.7,2.4c0,2.4,2,4.4,4.4,4.4c2.4,0,4.4-2,4.4-4.4c0-0.8-0.2-1.6-0.7-2.3l-3.3-3.5h23l2.4,4.2H80.1
	c0.2,0.6,0.2,1,0.2,1.7c0,2.2-0.9,4.3-2.4,5.8C76.3,65,74.3,65.9,72.1,65.9z"/>
<path class="st0" d="M84.3,44H98l-0.1,11.9l-7.1-7.2l-37,0.3l-7.6,6.8L46.3,44h13.2l4.4,2.7l16.7-0.1L84.3,44z M63.2,45.2l0.9,2
	l-14.6,0v5.3h20.9l-2,2.7c-0.5,0.7-0.8,1.6-0.8,2.5c0,2.5,2,4.5,4.5,4.5c2.5,0,4.5-2,4.5-4.5c0-0.9-0.2-1.7-0.7-2.4l-2.5-2.7h21.2
	v-5.3H79.9"/>
<path d="M96.7,45L98,44l-0.1,11.9l-7.1-7.2l-37,0.3l-7.6,6.8L46.3,44l1,1l16.6,1.8l16.7-0.1L96.7,45z M63.2,45.2l0.9,2l-14.6,0v5.3
	h20.9l-2,2.7c-0.5,0.7-0.8,1.6-0.8,2.5c0,2.5,2,4.5,4.5,4.5c2.5,0,4.5-2,4.5-4.5c0-0.9-0.2-1.7-0.7-2.4l-2.5-2.7h21.2v-5.3H79.9"/>
<g class="st0">
	<g id="Outline_3_">
		<g>
			<path class="st1" d="M77,54.4c0.6,0.9,1,2.1,1,3.3c0,3.3-2.7,5.9-5.9,5.9c-3.3,0-5.9-2.7-5.9-5.9c0-1.2,0.4-2.4,1-3.3l0.3-0.4H48
				v-8.2l13.9,0c-0.7-1.6-1.1-2.3-1.3-2.9c-0.3-0.6-0.6-0.7-0.6-0.7c-0.6-0.1-0.7-0.4-0.7-0.4c-0.1-0.3-0.3-0.6-0.3-0.6
				c-0.1-0.3,0.3-0.5,0.3-0.5c4.1-1.7,8.1-3.3,8.4-3.4c0.2-0.1,0.3,0.2,0.3,0.2c0.1,0.2,0.2,0.5,0.2,0.5c0.1,0.2,0.1,0.4,0.1,0.4
				c0,0.2-0.3,0.5-0.3,0.5c-0.2,0.2,0,0.4,0,0.4c0.1,0.2,0.7,0.7,0.7,0.7l1.7,0c0.6-0.9,1.8-0.8,1.8-0.8c1.2,0,1.8,0.8,1.8,0.8
				l1.7,0c0.2-0.2,0.2-0.2,0.6-0.6c0.4-0.4,0-0.6,0-0.6c-0.4-0.3-0.2-0.6-0.2-0.6s0.1-0.2,0.3-0.6c0.1-0.4,0.5-0.2,0.5-0.2
				s7.9,3.2,8.2,3.4c0.4,0.1,0.2,0.4,0.2,0.4l-0.2,0.5c0,0,0,0.3-0.6,0.5c-0.6,0.1-0.9,0.9-0.9,0.9l-1.3,2.8H96V54H76.7L77,54.4z"/>
		</g>
	</g>
	<path class="st1" d="M72.1,65c-2,0-3.8-0.8-5.2-2.2c-1.4-1.4-2.2-3.2-2.2-5.2c0-0.8,0.1-1.6,0.4-2.3H46.6v-11l13.1,0
		c-0.2-0.4-0.3-0.6-0.4-0.9c-0.8-0.2-1.1-0.7-1.3-1l0,0c-0.2-0.3-0.3-0.6-0.3-0.7l0,0c-0.2-0.4-0.2-0.9,0-1.4c0.3-0.6,0.8-0.9,1.1-1
		c2.7-1.1,5.3-2.2,6.9-2.8c0.8-0.3,1.4-0.5,1.4-0.6c0.2-0.1,0.4-0.1,0.6-0.1c0.7,0,1.2,0.4,1.5,1c0.1,0.2,0.2,0.4,0.2,0.5
		c0.2,0.4,0.2,0.8,0.2,1.1c0,0,0,0.1,0,0.1l0,0c0.3-0.3,0.7-0.5,1.1-0.6c0.5-0.2,1-0.2,1.2-0.2c0,0,0.1,0,0.1,0c0,0,0,0,0.1,0
		c1,0,1.8,0.4,2.3,0.7l0.1,0c-0.1-0.3,0-0.7,0.1-1l0.1-0.2l0.1-0.1c0,0,0.1-0.1,0.1-0.3c0.3-0.7,0.9-1.1,1.6-1.1
		c0.3,0,0.6,0.1,0.8,0.2c3.2,1.3,7.9,3.2,8.2,3.3c0.5,0.2,0.9,0.6,1.1,1.1c0.1,0.4,0.1,0.9-0.1,1.3l-0.1,0.2
		c-0.1,0.6-0.6,1.2-1.6,1.5c0.1,0,0.1,0,0.1-0.1l0,0.1l-0.1,0l-0.4,0.8h13.1v11H79c0.2,0.7,0.4,1.5,0.4,2.3c0,2-0.8,3.8-2.2,5.2
		C75.9,64.3,74,65,72.1,65z M68.3,55.2c-0.5,0.7-0.8,1.6-0.8,2.5c0,2.5,2,4.5,4.5,4.5c2.5,0,4.5-2,4.5-4.5c0-0.9-0.2-1.7-0.7-2.4
		l-2.4-2.6h21.1v-5.4H80l2.1-4.7c0.1-0.4,0.4-0.8,0.7-1.1c-1.5-0.6-3.7-1.5-5.2-2.1c-0.1,0.4-0.2,0.7-0.5,1
		c-0.1,0.1-0.1,0.1-0.2,0.2c-0.2,0.2-0.3,0.3-0.5,0.5l-0.4,0.4l-2.9,0l-0.4-0.5c0,0-0.3-0.2-0.6-0.2c0,0,0,0,0,0l-0.1,0l0,0
		c-0.2,0-0.5,0.1-0.6,0.2l-0.4,0.6l-2.9,0l-0.4-0.4c-0.6-0.6-0.9-0.9-0.9-1.1c-0.1-0.1-0.2-0.3-0.2-0.5c0,0,0-0.1,0-0.1
		c-1.3,0.5-3.1,1.3-5.1,2.1c0.2,0.2,0.4,0.5,0.6,0.9c0.1,0.3,0.3,0.7,0.5,1.2c0.2,0.4,0.4,1,0.8,1.7l0.9,2l-14.6,0v5.4h20.8
		L68.3,55.2z"/>
</g>
<path d="M72.1,64.6c-1.8,0-3.6-0.7-4.9-2c-1.3-1.3-2-3-2-4.9c0-1,0.2-1.9,0.6-2.8H47.1v-10l13.3,0c-0.1-0.1-0.1-0.2-0.2-0.4
	c-0.2-0.5-0.4-0.9-0.6-1.3c0-0.1-0.1-0.1-0.1-0.1c-0.8-0.2-1.1-0.6-1.2-0.8c-0.2-0.3-0.3-0.6-0.3-0.6l0,0c-0.1-0.3-0.1-0.7,0-1
	c0.2-0.5,0.6-0.7,0.8-0.7c2.7-1.1,5.3-2.2,6.9-2.8c0.8-0.3,1.4-0.6,1.4-0.6c0.1-0.1,0.3-0.1,0.5-0.1c0.5,0,0.9,0.4,1.1,0.7
	c0.1,0.2,0.2,0.4,0.2,0.5c0.2,0.3,0.2,0.7,0.1,0.8c0,0.2-0.1,0.4-0.2,0.6c0,0,0,0,0,0l0.9,0c0.8-0.7,1.8-0.8,2.2-0.8
	c0,0,0.1,0,0.1,0c0,0,0,0,0.1,0c1,0,1.7,0.4,2.1,0.8l0.9,0c-0.3-0.4-0.3-0.9-0.1-1.3l0-0.1l0-0.1c0,0,0.1-0.2,0.2-0.4
	c0.2-0.5,0.6-0.8,1.2-0.8c0.3,0,0.5,0.1,0.6,0.1c2.7,1.1,7.9,3.2,8.2,3.4c0.5,0.2,0.7,0.6,0.8,0.8c0.1,0.4,0,0.7-0.1,0.9L85.7,42
	c-0.1,0.4-0.4,0.9-1.3,1.1c0,0-0.1,0.2-0.2,0.3l0,0.1l0,0l-0.7,1.5h13.3v10H78.4c0.4,0.9,0.6,1.8,0.6,2.7c0,1.8-0.7,3.6-2,4.9
	C75.6,63.9,73.9,64.6,72.1,64.6z M67.9,54.9c-0.6,0.8-0.9,1.8-0.9,2.8c0,2.8,2.3,5,5,5s5-2.3,5-5c0-1-0.3-1.9-0.8-2.7l-1.7-1.9h20.5
	v-6.3H80.7l1.8-4.1c0.1-0.3,0.4-1,1.2-1.4c-1.5-0.6-5.1-2.1-6.7-2.8c0,0.1,0.1,0.2,0.1,0.4c0,0.4-0.1,0.8-0.4,1.1
	c-0.1,0.1-0.1,0.1-0.2,0.2c-0.2,0.2-0.2,0.3-0.4,0.5L75.9,41l-2.5,0l-0.2-0.4c-0.1-0.1-0.4-0.4-1.1-0.4l-0.1,0l0,0c0,0,0,0,0,0
	c-0.1,0-0.7,0-1,0.4L70.7,41l-2.5,0l-0.3-0.2c-0.6-0.5-0.8-0.8-0.9-0.9c-0.2-0.3-0.3-0.8-0.1-1.1c-0.1,0.1-0.3,0.1-0.5,0.2
	c-1.5,0.6-3.8,1.5-6.2,2.5c0.4,0.1,0.9,0.5,1.2,1.2c0.1,0.3,0.3,0.7,0.5,1.2c0.2,0.4,0.4,1,0.8,1.7l0.6,1.3l-14.4,0v6.3h20.3
	L67.9,54.9z"/>
<g id="Outline">
	<g>
		<path d="M77,54.4c0.6,0.9,1,2.1,1,3.3c0,3.3-2.7,5.9-5.9,5.9c-3.3,0-5.9-2.7-5.9-5.9c0-1.2,0.4-2.4,1-3.3l0.3-0.4H48v-8.2l13.9,0
			c-0.7-1.6-1.1-2.3-1.3-2.9c-0.3-0.6-0.6-0.7-0.6-0.7c-0.6-0.1-0.7-0.4-0.7-0.4c-0.1-0.3-0.3-0.6-0.3-0.6c-0.1-0.3,0.3-0.5,0.3-0.5
			c4.1-1.7,8.1-3.3,8.4-3.4c0.2-0.1,0.3,0.2,0.3,0.2c0.1,0.2,0.2,0.5,0.2,0.5c0.1,0.2,0.1,0.4,0.1,0.4c0,0.2-0.3,0.5-0.3,0.5
			c-0.2,0.2,0,0.4,0,0.4c0.1,0.2,0.7,0.7,0.7,0.7l1.7,0c0.6-0.9,1.8-0.8,1.8-0.8c1.2,0,1.8,0.8,1.8,0.8l1.7,0
			c0.2-0.2,0.2-0.2,0.6-0.6c0.4-0.4,0-0.6,0-0.6c-0.4-0.3-0.2-0.6-0.2-0.6s0.1-0.2,0.3-0.6c0.1-0.4,0.5-0.2,0.5-0.2s7.9,3.2,8.2,3.4
			c0.4,0.1,0.2,0.4,0.2,0.4l-0.2,0.5c0,0,0,0.3-0.6,0.5c-0.6,0.1-0.9,0.9-0.9,0.9l-1.3,2.8H96V54H76.7L77,54.4z"/>
	</g>
	<g>
		<path class="st5" d="M77,54.4c0.6,0.9,1,2.1,1,3.3c0,3.3-2.7,5.9-5.9,5.9c-3.3,0-5.9-2.7-5.9-5.9c0-1.2,0.4-2.4,1-3.3l0.3-0.4H48
			v-8.2l13.9,0c-0.7-1.6-1.1-2.3-1.3-2.9c-0.3-0.6-0.6-0.7-0.6-0.7c-0.6-0.1-0.7-0.4-0.7-0.4c-0.1-0.3-0.3-0.6-0.3-0.6
			c-0.1-0.3,0.3-0.5,0.3-0.5c4.1-1.7,8.1-3.3,8.4-3.4c0.2-0.1,0.3,0.2,0.3,0.2c0.1,0.2,0.2,0.5,0.2,0.5c0.1,0.2,0.1,0.4,0.1,0.4
			c0,0.2-0.3,0.5-0.3,0.5c-0.2,0.2,0,0.4,0,0.4c0.1,0.2,0.7,0.7,0.7,0.7l1.7,0c0.6-0.9,1.8-0.8,1.8-0.8c1.2,0,1.8,0.8,1.8,0.8l1.7,0
			c0.2-0.2,0.2-0.2,0.6-0.6c0.4-0.4,0-0.6,0-0.6c-0.4-0.3-0.2-0.6-0.2-0.6s0.1-0.2,0.3-0.6c0.1-0.4,0.5-0.2,0.5-0.2s7.9,3.2,8.2,3.4
			c0.4,0.1,0.2,0.4,0.2,0.4l-0.2,0.5c0,0,0,0.3-0.6,0.5c-0.6,0.1-0.9,0.9-0.9,0.9l-1.3,2.8H96V54H76.7L77,54.4z"/>
	</g>
</g>
<path class="st6" d="M68.6,40.1c0.9,0,1.8,0,1.8,0c1-1.2,2.8-0.5,2.8-0.5"/>
<path class="st6" d="M67.8,37.4c0,0-7.8,3.1-8.6,3.5c0,0-0.2,0.1,0.2,1"/>
<path class="st6" d="M60.4,42.5c0,0,1.4,2.9,1.6,3.3"/>
<polyline class="st6" points="62,45.9 48.1,45.9 48.1,53.9 "/>
<path d="M67.5,54.1c0,0-3.5,4.4,1.1,8.3"/>
<line class="st6" x1="82.3" y1="45.9" x2="95.9" y2="45.9"/>
<path class="st6" d="M84.9,40.9l-8.4-3.4c0,0-0.3,0.3-0.5,0.9c0,0,0,0.3,0.4,0.6c0,0,0.1,0.6-0.7,1.1l-1.8,0.1"/>
<path class="st7" d="M52.7,49.8c-0.3-0.3-2.4-3.2-2.4-3.2h-0.8v6.8h0.8c0,0,0-4.5,0-5.4c0.5,0.7,2.1,2.8,2.1,2.8H53
	c0,0,1.6-2.1,2.1-2.8c0,0.9,0,5.4,0,5.4H56v-6.8h-0.8C55.2,46.6,53,49.4,52.7,49.8z"/>
<path class="st7" d="M62,46.6h-1.7c-1,0-1.8,0.8-1.8,1.8v3.2c0,1,0.8,1.8,1.8,1.8H62c1,0,1.8-0.8,1.8-1.8v-3.2
	C63.8,47.4,63,46.6,62,46.6z M62.9,51.6c0,0.5-0.4,0.9-1,0.9h-1.7c-0.5,0-1-0.4-1-0.9v-3.2c0-0.5,0.4-0.9,1-0.9H62
	c0.5,0,1,0.4,1,0.9V51.6z"/>
<path class="st7" d="M83.9,46.6c0,0-0.4,0-0.4,0l-3,6.8l0.9,0c0,0,0.5-1,0.5-1.2h3.9c0.1,0.2,0.5,1.2,0.5,1.2h0.9l-3-6.8
	C84.3,46.6,83.9,46.6,83.9,46.6z M82.3,51.3c0.2-0.4,1.3-2.9,1.6-3.5c0.3,0.6,1.4,3.1,1.6,3.5H82.3z"/>
<path class="st7" d="M70.9,48.9v-0.6c0-1-0.8-1.8-1.8-1.8h-2.7v6.8h0.9c0,0,0-2.4,0-2.7h1.4c0.1,0.2,1.8,2.7,1.8,2.7h1
	c0,0-1.6-2.4-1.9-2.8C70.4,50.4,70.9,49.7,70.9,48.9z M67.3,49.9v-2.4c0.3,0,1.8,0,1.8,0c0.5,0,1,0.4,1,0.9v0.6c0,0.5-0.4,0.9-1,0.9
	C69.1,49.9,67.6,49.9,67.3,49.9z"/>
<path class="st7" d="M93.9,46.6c0,0,0,4.3,0,5.2c-0.6-0.8-3.7-5.2-3.7-5.2h-0.8v6.8h0.9c0,0,0-4.3,0-5.2c0.6,0.8,3.7,5.2,3.7,5.2
	h0.8v-6.8H93.9z"/>
<path class="st7" d="M76.4,50.9c0,0,1.3,0,1.7,0c-0.1,1.2-0.8,1.7-2,1.7c-1.3,0-2-1-2-2.6c0-1.6,0.8-2.6,2-2.6
	c0.6,0,1.1,0.2,1.4,0.6l0.1,0.1l0.7-0.5l-0.1-0.2c-0.5-0.6-1.2-1-2.1-1c-1.4,0-2.9,0.9-2.9,3.5c0,2.6,1.5,3.5,2.9,3.5
	c0.7,0,2.8-0.2,2.9-3l0-0.4h-2.6V50.9z"/>
<path class="st8" d="M70.2,60.9c0,0,0.6,1.1,2.1,0.9c0,0,1.9-0.1,2-2.2"/>
<path class="st8" d="M73.1,57.8c0,0,1-0.3,0.8-1.5"/>
<path class="st8" d="M69.9,56.5l0.8,0.1c0,0,0.3-1.7,2-1c0,0,0.4,0.2,0.4,0.6"/>
<path class="st9" d="M79.5,42.4c-0.3,0-0.5-0.2-0.5-0.5s0.2-0.5,0.5-0.5c0.3,0,0.5,0.2,0.5,0.5S79.8,42.4,79.5,42.4z"/>
<path class="st10" d="M76.9,39.8c-0.4,0.9-1,2.3-1,2.3c1.7,0.2,2.5,0.6,2.5,0.6c-0.6,1.3-1.6,3.3-1.6,3.3c1,0.2,1.7,0.9,1.7,0.9
	c0.4-1.1,1-2.6,1-2.6c0.4-1.1,0.4-1,0.4-1c0.9,0.4,2.1,1.4,2.1,1.4c0.5-1.1,1-2.3,1-2.3C80,41.1,76.9,39.8,76.9,39.8z M79.5,42.6
	c-0.3,0-0.5-0.2-0.5-0.5s0.2-0.5,0.5-0.5c0.3,0,0.5,0.2,0.5,0.5S79.8,42.6,79.5,42.6z"/>
<polygon class="st10" points="83.1,41.8 83,42.1 77,39.6 77.1,39.3 "/>
<path class="st11" d="M75.9,42c1.7,0.2,2.5,0.6,2.5,0.6"/>
<path class="st11" d="M77,39.7c1.8,0.7,5.9,2.5,5.9,2.5l0.2-0.3"/>
<path class="st11" d="M76.8,45.9c1,0.2,1.6,0.8,1.6,0.8c0.4-1.1,1-2.6,1-2.6c0.4-1.1,0.4-1,0.4-1c0.9,0.4,2.1,1.4,2.1,1.4
	c0.5-1.1,0.9-2.2,0.9-2.2"/>
<path class="st12" d="M79,42.1c0-0.3,0.2-0.5,0.5-0.5c0.2,0,0.4,0.1,0.5,0.3c-0.1-0.2-0.3-0.3-0.5-0.3C79.2,41.5,79,41.8,79,42.1
	c0,0.1,0,0.3,0.2,0.4C79.1,42.4,79,42.2,79,42.1z"/>
<polygon class="st10" points="67,39.2 67.1,39.6 61.1,42.1 60.9,41.7 "/>
<path class="st10" d="M61.2,42.3c0.4,1,1,2.3,1,2.3c1.4-1.1,2.1-1.4,2.1-1.4c0.4,1.3,1.5,4.1,1.5,4.1l0-1.2l1.5,0
	c-0.5-1.1-1.3-2.5-1.3-2.5c-0.5-1.1-0.4-1-0.4-1c0.9-0.3,2.4-0.5,2.4-0.5c-0.4-1.2-0.9-2.3-0.9-2.3C64.3,41,61.2,42.3,61.2,42.3z
	 M64.9,42.3c-0.2,0.2-0.5,0.2-0.7,0c-0.2-0.2-0.2-0.5,0-0.7c0.2-0.2,0.5-0.2,0.7,0C65.1,41.8,65.1,42.1,64.9,42.3z"/>
<path class="st11" d="M62.2,44.5c1.4-1.1,2.1-1.4,2.1-1.4"/>
<path class="st11" d="M61.1,42.1c1.8-0.8,6-2.5,6-2.5"/>
<path class="st11" d="M65.8,47.3l0-1.2c0.5,0,1.5-0.1,1.5-0.1c-0.7-1.4-1.2-2.5-1.2-2.5c-0.5-1.1-0.4-1-0.4-1
	c0.9-0.3,2.5-0.5,2.5-0.5c-0.4-1.2-0.9-2.2-0.9-2.2"/>
<path class="st12" d="M64.1,42.1c-0.1-0.3,0.1-0.5,0.3-0.6c0.2-0.1,0.4,0,0.5,0.2c-0.1-0.2-0.3-0.3-0.5-0.2
	C64.1,41.6,63.9,41.8,64.1,42.1c0,0.1,0.1,0.3,0.3,0.3C64.2,42.4,64.1,42.3,64.1,42.1z"/>
<g id="Outline_2_">
	<g>
		<path class="st5" d="M48.7,46.2l13.7-0.1c-0.7-1.6-1.2-2.6-1.5-3.3c-0.2-0.6-0.5-0.8-0.5-0.8c-0.6-0.1-0.7-0.3-0.7-0.3
			c-0.1-0.2-0.3-0.6-0.3-0.6c-0.1-0.3,0.3-0.4,0.3-0.4c4-1.6,7.7-3.1,7.9-3.2c0.2-0.1,0.3,0.1,0.3,0.1c0.1,0.2,0.1,0.4,0.1,0.4
			c0.1,0.2,0,0.3,0,0.3c0,0.2-0.3,0.5-0.3,0.5c-0.2,0.2,0.2,0.6,0.2,0.6c0.1,0.2,0.8,0.7,0.8,0.7l1.9,0.1c0.6-0.8,1.6-0.8,1.6-0.8
			c1.2,0,1.7,0.8,1.7,0.8l2,0c0.2-0.2,0.2-0.3,0.6-0.7c0.3-0.4,0.2-0.9,0.2-0.9c-0.4-0.2-0.2-0.4-0.2-0.4s0,0,0.1-0.4
			c0.1-0.4,0.3-0.1,0.3-0.1s7.6,3,7.9,3.2c0.4,0.1,0.1,0.3,0.1,0.3l-0.1,0.4c0,0,0.1,0.4-0.5,0.5c-0.6,0.1-0.9,1-0.9,1l-1.4,3.1
			l13.9,0"/>
	</g>
</g>
<path class="st1" d="M52.6,49.6c-0.3-0.3-2.4-3.2-2.4-3.2h-0.8v6.8h0.8c0,0,0-4.5,0-5.4c0.5,0.7,2.1,2.8,2.1,2.8h0.5
	c0,0,1.6-2.1,2.1-2.8c0,0.9,0,5.4,0,5.4h0.8v-6.8h-0.8C55.1,46.4,52.9,49.3,52.6,49.6z"/>
<path class="st1" d="M61.9,46.5h-1.7c-1,0-1.8,0.8-1.8,1.8v3.2c0,1,0.8,1.8,1.8,1.8h1.7c1,0,1.8-0.8,1.8-1.8v-3.2
	C63.7,47.2,62.9,46.5,61.9,46.5z M62.8,51.5c0,0.5-0.4,0.9-1,0.9h-1.7c-0.5,0-1-0.4-1-0.9v-3.2c0-0.5,0.4-0.9,1-0.9h1.7
	c0.5,0,1,0.4,1,0.9V51.5z"/>
<path class="st1" d="M83.8,46.4c0,0-0.4,0-0.4,0l-3,6.8l0.9,0c0,0,0.5-1,0.5-1.2h3.9c0.1,0.2,0.5,1.2,0.5,1.2h0.9l-3-6.8
	C84.2,46.4,83.8,46.4,83.8,46.4z M82.2,51.2c0.2-0.4,1.3-2.9,1.6-3.5c0.3,0.6,1.4,3.1,1.6,3.5H82.2z"/>
<path class="st1" d="M70.8,48.8v-0.6c0-1-0.8-1.8-1.8-1.8h-2.7v6.8h0.9c0,0,0-2.4,0-2.7h1.4c0.1,0.2,1.8,2.7,1.8,2.7h1
	c0,0-1.6-2.4-1.9-2.8C70.3,50.2,70.8,49.6,70.8,48.8z M67.1,49.7v-2.4c0.3,0,1.8,0,1.8,0c0.5,0,1,0.4,1,0.9v0.6c0,0.5-0.4,0.9-1,0.9
	C69,49.7,67.4,49.7,67.1,49.7z"/>
<path class="st1" d="M93.8,46.4c0,0,0,4.3,0,5.2c-0.6-0.8-3.7-5.2-3.7-5.2h-0.8v6.8h0.9c0,0,0-4.3,0-5.2c0.6,0.8,3.7,5.2,3.7,5.2
	h0.8v-6.8H93.8z"/>
<path class="st1" d="M76.3,50.7c0,0,1.3,0,1.7,0c-0.1,1.2-0.8,1.7-2,1.7c-1.3,0-2-1-2-2.6c0-1.6,0.8-2.6,2-2.6
	c0.6,0,1.1,0.2,1.4,0.6l0.1,0.1l0.7-0.5l-0.1-0.2c-0.5-0.6-1.2-1-2.1-1c-1.4,0-2.9,0.9-2.9,3.5c0,2.6,1.5,3.5,2.9,3.5
	c0.7,0,2.8-0.2,2.9-3l0-0.4h-2.6V50.7z"/>
</svg>
