<?xml version="1.0" encoding="utf-8"?>
<!-- Generator: Adobe Illustrator 24.0.2, SVG Export Plug-In . SVG Version: 6.00 Build 0)  -->
<svg version="1.1" id="Layer_1" xmlns="http://www.w3.org/2000/svg" xmlns:xlink="http://www.w3.org/1999/xlink" x="0px" y="0px"
	 viewBox="0 0 144 101" style="enable-background:new 0 0 144 101;" xml:space="preserve">
<style type="text/css">
	.st0{fill-rule:evenodd;clip-rule:evenodd;fill:#231F20;}
</style>
<g id="Layer_1_1_">
</g>
<g>
	<path class="st0" d="M92.8,3.4H51.7L24.9,30.2v40.8l26.5,26.7h40.9l26.8-26.8V29.9L92.8,3.4L92.8,3.4L92.8,3.4z M111,67.2
		L88.7,89.5H55.3L33,67.3V33.8l22.3-22.2h33.8L111,33.6V67.2L111,67.2L111,67.2z"/>
	<polygon class="st0" points="52,39.8 46.3,28.2 37.9,36.2 37.9,64.5 46,72.8 46,45.1 53.1,60.9 61.1,39.9 61.1,83.9 70.1,83.9 
		70.1,16.9 60.6,16.9 52,39.8 52,39.8 	"/>
	<path class="st0" d="M76.4,16.9v67h10.3l19.5-19.4V50.4h-15v8.1h5.6l0,0c1.5-0.2,1.6,1.5,0.5,2.8c-1.1,1.3-11.9,11.9-11.9,11.9l0,0
		V27.6L98,40.8V44h8.1v-7.5L86.9,16.9H76.4L76.4,16.9L76.4,16.9z"/>
</g>
</svg>
