<?xml version="1.0" encoding="utf-8"?>
<!-- Generator: Adobe Illustrator 24.0.2, SVG Export Plug-In . SVG Version: 6.00 Build 0)  -->
<svg version="1.1" id="Layer_1" xmlns="http://www.w3.org/2000/svg" xmlns:xlink="http://www.w3.org/1999/xlink" x="0px" y="0px"
	 viewBox="0 0 144 101" style="enable-background:new 0 0 144 101;" xml:space="preserve">
<style type="text/css">
	.st0{fill:#E82127;}
</style>
<g id="Layer_1_1_">
</g>
<g id="TESLA" transform="translate(-28.524,-64.797)">
	<g id="g8">
		<polyline id="polyline10" class="st0" points="127.4,158.3 127.4,164.3 129.3,164.3 129.3,160.3 136.2,160.3 136.2,164.3 
			138.1,164.3 138.1,158.3 127.4,158.3 		"/>
		<path id="path12" class="st0" d="M129.1,156.4h7.3c1-0.2,1.8-1.1,2-2h-11.3C127.3,155.3,128,156.2,129.1,156.4"/>
	</g>
	<g id="g14">
		<path id="path16" class="st0" d="M121.6,164.3c1-0.4,1.5-1.1,1.7-1.9h-8.6l0-7.9l-1.9,0v9.8H121.6"/>
	</g>
	<g id="g18">
		<path id="path20" class="st0" d="M98.5,156.3h6.8c1-0.3,1.9-1.1,2.1-1.9H96.6v5.8h8.8v2l-6.9,0c-1.1,0.3-2,1-2.5,2l0.6,0h10.7v-6
			h-8.8L98.5,156.3"/>
	</g>
	<g id="g22">
		<path id="path24" class="st0" d="M81.8,156.4h7.3c1-0.2,1.8-1.1,2-2H79.8C80,155.3,80.7,156.2,81.8,156.4"/>
		<path id="path26" class="st0" d="M81.8,160.3h7.3c1-0.2,1.8-1.1,2-2H79.8C80,159.2,80.7,160.1,81.8,160.3"/>
		<path id="path28" class="st0" d="M81.8,164.3h7.3c1-0.2,1.8-1.1,2-2H79.8C80,163.2,80.7,164.1,81.8,164.3"/>
	</g>
	<g id="g30">
		<path id="path32" class="st0" d="M62.7,154.4c0.2,0.9,1,1.7,2,2h3.1l0.2,0.1v7.8h1.9v-7.8l0.2-0.1h3.1c1-0.3,1.8-1.1,2-2v0
			L62.7,154.4L62.7,154.4"/>
	</g>
</g>
<g id="T" transform="translate(-33.796,-64.797)">
	<path id="path35" class="st0" d="M105.8,134.9l9.6-54.2c9.2,0,12.1,1,12.5,5.1c0,0,6.2-2.3,9.3-7c-12.1-5.6-24.3-5.9-24.3-5.9
		l-7.1,8.7l0,0L98.7,73c0,0-12.2,0.3-24.3,5.9c3.1,4.7,9.3,7,9.3,7c0.4-4.1,3.3-5.1,12.4-5.1L105.8,134.9"/>
	<path id="path37" class="st0" d="M105.8,70.5c9.8-0.1,21,1.5,32.5,6.5c1.5-2.8,1.9-4,1.9-4c-12.6-5-24.3-6.7-34.5-6.7
		c-10.1,0-21.9,1.7-34.5,6.7c0,0,0.6,1.5,1.9,4C84.8,72,96,70.4,105.8,70.5L105.8,70.5"/>
</g>
</svg>
