<?xml version="1.0" encoding="utf-8"?>
<!-- Generator: Adobe Illustrator 25.4.1, SVG Export Plug-In . SVG Version: 6.00 Build 0)  -->
<svg version="1.1" id="Layer_1" xmlns="http://www.w3.org/2000/svg" xmlns:xlink="http://www.w3.org/1999/xlink" x="0px" y="0px"
	 viewBox="0 0 400 400" style="enable-background:new 0 0 400 400;" xml:space="preserve">
<style type="text/css">
	.st0{fill:#0B457F;}
</style>
<path class="st0" d="M190.3,8.9c-40.7,0.8-89.7,7.8-118.2,24.9C53.7,45,31.1,67.6,24.2,102.5c-6.9,34.9-3.7,68.9,3.1,103.8
	c6.8,34.9,20.5,74,58.4,94.2c37.9,20.1,63.3,22.5,115.3,22.4c52,0.2,77.4-2.2,115.3-22.4c37.9-20.1,51.6-59.2,58.4-94.2
	c6.8-34.9,10-68.9,3.1-103.8C370.9,67.6,348.3,45,330,33.8C293,13.5,252.3,9.6,211.8,8.9C204.4,9,197.1,8.8,190.3,8.9L190.3,8.9z
	 M243.3,18.3c15,1.4,52.6,4.4,80.8,21.1c28.1,16.8,40.7,38.1,46,64c5.3,25.9,4.8,58.6-2.5,100.1s-27.7,75.9-55.3,90.4
	c-27.7,14.5-62.7,22.2-111.2,21.5c-48.5,0.7-83.6-6.9-111.2-21.5c-27.6-14.5-48-49-55.3-90.4c-7.3-41.4-7.7-74.2-2.5-100.1
	c5.3-25.9,17.8-47.2,46-64c28.1-16.8,65.8-19.7,80.8-21.1C186.8,16,215.6,15.8,243.3,18.3L243.3,18.3z M191.7,25.5
	c-23.1,0.3-47.8,3.1-64.7,6.7c-19.3,4.1-25.9,5.6-42.6,15.6S47.3,78.1,41,109.3s-3.4,61.7,2.8,93c6.2,31.3,18.6,66.3,53,84.3
	c57.2,29.8,152.6,28.6,208.4,0c34.4-18,46.8-53.1,53-84.3s9.1-61.7,2.8-93s-26.8-51.5-43.4-61.5c-16.7-10-23.3-11.4-42.6-15.6
	c-16.9-3.6-41.6-6.5-64.7-6.7C203.9,25.6,197.6,25.4,191.7,25.5L191.7,25.5z M237.1,40.5c6.3,0.6,17.1,1.5,29.4,3.8
	c1.8,0.4,2.8,1,2.4,2.7c-19.7,47.8-40.8,95.7-62.7,143.5c-3,6.3-6.7,6.6-9.7,1.2c-22.2-48.2-43.4-96.4-63.3-144.6
	c-0.4-1.7,0.6-2.3,2.4-2.7c12.3-2.4,23.1-3.3,29.4-3.9C188.9,38.6,213.5,38.4,237.1,40.5L237.1,40.5z M115.8,49.6
	c1.1,0,1.5,0.7,1.5,2.1l0,0v80.5c0,25.4,4.1,37.3,15.4,58l53.8,99.1c1.8,3.5-1.2,3.3-4.4,3.3c-32.1-1.4-56.7-7.6-76.7-18
	c-23.9-12.3-41.5-41.6-47.8-76.8c-6.3-35.2-6.7-63-2.1-85c4.5-22,15.4-40.1,39.7-54.4c6.1-3.6,12.6-6.4,19.3-8.6
	C114.9,49.7,115.3,49.6,115.8,49.6L115.8,49.6z M286.3,49.6c0.4,0,0.9,0.1,1.3,0.3c6.7,2.3,13.2,5.1,19.3,8.6
	c24.3,14.3,35.2,32.4,39.7,54.4c4.5,22,4.1,49.8-2.1,85c-6.3,35.2-23.9,64.5-47.8,76.8c-20,10.3-44.6,16.6-76.7,18
	c-3.2,0-6.2,0.2-4.4-3.3l53.8-99.1c11.2-20.7,15.4-32.6,15.4-58V51.6l0,0C284.8,50.3,285.2,49.5,286.3,49.6L286.3,49.6z M26.9,347
	c-12.4,0-22.7,4-22.7,19.8c0.3,15.8,13.7,19.7,23.6,19.7h18.8v-7.8l-17,0.1c-3.8,0-13.1-1.4-13.1-12c-0.3-11.1,9.7-12,13.7-12h16.4
	v-7.8L26.9,347z M254.2,347c-6.2,0.1-22.7,1.9-22.7,19.8c0,17,13,19.7,22.6,19.7h24.7c0.6,0,1.1-0.4,1.1-1.1v-21.2
	c0-0.5-0.3-0.8-0.8-0.8l-18.8,0v7.3h8c0.9,0,1.2,1,1,1v6.2c0,0.6-0.2,1-0.9,0.9l-14,0.1c-2.5,0-10.6-1.4-10.6-12.2
	c0-11.2,7.7-11.8,11.2-11.8H280v-7.8L254.2,347z M130.8,347.1L114,386.5l9.7,0.1l12.8-30.6c0.4-1,1.7-0.9,2.1,0.1l13.3,30.5h12.4
	l-15.8-36c-1.6-3.2-3.1-3.5-6.1-3.5L130.8,347.1z M178.8,347.1h-5.2l0.1,39.4l9.2,0.1v-23.1c0.3,0.1,0.7-0.5,2.3,0.7l22.8,20
	c1.1,1.1,2.9,2.4,6,2.4h5.1c0.7,0,1.3-0.6,1.3-1.7l0.1-37.8h-9.2l0,21.3c0,2.2-1.6,2.2-3.2,0.7l-22.7-19.6
	C184,348.3,182.7,347.1,178.8,347.1L178.8,347.1z M306.4,347.1l-16.8,39.4l9.7,0.1l12.8-30.6c0.4-1,1.7-0.9,2.1,0.1l13.3,30.5H340
	l-15.8-36c-1.6-3.2-3.1-3.5-6.1-3.5L306.4,347.1z M354.1,347.1h-5.2l0.1,39.4l9.2,0.1v-23.1c0.3,0.1,0.7-0.5,2.3,0.7l22.8,20
	c1.1,1.1,2.9,2.4,6,2.4h5.1c0.7,0,1.3-0.6,1.3-1.7l0.1-37.8h-9.2l0,21.3c0,2.2-1.6,2.2-3.2,0.7l-22.7-19.6
	C359.3,348.3,358,347.1,354.1,347.1L354.1,347.1z M59.1,347.1v39.5h11.1v-16.4h23.1v16.4h11.5v-39.5H93.3v14.8H70.2v-14.8
	L59.1,347.1z"/>
<g>
</g>
<g>
</g>
<g>
</g>
<g>
</g>
<g>
</g>
<g>
</g>
<g>
</g>
<g>
</g>
<g>
</g>
<g>
</g>
<g>
</g>
<g>
</g>
<g>
</g>
<g>
</g>
<g>
</g>
</svg>
