<?xml version="1.0" encoding="utf-8"?>
<!-- Generator: Adobe Illustrator 24.1.1, SVG Export Plug-In . SVG Version: 6.00 Build 0)  -->
<svg version="1.1" id="Layer_1" xmlns="http://www.w3.org/2000/svg" xmlns:xlink="http://www.w3.org/1999/xlink" x="0px" y="0px"
	 viewBox="0 0 144 101" style="enable-background:new 0 0 144 101;" xml:space="preserve">
<style type="text/css">
	.st0{fill-rule:evenodd;clip-rule:evenodd;fill:#231F20;}
	.st1{fill-rule:evenodd;clip-rule:evenodd;fill:#FFFFFF;}
</style>
<g>
	<path class="st0" d="M18.7,55.6l0,8c0,1.4-0.5,2.8-1.7,4.2c3.8-0.9,7.4-2,10.9-3.5c6.6-3.6,11-8.8,11-17.4c0.2-0.8,1-1.1,1.6-1.3
		c23.4-9.3,47.9-13,70.6-10.8c10.8,1.1,18.6,3.9,24.2,7.8c4.5,4.4,6,7.7,3.8,13.6c-4.3,8.8-15.8,12.3-28.5,12.3
		c-7.5,0-15.1-1.4-22.6-3.5c6.9,3.5,14.6,4.5,23,4.6c11.9,0.3,22.3-2,29.6-11.2c2.8-4.3,3.4-11.8-4.5-17.7c-5.7-3.6-13.4-6.3-25-7.4
		c-26-1.4-45.9,2.1-72.3,11.6c-4.6-10.6-12.3-14.4-21.8-13.6C4.9,33.1-3.3,42.3,3.8,51.4c3.6,3.3,8.7,3.8,13.7,2.9
		C18.3,54.3,18.7,54.7,18.7,55.6L18.7,55.6z"/>
	<path class="st0" d="M133.9,50c-1.4,1.6-2.7-1-3.4-0.7c-0.5,0-1.1,0.2-1.7,0.5c-0.7,0.3-1.2,0.8-1.7,1.3v7.1c0,0.3,0.1,0.5,0.2,0.7
		c0.1,0.2,0.4,0.3,0.7,0.4c0.3,0.1,0.6,0.1,1,0.2c0.4,0,0.8,0.1,1.1,0.1v0.8h-8.1v-0.8c0.2,0,0.5,0,0.8-0.1c0.2,0,0.5,0,0.7-0.1
		c0.3-0.1,0.5-0.2,0.6-0.4c0.1-0.2,0.2-0.4,0.2-0.7v-7.5c0-0.3-0.1-0.5-0.2-0.8c-0.1-0.2-0.4-0.4-0.6-0.6c-0.2-0.1-0.4-0.2-0.7-0.2
		c-0.3,0-0.6-0.1-0.9-0.1v-0.8l4.7-0.3c0.5,0.6,0.7,1.2,0.6,1.9h0.1c0.6-0.7,1.4-1.2,2.1-1.5c0.8-0.4,1.5-0.5,2.2-0.5
		c0.7,0,1.2,0.2,1.6,0.5C133.5,48.7,134.3,49.5,133.9,50L133.9,50z"/>
	<path class="st0" d="M120.1,57.5c-0.7,1-1.5,1.7-2.6,2.3c-1.1,0.6-2.3,0.9-3.7,0.9c-1.2,0-2.3-0.2-3.2-0.5
		c-0.9-0.3-1.7-0.8-2.3-1.4c-0.6-0.6-1.1-1.3-1.3-2c-0.3-0.8-0.4-1.6-0.4-2.5c0-0.8,0.2-1.6,0.5-2.3c0.3-0.8,0.8-1.5,1.4-2.1
		c0.6-0.6,1.3-1.2,2.2-1.5c0.9-0.4,2.2-0.8,3.3-0.8c2.9,0,5,1.1,5.9,3.7l-10.1,3.9c0,0.9,0.5,1.9,1.1,2.7c0.4,0.5,0.9,0.8,1.6,1.1
		c0.7,0.3,1.4,0.4,2.3,0.4c0.9,0,1.7-0.2,2.4-0.5c0.7-0.3,1.3-0.9,1.9-1.8L120.1,57.5L120.1,57.5z"/>
	<path class="st0" d="M104.6,60.3h-7.5v-0.8c0.2,0,0.5,0,0.8-0.1c0.3,0,0.5-0.1,0.7-0.1c0.3-0.1,0.5-0.2,0.7-0.4
		c0.1-0.2,0.2-0.4,0.2-0.7V44.2c0-0.3-0.1-0.6-0.2-0.8c-0.2-0.3-0.4-0.5-0.6-0.6c-0.2-0.1-0.5-0.2-1-0.3c-0.5-0.1-0.9-0.1-1.2-0.1
		v-0.8l5.2-0.4c0.7,0.3,0.8,1.3,0.8,1.9l0,15.2c0,0.3,0.1,0.5,0.2,0.7c0.1,0.2,0.4,0.3,0.7,0.4c0.2,0.1,0.4,0.1,0.7,0.2
		c0.2,0,0.5,0.1,0.8,0.1V60.3L104.6,60.3z"/>
	<path class="st0" d="M95.6,60.3h-7.5v-0.8c0.2,0,0.5,0,0.7-0.1c0.2,0,0.5,0,0.6-0.1c0.3-0.1,0.5-0.2,0.7-0.4
		c0.1-0.2,0.2-0.4,0.2-0.7V52c0-0.9-0.3-1.5-0.7-2c-0.5-0.5-1.1-0.7-1.9-0.7c-0.5,0-1,0.1-1.4,0.2c-0.4,0.1-0.9,0.3-1.2,0.5
		c-0.3,0.2-0.6,0.4-0.8,0.6c-0.2,0.2-0.4,0.4-0.5,0.5v7c0,0.3,0.1,0.5,0.2,0.7c0.1,0.2,0.3,0.3,0.6,0.4c0.2,0.1,0.5,0.1,0.6,0.2
		c0.2,0,0.4,0.1,0.8,0.1v0.8h-7.3v-0.8c0.2,0,0.5,0,0.7-0.1c0.2,0,0.4,0,0.6-0.1c0.3-0.1,0.5-0.2,0.6-0.4c0.1-0.2,0.2-0.4,0.2-0.7
		V52c0-0.9-0.2-1.5-0.7-2c-0.5-0.5-1.1-0.7-1.9-0.7c-0.5,0-1,0.1-1.4,0.2c-0.5,0.1-0.9,0.3-1.2,0.5c-0.3,0.2-0.6,0.4-0.8,0.6
		c-0.2,0.2-0.4,0.4-0.5,0.5v7c0,0.3,0.1,0.5,0.2,0.7c0.1,0.2,0.4,0.3,0.7,0.4c0.2,0.1,0.4,0.1,0.7,0.2c0.2,0,0.5,0.1,0.8,0.1v0.8
		h-7.4v-0.8c0.2,0,0.5,0,0.7-0.1c0.3,0,0.5,0,0.7-0.1c0.3-0.1,0.5-0.2,0.7-0.4c0.1-0.2,0.2-0.4,0.2-0.7v-7.6c0-0.3-0.1-0.5-0.2-0.7
		c-0.2-0.2-0.4-0.4-0.6-0.5c-0.2-0.1-0.4-0.2-0.7-0.2c-0.3-0.1-0.6-0.1-0.9-0.1v-0.8l4.8-0.3c0.5,0.7,0.7,1.3,0.5,2h0.1
		c0.3-0.2,0.6-0.5,1-0.7c0.4-0.3,0.7-0.5,1-0.7c0.4-0.2,0.8-0.4,1.4-0.5c0.5-0.1,1.1-0.2,1.8-0.2c1,0,1.9,0.2,2.6,0.6
		c0.7,0.4,1.2,0.9,1.5,1.5c0.4-0.3,0.7-0.5,1-0.8c0.3-0.2,0.7-0.5,1.1-0.7c0.4-0.2,0.9-0.4,1.4-0.5c0.5-0.1,1.1-0.2,1.8-0.2
		c1.3,0,2.3,0.3,3.1,1c0.8,0.7,1.1,1.7,1.1,3.1v6.2c0,0.3,0.1,0.5,0.2,0.7c0.1,0.2,0.3,0.3,0.6,0.4c0.2,0.1,0.5,0.1,0.7,0.2
		c0.2,0,0.5,0.1,0.8,0.1V60.3L95.6,60.3z"/>
	<path class="st0" d="M65.5,43.2c0,0.5-0.2,0.9-0.6,1.2C64.5,44.8,64,45,63.4,45c-0.5,0-1-0.2-1.4-0.5c-0.4-0.3-0.6-0.7-0.6-1.1
		c0-0.5,0.2-0.9,0.6-1.2c0.4-0.3,0.9-0.5,1.4-0.5c0.6,0,1.1,0.2,1.5,0.5C65.3,42.4,65.5,42.8,65.5,43.2L65.5,43.2z"/>
	<path class="st0" d="M67.4,60.3H60v-0.8c0.2,0,0.5,0,0.7-0.1c0.3,0,0.5,0,0.7-0.1c0.3-0.1,0.5-0.2,0.7-0.4c0.1-0.2,0.2-0.4,0.2-0.7
		v-7.5c0-0.3-0.1-0.5-0.2-0.7c-0.2-0.2-0.4-0.4-0.6-0.5c-0.2-0.1-0.5-0.2-0.9-0.3c-0.4-0.1-0.7-0.1-1-0.1v-0.8l4.7-0.3
		c0.5,0.3,0.8,0.9,0.9,1.6v8.5c0,0.3,0.1,0.5,0.2,0.7c0.1,0.2,0.4,0.3,0.7,0.4c0.2,0.1,0.5,0.1,0.7,0.2c0.2,0,0.5,0.1,0.7,0.1
		L67.4,60.3L67.4,60.3z"/>
	<path class="st0" d="M57,60.2c-0.2,0.6-2.3,0.2-2.8-0.1c-0.5-0.3-1-0.7-1.2-1.3h-0.1c-0.7,0.6-1.4,1.1-2.2,1.4
		c-0.8,0.3-1.7,0.5-2.8,0.5c-1.2,0-2.1-0.3-2.8-0.8c-0.7-0.6-1.1-1.3-1.1-2.2c0-0.5,0.1-0.9,0.2-1.3c0.2-0.4,0.4-0.7,0.8-1
		c0.3-0.2,0.6-0.5,1-0.7c0.4-0.2,0.8-0.3,1.2-0.5c0.5-0.1,1.4-0.4,2.8-0.8c1.4-0.4,2.4-0.7,2.9-0.9v-1.2c0-0.1,0-0.3-0.1-0.6
		c-0.1-0.3-0.2-0.6-0.4-0.9c-0.2-0.3-0.5-0.6-0.9-0.8c-0.4-0.2-0.9-0.3-1.6-0.3c-0.6,0-1.8,0.2-2.2,0.5c-1.6,0.3-2.6,3.6-2.6,2.8
		l0.1-3c0-0.4,0.8-0.1,1.3-0.4c0.5-0.2,1-0.4,1.7-0.6c0.7-0.2,1.3-0.2,2-0.2c0.9,0,1.6,0,2.3,0.1c0.7,0.1,1.2,0.3,1.8,0.6
		c0.5,0.3,0.9,0.7,1.2,1.2c0.3,0.5,0.4,1.2,0.4,2c0,1.2,0,2.2,0,3.1c0,0.9,0,1.9,0,3c0,0.3,0.1,0.5,0.2,0.7c0.1,0.4,1.3,0.4,1.3,0.5
		L57,60.2L57,60.2z"/>
	<path class="st1" d="M116.6,51.2c0-0.7-0.7-1.6-1.5-2.1c-0.4-0.2-0.9-0.4-1.6-0.4c-1.1,0-2,0.4-2.7,1.1c-0.7,0.7-1.2,2.7-1.2,4.1
		L116.6,51.2L116.6,51.2z"/>
	<path class="st1" d="M53,53.6c-0.9,0.2-1.7,0.4-2.3,0.6c-0.7,0.2-1.3,0.4-1.9,0.7c-0.5,0.3-0.9,0.6-1.2,1c-0.3,0.4-0.4,0.8-0.4,1.4
		c0,0.7,0.2,1.2,0.7,1.5c0.5,0.3,1,0.5,1.7,0.5c0.7,0,1.4-0.1,2-0.4c0.6-0.3,1-0.6,1.4-1L53,53.6L53,53.6z"/>
	<path class="st1" d="M23.1,52.8l11.6-4.7c0.9-0.2,1.3,0.2,1.3,1.2c-0.5,8.1-5,12.1-11,14.6c-1.7,0.8-2.6,0.2-2.7-1.5l0-7.7
		C22,53.7,22.2,53,23.1,52.8L23.1,52.8z"/>
	<path class="st1" d="M16.1,43.5c2.7-0.8,5.4-1.8,8.1-3c-1.1,1.1-2,2.3-2.2,3.6v5.6c0,1.3,0.6,1.6,1.5,1.4l11.4-4.5
		c0.7-0.4,1-1,0.9-1.7c-2.4-11.3-15.3-15.2-25-10.9c-9.4,4.6-8.3,15.8,0,18.9c3,0.8,5.5,0.6,7.6-0.6l0.1-6.7
		C18.5,44.2,17.3,43.8,16.1,43.5L16.1,43.5z"/>
</g>
</svg>
