<?xml version="1.0" encoding="utf-8"?>
<!-- Generator: Adobe Illustrator 26.0.1, SVG Export Plug-In . SVG Version: 6.00 Build 0)  -->
<svg version="1.1" id="Layer_1" xmlns="http://www.w3.org/2000/svg" xmlns:xlink="http://www.w3.org/1999/xlink" x="0px" y="0px"
	 viewBox="0 0 400 400" style="enable-background:new 0 0 400 400;" xml:space="preserve">
<style type="text/css">
	.st0{fill:#FFFFFF;}
	.st1{fill:#0166FE;}
</style>
<path class="st0" d="M129.37,15.88C82.15,34.06,42.56,71.15,21.6,117.22C4.02,154.89-0.21,198.18,7.58,238.82
	c7.46,2.25,14.93,4.55,22.72,5.3c-8.42-38.24-7.45-79.02,7.02-115.72c14.02-36.82,40.68-68.57,74.37-88.95
	c35.85-21.96,79.55-30.84,121.12-24.33c40.64,6.09,77.99,25.83,105.91,55.97c2.88,4.19,8.39,1.62,12.54,2.23
	c-30.5-36.26-74.15-61.39-121.17-68.29c-33.78-4.49-68.9-1.77-100.74,10.86"/>
<path class="st0" d="M366.87,146.47c19.03,58.38,5.84,125.68-33.92,172.44c-31.39,37.94-78.97,61.9-128.12,64.6
	c-58.06,4.07-117-22.47-152.93-68.18c-2.54-4.56-8.31-1.82-12.33-2.51c30.74,43.64,79.41,74.16,132.28,81.87
	c35.94,4.28,73.25,1.05,106.54-13.82c48.85-20.61,88.23-62.09,106.56-111.8c14.03-36.87,16-78.13,6.81-116.37
	c-8.18-2.53-16.49-4.61-24.89-6.23"/>
<path class="st0" d="M245.31,152.57c0.09,24.56-0.04,49.15,0.07,73.71c7.21,0,14.42,0,21.63,0c0.12-24.56-0.09-49.13,0.12-73.69
	c-7.28-0.07-14.55-0.07-21.82,0"/>
<path class="st0" d="M56.63,154.87c-8.26,2.7-15.07,10.75-14.68,19.7c-0.32,9.73,8.16,17.68,17.26,19.4
	c14.17,2.67,28.68,0.9,42.96,2.16c5.21,0.4,10.51,5.47,8.42,10.96c-2.81,5.54-9.89,5.44-15.23,5.63
	c-18.44,0.12-36.9-0.09-55.34,0.09c0.61,4.47,1.23,8.96,1.93,13.42c20.1,0.09,40.21,0,60.31,0.04c9.45-0.12,20.28-0.86,26.99-8.47
	c9.16-9.07,6.06-27.08-6.09-31.87c-17.62-7.84-37.68-0.37-55.74-5.68c-7-2.32-4.51-13.82,2.75-13.61
	c18.68-1.32,37.45-0.4,56.18-0.61c2.45-4.46,4.86-8.96,7.19-13.47c-17.4-0.12-34.8-0.04-52.2-0.07c-8.26,0.09-16.7-0.16-24.64,2.35"
	/>
<path class="st0" d="M132.44,225.91c8.03,0.07,16.05-0.12,24.08,0.21c3.7-5.56,6.47-11.63,9.91-17.33
	c10.65,0.32,21.31,0.21,31.94,0.09c-2.28-4.19-4.41-8.44-6.44-12.75c-6.35-0.42-12.7-0.46-19.05-0.3
	c4.31-8.42,8.72-16.8,12.98-25.22c8.31,17.01,17.4,33.6,25.84,50.5c1.21,1.81,2.24,5.16,5,4.79c7.56-0.28,15.12-0.58,22.68,0.16
	c-13.49-24.64-27.66-48.87-41.41-73.34c-8.12,0.03-16.24,0.03-24.33-0.04c-13.87,24.33-28.17,48.47-41.22,73.25"/>
<path class="st0" d="M298.04,156.83c-26.99,10-27.24,55.69-0.12,65.62c19.45,6.7,40.45,2.81,60.58,3.79
	c0.61-4.47,1.18-8.96,1.75-13.42c-13.03-0.37-26.12,0.46-39.1-0.47c-7.94-0.37-16.03-5.14-17.96-13.22
	c-3.45-10.98-1.85-27.5,11.18-31.1c13.81-3.77,28.4-1.3,42.55-2.04c-1.19-4.44-2.35-8.91-3.51-13.36
	C334.98,153.05,315.74,150.38,298.04,156.83"/>
<path class="st0" d="M72.92,239.15c0.61,1.75,1.86,5.25,2.49,7c83.49,0.07,166.98,0.09,250.48,0.05c0.72-2.37,1.46-4.73,2.2-7.07
	c-85.07-0.03-170.12-0.03-255.15,0L72.92,239.15z"/>
<path class="st1" d="M129.37,15.88C161.22,3.25,196.34,0.53,230.12,5.02c46.99,6.91,90.65,32.03,121.17,68.29
	c-4.14-0.61-9.65,1.96-12.54-2.23c-27.93-30.15-65.29-49.89-105.93-55.97c-41.58-6.51-85.27,2.37-121.12,24.33
	C78.01,59.83,51.33,91.58,37.34,128.4c-14.47,36.7-15.42,77.48-7.02,115.72c-7.79-0.75-15.26-3.05-22.72-5.3
	c-7.81-40.64-3.58-83.93,14.01-121.59C42.57,71.15,82.16,34.07,129.38,15.89"/>
<path class="st1" d="M366.87,146.47c8.4,1.63,16.71,3.71,24.89,6.23c9.19,38.24,7.21,79.51-6.81,116.37
	c-18.33,49.71-57.71,91.19-106.56,111.8c-33.29,14.86-70.62,18.09-106.54,13.8c-52.87-7.75-101.54-38.24-132.26-81.88
	c4.03,0.69,9.79-2.05,12.33,2.51c35.91,45.71,94.86,72.25,152.92,68.18c49.15-2.7,96.75-26.66,128.12-64.6
	c39.75-46.75,52.94-114.07,33.92-172.44"/>
<path class="st1" d="M245.31,152.57c7.26-0.07,14.53-0.07,21.82,0c-0.21,24.56,0,49.13-0.12,73.69c-7.21,0.02-14.43,0.02-21.63,0
	c-0.12-24.56,0-49.15-0.07-73.71"/>
<path class="st1" d="M56.63,154.87c7.93-2.51,16.4-2.26,24.64-2.35c17.4,0.03,34.8-0.04,52.2,0.07c-2.32,4.51-4.74,9-7.19,13.47
	c-18.73,0.21-37.45-0.72-56.18,0.61c-7.26-0.21-9.75,11.28-2.75,13.61c18.05,5.3,38.13-2.16,55.74,5.68
	c12.17,4.79,15.26,22.8,6.09,31.87c-6.68,7.61-17.51,8.35-26.99,8.47c-20.1,0-40.21,0.05-60.31-0.04c-0.7-4.47-1.33-8.96-1.93-13.42
	c18.44-0.19,36.9,0,55.34-0.09c5.35-0.19,12.42-0.09,15.23-5.63c2.09-5.51-3.21-10.56-8.42-10.96c-14.26-1.26-28.77,0.51-42.96-2.16
	c-9.02-1.72-17.5-9.68-17.15-19.4c-0.4-8.96,6.42-17,14.68-19.7"/>
<path class="st1" d="M132.44,225.91c13.05-24.78,27.36-48.9,41.22-73.25c8.09,0.07,16.21,0.07,24.33,0.04
	c13.77,24.48,27.92,48.71,41.41,73.34c-7.56-0.74-15.12-0.44-22.68-0.16c-2.75,0.37-3.79-2.98-5-4.79
	c-8.44-16.91-17.54-33.5-25.84-50.5c-4.26,8.42-8.67,16.8-12.98,25.22c6.35-0.17,12.7-0.12,19.05,0.3
	c2.03,4.31,4.16,8.56,6.44,12.75c-10.65,0.12-21.31,0.23-31.94-0.09c-3.44,5.7-6.21,11.77-9.91,17.33
	c-8.02-0.33-16.05-0.14-24.08-0.21"/>
<path class="st1" d="M298.04,156.83c17.7-6.44,36.94-3.77,55.36-4.19c1.16,4.44,2.32,8.91,3.51,13.36
	c-14.14,0.74-28.73-1.72-42.55,2.04c-13.03,3.6-14.63,20.12-11.19,31.08c1.93,8.1,10.02,12.87,17.96,13.22
	c13,0.93,26.1,0.09,39.1,0.47c-0.55,4.47-1.14,8.96-1.75,13.42c-20.15-0.98-41.15,2.91-60.58-3.79
	c-27.12-9.91-26.87-55.63,0.12-65.62"/>
<path class="st1" d="M72.92,239.15c85.05-0.11,170.1-0.11,255.15,0c-0.72,2.35-1.46,4.7-2.2,7.07c-83.48,0-166.98-0.02-250.48-0.05
	c-0.63-1.75-1.88-5.25-2.49-7L72.92,239.15z"/>
</svg>
