<?xml version="1.0" encoding="utf-8"?>
<!-- Generator: Adobe Illustrator 26.0.1, SVG Export Plug-In . SVG Version: 6.00 Build 0)  -->
<svg version="1.1" id="Layer_1" xmlns="http://www.w3.org/2000/svg" xmlns:xlink="http://www.w3.org/1999/xlink" x="0px" y="0px"
	 viewBox="0 0 788 148" style="enable-background:new 0 0 788 148;" xml:space="preserve">
<style type="text/css">
	.st0{fill:url(#SVGID_1_);}
	.st1{fill:#FFFFFF;}
	.st2{fill:url(#SVGID_00000030468895459941964280000013860109061151530940_);}
	.st3{fill:url(#SVGID_00000109717491599986472770000010893999194743054732_);}
	.st4{fill:url(#SVGID_00000135690050744808639190000010411797744861162403_);}
	.st5{fill:url(#SVGID_00000145060282807524429950000012765332829076203431_);}
</style>
<g>
	<path d="M87.67,130.51l22.28-41.18c-4.07,0.03-7.81,0.22-11.14,0.56c-8.4,0.86-17.09,8.93-20.99,16.1l-13.11,24.52H6.01L64.3,25.49
		h58.82l-17.35,30.29c4.62-0.31,8.99-0.42,12.05-0.47c3.92-0.05,7.43-0.07,10.06-0.07c0.32,0,0.62,0,0.91,0l17.09-29.76h58.57
		l-58.29,105.01H87.67z"/>
	<linearGradient id="SVGID_1_" gradientUnits="userSpaceOnUse" x1="105.2334" y1="32.3485" x2="105.2334" y2="124.0656">
		<stop  offset="0" style="stop-color:#CCCCCC"/>
		<stop  offset="0.0417" style="stop-color:#CFCFCF"/>
		<stop  offset="0.0763" style="stop-color:#DADADA"/>
		<stop  offset="0.1083" style="stop-color:#EBEBEB"/>
		<stop  offset="0.1344" style="stop-color:#FFFFFF"/>
		<stop  offset="0.296" style="stop-color:#FFFFFF"/>
		<stop  offset="0.6345" style="stop-color:#999999"/>
		<stop  offset="0.8097" style="stop-color:#999999"/>
		<stop  offset="0.8356" style="stop-color:#9F9F9F"/>
		<stop  offset="0.8702" style="stop-color:#B0B0B0"/>
		<stop  offset="0.9096" style="stop-color:#CCCCCC"/>
		<stop  offset="0.9524" style="stop-color:#F2F2F2"/>
		<stop  offset="0.9652" style="stop-color:#FFFFFF"/>
	</linearGradient>
	<path class="st0" d="M132.79,61.98L149.89,32h42.83l-50.62,92H99.27l22.11-41.07c0,0-11.98-0.97-23.27,0.18
		c-11.28,1.15-21.65,11.18-26.36,19.82L60.58,124H17.74l50.62-92h42.83L92.93,64.1c6.56-1.38,16.58-1.96,24.99-2.07
		C126.32,61.91,132.79,61.98,132.79,61.98z"/>
	<path class="st1" d="M142.91,125H96.95l22.18-41.01c-1.82-0.09-4.65-0.19-7.98-0.19c-4.72,0-9.06,0.2-12.9,0.59
		c-10.4,1.06-20.59,10.35-25.28,18.96L61.41,125H15.4l52.16-94h46.03L95.61,62.4c7.85-1.23,17.95-1.5,22.29-1.56
		c6.66-0.09,12.1-0.08,14.09-0.06L149.09,31h45.98L142.91,125z M101.58,122h39.7l49.09-88h-39.69l-17.11,29.68l-0.81-0.06
		c-0.01,0-6.45-0.09-14.83,0.02c-10.2,0.14-19.21,0.87-24.72,2.03L90.2,66.4L108.82,34H69.18l-49.09,88h39.66l10.79-20.08
		c4.89-8.98,15.56-19.12,27.43-20.34c3.93-0.4,8.37-0.58,13.18-0.58c5.88,0,10.28,0.33,10.33,0.33l2.13,0.05L101.58,122z"/>
	<polygon points="351.27,130.51 349.36,25.49 403.58,25.49 405.02,66.61 455.06,25.49 529.6,25.49 405.85,130.51 	"/>
	
		<linearGradient id="SVGID_00000183231528058432475820000010375224701720714158_" gradientUnits="userSpaceOnUse" x1="433.5908" y1="33.4054" x2="433.5908" y2="124.0648">
		<stop  offset="0" style="stop-color:#CCCCCC"/>
		<stop  offset="0.0417" style="stop-color:#CFCFCF"/>
		<stop  offset="0.0763" style="stop-color:#DADADA"/>
		<stop  offset="0.1083" style="stop-color:#EBEBEB"/>
		<stop  offset="0.1344" style="stop-color:#FFFFFF"/>
		<stop  offset="0.296" style="stop-color:#FFFFFF"/>
		<stop  offset="0.6345" style="stop-color:#999999"/>
		<stop  offset="0.8097" style="stop-color:#999999"/>
		<stop  offset="0.8356" style="stop-color:#9F9F9F"/>
		<stop  offset="0.8702" style="stop-color:#B0B0B0"/>
		<stop  offset="0.9096" style="stop-color:#CCCCCC"/>
		<stop  offset="0.9524" style="stop-color:#F2F2F2"/>
		<stop  offset="0.9652" style="stop-color:#FFFFFF"/>
	</linearGradient>
	<polygon style="fill:url(#SVGID_00000183231528058432475820000010375224701720714158_);" points="358.05,124 403.32,124 510.78,32 
		457.54,32 398.6,80.62 396.9,32 356.4,32 	"/>
	<path class="st1" d="M403.82,125H356.7l-1.72-94.31l43.21,0.11l1.7,47.17L457.04,31h57.5L403.82,125z M359.41,122h43.4l104.21-88
		h-48.99l-60.71,49.77l-1.8-50.11l-37.73-0.36L359.41,122z"/>
	<path d="M247.17,130.51l9.23-20.42c-4.06-0.18-9.01-0.36-14.14-0.42l-0.5,0c-10.83,0-20.95,4.65-24.46,7.83l-13.37,13.03h-60.75
		l82.44-74.37c2.82-2.64,12.65-10.1,20.14-15.26c9-6.2,32.64-15.38,54.79-15.38h44.79l-49.39,105.01H247.17z M271.47,76.62
		l7.62-14.75c-5.63,3.97-14.52,11.53-18.19,14.75H271.47z"/>
	
		<linearGradient id="SVGID_00000136376058139815936460000012343393726862021768_" gradientUnits="userSpaceOnUse" x1="247.8022" y1="31.6515" x2="247.8022" y2="123.3686">
		<stop  offset="0" style="stop-color:#CCCCCC"/>
		<stop  offset="0.0417" style="stop-color:#CFCFCF"/>
		<stop  offset="0.0763" style="stop-color:#DADADA"/>
		<stop  offset="0.1083" style="stop-color:#EBEBEB"/>
		<stop  offset="0.1344" style="stop-color:#FFFFFF"/>
		<stop  offset="0.296" style="stop-color:#FFFFFF"/>
		<stop  offset="0.6345" style="stop-color:#999999"/>
		<stop  offset="0.8097" style="stop-color:#999999"/>
		<stop  offset="0.8356" style="stop-color:#9F9F9F"/>
		<stop  offset="0.8702" style="stop-color:#B0B0B0"/>
		<stop  offset="0.9096" style="stop-color:#CCCCCC"/>
		<stop  offset="0.9524" style="stop-color:#F2F2F2"/>
		<stop  offset="0.9652" style="stop-color:#FFFFFF"/>
	</linearGradient>
	<path style="fill:url(#SVGID_00000136376058139815936460000012343393726862021768_);" d="M300.55,32
		c-20.86,0-43.02,8.96-50.87,14.36s-17.06,12.78-19.43,15L161.15,124h39.97l11.44-11.34c4.67-4.3,16.88-9.98,29.79-9.81
		c12.91,0.17,24.5,1.14,24.5,1.14L257.87,124h33.69l42.89-92H300.55z M275.67,84h-32.02l12.45-12.12c0,0,15.21-13.5,22.01-17.51
		c6.8-4.01,14.13-2.62,14.13-2.62L275.67,84z"/>
	<path class="st1" d="M292.44,124.98h-36.71l9.03-19.99c-3.85-0.24-12.82-0.73-22.43-0.86l-0.57,0c-12.5,0-24.05,5.46-28.26,9.35
		l-11.81,11.51h-44.13l71.76-64.74c2.41-2.26,11.69-9.38,19.58-14.81c8.43-5.81,30.68-14.41,51.65-14.41h36.09L292.44,124.98z
		 M260.01,122.22h30.68l41.59-88.43h-31.73c-21.11,0-43.04,9.07-50.08,13.92c-7.79,5.37-16.91,12.36-19.27,14.57l-66.44,59.94h35.82
		l11.03-10.75c5.33-4.91,17.69-10.1,30.16-10.1l0.61,0c12.8,0.17,24.46,0.98,24.57,0.99l1.98,0.14L260.01,122.22z M276.52,84.91
		H240.2l14.94-14.27c0.67-0.59,15.43-13.55,22.27-17.58c4.43-2.61,9.04-3.16,12.13-3.16c1.76,0,2.88,0.18,2.93,0.19l1.87,0.31
		L276.52,84.91z M247.1,82.14h27.73l15.23-29.48c-2.65-0.07-7.09,0.32-11.25,2.77c-6.61,3.9-21.65,17.11-21.8,17.24L247.1,82.14z"/>
	<path d="M531.28,130.51l9.23-20.42c-4.06-0.18-9.01-0.36-14.14-0.42l-0.5,0c-10.83,0-20.95,4.65-24.46,7.83l-13.37,13.03h-60.75
		l82.44-74.37c2.82-2.64,12.66-10.1,20.14-15.26c9.01-6.2,32.65-15.38,54.79-15.38h44.79l-49.39,105.01H531.28z M555.58,76.62
		l7.62-14.75c-5.63,3.97-14.52,11.53-18.19,14.75H555.58z"/>
	
		<linearGradient id="SVGID_00000015353188906900346890000002210103287861962150_" gradientUnits="userSpaceOnUse" x1="531.915" y1="31.6515" x2="531.915" y2="123.3686">
		<stop  offset="0" style="stop-color:#CCCCCC"/>
		<stop  offset="0.0417" style="stop-color:#CFCFCF"/>
		<stop  offset="0.0763" style="stop-color:#DADADA"/>
		<stop  offset="0.1083" style="stop-color:#EBEBEB"/>
		<stop  offset="0.1344" style="stop-color:#FFFFFF"/>
		<stop  offset="0.296" style="stop-color:#FFFFFF"/>
		<stop  offset="0.6345" style="stop-color:#999999"/>
		<stop  offset="0.8097" style="stop-color:#999999"/>
		<stop  offset="0.8356" style="stop-color:#9F9F9F"/>
		<stop  offset="0.8702" style="stop-color:#B0B0B0"/>
		<stop  offset="0.9096" style="stop-color:#CCCCCC"/>
		<stop  offset="0.9524" style="stop-color:#F2F2F2"/>
		<stop  offset="0.9652" style="stop-color:#FFFFFF"/>
	</linearGradient>
	<path style="fill:url(#SVGID_00000015353188906900346890000002210103287861962150_);" d="M584.66,32
		c-20.86,0-43.02,8.96-50.87,14.36c-7.85,5.41-17.06,12.78-19.43,15L445.26,124h39.97l11.44-11.34c4.67-4.3,16.88-9.98,29.79-9.81
		c12.91,0.17,24.49,1.14,24.49,1.14L541.98,124h33.69l42.89-92H584.66z M559.79,84h-32.02l12.45-12.12c0,0,15.21-13.5,22.01-17.51
		c6.8-4.01,14.13-2.62,14.13-2.62L559.79,84z"/>
	<path class="st1" d="M576.55,124.98h-36.71l9.03-19.99c-3.85-0.24-12.82-0.73-22.43-0.86l-0.57,0c-12.5,0-24.05,5.46-28.26,9.35
		l-11.81,11.51h-44.13l71.76-64.74c2.41-2.26,11.7-9.38,19.58-14.81c8.43-5.81,30.68-14.41,51.65-14.41h36.09L576.55,124.98z
		 M544.12,122.22h30.68l41.59-88.43h-31.73c-21.11,0-43.04,9.07-50.08,13.92c-7.79,5.36-16.91,12.36-19.27,14.57l-66.44,59.94h35.82
		l11.03-10.75c5.33-4.91,17.69-10.1,30.17-10.1l0.61,0c12.8,0.17,24.46,0.98,24.57,0.99l1.98,0.14L544.12,122.22z M560.63,84.91
		h-36.31l14.94-14.27c0.67-0.59,15.43-13.55,22.27-17.58c4.43-2.61,9.04-3.16,12.13-3.16c1.76,0,2.89,0.18,2.93,0.19l1.88,0.31
		L560.63,84.91z M531.21,82.14h27.73l15.23-29.48c-2.66-0.06-7.09,0.32-11.25,2.77c-6.62,3.9-21.65,17.11-21.8,17.24L531.21,82.14z"
		/>
	<path d="M648.91,130.51c-4.61-0.03-20.06-0.47-27-5.1c-11-7.33-13.55-21.5-6.19-34.46c4.41-7.77,34.66-61.4,34.96-61.95l1.98-3.52
		h86.71l-26.79,13.11c-0.1,0.05-11.93,6.03-18.65,17.46c-3.32,5.65-16.52,29.2-20.96,37.13h101.14l-34.44,37.31H648.91z"/>
	
		<linearGradient id="SVGID_00000021829451353500931040000004556594698358660739_" gradientUnits="userSpaceOnUse" x1="688.3823" y1="32.3485" x2="688.3823" y2="124.0656">
		<stop  offset="0" style="stop-color:#CCCCCC"/>
		<stop  offset="0.0417" style="stop-color:#CFCFCF"/>
		<stop  offset="0.0763" style="stop-color:#DADADA"/>
		<stop  offset="0.1083" style="stop-color:#EBEBEB"/>
		<stop  offset="0.1344" style="stop-color:#FFFFFF"/>
		<stop  offset="0.296" style="stop-color:#FFFFFF"/>
		<stop  offset="0.6345" style="stop-color:#999999"/>
		<stop  offset="0.8097" style="stop-color:#999999"/>
		<stop  offset="0.8356" style="stop-color:#9F9F9F"/>
		<stop  offset="0.8702" style="stop-color:#B0B0B0"/>
		<stop  offset="0.9096" style="stop-color:#CCCCCC"/>
		<stop  offset="0.9524" style="stop-color:#F2F2F2"/>
		<stop  offset="0.9652" style="stop-color:#FFFFFF"/>
	</linearGradient>
	<path style="fill:url(#SVGID_00000021829451353500931040000004556594698358660739_);" d="M665.48,92.4c0,0,18.43-33.12,22.51-40.06
		C695.9,38.85,709.55,32,709.55,32H656.7c0,0-30.5,54.3-34.97,62.17c-5.06,8.9-4.72,19.77,4.02,25.6
		c5.76,3.84,23.17,4.24,23.17,4.24h87.74l21.68-24h-90.77C667.56,100,662.46,97.28,665.48,92.4z"/>
	<path class="st1" d="M737.25,125h-88.35c-0.74,0-17.9-0.16-23.93-4.18c-8.62-5.74-10.41-16.65-4.45-27.13
		c4.42-7.78,34.67-61.43,34.97-61.97l0.4-0.72h59.6l-5.34,2.63c-0.13,0.07-13.38,6.68-20.99,19.63
		c-4.02,6.85-22.31,39.53-22.49,39.86c-0.71,1.16-0.93,2.3-0.67,3.24c0.34,1.27,1.44,1.64,1.95,2.64h93.53L737.25,125z M657.51,34
		c-3.6,6-30.43,53.86-34.58,61.16c-4.32,7.61-4.89,17.65,3.58,23.3c4.44,2.96,17.68,3.54,22.41,3.54h87.13l19.13-21h-87.96
		l-0.31,0.08c-0.11-0.06-2.81-1.44-3.57-4.26c-0.45-1.69-0.13-3.38,0.96-5.15c0.16-0.28,18.45-32.85,22.49-39.72
		C692.05,42.98,699.67,37,704.47,34H657.51z"/>
</g>
</svg>
